<?xml version="1.0" encoding="utf-8"?>
<svg version="1.1" xmlns:xlink="http://www.w3.org/1999/xlink" width="69px" height="72px" xmlns="http://www.w3.org/2000/svg">
  <defs>
    <linearGradient gradientUnits="userSpaceOnUse" x1="69" y1="69.5" x2="2.7393" y2="2.75915" id="LinearGradient1490">
      <stop id="Stop1491" stop-color="#ffffff" stop-opacity="0.501960784313725" offset="0" />
      <stop id="Stop1492" stop-color="#ffffff" stop-opacity="0.498039215686275" offset="1" />
    </linearGradient>
  </defs>
  <g transform="matrix(1 0 0 1 -269 -158 )">
    <path d="M 31.2797019140625 27.4664325234375  L 31.2797019140625 20  L 11.2241692734375 20  L 11.2241692734375 29.0091658359375  L 18 29.0091658359375  L 18 46  L 1 46  L 1 29.1120147421875  L 7.213062703125 29.1120147421875  L 7.213062703125 20.0613128203125  L 3.4076539453125 20.0613128203125  C -0.3977548125 20.0613128203125  -0.3977548125 14.4046241015625  3.4076539453125 15  L 19.863475640625 15  L 47.5298258671875 0.3143267578125  C 48.55831471875 -0.199917703125  49.7925013828125 -0.097068796875  50.718141328125 0.7257223125  L 67.482509671875 15.1245663046875  C 69.43663846875 16.872997359375  68.30530078125 20.1641617265625  65.6312297109375 20.16416165625  L 59.9745409921875 20.16416165625  L 59.9745409921875 27.5692814296875  C 59.9745409921875 29.317712484375  58.5346565859375 30.757596890625  56.78622553125 30.757596890625  L 55 30.757596890625  L 55 67.88604459375  L 58.5346565859375 67.88604459375  C 59.66599434375 67.88604459375  60.5916342890625 68.8116845390625  60.5916342890625 69.943022296875  C 60.5916342890625 71.0743600546875  59.66599434375 72  58.5346565859375 72  L 32.6167374140625 72  C 31.48539965625 72  30.5597597109375 71.0743600546875  30.5597597109375 69.943022296875  C 30.5597597109375 68.8116845390625  31.48539965625 67.88604459375  32.6167374140625 67.88604459375  L 36 67.88604459375  L 36 30.654747984375  L 34.468017375 30.654747984375  C 32.7195863203125 30.654747984375  31.2797019140625 29.214863578125  31.2797019140625 27.4664325234375  Z M 54.2150034375 20  L 37.0392395390625 20  L 37.0392395390625 25  L 54.2150034375 25  L 54.2150034375 20  Z M 32.411039671875 15  L 57.8147143828125 15  L 48.35261690625 6.279562125  L 32.411039671875 15  Z M 13.3839958125 33.1231212421875  L 4.6418405390625 33.1231212421875  L 4.6418405390625 42.3795209765625  L 13.3839958125 42.3795209765625  L 13.3839958125 33.1231212421875  Z M 51 51.2245250859375  L 51 32.5060279453125  L 41.46174159375 41.865276515625  L 51 51.2245250859375  Z M 50.9238390703125 67.9888934296875  L 50.9238390703125 59.7609826171875  L 42.6959282578125 67.9888934296875  L 50.9238390703125 67.9888934296875  Z M 40 46.5963252890625  L 40 64.286333578125  L 49.4839546640625 55.4413293984375  L 40 46.5963252890625  Z M 40.4332527421875 37.03137890625  L 46.9127325 30.654747984375  L 40.4332527421875 30.654747984375  L 40.4332527421875 37.03137890625  Z " fill-rule="nonzero" fill="url(#LinearGradient1490)" stroke="none" transform="matrix(1 0 0 1 269 158 )" />
  </g>
</svg>