<?xml version="1.0" encoding="utf-8"?>
<svg version="1.1" xmlns:xlink="http://www.w3.org/1999/xlink" width="47px" height="11px" xmlns="http://www.w3.org/2000/svg">
  <defs>
    <linearGradient gradientUnits="userSpaceOnUse" x1="60.4875" y1="71.40375" x2="-15" y2="0" id="LinearGradient1504">
      <stop id="Stop1505" stop-color="#ffffff" stop-opacity="0.498039215686275" offset="0" />
      <stop id="Stop1506" stop-color="#ffffff" stop-opacity="0.498039215686275" offset="1" />
    </linearGradient>
  </defs>
  <g transform="matrix(1 0 0 1 -280 -46 )">
    <path d="M 21.0339525238095 0.000741052631578949  L 27.4796023244048 0.000741052631578947  C 31.138940983631 1.01041513157895  34.9049909047619 1.72922901973684  38.4235995342262 3.1198003881579  C 41.3620996830357 4.28138873684211  44.0109036517857 6.2295966381579  46.7875463616071 7.82914275  L 46.5834341741071 8.34602182236842  C 45.3759491309524 8.76767657236842  44.188517141369 9.28010932894737  42.9523847589286 9.56911696052632  C 42.4062949761905 9.69657671052632  41.6761460595238 9.52317213157895  41.1723110952381 9.22638351973684  C 29.1389990818452 2.14050910526316  17.3821337247024 2.55215971710526  5.8347521235119 10.4676343026316  C 5.24998847470238 10.8685397960526  4.31895015773809 10.9500547171053  3.59023362202381 10.8522367105263  C 2.54388982738095 10.7121791381579  1.53550370833333 10.2708867105263  0.251745078869044 9.87850332236842  C 0.931403056547615 9.23082976315789  1.44526454761904 8.67319330263158  2.0239407172619 8.20114748026316  C 7.37633666666667 3.83453848684211  13.3672101309524 1.02968235526316  20.1960179895833 0.282708756578947  C 20.4817751220238 0.251584835526316  20.7549990610119 0.0978180065789474  21.0339525238095 0.000741052631578949  Z " fill-rule="nonzero" fill="url(#LinearGradient1504)" stroke="none" transform="matrix(1 0 0 1 280 46 )" />
  </g>
</svg>