<?xml version="1.0" encoding="utf-8"?>
<svg version="1.1" xmlns:xlink="http://www.w3.org/1999/xlink" width="79px" height="62px" xmlns="http://www.w3.org/2000/svg">
  <defs>
    <linearGradient gradientUnits="userSpaceOnUse" x1="101.670478723404" y1="402.4575" x2="-25.2127659574468" y2="0" id="LinearGradient1501">
      <stop id="Stop1502" stop-color="#ffffff" stop-opacity="0.498039215686275" offset="0" />
      <stop id="Stop1503" stop-color="#ffffff" stop-opacity="0.498039215686275" offset="1" />
    </linearGradient>
  </defs>
  <g transform="matrix(1 0 0 1 -264 -56 )">
    <path d="M 43.7169788776786 61.9996392727273  L 37.9383897892857 62  C 34.5238182142857 61.146888525  30.9792365508929 60.6332180318182  27.7170657098214 59.3836712295454  C 11.1906115464286 53.0533316590909  1.80063007142857 35.1794740386364  5.81180365089286 18.0479856772727  C 5.89233773214286 17.7045767659091  6.01945874821429 17.3716288045455  6.1285227625 17.0210054181818  C 9.22926429821429 18.6507549613636  9.52937105 19.2279128204545  9.12489507053572 22.70204245  C 7.24191504642857 38.8855489795455  19.0237218232143 54.5369880659091  35.1713409383929 57.3019349931818  C 35.7614424419643 57.4029376431818  36.3522663017857 57.4988901113636  37 57.6215361159091  L 37 22.9224445590909  C 17.5654415669643 26.1906010295455  3.83564968660715 13.3419847409091  0.105803571428574 1.57121083409091  C 8.31666546785715 -0.397618963636365  16.20683568125 0.340782436363635  23.6907242714286 4.20485430227273  C 31.1417492142857 8.05269365227273  36.2757047214286 14.0789432318182  39.4739539116071 22.3121001431818  C 42.6313943116071 14.0854362522727  47.7862959633929 8.10968799772727  55.18856704375 4.23876231363637  C 62.6280354857143 0.348718295454549  70.502315625 -0.347478365909089  78.9399729785714 1.55822479318182  C 76.1270594080357 9.25354276590909  71.2740702223214 15.0197105181818  64.3582536330357 19.0724409159091  C 57.3824879642857 23.1605222340909  49.8447895821429 24.2080637363636  41 22.8246884545455  L 41 57.7275888772727  C 45.9910726660714 57.8101945772727  49.8465952964286 56.7980039954545  53.5605513375 55.2169522113636  C 65.6467985098214 50.0708683704545  73.4365719964286 37.7893097886364  72.8970299285714 24.7166841181818  C 72.8229963482143 22.92496965  72.6554277553572 21.0892469477273  72.16897319375 19.3765309772727  C 71.7258553517857 17.8167618204545  72.1137189008929 16.8878983931818  73.3773451321429 16.0708592931818  C 73.9215819866072 15.7187929977273  74.3632552571429 15.2094511613636  75.2762153008929 14.3920513340909  C 75.8572883741072 17.3864184818182  76.5669269642857 20.0135689295455  76.8536715008929 22.6858098636364  C 78.6864531616071 39.7743721022727  66.7475508642857 56.7045766181818  50.04486075 60.779671825  C 47.9607261294643 61.2882922068182  45.8271155017857 61.5977931068182  43.7169788776786 61.9996392727273  Z " fill-rule="nonzero" fill="url(#LinearGradient1501)" stroke="none" transform="matrix(1 0 0 1 264 56 )" />
  </g>
</svg>