<?xml version="1.0" encoding="utf-8"?>
<svg version="1.1" xmlns:xlink="http://www.w3.org/1999/xlink" width="83px" height="72px" xmlns="http://www.w3.org/2000/svg">
  <defs>
    <linearGradient gradientUnits="userSpaceOnUse" x1="83" y1="71.875" x2="0" y2="-3.19744231092045E-14" id="LinearGradient1521">
      <stop id="Stop1522" stop-color="#ffffff" stop-opacity="0.498039215686275" offset="0" />
      <stop id="Stop1523" stop-color="#ffffff" stop-opacity="0.498039215686275" offset="1" />
    </linearGradient>
  </defs>
  <g transform="matrix(1 0 0 1 -262 -270 )">
    <path d="M 80.8368714488636 69.9853618421053  C 81.4549502840909 68.8343092105263  81.0269815340909 67.3981578947368  79.881015625 66.7773355263158  L 68.5610653409091 60.6454934210526  C 67.9969247159091 60.3399671052631  67.3974147727273 60.0912828947368  66.7757990056818 59.8958881578947  L 74.4880788352273 36.5257894736842  C 74.6942284088101 35.9003350530455  74.6320844549977 35.2169347807361  74.3165376420454 34.6393421052632  C 74.0007257553337 34.0618295058383  73.4594734493624 33.6427421305311  72.8230681818182 33.4829605263158  L 67.6538423295454 32.1818092105263  L 64 31.4499671052632  L 64 21.4377631578947  C 64.7447159090909 20.1295065789474  63.6889417613636 19.0690460526316  62.3864666193182 19.0690460526316  L 55.4266690340909 19.0690460526316  L 55.4266690340909 14.1495394736842  C 55.4266690340909 12.8412828947368  54.3708948863636 11.7808223684211  53.0684197443182 11.7808223684211  L 43.3860688920455 11.7808223684211  L 43.3860688920455 9.57730263157895  L 48.2069069602273 9.57730263157895  C 49.5093821022727 9.57730263157895  50.56515625 8.51684210526316  50.56515625 7.20858552631579  C 50.56515625 5.90032894736842  49.5093821022727 4.83986842105263  48.2069069602273 4.83986842105263  L 43.3860688920455 4.83986842105263  L 43.3860688920455 2.66388157894737  C 43.3860688920455 1.61763157894736  42.5416264204545 0.768552631578945  41.4991157670455 0.768552631578945  C 40.4574893465909 0.768552631578945  39.6121626420455 1.61674342105263  39.6121626420455 2.66388157894737  L 39.6121626420455 4.83986842105263  L 34.7904403409091 4.83986842105263  C 33.4879651988636 4.83986842105263  32.4321910511364 5.90032894736842  32.4321910511364 7.20858552631579  C 32.4321910511364 8.51684210526316  33.4879651988636 9.57730263157895  34.7904403409091 9.57730263157895  L 39.6121626420455 9.57730263157895  L 39.6121626420455 12  L 29.5734659090909 12  C 28.2709907670455 11.7808223684211  27.2152166193182 12.8412828947368  27.2152166193182 14.1495394736842  L 27.2152166193182 19.0690460526316  L 20.2571875 19.0690460526316  C 18.9547123579545 19.0690460526316  17.8989382102273 20.1295065789474  18 21.4377631578947  L 18 31.5396710526316  L 10.1778160511364 33.4829605263158  C 9.12869007311896 33.7467026331287  8.39280135700627 34.6936535049128  8.39280135700627 35.7799399251615  C 8.39280135700627 36.033405430874  8.433318364828 36.2852268846331  8.51280539772727 36.5257894736842  L 18.0377627840909 65.3891447368421  C 17.2711328125 65.2976644736842  16.5327982954545 65.0827302631579  15.8988032670455 64.7399013157895  L 5.35786221590909 59.0299342105263  C 4.21101207386364 58.4082236842105  2.78120738636364 58.8389802631579  2.16224431818182 59.9900328947368  C 1.54416548295455 61.1410855263158  1.97213423295455 62.578125  3.11810014204546 63.1989473684211  L 13.6590411931818 68.9089144736842  C 16.0933345170455 70.2278289473684  19.1766548295455 70.5147039473684  21.9000923295455 69.780197368421  C 21.9221981534091 69.7739802631579  21.9434197443182 69.7713157894737  21.9655255681818 69.7642105263158  C 21.9690625 69.7633223684211  21.9717151988636 69.7606578947368  21.9752521306818 69.7597697368421  C 22.7224289772727 69.5528289473684  23.4430788352273 69.2721710526316  24.1124431818182 68.9089144736842  L 30.5461221590909 65.4237828947368  C 32.2774502840909 64.4867763157895  34.7904403409091 64.4867763157895  36.5217684659091 65.4237828947368  L 42.6441974431818 68.7401644736842  C 45.7708451704545 70.4347697368421  49.9709517045455 70.4347697368421  53.0975994318182 68.7401644736842  L 60.3456569602273 64.8145065789474  C 62.0769850852273 63.8775  64.5899751420455 63.8775  66.3213032670455 64.8145065789474  L 77.6412535511364 70.9463486842105  C 77.9975994318182 71.1390789473684  78.3804723011364 71.2305592105263  78.7589240056818 71.2305592105263  C 79.5980610795455 71.2305592105263  80.4106711647727 70.779375  80.8368714488636 69.9853618421053  Z M 43.3860688920454 16.5182565789474  L 50.7101704545455 16.5182565789474  L 50.7101704545455 21.4377631578947  C 50.7101704545455 22.7460197368421  51.7659446022727 23.8064802631579  53.0684197443182 23.8064802631579  L 60.0264488636364 23.8064802631579  L 60.0264488636364 30.2625  L 43.3860688920454 26.0739473684211  L 43.3860688920454 16.5182565789474  Z M 22.6154367897727 30.3522039473684  L 22.6154367897727 23.8064802631579  L 29.5734659090909 23.8064802631579  C 30.8759410511364 23.8064802631579  31.9317151988636 22.7460197368421  31.9317151988636 21.4377631578947  L 31.9317151988636 16.5182565789474  L 39.613046875 16.5182565789474  L 39.613046875 26.0739473684211  L 22.6154367897727 30.3522039473684  Z M 61.9523082386363 59.45625  C 60.5941264204545 59.6152302631579  59.2757350852273 60.0113486842105  58.1067791193182 60.6454934210526  L 50.8587215909091 64.5711513157895  C 49.1273934659091 65.5081578947369  46.6144034090909 65.5081578947369  44.8830752840909 64.5711513157895  L 38.7606463068182 61.2547697368421  C 35.6348828125 59.561052631579  31.4338920454545 59.561052631579  28.3072443181818 61.2547697368421  L 22.6525745738636 64.3180263157895  L 13.7890234375 37.4583552631579  L 39.613046875 30.957927631579  L 39.613046875 33.3266447368421  C 39.613046875 34.3728947368421  40.4574893465909 35.2219736842105  41.5 35.2219736842105  C 42.5416264204545 35.2219736842105  43.386953125 34.3737828947368  43.386953125 33.3266447368421  L 43.386953125 30.957927631579  L 66.5069921875 36.7771381578947  L 69.2118607954545 37.4583552631579  L 61.9523082386363 59.45625  Z " fill-rule="nonzero" fill="url(#LinearGradient1521)" stroke="none" transform="matrix(1 0 0 1 262 270 )" />
  </g>
</svg>