<?xml version="1.0" encoding="utf-8"?>
<svg version="1.1" xmlns:xlink="http://www.w3.org/1999/xlink" width="23px" height="23px" xmlns="http://www.w3.org/2000/svg">
  <defs>
    <linearGradient gradientUnits="userSpaceOnUse" x1="23" y1="22.9600694444444" x2="0" y2="-1.02140518265514E-14" id="LinearGradient1518">
      <stop id="Stop1519" stop-color="#ffffff" stop-opacity="0.498039215686275" offset="0" />
      <stop id="Stop1520" stop-color="#ffffff" stop-opacity="0.498039215686275" offset="1" />
    </linearGradient>
  </defs>
  <g transform="matrix(1 0 0 1 -292 -306 )">
    <path d="M 22.7619140625 11.4425  C 22.7619140625 5.2325  17.71 0.1796875  11.5 0.1796875  C 5.29 0.1796875  0.238085937499995 5.2316015625  0.238085937499995 11.4416015625  C 0.238085937499995 17.6516015625  5.29 22.7044140625  11.5 22.7044140625  C 17.71 22.7044140625  22.7619140625 17.6525  22.7619140625 11.4425  Z M 18.92828125 11.4416015625  C 18.92828125 15.537578125  15.5959765625 18.8698828125  11.5 18.8698828125  C 7.4040234375 18.8698828125  4.07171875 15.537578125  4.07171875 11.4416015625  C 4.07171875 7.34562499999999  7.4040234375 4.01332031249999  11.5 4.01332031249999  C 15.5959765625 4.01332031249999  18.92828125 7.34562499999999  18.92828125 11.4416015625  Z " fill-rule="nonzero" fill="url(#LinearGradient1518)" stroke="none" transform="matrix(1 0 0 1 292 306 )" />
  </g>
</svg>