<?xml version="1.0" encoding="utf-8"?>
<svg version="1.1" xmlns:xlink="http://www.w3.org/1999/xlink" width="13px" height="15px" xmlns="http://www.w3.org/2000/svg">
  <defs>
    <linearGradient gradientUnits="userSpaceOnUse" x1="13" y1="14.9739583333333" x2="0" y2="-6.66133814775094E-15" id="LinearGradient1515">
      <stop id="Stop1516" stop-color="#ffffff" stop-opacity="0.498039215686275" offset="0" />
      <stop id="Stop1517" stop-color="#ffffff" stop-opacity="0.498039215686275" offset="1" />
    </linearGradient>
  </defs>
  <g transform="matrix(1 0 0 1 -298 -310 )">
    <path d="M 9.48294088252919 4.51400391662341  C 8.86519799956853 4.51400391662341  8.287895353488 4.82413891350904  7.94276785714286 5.34140625  L 6.97647321428572 5.34140625  L 8.14560267857142 3.81035156250001  C 8.77151785714286 2.99033203125  8.62091517857143 1.81259765625001  7.80870535714285 1.18066406250001  C 6.99562499999999 0.548730468750007  5.82997767857142 0.700781250000009  5.20406249999999 1.52167968750001  L 1.7297544642857 6.07265625000001  C 1.29796874999999 6.63867187500001  1.22136160714285 7.40332031250001  1.53388392857142 8.04492187500001  C 1.84640624999999 8.68652343750002  2.49234374999999 9.09257812500001  3.20095982142856 9.09257812500001  L 4.45279017857142 9.09257812500001  L 3.06341517857142 11.17470703125  C 2.49060267857142 12.0333984375  2.71520089285713 13.198828125  3.56571428571428 13.7771484375  C 3.88433035714285 13.993359375  4.24473214285714 14.0970703125  4.60165178571427 14.0970703125  C 5.19883928571427 14.0970703125  5.78558035714284 13.80703125  6.14337053571427 13.269140625  L 9.48274553571428 8.26376953125003  C 10.5085484563065 8.26376954162341  11.3399676682435 7.42435591418702  11.3399676682435 6.38888672912341  C 11.3399676682435 5.35341754405979  10.5085484563065 4.51400391662341  9.48294088252919 4.51400391662341  Z " fill-rule="nonzero" fill="url(#LinearGradient1515)" stroke="none" transform="matrix(1 0 0 1 298 310 )" />
  </g>
</svg>