<?xml version="1.0" encoding="utf-8"?>
<svg version="1.1" xmlns:xlink="http://www.w3.org/1999/xlink" width="52px" height="72px" xmlns="http://www.w3.org/2000/svg">
  <defs>
    <linearGradient gradientUnits="userSpaceOnUse" x1="-16.8996080795901" y1="-43.1956587277662" x2="105.708772987639" y2="126.569791980705" id="LinearGradient1532">
      <stop id="Stop1533" stop-color="#ffffff" stop-opacity="0.498039215686275" offset="0" />
      <stop id="Stop1534" stop-color="#ffffff" stop-opacity="0.498039215686275" offset="1" />
    </linearGradient>
  </defs>
  <g transform="matrix(1 0 0 1 -268 -752 )">
    <path d="M 51 8.63999999325  C 51.6413792825208 3.86825975843987  47.7879404417614 0  43.034482735434 0  L 8.6068965470868 0  C 3.85343884075945 0  0 3.86825975843987  0 8.63999999325  L 0 66.239999976375  C 0 69.4211601484481  2.56895923971671 72  5.73793105940844 72  L 48.7724137948424 72  C 50.3568996814781 72  51.6413792825208 70.710580093112  51.6413792825208 69.120000030375  C 51.6413792825208 69.120000030375  51.6413792825208 69.119999946  51 69.119999946  L 51 8.63999999325  Z M 43.034482735434 6  L 43.2496551491112 5.76719999549438  C 44.7467918913011 5.88023535892648  45.903923444335 7.13286030931925  46 8.63999999325  L 46 66  L 6 66  L 6 8.63999999325  C 5.73793105940845 7.04941993051296  7.02241066045118 5.760000023625  8.6068965470868 6  L 43.034482735434 6  Z " fill-rule="nonzero" fill="url(#LinearGradient1532)" stroke="none" transform="matrix(1 0 0 1 268 752 )" />
  </g>
</svg>