<?xml version="1.0" encoding="utf-8"?>
<svg version="1.1" xmlns:xlink="http://www.w3.org/1999/xlink" width="27px" height="43px" xmlns="http://www.w3.org/2000/svg">
  <defs>
    <linearGradient gradientUnits="userSpaceOnUse" x1="-8.77479650286407" y1="-25.7974072957492" x2="54.8872475128128" y2="75.5902924329212" id="LinearGradient1535">
      <stop id="Stop1536" stop-color="#ffffff" stop-opacity="0.498039215686275" offset="0" />
      <stop id="Stop1537" stop-color="#ffffff" stop-opacity="0.498039215686275" offset="1" />
    </linearGradient>
  </defs>
  <g transform="matrix(1 0 0 1 -313 -781 )">
    <path d="M 27 5.7333333016059  C 26.999999953401 2.56690075530768  24.4211601161692 0  21.239999977875 0  L 3.95999999587501 0  C 2.36941993355219 0  1.080000027 1.28345039844392  1 2.86666666480035  L 1 40.1333332792101  C 1.080000027 40.1333333371483  1.080000027 40.1333333052563  1.080000027 40.1333333631944  C 1.080000027 41.7165496295509  2.36941993355219 43  3.95999999587501 43  L 21.239999977875 43  C 24.4211601491197 43  27 40.4330992215007  27 37.2666666424045  L 27 5.7333333016059  Z M 21 37  L 7 37  L 7 6  L 21 6  L 21 37  Z " fill-rule="nonzero" fill="url(#LinearGradient1535)" stroke="none" transform="matrix(1 0 0 1 313 781 )" />
  </g>
</svg>