<?xml version="1.0" encoding="utf-8"?>
<svg version="1.1" xmlns:xlink="http://www.w3.org/1999/xlink" width="69px" height="72px" xmlns="http://www.w3.org/2000/svg">
  <defs>
    <linearGradient gradientUnits="userSpaceOnUse" x1="-48.3" y1="-31.609756097561" x2="112.7" y2="94.8292682926829" id="LinearGradient1549">
      <stop id="Stop1550" stop-color="#ffffff" stop-opacity="0.498039215686275" offset="0" />
      <stop id="Stop1551" stop-color="#ffffff" stop-opacity="0.498039215686275" offset="1" />
    </linearGradient>
  </defs>
  <g transform="matrix(1 0 0 1 -269 -402 )">
    <path d="M 50.3748677578125 9.665445375  C 49.9717307684494 9.44736691811028  49.5206105866533 9.33316847291611  49.0622683067443 9.33316847291611  C 47.8687922570555 9.33316847291611  46.8106488736621 10.1006205070302  46.439970515625 11.235073078125  C 46.0234832353841 12.4947756801545  46.5653652334932 13.8722783811397  47.7284939765625 14.5105916484375  C 56.3257986796875 19.1978892421875  62.1665518828125 28.304317546875  62.1665518828125 38.7468699609375  C 62.169618020071 43.6869416402766  60.8389150773954 48.5362097621338  58.3149031640625 52.7828179921875  C 57.7560370043886 52.6659255547752  57.1866008790747 52.6070113749408  56.6156409624843 52.6070113749408  C 52.6730759920724 52.6070113749408  49.2745518159595 55.3804944959284  48.4841286328125 59.2430130703125  C 48.2636415154244 60.3542550146717  48.2636415154244 61.4979912040783  48.4841286328125 62.6092331484375  C 49.2830242768927 66.4629171137465  52.6778689480207 69.2261681192667  56.6134901638658 69.2261681192667  C 61.1986732997019 69.2261681192667  64.9156986482408 65.5091427707278  64.9156986482408 60.9239596348917  C 64.9156986482408 60.909165370028  64.9156591038942 60.8943711315892  64.915580015625 60.879577078125  C 64.919634630547 58.9675949216693  64.2450441777748 57.1162147668763  63.011903671875 55.6550314453125  C 66.0777170608026 50.5478120801383  67.6985656878598 44.7036922277304  67.701310640625 38.7469402734375  C 67.701310640625 26.185559203125  60.6931098515625 15.2921711953125  50.3747974453125 9.6655156875  Z M 56.6003189375371 63.6751815644085  C 56.5959980735196 63.6751815644085  56.5916772153872 63.6751714804115  56.5873563984375 63.6751513125  C 56.543060296875 63.6751513125  56.4543978515625 63.6308552109375  56.4100315078125 63.6308552109375  C 54.9413038853649 63.5663134758891  53.7837740653327 62.3568000919504  53.7837740653327 60.8866550431529  C 53.7837740653327 59.3696124978779  55.0135800356826 58.1398065275279  56.5306225809577 58.1398065275279  C 56.5495353663905 58.1398065275279  56.5684476474741 58.1400018568938  56.5873563984375 58.140392484375  C 58.047790828125 58.140392484375  59.2001214375 59.29166840625  59.332025296875 60.708861421875  C 59.332025296875 60.7531575234375  59.377446328125 60.84181996875  59.377446328125 60.8861863828125  C 59.3774631614639 60.8901338740367  59.3774715781621 60.8940813966682  59.3774715781621 60.8980289237835  C 59.3774715781621 62.431807975153  58.1340979889066 63.6751815644085  56.6003189375371 63.6751815644085  Z M 5.70192965625 50.8737277265625  L 7.4996469609375 49.9905484453125  C 8.3178345898108 49.5882750032141  8.70567611135919 48.6374923226419  8.402302453125 47.7777136640625  C 7.38296980638672 44.8596790854442  6.84800475188075 41.7945079670281  6.8186124609375 38.703698859375  C 6.8186124609375 26.0395930546875  15.4526898984375 15.3245143828125  27.141649359375 12.09230746875  C 28.544095302243 14.8639504560279  31.3862856821899 16.6111335292099  34.492547015625 16.6111335292099  C 37.5988083490601 16.6111335292099  40.440998729007 14.863950456028  41.843444671875 12.09230746875  C 42.4196451328125 10.941101859375  42.8163410859375 9.656797078125  42.816341015625 8.32826650781251  C 42.8101084571661 7.74538450424701  42.7375968337183 7.16510278014224  42.600204328125 6.59861043750001  C 41.8047605018147 2.75647926352495  38.4205146803514 0.00111319408762734  34.4969062851563 0.00111319408762734  C 30.5732978899611 0.00111319408762734  27.1890520684978 2.75647926352495  26.3936082421875 6.59861043750001  C 12.2734273828125 10.1648659921875  1.6956664921875 22.7565511875  1.296720609375 37.8626360625  L 1.296720609375 39.6138776484375  C 1.39956281738917 43.1099681299582  2.05262952103118 46.568020712935  3.231896390625 49.860824203125  L 3.238365 49.879175484375  C 3.49187459307547 50.586301314022  4.16214856601431 51.0580499288019  4.91334364902223 51.0580499288019  C 5.1869027713874 51.0580499288019  5.45677840712763 50.9949754631557  5.7019998984375 50.8737277265625  Z M 34.492547015625 11.07300571875  C 32.9712901055709 10.9971500672072  31.7904963303562 9.71782919515529  31.8365405625 8.19537834375  C 31.8808366640625 6.778185328125  33.0310578984375 5.62690940625  34.492547015625 5.5382469609375  C 34.4965162699748 5.5382299414746  34.5004855562517 5.53822143171382  34.5044548470896 5.53822143171382  C 36.0382338984591 5.53822143171382  37.2816074877146 6.78159502096931  37.2816074877146 8.31537407233882  C 37.2816074877146 8.3193200252106  37.2815990777281 8.32326597360145  37.2815822578125 8.327211890625  C 37.2815822578125 9.8774336953125  36.0426985078125 11.07300571875  34.492547015625 11.07300571875  Z M 34.492547015625 66.4653115546875  C 29.5672452420472 66.4625304577366  24.7337874495719 65.1319602427905  20.500965328125 62.613662765625  C 20.617712583931 62.0551315104932  20.6765530050365 61.4860500484739  20.6765530050365 60.9154476609068  C 20.6765530050365 56.9709177865591  17.900367817195 53.571269957997  14.035426640625 52.7828883046875  C 12.9248975361524 52.5623712131432  11.7818449716601 52.5623712131432  10.6713158671875 52.7828883046875  C 8.81405063374254 53.1782325164984  7.15357592170567 54.2107778184981  5.97754959375 55.7016477890625  C 4.74411447056772 57.1627328113436  4.06915664759586 59.0140955595002  4.0728186328125 60.926193421875  C 4.07269493076471 60.9446603629893  4.07263307922046 60.9631276666229  4.07263307922046 60.9815950220458  C 4.07263307922046 65.5494591639654  7.77561860917587 69.2524446939208  12.3434827510955 69.2524446939208  C 14.2701855605159 69.2524446939208  16.1364374542727 68.5797943238692  17.6201036484375 67.350600140625  C 22.7187917664648 70.3993265588402  28.5497891324393 72.0059870113184  34.490437640625 71.999015625  C 38.2790543765091 71.9905921405688  42.0381582035381 71.3324053261991  45.604251328125 70.0530822421875  C 46.3763196660701 69.7823224863061  46.8931316409191 69.053408546731  46.8931316409191 68.2352396376039  C 46.8931316409191 67.9562455707387  46.8325308029606 67.6805806941029  46.7155202109375 67.427309671875  L 45.99883790625 65.8771581796875  C 45.5781962018086 64.9711811092203  44.5356883220395 64.5359741725209  43.5957409453125 64.873957640625  C 40.6748126342646 65.9215994578921  37.5956658509559 66.4598496391942  34.492547015625 66.4652412421875  Z M 15.2011874407122 60.8866577777333  C 15.2011874407122 62.3567787243454  14.0436942908827 63.5662812376015  12.5749922109375 63.6308552109375  C 12.486400078125 63.6308552109375  12.4420336640625 63.6751513125  12.3977376328125 63.6751513125  C 12.3934168158639 63.6751714804115  12.3890959577293 63.6751815644085  12.3847750937129 63.6751815644085  C 10.8509960423434 63.6751815644085  9.60762245308794 62.431807975153  9.60762245308794 60.8980289237835  C 9.60762245308794 60.894081396667  9.60763086978609 60.8901338740379  9.607647703125 60.8861863828125  C 9.607647703125 60.7975239375  9.6519438046875 60.7532278359375  9.6519438046875 60.708861421875  C 9.73605482642352 59.2575786370733  10.9440760410819 58.1275721034765  12.3977376328125 58.140392484375  C 12.4166022263385 58.1400036798504  12.4354703253019 58.1398092621083  12.4543389250872 58.1398092621083  C 13.9713814703623 58.1398092621083  15.2011874407122 59.3696152324582  15.2011874407122 60.8866577777333  Z " fill-rule="nonzero" fill="url(#LinearGradient1549)" stroke="none" transform="matrix(1 0 0 1 269 402 )" />
  </g>
</svg>