<?xml version="1.0" encoding="utf-8"?>
<svg version="1.1" xmlns:xlink="http://www.w3.org/1999/xlink" width="30px" height="41px" xmlns="http://www.w3.org/2000/svg">
  <defs>
    <linearGradient gradientUnits="userSpaceOnUse" x1="-21" y1="-18" x2="49" y2="54" id="LinearGradient1552">
      <stop id="Stop1553" stop-color="#ffffff" stop-opacity="0.498039215686275" offset="0" />
      <stop id="Stop1554" stop-color="#ffffff" stop-opacity="0.498039215686275" offset="1" />
    </linearGradient>
  </defs>
  <g transform="matrix(1 0 0 1 -288 -420 )">
    <path d="M 27.3074872734375 16.789832484375  L 27.3074872734375 17  L 14.467251890625 17  L 16.3265618203125 3.07309043923611  C 16.4094330510906 2.41999435902749  16.0452306457816 1.79289612920298  15.441202921875 1.54864417013889  C 14.8241879532999 1.33385024656346  14.1422928912796 1.57724060165757  13.794795375 2.13630015972223  L 1.443152625 22.9750967552083  C 1.31521184178508 23.1919204374692  1.24765541688149 23.43977009425  1.24765541688149 23.6923329914795  C 1.24765541688149 24.1887690970436  1.5076048838334 24.6480026849029  1.930690640625 24.8990010416667  C 2.14498413947515 25.0258099809628  2.39071648621333 25.0877174218366  2.6387246484375 25  L 15.8336098828125 25  L 13.398029109375 38.8433031944444  C 13.3826189897144 38.9268766814889  13.3748645541153 39.0117121344572  13.3748645541153 39.0967291869826  C 13.3748645541153 39.859484790841  13.9856594650524 40.4778203796909  14.7391131713028 40.4778203796909  C 15.2276687043309 40.4778203796909  15.6789286638117 40.2133458460829  15.922202015625 39.7844354166667  L 28.4533492734375 18.8963827309028  C 28.7113156889643 18.4740981896978  28.7281843439787 17.9448490520444  28.4976453046875 17.5066076527778  C 28.2620929787088 17.0635416377102  27.8045085807382 16.7879604751234  27.3074872734375 16.789832484375  Z " fill-rule="nonzero" fill="url(#LinearGradient1552)" stroke="none" transform="matrix(1 0 0 1 288 420 )" />
  </g>
</svg>