<?xml version="1.0" encoding="utf-8"?>
<svg version="1.1" xmlns:xlink="http://www.w3.org/1999/xlink" width="65px" height="35px" xmlns="http://www.w3.org/2000/svg">
  <defs>
    <linearGradient gradientUnits="userSpaceOnUse" x1="-5.13675096206711" y1="-35.5055225148684" x2="65" y2="35" id="LinearGradient1563">
      <stop id="Stop1564" stop-color="#ffffff" stop-opacity="0.498039215686275" offset="0" />
      <stop id="Stop1565" stop-color="#ffffff" stop-opacity="0.498039215686275" offset="1" />
    </linearGradient>
  </defs>
  <g transform="matrix(1 0 0 1 -268 -643 )">
    <path d="M 12.4794854849478 34.1805568220286  C 16.4230963094284 34.1805568220286  20.1346594357572 32.2935851834079  22.4896032717895 29.0913780258953  C 23.2560504831868 30.164872714641  24.1951501178416 31.1004406939573  25.2677198408651 31.8590469812672  C 30.7198358747208 35.5613077652117  38.070809277958 34.373013884765  42.1128076572299 29.1360178435262  C 44.4758155320519 32.2343675702139  48.124124570302 34.0488492462688  51.9908502115064 34.0488492462688  C 58.8496016039907 34.0488492462688  64.4228904262585 28.4456111028035  64.4700314626927 21.502608307438  C 64.4700314626927 15.9672703966942  60.2808080669363 0.0308539944903572  52.2551379497099 0  L 13.2292147297931 0  C 4.76257376970869 0.0308539944903572  8.82134693159838E-05 16.324388937741  8.82134693159838E-05 21.502608307438  C 3.57153646552292E-05 21.5175678967371  0 21.5325275686349  0 21.5474872523317  C 0 28.5245389192268  5.58726119394203 34.1805568220286  12.4794854849478 34.1805568220286  Z M 32.2350598056972 28.5557001487603  L 32.3673511233222 28.5557001487603  C 32.322850973167 28.5565581297891  32.2783437614088 28.5569871494756  32.2338355407721 28.5569871494756  C 28.412596756291 28.5569871494756  25.2950287063522 25.4594819210094  25.2236227565793 21.5918879426997  C 25.2236227565793 20.0633465860677  23.9995605389792 18.8242189873278  22.4896032717895 18.8242189873278  L 22.0486324289315 18.8242189873278  C 20.5313783132737 18.8240254848134  19.2945992444214 20.0561534205592  19.2705158598558 21.5918879426997  C 19.2705158598558 25.4872030239232  16.1511314899884 28.6449798168044  12.3031758626399 28.6449798168044  C 8.45522023529149 28.6449798168044  5.33583586542407 25.4872030239232  5.33583586542407 21.5918879426997  C 5.33583586542407 15.9226305790634  10.186515590235 5.65547154049587  12.8764379907391 6  L 52.1228466968525 6  C 54.6804778444992 5.65547154049587  58.8697012402556 15.6547916077135  58.8697012402556 21.5918879426997  C 58.5799225725822 25.2821003780631  55.5371588790781 28.1271755879779  51.8803127332806 28.1271755879779  C 48.223466587483 28.1271755879779  45.180702893979 25.2821003780631  44.8909242263056 21.5918879426997  C 44.8911691071634 21.576889332629  44.8912915538627 21.561888930184  44.8912915538627 21.5468882716694  C 44.8912915538627 20.0602603225431  43.7134582831851 18.8483869256108  42.2450989100873 18.8242189873278  L 41.8923221710333 18.8242189873278  C 40.4067190510067 18.8242189873278  39.2023997705293 20.0433606589496  39.2023997705293 21.5472481250689  C 39.1544103952234 25.4149847989997  36.0560000065891 28.5316779226392  32.2350598056972 28.5557001487603  Z " fill-rule="nonzero" fill="url(#LinearGradient1563)" stroke="none" transform="matrix(1 0 0 1 268 643 )" />
  </g>
</svg>