<?xml version="1.0" encoding="utf-8"?>
<svg version="1.1" xmlns:xlink="http://www.w3.org/1999/xlink" width="68px" height="33px" xmlns="http://www.w3.org/2000/svg">
  <defs>
    <linearGradient gradientUnits="userSpaceOnUse" x1="-5.37383177570098" y1="-33.4766355140188" x2="68" y2="33" id="LinearGradient1566">
      <stop id="Stop1567" stop-color="#ffffff" stop-opacity="0.498039215686275" offset="0" />
      <stop id="Stop1568" stop-color="#ffffff" stop-opacity="0.498039215686275" offset="1" />
    </linearGradient>
  </defs>
  <g transform="matrix(1 0 0 1 -272 -676 )">
    <path d="M 30.6168406413673 25.1656995719697  L 30.528341877551 25  L 7 25  L 7 3.55125724242425  C 6.27992417702667 3.53652247272386  6.28004711323986 3.52178594122298  6.28004711323986 3.50704915802154  C 6.28004711323986 2.03001682522583  5.07156848830866 0.832645540597293  3.58083455687847 0.832645540597293  C 3.56596106882359 0.832645540597293  3.55108783480415 0.832767346882057  3.53621637892843 0.833010946969701  C 2.02104418868094 0.833010946969701  0.792754440658908 2.05001126716065  1 3.55125724242425  L 1 27.9716312234849  C 0.839838253566456 29.4458920909942  2.04771076924001 30.6233600850799  3.53621637892843 30  L 30.6168406413673 30  C 32.0097817230303 30.4711108247937  33.0540309195142 29.2970466262848  33.0540309195142 27.9058672064394  C 33.0540309195142 26.514687786594  32.0097817230303 25.3406235880851  30.6168406413673 25.1656995719697  Z M 59.2469542783428 6.46288006132852  C 59.039929519502 6.46288006132852  58.8329962000648 6.47149995468672  58.6267019888683 6.4887169280303  C 57.1546191706782 6.43345378835801  55.70144427535 6.83170146855902  54.4672596995558 7.62862668560606  C 52.1162333901814 8.87812724015099  50.6402426727927 11.2986921566272  50 13.9419729015151  L 50 25.4287556401515  C 50.6730476959941 26.6580553422078  50.0218470238745 27.8126512366094  48.9360864411087 28.4100580037879  C 48.2837512630122 28.7589370826028  47.5534071582857 28.9398449339323  46.8121159145443 28.9361702045455  C 44.9401585926039 28.9203153474051  43.3876543210287 27.4960237344414  43.227915655029 25.647969030303  C 43.217751043223 25.1178968416643  43.3722195548836 24.5975310744784  43.6704095391016 24.1573178484848  C 44.2250987210466 23.3220839621981  45.0791194484513 22.7266301065479  46.0598763571147 22.4912959545455  C 47.208474629209 22.4912959545455  48.139597501771 21.568731196621  48.139597501771 20.4306898939394  C 48.139597501771 19.2926485912578  47.208474629209 18.3700838333333  46.0598763571147 18.3700838333333  C 45.5941843973845 18.3752748911377  45.1318693578425 18.4491564680769  44.68814538798 18.5892972234849  C 42.8446010344466 19.1376261090045  41.2694009446414 20.3393821715238  40.2632068072188 21.9651837537879  C 39.5542765789287 23.080092065851  39.1854986453347 24.374176044052  39.2012215114409 25.6918117083333  C 39.5062016944437 29.5491413331684  42.6472280880918 32.5863062793465  46.5466196230955 32.7943262575758  L 46.8121159145443 32.7943262575758  C 48.2668900012673 32.8041295266379  49.6995871885129 32.4416965763658  50.9715582038567 31.7421018560606  C 53.3090840518178 30.4785726082245  54.7797614698947 28.0667213278517  54 25.4287556401515  L 54 14.0296582575758  C 54.8375288191093 12.863841530586  55.5010559493473 11.8018415699168  56.5469808442121 11.2675692840909  C 57.2111777823131 10.9641404779165  57.9409286402067 10.8285698174278  58.6709513707764 10.8729851818182  C 60.6188542546037 10.7724305299699  62.2903064301957 12.2336860189217  62.4321492229156 14.1611863560606  C 62.4357452255284 14.6843424871867  62.2982598768108 15.1989577459906  62.0339047207511 15.6518375378788  C 61.492889966328 16.5000831035912  60.632939429727 17.0996714347125  59.6444379027379 17.3178594318182  C 58.4958396306437 17.3178594318182  57.5647167580817 18.2404241897426  57.5647167580817 19.3784654924243  C 57.5647167580817 20.5165067951059  58.4958396306437 21.4390715530303  59.6444379027379 21.4390715530303  C 60.0960079673335 21.4378818738968  60.5443691923156 21.363841838173  60.9719194899646 21.2198581628788  C 62.8116528438586 20.6641863777412  64.3844730198204 19.4642460057542  65.3968580707258 17.8439716325758  C 66.2052540103694 16.6416678324476  66.6366017719055 15.2292812123786  66.6366017719055 13.7846080007225  C 66.6366017719055 9.74092931738515  63.3281438956628 6.46288006132852  59.2469542783428 6.46288006132852  Z " fill-rule="nonzero" fill="url(#LinearGradient1566)" stroke="none" transform="matrix(1 0 0 1 272 676 )" />
  </g>
</svg>