<?xml version="1.0" encoding="utf-8"?>
<svg version="1.1" xmlns:xlink="http://www.w3.org/1999/xlink" width="72px" height="68px" xmlns="http://www.w3.org/2000/svg">
  <defs>
    <linearGradient gradientUnits="userSpaceOnUse" x1="-6.3948846218409E-14" y1="0" x2="71.9999999999999" y2="68" id="LinearGradient1577">
      <stop id="Stop1578" stop-color="#ffffff" stop-opacity="0.498039215686275" offset="0" />
      <stop id="Stop1579" stop-color="#ffffff" stop-opacity="0.498039215686275" offset="1" />
    </linearGradient>
  </defs>
  <g transform="matrix(1 0 0 1 -271 -866 )">
    <path d="M 7.10813150735294 0  L 10.6199377279412 0  C 12.2702076397059 0  13.6095571323529 1.36  13.6095570661765 3.035999984375  C 13.6170214055015 4.54492661474538  12.5148293754605 5.82845495076578  11.0265259632353 6.04399997265625  L 10.6199377279412 6.07199996875  L 7.10813150735294 6.07199996875  C 6.64353445187188 6.07363229903035  6.2417039164617 6.39720854862267  6.13949479411765 6.85200001171875  L 7 7.08000002734375  L 7 27.1199999921875  C 6.11159168382353 33.0399999726562  10.8391764705882 37.8440000234375  16.6749135220588 37.8440000234375  C 22.2834394852941 37.8440000234375  26.8715086544118 33.4040000546875  27.2183045294118 27.7960000117188  L 28 27.1160000117188  L 28 7.08799998828125  C 27.2382352941176 6.6080000078125  26.91137025 6.20799996875  26.4689065588235 6.10400001171875  L 26.2416954705882 6.076000015625  L 22.4668027720588 6.076000015625  C 20.8124624164302 6.0650425005744  19.4771169357999 4.71618656000714  19.4771169357999 3.05606580446928  C 19.4771169357999 3.049377142405  19.4771390798711 3.0426884987959  19.4771833676471 3.035999984375  C 19.4771833676471 1.5039999609375  20.6012802573529 0.235999976562501  22.0602145367647 0.0319999765625009  L 22.4668027720588 0  L 26.2416954705882 0  C 29.9009895882353 0  32.9025674117647 2.86400002734375  33.1935570661765 6.503999984375  L 34 7.0840000078125  L 34 27.1199999921875  C 33.2174740367647 35.71999996875  26.8555640294118 42.8080000234375  18.6520484117647 43.8000000273437  L 18.6480622720588 49.479999984375  C 18.6480622720588 56.3560000117188  24.1370034485294 61.9279999648437  30.9055017573529 61.92800003125  C 37.4348304926471 61.92800003125  42.7683114264706 56.7480000234375  43.1430104117647 50.2119999960938  L 43 49.48400003125  L 43 22.1599999726563  C 43.1629411764706 15.9599999648437  47.9343736985294 10.8919999414062  53.9494878970588 10.54  L 54.6231488161765 10.52000003125  C 60.7259584852941 10.52000003125  65.7166298161765 15.3640000195312  66.063425625 21.4720000117188  L 66 22.1559999921875  L 66 41.3160000039062  C 69.56100413092 42.5080553249952  71.8942030571283 45.7923123152799  71.8832179852941 49.479999984375  C 71.8832179852941 54.2319999570312  68.0923805955883 58.0799999609375  63.41262975 58.0800000273437  C 58.7328789044118 58.08000009375  54.9420415147059 54.2320000234375  54.9420415147059 49.479999984375  C 54.9420415147059 45.91999996875  57.070650507353 42.8679999960938  60 41.5600000078125  L 60 22.1599999726563  C 60.1041176470588 19.0879999648438  57.6486436102941 16.5959999804688  54.6231488161765 16.5959999804688  C 51.7730450294118 16.5959999804688  49.4331695735294 18.8039999570312  49.1660968897059 21.624  L 49 22.1599999726563  L 49 50.1920000273438  L 49.1262352941176 50.1879999804687  L 49.1222491544118 50.3519999765625  C 48.6837716691176 59.8879999648437  41.1499308308823 67.5399999882812  31.7625259632353 67.98000003125  L 30.9055017573529 68  C 21.119481 68  13.1352041911765 60.1760000195313  12.6887542941176 50.3519999765625  L 12.6688235294118 49.48400003125  L 12.6688235294118 43.4200000234375  C 5.5664536142972 41.5834091587526  0.489151078512699 35.3120994845725  0.152283705882354 27.9600000078125  L 1 27.1199999921875  L 1 7.08799998828125  C 0.132352941176471 3.35999999609375  2.95056747794118 0.32000003125  6.53412454411765 0.024000015625  L 7.10813150735294 0  Z M 65.9039792426471 49.48400003125  C 65.9039792426471 48.0840000273437  64.7878546985294 46.9520000429688  63.41262975 46.9519999765625  C 62.0341199560178 46.9607687947966  60.9212292372634 48.0846253476437  60.9212292372634 49.4679494267829  C 60.9212292372634 49.4732996690977  60.9212462440464 49.4786498978055  60.9212802573529 49.48400003125  C 60.9212802573529 50.8800000546875  62.0374048014706 52.0120000390625  63.41262975 52.0119999726563  C 64.795816656944 52.003189078944  65.9106042877446 50.8720017149624  65.9039792426471 49.48400003125  Z " fill-rule="nonzero" fill="url(#LinearGradient1577)" stroke="none" transform="matrix(1 0 0 1 271 866 )" />
  </g>
</svg>