<?xml version="1.0" encoding="utf-8"?>
<svg version="1.1" xmlns:xlink="http://www.w3.org/1999/xlink" width="24px" height="25px" xmlns="http://www.w3.org/2000/svg">
  <defs>
    <linearGradient gradientUnits="userSpaceOnUse" x1="-26.5714285714286" y1="-13.3333333333333" x2="47.1428571428571" y2="46.6666666666667" id="LinearGradient1591">
      <stop id="Stop1592" stop-color="#ffffff" stop-opacity="0.498039215686275" offset="0" />
      <stop id="Stop1593" stop-color="#ffffff" stop-opacity="0.498039215686275" offset="1" />
    </linearGradient>
  </defs>
  <g transform="matrix(1 0 0 1 -293 -548 )">
    <path d="M 1.46769230769231 2.95357142857143  C 1.46828634578221 1.98835819815848  2.00571001880615 1.09809910819599  2.87446153846154 0.623214285714286  C 3.74385171654013 0.147972906391455  4.81043664931577 0.162301614359052  5.66584615384615 0.660714285714287  L 22.1095384615385 10.1964285714286  C 22.944974490348 10.6801964442751  23.456354715498 11.5528183297151  23.456354715498 12.4946428571429  C 23.456354715498 13.4364673845706  22.944974490348 14.3090892700107  22.1095384615385 14.7928571428571  L 5.6603076923077 24.3392857142857  C 5.23024250827702 24.5885512605635  4.73828328203632 24.7202074330538  4.2369186443142 24.7202074330538  C 2.70944932516452 24.7202074330538  1.47042529397456 23.5238890896125  1.46769230769231 22.0464285714286  L 1.46769230769231 2.95357142857143  Z M 15.3027692307692 12.5  L 7.00615384615385 7.68392857142858  L 7.00615384615385 17.3214285714286  L 15.3027692307692 12.5  Z " fill-rule="nonzero" fill="url(#LinearGradient1591)" stroke="none" transform="matrix(1 0 0 1 293 548 )" />
  </g>
</svg>