<?xml version="1.0" encoding="utf-8"?>
<svg version="1.1" xmlns:xlink="http://www.w3.org/1999/xlink" width="72px" height="61px" xmlns="http://www.w3.org/2000/svg">
  <defs>
    <linearGradient gradientUnits="userSpaceOnUse" x1="-79.7142857142858" y1="-32.5333333333332" x2="141.428571428571" y2="113.866666666667" id="LinearGradient1588">
      <stop id="Stop1589" stop-color="#ffffff" stop-opacity="0.498039215686275" offset="0" />
      <stop id="Stop1590" stop-color="#ffffff" stop-opacity="0.498039215686275" offset="1" />
    </linearGradient>
  </defs>
  <g transform="matrix(1 0 0 1 -268 -535 )">
    <path d="M 1 43.9558823529412  L 1 6.27941176470588  C 0.9 3.3068203170872  3.31766235091371 0.897058823529412  6.3 1  L 65.7 1  C 68.6823376490863 0.897058823529412  71.1 3.3068203170872  71 6.27941176470588  L 71 43.9558823529412  C 71.1 46.9284738005599  68.6823376490863 49.3382352941176  65.7 49  L 6.3 49  C 3.31766235091371 49.3382352941176  0.9 46.9284738005599  1 43.9558823529412  Z M 65 7  L 7 7  L 7 44  L 65 44  L 65 7  Z M 14.4 60  C 12.9088311754569 60.1029411764706  11.7 58.8980604296917  11.7 57.4117647058824  C 11.7 55.925468982073  12.9088311754569 54.7205882352941  14.4 54  L 57.6 54  C 57.6 54.7205882352941  57.6 54.7205882352941  57.6 54.7205882352941  C 59.0911688245431 54.7205882352941  60.3 55.925468982073  60.3 57.4117647058824  C 60.3 58.8980604296917  59.0911688245431 60.1029411764706  57.6 60.1029411764706  C 57.6 60.1029411764706  57.6 60.1029411764706  57.6 60  L 14.4 60  Z " fill-rule="nonzero" fill="url(#LinearGradient1588)" stroke="none" transform="matrix(1 0 0 1 268 535 )" />
  </g>
</svg>