<?xml version="1.0" encoding="utf-8"?>
<svg version="1.1" xmlns:xlink="http://www.w3.org/1999/xlink" width="20px" height="20px" xmlns="http://www.w3.org/2000/svg">
  <g transform="matrix(1 0 0 1 -8 -8 )">
    <path d="M 19.3554521767241 8.75727859374999  L 11.1464633728448 0.804782343750001  C 11.0096402909483 0.606516781250001  10.8143299461207 0.45919265625  10.5856739224138 0.381773156250001  C 10.4655898060345 0.335468562500001  10.3356144827586 0.310941187500002  10.1930683836207 0.310941187500002  L 10.187146875 0.310941187500002  L 10.1500630603448 0.307167750000001  C 10.1314715301724 0.307167750000001  10.1168828017241 0.309981843750002  10.0982912715517 0.3118685625  C 9.96156740301724 0.3118685625  9.83364310344828 0.335468562500001  9.7202744612069 0.378927093750001  C 9.4838775 0.4573059375  9.28754165948276 0.607444156250001  9.1634878125 0.796276125000001  L 0.946559579741382 8.7572785625  C 0.754127295258623 8.94233709375  0.649591260775864 9.194486125  0.649591260775864 9.46639778125  C 0.649591260775864 9.76856090625  0.782477715517244 10.06790996875  1.01100139008621 10.28884815625  C 1.2376394612069 10.50700425  1.53067112068966 10.62791428125  1.83541348060345 10.62791428125  C 2.11673447198276 10.62791428125  2.38048942887931 10.52398475  2.57973640086207 10.33237065625  C 2.58757661637931 10.3229050625  2.59733550646552 10.3153581875  2.6071275 10.30589259375  C 2.62763773706897 10.288880125  2.65201845905173 10.26710290625  2.6627697737069 10.250154375  L 9 4.148403375  L 9 18.8296495  C 8.99351754310345 18.86172375  8.99351754310345 18.89098390625  8.99546932112069 18.9193486875  L 8.99742109913794 18.953373625  C 8.99742109913794 19.505735125  9.49760612068966 19.9381779375  10.1364336853448 19.9381779375  C 10.7811165840517 19.9381779375  11.3027050215517 19.49630153125  11 18.953373625  L 11 4.14840340624999  L 17.6295161314655 10.24161621875  C 17.6499601939655 10.26623953125  17.6724552801724 10.2869934375  17.6969021767241 10.306852  L 17.7242601724138 10.3323706875  C 17.9215884375 10.52398478125  18.1853434267241 10.6279143125  18.4665651724138 10.6279143125  C 18.771373674569 10.6279143125  19.0644053663793 10.50703628125  19.2910765086207 10.2888481875  C 19.7462382543103 9.84981784374999  19.7755811314655 9.16333928124999  19.3554521767241 8.75727859374999  Z " fill-rule="nonzero" fill="#165dff" stroke="none" fill-opacity="0.996078431372549" transform="matrix(1 0 0 1 8 8 )" />
  </g>
</svg>