<?xml version="1.0" encoding="utf-8"?>
<svg version="1.1" xmlns:xlink="http://www.w3.org/1999/xlink" width="8px" height="12px" xmlns="http://www.w3.org/2000/svg">
  <g transform="matrix(1 0 0 1 -225 -208 )">
    <path d="M 6.99744185626837 6.45842204975328  C 7.04093017178376 6.41447103207234  7.06395338541668 6.36067945620893  7.09363326708707 6.31036256681741  C 7.10183029970777 6.29505795641444  7.11511610014627 6.28224664884874  7.1222953855995 6.26643808593748  C 7.26302036275603 5.98419143708884  7.21694639985379 5.63881659128288  6.96776199058847 5.41182036389806  L 1.31915081551526 0.260029780016436  C 1.01110177266082 -0.0207315018504102  0.525523592836331 -0.00741622635687885  0.233841111568078 0.289153618421129  C -0.0573187362939381 0.5862009097451  -0.0440054322003663 1.05443701171872  0.264043610654274 1.3357022615131  L 5.33239810398411 5.95904625308387  L 0.283986063139562 10.6509824629934  C -0.0209822185671934 10.9346879574424  -0.0301970143458574 11.4029505807976  0.264043610654274 11.6975311060855  C 0.414478497350198 11.8485082648026  0.615580969024045 11.9240233655428  0.816683440698145 11.9240233655428  C 1.00857113258401 11.9240233655428  1.20045880847945 11.8549537006579  1.34935331460166 11.7167878495065  L 6.94680177494527 6.51465387027136  C 6.9575569512976 6.50428280736014  6.96162795595774 6.48998613281255  6.97238313231007 6.47913763877471  C 6.98058016493057 6.47173732524672  6.98927232730269 6.46629980982734  6.99744185626837 6.45842204975328  Z " fill-rule="nonzero" fill="#fffcfc" stroke="none" transform="matrix(1 0 0 1 225 208 )" />
  </g>
</svg>