<?xml version="1.0" encoding="utf-8"?>
<svg version="1.1" xmlns:xlink="http://www.w3.org/1999/xlink" width="6px" height="9px" xmlns="http://www.w3.org/2000/svg">
  <g transform="matrix(1 0 0 1 -1849 -86 )">
    <path d="M 3.56251511718747 8.22775717843192  C 3.56251511718747 8.56044934779577  3.31051269140626 8.83103509486608  3 8.83103509486608  C 2.68948730859374 8.83103509486608  2.43748488281253 8.56103249581473  2.43748488281253 8.2283727204241  L 2.43748488281253 7.2092376625279  C 2.43748488281253 6.2232454813058  3.14060610351553 5.46990131626674  3.76160126953137 4.80516491350447  C 4.21665099023439 4.31699608049666  4.68748488281253 3.81314675641741  4.68748488281253 3.41115585518974  C 4.68748488281253 2.40650257952008  3.9303588281251 1.58927011648995  3 1.58927011648995  C 2.05388725195326 1.58927011648995  1.31251511718747 2.37154545200893  1.31251511718747 3.37017273297991  C 1.31251511718747 3.70286490234374  1.06051269140626 3.97283510742187  0.75 3.97283510742187  C 0.439487308593743 3.97283510742187  0.187484882812532 3.70283250837054  0.187484882812532 3.37017273297991  C 0.187484882812532 1.72365585518974  1.44916006054682 0.383912973632807  3 0.383912973632807  C 4.55083993945318 0.383912973632807  5.81251511718747 1.7417337827846  5.81251511718747 3.41115585518974  C 5.81251511718747 4.31336754115514  5.17407269531259 4.99679743233816  4.55700847265625 5.65793768973213  C 4.06763876367195 6.18106366908481  3.56251511718747 6.72226755719866  3.56251511718747 7.20862212053572  L 3.56251511718747 8.22775717843192  Z " fill-rule="nonzero" fill="#ffffff" stroke="none" transform="matrix(1 0 0 1 1849 86 )" />
  </g>
</svg>