<?xml version="1.0" encoding="utf-8"?>
<svg version="1.1" xmlns:xlink="http://www.w3.org/1999/xlink" width="9px" height="13px" xmlns="http://www.w3.org/2000/svg">
  <g transform="matrix(1 0 0 1 -2000 -83 )">
    <path d="M 7.87212208830192 6.99662388723272  C 7.92104644325673 6.94901028474504  7.94694755859376 6.89073607755967  7.98033742547295 6.83622611405219  C 7.98955908717124 6.81964611944898  8.00450561266456 6.80576720291947  8.01258230879944 6.78864125976561  C 8.17089790810053 6.48287405684624  8.11906469983552 6.10871797388978  7.83873223941202 5.8628053942229  L 1.48404466745467 0.281698928351139  C 1.13748949424343 -0.0224591270046111  0.591214041940873 -0.00803424521995209  0.263071250514088 0.313249753289556  C -0.0644835783306803 0.635050985557192  -0.049506111225412 1.14230676269528  0.297049061986058 1.44701078330586  L 5.99894786698212 6.45563344084085  L 0.319484321032007 11.5385643349095  C -0.0236049958880926 11.845911953896  -0.0339716411390896 12.3531964625308  0.297049061986058 12.672325364926  C 0.466288309518973 12.8358839535362  0.692528590152051 12.917691979338  0.918768870785414 12.917691979338  C 1.13464252415702 12.917691979338  1.35051615953938 12.8428665090461  1.51802247892687 12.6931868369654  L 7.81515199681343 7.05754169279398  C 7.8272515702098 7.04630637464015  7.83183145045246 7.03081831054693  7.84393102384882 7.01906577533927  C 7.85315268554689 7.01104876901728  7.86293136821553 7.00515812731295  7.87212208830192 6.99662388723272  Z " fill-rule="nonzero" fill="#ffffff" stroke="none" transform="matrix(1 0 0 1 2000 83 )" />
  </g>
</svg>