<?xml version="1.0" encoding="utf-8"?>
<svg version="1.1" xmlns:xlink="http://www.w3.org/1999/xlink" width="25px" height="25px" xmlns="http://www.w3.org/2000/svg">
  <g transform="matrix(1 0 0 1 -1840 -79 )">
    <path d="M 1852.5 80.5  C 1858.66 80.5  1863.5 85.34  1863.5 91.5  C 1863.5 97.66  1858.66 102.5  1852.5 102.5  C 1846.34 102.5  1841.5 97.66  1841.5 91.5  C 1841.5 85.34  1846.34 80.5  1852.5 80.5  Z " fill-rule="nonzero" fill="#ffffff" stroke="none" fill-opacity="0" />
    <path d="M 1852.5 80  C 1858.94 80  1864 85.06  1864 91.5  C 1864 97.94  1858.94 103  1852.5 103  C 1846.06 103  1841 97.94  1841 91.5  C 1841 85.06  1846.06 80  1852.5 80  Z " stroke-width="2" stroke="#ffffff" fill="none" stroke-opacity="0.996078431372549" />
  </g>
</svg>