<?xml version="1.0" encoding="utf-8"?>
<svg version="1.1" xmlns:xlink="http://www.w3.org/1999/xlink" width="25px" height="24px" xmlns="http://www.w3.org/2000/svg">
  <g transform="matrix(1 0 0 1 -1718 -82 )">
    <path d="M 16.6823150460379 8.78409446149554  C 16.6823150460379 9.22900820591518  16.3088538905552 9.58753089006697  15.8454020734514 9.58753089006697  L 9.15009839739118 9.58753089006697  C 8.68664660644531 9.58753089006697  8.31318542480469 9.22900818080357  8.31318542480469 8.78409443638393  C 8.31318542480469 8.33918069196429  8.68664658028739 7.98065798270089  9.15009839739118 7.98065798270089  L 15.8454020734514 7.9806580078125  C 16.3088538643973 7.9806580078125  16.6823150460379 8.33918071707589  16.6823150460379 8.78409446149554  Z M 15.0939802333287 11.9978402260045  C 15.0939802333287 12.4427539704241  14.720519077846 12.8012766796875  14.2570672607422 12.8012766796875  L 9.15009839739118 12.8012766796875  C 8.68664660644531 12.8012766796875  8.31318542480469 12.4427539704241  8.31318542480469 11.9978402260045  C 8.31318542480469 11.5529264815848  8.69114610944476 11.1944037723214  9.15009839739118 11.1944037723214  L 14.2570672607422 11.1944037723214  C 14.7205190516881 11.1944037723214  15.0939802333287 11.5529264815848  15.0939802333287 11.9978402260045  Z M 12.7587231358119 20.0278851143973  C 19.1255609479632 19.93717453125  24.2775251290458 15.656499734933  24.2775251290458 10.39096734375  C 24.2775251290458 5.0736003515625  19.02207169887 0.749730025111606  12.5607436697824 0.749730025111606  C 6.09941564069476 0.749730025111606  0.839462707519531 5.0736003515625  0.839462707519531 10.39096734375  C 0.839462707519531 13.3153032170759  2.48629142543248 16.0668570452009  5.36149241420201 17.941542078683  C 5.74395262799944 18.1920760128348  6.26589835030692 18.097045906808  6.52237169538225 17.7298841015625  C 6.78334454345703 17.362722296317  6.68435484967913 16.8616544029018  6.3018946358817 16.6154399916295  C 3.89464499337333 15.0474430664063  2.51328865269252 12.7796789146205  2.51328865269252 10.3952868917411  C 2.51328865269252 5.96342781529018  7.01732024274554 2.36092245535714  12.5562441929408 2.36092245535714  C 18.0951681431362 2.36092245535714  22.5991997331892 5.96774733816964  22.5991997331892 10.3952868917411  C 22.5991997331892 14.8228264453125  18.0951681431362 18.429651328125  12.5562441929409 18.429651328125  C 12.5022498168945 18.429651328125  12.4617540283203 18.4469295200893  12.4122591552734 18.4598881891741  C 12.016300327846 18.3907753710938  11.6158419712612 18.5894747042411  11.476356488909 18.9652756305804  C 11.3143733346122 19.4015502539063  10.2614828316825 20.1358738895089  9.01511247035435 20.8183628989955  C 9.46956520298549 19.3583547488839  9.2535876726423 19.0430275446429  9.10510310581753 18.8356890904018  C 8.92962136404855 18.58515515625  8.63715178571429 18.4339708761161  8.32218453543527 18.4339708761161  C 7.8587327444894 18.4339708761161  7.48527156284877 18.7924935853795  7.48527156284877 19.2374073297991  C 7.48527156284877 19.384272061942  7.52576735142299 19.518178125  7.5977598702567 19.6391255440848  C 7.5122687639509 20.0969979324777  7.14780666678293 21.1682465122768  6.73384972272601 22.1444649860491  C 6.60336329868862 22.446833546317  6.67985534667969 22.7967171595982  6.92732960728237 23.0256533537946  C 7.08481323242188 23.1725180859375  7.29629123360771 23.25027  7.50776923479353 23.25027  C 7.62025754220145 23.25027  7.73724537876674 23.228672234933  7.84973366001674 23.1811571819196  C 8.80363444301061 22.7707998465402  11.7103321620396 21.4446977845982  12.7587231358119 20.0278851143973  Z " fill-rule="nonzero" fill="#ffffff" stroke="none" transform="matrix(1 0 0 1 1718 82 )" />
  </g>
</svg>