<?xml version="1.0" encoding="utf-8"?>
<svg version="1.1" xmlns:xlink="http://www.w3.org/1999/xlink" width="16px" height="16px" xmlns="http://www.w3.org/2000/svg">
  <g transform="matrix(1 0 0 1 -1735 -78 )">
    <path d="M 1743 78  C 1747.48 78  1751 81.52  1751 86  C 1751 90.48  1747.48 94  1743 94  C 1738.52 94  1735 90.48  1735 86  C 1735 81.52  1738.52 78  1743 78  Z " fill-rule="nonzero" fill="#e21f0c" stroke="none" />
    <path d="M 1743 78.5  C 1747.2 78.5  1750.5 81.8  1750.5 86  C 1750.5 90.2  1747.2 93.5  1743 93.5  C 1738.8 93.5  1735.5 90.2  1735.5 86  C 1735.5 81.8  1738.8 78.5  1743 78.5  Z " stroke-width="1" stroke="#e21f0c" fill="none" />
  </g>
</svg>