<?xml version="1.0" encoding="utf-8"?>
<svg version="1.1" xmlns:xlink="http://www.w3.org/1999/xlink" width="5px" height="9px" xmlns="http://www.w3.org/2000/svg">
  <g transform="matrix(1 0 0 1 -1696 -87 )">
    <path d="M 4.37340116016773 4.84381653731496  C 4.40058135736485 4.81085327405425  4.41497086588542 4.7705095921567  4.43352079192942 4.73277192511305  C 4.43864393731736 4.72129346731083  4.44694756259142 4.71168498663656  4.45143461599969 4.69982856445311  C 4.53938772672252 4.48814357781663  4.51059149990862 4.22911244346216  4.35485124411779 4.05886527292354  L 0.824469259697038 0.195022335012327  C 0.631938607913014 -0.0155486263878077  0.328452245522707 -0.00556216976765914  0.146150694730049 0.216865213815847  C -0.0358242101837113 0.439650682308825  -0.0275033951252289 0.790827758789037  0.165027256658921 1.00177669613483  L 3.33274881499007 4.4692846898129  L 0.177491289462226 7.98823684724502  C -0.0131138866044959 8.20101596808182  -0.0188731339661609 8.55221293559821  0.165027256658921 8.77314832956415  C 0.259049060843874 8.88638119860195  0.384738105640028 8.94301752415711  0.510427150436341 8.94301752415711  C 0.630356957865009 8.94301752415711  0.750286755299656 8.89121527549344  0.843345821626037 8.78759088712991  L 4.34175110934079 4.88599040270352  C 4.348473094561 4.87821210552011  4.35101747247359 4.86748959960941  4.35773945769379 4.85935322908103  C 4.3628626030816 4.85380299393504  4.36829520456418 4.8497248573705  4.37340116016773 4.84381653731496  Z " fill-rule="nonzero" fill="#ffffff" stroke="none" transform="matrix(1 0 0 1 1696 87 )" />
  </g>
</svg>