<?xml version="1.0" encoding="utf-8"?>
<svg version="1.1" xmlns:xlink="http://www.w3.org/1999/xlink" width="28px" height="28px" xmlns="http://www.w3.org/2000/svg">
  <g transform="matrix(1 0 0 1 -1757 -79 )">
    <path d="M 16.8095078222656 13.9974802636719  C 16.8095078222656 15.5496388378906  15.5496388378906 16.8095078222656  13.9974802636719 16.8095078222656  C 12.4453216894531 16.8095078222656  11.1854527050781 15.5496388378906  11.1854527050781 13.9974802636719  C 11.1854527050781 12.4453216894531  12.4453216894531 11.1854527050781  13.9974802636719 11.1854527050781  C 15.5496388378906 11.1854527050781  16.8095078222656 12.4453216894531  16.8095078222656 13.9974802636719  Z M 14.9348227929688 13.9974802636719  C 14.9348227929688 13.4834537011719  14.5165462695312 13.060137734375  13.9974802636719 13.060137734375  C 13.4834537304688 13.060137734375  13.060137734375 13.4834537011719  13.060137734375 13.9974802636719  C 13.060137734375 14.5115068261719  13.4834537011719 14.9348227929688  13.9974802636719 14.9348227929688  C 14.5115068261719 14.9348227929688  14.9348227929688 14.5115068261719  14.9348227929688 13.9974802636719  Z M 17.7468503222656 27.0849991601563  C 17.6611792285156 27.1101965527344  17.5755081347656 27.1253149707031  17.4847975683594 27.1253149707031  C 17.1925079785156 27.1253149707031  16.9052578320313 26.9842096484375  16.728876171875 26.7423148144531  L 14.57702 23.79422140625  C 14.1789013964844 23.8194187988281  13.8160591308594 23.8194187988281  13.4179405566406 23.79422140625  L 11.2660843554688 26.7372753417969  C 11.0342684667969 27.0547623242188  10.631110390625 27.1958676464844  10.2531497070313 27.0849991894531  C 9.24021505859375 26.7977490722656  8.27767516601562 26.39963046875  7.39072739257812 25.9057618261719  C 7.04804301757813 25.7142617480469  6.86158241210938 25.3312615625  6.92205614257812 24.9432219335938  L 7.48647743164062 21.3299177246094  C 7.19922731445312 21.0729044433594  6.92709561523438 20.8007727441406  6.67008233398438 20.5135226269531  L 3.056778125 21.0779439160156  C 2.67377796875 21.1384176171875  2.28573831054687 20.9519570117188  2.09423823242188 20.6092726660156  C 1.60036958984375 19.7172854199219  1.20225098632813 18.7547455273438  0.915000869140625 17.7418108789063  C 0.809171884765625 17.3638501953125  0.945237734375 16.9606921191406  1.26272471679687 16.7288762304688  L 4.20577865234375 14.5770200292969  C 4.190660234375 14.3754410058594  4.18562076171875 14.1839408984375  4.18562076171875 13.9974802929688  C 4.18562076171875 13.8110196875  4.190660234375 13.619519609375  4.20577865234375 13.4179405566406  L 1.26272471679688 11.2660843554688  C 0.945237734375 11.0342684667969  0.804132412109375 10.631110390625  0.915000869140626 10.2531497070313  C 1.20225098632813 9.24021505859375  1.60036958984375 8.27767516601563  2.09423823242188 7.39072739257812  C 2.28573831054688 7.04804301757813  2.67377796875 6.86158241210938  3.056778125 6.92205614257812  L 6.67008233398438 7.48647743164062  C 6.92709561523438 7.19922731445312  7.19922731445312 6.92709561523438  7.48647743164062 6.67008233398438  L 6.92205614257812 3.056778125  C 6.86158244140625 2.66873846679688  7.048043046875 2.28573831054687  7.39576686523437 2.09423823242188  C 8.28775411132813 1.60036958984375  9.25029400390625 1.20225098632813  10.2581891796875 0.915000869140625  C 10.6361498632813 0.809171884765625  11.0393079394531 0.945237734375  11.271123828125 1.26272471679687  L 13.4229800292969 4.20577865234375  C 13.8210986328125 4.18058125976563  14.1789014257812 4.18058125976563  14.5820594726563 4.20577865234375  L 16.7339156738281 1.26272471679688  C 16.9657315625 0.945237734375  17.3688896386719 0.809171884765625  17.7468503222656 0.915000869140626  C 18.7547454980469 1.20225098632813  19.717285390625 1.60036958984375  20.6092726367188 2.09423823242188  C 20.9519570117188 2.28573831054688  21.1384176171875 2.66873849609375  21.0779438867188 3.056778125  L 20.5135225976563 6.67008233398438  C 20.8007727148438 6.92709561523438  21.0729044140625 7.19922731445312  21.3299176953125 7.48143795898438  L 24.9432219042969 6.91701666992188  C 25.3262220605469 6.85654296875  25.71426171875 7.04300357421875  25.905761796875 7.38568791992188  C 26.3996304394531 8.27767516601563  26.7977490429688 9.24021505859375  27.0900386328125 10.2531497070313  C 27.1958676171875 10.631110390625  27.0598017675781 11.0342684667969  26.7423147851563 11.2660843554688  L 23.79422140625 13.4179405273437  C 23.8093398242188 13.6195195507812  23.814379296875 13.8110196582031  23.814379296875 13.9974802636719  C 23.814379296875 14.1839408691406  23.8093398242188 14.3754409472656  23.79422140625 14.57702  L 26.7372753417969 16.7288762011719  C 27.0547623242188 16.9606920898437  27.1908281738281 17.3638501660156  27.0849991894531 17.7418108496094  C 26.7977490722656 18.7547454980469  26.39963046875 19.717285390625  25.9007223535156 20.6092726367188  C 25.7092222753906 20.9519570117188  25.3312615917969 21.1384176171875  24.9381824609375 21.0779438867187  L 21.3299176953125 20.5185620703125  C 21.0779438867188 20.8058121875  20.8007727148438 21.0779438867188  20.5135225976563 21.3299176953125  L 21.0779438867188 24.9432219042969  C 21.1384175878906 25.3312615625  20.9519569824219 25.71426171875  20.6092726367188 25.905761796875  C 19.7223248925781 26.3996304394531  18.7597849707031 26.7977490429688  17.7468503222656 27.0849991601563  Z M 9.41659666015625 21.0981017773438  L 8.87737276367188 24.5652612207031  C 9.2855703125 24.7618007714844  9.71392575195313 24.9381824316406  10.1523601660156 25.0893666992187  L 12.2185452734375 22.2622207226562  C 12.4150848242187 21.9900890234375  12.7476902539062 21.8439442285156  13.0802956542969 21.8842600390625  C 13.6850327539062 21.9548127148437  14.3149672460937 21.9548127148437  14.9146648730469 21.8842600390625  C 15.2623887207031 21.8439442285156  15.579875703125 21.9900890234375  15.7764152539062 22.2622207226562  L 17.8426003613281 25.0893666992187  C 18.2810347753906 24.9381824316406  18.7093902148437 24.7618007714844  19.1175877636719 24.5652612207031  L 18.5783638378906 21.0981018066406  C 18.5279690820312 20.76549640625  18.6589954589844 20.4278515039062  18.9210482128906 20.2212330078125  C 19.3997984375 19.8382328515625  19.8382328222656 19.4048379101562  20.2161935058594 18.9260877148437  C 20.4278515039063 18.6640349609375  20.7554174316406 18.5279691113281  21.0930623046875 18.5834033398437  L 24.56022171875 19.122627265625  C 24.7567612695313 18.7144297167969  24.9331429296875 18.2860742773437  25.0843271972656 17.8476398632812  L 22.2571812207031 15.7814547558594  C 21.9850495214844 15.5849152050781  21.8389047265625 15.2523097753906  21.8792205371094 14.919704375  C 21.914496875 14.6173358105469  21.934654765625 14.3149672753906  21.934654765625 14.002519765625  C 21.934654765625 13.6900722558594  21.914496875 13.3877037207031  21.8792205371094 13.08533515625  C 21.8389047265625 12.7527297558594  21.9850495214844 12.4201243261719  22.2571812207031 12.2235847753906  L 25.0843271972656 10.1573996679687  C 24.9331429296875 9.71896525390625  24.7567612695313 9.29060981445312  24.56022171875 8.882412265625  L 21.0930623046875 9.42163619140625  C 20.7604569042969 9.47203094726562  20.4228120019531 9.3410045703125  20.2161935058594 9.07895181640625  C 19.8382328222656 8.60524109375  19.4048378808594 8.1668066796875  18.9210482128906 7.7838065234375  C 18.6589954589844 7.57214852539062  18.5279690820312 7.239543125  18.5783638378906 6.90693772460937  L 19.1226272363281 3.43473877929688  C 18.7144296875 3.23819922851562  18.2860742480469 3.06181756835938  17.8476398339844 2.91063330078125  L 15.7814547265625 5.73777927734375  C 15.5849151757812 6.0099109765625  15.2623887207031 6.16109524414063  14.9197043457031 6.1157399609375  C 14.32000671875 6.04518728515625  13.6900722265625 6.04518728515625  13.0853351269531 6.1157399609375  C 12.7476902539062 6.15605577148438  12.420124296875 6.0099109765625  12.2185452734375 5.73777927734375  L 10.1523601660156 2.91063330078125  C 9.71392575195312 3.06181756835938  9.2855703125 3.23819922851562  8.87737276367188 3.43473877929688  L 9.41659668945312 6.90189819335937  C 9.4669914453125 7.23450359375  9.33596506835937 7.57214849609375  9.07391231445312 7.7787669921875  C 8.59516208984375 8.15672767578125  8.16176717773438 8.59516208984375  7.77876702148437 9.07391228515625  C 7.5671090234375 9.3359650390625  7.23450362304687 9.46699141601562  6.90189822265625 9.41659666015625  L 3.43473877929688 8.87737276367188  C 3.23819922851562 9.2855703125  3.06181756835938 9.71392575195313  2.91063330078125 10.1523601660156  L 5.73777927734375 12.2185452734375  C 6.0099109765625 12.4150848242187  6.15605577148438 12.7476902539062  6.1157399609375 13.0853351269531  C 6.08046362304687 13.38266421875  6.06030573242187 13.6900722265625  6.06030573242187 13.9974802636719  C 6.06030573242187 14.3099277734375  6.08046362304687 14.6122963085937  6.1157399609375 14.9146648730469  C 6.15605577148438 15.2523097460938  6.0099109765625 15.579875703125  5.73777927734375 15.7814547265625  L 2.91063330078125 17.8476398339844  C 3.06181756835938 18.2860742480469  3.23819922851562 18.7144296875  3.43473877929688 19.1226272363281  L 6.90189819335937 18.5834033105469  C 7.23450359375 18.5330085546875  7.57214849609375 18.6640349316406  7.7787669921875 18.9260876855469  C 8.15672767578125 19.4048379101563  8.5901226171875 19.8382328222656  9.07391228515625 20.2212329785156  C 9.3359650390625 20.4328909765625  9.47203088867187 20.7654963769531  9.41659666015625 21.0981017773438  Z " fill-rule="nonzero" fill="#ffffff" stroke="none" transform="matrix(1 0 0 1 1757 79 )" />
  </g>
</svg>