<?xml version="1.0" encoding="utf-8"?>
<svg version="1.1" xmlns:xlink="http://www.w3.org/1999/xlink" width="25px" height="27px" xmlns="http://www.w3.org/2000/svg">
  <g transform="matrix(1 0 0 1 -1800 -78 )">
    <path d="M 3.52108180664062 25.203090859375  C 3.52108180664063 25.717117421875  3.09776583984375 26.1404333886719  2.58373927734375 26.1404333886719  C 2.06467327148437 26.1404333886719  1.64639674804688 25.7221568945313  1.64639674804688 25.203090859375  C 1.64639674804688 23.1671425878906  4.0502267578125 21.6956156347656  8.27834701171875 21.105996953125  L 8.27834701171875 20.8237863085937  C 5.41088522460938 18.6265748242187  5.41088522460938 14.55467828125  5.41088522460938 12.0752561523437  C 5.41088522460938 7.98320171875  7.81975470703125 5.53905592773437  11.8513354101562 5.53905592773437  L 12.0680328808594 5.53905592773437  C 16.0996135839844 5.53905592773437  18.5084830664062 7.98320174804687  18.5084830664062 12.0752561523437  C 18.5084830664062 12.3776247167969  18.50344359375 12.6799932519531  18.4984041210937 12.9924407617187  C 18.483285703125 13.5115067675781  18.0599697070313 13.9197043164062  17.5358642285156 13.9045858984375  C 17.0167982226562 13.8894674804687  16.6086006738281 13.4611120117187  16.6237190917969 12.9420460058594  C 16.6337980371094 12.6497564160156  16.6337980371094 12.3625062695312  16.6337980371094 12.0752561523437  C 16.6337980371094 8.98101794921875  15.0967578808594 7.41374095703125  12.0680328808594 7.41374095703125  L 11.8513354101562 7.41374095703125  C 8.82261041015625 7.41374095703125  7.28557025390625 8.98101794921875  7.28557025390625 12.0752561523437  C 7.28557025390625 15.06870484375  7.472030859375 18.1175877636719  9.71963709960937 19.54879890625  C 9.99176879882812 19.72014109375  10.1530320410156 20.01747015625  10.1530320410156 20.3399966113281  L 10.1530320703125 21.9375104980469  C 10.1530320703125 22.4162607226562  9.7901898046875 22.8194187695313  9.31647908203125 22.8698135253906  C 5.55199057617187 23.2679321289062  3.52108180664062 24.37157734375  3.52108180664062 25.203090859375  Z M 22.3586427246094 25.2030908886719  C 22.3636821679688 25.717117421875  21.9454056738281 26.1404333886719  21.4263396679688 26.1404333886719  C 20.9072736621094 26.1404333886719  20.4889971386719 25.7221568945313  20.4889971386719 25.203090859375  C 20.4889971386719 24.3665378710937  18.4580883398437 23.2679321289062  14.6935998632812 22.8698135253906  C 14.2148496386719 22.8194187695313  13.8520074023437 22.4162606933594  13.8520074023437 21.9375104980469  L 13.8520074023437 20.3349571679687  C 13.8520074023437 19.8158911621094  14.2702838964844 19.3976146386719  14.7893499316406 19.3976146386719  C 15.3084159667969 19.3976146386719  15.7266924609375 19.8158911328125  15.7266924609375 20.3349571679687  L 15.7266924609375 21.1059969824219  C 19.9548127441406 21.6905761914063  22.3586427246094 23.1671426171875  22.3586427246094 25.2030908886719  Z M 21.2600369238281 15.3105996777344  C 20.2823786425781 17.3465479492187  17.1377456835937 17.7295481347656  14.9354946972656 17.7295481347656  C 13.6453888769531 17.7295481347656  12.682848984375 17.5985217578125  12.6576515917969 17.5934822851563  C 12.1940198144531 17.4523769628906  11.9168486425781 16.9837057128906  12.0176381542969 16.5049554882813  C 12.1133881933594 16.031244765625  12.5568620800781 15.7187972558594  13.0406517480469 15.7641525390625  C 15.3789685546875 16.0211658203125  18.9469175097656 15.7994288769531  19.5718125 14.4992440820313  C 19.7935494433594 14.0356123046875  20.3529312597656 13.8340332519531  20.8216025097656 14.0608096679688  C 21.2902737597656 14.2825466113281  21.4868133398438 14.8469679003906  21.2600369238281 15.3105996777344  Z M 24.1879724707031 15.8095077929687  C 24.1879724414062 16.328573828125  23.7696959472656 16.7468503222656  23.2506299414063 16.7468503222656  C 22.7315639355469 16.7468503222656  22.3132874121094 16.328573828125  22.3132874121094 15.8095077929687  L 22.3132874121094 12.5338484570312  L 21.0584579003906 12.0853350976562  C 20.6855366894531 11.9543087207031  20.4335628808594 11.5965059277344  20.4335628808594 11.2034268261719  C 20.4335628808594 6.5015958203125  16.648916484375 2.671594140625  11.997480234375 2.671594140625  C 7.346043984375 2.671594140625  3.56139758789063 6.5015958203125  3.56139758789063 11.2034268261719  C 3.56139758789063 11.505795390625  3.41525279296875 11.7880060351562  3.16831845703125 11.9643876953125  L 2.62405505859375 12.3524273535156  L 2.62405505859375 15.8095078222656  C 2.62405505859375 16.328573828125  2.20577856445313 16.7468503515625  1.68671252929688 16.7468503515625  C 1.16764649414063 16.7468503515625  0.749370000000002 16.3285738574219  0.749370000000002 15.8095078222656  L 0.749370000000002 11.8736771582031  C 0.749370000000002 11.57130859375  0.895514794921877 11.2890979492187  1.14244913085938 11.1127162890625  L 1.69679147460938 10.7145976855469  C 1.95380481445312 5.20645052734375  6.4742146875 0.801948583984375  11.9974802636719 0.801948583984375  C 17.4602721386719 0.801948583984375  21.9454056738281 5.11070048828125  22.2880900488281 10.5382160253906  L 23.5630774511719 10.9917688574219  C 23.9359986621094 11.122795234375  24.1879724707031 11.4805980273437  24.1879724707031 11.8736771289062  L 24.1879724707031 15.8095077929687  Z " fill-rule="nonzero" fill="#ffffff" stroke="none" transform="matrix(1 0 0 1 1800 78 )" />
  </g>
</svg>