<?xml version="1.0" encoding="utf-8"?>
<svg version="1.1" xmlns:xlink="http://www.w3.org/1999/xlink" width="60px" height="60px" xmlns="http://www.w3.org/2000/svg">
  <g transform="matrix(1 0 0 1 -69 -338 )">
    <path d="M 99 338  C 115.8 338  129 351.2  129 368  C 129 384.8  115.8 398  99 398  C 82.2 398  69 384.8  69 368  C 69 351.2  82.2 338  99 338  Z " fill-rule="nonzero" fill="#ffffff" stroke="none" />
    <path d="M 99 338.5  C 115.52 338.5  128.5 351.48  128.5 368  C 128.5 384.52  115.52 397.5  99 397.5  C 82.48 397.5  69.5 384.52  69.5 368  C 69.5 351.48  82.48 338.5  99 338.5  Z " stroke-width="1" stroke="#d9d9d9" fill="none" />
  </g>
</svg>