<?xml version="1.0" encoding="utf-8"?>
<svg version="1.1" xmlns:xlink="http://www.w3.org/1999/xlink" width="20px" height="31px" xmlns="http://www.w3.org/2000/svg">
  <g transform="matrix(1 0 0 1 -89 -353 )">
    <path d="M 17.4936046406709 16.6842569618626  C 17.6023254294594 16.5707168328535  17.6598834635417 16.4317552618731  17.7340831677177 16.3017699642783  C 17.7545757492694 16.2622330540706  17.7877902503657 16.2291371761926  17.8057384639988 16.1882983886718  C 18.1575509068901 15.4591612124795  18.0423659996345 14.5669428608141  17.4194049764712 13.98053594007  L 3.29787703878815 0.671743598375794  C 2.52775443165206 -0.0535563797802264  1.31380898209083 -0.0191585847552704  0.584602778920195 0.746980180921249  C -0.143296840734845 1.51435235017484  -0.110013580500916 2.72396228027335  0.660109026635685 3.45056417557552  L 13.3309952599603 15.3942028204667  L 0.709965157848905 27.5150380293995  C -0.0524555464179836 28.2479438900596  -0.0754925358646435 29.4576223337272  0.660109026635685 30.2186220240543  C 1.03619624337549 30.6086463507401  1.53895242256011 30.8037270276523  2.04170860174536 30.8037270276523  C 2.52142783146004 30.8037270276523  3.00114702119863 30.6252970600329  3.37338328650415 30.2683686112252  L 17.3670044373632 16.829522498201  C 17.393892378244 16.8027305856804  17.4040698898943 16.7657975097658  17.4309578307752 16.7377722335013  C 17.4514504123264 16.7186547568874  17.4731808182567 16.7046078420539  17.4936046406709 16.6842569618626  Z " fill-rule="nonzero" fill="#d9d9d9" stroke="none" transform="matrix(1 0 0 1 89 353 )" />
  </g>
</svg>