<?xml version="1.0" encoding="utf-8"?>
<svg version="1.1" xmlns:xlink="http://www.w3.org/1999/xlink" width="15px" height="15px" xmlns="http://www.w3.org/2000/svg">
  <g transform="matrix(1 0 0 1 -707 -695 )">
    <path d="M 14.3694355904715 6.31887284284319  C 14.5017218261719 6.18388687395368  14.5476170549665 5.98680737130301  14.488223223005 5.80862590680804  C 14.4288294067383 5.63044444231306  14.2749453996931 5.50085790841239  14.0886647827148 5.47116100027902  L 9.84470615059989 4.81512922537667  L 7.94950324532645 0.75745122593471  C 7.86581195591518 0.581969478934152  7.69033019321987 0.468581265694754  7.49595040806362 0.468581265694754  C 7.30157062290737 0.468581265694754  7.12608887590681 0.579269761439732  7.04239757080078 0.75745122593471  L 5.13099636056083 4.80703007289342  L 0.878938591657366 5.44686352713449  C 0.692657958984375 5.47386071777344  0.538773967633929 5.60344723597935  0.476680433872768 5.78162871616908  C 0.414586900111607 5.95981019635882  0.460482113211495 6.15688968331473  0.592768364606585 6.29187565220424  L 3.67584770507812 9.46404573277065  L 2.93882435825893 13.9347807756696  C 2.90642773263114 14.1237611258371  2.98741930454799 14.3154411934989  3.14400301339286 14.4261296735491  C 3.30058672223772 14.5368181692941  3.50846511056083 14.5476170392718  3.67584770507812 14.4558265816825  L 7.47165295061384 12.368943624442  L 11.2593590279715 14.4693251848493  C 11.3349511648996 14.5098209786551  11.4186424700056 14.5314187343052  11.5023337594169 14.5314187343052  C 11.5050334769113 14.5314187343052  11.5104329119001 14.5314187343052  11.5131326293945 14.5314187343052  C 11.7912037039621 14.5314187343052  12.0152804129464 14.3073420410156  12.0152804129464 14.0292709507533  C 12.0152804129464 13.9671774012974  12.0044815429688 13.9077835850307  11.9828837873186 13.8510894862584  L 11.2782570661272 9.4775443359375  L 14.3694355904715 6.31887284284319  Z " fill-rule="nonzero" fill="#1e87f0" stroke="none" transform="matrix(1 0 0 1 707 695 )" />
  </g>
</svg>