<?xml version="1.0" encoding="utf-8"?>
<svg version="1.1" xmlns:xlink="http://www.w3.org/1999/xlink" width="10px" height="12px" xmlns="http://www.w3.org/2000/svg">
  <g transform="matrix(1 0 0 1 -1895 -1201 )">
    <path d="M 9.91228070723684 4.96703296153846  C 9.91228070723684 7.28791208241758  8.298245625 9.6087912032967  5 12  C 1.70175439144737 9.6087912032967  0.0877192927631576 7.28791208241758  0.0877192927631576 4.96703296153846  C 0.0877192927631576 2.22417581868132  2.26315789473684 0.0439560329670324  5 0.0439560494505488  C 7.73684210526316 0.0439560659340653  9.91228070723684 2.22417583516483  9.91228070723684 4.96703296153846  Z M 1.49122807565789 4.96703296153846  C 1.49122807565789 6.58461537362637  2.68421052631579 8.27252746153846  5 10.0307692252747  C 7.31578947368421 8.27252746153846  8.50877192434211 6.58461537362637  8.50877192434211 4.96703296153846  C 8.50877192434211 2.99780218681319  6.96491226973684 1.45054945054945  5 1.45054945054945  C 3.03508773026316 1.45054945054945  1.49122807565789 2.9978022032967  1.49122807565789 4.96703296153846  Z M 7.10526315789474 4.96703296153846  C 7.10526315789474 6.16263735164835  6.19298245065789 7.07692307142857  5 7.07692307142857  C 3.80701754934211 7.07692307142857  2.89473684210526 6.16263735164835  2.89473684210526 4.96703296153846  C 2.89473684210526 3.77142857142857  3.80701754934211 2.85714285164835  5 2.85714285164835  C 6.19298245065789 2.85714285164835  7.10526315789474 3.77142857142857  7.10526315789474 4.96703296153846  Z M 4.29824560855263 4.96703296153846  C 4.29824560855263 5.38901096703297  4.57894736842105 5.67032967032967  5 5.67032967032967  C 5.42105263157895 5.67032967032967  5.70175439144737 5.38901098351648  5.70175439144737 4.96703296153846  C 5.70175439144737 4.54505493956044  5.42105263157895 4.26373625274725  5 4.26373626923077  C 4.57894736842105 4.26373628571429  4.29824560855263 4.54505495604396  4.29824560855263 4.96703296153846  Z " fill-rule="nonzero" fill="#444444" stroke="none" transform="matrix(1 0 0 1 1895 1201 )" />
  </g>
</svg>