<?xml version="1.0" encoding="utf-8"?>
<svg version="1.1" xmlns:xlink="http://www.w3.org/1999/xlink" width="25px" height="22px" xmlns="http://www.w3.org/2000/svg">
  <g transform="matrix(1 0 0 1 -41 -648 )">
    <path d="M 25 8.00879279279279  C 24.9375 7.76778378378379  24.8375 7.52677477477478  24.6625 7.34918918918919  C 24.4875 7.1716036036036  24.25 7.07012612612612  24 7.07012612612612  L 22.4375 7.07012612612612  L 22.4375 5.12936936936937  C 22.4375 3.59452252252252  21.2125 2.35142342342342  19.7125 2.35142342342342  L 12.775 2.35142342342342  L 11.9625 0.626306306306306  C 11.8125 0.296504504504505  11.475 0.0808648648648651  11.1125 0.0808648648648651  L 2.625 0.0808648648648651  C 1.275 0.0808648648648651  0.1875 1.18443243243243  0.1875 2.55437837837838  L 0.1875 19.425009009009  C 0.1875 20.794954954955  1.275 21.8985225225225  2.625 21.8985225225225  L 22.5 21.8985225225225  C 23.85 21.8985225225225  24.9375 20.794954954955  25 19.425009009009  L 25 8.00879279279279  Z M 19.7125 4.24144144144144  L 19.7125 4.25412612612613  C 20.1875 4.25412612612613  20.5625 4.64735135135135  20.5625 5.12936936936937  L 20.5625 7.05744144144144  L 15.3375 7.05744144144144  C 15.125 7.05744144144144  14.925 6.93059459459459  14.825 6.72763963963964  L 13.65 4.24144144144144  L 19.7125 4.24144144144144  Z M 23 8.97282882882883  L 23 19.4376936936937  C 23.0625 19.7548108108108  22.8125 20.0085045045045  22.5 20  L 2.625 20  C 2.3125 20.0085045045045  2.0625 19.7548108108108  2 19.4376936936937  L 2 2.56706306306306  C 2.0625 2.24994594594595  2.3125 1.99625225225225  2.625 1.99625225225225  L 10.525 1.99625225225225  L 13.1375 7.56482882882883  C 13.5375 8.4147027027027  14.4 8.97282882882883  15.3375 8.97282882882883  L 23 8.97282882882883  Z " fill-rule="nonzero" fill="#1e87f0" stroke="none" transform="matrix(1 0 0 1 41 648 )" />
  </g>
</svg>