<?xml version="1.0" encoding="utf-8"?>
<svg version="1.1" xmlns:xlink="http://www.w3.org/1999/xlink" width="13px" height="13px" xmlns="http://www.w3.org/2000/svg">
  <g transform="matrix(1 0 0 1 -44 -655 )">
    <path d="M 10.214363726981 12.5096649961635  C 10.1441710041155 12.5658191608538  10.0576000087193 12.591556481236  9.96868925816127 12.591556481236  C 9.89615680733817 12.591556481236  9.82362434291294 12.5728384263393  9.75811115757534 12.5377420717076  L 6.47543255719866 10.7174113860212  L 3.1857346913365 12.5260432822963  C 3.04066977608817 12.605595012207  2.86050851981027 12.5962359779576  2.72480262520926 12.5003059619141  C 2.58909674421038 12.4043759322684  2.51890403494699 12.2382532205636  2.54698112409319 12.0744702504185  L 3.18573467773437 8.20217296840123  L 0.51373256905692 5.45295889857701  C 0.40142425327846 5.33831082763672  0.361648388323103 5.16750859200614  0.413123029087612 5.0154243976702  C 0.46225791469029 4.86100046177455  0.593284298967634 4.74869213239397  0.752387745186942 4.72061505684989  L 2.86050850620815 4.35795277553013  C 3.09916368233817 4.31817691057478  3.32378032749721 4.4772803703962  3.36355619245257 4.7135957913644  C 3.40333205740792 4.94991121233259  3.2442285975865 5.17452785749163  3.0079131766183 5.21664347760882  L 1.71402774239676 5.43892036760603  L 3.96253389474051 7.75293970528739  C 4.05846392438616 7.85120949009487  4.10291929966518 7.99159488141741  4.07952173444475 8.12730077601842  L 3.55073672781808 11.3327674016462  L 6.26485445661272 9.84000264264788  C 6.39588082728795 9.76747019182478  6.55498428710937 9.76747019182478  6.6860106577846 9.84000264264788  L 9.39544887625558 11.3421264222935  L 8.87836265904018 8.13432002790178  C 8.85730484898158 7.9986141469029  8.89942046909877 7.85822874197823  8.99769025390625 7.75995895717076  L 11.2368373856027 5.47167693987165  L 8.16941638253348 4.99904609793527  C 8.02669122244699 4.97798828787667  7.90268411725725 4.88439802699498  7.84185045584542 4.75337164271763  L 6.49181085693359 1.86377216796875  L 5.13007248221261 4.74401262207031  C 5.02712318708147 4.96160998814174  4.76741020089286 5.05520026262556  4.54981283482143 4.95225096749442  C 4.33221546875 4.84930167236328  4.23862519426618 4.58958868617467  4.34157448939732 4.37199132010324  L 6.09873174490792 0.651778218819755  C 6.17126419573103 0.499694038085938  6.32334839006696 0.40142425327846  6.49181087053571 0.40142425327846  C 6.66027335100446 0.40142425327846  6.81469728690011 0.499694038085938  6.8848899961635 0.651778218819755  L 8.52739918073382 4.16843248500279  L 12.2054966619001 4.73699335658482  C 12.3669398768834 4.76273067696708  12.5003060027204 4.87503900634766  12.5517806434849 5.0294629422433  C 12.6032552842494 5.18388687813895  12.5634794328962 5.35468911376953  12.4488313483538 5.47167695347377  L 9.76980996058873 8.20919224748884  L 10.3945249968611 12.083829284668  C 10.4202623172433 12.2476122548131  10.350069621582 12.41373498012  10.214363726981 12.5096649961635  Z " fill-rule="nonzero" fill="#1e87f0" stroke="none" transform="matrix(1 0 0 1 44 655 )" />
  </g>
</svg>