<?xml version="1.0" encoding="utf-8"?>
<svg version="1.1" xmlns:xlink="http://www.w3.org/1999/xlink" width="25px" height="24px" xmlns="http://www.w3.org/2000/svg">
  <g transform="matrix(1 0 0 1 -41 -735 )">
    <path d="M 25 1.68685714285714  L 19.8444234913793 1.68685714285714  L 19.8444234913793 0.157714285714286  L 17.8313038793103 0.157714285714286  L 17.8313038793103 2  L 7.1692349137931 2  L 7.1692349137931 0.157714285714286  L 5.15614224137931 0.157714285714286  L 5.15614224137931 1.68685714285714  L 0 1.68685714285714  L 0 23.8422857142857  L 25 23.8422857142857  L 25 1.68685714285714  Z M 23 21.8408303571429  L 22.9007004310345 21.8408303571429  L 2 21.8408303571429  L 2 3.68844642857143  L 5.15627693965517 3.68844642857143  L 5.15627693965517 6.45589285714286  L 7.16936961206897 6.45589285714286  L 7.16936961206897 4  L 17.8315732758621 4  L 17.8315732758621 6.45589285714286  L 19.844692887931 6.45589285714286  L 19.844692887931 3.68844642857143  L 23 3.68844642857143  L 23 21.8408303571429  Z " fill-rule="nonzero" fill="#1e87f0" stroke="none" transform="matrix(1 0 0 1 41 735 )" />
  </g>
</svg>