<?xml version="1.0" encoding="utf-8"?>
<svg version="1.1" xmlns:xlink="http://www.w3.org/1999/xlink" width="11px" height="11px" xmlns="http://www.w3.org/2000/svg">
  <g transform="matrix(1 0 0 1 -48 -697 )">
    <path d="M 1.18820125542316 7.97597866796495  L 0.778072405304209 8.29972945407335  L 0.649907148475692 8.75298056604998  L 0.0987965087784454 10.9933360778968  L 2.27760598793403 10.3976346160338  L 2.31605557204951 10.3976346160338  L 2.8159000948815 10.2551842661474  L 3.13631325815357 9.94438350405713  L 10.5955315871872 2.39451494579682  C 11.1338256941347 1.85061360856865  11.1338256941347 0.982961470950992  10.5955315871872 0.439060148003897  C 10.0444209616238 -0.117791213242452  9.18571369140425 -0.117791213242452  8.64741958445678 0.439060148003897  L 1.18820125542316 7.97597866796495  Z M 8.59615346759152 1.7211132969815  L 9.23697979413566 1.07361169620253  C 9.41641116782943 0.892311245699448  9.68555821423624 0.892311245699448  9.86498957379616 1.07361169620253  C 10.0444209333561 1.25491214670561  10.0444209474899 1.52686280817916  9.86498957379616 1.7211132969815  L 9.23697979413566 2.35566484518014  L 8.59615346759152 1.7211132969815  Z M 1.41889871771449 9.62063270366764  L 1.59833009140827 8.97313111716975  L 1.63677967552375 8.79183066666667  L 7.96814368793102 2.39451494579682  L 8.59615346759153 3.04201653229471  L 2.31605557204951 9.3875321285297  L 2.08535809562433 9.43933225316456  L 1.99564240877744 9.43933225316456  L 1.41889871771449 9.62063270366764  Z " fill-rule="nonzero" fill="#1e87f0" stroke="none" transform="matrix(1 0 0 1 48 697 )" />
  </g>
</svg>