<?xml version="1.0" encoding="utf-8"?>
<svg version="1.1" xmlns:xlink="http://www.w3.org/1999/xlink" width="25px" height="25px" xmlns="http://www.w3.org/2000/svg">
  <g transform="matrix(1 0 0 1 -41 -1173 )">
    <path d="M 4.54545454545455 18.1818181818182  L 6.81818181818182 18.1818181818182  L 6.81818181818182 20.4545454545455  L 4.54545454545455 20.4545454545455  L 4.54545454545455 18.1818181818182  Z M 4.54545454545455 4.54545454545454  L 6.81818181818182 4.54545454545454  L 6.81818181818182 6.81818181818182  L 4.54545454545455 6.81818181818182  L 4.54545454545455 4.54545454545454  Z M 18.1818181818182 4.54545454545454  L 20.4545454545455 4.54545454545454  L 20.4545454545455 6.81818181818182  L 18.1818181818182 6.81818181818182  L 18.1818181818182 4.54545454545454  Z M 2.27272727272727 15.9090909090909  L 2.27272727272727 22.7095170454545  L 9.09090909090909 22.7095170454545  L 9.09090909090909 15.9090909090909  L 2.27272727272727 15.9090909090909  Z M 2.27272727272727 2.27272727272727  L 2.27272727272727 9.09090909090909  L 9.09090909090909 9.09090909090909  L 9.09090909090909 2.27272727272727  L 2.27272727272727 2.27272727272727  Z M 15.9090909090909 2.27272727272727  L 15.9090909090909 9.09090909090909  L 22.7272727272727 9.09090909090909  L 22.7272727272727 2.27272727272727  L 15.9090909090909 2.27272727272727  Z M 0 13.6363636363636  L 11.3636363636364 13.6363636363636  L 11.3636363636364 25  L 0 25  L 0 13.6363636363636  Z M 18.1818181818182 22.7272727272727  L 20.4545454545455 22.7272727272727  L 20.4545454545455 25  L 18.1818181818182 25  L 18.1818181818182 22.7272727272727  Z M 22.7272727272727 22.7272727272727  L 25 22.7272727272727  L 25 25  L 22.7272727272727 25  L 22.7272727272727 22.7272727272727  Z M 22.7272727272727 13.6363636363636  L 25 13.6363636363636  L 25 20.4545454545455  L 18.1818181818182 20.4545454545455  L 18.1818181818182 18.1818181818182  L 15.9090909090909 18.1818181818182  L 15.9090909090909 25  L 13.6363636363636 25  L 13.6363636363636 13.6363636363636  L 20.4545454545455 13.6363636363636  L 20.4545454545455 15.9090909090909  L 22.7272727272727 15.9090909090909  L 22.7272727272727 13.6363636363636  Z M 0 0  L 11.3636363636364 0  L 11.3636363636364 11.3636363636364  L 0 11.3636363636364  L 0 0  Z M 13.6363636363636 0  L 25 0  L 25 11.3636363636364  L 13.6363636363636 11.3636363636364  L 13.6363636363636 0  Z " fill-rule="nonzero" fill="#1e87f0" stroke="none" transform="matrix(1 0 0 1 41 1173 )" />
  </g>
</svg>