<?xml version="1.0" encoding="utf-8"?>
<svg version="1.1" xmlns:xlink="http://www.w3.org/1999/xlink" width="25px" height="25px" xmlns="http://www.w3.org/2000/svg">
  <g transform="matrix(1 0 0 1 -41 -690 )">
    <path d="M 22.4283854166667 19.4173177083333  C 22.55859375 19.287109375  22.6779513888889 19.0646701388889  22.7864583333333 18.75  L 18.75 18.75  L 18.75 22.7864583333333  C 19.0646701388889 22.6779513888889  19.287109375 22.55859375  19.4173177083333 22.4283854166667  L 22.4283854166667 19.4173177083333  Z M 17.1223958333333 17.1223958333333  C 17.4262152777778 16.8185763888889  17.7951388888889 16.6666666666667  18.2291666666667 16.6666666666667  L 23 16.6666666666667  L 23 2  L 2 2  L 2 23  L 16.6666666666667 23  L 16.6666666666667 18.2291666666667  C 16.6666666666667 17.7951388888889  16.8185763888889 17.4262152777778  17.1223958333333 17.1223958333333  Z M 24.5442708333333 0.455729166666666  C 24.8480902777778 0.759548611111108  25 1.12847222222222  25 1.5625  L 25 18.2291666666667  C 25 18.6631944444444  24.8914930555556 19.140625  24.6744791666667 19.6614583333333  C 24.4574652777778 20.1822916666667  24.1970486111111 20.5946180555556  23.8932291666667 20.8984375  L 20.8984375 23.8932291666667  C 20.5946180555556 24.1970486111111  20.1822916666667 24.4574652777778  19.6614583333333 24.6744791666667  C 19.140625 24.8914930555556  18.6631944444444 25  18.2291666666667 25  L 1.5625 25  C 1.12847222222222 25  0.759548611111111 24.8480902777778  0.455729166666667 24.5442708333333  C 0.151909722222222 24.2404513888889  0 23.8715277777778  0 23.4375  L 0 1.5625  C 0 1.12847222222222  0.151909722222222 0.759548611111108  0.455729166666667 0.455729166666666  C 0.759548611111111 0.151909722222221  1.12847222222222 0  1.5625 0  L 23.4375 0  C 23.8715277777778 0  24.2404513888889 0.151909722222221  24.5442708333333 0.455729166666666  Z " fill-rule="nonzero" fill="#1e87f0" stroke="none" transform="matrix(1 0 0 1 41 690 )" />
  </g>
</svg>