<?xml version="1.0" encoding="utf-8"?>
<svg version="1.1" xmlns:xlink="http://www.w3.org/1999/xlink" width="25px" height="22px" xmlns="http://www.w3.org/2000/svg">
  <g transform="matrix(1 0 0 1 -41 -958 )">
    <path d="M 23 18.4893617021277  L 23 8  L 2 8  L 2 18.4893617021277  C 2.00617282986111 19.3510825830027  2.697091421483 20.0496453803191  3.54938269675926 20.0496453803191  C 3.54938269675926 20.0496453803191  3.54938272569445 20.0496453803191  3.54938272569445 20  L 21.4506172743056 20  C 21.4506172743056 20.0496453803191  21.4506173032407 20.0496453803191  21.4506173032407 20.0496453803191  C 22.302908578517 20.0496453803191  22.9938271701389 19.3510825830027  22.9938271701389 18.4893617021277  C 22.9938271701389 18.4893617021277  22.9938271701389 18.4893617021277  23 18.4893617021277  Z M 2.00617282986111 3.51063829787234  L 2.00617282986111 6  L 22.9938271701389 6  L 22.9938271701389 3.51063829787234  C 22.9938271701389 2.64891741699729  22.302908578517 1.95035461968085  21.4506173032407 1.95035461968085  C 21.4506173032407 1.95035461968085  21.4506172743056 1.95035461968085  21.4506172743056 2  L 3.54938272569444 2  C 3.54938272569444 1.95035461968085  3.54938269675926 1.95035461968085  3.54938269675926 1.95035461968085  C 2.697091421483 1.95035461968085  2.00617282986111 2.64891741699728  2.00617282986111 3.51063829787234  Z M 16.5123456886574 15.6808510638298  L 19.5987654224537 15.6808510638298  C 20.1101401908155 15.6808510638298  20.5246913483796 16.0999887448393  20.5246913483796 16.6170212765957  C 20.5246913483796 17.1340538083522  20.1101401908155 17.5531914893617  19.5987654224537 17.5531914893617  L 16.5123456886574 17.5531914893617  C 16.0009709202956 17.5531914893617  15.5864197627315 17.1340538083522  15.5864197627315 16.6170212765957  C 15.5864197627315 16.0999887448393  16.0009709202956 15.6808510638298  16.5123456886574 15.6808510638298  Z M 0.154320978009259 3.51063829787234  C 0.154320978009259 1.61489361702128  1.67438269675926 0.0780141941489367  3.54938272569444 0  L 21.4506172743056 0  C 23.3256172743056 0.0780141941489359  24.8456789930556 1.61489361702128  24.8456790219907 3.51063829787234  L 24.8456790219907 18.4893617021277  C 24.8456790219907 20.3851063829787  23.3256173032407 21.9219858058511  21.4506172743056 22  L 3.54938272569444 22  C 1.67438272569444 21.9219858058511  0.154321006944444 20.3851063829787  0.154320978009259 18.4893617021277  L 0.154320978009259 3.51063829787234  Z " fill-rule="nonzero" fill="#1e87f0" stroke="none" transform="matrix(1 0 0 1 41 958 )" />
  </g>
</svg>