<?xml version="1.0" encoding="utf-8"?>
<svg version="1.1" xmlns:xlink="http://www.w3.org/1999/xlink" width="25px" height="25px" xmlns="http://www.w3.org/2000/svg">
  <g transform="matrix(1 0 0 1 -41 -913 )">
    <path d="M 9.09578947368421 13.7936842105263  L 9.09473684210526 13.7936842105263  C 10.1964179115283 13.7939276990608  11.1116089957571 14.6434857215821  11.1936842105263 15.7421052631579  L 11.2 15.9  L 11.2 22.838947368421  C 11.2003074637969 23.9410333774551  10.3506023203644 24.8568420004415  9.25157894736842 24.9389473684211  L 9.09368421052632 24.9442105263158  L 2.15578947368421 24.9442105263158  C 1.05407919614026 24.9445591762943  0.138417693470236 24.0954495121642  0.0557894736842105 22.9968421052632  L 0.0505263157894737 22.838947368421  L 0.0505263157894737 15.898947368421  C 0.0507284439043678 14.797641987058  0.899691125015074 13.8825978864446  1.99789473684211 13.8  L 2.15578947368421 13.7936842105263  L 9.09578947368421 13.7936842105263  Z M 22.1610526315789 13.7936842105263  L 22.16 13.7936842105263  C 23.261681069423 13.7939276990608  24.1768721536518 14.6434857215821  24.2589473684211 15.7421052631579  L 24.2652631578947 15.9  L 24.2652631578947 22.838947368421  C 24.2655706216916 23.9410333774551  23.4158654782592 24.8568420004415  22.3168421052632 24.9389473684211  L 22.1589473684211 24.9442105263158  L 15.2210526315789 24.9442105263158  C 14.119342354035 24.9445591762943  13.203680851365 24.0954495121642  13.1210526315789 22.9968421052632  L 13.1157894736842 22.838947368421  L 13.1157894736842 15.898947368421  C 13.1159916017991 14.797641987058  13.9649542829098 13.8825978864446  15.0631578947368 13.8  L 15.2210526315789 13.7936842105263  L 22.1610526315789 13.7936842105263  Z M 9.09473684210526 22.8389473684211  L 9.09473684210526 15.8989473684211  L 2.15473684210526 15.8989473684211  L 2.15473684210526 22.8389473684211  L 9.09473684210526 22.8389473684211  Z M 22.16 22.8389473684211  L 22.16 15.8989473684211  L 15.22 15.8989473684211  L 15.22 22.8389473684211  L 22.16 22.8389473684211  Z M 17.2010526315789 0.61894736842105  L 17.2021052631579 0.618947368421052  C 17.9742496724504 -0.152782766637675  19.2082025913867 -0.206254059791581  20.0442105263158 0.49578947368421  L 20.1789473684211 0.618947368421052  L 24.3747368421053 4.81578947368421  C 25.146466977164 5.58793388297676  25.1999382703179 6.82188680191306  24.4978947368421 7.6578947368421  L 24.3747368421053 7.79263157894737  L 20.1789473684211 11.9894736842105  C 19.4065272759953 12.7624770711109  18.1710845352736 12.8159732963753  17.3347368421053 12.1126315789474  L 17.2010526315789 11.9894736842105  L 13.0042105263158 7.79263157894737  C 12.2318439812789 7.02034920329256  12.1783602279584 5.78565161595305  12.8810526315789 4.94947368421052  L 13.0042105263158 4.81578947368421  L 17.2010526315789 0.61894736842105  Z M 9.09578947368421 0.728421052631579  L 9.09473684210526 0.728421052631578  C 10.1964179115283 0.72866454116602  11.1116089957571 1.57822256368733  11.1936842105263 2.67684210526316  L 11.2 2.83473684210526  L 11.2 9.77368421052632  C 11.2003074637969 10.8757702195604  10.3506023203644 11.7915788425467  9.25157894736842 11.8736842105263  L 9.09368421052631 11.8789473684211  L 2.15578947368421 11.8789473684211  C 1.05407919614026 11.8792960183995  0.138417693470237 11.0301863542694  0.0557894736842105 9.93157894736842  L 0.0505263157894737 9.77368421052632  L 0.0505263157894737 2.83368421052632  C 0.0507284439043668 1.73237882916324  0.899691125015074 0.81733472854986  1.99789473684211 0.734736842105264  L 2.15578947368421 0.728421052631579  L 9.09578947368421 0.728421052631579  Z M 18.6905263157895 2.10842105263158  L 18.6894736842105 2.10736842105263  L 14.4947368421053 6.30526315789474  L 18.6905263157895 10.5021052631579  L 22.8873684210526 6.30526315789474  L 18.6905263157895 2.10842105263158  Z M 9.09473684210526 9.77368421052631  L 9.09473684210526 2.83368421052631  L 2.15473684210526 2.83368421052631  L 2.15473684210526 9.77368421052631  L 9.09473684210526 9.77368421052631  Z " fill-rule="nonzero" fill="#1e87f0" stroke="none" transform="matrix(1 0 0 1 41 913 )" />
  </g>
</svg>