<?xml version="1.0" encoding="utf-8"?>
<svg version="1.1" xmlns:xlink="http://www.w3.org/1999/xlink" width="25px" height="14px" xmlns="http://www.w3.org/2000/svg">
  <g transform="matrix(1 0 0 1 -41 -869 )">
    <path d="M 22.0238095238095 12.2376470588235  C 21.6047619047619 12.2376470588235  21.2619047619048 12.5934117647059  21.2619047619048 13.0282352941176  C 21.2619047619048 13.4630588235294  21.6047619047619 13.8188235294118  22.0238095238095 13.8188235294118  L 24.1825396825397 13.8188235294118  C 24.6015873015873 13.8188235294118  24.9444444444444 13.4630588235294  24.9444444444444 13.0282352941176  C 24.9444444444444 12.5934117647059  24.6015873015873 12.2376470588235  24.1825396825397 12.2376470588235  L 22.0238095238095 12.2376470588235  Z M 18.7222222222222 6.63764705882353  C 18.8619047619048 6.79576470588235  19.0650793650794 6.87482352941177  19.2555555555556 6.87482352941177  C 19.4460317460317 6.87482352941177  19.6492063492063 6.79576470588235  19.8015873015873 6.63764705882353  L 21.3253968253968 5.05647058823529  C 21.6174603174603 4.74023529411765  21.6174603174603 4.23952941176471  21.3253968253968 3.93647058823529  C 21.0206349206349 3.63341176470588  20.5380952380952 3.63341176470588  20.2460317460317 3.93647058823529  L 18.7222222222222 5.51764705882353  C 18.4301587301587 5.83388235294118  18.4301587301587 6.33458823529412  18.7222222222222 6.63764705882353  Z M 11.7888888888889 3.15905882352941  C 11.7888888888889 3.59388235294118  12.131746031746 3.94964705882353  12.5507936507937 3.94964705882353  C 12.9698412698413 3.94964705882353  13.3126984126984 3.59388235294118  13.3126984126984 3.15905882352941  L 13.3126984126984 0.919058823529412  C 13.3126984126984 0.484235294117647  12.9698412698413 0.128470588235294  12.5507936507937 0.128470588235294  C 12.131746031746 0.128470588235294  11.7888888888889 0.484235294117647  11.7888888888889 0.919058823529412  L 11.7888888888889 3.15905882352941  Z M 3.83968253968254 4.95105882352941  L 5.36349206349206 6.53223529411765  C 5.5031746031746 6.69035294117647  5.70634920634921 6.76941176470588  5.8968253968254 6.76941176470588  C 6.08730158730159 6.76941176470588  6.29047619047619 6.69035294117647  6.44285714285714 6.53223529411765  C 6.73492063492064 6.216  6.73492063492064 5.71529411764706  6.44285714285714 5.41223529411765  L 4.91904761904762 3.83105882352941  C 4.61428571428571 3.528  4.13174603174603 3.528  3.83968253968254 3.83105882352941  C 3.54761904761905 4.14729411764706  3.54761904761905 4.648  3.83968253968254 4.95105882352941  Z M 0.106349206349206 12.8832941176471  C 0.106349206349206 13.3181176470588  0.449206349206349 13.6738823529412  0.868253968253968 13.6738823529412  L 3.02698412698413 13.6738823529412  C 3.44603174603175 13.6738823529412  3.78888888888889 13.3181176470588  3.78888888888889 12.8832941176471  C 3.78888888888889 12.4484705882353  3.44603174603175 12.0927058823529  3.02698412698413 12.0927058823529  L 0.868253968253968 12.0927058823529  C 0.449206349206349 12.0927058823529  0.106349206349206 12.4484705882353  0.106349206349206 12.8832941176471  Z " fill-rule="nonzero" fill="#1e87f0" stroke="none" transform="matrix(1 0 0 1 41 869 )" />
  </g>
</svg>