<?xml version="1.0" encoding="utf-8"?>
<svg version="1.1" xmlns:xlink="http://www.w3.org/1999/xlink" width="25px" height="31px" xmlns="http://www.w3.org/2000/svg">
  <g transform="matrix(1 0 0 1 -41 -818 )">
    <path d="M 24.9727027994792 23.6369627542373  C 25.0398958658854 23.3375779883475  24.9783022460938 23.0268957256356  24.7991208984375 22.7783499088983  C 24.7599249674479 22.7275109925847  20.9187244466146 17.3216395688559  20.9187244466146 13.3392578019068  C 20.9187244466146 7.80911348622881  18.438182421875 4.97343170233051  15.6216753255208 3.91711202224576  L 15.6216753580729 3.41437162394068  C 15.6216753580729 1.67455093961864  14.2162215169271 0.2623588125  12.4972002929688 0.2623588125  C 10.7781790690104 0.2623588125  9.37272522786458 1.68019970444915  9.37272522786458 3.41437162394068  L 9.37272522786458 3.96230217372881  C 9.0199619140625 4.22214552012712  8.84637998046875 4.67969576694915  8.98636539713542 5.12029971927966  C 9.15994733072917 5.6738790338983  9.74788619791667 5.97326376694915  10.2966291341146 5.79815192584746  C 10.873369140625 5.61174255508474  11.5005039388021 5.52136228495763  12.1500363932292 5.52136228495763  L 12.8443641927083 5.52136228495763  C 16.5959740234375 5.52136228495763  18.8357410807292 8.44742433898305  18.8357410807292 13.3449065995763  C 18.8357410807292 16.8923331790254  21.2098941731771 21.0724218463983  22.4249678059896 22.9817056069915  C 20.5547623046875 23.8403184194915  16.4671874023438 25.484110036017  12.5027997070313 25.484110036017  C 8.54961083984375 25.484110036017  4.450837109375 23.8290208898305  2.58063160807292 22.9704080773305  C 3.79570524088542 21.0667731144068  6.16425891927084 16.8979819766949  6.16425891927084 13.3449066324153  C 6.16425891927084 11.2944036853814  6.53941988932292 9.59412438771187  7.28974186197917 8.28925885805085  C 7.57531217447917 7.78651845974576  7.40732962239584 7.142558875  6.9089814453125 6.85447167161017  C 6.40503385416667 6.56073570338983  5.77229967447917 6.73584754449153  5.48672936197917 7.23858794279661  C 4.55722604166667 8.86543326483051  4.08127552083334 10.9215849766949  4.08127552083334 13.3449066324153  C 4.08127552083334 17.3272883993644  0.240075000000005 22.7105647309322  0.200879069010422 22.7670524120763  C 0.0272971354166716 23.0155982288136  -0.0398958984374952 23.3206317266949  0.0272971354166716 23.6200164597458  C 0.0944901367187547 23.9137524279661  0.284870345052088 24.1679470095339  0.548042968750005 24.3091661959746  C 0.732823763020838 24.4108440286017  4.04207958984375 26.1902060995763  8.14645273437501 27.0827115010593  C 8.84078053385417 29.2631361377119  10.55420234375 30.7374647108051  12.4972002604167 30.7374647108051  C 14.4401981770833 30.7374647108051  16.1536199869792 29.2631361377119  16.8479477864583 27.0827115010593  C 20.9523209309896 26.1902060995763  24.2615767578125 24.4221415582627  24.4463575520833 24.3261124904661  C 24.7095301757813 24.1792445063559  24.8999103841146 23.9306986896186  24.9727027994792 23.6369627542373  Z M 12.8443641927083 3.41437162394068  L 12.1500363932292 3.41437162394068  C 11.9148608398437 3.41437162394068  11.6852847330729 3.44826424576271  11.45570859375 3.46521054025424  L 11.45570859375 3.41437162394068  C 11.45570859375 2.83819725  11.9260596679688 2.36370067584746  12.4972002929688 2.36370067584746  C 13.0683408854167 2.36370067584746  13.5386919921875 2.83819721716102  13.5386919921875 3.41437162394068  L 13.5386919921875 3.4426154809322  C 13.3035164388021 3.42566918644068  13.0739403320313 3.41437162394068  12.8443641927083 3.41437162394068  Z M 14.3842040364583 27.4781252362288  C 13.9026541341146 28.1955188622881  13.2251245768229 28.6361227817797  12.4972002929688 28.6361227817797  C 11.7692760091146 28.6361227817797  11.0917464518229 28.1955188294492  10.6101965494792 27.4781252362288  C 11.2373313151042 27.5459104470339  11.8644661132813 27.5854518336864  12.4972002929688 27.5854518336864  C 13.1299344726562 27.5854518336864  13.7626686848958 27.5402616822034  14.3842040364583 27.4781252362288  Z " fill-rule="nonzero" fill="#1e87f0" stroke="none" transform="matrix(1 0 0 1 41 818 )" />
  </g>
</svg>