<?xml version="1.0" encoding="utf-8"?>
<svg version="1.1" xmlns:xlink="http://www.w3.org/1999/xlink" width="25px" height="19px" xmlns="http://www.w3.org/2000/svg">
  <g transform="matrix(1 0 0 1 -41 -874 )">
    <path d="M 24.8740157480315 18.1469387755102  C 24.8740157480315 17.7374693877551  24.5338582677165 17.4024489795918  24.1181102362205 17.4024489795918  L 20.5905511811024 17.4024489795918  L 20.5905511811024 8.09632653061225  C 20.5905511811024 3.65420408163265  16.911811023622 0.031020408163266  12.4015748031496 0.031020408163266  C 7.89133858267716 0.031020408163266  4.21259842519685 3.65420408163265  4.21259842519685 8.09632653061225  L 4.21259842519685 17.4024489795918  L 0.848818897637795 17.4024489795918  C 0.433070866141732 17.4024489795918  0.0929133858267717 17.7374693877551  0.0929133858267717 18.1469387755102  C 0.0929133858267717 18.5564081632653  0.433070866141732 18.8914285714286  0.848818897637795 18.8914285714286  L 24.1181102362205 18.8914285714286  C 24.5338582677165 18.8914285714286  24.8740157480315 18.5564081632653  24.8740157480315 18.1469387755102  Z M 5.7244094488189 17.4024489795918  L 5.7244094488189 8.09632653061225  C 5.7244094488189 4.47314285714286  8.72283464566929 1.52  12.4015748031496 1.52  C 16.0803149606299 1.52  19.0787401574803 4.47314285714286  19.0787401574803 8.09632653061225  L 19.0787401574803 17.4024489795918  L 10.511811023622 17.4024489795918  L 10.511811023622 8.59265306122449  C 10.511811023622 8.18318367346939  10.1716535433071 7.84816326530612  9.75590551181102 7.84816326530612  C 9.34015748031496 7.84816326530612  9 8.18318367346939  9 8.59265306122449  L 9 17.4024489795918  L 5.7244094488189 17.4024489795918  Z " fill-rule="nonzero" fill="#1e87f0" stroke="none" transform="matrix(1 0 0 1 41 874 )" />
  </g>
</svg>