<?xml version="1.0" encoding="utf-8"?>
<svg version="1.1" xmlns:xlink="http://www.w3.org/1999/xlink" width="25px" height="25px" xmlns="http://www.w3.org/2000/svg">
  <g transform="matrix(1 0 0 1 -41 -1267 )">
    <path d="M 16.7414772705078 15.5056818115234  L 13.6363636474609 13.2875  L 13.6363636474609 25  L 11.3636363525391 25  L 11.3636363525391 13.2875  L 8.25852272949219 15.5056818115234  L 6.9375 13.65625  L 12.5 9.68295454101562  L 18.0625 13.65625  L 16.7414772705078 15.5056818115234  Z M 21.0170454589844 8.21306818847656  C 23.3868038055266 8.95674073904742  24.9995190020276 11.1526560857459  25 13.6363636474609  C 25 16.7744318359375  22.45625 19.3181818359375  19.3181818115234 19.3181818115234  L 15.9090909179688 19.3181818115234  L 15.9090909179688 17.0454545410156  L 19.3181818115234 17.0454545410156  C 19.3187429094111 17.0454548180668  19.3193040073701 17.0454549565924  19.3198651053261 17.0454549565924  C 21.2026540301069 17.0454549565924  22.7289560232949 15.5191529634045  22.7289560232949 13.6363640386237  C 22.7289560232949 11.9111512452527  21.4401216991986 10.4578782284416  19.7272727294922 10.2517045410156  L 18.6420454589844 10.1221590820312  L 18.7295454589844 9.03181818847656  C 18.7431818115234 8.86363637695312  18.75 8.69375  18.75 8.52272727050781  C 18.75 5.07102272949219  15.9517045410156 2.27272727050781  12.5 2.27272727050781  C 9.53421933359406 2.27297317346079  6.97668167644909 4.3567872693976  6.37727272949218 7.26136364746093  L 6.23863635253906 7.9375  L 5.57386364746093 8.12670454101562  C 3.62022582127403 8.68355053626313  2.27283560470692 10.4685526818066  2.27272727050781 12.5  C 2.27272727050781 15.0103852240521  4.30779658747138 17.0454545410156  6.81818181152344 17.0454545410156  L 9.09090908203125 17.0454545410156  L 9.09090908203125 19.3181818115234  L 6.81818181152344 19.3181818115234  C 3.05284091796875 19.3181818115234  0 16.2653409179688  0 12.5  C 0 9.66363635253906  1.74715908203125 7.17045454101562  4.30965908203125 6.15795454101563  C 5.36436811874226 2.51079835629092  8.7034016171072 0.00032697301191067  12.5 0  C 17.1034090820313 0  20.8539772705078 3.64943181152344  21.0170454589844 8.21306818847656  Z " fill-rule="nonzero" fill="#1e87f0" stroke="none" transform="matrix(1 0 0 1 41 1267 )" />
  </g>
</svg>