<?xml version="1.0" encoding="utf-8"?>
<svg version="1.1" xmlns:xlink="http://www.w3.org/1999/xlink" width="15px" height="21px" xmlns="http://www.w3.org/2000/svg">
  <g transform="matrix(1 0 0 1 -45 -1312 )">
    <path d="M 0.486421130952381 13.5059267241379  L 6.70851934523809 20.3880657327586  C 6.9233630952381 20.6285021551724  7.22749255952381 20.7642780172414  7.54557291666667 20.7642780172414  C 7.86365327380952 20.7642780172414  8.16778273809524 20.6285021551724  8.38262648809524 20.3880657327586  L 14.604724702381 13.5059267241379  C 15.0288318452381 13.0363685344828  14.9981398809524 12.3094019396552  14.5377604166667 11.8766163793103  C 14.0745907738095 11.4466594827586  13.3575148809524 11.4777747844828  12.9306175595238 11.9445043103448  L 8.73697916666667 16.5891702586207  L 8.73697916666667 1.2578125  C 8.73697916666667 0.624191810344828  8.22916666666667 0.112203663793103  7.6069568452381 0.112203663793103  C 6.9819568452381 0.112203663793103  6.47693452380952 0.627020474137931  6.47693452380952 1.2578125  L 6.47693452380952 16.7249461206897  L 2.16052827380952 11.9445043103448  C 1.73642113095238 11.4749461206897  1.01655505952381 11.4438308189655  0.553385416666667 11.8766163793103  C 0.0902157738095238 12.3065732758621  0.0595238095238095 13.0363685344828  0.486421130952381 13.5059267241379  Z " fill-rule="nonzero" fill="#1e87f0" stroke="none" transform="matrix(1 0 0 1 45 1312 )" />
  </g>
</svg>