<?xml version="1.0" encoding="utf-8"?>
<svg version="1.1" xmlns:xlink="http://www.w3.org/1999/xlink" width="10px" height="10px" xmlns="http://www.w3.org/2000/svg">
  <g transform="matrix(1 0 0 1 -52 -1049 )">
    <path d="M 9.796875 5.1125  C 9.796875 7.796875  7.6125 9.98125  4.928125 9.98125  C 2.24375 9.98125  0.0593750000000011 7.796875  0.0593750000000011 5.1125  C 0.0593750000000011 2.428125  2.24375 0.243749999999999  4.928125 0.243749999999999  C 7.6125 0.243749999999999  9.796875 2.428125  9.796875 5.1125  Z M 8.146875 5.109375  C 8.146875 3.33125  6.703125 1.890625  4.928125 1.890625  C 3.153125 1.890625  1.70625 3.334375  1.70625 5.1125  C 1.70625 6.890625  3.153125 8.334375  4.928125 8.334375  C 6.703125 8.334375  8.146875 6.8875  8.146875 5.109375  Z " fill-rule="nonzero" fill="#1e87f0" stroke="none" transform="matrix(1 0 0 1 52 1049 )" />
  </g>
</svg>