<?xml version="1.0" encoding="utf-8"?>
<svg version="1.1" xmlns:xlink="http://www.w3.org/1999/xlink" width="25px" height="9px" xmlns="http://www.w3.org/2000/svg">
  <g transform="matrix(1 0 0 1 -41 -1328 )">
    <path d="M 24.8433814858491 1.32151442307692  C 24.8433814858491 0.715745192307692  24.3431235259434 0.223557692307692  23.7240197523585 0.223557692307692  C 23.1049159787736 0.223557692307692  22.6046580188679 0.715745192307692  22.6046580188679 1.31881009615385  L 22.6046580188679 6.80048076923077  L 2.43127211084906 6.80048076923077  L 2.43127211084906 1.32151442307692  C 2.43127211084906 0.715745192307692  1.92825029481132 0.226262019230769  1.31191037735849 0.226262019230769  C 0.692806603773585 0.226262019230769  0.192548643867925 0.718449519230769  0.192548643867925 1.32151442307692  L 0.192548643867925 7.90114182692308  C 0.192548643867925 8.50691105769231  0.69557045990566 8.99639423076923  1.31191037735849 9  L 23.7240197523585 9  C 24.3431235259434 8.99639423076923  24.8433814858491 8.50420673076923  24.8433814858491 7.90114182692308  L 24.8433814858491 1.32151442307692  Z " fill-rule="nonzero" fill="#1e87f0" stroke="none" transform="matrix(1 0 0 1 41 1328 )" />
  </g>
</svg>