<?xml version="1.0" encoding="utf-8"?>
<svg version="1.1" xmlns:xlink="http://www.w3.org/1999/xlink" width="20px" height="14px" xmlns="http://www.w3.org/2000/svg">
  <g transform="matrix(1 0 0 1 -41 -1050 )">
    <path d="M 4.359375 13.9872727272727  C 4.284375 13.9904545454545  4.2125 13.9936363636364  4.1375 13.9936363636364  C 3.125 13.9936363636364  2.159375 13.5959090909091  1.390625 12.8545454545455  C 0.51875 12.0145454545455  0.0187499999999998 10.8340909090909  0.0187499999999998 9.61863636363636  C 0.0187499999999998 7.35  1.728125 5.47590909090909  3.903125 5.26909090909091  C 4.209375 2.39590909090909  6.60625 0.149545454545452  9.509375 0.149545454545452  C 11.959375 0.149545454545452  14.103125 1.75954545454545  14.859375 4.07272727272727  L 14.903125 4.07272727272727  C 17.590625 4.07272727272727  19.775 6.29681818181818  19.775 9.03  C 19.775 10.7259090909091  18.940625 12.285  17.540625 13.2013636363636  C 16.7125 13.7454545454545  15.7875 14.0159090909091  14.88125 13.9872727272727  C 14.775 13.9840909090909  14.671875 13.9777272727273  14.56875 13.9681818181818  C 14.5375 13.9681818181818  14.50625 13.9713636363636  14.475 13.9713636363636  L 4.55625 13.9713636363636  C 4.490625 13.9777272727273  4.425 13.9840909090909  4.359375 13.9872727272727  Z M 4.60625 6.94590909090909  C 4.509375 6.93318181818182  4.4125 6.92681818181818  4.309375 6.92681818181818  C 2.853125 6.92681818181818  1.665625 8.13590909090909  1.665625 9.61863636363636  C 1.665625 10.3759090909091  1.978125 11.1109090909091  2.521875 11.6359090909091  C 3.0125 12.11  3.6375 12.3518181818182  4.2625 12.3104545454545  C 4.315625 12.3072727272727  4.371875 12.3040909090909  4.425 12.2977272727273  L 4.5125 12.2913636363636  L 14.665625 12.2913636363636  C 14.753125 12.3009090909091  14.840625 12.3072727272727  14.928125 12.3104545454545  C 15.653125 12.3359090909091  16.265625 12.04  16.64375 11.7886363636364  C 17.575 11.1840909090909  18.128125 10.1531818181818  18.128125 9.03  C 18.128125 7.22272727272727  16.68125 5.74954545454545  14.90625 5.74954545454545  C 14.728125 5.74954545454545  14.55 5.76545454545454  14.378125 5.79409090909091  L 13.584375 5.92772727272727  L 13.434375 5.12272727272727  C 13.075 3.21363636363636  11.428125 1.82636363636364  9.5125 1.82636363636364  C 7.309375 1.82636363636364  5.51875 3.64954545454545  5.51875 5.89272727272727  C 5.51875 5.95318181818182  5.51875 6.01363636363636  5.521875 6.07409090909091  L 5.565625 7.05727272727273  L 4.60625 6.94590909090909  Z " fill-rule="nonzero" fill="#1e87f0" stroke="none" transform="matrix(1 0 0 1 41 1050 )" />
  </g>
</svg>