<?xml version="1.0" encoding="utf-8"?>
<svg version="1.1" xmlns:xlink="http://www.w3.org/1999/xlink" width="25px" height="25px" xmlns="http://www.w3.org/2000/svg">
  <g transform="matrix(1 0 0 1 -41 -1000 )">
    <path d="M 21.0429032258065 0.0914285714285714  L 21.0429032258065 0  L 5.1358064516129 0  C 3.02548387096774 0.0901587301587302  1.30483870967742 1.77650793650794  1.30483870967742 3.85015873015873  L 1.30483870967742 5.71174603174603  C 1.30483870967742 6.19111111111111  1.70225806451613 6.57777777777778  2.18870967741936 6.57777777777778  C 2.67516129032258 6.57777777777778  3.07258064516129 6.19047619047619  3.07258064516129 5.71174603174603  L 3.07258064516129 3.85015873015873  C 3.07577737039369 2.73233104916831  3.99671987050535 1.82742592037929  5.13258064516129 2  L 21.0390322580645 2  C 22.1757321378632 1.82568002785446  23.0978974881663 2.73150302175928  23 3.85015873015873  L 23 21.24  C 23.0964795987407 22.3580751613316  22.1751448942143 23.2630822299317  21.0390322580645 23  L 5.1358064516129 23  C 3.99935843305272 23.264128355366  3.0775860445005 22.3584077898846  3.0758064516129 21.24  L 3.0758064516129 19.711746031746  C 3.0758064516129 19.2330158730159  2.67838709677419 18.8463492063492  2.19193548387097 18.8463492063492  C 1.70548387096774 18.8463492063492  1.30806451612903 19.2336507936508  1.30806451612903 19.711746031746  L 1.30806451612903 21.24  C 1.30806451612903 23.3130158730159  3.02548387096774 24.9993650793651  5.13967741935484 25  L 21.0467741935484 25  C 23.1564516129032 24.9993650793651  24.8777419354839 23.3130158730159  24.8777419354839 21.24  L 24.8777419354839 3.84952380952381  C 24.8738709677419 1.77714285714286  23.1532258064516 0.0914285714285714  21.0429032258065 0.0914285714285714  Z M 3.36870967741935 17.3466666666667  C 3.85903225806452 17.3498412698413  4.25258064516129 16.9625396825397  4.25258064516129 16.4806349206349  C 4.25258064516129 16.0019047619048  3.85516129032258 15.6146031746032  3.36870967741935 15.6146031746032  L 1.01193548387097 15.6146031746032  C 0.525483870967742 15.6146031746032  0.128064516129032 16.0019047619048  0.128064516129032 16.4806349206349  C 0.128064516129032 16.9593650793651  0.525483870967742 17.3466666666667  1.01193548387097 17.3466666666667  L 3.36870967741935 17.3466666666667  Z M 1.01129032258065 9.25333333333333  L 3.36806451612903 9.25333333333333  C 3.85451612903226 9.25333333333333  4.25193548387097 8.86603174603175  4.25193548387097 8.38730158730159  C 4.25193548387097 7.90857142857143  3.85451612903226 7.52126984126984  3.36806451612903 7.52126984126984  L 1.01193548387097 7.52126984126984  C 0.525483870967742 7.52126984126984  0.128064516129032 7.90857142857143  0.128064516129032 8.38730158730159  C 0.128064516129032 8.86603174603175  0.525483870967742 9.25333333333333  1.01193548387097 9.25333333333333  Z M 1.01129032258065 13.3015873015873  L 3.36806451612903 13.3015873015873  C 3.85451612903226 13.3015873015873  4.25193548387097 12.9142857142857  4.25193548387097 12.4355555555556  C 4.25193548387097 11.9568253968254  3.85451612903226 11.5695238095238  3.36806451612903 11.5695238095238  L 1.01193548387097 11.5695238095238  C 0.525483870967742 11.5695238095238  0.128064516129032 11.9568253968254  0.128064516129032 12.4355555555556  C 0.128064516129032 12.9142857142857  0.525483870967742 13.3015873015873  1.01193548387097 13.3015873015873  Z M 12.2925806451613 12.9428571428571  C 9.77129032258064 13.6431746031746  7.91838709677419 15.9174603174603  7.91838709677419 18.6101587301587  C 7.91838709677419 18.88332052071  8.14340011605278 19.1047619047619  8.42096774193548 19.1047619047619  C 8.69853536781818 19.1047619047619  8.92354838709677 18.88332052071  8.92354838709677 18.6101587301587  C 8.92354838709677 15.9028571428571  11.1661290322581 13.7028571428571  13.9235483870968 13.7028571428571  C 16.6816129032258 13.7028571428571  18.9248387096774 15.9066666666667  18.9248387096774 18.6101587301587  C 18.9248387096774 18.8822685497579  19.1489851833105 19.1028571428571  19.4254838709677 19.1028571428571  C 19.701982558625 19.1028571428571  19.9261290322581 18.8822685497579  19.9261290322581 18.6101587301587  C 19.9261290322581 15.9174603174603  18.0732258064516 13.6431746031746  15.5551612903226 12.9428571428571  C 16.7964516129032 12.3479365079365  17.6583870967742 11.1047619047619  17.6583870967742 9.6584126984127  C 17.6583870967742 7.63428571428571  15.9841935483871 5.98984126984127  13.9241935483871 5.98984126984127  C 11.8635483870968 5.98984126984127  10.1861290322581 7.63428571428571  10.1861290322581 9.6584126984127  C 10.1861290322581 11.1047619047619  11.048064516129 12.344126984127  12.2925806451613 12.9428571428571  Z M 13.9203225806452 12.344126984127  C 12.4145161290323 12.3409523809524  11.1874193548387 11.1403174603175  11.1874193548387 9.6615873015873  C 11.1874193548387 8.18349206349206  12.4145161290323 6.97904761904762  13.9203225806452 6.97904761904762  C 15.4261290322581 6.97904761904762  16.6532258064516 8.18349206349206  16.6532258064516 9.6615873015873  C 16.6532258064516 11.1403174603175  15.4261290322581 12.344126984127  13.9203225806452 12.344126984127  Z " fill-rule="nonzero" fill="#1e87f0" stroke="none" transform="matrix(1 0 0 1 41 1000 )" />
  </g>
</svg>