<?xml version="1.0" encoding="utf-8"?>
<svg version="1.1" xmlns:xlink="http://www.w3.org/1999/xlink" width="25px" height="25px" xmlns="http://www.w3.org/2000/svg">
  <g transform="matrix(1 0 0 1 -41 -1128 )">
    <path d="M 3.13757009345794 24.8730275229358  C 2.42465263125647 24.8721767783141  1.8471780285863 24.3046085042394  1.8471780285863 23.6047715792936  C 1.8471780285863 23.597237688824  1.84724641429562 23.5897039479004  1.84738317757009 23.5821712537271  L 1.84738317757009 16.988623853211  C 1.83911676033909 16.9300270681466  1.83496884754673 16.870941219237  1.83496884754673 16.8117852201945  C 1.83496884754673 16.0998107973385  2.42292636684529 15.5226414894032  3.14820872283878 15.5226414894032  C 3.87349107883228 15.5226414894032  4.46144859813084 16.0998107973385  4.46144859813084 16.8117852201945  C 4.46144859813084 16.8709412192371  4.45730068533847 16.9300270681466  4.44903426810748 16.988623853211  L 4.44903426810748 23.5821712537271  C 4.4490374178117 23.5833231370307  4.44903899266594 23.5844750239656  4.44903899266594 23.5856269114189  C 4.44903899266594 24.2966386360871  3.86187648175553 24.8730275229441  3.13757481830846 24.8730275229441  Z M 9.60978193165888 24.8730275229358  L 9.6080062307243 24.8730275229358  C 8.89578378973244 24.8712167025085  8.31938980656429 24.3039313803754  8.31938980656429 23.6047748960301  C 8.31938980656429 23.5972398997841  8.31945821234951 23.58970505315  8.31959501577103 23.5821712537271  L 8.31959501577103 13.1403669724771  C 8.40347200728899 12.4978780057953  8.96056972867051 12.0166143930522  9.62042056089369 12.0166143930522  C 10.2802713931169 12.0166143930522  10.8373691144984 12.4978780057953  11 13.1403669724771  L 11 23.5612844036697  C 10.9214024093494 23.5693976730729  10.9214805662557 23.5775122118518  10.9214805662557 23.5856269319841  C 10.9214805662557 24.2966386566523  10.3343180553453 24.8730275435093  9.6100163918982 24.8730275435093  Z M 16.0819937695678 24.8730275229358  L 16.0802492213785 24.8730275229358  C 15.368014577258 24.8712335296791  14.7916016459047 24.3039432373406  14.7916016459047 23.6047748171968  C 14.7916016459047 23.5972398472333  14.7916700512127 23.58970502688  14.7918068536799 23.5821712537271  L 14.7918068536799 18.9962385321101  C 14.8756838451979 18.3537495654283  15.4327815665794 17.8724859526852  16.0926323988026 17.8724859526852  C 16.7524832310258 17.8724859526852  17.3095809524073 18.3537495654283  17.3934579439252 18.9962385321101  L 17.3934579439252 23.5821712537271  C 17.3934610936295 23.583323137031  17.3934626684837 23.5844750239653  17.3934626684837 23.5856269114189  C 17.3934626684837 24.2966386360871  16.8063001575733 24.8730275229441  16.0819984941262 24.8730275229441  Z M 22.554236760222 24.871314984805  L 22.5524610592874 24.8730275229358  C 21.8395435970859 24.8721767783141  21.2620689944157 24.3046085042394  21.2620689944157 23.6047715792936  C 21.2620689944157 23.5972376888241  21.2621373801251 23.5897039479003  21.2622741433995 23.5821712537271  L 21.2622741433995 15.1271253821674  C 21.2545982729347 15.0706290856204  21.2507476636974 15.0136952622894  21.2507476636974 14.9566986993875  C 21.2507476636974 14.2447242765315  21.838705182996 13.6675549685962  22.5639875389895 13.6675549685962  C 23.289269894983 13.6675549685962  23.8772274142815 14.2447242765315  23.8772274142815 14.9566986993875  C 23.8772274142815 15.0136952622894  23.8733768050443 15.0706290856204  23.8657009345794 15.1271253821674  L 23.8657009345794 23.6882874618693  C 23.8101911861931 24.358247577817  23.2389695083727 24.8735273542471  22.554236760222 24.871314984805  Z M 2.31878504672897 11.8077370031537  C 2.06806243591146 11.9996929994791  1.75561945234207 12.0971962797354  1.4380062307243 12.0825993884748  C 1.0247576512059 12.0891139683509  0.633343539102028 11.9008865811458  0.385295950350468 11.5763608563647  C -0.030870032096651 10.9925923804159  0.113485265225481 10.1882196992917  0.707819314836448 9.77920489306193  L 10.0599376948014 2.69856269122706  C 10.5363153188819 2.34244392852123  11.1963015038401 2.34244392852124  11.6726791279206 2.69856269122706  L 15.9739252336449 6.14321100917431  L 22.9193146419393 0.456055045871559  C 23.1426019827099 0.295009823073963  23.4124401038625 0.208160749800022  23.6895166553264 0.208160749800022  C 24.4079341634949 0.208160749800022  24.9903266240764 0.77986711018737  24.9903266240764 1.48510264572892  C 24.9903266240764 1.83020748786261  24.8480321406143 2.16061835263547  24.595856698014 2.40107033629587  L 16.8759813084112 8.78584097849771  C 16.3971894339019 9.1797962267945  15.6994772328621 9.1797962267945  15.2206853583528 8.78584097849771  L 10.9212461060164 5.31856269122706  L 2.31878504672897 11.8077370031537  Z " fill-rule="nonzero" fill="#1e87f0" stroke="none" transform="matrix(1 0 0 1 41 1128 )" />
  </g>
</svg>