<?xml version="1.0" encoding="utf-8"?>
<svg version="1.1" xmlns:xlink="http://www.w3.org/1999/xlink" width="25px" height="29px" xmlns="http://www.w3.org/2000/svg">
  <g transform="matrix(1 0 0 1 -41 -1218 )">
    <path d="M 24.229905090332 24.1899222419085  C 24.229905090332 22.0499448092215  22.4870863342285 20.3118655636161  20.3348101806641 20.3118655636161  C 19.2481731872559 20.3118655636161  18.2612758178711 20.7607388957868  17.5525995178223 21.4758045246233  L 8.11933056640625 16.2667862719727  C 8.39755163574219 15.734401648298  8.56553414916992 15.1393835180664  8.56553414916992 14.4973903034319  C 8.56553414916992 14.1163699316406  8.49204177856445 13.7562273751395  8.39230215454102 13.4065237566267  L 17.6890852966309 7.66512084995815  C 18.3820132446289 8.28623624930246  19.2901687927246 8.6724760749163  20.2875650634766 8.6724760749163  C 22.439841217041 8.6724760749163  24.1931588745117 6.92917737548828  24.1931588745117 4.78919994280134  C 24.1931588745117 2.6492225101144  22.4398412475586 0.905923780343192  20.2875650939941 0.905923780343192  C 18.1352889404297 0.905923780343192  16.381971282959 2.64922247977121  16.381971282959 4.78919991245815  C 16.381971282959 5.23285376046317  16.4712120056152 5.65041033935547  16.6076978149414 6.04708910295759  L 7.39490594482422 11.7310779568917  C 6.69147909545898 11.042109597168  5.72557955932617 10.608894656808  4.65469091796875 10.608894656808  C 2.5024147644043 10.608894656808  0.749097106933594 12.352193356236  0.749097106933594 14.492170788923  C 0.749097106933594 16.6321482216099  2.5024147644043 18.3754469210379  4.65469091796875 18.3754469210379  C 5.43685955810547 18.3754469210379  6.16653369140625 18.1405713473075  6.77547036743164 17.7438926140485  L 16.5762010803223 23.1564697174944  C 16.4817109069824 23.4905149745396  16.4187174682617 23.8297796854074  16.4187174682617 24.1899222419085  C 16.4187174682617 26.3298996745954  18.1720351257324 28.0731983740234  20.3243112792969 28.0731983740234  C 22.4765874328613 28.0731983740234  24.229905090332 26.3298996745954  24.229905090332 24.1899222419085  Z M 18.3347681884766 4.78919991245815  C 18.3347681884766 3.71921118094308  19.2114270019531 2.84756184640067  20.2875650939941 2.84756184640067  C 21.3637031860352 2.84756184640067  22.2403619995117 3.71921118094308  22.2403619995117 4.78919991245815  C 22.2403619995117 5.85918864397321  21.3637031860352 6.73083797851563  20.2875650939941 6.73083797851563  C 19.2114270019531 6.73083797851563  18.3347681884766 5.85918864397321  18.3347681884766 4.78919991245815  Z M 4.65994036865234 16.4390283391462  C 3.58380227661133 16.4390283391462  2.70714346313477 15.5673790046038  2.70714346313477 14.4973902730887  C 2.70714346313477 13.4274015415737  3.58380227661133 12.5557522070313  4.65994036865234 12.5557522070313  C 5.73607846069336 12.5557522070313  6.61273727416992 13.4274015415737  6.61273727416992 14.4973902730887  C 6.61273727416992 15.5673790046038  5.73607846069336 16.4390283391462  4.65994036865234 16.4390283391462  Z M 22.2876070861816 24.195141695731  C 22.2876070861816 25.2703498810686  21.4109482727051 26.1367797617885  20.3348101806641 26.1367797617885  C 19.2586720886231 26.1367797617885  18.3820132751465 25.2651304272461  18.3820132751465 24.195141695731  C 18.3820132751465 23.125152964216  19.2586720886231 22.2535036296736  20.3348101806641 22.2535036296736  C 21.4109482727051 22.2535036296736  22.2876070861816 23.125152964216  22.2876070861816 24.195141695731  Z " fill-rule="nonzero" fill="#1e87f0" stroke="none" transform="matrix(1 0 0 1 41 1218 )" />
  </g>
</svg>