<?xml version="1.0" encoding="utf-8"?>
<svg version="1.1" xmlns:xlink="http://www.w3.org/1999/xlink" width="13px" height="13px" xmlns="http://www.w3.org/2000/svg">
  <g transform="matrix(1 0 0 1 -53 -1045 )">
    <path d="M 0.159375000000002 2.28455882352941  C -0.0562499999999968 1.90539215686274  0.0718750000000021 1.42745098039216  0.440625000000001 1.21078431372549  C 0.809374999999999 0.994117647058823  1.28125 1.12156862745098  1.49375 1.49754901960784  L 2.265625 2.85808823529412  C 2.478125 3.23406862745098  2.353125 3.71519607843137  1.984375 3.93186274509804  C 1.615625 4.14852941176471  1.14375 4.02107843137255  0.931250000000002 3.64509803921569  L 0.159375000000002 2.28455882352941  Z M 10.5375 6.88872549019608  C 10.128125 7.00024509803922  9.884375 7.43039215686274  9.99375 7.85098039215686  C 10.103125 8.27156862745098  10.525 8.52009803921569  10.9375 8.40539215686274  L 12.425 7.99754901960784  C 12.8375 7.8860294117647  13.08125 7.45588235294117  12.96875 7.03529411764706  C 12.859375 6.61470588235294  12.4375 6.36617647058823  12.025 6.48088235294118  L 10.5375 6.88872549019608  Z M 10.525 10.8301470588235  C 10.115625 10.7186274509804  9.69375 10.9671568627451  9.58125 11.3845588235294  C 9.471875 11.8051470588235  9.715625 12.2352941176471  10.125 12.3468137254902  L 11.6125 12.7546568627451  C 12.025 12.8661764705882  12.446875 12.6176470588235  12.55625 12.2002450980392  C 12.665625 11.7796568627451  12.421875 11.3495098039216  12.0125 11.2379901960784  L 10.525 10.8301470588235  Z M 4.78125 0.844362745098039  C 4.78125 0.411029411764706  5.125 0.0573529411764709  5.553125 0.0573529411764709  C 5.978125 0.0573529411764709  6.325 0.407843137254902  6.325 0.844362745098039  L 6.325 2.41519607843137  C 6.325 2.84852941176471  5.98125 3.20220588235294  5.553125 3.20220588235294  C 5.128125 3.20220588235294  4.78125 2.85171568627451  4.78125 2.41519607843137  L 4.78125 0.844362745098039  Z M 10.775 3.38382352941176  C 11.078125 3.07475490196078  11.078125 2.57769607843137  10.775 2.2718137254902  C 10.475 1.96593137254902  9.9875 1.96593137254902  9.684375 2.2718137254902  L 8.59375 3.38382352941176  C 8.29375 3.68970588235294  8.29375 4.18676470588235  8.59375 4.49583333333333  C 8.89375 4.80171568627451  9.38125 4.80171568627451  9.684375 4.49583333333333  L 10.775 3.38382352941176  Z " fill-rule="nonzero" fill="#1e87f0" stroke="none" transform="matrix(1 0 0 1 53 1045 )" />
  </g>
</svg>