<?xml version="1.0" encoding="utf-8"?>
<svg version="1.1" xmlns:xlink="http://www.w3.org/1999/xlink" width="10px" height="10px" xmlns="http://www.w3.org/2000/svg">
  <g transform="matrix(1 0 0 1 -49 -1091 )">
    <path d="M 6.60817307692308 9.93367346938775  C 6.52163461538462 9.96683673469387  6.43509615384616 9.98214285714285  6.34375 9.98214285714286  C 6 9.98214285714286  5.69230769230769 9.75255102040816  5.57692307692308 9.41071428571428  L 5.06490384615385 7.82142857142857  C 5.05288461538462 7.78316326530612  5.01682692307693 7.75510204081633  4.97836538461539 7.75510204081633  L 2.28846153846154 7.75510204081633  C 2.25 7.75510204081633  2.21394230769231 7.78061224489796  2.20192307692308 7.81887755102041  L 1.65865384615385 9.4234693877551  C 1.53605769230769 9.75  1.23798076923077 9.96173469387755  0.903846153846154 9.96173469387755  C 0.810096153846155 9.96173469387755  0.716346153846154 9.94387755102041  0.627403846153847 9.91071428571429  C 0.213942307692309 9.75255102040816  -0.00721153846153737 9.28061224489796  0.127403846153846 8.83418367346939  L 2.92307692307692 0.579081632653059  C 3.03846153846154 0.237244897959183  3.34615384615385 0.00765306122448864  3.68990384615385 0.00765306122448864  C 4.04086538461539 0.0102040816326525  4.34855769230769 0.244897959183673  4.45913461538462 0.591836734693876  L 7.12019230769231 8.84948979591836  C 7.25721153846154 9.29336734693877  7.02644230769231 9.78316326530612  6.60817307692308 9.93367346938775  Z M 3.75240384615385 3.74489795918367  C 3.74038461538462 3.70663265306122  3.70673076923077 3.68112244897959  3.66586538461538 3.68112244897959  C 3.62740384615385 3.68112244897959  3.59134615384615 3.70663265306122  3.57932692307692 3.74489795918367  L 2.85336538461538 5.89285714285714  C 2.84375 5.9234693877551  2.84855769230769 5.95663265306122  2.86538461538462 5.98214285714286  C 2.88221153846154 6.00765306122449  2.91105769230769 6.02295918367347  2.93990384615385 6.02295918367347  L 4.35817307692308 6.02295918367347  C 4.38701923076923 6.02295918367347  4.41586538461538 6.00765306122449  4.43269230769231 5.98214285714286  C 4.44951923076923 5.95663265306122  4.45432692307692 5.9234693877551  4.44471153846154 5.89285714285714  L 3.75240384615385 3.74489795918367  Z M 9.88942307692308 9.08673469387755  C 9.88701923076923 9.54591836734694  9.52163461538462 9.91836734693878  9.07451923076923 9.91836734693877  C 8.625 9.91836734693877  8.25961538461539 9.54336734693877  8.25961538461539 9.08418367346939  L 8.25961538461539 0.849489795918368  C 8.25961538461539 0.39030612244898  8.625 0.0153061224489802  9.07451923076923 0.0153061224489802  C 9.52403846153846 0.0153061224489802  9.88942307692308 0.39030612244898  9.88942307692308 0.849489795918368  L 9.88942307692308 9.08673469387755  Z " fill-rule="nonzero" fill="#1e87f0" stroke="none" transform="matrix(1 0 0 1 49 1091 )" />
  </g>
</svg>