<?xml version="1.0" encoding="utf-8"?>
<svg version="1.1" xmlns:xlink="http://www.w3.org/1999/xlink" width="25px" height="24px" xmlns="http://www.w3.org/2000/svg">
  <g transform="matrix(1 0 0 1 -41 -1084 )">
    <path d="M 4.7025 23.94  L 4.7025 23.9425  C 4.475 23.9425  4.2625 23.855  4.1025 23.695  C 3.945 23.5375  3.855 23.32  3.855 23.095  L 3.855 17.195  C 3.855 17.1475  3.82 17.1075  3.7725 17.1  C 2.795 16.9725  1.0625 16.6075  0.43 15.5825  C 0.12 15.08  0.0924999999999997 14.4775  0.3525 13.89  C 1.0325 12.36  2.165 11.255  2.7775 10.735  C 2.795 10.72  2.8075 10.6975  2.81 10.675  C 3.0325 8.8925  4.5925 0.00500000000000114  13.5275 0.00500000000000114  C 18.3925 0.00500000000000114  22.325 2.2075  24.0475 5.8925  C 25.8825 9.825  24.805 14.7025  21.09 19.2775  C 21.075 19.295  21.07 19.315  21.07 19.3375  L 21.07 22.95  C 21.07 23.4175  20.69 23.7975  20.2225 23.7975  C 19.755 23.7975  19.375 23.4175  19.375 22.95  L 19.375 18.995  C 19.375 18.795  19.445 18.6025  19.5725 18.45  C 23.0275 14.3225  24.1 10.0025  22.515 6.605  C 21.0775 3.53  17.72 1.695  13.53 1.695  C 5.125 1.695  4.485 10.81  4.46 11.1975  C 4.4425 11.45  4.3175 11.6825  4.1125 11.8325  C 3.955 11.9525  2.595 13.015  1.9025 14.575  C 1.8925 14.6  1.8925 14.6275  1.9025 14.65  C 2.08 15.07  3.5425 15.4275  4.7425 15.4875  C 5.195 15.51  5.5475 15.88  5.55 16.3325  L 5.55 22.15  C 5.55 22.2025  5.5925 22.245  5.645 22.245  L 10.3775 22.245  C 10.845 22.245  11.225 22.625  11.225 23.0925  C 11.225 23.56  10.845 23.94  10.3775 23.94  L 4.7025 23.94  Z " fill-rule="nonzero" fill="#1e87f0" stroke="none" transform="matrix(1 0 0 1 41 1084 )" />
  </g>
</svg>