<?xml version="1.0" encoding="utf-8"?>
<svg version="1.1" xmlns:xlink="http://www.w3.org/1999/xlink" width="38px" height="30px" xmlns="http://www.w3.org/2000/svg">
  <g transform="matrix(1 0 0 1 -123 -1874 )">
    <path d="M 22.1820388349515 3.38414634146341  L 22.1820388349515 0.123932926829269  L 37 0.123932926829269  L 37 30  L 22.1820388349515 30  L 22.1820388349515 26  L 34.3983009708738 26  L 34.3983009708738 24  L 22.1820388349515 24  L 22.1820388349515 22  L 34.3983009708738 22  L 34.3983009708738 20  L 22.1820388349515 20  L 22.1820388349515 17.8298780487805  L 34.3983009708738 17.8298780487805  L 34.3983009708738 16  L 22.1820388349515 16  L 22.1820388349515 14  L 34.3983009708738 14  L 34.3983009708738 12  L 22.1820388349515 12  L 22.1820388349515 10  L 34.3983009708738 10  L 34.3983009708738 8  L 22.1820388349515 8  L 22.1820388349515 5.24954268292684  L 34.3983009708738 5.24954268292684  L 34.3983009708738 3.38414634146341  L 22.1820388349515 3.38414634146341  Z M 0.164635922330097 16.8306402439024  L 0.164635922330097 11.1352134146341  L 2.12643203883495 11.1352134146341  C 2.5688430420712 11.1352134146341  2.90610841423948 11.171493902439  3.1382281553398 11.2440548780488  C 3.44919381741576 11.341751928547  3.72667824911165 11.5231925388083  3.93973300970874 11.7681402439024  C 4.1719883779387 12.0372381925288  4.34479638740252 12.3516170815394  4.4470145631068 12.691006097561  C 4.56322815533981 13.0550304878049  4.62133495145631 13.5036585365854  4.62133495145631 14.0368902439024  C 4.62133495145631 14.5054878048781  4.56691747572815 14.9096036585366  4.45808252427184 15.249237804878  C 4.32495954692557 15.663262195122  4.13511326860841 15.9986280487805  3.88854368932039 16.2553353658537  C 3.70254045307443 16.4495426829268  3.45120550161812 16.6010670731707  3.13453883495146 16.7099085365854  C 2.8975 16.7903963414634  2.58083333333333 16.8306402439025  2.18453883495146 16.8306402439024  L 0.164635922330097 16.8306402439024  Z M 1.72014563106796 12.0983231707317  L 1.23822815533981 12.0983231707317  L 1.23822815533981 15.8689024390244  L 2.03973300970874 15.8689024390244  C 2.33949029126214 15.8689024390244  2.55577669902913 15.8509146341463  2.68859223300971 15.8149390243902  C 2.85117859353686 15.7744708382298  3.00038848142991 15.692845911964  3.12162621359223 15.5780487804878  C 3.23661003236246 15.4664634146342  3.33022653721683 15.2835365853659  3.40247572815534 15.0292682926829  C 3.47472491909385 14.775  3.51100323624596 14.4272865853659  3.51131067961165 13.9861280487805  C 3.51131067961165 13.5461890243902  3.47503236245955 13.2082317073171  3.40247572815534 12.972256097561  C 3.32991909385113 12.7362804878049  3.22846278317152 12.5524390243902  3.09810679611651 12.4207317073171  C 2.96205979335282 12.2854588645936  2.78937423177621 12.1922115361379  2.60097087378641 12.1522865853659  C 2.45124595469256 12.1163109756098  2.15763754045308 12.0983231707317  1.72014563106796 12.0983231707317  Z M 6.01174757281553 16.1506097560976  C 5.54535598705502 15.6341463414634  5.31277508090615 14.9230182926829  5.31400485436893 14.0172256097561  C 5.31400485436893 13.4379573170732  5.39501618122977 12.9510670731707  5.55703883495146 12.5565548780488  C 5.67569039938084 12.2701638227233  5.84306731112693 12.0061112641215  6.05186893203884 11.7759146341463  C 6.24239321437801 11.5594207570304  6.47644208200895 11.3848035976843  6.73900485436893 11.263262195122  C 7.070428802589 11.1129573170732  7.45242718446602 11.0378048780488  7.885 11.0378048780488  C 8.66836569579288 11.0378048780488  9.29508899676376 11.2980182926829  9.76516990291262 11.8184451219512  C 10.2352508090615 12.3388719512195  10.4696763754045 13.0628048780488  10.4684466019417 13.990243902439  C 10.4684466019417 14.9094512195122  10.2352508090615 15.6286585365854  9.76885922330097 16.1478658536585  C 9.30246763754045 16.6670731707317  8.67866504854369 16.9262195121951  7.89745145631068 16.9253048780488  C 7.1067071197411 16.9253048780488  6.47813915857605 16.6670731707317  6.01174757281553 16.1506097560976  Z M 6.42080097087379 13.9783536585366  C 6.42080097087379 14.6231707317073  6.55915048543689 15.1118902439024  6.83584951456311 15.444512195122  C 7.09452267474681 15.7605783897329  7.48312359817422 15.9441278742431  7.89360848775418 15.9441278742431  C 8.30221800162324 15.9441278742431  8.68924915534161 15.7622442800763  8.94798543689321 15.4486280487805  C 9.22376213592233 15.1190548780488  9.36165048543689 14.6237804878049  9.36165048543689 13.9628048780488  C 9.36165048543689 13.3103658536585  9.22806634304207 12.8234756097561  8.96089805825243 12.5021341463415  C 8.69372977346278 12.1807926829268  8.33894012944984 12.0201219512195  7.89652912621359 12.0201219512195  C 7.45411812297735 12.0201219512195  7.09763754045308 12.1827743902439  6.82708737864078 12.5080792682927  C 6.55653721682848 12.8333841463415  6.42080097087379 13.3234756097561  6.4198786407767 13.9783536585366  Z M 11.6831553398058 16.4318597560976  C 11.3228317152104 16.099237804878  11.1071601941748 15.6141768292683  11.036140776699 14.9766768292683  L 12.0825242718447 14.8678353658537  C 12.1440129449838 15.2431402439024  12.2714482200647 15.5189024390244  12.4648300970874 15.6951219512195  C 12.65821197411 15.8713414634146  12.9167718446602 15.959756097561  13.2405097087379 15.9603658536585  C 13.5863834951456 15.9603658536585  13.84678802589 15.882012195122  14.0217233009709 15.7253048780488  C 14.1966585760518 15.5685975609756  14.2842799352751 15.3856707317073  14.2845873786408 15.1765243902439  C 14.287972912747 15.0529176372036  14.248951275408 14.9318312799715  14.1739077669903 14.8330792682927  C 14.1001213592233 14.7385670731707  13.9714563106796 14.6564024390244  13.7879126213592 14.5865853658537  C 13.6621682847896 14.5396341463415  13.3756310679612 14.4567073170732  12.9283009708738 14.3378048780488  C 12.3527669902913 14.1853658536585  11.9490938511327 13.9975609756098  11.7172815533981 13.7743902439024  C 11.3982059837529 13.4782576904084  11.220300940835 13.0621243595368  11.2275242718447 12.6288109756098  C 11.2268665205191 12.3415276916542  11.3066948583289 12.0597100898432  11.4581067961165 11.8147865853659  C 11.6146454710164 11.5597927144791  11.8462587546645 11.3585228348822  12.1217233009709 11.2381097560976  C 12.4107200647249 11.1057926829268  12.7595145631068 11.0396341463415  13.1681067961165 11.0396341463415  C 13.8352588996764 11.0396341463415  14.3374676375405 11.1963414634146  14.6747330097087 11.509756097561  C 15.011998381877 11.8231707317073  15.1890857605178 12.2414634146341  15.2059951456311 12.7646341463415  L 14.1324029126214 12.8149390243902  C 14.0865938511327 12.522256097561  13.9880582524272 12.3118902439024  13.8367961165049 12.1838414634146  C 13.6855339805825 12.0557926829268  13.4589482200647 11.9916158536585  13.1570388349515 11.9913109756098  C 12.8449838187702 11.9913109756098  12.6008737864078 12.0599085365854  12.4247087378641 12.1971036585366  C 12.3133949989762 12.280532610252  12.2497889581617 12.4123088661141  12.2540776699029 12.5506097560976  C 12.2532093067378 12.6835574107787  12.3116093886479 12.8100951827713  12.413640776699 12.8963414634146  C 12.5489158576052 13.0182926829268  12.8777265372168 13.1452743902439  13.400072815534 13.2772865853659  C 13.9224190938511 13.4092987804878  14.308567961165 13.546493902439  14.5585194174757 13.6888719512195  C 14.803710279962 13.8254168362408  15.0068081207114 14.0255553241639  15.1460436893204 14.2678353658537  C 15.2874676375405 14.5117378048781  15.3581796116505 14.8141768292683  15.3581796116505 15.1751524390244  C 15.3587856594467 15.4972531921448  15.2709434196785 15.8134393315759  15.1040776699029 16.0897865853659  C 14.9388951442287 16.3704254811486  14.6883446464755 16.5919902343743  14.3883495145631 16.7227134146341  C 14.0787540453074 16.8614329268293  13.6932200647249 16.9307926829268  13.2317475728155 16.9307926829268  C 12.5596763754045 16.9307926829268  12.0434789644013 16.7644817073171  11.6831553398058 16.4318597560976  Z " fill-rule="nonzero" fill="#ffffff" stroke="none" transform="matrix(1 0 0 1 123 1874 )" />
  </g>
</svg>