<?xml version="1.0" encoding="utf-8"?>
<svg version="1.1" xmlns:xlink="http://www.w3.org/1999/xlink" width="43px" height="40px" xmlns="http://www.w3.org/2000/svg">
  <g transform="matrix(1 0 0 1 -120 -1868 )">
    <path d="M 42.6322368421053 32.9968181818182  C 42.5638706140351 23.8731818181818  42.6647697368421 14.7454545454545  42.583201754386 5.62181818181818  C 42.684100877193 4.56590909090909  41.824100877193 3.74636363636364  40.729298245614 3.85272727272727  C 35.5938157894737 3.77272727272727  30.4583333333333 3.85272727272727  25.3190789473684 3.825  L 25.3190789473684 0.12  L 22.4453399122807 0.12  C 15.0811184210526 1.38409090909091  7.71218201754386 2.59090909090909  1 3.83409090909091  L 1 36.2431818181818  C 7.67399122807018 37.4795454545455  15.0042653508772 38.6604545454545  22.3161513157895 39.9481818181818  L 25.3190789473684 39.9481818181818  L 25.3190789473684 36.2431818181818  C 30.1282894736842 36.2431818181818  34.9313706140351 36.2340909090909  39.7401096491228 36.2572727272727  C 40.5567324561404 36.22  41.4648245614035 36.2804545454545  42.1659320175439 35.7986363636364  C 42.7279495614035 34.9695454545455  42.5841447368421 33.9322727272727  42.6322368421053 32.9968181818182  Z " fill-rule="nonzero" fill="#2a5699" stroke="none" transform="matrix(1 0 0 1 120 1868 )" />
  </g>
</svg>