<?xml version="1.0" encoding="utf-8"?>
<svg version="1.1" xmlns:xlink="http://www.w3.org/1999/xlink" width="8px" height="10px" xmlns="http://www.w3.org/2000/svg">
  <g transform="matrix(1 0 0 1 -147 -1989 )">
    <path d="M 7.53260869565218 9.83839285714286  C 7.75913043478262 9.89642857142857  7.89695652173913 9.87410714285715  7.97043478260869 9.84776785714286  C 7.92882988601828 9.8016799533238  7.88312420434107 9.7596821398741  7.83391304347826 9.72232142857143  C 7.63130434782609 9.56517857142858  7.21869565217392 9.33571428571429  6.40521739130435 9.13705357142858  C 6.32434782608696 9.1171130952381  6.24072463768117 9.09791666666668  6.15434782608696 9.07946428571429  C 6.69434782608696 9.49330357142857  7.15434782608696 9.74910714285715  7.53260869565218 9.83839285714286  Z M 2.98695652173914 2.47678571428572  C 3.14913043478262 2.18035714285714  3.2004347826087 1.98214285714286  3.34173913043478 1.47321428571429  C 3.44739130434782 1.09285714285714  3.51956521739131 0.410267857142857  3.36652173913044 0.273214285714286  L 3.36391304347827 0.276339285714286  C 3.15956521739131 0.566517857142857  2.90130434782609 1.75803571428571  2.98695652173914 2.47678571428572  Z M 0.256086956521739 7.95267857142857  C 0.994782608695652 7.87767857142857  2.16608695652174 7.83482142857143  3.36826086956521 7.86607142857143  C 2.88008404019376 7.14245779641415  2.49271963330663 6.35238670544715  2.21739130434783 5.51875  C 1.61602099939405 6.37311217871228  0.960853522017176 7.18615827429956  0.256086956521739 7.95267857142857  Z " fill-rule="nonzero" fill="#ffffff" stroke="none" transform="matrix(1 0 0 1 147 1989 )" />
  </g>
</svg>