<?xml version="1.0" encoding="utf-8"?>
<svg version="1.1" xmlns:xlink="http://www.w3.org/1999/xlink" width="16px" height="29px" xmlns="http://www.w3.org/2000/svg">
  <g transform="matrix(1 0 0 1 -145 -1980 )">
    <path d="M 15.8604651162791 0.221170886075949  L 0.237209302325582 0.221170886075949  L 0.237209302325582 16.8278006329114  C 0.674883720930232 16.7043670886076  0.976744186046512 16.6419620253165  0.976744186046512 16.6419620253165  C 1.23906976744186 16.3721518987342  1.2093023255814 16.3973892405063  1.52418604651163 16.0637974683544  C 2.52391271684519 14.997437328107  3.45503386093978 13.8704151684991  4.31209302325582 12.689335443038  C 4.30372093023256 12.5810443037975  4.00279069767442 8.50819620253165  5.30930232558141 7.96628164556962  C 5.48090560210103 7.89653723574713  5.67064470661385 7.88286806490534  5.85069767441861 7.92727848101266  C 6.0893023255814 7.98325949367089  6.31581395348838 8.13560126582279  6.43209302325582 8.31501582278481  C 6.72697674418605 8.77708860759494  6.72139534883721 9.45161392405063  6.47860465116279 10.3959493670886  C 6.09348837209303 11.8904588607595  5.50651162790698 12.722832278481  5.50651162790698 12.722832278481  C 5.50651162790698 12.722832278481  5.69255813953489 14.5665348101266  7.46 16.6135126582278  C 8.27162790697675 16.6814240506329  8.96976744186047 16.782832278481  9.53627906976745 16.9159018987342  C 10.5102325581395 17.145332278481  11.0893023255814 17.4628639240506  11.306511627907 17.8882278481013  C 11.4293023255814 18.128670886076  11.4460465116279 18.4250949367089  11.2990697674419 18.774746835443  C 11.1520930232558 19.1243987341772  11.0027906976744 19.2978481012658  10.7316279069768 19.4006329113924  C 10.5046511627907 19.4868987341772  10.22 19.4924050632911  9.88837209302326 19.4125632911392  C 8.89674418604652 19.1794620253165  7.58186046511628 18.2484335443038  6.72558139534884 17.4986550632911  C 5.34046511627908 17.3912816455696  3.65953488372094 17.3793512658228  1.72651162790698 17.4619462025316  C 1.15193798449613 18.0710073839663  0.65472868217055 18.558164556962  0.234883720930236 18.923417721519  L 0.234883720930236 28.7132120253165  L 15.8604651162791 28.7132120253165  L 15.8604651162791 0.221170886075949  Z " fill-rule="nonzero" fill="#ffffff" stroke="none" transform="matrix(1 0 0 1 145 1980 )" />
  </g>
</svg>