<?xml version="1.0" encoding="utf-8"?>
<svg version="1.1" xmlns:xlink="http://www.w3.org/1999/xlink" width="14px" height="6px" xmlns="http://www.w3.org/2000/svg">
  <g transform="matrix(1 0 0 1 -123 -1991 )">
    <path d="M 1.33538461538461 5.98125  L 0.292115384615385 5.98125  L 0.292115384615385 0.14953125  L 1.96673076923077 0.14953125  C 2.60151709401709 0.14953125  3.01508547008547 0.17875  3.2074358974359 0.2371875  C 3.50358974358975 0.3246875  3.75143162393162 0.515000000000001  3.95096153846154 0.808125  C 4.15049145299145 1.10125  4.25040598290598 1.47984375  4.25070512820513 1.94390625  C 4.25070512820513 2.30171875  4.19311965811966 2.6025  4.07794871794872 2.84625  C 3.97743423594069 3.07176518902292  3.82701240969083 3.26907024223167  3.63910256410256 3.421875  C 3.47856594951895 3.55240954175635  3.29359886280847 3.64630708970007  3.09615384615385 3.6975  C 2.84666666666667 3.7534375  2.48589743589744 3.78140625  2.01384615384615 3.78140625  L 1.33538461538461 3.78140625  L 1.33538461538461 5.98125  Z M 1.83974358974359 1.13625  L 1.33538461538461 1.13578125  L 1.33538461538461 2.7909375  L 1.90660256410256 2.7909375  C 2.31792735042735 2.7909375  2.59284188034188 2.76046875  2.73134615384615 2.69953125  C 2.86604550686195 2.64198771297045  2.98011987362719 2.54183500299615  3.0575641025641 2.413125  C 3.13778560152327 2.27701932955572  3.17875822390641 2.11964556788386  3.17557692307692 1.95984375  C 3.18263233320568 1.76965741743403  3.12367094058896 1.58321193267304  3.00955128205128 1.43484375  C 2.90354168308188 1.29952823667225  2.75504737323342 1.20784923977667  2.59044871794872 1.17609375  C 2.46540598290598 1.14953125  2.21517094017094 1.13625  1.83974358974359 1.13625  Z M 5.10371794871795 5.98078125  L 5.10371794871795 0.14953125  L 7.01121794871795 0.14953125  C 7.44108974358975 0.14953125  7.76895299145299 0.186718750000001  7.99480769230769 0.26109375  C 8.2966664725257 0.361230381247843  8.56611595266233 0.54666548019881  8.77333333333333 0.796875000000003  C 8.99934326179835 1.07215219615613  9.16750133938685 1.39393878367135  9.26692307692308 1.74140625  C 9.37970085470085 2.11421875  9.43623931623931 2.57375  9.43653846153846 3.12  C 9.43653846153846 3.6  9.38358974358974 4.01359375  9.27769230769231 4.36078125  C 9.14846153846154 4.78515625  8.96388888888889 5.12890625  8.72397435897436 5.39203125  C 8.54448717948718 5.59109375  8.30023504273504 5.74625  7.99121794871795 5.8575  C 7.76057692307692 5.94  7.45260683760684 5.98109375  7.06730769230769 5.98078125  L 5.10371794871795 5.98078125  Z M 6.61589743589744 1.1371875  L 6.1474358974359 1.13390625  L 6.1474358974359 4.996875  L 6.92641025641026 4.996875  C 7.21777777777778 4.99687500000001  7.4282264957265 4.9784375  7.55775641025641 4.94156250000001  C 7.71579442909828 4.90000760878493  7.86081446328025 4.81634666422554  7.97865384615385 4.69875000000001  C 8.09023504273505 4.58468750000001  8.18117521367522 4.39718750000001  8.25147435897436 4.13625000000001  C 8.3217735042735 3.87531250000001  8.35722222222222 3.51937500000001  8.35782051282051 3.06843750000001  C 8.35782051282051 2.61750000000001  8.3223717948718 2.27125000000001  8.25147435897436 2.02968750000001  C 8.18057692307692 1.78812500000001  8.08200854700855 1.60062500000001  7.95576923076923 1.46718750000001  C 7.82338824975774 1.32897584774197  7.65554706515893 1.23373866542448  7.4725 1.19296875  C 7.3265170940171 1.15578125  7.04098290598291 1.1371875  6.61589743589744 1.1371875  Z M 11.3709615384615 5.98125  L 10.3276923076923 5.98125  L 10.3276923076923 0.14953125  L 13.8703205128205 0.14953125  L 13.8703205128205 1.13390625  L 11.3709615384615 1.13390625  L 11.3709615384615 2.514375  L 13.5283974358974 2.514375  L 13.5283974358974 3.49875  L 11.3709615384615 3.49875  L 11.3709615384615 5.98125  Z " fill-rule="nonzero" fill="#ffffff" stroke="none" transform="matrix(1 0 0 1 123 1991 )" />
  </g>
</svg>