<?xml version="1.0" encoding="utf-8"?>
<svg version="1.1" xmlns:xlink="http://www.w3.org/1999/xlink" width="41px" height="40px" xmlns="http://www.w3.org/2000/svg">
  <g transform="matrix(1 0 0 1 -121 -1975 )">
    <path d="M 0.334712389380531 3.83227272727272  C 7.45846238938053 2.59681818181818  14.5817588495575 1.33818181818182  21.7145796460177 0.121363636363636  L 24.3319579646018 0.121363636363636  L 24.3319579646018 4.28545454545455  C 29.2669247787611 4.31318181818182  34.2068805309735 4.23454545454545  39.1368584070797 4.30863636363636  C 40.1985951327434 4.20681818181818  41.0299336283186 5.03590909090909  40.9233517699115 6.09909090909091  C 41.001814159292 14.7422727272727  40.9047566371681 23.3895454545455  40.9687057522124 32.0372727272727  C 40.9233517699115 32.9718181818182  41.0594137168142 34.0081818181818  40.5255973451327 34.8363636363636  C 39.8516371681416 35.3263636363636  38.9744911504425 35.2618181818182  38.1853318584071 35.2990909090909  C 33.56875 35.2759090909091  28.9521681415929 35.285  24.3310508849558 35.285  L 24.3310508849558 39.9122727272727  L 21.4601438053097 39.9122727272727  C 14.4225663716814 38.6259090909091  7.3750110619469 37.4509090909091  0.334712389380531 36.2109090909091  C 0.330176991150443 25.4163636363636  0.330176991150443 14.6234848484848  0.334712389380531 3.83227272727272  Z " fill-rule="nonzero" fill="#dc2e1b" stroke="none" transform="matrix(1 0 0 1 121 1975 )" />
  </g>
</svg>