<?xml version="1.0" encoding="utf-8"?>
<svg version="1.1" xmlns:xlink="http://www.w3.org/1999/xlink" width="41px" height="40px" xmlns="http://www.w3.org/2000/svg">
  <g transform="matrix(1 0 0 1 -121 -2028 )">
    <path d="M 0.157868303571429 3.98636363636363  C 7.306328125 2.75727272727272  14.4543303571429 1.50545454545454  21.6119419642857 0.295454545454545  L 24.2385044642857 0.295454545454545  L 24.2385044642857 4.43727272727273  C 29.1905357142857 4.465  34.1476004464286 4.38636363636364  39.0950558035714 4.46  C 40.1603236607143 4.35909090909091  40.9945089285714 5.18272727272727  40.887890625 6.24090909090909  C 40.9665959821428 14.8372727272727  40.8691294642857 23.4381818181818  40.9336495535714 32.0390909090909  C 40.887890625 32.9686363636364  41.0251674107143 33.9995454545454  40.4888727678571 34.8231818181818  C 39.8125558035714 35.3109090909091  38.9330691964286 35.2463636363636  38.1405245535714 35.2831818181818  C 33.507890625 35.2604545454545  28.8752566964286 35.2690909090909  24.238046875 35.2690909090909  L 24.238046875 39.8713636363636  L 21.355234375 39.8713636363636  C 14.2969196428571 38.5909090909091  7.22258928571429 37.4227272727273  0.157868303571429 36.19  C 0.153292410714285 25.4539393939394  0.153292410714285 14.7193939393939  0.157868303571429 3.98636363636363  Z " fill-rule="nonzero" fill="#d24625" stroke="none" transform="matrix(1 0 0 1 121 2028 )" />
  </g>
</svg>