<?xml version="1.0" encoding="utf-8"?>
<svg version="1.1" xmlns:xlink="http://www.w3.org/1999/xlink" width="14px" height="6px" xmlns="http://www.w3.org/2000/svg">
  <g transform="matrix(1 0 0 1 -123 -2044 )">
    <path d="M 1.1725 5.68411764705882  L 0.107302631578947 5.68411764705882  L 0.107302631578947 0.225441176470589  L 1.81677631578947 0.225441176470589  C 2.46458333333333 0.225441176470591  2.88673245614035 0.252794117647062  3.08322368421053 0.307500000000001  C 3.38563596491228 0.388970588235297  3.63877192982456 0.567058823529413  3.84263157894737 0.841764705882355  C 4.04649122807018 1.1164705882353  4.14842105263158 1.47073529411765  4.14842105263158 1.90455882352941  C 4.14842105263158 2.23955882352941  4.08962719298246 2.52132352941177  3.97203947368421 2.74985294117648  C 3.86931458999476 2.9607500803899  3.71572872283318 3.14523298783921  3.52394736842105 3.28808823529412  C 3.36040382584403 3.40998274448702  3.17222120098077 3.49801742285793  2.97131578947368 3.54661764705883  C 2.71710526315789 3.59838235294118  2.34868421052632 3.62441176470589  1.86605263157895 3.62470588235294  L 1.1725 3.62470588235294  L 1.1725 5.68411764705882  Z M 1.68736842105263 1.14705882352941  L 1.1725 1.14705882352941  L 1.1725 2.69602941176471  L 1.75552631578947 2.69602941176471  C 2.17521929824561 2.69602941176471  2.45583333333333 2.6675  2.59736842105263 2.61044117647059  C 2.734915215353 2.55660147057897  2.85136843817787 2.4627859519017  2.93032894736842 2.34220588235294  C 3.0124596136261 2.21485457289222  3.05436447288408 2.06745505704441  3.05098684210526 1.91779411764706  C 3.05815379093858 1.73983337633105  2.99815237026362 1.56535622980946  2.88197368421053 1.42632352941177  C 2.77359976397323 1.29961035293469  2.62185312381297 1.21379472791372  2.45368421052632 1.18411764705882  C 2.32627192982456 1.15970588235294  2.07083333333333 1.14735294117648  1.68736842105263 1.14705882352941  Z M 6.08723684210526 5.68411764705882  L 5.0225 5.68411764705882  L 5.0225 0.225441176470589  L 6.73197368421053 0.225441176470589  C 7.37978070175439 0.225441176470591  7.8019298245614 0.252794117647062  7.99842105263158 0.307500000000001  C 8.30083333333333 0.388970588235297  8.55396929824562 0.567058823529413  8.75782894736842 0.841764705882355  C 8.96168859649123 1.1164705882353  9.06361842105263 1.47073529411765  9.06361842105263 1.90455882352941  C 9.06361842105263 2.23955882352941  9.00482456140351 2.52132352941177  8.88723684210527 2.74985294117648  C 8.78451195841582 2.9607500803899  8.63092609125423 3.14523298783921  8.43914473684211 3.28808823529412  C 8.27560119426508 3.40998274448702  8.08741856940182 3.49801742285793  7.88651315789474 3.54661764705883  C 7.63230263157895 3.59838235294118  7.26388157894737 3.62441176470589  6.78125 3.62470588235294  L 6.08723684210526 3.62470588235294  L 6.08723684210526 5.68411764705882  Z M 6.6021052631579 1.14705882352941  L 6.08723684210526 1.14705882352941  L 6.08723684210526 2.69602941176471  L 6.67026315789474 2.69602941176471  C 7.08995614035088 2.69602941176471  7.3705701754386 2.6675  7.51210526315789 2.61044117647059  C 7.64965205745827 2.55660147057897  7.76610528028313 2.4627859519017  7.84506578947368 2.34220588235294  C 7.92719645573137 2.21485457289222  7.96910131498934 2.06745505704441  7.96572368421053 1.91779411764706  C 7.97289063304385 1.73983337633105  7.91288921236888 1.56535622980946  7.79671052631579 1.42632352941177  C 7.68833660607849 1.29961035293469  7.53658996591823 1.21379472791372  7.36842105263158 1.18411764705882  C 7.24100877192983 1.15970588235294  6.9855701754386 1.14735294117648  6.6021052631579 1.14705882352941  Z M 12.1901315789474 5.68235294117647  L 11.1249342105263 5.68411764705882  L 11.1249342105263 1.14705882352941  L 9.55914473684211 1.14705882352941  L 9.55914473684211 0.225441176470589  L 13.7499342105263 0.225441176470589  L 13.7499342105263 1.14705882352941  L 12.1901315789474 1.14705882352941  L 12.1901315789474 5.68235294117647  Z " fill-rule="nonzero" fill="#ffffff" stroke="none" transform="matrix(1 0 0 1 123 2044 )" />
  </g>
</svg>