<?xml version="1.0" encoding="utf-8"?>
<svg version="1.1" xmlns:xlink="http://www.w3.org/1999/xlink" width="15px" height="28px" xmlns="http://www.w3.org/2000/svg">
  <g transform="matrix(1 0 0 1 -145 -2034 )">
    <path d="M 0.0763392857142823 4.52711538461538  L 0.0758928571428592 0  L 15 0  L 15 27.7105769230769  L 0.0758928571428592 27.7105769230769  L 0.0758928571428592 24  L 10.9241071428571 24  L 10.9241071428571 22  L 0.0758928571428592 22  L 0.0758928571428592 20  L 10.9241071428571 20  L 10.9241071428571 18  L 0.0803571428571408 18  C 0.0758928571428541 17.2805769230769  0.0758928571428541 16.3898717948718  0.0709821428571392 15.4996153846154  C 1.86116071428571 16.0582692307692  3.89955357142857 16.0448076923077  5.49955357142857 14.9611538461538  C 7.23080357142857 13.9291025641026  8.13348214285714 11.9628205128205  8.28392857142857 10.0005769230769  C 6.29955357142857 9.98711538461538  4.315625 9.99160256410256  2.33616071428571 9.99160256410256  C 2.33125 8.01724358974359  2.35848214285714 6.03929487179487  2.29553571428571 4.06852564102564  C 1.55386904761905 4.21391025641026  0.814136904761905 4.3667735042735  0.0763392857142823 4.52711538461538  Z " fill-rule="nonzero" fill="#ffffff" stroke="none" transform="matrix(1 0 0 1 145 2034 )" />
  </g>
</svg>