<?xml version="1.0" encoding="utf-8"?>
<svg version="1.1" xmlns:xlink="http://www.w3.org/1999/xlink" width="23px" height="11px" xmlns="http://www.w3.org/2000/svg">
  <g transform="matrix(1 0 0 1 -131 -2037 )">
    <path d="M 16.9166796875 6.34654166666667  C 16.91623046875 4.31429166666667  16.9112890625 2.28158333333333  16.92072265625 0.253916666666668  C 20.080078125 0.402416666666665  22.73765625 3.11666666666667  22.90611328125 6.33233333333333  C 20.9093359375 6.35570833333333  18.9130078125 6.34654166666667  16.9166796875 6.34654166666667  Z M 0.162167968750001 10.935375  C 0.0664843750000008 9.38116666666667  0.0750195312500007 7.8265  0.08984375 6.26770833333333  C 0.9855859375 6.226  2.09560546875 6.05870833333333  2.6998046875 6.91716666666667  C 3.21865234375 7.8265  3.19080078125 9.0255  2.7591015625 9.96095833333333  C 2.24025390625 10.9170416666667  1.06689453125 10.824  0.162167968750001 10.935375  Z " fill-rule="nonzero" fill="#d24625" stroke="none" transform="matrix(1 0 0 1 131 2037 )" />
  </g>
</svg>