<?xml version="1.0" encoding="utf-8"?>
<svg version="1.1" xmlns:xlink="http://www.w3.org/1999/xlink" width="12px" height="12px" xmlns="http://www.w3.org/2000/svg">
  <g transform="matrix(1 0 0 1 -870 -1202 )">
    <path d="M 876 1202  C 879.36 1202  882 1204.64  882 1208  C 882 1211.36  879.36 1214  876 1214  C 872.64 1214  870 1211.36  870 1208  C 870 1204.64  872.64 1202  876 1202  Z " fill-rule="nonzero" fill="#e21f0c" stroke="none" />
    <path d="M 876 1202.5  C 879.08 1202.5  881.5 1204.92  881.5 1208  C 881.5 1211.08  879.08 1213.5  876 1213.5  C 872.92 1213.5  870.5 1211.08  870.5 1208  C 870.5 1204.92  872.92 1202.5  876 1202.5  Z " stroke-width="1" stroke="#e21f0c" fill="none" />
  </g>
</svg>