<?xml version="1.0" encoding="utf-8"?>
<svg version="1.1" xmlns:xlink="http://www.w3.org/1999/xlink" width="6px" height="6px" xmlns="http://www.w3.org/2000/svg">
  <g transform="matrix(1 0 0 1 -559 -1326 )">
    <path d="M 562 1326  C 563.68 1326  565 1327.32  565 1329  C 565 1330.68  563.68 1332  562 1332  C 560.32 1332  559 1330.68  559 1329  C 559 1327.32  560.32 1326  562 1326  Z " fill-rule="nonzero" fill="#e62000" stroke="none" />
    <path d="M 562 1326.5  C 563.4 1326.5  564.5 1327.6  564.5 1329  C 564.5 1330.4  563.4 1331.5  562 1331.5  C 560.6 1331.5  559.5 1330.4  559.5 1329  C 559.5 1327.6  560.6 1326.5  562 1326.5  Z " stroke-width="1" stroke="#e62000" fill="none" />
  </g>
</svg>