<?xml version="1.0" encoding="utf-8"?>
<svg version="1.1" xmlns:xlink="http://www.w3.org/1999/xlink" width="15px" height="13px" xmlns="http://www.w3.org/2000/svg">
  <g transform="matrix(1 0 0 1 -541 -1873 )">
    <path d="M 5.06840034965035 6.63295454545455  L 7.27119755244755 9.25142045454545  C 7.33413461538461 9.32713068181818  7.45607517482518 9.32713068181818  7.51901223776224 9.25142045454545  L 9.72180944055944 6.63480113636364  C 9.80244755244755 6.5387784090909  9.72967657342658 6.39659090909091  9.5979020979021 6.39659090909091  L 8.14051573426573 6.39659090909091  L 8.14051573426573 0.147727272727273  C 8.14051573426573 0.0664772727272719  8.06971153846154 0  7.98317307692308 0  L 6.80310314685315 0  C 6.71656468531469 0  6.64576048951049 0.0664772727272719  6.64576048951049 0.147727272727273  L 6.64576048951049 6.39474431818182  L 5.19230769230769 6.39474431818182  C 5.06053321678322 6.39474431818182  4.98776223776224 6.53693181818181  5.06840034965035 6.63295454545455  Z M 14.7508741258741 8.75284090909091  C 14.7508741258741 8.67159090909091  14.6800699300699 8.60511363636364  14.5935314685315 8.60511363636364  L 13.4134615384615 8.60511363636364  C 13.3269230769231 8.60511363636364  13.2561188811189 8.67159090909091  13.2561188811189 8.75284090909091  L 13.2561188811189 11.5965909090909  L 1.53409090909091 11.5965909090909  L 1.53409090909091 8.75284090909091  C 1.53409090909091 8.67159090909091  1.46328671328671 8.60511363636364  1.37674825174825 8.60511363636364  L 0.196678321678321 8.60511363636364  C 0.11013986013986 8.60511363636364  0.0393356643356634 8.67159090909091  0.0393356643356634 8.75284090909091  L 0.0393356643356634 12.4090909090909  C 0.0393356643356634 12.7359375  0.320585664335664 13  0.668706293706294 13  L 14.1215034965035 13  C 14.4696241258741 13  14.7508741258741 12.7359375  14.7508741258741 12.4090909090909  L 14.7508741258741 8.75284090909091  Z " fill-rule="nonzero" fill="#1e87f0" stroke="none" transform="matrix(1 0 0 1 541 1873 )" />
  </g>
</svg>