<?xml version="1.0" encoding="utf-8"?>
<svg version="1.1" xmlns:xlink="http://www.w3.org/1999/xlink" width="24px" height="19px" xmlns="http://www.w3.org/2000/svg">
  <g transform="matrix(1 0 0 1 -41 -779 )">
    <path d="M 23.8636363636364 0.852272727272727  C 23.8636363636364 0.380859375  23.4827769886364 0  23.0113636363636 0  L 0.852272727272727 0  C 0.380859375 0  0 0.380859375  0 0.852272727272727  L 0 17.8977272727273  C 0 18.369140625  0.380859375 18.75  0.852272727272727 18.75  L 23.0113636363636 18.75  C 23.4827769886364 18.75  23.8636363636364 18.369140625  23.8636363636364 17.8977272727273  L 23.8636363636364 0.852272727272727  Z M 22.6837713068182 2.37837357954545  L 22 2.95099431818182  L 22 16.8323863636364  L 2 16.8323863636364  L 2 2.95099431818182  L 1.18252840909091 2.37837357954545  L 2.22922585227273 1.03338068181818  L 3.369140625 2  L 20.4971590909091 2  L 21.6370738636364 1.03338068181818  L 22.6837713068182 2.37837357954545  Z M 21.6344105113636 1.03338068181818  L 20.4971590909091 1.91761363636363  L 11.9318181818182 8.57599431818182  L 3.36647727272727 1.91761363636363  L 2.2265625 1.03071732954545  L 1.17986505681818 2.37571022727273  L 1.91495028409091 2.94833096590909  L 11.0129616477273 10.0221946022727  C 11.5509588068182 10.4403409090909  12.3046875 10.4403409090909  12.8426846590909 10.0221946022727  L 21.9460227272727 2.95099431818182  L 22.6811079545455 2.37837357954545  L 21.6344105113636 1.03338068181818  Z " fill-rule="nonzero" fill="#1e87f0" stroke="none" transform="matrix(1 0 0 1 41 779 )" />
  </g>
</svg>