<?xml version="1.0" encoding="utf-8"?>
<svg version="1.1" xmlns:xlink="http://www.w3.org/1999/xlink" width="39px" height="39px" xmlns="http://www.w3.org/2000/svg">
  <g transform="matrix(1 0 0 1 -324 -559 )">
    <path d="M 343.5 559.5  C 354.14 559.5  362.5 567.86  362.5 578.5  C 362.5 589.14  354.14 597.5  343.5 597.5  C 332.86 597.5  324.5 589.14  324.5 578.5  C 324.5 567.86  332.86 559.5  343.5 559.5  Z " fill-rule="nonzero" fill="#165dff" stroke="none" fill-opacity="0.0980392156862745" />
    <path d="M 343.5 559.5  C 354.14 559.5  362.5 567.86  362.5 578.5  C 362.5 589.14  354.14 597.5  343.5 597.5  C 332.86 597.5  324.5 589.14  324.5 578.5  C 324.5 567.86  332.86 559.5  343.5 559.5  Z " stroke-width="1" stroke="#165dff" fill="none" stroke-opacity="0.498039215686275" />
  </g>
</svg>