<?xml version="1.0" encoding="utf-8"?>
<svg version="1.1" xmlns:xlink="http://www.w3.org/1999/xlink" width="10px" height="14px" xmlns="http://www.w3.org/2000/svg">
  <g transform="matrix(1 0 0 1 -331 -758 )">
    <path d="M 8.74680232033547 7.53482572471216  C 8.8011627147297 7.48354953741773  8.82994173177085 7.42079269891042  8.86704158385884 7.36208966128697  C 8.87728787463472 7.34423428248351  8.89389512518284 7.3292877569902  8.90286923199938 7.31084443359373  C 9.07877545344503 6.98155667660365  9.02118299981724 6.57861935649669  8.70970248823558 6.31379042454773  L 1.64893851939408 0.303368076685842  C 1.26387721582603 -0.0241867521588119  0.656904491045414 -0.00865226408302533  0.292301389460097 0.337345888157984  C -0.0716484203674226 0.683901061369284  -0.0550067902504578 1.23017651367184  0.330054513317843 1.55831930509862  L 6.66549762998014 6.95222062859784  L 0.354982578924453 12.4261462068256  C -0.0262277732089918 12.7571359503495  -0.0377462679323217 13.3034423442639  0.330054513317843 13.6471196237665  C 0.518098121687747 13.8232596422697  0.769476211280057 13.9113605931333  1.02085430087268 13.9113605931333  C 1.26071391573002 13.9113605931333  1.50057351059931 13.8307793174342  1.68669164325207 13.6695858244243  L 8.68350221868159 7.60042951531659  C 8.696946189122 7.58832994192016  8.70203494494717 7.57165048828131  8.71547891538758 7.55899391190383  C 8.72572520616321 7.55036021278784  8.73659040912836 7.54401644479856  8.74680232033547 7.53482572471216  Z " fill-rule="nonzero" fill="#262626" stroke="none" transform="matrix(1 0 0 1 331 758 )" />
  </g>
</svg>