<?xml version="1.0" encoding="utf-8"?>
<svg version="1.1" xmlns:xlink="http://www.w3.org/1999/xlink" width="27px" height="29px" xmlns="http://www.w3.org/2000/svg">
  <g transform="matrix(1 0 0 1 -271 -6 )">
    <path d="M 26.3704079019886 24.4185053193359  C 27.4795017826705 25.6504064013672  26.5500778678977 28.2091821210938  24.2207008945312 27.0831294248047  C 19.4079020337358 24.7559151367188  18.4538839474432 28.7861282851563  13.4608260585937 28.9301110761719  C 8.46747362428977 29.0743838671875  7.3794393984375 24.7560601367188  2.71229105007102 27.0831294248047  C 0.396904784446022 28.2371666962891  -0.546804383522728 25.6504064296875  0.562142224431817 24.4185053193359  C 2.10966028338068 22.7004266855469  3.56690156995739 20.7329519033203  3.59694474609375 13.5393223242188  C 3.58413222017045 13.3092108642578  3.59694474609375 13.2265621386719  3.59694474609375 12.9935507070313  C 3.59694474609375 10.0669156230469  4.63181432279829 7.40751146093751  6.31879749715909 5.43960165039063  C 6.1487001147017 5.24443465234376  5.97006102911932 4.99054353222657  5.79333648899147 4.69721303515625  C 5.77664483378363 4.669619748424  5.76073350436103 4.64157607240641  5.74562084446023 4.61311433789063  C 5.57592088217049 4.32695075605597  5.42132692850969 4.03235883683189  5.28245522194602 3.730512875  C 5.13753258049829 3.41604524676743  5.00846477657101 3.09472583062297  4.89572299431818 2.76772765820313  C 4.88261592294034 2.72683828125001  4.86715251669034 2.68594890429688  4.85625450745738 2.64491455566407  C 4.79012086382972 2.44075265640495  4.73176101714477 2.23422832018748  4.68129718252841 2.02577404296876  C 4.45877151455966 1.07342868457031  4.50030179083807 0.258106202148437  5.05506964026989 0.0268347421875  C 5.36978662606534 -0.104533247070313  5.75003896875 0.266516060546875  6.19111399857954 0.812577677734375  C 6.20657740482955 0.832007366210938  6.22410257173295 0.851727083007813  6.24133325071023 0.872896743164063  C 6.2612147524858 0.896821375  6.28080173757102 0.920601006835938  6.30038869389205 0.946265638671875  C 6.58859699147727 1.31311000292969  6.9077321015625 1.74259340429687  7.25470132563921 2.13974231542969  C 7.28150455930398 2.16975686230469  7.30727688387784 2.20020638085937  7.33378557208807 2.23051089941406  C 7.34895443288352 2.24762064453125  7.36427056640625 2.26458538964844  7.3794393984375 2.28227510644531  C 7.7994547734375 2.74728296972656  8.25967497017046 3.1557417109375  8.75980550071023 3.35772359570313  C 10.1722765397727 2.50194673632812  11.7935771132813 2.01518921289063  13.5181142578125 2.01518921289063  C 15.1992066381392 2.01518921289063  16.7826586960227 2.47816710449219  18.1700937741477 3.29450458691406  C 18.6157342009943 3.07700792871094  19.0283860546875 2.70320364941406  19.4080493064631 2.28242010644531  C 19.4235127127131 2.26458538964844  19.4389760901989 2.24762064453125  19.4539977070312 2.23051089941406  L 19.5326401352983 2.13974231542969  C 19.8801984502841 1.74244840429687  20.1991862588778 1.31325500292969  20.4871000110085 0.946265638671875  C 20.5069815127841 0.92060103515625  20.5265684978693 0.896821403320312  20.5464500284091 0.872896743164062  C 20.5636806786222 0.8517270546875  20.5812058455256 0.832007366210937  20.5965219790483 0.812577677734375  C 21.0377443103693 0.266516060546875  21.4177021075994 -0.104533247070313  21.7327136388494 0.0268347421874997  C 22.2871869428267 0.257961202148437  22.3291590372869 1.07342868457031  22.1061915223722 2.02548407128906  C 22.0558697766843 2.23402227262551  21.997508476198 2.44060014638487  21.9312342262074 2.64476955566406  C 21.920630762429 2.68580393261719  21.905167356179 2.72669330957031  21.8920602848011 2.76758265820313  C 21.7790296760879 3.09443614759463  21.6500675511131 3.41573715921494  21.5056225738636 3.730367875  C 21.3665366474921 4.03216339762072  21.2118474258439 4.32674951905279  21.0421624058949 4.61296933789063  C 21.0271408178267 4.64109891308594  21.0116774115767 4.66879348828125  20.9941522446733 4.69706806347656  C 20.8586634066051 4.92181460839844  20.7224382336648 5.12336152148437  20.5891584577415 5.29315388769531  C 22.3519859360795 7.27498347167969  23.4392837982955 9.99369175585938  23.4392837982955 12.9936957070313  C 23.4392837982955 13.1647930732422  23.4386947073864 13.1705929882812  23.4316257315341 13.3400953828125  C 23.4351602194602 20.6866976113281  24.809930015625 22.6859269121094  26.3704079019886 24.4186503193359  Z " fill-rule="nonzero" fill="#0692ff" stroke="none" transform="matrix(1 0 0 1 271 6 )" />
  </g>
</svg>