<?xml version="1.0" encoding="utf-8"?>
<svg version="1.1" xmlns:xlink="http://www.w3.org/1999/xlink" width="45px" height="45px" xmlns="http://www.w3.org/2000/svg">
  <g transform="matrix(1 0 0 1 -245 -170 )">
    <path d="M 267.5 170  C 280.1 170  290 179.9  290 192.5  C 290 205.1  280.1 215  267.5 215  C 254.9 215  245 205.1  245 192.5  C 245 179.9  254.9 170  267.5 170  Z " fill-rule="nonzero" fill="#ffffff" stroke="none" />
    <path d="M 267.5 170.5  C 279.82 170.5  289.5 180.18  289.5 192.5  C 289.5 204.82  279.82 214.5  267.5 214.5  C 255.18 214.5  245.5 204.82  245.5 192.5  C 245.5 180.18  255.18 170.5  267.5 170.5  Z " stroke-width="1" stroke="#797979" fill="none" />
  </g>
</svg>