<?xml version="1.0" encoding="utf-8"?>
<svg version="1.1" xmlns:xlink="http://www.w3.org/1999/xlink" width="29px" height="25px" xmlns="http://www.w3.org/2000/svg">
  <g transform="matrix(1 0 0 1 -102 -73 )">
    <path d="M 3.02627045803922 24.6732266821312  C 2.59856880843138 25.0536400064192  1.38674751289216 25.0243774451447  0.887762291029412 24.6147015595822  C 0.0893858982352945 23.9709251561041  0.103642618088235 24.2342882352941  0.103642618088235 12.821888201739  L 0.103642618088235 2.31662767857143  L 0.417290481862745 1.67285127509337  C 0.787965225049019 0.941287160072362  1.47228785901961 0.502348713235294  2.25640753196078 0.502348713235294  C 2.58431211558824 0.502348713235294  4.93667113441177 1.33633179271709  8.45808126220588 2.69704100285948  C 11.5803032071078 3.89680612599206  14.1892832102941 4.89173332020308  14.2748235294118 4.89173332020308  C 14.3603638485294 4.89173332020308  17.0263707311275 3.89680612599206  20.1913628355882 2.68240972222222  C 25.1241883908824 0.780343045343137  26.0366185425 0.473086124241364  26.5498605112255 0.546242555147059  C 27.248439865049 0.619398958333333  27.7616818067647 0.970549721346872  28.1466132968137 1.5996948719071  C 28.3889775613235 2.00937075746965  28.4032342811765 2.62388462739262  28.4174910010294 12.4707374387255  C 28.4317477208824 18.2208312835551  28.3889775613235 23.1808359185341  28.3176939620588 23.5173554009104  C 28.1608700166667 24.4098636029412  27.5335742891177 24.9365897613212  26.6211441375 24.9365897613212  C 26.0081051298039 24.9365897613212  25.8227677447059 24.8634333581349  25.3665526553922 24.4391261642157  L 24.8390539668137 23.9416625671102  L 24.7962838072549 14.5630107638889  C 24.767770367549 7.013269206641  24.7250002079902 5.18435896066761  24.582432982451 5.18435896066761  C 24.4826359434804 5.18435896066761  23.4418952861765 5.53550972368115  22.2585874303431 5.97444819823764  C 16.1852241787745 8.24229691876751  14.6882684591667 8.75439179651028  14.1465130507353 8.73976051587302  C 13.8186084671078 8.72512923523577  12.6210438644118 8.34471591094772  11.2951687830392 7.83262103320496  C 6.81855831705883 6.06223590978059  4.15255143446079 5.03804615429506  3.98147079622549 5.03804615429506  C 3.85316031754902 5.03804615429506  3.8103901309804 7.27663231355043  3.8103901309804 14.3728041156046  C 3.8103901309804 24.5269138757586  3.85316029053922 23.9562938754669  3.02627045803922 24.6732266821312  Z " fill-rule="nonzero" fill="#ff4065" stroke="none" transform="matrix(1 0 0 1 102 73 )" />
  </g>
</svg>