<?xml version="1.0" encoding="utf-8"?>
<svg version="1.1" xmlns:xlink="http://www.w3.org/1999/xlink" width="29px" height="22px" xmlns="http://www.w3.org/2000/svg">
  <g transform="matrix(1 0 0 1 -166 -38 )">
    <path d="M 0.257540699555555 20.9294726284058  C 0.109088919777778 20.9294726284058  0.0350604135555569 20.8458681710145  0 20.6776825391304  L 0 0.581551277681159  C 0.0350604135555569 0.435048131594201  0.0986262095555574 0.361405867246376  0.225757801555557 0.361405867246376  C 0.564314750666667 0.361405867246376  0.873655127777779 0.356522415652174  1.33993593266667 0.34577884  C 1.80582189503704 0.335360851594204  2.30901821985185 0.324877736811596  2.84952490711111 0.314329495652176  C 3.38989999022222 0.303911507246378  3.96205797133334 0.29342839246377  4.56599885044445 0.282880151304349  C 5.16980812540741 0.272462162898553  5.76835312918519 0.267253168695655  6.36163386177778 0.267253168695655  C 7.97170418222222 0.267253168695655  9.32777452696297 0.466367238067638  10.429844896 0.864595376811597  C 11.424006827553 1.19734901297514  12.3306666869119 1.74528526545188  13.0838156046667 2.46851193855073  C 13.7221985269603 3.09535723443969  14.2155518364446 3.8517796279201  14.5298387831111 4.68559307014493  C 14.8271724075701 5.49713585977243  14.977791528496 6.35413980323352  14.9747993551111 7.21736302434783  C 14.9747993551111 8.89505208830918  14.5828102647407 10.2788232544928  13.798832084 11.3686765228986  C 13.0096804466153 12.4631212499658  11.9004113158089 13.2918642024302  10.620542284 13.7431997107246  C 9.285660568 14.2360363582609  7.80232702711111 14.4032452730435  6.17093647377778 14.4032452730435  C 5.70465569896296 14.4032452730435  5.37623241962963 14.3980362639614  5.18566663577778 14.3876182457971  C 4.99496924777778 14.3772002573913  4.70892316577778 14.3718610401932  4.32752838977778 14.3716005942029  L 4.32752838977778 20.6462331947826  C 4.32925718680242 20.6580737265065  4.33012492911276 20.6700217666813  4.33012492911276 20.6819852330552  C 4.33012492911276 20.8200741371673  4.21699447828872 20.9320173118958  4.07744099489054 20.9320173118958  C 4.0654088251267 20.9320173118958  4.05339202099969 20.9311669203626  4.04148230777778 20.9294726284058  L 0.257540699555555 20.9294726284058  Z M 5.13809101444445 4.08825086202898  C 4.74577291370371 4.09918977217391  4.47558537214815 4.11494700753623  4.32752838977778 4.13552256811594  L 4.32752838977778 10.6900738713043  C 4.60258536 10.7111703238647  4.856848544 10.7216534386473  5.09031794177778 10.7215232156522  L 6.13915357577778 10.7215232156522  C 6.91089418198356 10.7189754058712  7.6775542859422 10.5978554506448  8.41172955355555 10.3624927936232  C 9.04132600968485 10.1773954198111  9.60389855181595 9.81715429414348  10.0324599453333 9.32466443014493  C 10.4457034364444 8.84270159613527  10.652325182 8.17178225004831  10.652325182 7.31190639188406  C 10.6690665436542 6.70357352821386  10.5090885349717 6.10325733236316  10.1913744353333 5.58219240811594  C 9.85738585455967 5.07839095373144  9.37468571027292 4.68860369370143  8.80891705288889 4.46583832869565  C 8.0701452505176 4.18164309018014  7.28100840331956 4.04790182218456  6.48876549888889 4.07262387942029  C 5.98023913088889 4.07262387942029  5.53001430274074 4.07783287362319  5.13809101444445 4.08825086202898  Z M 27.5371379908889 9.4981241826087  C 27.4509708251958 9.54053660426549  27.3496958470264 9.54053660426549  27.2635286813333 9.49812418260869  C 26.666190550508 9.19443070067507  26.0300045958739 8.97226253195882  25.3723475246667 8.83768795130435  C 24.6477563891669 8.67318913502486  23.9069469894048 8.58880726022632  23.1635347942222 8.58609319652174  C 22.7614280705617 8.57527901069795  22.3598947436795 8.62292836462634  21.9717747997778 8.72751755652174  C 21.7246803245845 8.78197663987874  21.5050704156562 8.92128725188588  21.3519096082222 9.12073205043479  C 21.2483128176906 9.28021993996895  21.1931573794268 9.46578036495219  21.1929951182222 9.65537090434783  C 21.198790826057 9.83931073261934  21.2658296305988 10.0162047296111  21.3836925062222 10.158560413913  C 21.5693087320082 10.3733939125452  21.7960859637814 10.5497250218319  22.050935958 10.6773769507246  C 22.5041670071814 10.9188185442225  22.9711658163478 11.134051092196  23.4495808762222 11.3219908202899  C 24.5162485876509 11.6753485342719  25.5354702144282 12.1558984713436  26.4847489546667 12.7530336776812  C 27.1315304791119 13.1569247926896  27.6667524993007 13.7135134589824  28.042308408 14.3727726011594  C 28.3580348451577 14.9969833927204  28.5161338213827 15.6876240552233  28.5030617484445 16.385530684058  C 28.5220476160336 17.3070793480498  28.255892762873 18.2123508058181  27.7402721513333 18.9800039478261  C 27.1882331531732 19.7593265252642  26.4214567089503 20.365225111163  25.5312620146667 20.7255402486957  C 24.5668517499259 21.1447346170048  23.3750259684445 21.354396912657  21.9557846702222 21.3545271356522  C 21.0541169953904 21.3635505898764  20.1539684113227 21.2792268969977  19.2700310635556 21.1029323808696  C 18.5736495457569 20.9765698600636  17.8957783489794 20.7652974491903  17.2519157211111 20.473945493913  C 17.1100705294236 20.4014823582116  17.0233609607468 20.2543974054008  17.02943539 20.0965533617391  L 17.02943539 16.7000241275362  C 17.0216257649717 16.6322246159749  17.0522126845305 16.5656846681857  17.1089913606667 16.526955044058  C 17.1648388733125 16.4956798117594  17.2344243517992 16.5019040189156  17.2836986191111 16.5425820713043  C 18.0441020057701 16.9862904574844  18.8697832350233 17.3099466013983  19.7309817651111 17.5018847634783  C 20.4900397367093 17.6901801257076  21.2686550022672 17.7904761383172  22.0511333642222 17.8007511797101  C 22.7926027134074 17.8007511797101  23.3381762355556 17.7063380351691  23.6878539306667 17.517511746087  C 24.0104948698542 17.3714139026491  24.2160137915031 17.0511014346737  24.2123704282222 16.7000241275362  C 24.2123704282222 16.4278538121739  24.0534559382222 16.1657759426087  23.7356269582222 15.9137905188406  C 23.4177979782222 15.662195764058  22.7715457188889 15.3581203089855  21.7968701802222 15.0015641536232  C 20.7988881830295 14.6579263157623  19.8526314413067 14.1819107721434  18.9839849364444 13.5865389924638  C 18.3627023755585 13.1589795399279  17.8511360469712 12.5935126331401  17.4901887304444 11.9353507246377  C 17.1776685769522 11.3156572584092  17.0196778898372 10.6309150785562  17.02943539 9.93841500347826  C 17.0276104813126 9.10631751442265  17.2585485796294 8.28995302960863  17.6966788868889 7.57971413275363  C 18.1963434335148 6.79759863136842  18.9138359410957 6.17507552789302  19.7627646631111 5.78710150492754  C 20.6949314002963 5.32610490048309  21.860304342 5.0954763752657  23.2588834882222 5.09521592927536  C 24.0779824356076 5.08866805994554  24.8963141207376 5.1464742142588  25.7061666793333 5.26808963362319  C 26.2925718608545 5.34173657832438  26.8658766851432 5.49522647814942  27.4098089926667 5.72420281623189  C 27.4973519325845 5.74895550293028  27.5680494359671 5.8129789318965  27.6007037868889 5.89707652057971  C 27.6221198750245 5.97392669834201  27.6327480366114 6.05332719112552  27.6322892786667 6.13304429275363  L 27.6322892786667 9.30923278202899  C 27.6368863040171 9.38448202805392  27.600629704633 9.45645751044488  27.5371379908889 9.4981241826087  Z " fill-rule="nonzero" fill="#31a8ff" stroke="none" transform="matrix(1 0 0 1 166 38 )" />
  </g>
</svg>