<?xml version="1.0" encoding="utf-8"?>
<svg version="1.1" xmlns:xlink="http://www.w3.org/1999/xlink" width="13px" height="14px" xmlns="http://www.w3.org/2000/svg">
  <g transform="matrix(1 0 0 1 -106 -42 )">
    <path d="M 7.43925 6.0886  C 7.18267280604011 6.3219837653009  6.84319143975038 6.45058975243195  6.49133333333333 6.4477  C 6.13949580006716 6.45048149031142  5.80005448551402 6.32189067601055  5.54341666666667 6.0886  L 0.759416666666667 1.91065  C 0.62076518947611 1.78032719086732  0.542509400679496 1.6011158743886  0.542509400679496 1.41391694945993  C 0.542509400679496 1.03176351681451  0.86214077969613 0.721966949459931  1.25642606734616 0.721966949459931  C 1.42070899014904 0.721966949459931  1.57996523094961 0.776882112743015  1.70733333333333 0.877449999999999  L 6.49133333333333 5.0554  L 11.2753333333333 0.877450000000001  C 11.4085341662193 0.752250419928809  11.5867937430302 0.682233050540066  11.7723427340128 0.682233050540066  C 12.1666280216629 0.682233050540066  12.4862594006795 0.99202961789465  12.4862594006795 1.37418305054007  C 12.4862594006795 1.58223527362631  12.3896730302466 1.77924494465596  12.22325 1.91065  L 7.43925 6.0886  Z M 7.43925 7.91245  C 7.17892153907105 7.68488893621978  6.84187461209267 7.55720518960569  6.49133333333333 7.55335  C 6.13949580006716 7.55056850968859  5.80005448551402 7.67915932398945  5.54341666666667 7.91245  L 0.759416666666667 12.0904  C 0.620765189476113 12.2207228091327  0.542509400679496 12.3999341256114  0.542509400679496 12.5871330505401  C 0.542509400679496 12.9692864831855  0.86214077969613 13.2790830505401  1.25642606734616 13.2790830505401  C 1.42070899014904 13.2790830505401  1.57996523094961 13.224167887257  1.70733333333333 13.1236  L 6.49133333333333 8.94565  L 11.2753333333333 13.1236  C 11.4085341662193 13.2487995800712  11.5867937430302 13.3188169494599  11.7723427340128 13.3188169494599  C 12.1666280216629 13.3188169494599  12.4862594006795 13.0090203821054  12.4862594006795 12.6268669494599  C 12.4862594006795 12.4188147263737  12.3896730302466 12.221805055344  12.22325 12.0904  L 7.43925 7.91245  Z " fill-rule="nonzero" fill="#ffffff" stroke="none" transform="matrix(1 0 0 1 106 42 )" />
  </g>
</svg>