<?xml version="1.0" encoding="utf-8"?>
<svg version="1.1" xmlns:xlink="http://www.w3.org/1999/xlink" width="23px" height="21px" xmlns="http://www.w3.org/2000/svg">
  <g transform="matrix(1 0 0 1 -165 -39 )">
    <path d="M 20.8904941176471 13.2459870967742  L 20.8645176470588 13.2459870967742  L 17.7863058823529 13.2459870967742  L 14.5392470588235 7.69223225806452  C 15.2795764705882 7.53615483870968  15.8120941176471 6.88583225806452  15.7991058823529 6.13145806451613  L 15.7991058823529 1.95638709677419  C 15.7991058823529 1.07194838709677  15.0977411764706 0.356593548387097  14.2145411764706 0.356593548387097  L 8.78545882352941 0.356593548387097  C 7.90225882352941 0.356593548387097  7.18790588235294 1.05894193548387  7.18790588235294 1.94338064516129  L 7.18790588235294 6.13145806451613  C 7.18790588235294 6.88583225806452  7.70743529411765 7.53615483870968  8.44776470588235 7.69223225806452  L 5.20070588235294 13.2459870967742  L 2.13548235294118 13.2459870967742  C 1.25228235294118 13.2459870967742  0.537929411764707 13.948335483871  0.537929411764707 14.8327741935484  L 0.537929411764707 19.0208516129032  C 0.537929411764707 19.9052903225806  1.23929411764706 20.6206451612903  2.12249411764706 20.6206451612903  L 7.55157647058823 20.6206451612903  C 8.43477647058824 20.6206451612903  9.14912941176471 19.9182967741936  9.14912941176471 19.0338580645161  L 9.14912941176471 14.8457806451613  C 9.14912941176471 13.9613419354839  8.44776470588235 13.2459870967742  7.56456470588235 13.2459870967742  L 7.03204705882353 13.2459870967742  L 10.2531294117647 7.73125161290323  L 12.7598588235294 7.73125161290323  L 15.9939294117647 13.2459870967742  L 15.4614117647059 13.2459870967742  C 14.5782117647059 13.2459870967742  13.8638588235294 13.948335483871  13.8638588235294 14.8327741935484  L 13.8638588235294 19.0208516129032  C 13.8638588235294 19.9052903225806  14.5652235294118 20.6206451612903  15.4484235294118 20.6206451612903  L 20.8775058823529 20.6206451612903  C 21.7607058823529 20.6206451612903  22.4750588235294 19.9182967741936  22.4750588235294 19.0338580645161  L 22.4750588235294 14.8457806451613  C 22.4750588235294 13.9613419354839  21.7736941176471 13.2459870967742  20.8904941176471 13.2459870967742  Z " fill-rule="nonzero" fill="#ffffff" stroke="none" transform="matrix(1 0 0 1 165 39 )" />
  </g>
</svg>