<?xml version="1.0" encoding="utf-8"?>
<svg version="1.1" xmlns:xlink="http://www.w3.org/1999/xlink" width="29px" height="29px" xmlns="http://www.w3.org/2000/svg">
  <g transform="matrix(1 0 0 1 -225 -35 )">
    <path d="M 14.69142171375 0.520745709596355  C 9.15659959270834 0.51527651765625  4.469502203125 0.531684093098959  4.2780804897526 0.559030052044271  C 2.88890576755208 0.739513382291667  1.59817649800781 1.66927599171875  0.991096205872396 2.93265930194011  C 0.487930559088541 3.97727493946614  0.526214901536458 2.98188202826823  0.526214901536458 14.5546919182682  C 0.526214901536458 24.339076083125  0.531684093476563 24.7711422369531  0.630129546132812 25.1375780890104  C 0.969219438489583 26.422838166237  1.81147497876302 27.467453803763  2.93265930194011 28.0089037941276  C 3.97727493946615 28.5120694412891  2.98188202864583 28.4737850988411  14.5546919182682 28.4737850984635  C 24.339076083125 28.4737850984635  24.7711422369531 28.4683159065234  25.1375780890104 28.3698704538672  C 26.4228381666146 28.0307805607552  27.4674538041406 27.1885250208594  28.0089037941276 26.0673406980599  C 28.5120694412891 25.0227250605339  28.4737850988411 26.0181179713542  28.4737850984635 14.4453080817318  C 28.4737850984635 4.660923916875  28.4683159065234 4.22885776304688  28.3698704542448 3.86242191098959  C 28.0307805615104 2.57716183376302  27.188525021237 1.52707700429687  26.0673406980599 0.991096205872396  C 25.0227250605339 0.487930558710937  26.0837482735026 0.531684093098959  14.69142171375 0.520745709596355  Z M 7.96978496776042 7.23144407208333  C 8.5167041496875 7.14940619486979  9.74180311746094 7.1658137703125  10.2668455320052 7.25332083946615  C 11.6286742952604 7.49396527916666  12.6240672060807 7.98619254320312  13.5702373909505 8.89954757680989  C 14.5382843432031 9.83477937779948  15.1672414023438 11.0215940027474  15.4899237196354 12.5420293288672  C 15.6321227070573 13.2038015388932  15.692283816888 14.8172131257292  15.5993075557943 15.571961596849  C 15.1727105935287 19.0613059776042  13.0834793188542 21.3200821990234  9.85665614518229 21.7794943117969  C 9.13472282494792 21.8779397644531  7.81664759683594 21.8177786542448  7.16034457799479 21.6482337078776  C 4.64998553299479 20.9919306890365  2.94906687700521 19.0394292102214  2.42949365440105 16.1954494640495  C 2.29823305048177 15.4789853353776  2.29823305048177 13.690559610612  2.42402446283854 12.9959722497005  C 2.58263102532552 12.1537167094271  2.78499112295573 11.5466364172917  3.15142697463542 10.8082955219922  C 3.77491484183594 9.55038140333333  4.53513250489583 8.713595055  5.66725521157552 8.02994607759114  C 6.25792792789063 7.67991780135417  7.23144407208334 7.34082790824219  7.96978496776042 7.23144407208333  Z M 22.2717215750781 11.1692621817318  C 22.6545650025781 11.0926934960807  23.4640053919661 11.1036318799609  23.868725586849 11.1911389491146  C 24.9680331426432 11.4208450056901  25.8977957520703 12.2357545866406  26.3243927135807 13.3350621424349  C 26.6634826066927 14.2046636416536  26.658013414375 14.1445025318229  26.6798901821354 18.0385671070833  L 26.7017669491406 21.6099493654297  L 24.0710856841016 21.6099493654297  L 24.0710856841016 18.4487564935286  C 24.0710856841016 14.9812888801562  24.060147300599 14.8336207007943  23.7429341748698 14.1882560662109  C 23.4585362004037 13.6139909253385  23.0155316630729 13.3295929504948  22.2881291508984 13.2584934567839  C 21.4896271453906 13.1819247711328  20.6528407966797 13.6850904190495  20.2535897941146 14.4726540406771  C 20.0402913133594 14.893781810625  20.0238837375391 15.2219333198568  20.0238837375391 18.4761024528516  L 20.0238837375391 21.6099493654297  L 17.4096100479427 21.6099493654297  L 17.3822640889974 16.616577234375  C 17.3658565135547 13.8765121327995  17.3330413622917 11.5630439934896  17.3166337872266 11.4755369239583  L 17.2783494440234 11.3278687445964  L 18.4268797265234 11.3278687445964  C 19.4769645559896 11.3278687445964  19.5808792005859 11.338807128099  19.6082251595313 11.4208450053125  C 19.624632734974 11.4755369235807  19.6519786942969 11.8036884328125  19.6738554609245 12.148247517487  C 19.6902630363672 12.4928066021615  19.7176089956901 12.7936121520703  19.7340165711328 12.8209581110156  C 19.7449549546354 12.8428348783984  19.8652771750521 12.7170434664193  19.9910685866536 12.5420293288672  C 20.4942342338151 11.8638495430208  21.341958965651 11.3497455119792  22.2717215750781 11.1692621817318  Z " fill-rule="nonzero" fill="#067bef" stroke="none" transform="matrix(1 0 0 1 225 35 )" />
  </g>
</svg>