<?xml version="1.0" encoding="utf-8"?>
<svg version="1.1" xmlns:xlink="http://www.w3.org/1999/xlink" width="8px" height="11px" xmlns="http://www.w3.org/2000/svg">
  <g transform="matrix(1 0 0 1 -230 -44 )">
    <path d="M 4.977816259875 0.51225871174107  C 4.559592819375 0.416238023928569  3.657968259 0.416238023928569  3.25603923825 0.506924228962055  C 2.674871599875 0.645620778270088  2.164313113875 0.944351807265624  1.67004904725 1.44045869466518  C 1.0128407835 2.09126557934152  0.665226494625 2.78474832514509  0.409947252375 3.92632761481027  C 0.257866001249999 4.61447587783482  0.219845688375 6.04945171408482  0.333906626625 6.73759997710937  C 0.73583564775 9.14878614018973  2.137155747375 10.5784274932924  4.114212012375 10.5890964588504  C 4.744262910375 10.5890964588504  5.097308671875 10.5144137014174  5.662181890125 10.2476895687277  C 7.1395426155 9.55420682292411  7.981420969875 7.80983099248884  7.9759894965 5.44665517331473  C 7.970558023125 3.63293106822545  7.438273644 2.21929316309151  6.400862252625 1.27508973183036  C 5.977207338375 0.891006980212051  5.504669165625 0.634951811975447  4.977816259875 0.51225871174107  Z " fill-rule="nonzero" fill="#067bef" stroke="none" transform="matrix(1 0 0 1 230 44 )" />
  </g>
</svg>