<?xml version="1.0" encoding="utf-8"?>
<svg version="1.1" xmlns:xlink="http://www.w3.org/1999/xlink" width="22px" height="22px" xmlns="http://www.w3.org/2000/svg">
  <g transform="matrix(1 0 0 1 -110 -78 )">
    <path d="M 17.1694285714286 0  L 15.5005714285714 0  L 15.5005714285714 3.93066704106364  C 15.5005858345874 3.93522998866621  15.5005930376099 3.93979295766957  15.5005930376099 3.94435592972894  C 15.5005930376099 6.25344614793265  13.6955586512991 8.12533362087677  11.4689358947527 8.12533362087677  L 4.04485714285714 8.12533362081672  C 4.04108514077589 8.12532264655124  4.03731312570507 8.1253171594104  4.03354110877951 8.1253171594104  C 1.80734339531926 8.1253171594104  0.00207277036851344 9.99570732435727  0 12.3043557564495  L 0 17.8053334202469  C 0 20.1219838028694  1.81094422761299 22  4.04485714285714 22  L 10.098 22  C 12.3311767051708 22.0000002516708  14.1418160348361 20.1231756296164  14.1428571428571 17.8072889757619  L 14.1428571428571 15.3432890268161  L 8.07462857142857 15.3432890268161  C 7.52211428571428 15.3432890268161  7.07142857142857 14.5063112663805  7.07142857142857 14  L 17.1694285714286 14  C 17.1700572893976 13.9352893600253  17.1706860074424 13.935289512043  17.1713147254798 13.935289512043  C 19.4052276407239 13.935289512043  21.2161718683369 12.0572733149124  21.2161718683369 9.7406229322899  C 21.2161718683369 9.73997092839681  21.2161717217484 9.73931892454394  21.2161714285714 9.73866692072175  L 21.2161714285714 4.19466703559355  C 21.2161714285715 1.87801619713056  19.4052272009585 0  17.1713142857143 0  C 17.1706857142584 0  17.1700571428162 0  17.1694285714286 0  Z M 1.91588571428572 6.61955587423869  L 1.86685714285714 6.61955587423869  L 1.8612 6.6254225407838  C 1.88005714285714 6.62346698526876  1.89702857142857 6.6254225407838  1.91588571428572 6.61955587423869  Z M 10.098 18.5973334038366  C 10.098 17.7310223106755  10.5505714285714 17.2910223197923  11.1162857142857 17.2910223197923  C 11.6688 17.2910223197923  12.1213714285714 17.7310223106755  12.1213714285714 18.5973334038366  C 12.121371428573 19.1719077375963  11.6722234896032 19.6376907757657  11.118171428573 19.6376907757657  C 11.1175428567272 19.6376907757657  11.116914285021 19.6376901631222  11.1162857142857 19.637688937836  C 10.5505714285714 19.637688937836  10.098 19.4616889414827  10.098 18.5973334038366  Z " fill-rule="nonzero" fill="#fdd835" stroke="none" transform="matrix(1 0 0 1 110 78 )" />
  </g>
</svg>