<?xml version="1.0" encoding="utf-8"?>
<svg version="1.1" xmlns:xlink="http://www.w3.org/1999/xlink" width="20px" height="20px" xmlns="http://www.w3.org/2000/svg">
  <g transform="matrix(1 0 0 1 -32 -754 )">
    <path d="M 15.1140625 7.02857142857142  L 16.7852678571429 7.05178571428571  C 17.2727678571429 7.04732142857143  17.7189732142857 6.78303571428571  17.9323660714286 6.34910714285714  L 19.6627232142857 2.83415178571429  C 19.8953125 2.36138392857143  19.8069196428571 1.78816964285714  19.4421875 1.40758928571429  L 18.5334821428571 0.459151785714286  C 18.125 0.0330357142857141  17.4850446428571 -0.0529017857142858  16.9794642857143 0.249330357142857  L 13.4832589285714 2.33616071428571  C 13.1051339285714 2.56205357142857  12.8700892857143 2.97611607142857  12.8700892857143 3.41674107142857  L 12.8700892857143 4.98214285714286  L 10.6308035714286 7.128125  C 9.96071428571429 6.39575892857143  9.38058035714286 5.76049107142857  9.07276785714286 5.42075892857143  C 9.31428571428571 3.3890625  8.92723214285714 1.90446428571428  7.92120535714286 1.00580357142857  C 6.49955357142857 -0.263392857142859  4.37366071428571 0.112499999999998  3.52544642857143 0.333482142857141  C 3.22968205788146 0.410440238194715  2.99884191868634 0.641622109646232  2.92232142857143 0.9375  C 2.84553571428571 1.234375  2.93616071428571 1.55022321428571  3.15848214285714 1.76138392857143  L 4.55245535714286 3.0875  C 4.52611607142857 3.45089285714286  4.37053571428572 3.78794642857143  4.10848214285714 4.04665178571429  C 3.87098214285714 4.28102678571429  3.5703125 4.4265625  3.24553571428571 4.46763392857143  L 1.72120535714286 2.99419642857143  C 1.49129464285714 2.77232142857143  1.16160714285714 2.69933035714286  0.858928571428572 2.80357142857143  C 0.557812500000001 2.90758928571429  0.34375 3.16830357142857  0.299776785714286 3.48325892857143  C 0.159375 4.49040178571429  -0.00357142857142828 6.98236607142857  1.51696428571429 8.365625  C 2.42790178571429 9.19464285714285  3.73236607142857 9.44575892857143  5.39799107142857 9.1140625  C 5.44397321428571 9.16227678571429  5.49486607142857 9.21607142857143  5.54955357142857 9.2734375  C 5.84285714285714 9.58169642857143  6.21763392857143 9.97544642857143  6.5171875 10.2756696428571  L 1.13816964285714 15.6537946428571  C 0.633705357142857 16.1582589285714  0.319196428571428 16.8006696428571  0.252455357142857 17.4627232142857  C 0.18125 18.1683035714286  0.406919642857143 18.8392857142857  0.871651785714286 19.3037946428571  C 1.2796875 19.7120535714286  1.84754464285714 19.9357142857143  2.4578125 19.9357142857143  C 2.5421875 19.9357142857143  2.62723214285714 19.9314732142857  2.71272321428571 19.9229910714286  C 3.37477678571429 19.85625  4.0171875 19.5415178571429  4.52142857142857 19.0372767857143  L 10.146875 13.4120535714286  C 10.3607142857143 13.6424107142857  10.6299107142857 13.9455357142857  10.8805803571429 14.2667410714286  C 10.6158482142857 16.3950892857143  11.0055803571429 17.9361607142857  12.0399553571429 18.8493303571429  C 12.8073660714286 19.5267857142857  13.7736607142857 19.7220982142857  14.6321428571429 19.7220982142857  C 15.3636160714286 19.7220982142857  16.0165178571429 19.5805803571429  16.4024553571429 19.4745535714286  C 16.6970982142857 19.3935267857143  16.9247767857143 19.1587053571429  16.9970982142857 18.8618303571429  C 17.0694196428571 18.5640625  16.9745535714286 18.2497767857143  16.7497767857143 18.0424107142857  L 15.4008928571429 16.7930803571428  C 15.4063775866895 16.4339674787615  15.55294848099 16.0914341852977  15.8089285714286 15.8395089285714  C 16.0418153125668 15.610375648392  16.3490468948366 15.4722006197681  16.675 15.45  C 17.0580357142857 15.8375  17.6982142857143 16.4776785714286  18.0417410714286 16.7803571428571  C 18.2638392857143 16.9761160714286  18.5772321428571 17.0415178571429  18.8584821428571 16.9491071428571  C 19.1417410714286 16.8571428571428  19.3580357142857 16.6198660714286  19.4227678571429 16.3303571428571  C 19.9125 14.1529017857143  19.6488839285714 12.5814732142857  18.6397321428571 11.6595982142857  C 17.3303571428571 10.4631696428571  15.2533482142857 10.8147321428571  14.253125 11.0814732142857  L 12.6774553571429 9.36316964285713  L 15.1140625 7.02857142857142  Z M 7.5234375 9.26875  C 7.23370535714285 8.97834821428572  6.85401785714285 8.57924107142857  6.58035714285714 8.29174107142857  C 6.38660714285714 8.08816964285714  6.23504464285714 7.92946428571429  6.17790178571429 7.8734375  C 5.97120535714286 7.67098214285714  5.67879464285714 7.59084821428571  5.39464285714286 7.65736607142857  C 4.05758928571428 7.97477678571429  3.07522321428571 7.85848214285714  2.47477678571429 7.31227678571429  C 1.89620535714286 6.78571428571429  1.66741071428571 5.84464285714286  1.640625 4.89665178571429  L 2.43526785714286 5.66495535714286  C 2.5895619172308 5.81529690804877  2.79574784887511 5.90056837667841  3.01116071428571 5.903125  C 3.790625 5.91361607142857  4.5453125 5.61473214285714  5.10803571428571 5.06026785714286  C 5.67053571428571 4.50558035714286  5.98035714285714 3.76517857142857  5.98035714285714 2.975  L 5.98035714285714 2.8421875  C 5.98035714285714 2.61160714285714  5.884375 2.38816964285714  5.71808035714286 2.23080357142857  L 4.98861607142857 1.53705357142857  C 5.64665178571428 1.49776785714286  6.43348214285714 1.5859375  6.97321428571428 2.06808035714286  C 7.64620535714285 2.66919642857143  7.86629464285714 3.82142857142857  7.62790178571428 5.49151785714286  C 7.5921875 5.73794642857143  7.66584821428571 5.98482142857143  7.83058035714285 6.16941964285714  C 8.03125 6.39419642857143  8.74598214285714 7.17723214285714  9.60267857142857 8.11361607142857  L 9.32366071428571 8.38102678571429  L 8.86741071428571 7.92477678571429  L 7.5234375 9.26875  Z M 10.2372767857143 11.3082589285714  L 3.51495535714286 18.0308035714286  C 2.99888392857143 18.5462053571429  2.25 18.6678571428571  1.87834821428571 18.2973214285714  C 1.65803571428571 18.0767857142857  1.65267857142857 17.7691964285714  1.66919642857143 17.6055803571429  C 1.70245535714286 17.2741071428571  1.87589285714286 16.9299107142857  2.14486607142857 16.6607142857143  L 8.8671875 9.93816964285714  L 10.2372767857143 11.3082589285714  Z M 11.6493303571429 10.3484375  L 13.4495535714286 12.3118303571429  C 13.6720982142857 12.5535714285714  14.0171875 12.6446428571429  14.3265625 12.5433035714286  C 14.5660714285714 12.4665178571429  16.6984375 11.8147321428571  17.6796875 12.7109375  C 18.2136160714286 13.1986607142857  18.2962053571429 14.0901785714286  18.2082589285714 14.9705357142857  C 17.978277647109 14.7424035705317  17.7498497508118 14.5127107640596  17.5229910714286 14.2814732142857  C 17.38125 14.1368303571429  17.1912946428571 14.0482142857143  16.9877232142857 14.0319196428571  C 16.1801339285714 13.9662946428571  15.3877232142857 14.2571428571429  14.8109375 14.8245535714286  C 14.2342510243059 15.3915911029505  13.9320276153925 16.1809878969677  13.9825892857143 16.9881696428571  L 13.9904017857143 17.1142857142857  C 14.0051339285714 17.3316964285714  14.1015625 17.5321428571429  14.2591517857143 17.6765625  L 14.9198660714286 18.2886160714286  C 14.2745535714286 18.3299107142857  13.5120535714286 18.25  12.9823660714286 17.7823660714286  C 12.1227678571429 17.0234375  12.1488839285714 15.4321428571429  12.3223214285714 14.2296875  C 12.3535714285714 14.0104910714286  12.2962053571429 13.7821428571429  12.1636160714286 13.6020089285714  C 11.8243303571429 13.1435267857143  11.4392857142857 12.7102678571429  11.1542410714286 12.4051339285714  L 12.2508928571429 11.3084821428571  L 11.4662946428571 10.5238839285714  L 11.6493303571429 10.3484375  Z M 15.0658482142857 5.60379464285714  C 14.7263392857143 5.59665178571429  14.4174107142857 5.72388392857143  14.1783482142857 5.95379464285714  L 10.4595982142857 9.51674107142857  L 10.3308035714286 9.38794642857143  L 13.9046875 5.96294642857143  C 14.1522321428571 5.7265625  14.2939732142857 5.39464285714286  14.2939732142857 5.05267857142857  L 14.2939732142857 3.51026785714286  L 17.5964285714286 1.5390625  L 18.334375 2.30915178571429  L 16.7013392857143 5.6265625  L 15.0658482142857 5.60379464285714  Z " fill-rule="nonzero" fill="#4080ff" stroke="none" transform="matrix(1 0 0 1 32 754 )" />
  </g>
</svg>