<?xml version="1.0" encoding="utf-8"?>
<svg version="1.1" xmlns:xlink="http://www.w3.org/1999/xlink" width="15px" height="29px" xmlns="http://www.w3.org/2000/svg">
  <g transform="matrix(1 0 0 1 -216 -6 )">
    <path d="M 14.5426322048978 13.8260387201629  L 14.4186669399339 13.4953530503258  L 9.47300950429688 15.3244956037799  L 5.17115924747596 17.47477617751  L 3.9657799656851 17.8342171235007  C 3.32766456066199 18.5144124421165  2.66547297384629 19.168273494852  1.98065531619591 19.794368413504  C 1.67891664933894 20.0659335361636  1.2293018804387 20.5739434060073  1.00227145285457 20.8966539802061  C 0.661708307722356 21.3774811283976  0.39284266658654 21.8902835442188  0.276334222085337 22.2832723114727  C 0.0702038976562508 22.9957891026862  0.171763692367789 23.7146709940891  0.567605333203126 24.3792248840027  C 1.07547432448918 25.2258955199003  2.08967193164063 26.0885537891789  3.27121039326923 26.6796469357979  C 3.87314735048077 26.9783947801097  4.88587459858774 27.3649810056483  5.64916594858774 27.5806455726064  C 6.91581018804087 27.944879063996  9.36847398263221 28.3378678315392  10.7172832818209 28.396988379006  C 10.9906300170072 28.4097560209109  11.3565743588041 28.4097560209109  11.3715230085937 28.396988379006  C 11.4013852993089 28.3762081990692  11.6105263590144 27.9225263307148  11.8539757946214 27.3601884596709  C 12.6844835551082 25.4431700831749  13.2819744271334 23.6427828047174  13.6075889230168 22.1059855535705  C 13.8017813332031 21.1746216451596  13.9556088888822 19.9333522459807  14.0556983245493 18.4652231918617  C 14.0825848885817 18.0546742367254  14.0930524443209 16.6792135513364  14.0706469743389 16.212726599262  C 14.0454381412214 15.5474315643381  13.9830818232464 14.8843419072968  13.8839113846154 14.2270025833444  C 13.8707808804091 14.1706276580157  13.8672470055978 14.1121850498206  13.87347883747 14.0544709296044  C 13.8883924783954 14.0417032876995  13.9332034186298 14.0241430998172  14.5426322048978 13.8260387201629  Z M 13.2894312475962 14.2445627712267  C 13.3342421875601 14.2445627712267  13.453726358744 15.5449527172939  13.4836236580529 16.3660880693816  C 13.4934034240863 16.4617214132459  13.4923925862344 16.5582656824191  13.4806129230469 16.6536408260007  C 13.4507506323317 16.6536408260007  12.8487786667969 16.2510669667919  12.4200990085637 15.9459540222906  C 12.0451574700721 15.679144003504  11.3341688888221 15.1471714040625  11.2221415383714 15.0449553851928  C 11.1848224274639 15.0145901135904  11.189303521244 15.0114075636403  11.4954882735577 14.8915939153624  C 12.0895352735512 14.663647821562  12.6876268845984 14.4479433586229  13.2894312475962 14.2446002130419  Z M 10.7695510427885 15.1807192259043  C 10.7620942223257 15.1839392176695  10.7665753163762 15.1839392176695  10.7695510427885 15.1839392176695  C 10.8039294361478 15.1839392176695  10.8890702220252 15.2398397727925  11.0952005469952 15.3836161512467  C 11.8659487177284 15.9299663883311  12.9130193503305 16.5897277322673  13.3611287524038 16.8101848460705  C 13.500042666887 16.8772804894648  13.5149913164062 16.8517452053657  13.1968336409856 17.0977376024003  C 12.5157073501803 17.6233451022307  11.6672752134916 18.1393300677128  10.6276614013522 18.6601075794614  C 10.5159202111878 18.7179233760208  10.4028667917341 18.7727921411373  10.2886036238582 18.8246641372739  C 10.2960881340389 18.7460099910397  10.3111038488593 18.6683855675182  10.3334145638221 18.5930119366456  C 10.5828504611178 17.5386518294282  10.7247401022837 16.4715240803059  10.7322319316106 15.6168409066656  C 10.7367130256611 15.1935243096243  10.7367130256611 15.1935243096243  10.7695510427885 15.1807192259043  Z M 8.20636526484375 16.3021749762267  C 8.26612485459736 16.2542495170313  10.2363008548377 15.3915912474634  10.2512495040865 15.4075788811336  C 10.2736549743389 15.4347241609707  10.2587063245493 16.3820757030519  10.2288440341046 16.6408731840957  C 10.1502351100012 17.3665348231043  10.0061690404252 18.082360977747  9.79865900850361 18.7783486741057  C 9.78371035898437 18.7990914122274  9.27139528197115 18.2319984370213  9.10258406817909 18.0115413229289  C 8.83269417807748 17.6636316806663  8.60207805122658 17.2829195373743  8.41550632454928 16.8772804888863  C 8.33090236866903 16.6921595200559  8.26094416592975 16.4997853009152  8.20636526484375 16.3021749762267  Z M 7.7418368547476 16.5130469977859  C 7.76872341878005 16.5050719018584  7.79410461517428 16.4970968059308  7.80607753828125 16.4970968056416  C 7.80905326469351 16.4970968056416  7.81353435874399 16.4970968056416  7.81651008542668 16.5002793555918  C 7.84023088803017 16.5492183075325  7.8592559357462 16.6006010265065  7.87329394876803 16.6536408260007  C 7.99277811941106 17.0210568673404  8.26164376081731 17.564224554764  8.49315528191106 17.9108978585605  C 8.79529682665387 18.3644073444412  9.14680094490991 18.7778728911421  9.54026092283654 19.1425821654953  C 9.56266639308894 19.1681174493052  9.57012321355168 19.163324903617  8.96069442728365 19.4269149300598  C 8.25418694035457 19.7304553203491  7.48343876908053 20.0355682642719  6.6006632476262 20.35827883876  C 6.39032963350346 20.4348338057694  6.18020742199691 20.5120515415796  5.97029935042067 20.589931040256  C 5.93595596565505 20.6026986821609  5.94789388016827 20.5819185022241  6.04500758969351 20.4093868481948  C 6.48264943575721 19.6346044016689  7.1473567179988 18.1137573420878  7.52075788025841 17.0386544970379  C 7.5849985640625 16.8517452053657  7.64923924813702 16.6664084676164  7.65967179474159 16.6232755543983  C 7.67462044426082 16.5641924490359  7.69405018810096 16.5434122693883  7.7418368547476 16.5130469977859  Z M 7.05773483725962 16.8485252136004  L 7.05920519657452 16.8485252136004  C 7.06967275177284 16.8565377516323  6.87849107686298 17.3102196199867  6.69175548713943 17.7239885665991  C 6.24384284632872 18.708924807295  5.75082657246616 19.6696596176043  5.2144998289363 20.6026986818717  C 5.19657545300481 20.6330265116589  5.18911863227163 20.6250514157314  5.12935904278846 20.4940801209973  C 4.99448747093764 20.1810749149453  4.89760291433289 19.8509053694483  4.84106365808293 19.5116082031516  C 4.78730743210388 19.0923776269172  4.79335103325057 18.6668496023475  4.85898803401442 18.2495586243251  C 4.90828006829928 17.9875785933311  4.90379897397837 17.9907611435705  5.01733169206731 17.9284580464428  C 5.49530338431491 17.6521003775166  7.04278618774039 16.8309650260073  7.05773483725962 16.8485252136004  Z M 13.4477749061899 17.1951985171077  L 13.5074994870793 17.1440905079621  L 13.5074994870793 17.3229872616024  C 13.4971607729959 18.4907671055621  13.4083133202047 19.6562399979201  13.24164458122 20.8103881531915  C 13.24164458122 20.8103881531915  13.1325929571815 20.7784128858511  13.0056169572115 20.7352799723437  C 12.4077516700564 20.5199203733368  11.8317508689327 20.2405351429138  11.2863822221755 19.9013769783511  C 10.9234136067909 19.677737314887  10.3961148716647 19.3071012814927  10.4110635214543 19.2911510896376  C 10.4155446155048 19.2863585436602  10.5723829059195 19.1936901752194  10.7546374013221 19.0834616183178  C 11.4880314525541 18.6521324835339  12.1915632133413 18.1856455311702  12.8009919998798 17.7255611211004  C 13.0280224271935 17.549846917121  13.3715963076022 17.271879252746  13.4477749061899 17.1951985171077  Z M 4.22715377776442 18.4013100987068  C 4.22715377776442 18.3981275487567  4.2316348718149 18.3981275487567  4.23464560655048 18.3981275484674  C 4.24955924747596 18.3981275484674  4.2465835210637 18.4300653742819  4.22417805135216 18.5834642862168  C 4.20521699057268 18.7341143847746  4.19126312961528 18.8854369931394  4.18234283725961 19.0371461551496  C 4.15248054654447 19.655384581895  4.24210242701322 20.1122490001995  4.51096806814904 20.738499964109  C 4.58564129882812 20.9126041723504  4.64540088885216 21.0563805502261  4.6424251624399 21.0611730959142  C 4.61700895745192 21.0851358258012  2.14197470093149 21.907881173627  1.36373470087139 22.1475084707613  L 0.915625298798077 22.2880648574501  C 0.888738734765625 22.2960773954821  0.885763008082933 22.2928574034275  0.896230563822116 22.2209692143451  C 0.982841709014423 21.5979382422008  1.4010888203726 20.7848154278557  1.98513640997596 20.0994813577161  C 2.37348622202524 19.6425794973072  2.68418707671274 19.375806920625  3.21442652965745 19.032353608883  C 3.59531952097356 18.786323769744  4.18234283725961 18.4189077284043  4.22715377776442 18.4013100987068  Z M 10.067524649369 19.5787038459674  L 10.067524649369 19.5802764004688  C 10.137597997035 19.6150668321612  10.2050199712239 19.6556651610288  10.2691738802885 19.7017000444847  C 11.1625947306507 20.2660465324526  12.1268044298866 20.691021156293  13.1325929571815 20.9637496236004  L 13.2192391109675 20.9844923614328  L 13.0997199317308 21.0611730959142  C 12.602318495643 21.374298577869  10.9682245470252 22.1442884784176  9.29677647836538 22.850402728494  L 8.76951275210336 23.0756523876961  C 8.74300361652271 23.0909952291228  8.71418891213331 23.1012592575263  8.68437196568509 23.1059802174834  C 8.68437196568509 23.1012251130319  8.75158837590144 22.9526561891789  8.83672916231971 22.7705020019581  C 9.30423329936899 21.7800549878956  9.7762535382512 20.5739434065858  10.0152568889423 19.7352478663265  C 10.0451191796574 19.6553845813165  10.0630435558594 19.5834963919448  10.067524649369 19.5787038459674  Z M 9.20417887175481 19.9221571582879  C 9.34904423933293 19.8534515191556  9.46856341884015 19.7991609597706  9.47304451289063 19.7991609597706  C 9.45662872751782 19.8658849712075  9.43514371106431 19.9310632043762  9.40880382908654 19.9940453470811  C 9.0322790425719 21.0070667116772  8.59932226911364 21.9950416946235  8.11226229086538 22.9526561891789  C 8.03015242752019 23.1232394395863  7.94399177059805 23.2915573563607  7.85386420519832 23.4574460669681  C 7.85088847878606 23.4574460669681  7.73886112833534 23.3807653319082  7.60442830763221 23.2881344049934  C 6.81127466664664 22.7369916216423  6.10774290612981 22.0596326480087  5.64766058121995 21.4030538540226  L 5.58044417073317 21.3103854855818  L 5.92100731640625 21.2049494743684  C 7.04369440612566 20.865241090502  8.14112865611966 20.4364544128754  9.20417887175481 19.9221571582879  Z M 13.0280224274639 21.3359582109176  C 13.0700495855505 21.3023682317154  13.1169897797603 21.2764571585428  13.1669363416767 21.2592774758577  C 13.1669363416767 21.2592774758577  13.1699470766827 21.2640700218351  13.1669363416767 21.2592774758577  C 13.1699470766827 21.3567383902759  12.9802357602764 22.2289817520878  12.8233974701322 22.8599878201596  C 12.6336706489501 23.6204136217396  12.4264740156475 24.3757303769153  12.2019957604868 25.1252520549535  C 11.1427853611144 24.91756551099  10.1076394917455 24.5881656997375  9.11455699128606 24.1427801368185  C 8.89118962808826 24.0425656542138  8.67190804107526 23.9322374266491  8.45730652977764 23.8120944669814  C 8.44834434194712 23.8041193710539  8.67239904284856 23.6843057227759  8.95771870087139 23.54532189001  C 10.6575236920673 22.703443800379  12.423074734976 21.7465071657646  13.0280224274639 21.3359582109176  Z M 4.63941442716346 21.5883531499568  L 4.63794406811899 21.5899631456948  C 4.64690625594952 21.5979382416223  4.17191029038462 22.3727581302527  3.50569764077524 23.4271182371809  L 2.9037606835637 24.3888099756682  C 2.8036712476262 24.5485739877926  2.6498086836238 24.8041514767819  2.56466789720553 24.9559403926895  L 2.40782960679087 25.2306880655884  L 2.23905340132212 25.0709614955685  C 1.98737821183028 24.8228027738503  1.75461488234877 24.5535661543149  1.54297846153846 24.2658137768617  C 1.244956580354 23.863564095195  1.03195690903645 23.3970348827775  0.91863603407452 22.8983281879787  C 0.878306187890626 22.6954312623471  0.878306187890626 22.5931778019515  0.915625298798078 22.5804476018617  C 0.970903794501203 22.5644599681915  1.9701877601863 22.2960773954821  2.9037606835637 22.0516575520811  C 3.48312433066383 21.9007250429891  4.06168483961234 21.7462877701865  4.63941442716346 21.5883531499568  Z M 4.45568957244591 22.6986512541124  L 5.11742112827524 21.7976526173039  L 5.23690529891827 21.9494040916855  C 5.77463658091947 22.6315556112966  6.32581114507212 23.1347729354521  6.99048341871995 23.5756871613231  C 7.11000259795673 23.650757900645  7.19962447869591 23.7194635397773  7.19213264936899 23.7242560857547  C 5.7127464300108 24.3345720954435  4.22743945779934 24.9283435217466  2.73645483740986 25.5054731803025  C 2.71039843185791 25.4892812782585  2.68544513150575 25.4711391859783  2.66178160673077 25.4511826206283  L 2.59456519651442 25.3952446234009  L 2.70211145264423 25.2179204236835  C 3.05461251283053 24.6428149107347  3.49526509362981 24.0118088426629  4.45568957244591 22.6986512541124  Z M 8.1003243758113 24.2146683259009  C 8.10480546986178 24.2098757799235  8.26910058100962 24.2785814190559  8.47074981192909 24.3632372500432  C 8.95771870087139 24.570926721363  9.34158741859976 24.7019354579122  9.85841859825721 24.8488943860273  C 10.5471635032062 25.0403020025191  11.2480879920666 25.1775184830137  11.9555705984675 25.2594433411636  C 12.0377006496094 25.2690284328291  12.0825115898437 25.2770409705718  12.0675979483774 25.2914186087932  C 12.040711384345 25.3073688006483  11.492512546875 25.5150582722573  11.0877087176683 25.6588346504222  C 9.50280330295491 26.2042485970376  7.91294228915624 26.733051516099  6.31835432433894 27.2451673570811  C 6.28100020456731 27.2547524487467  6.1570349398738 27.216412081506  6.1570349398738 27.1988518933344  C 6.1570349398738 27.1908393553025  6.24665682007211 27.0598680611469  6.35567343605769 26.9160916829821  C 6.89340471805889 26.1876246996243  7.42816027364783 25.3744644440426  7.87329394876803 24.6044745429156  C 7.99575384636418 24.3919925256184  8.10032437608173 24.2194608715891  8.10032437581129 24.2147057677161  Z M 7.44310892289664 24.2354485055485  C 7.44608464930889 24.2402410515259  7.18170010222356 24.7226781957447  6.7171716921274 25.55178864376  L 6.2197702563101 26.4416670762167  C 6.14506201703726 26.577430916639  6.03303466631611 26.7883029381981  5.97029935042067 26.9065440328424  L 5.86128273497596 27.1237811543019  L 5.80600423927284 27.1062209664195  C 5.67157141856971 27.0630880529122  4.72459022244591 26.6876594735406  4.47511931628606 26.572675812766  C 4.17695293610237 26.4382750563792  3.88576286082726 26.2868164371371  3.60281135030048 26.1189565025964  C 3.30404841039663 25.9368397569016  2.93064724759615 25.6668471881649  2.9605095383113 25.6588720916589  C 2.96796635877404 25.6540795456815  3.48031644465144 25.4974980837965  4.09573169206731 25.3074062421742  C 5.14854467917993 24.9921801819779  6.19580668483653 24.656120115552  7.23697859846755 24.2993990402294  C 7.30409593537581 24.2726062356039  7.37299978528702 24.251241799341  7.44310892289664 24.2354859470745  Z M 11.8584568889423 25.5821539153624  C 11.9354520690472 25.5391084177568  12.0153413554637 25.5022634081027  12.097460239363 25.4719253584608  L 12.1004359657752 25.4719253584608  C 12.1153846152945 25.513485717756  11.5104369230769 27.419271564744  11.2893579485877 28.019949803607  C 11.2415712816707 28.1557510858444  11.2221415383714 28.1892989076862  11.1967603417067 28.1861163574468  C 9.73475869811368 27.9714550218224  8.28004039336071 27.7034403342509  6.83515049567308 27.3825411935306  L 6.74405825615985 27.3601884596709  L 7.30118427340745 27.2164120812168  C 8.4961660171875 26.9112616951895  9.07272177773437 26.7467425786137  9.65676936760817 26.5422730996376  C 10.3931391455228 26.2882681645711  11.1205817436599 25.9719601326662  11.8584568889423 25.5821539153624  Z M 9.43120929879808 0.748790841353058  C 9.36847398236178 0.461238085023271  9.36101716189904 0.443640455325797  9.31918194861779 0.438847909059174  C 9.23701688861178 0.426080267154254  7.91061305967548 0.967637958261302  7.05472410252404 1.36223672154255  C 5.89860184615384 1.89578187519614  5.00238304254808 2.40379174475066  4.44823275225361 2.84313341785572  C 4.24360779519231 3.00926252988032  3.98517470093149 3.30160783247673  3.94337449543269 3.41501893903923  C 3.92803996473741 3.46115717197093  3.92045469409675 3.50983201525657  3.92096902545072 3.55879531720412  L 4.42285155531851 4.09717045836104  L 5.61482256382212 4.52849959343417  L 8.4528254359976 5.10360510638298  L 11.6971375042067 5.73461117474401  L 11.7315158972957 5.41830314254987  C 11.7195429741887 5.41830314254987  11.7120861534555 5.41351059657247  11.7016185982572 5.4135105968617  L 11.2744443076623 5.33682986180186  L 11.189303521244 5.16429820777261  C 10.7478865690088 4.28097258547711  10.3436813376508 3.37694648801314  9.97790276917067 2.45493719657912  C 9.76285856410528 1.89885967079236  9.58027674507704 1.32904985606517  9.43120929879808 0.748790841353058  Z M 7.23697859846755 1.60665656494348  C 7.74929367548077 1.34145654218417  9.15488683774038 0.675292656532578  9.25942235913461 0.654512476595743  L 9.26390345264423 0.654512476595743  C 9.26691418765024 0.659305022573137  9.28182782857572 0.777546117217419  9.29677647836538 0.918102503327791  C 9.36101716216947 1.50919565023604  9.47602023903245 2.08111861294548  9.65974509375 2.69935703940159  C 9.79865900823317 3.1658065496609  9.79865900823317 3.14027126614029  9.63733962403846 3.08433326920213  C 9.25644663272236 2.966129616373  7.54767945315505 2.63226139658577  6.31086249555288 2.43733956717088  C 6.18763669309762 2.42126017229042  6.06505680298841 2.39995148662191  5.94341278611779 2.37346391554189  C 5.92849914519231 2.35747628187167  6.83665586304086 1.81910114042553  7.23697859846755 1.60665656494348  Z M 5.65518741859976 2.55082555707447  L 5.65665777764423 2.55082555707447  L 5.80155815381611 2.6067261124867  C 6.59320642743389 2.91026650277593  8.58729326502404 3.3432056335871  9.68516129900841 3.44542165216755  L 9.91817818774038 3.47099437808178  C 9.9211889227464 3.47417692803191  9.81661839302885 3.53809002147606  9.68218557259615 3.60997821026928  C 9.15191111105769 3.91029860850399  8.56786352145433 4.27932464616024  8.16456505988582 4.56208485680186  C 8.08803201837481 4.6211598317392  8.00653185055329 4.67250102917128  7.92111562400841 4.71544632692154  C 7.90616697448918 4.71544632692154  7.8285180171274 4.69945869325133  7.74635295712139 4.68511849713431  L 7.59697148689904 4.65954577150931  L 7.22357032463942 4.24416682858045  C 6.76828434305231 3.74335222165075  6.31020097741549 3.24545519904559  5.84934482046274 2.75050249094082  L 5.65518741859976 2.55082555707447  Z M 5.5058059483774 2.68340684754654  L 5.50731131628606 2.68340684754654  L 6.03306967518029 3.42786146457447  C 6.32136505988582 3.83841041971077  6.61263617100361 4.24098427891955  6.67537148689904 4.32886010138298  C 6.73961217070313 4.41830847834774  6.79187993140024 4.49019666771941  6.78890420498798 4.49498921340758  C 6.11769288075955 4.37487004036649  5.45456363630931 4.20783383852423  4.8037795554988 3.99495443978059  L 4.59764923052885 3.91827370443152  L 4.59764923052885 3.85919059935838  C 4.60213032457933 3.57643038871676  4.92028799972957 3.1530763501496  5.4580192820012 2.7201372190492  L 5.5058059483774 2.68340684754654  Z M 9.97048095703125 3.70740168316157  C 9.97345668344351 3.69942658723404  9.98091350417669 3.69463404125665  9.9853945984976 3.69942658723404  C 10.0003432480168 3.69942658723404  10.0182676239483 3.73615695902593  10.0630785639123 3.85117806161569  C 10.1915599317909 4.16909608954787  10.5858611961238 5.02377926347739  10.6844802735577 5.18829837918551  C 10.7143425642728 5.2442363764129  10.7666103246995 5.24902892210106  10.2393465981671 5.15156800739362  C 8.97266735066106 4.9183058104488  8.56488779477164 4.84166251691489  8.56488779477164 4.83207742524934  C 8.59055115496953 4.8073526898218  8.61918398644126 4.78640016923479  8.65002858118991 4.76977432812168  C 9.04289449561298 4.52374448898271  9.43870112839543 4.21061900702793  9.79123719663462 3.87675078695146  L 9.97048095703125 3.70740168316157  Z " fill-rule="nonzero" fill="#cccccc" stroke="none" transform="matrix(1 0 0 1 216 6 )" />
  </g>
</svg>