<?xml version="1.0" encoding="utf-8"?>
<svg version="1.1" xmlns:xlink="http://www.w3.org/1999/xlink" width="22px" height="17px" xmlns="http://www.w3.org/2000/svg">
  <g transform="matrix(1 0 0 1 -218 -9 )">
    <path d="M 3.07011708028716 0.854386539787944  C 2.79301591528716 0.7364910900279  2.39273462266047 0.62017986049665  2.30808887625845 0.266493511216518  C 2.30808887625845 0.266493511216518  2.22340704864865 0.412683868839285  2.30347052319257 0.628027276032366  C 2.35427240357264 0.761654399810267  2.50050821364865 0.925123809302455  2.66676891287162 1.09176165925223  C 2.66676891287162 1.09176165925223  4.38017778408784 2.8994673271317  4.58800365811655 3.1572899383538  C 5.53631745023648 4.3409602539788  5.94886624257601 5.50731467478795  5.98736454231419 7.11540860949219  C 6.01045630625 8.14817274918527  5.82878907094594 9.05677824324219  5.37929345658784 10.109953032885  C 4.57721547454392 12.0009960467857  2.88538297019426 14.0885560381585  0.277529062027027 16.4040226708538  L 0.659336943226352 16.2672639492801  C 0.90562503606419 16.0676153734431  1.24124939022804 15.8554035640458  2.02636935791385 15.3869533630859  C 3.8413819898902 14.3133310816853  5.88269390648649 13.3261409014397  8.38735649552365 12.3091084357645  C 11.9942899955405 10.8440732611719  17.9242549299409 9.12751551332589  21.2987553952027 8.56788055023995  L 21.6497502045186 8.50974335666294  L 21.5958453684206 8.41855859482143  C 21.3591864967609 8.01131784891606  21.1006822768511 7.61773370492089  20.82151358375 7.23960409750558  C 20.0756202590605 6.24470337344213  19.1462895478217 5.40844083335687  18.0858972763767 4.7779471069029  C 16.5756959261233 3.86621001476562  14.622132711647 3.15412149875  12.1482471141216 2.62440250613281  C 11.37607791737 2.466549518479  10.601081037868 2.32347794934899  9.82366420173986 2.19526306874442  C 8.43491897516799 1.96439758025564  7.04832960674021 1.72020812392401  5.66407984944257 1.46272706011719  C 5.13808702258911 1.36898824394581  4.61404495664432 1.26417406209565  4.09228843523649 1.14835147497768  C 3.74648606399612 1.06980872603227  3.4052342345786 0.97166855468784  3.07011708028716 0.854386539787944  Z M 3.49035109992399 1.47053763384487  C 3.38257750893581 1.38723713020089  3.30251403411318 1.31336826232143  3.30251403411317 1.30865244429688  C 3.30561698983108 1.30393662627232  3.36717097285473 1.32906309424665  3.44878592511824 1.35735800210937  C 3.59502173547297 1.41240044026786  3.78282272035473 1.47370607401786  4.00760660790541 1.54127490364397  L 4.51562541086993 1.68746526155134  C 4.74654304855574 1.75035511553013  4.93896238650338 1.80852915176897  4.94358073901182 1.80852915119978  C 4.96973937773649 1.8368240590625  5.35923248679054 3.18237956395089  5.49009784171453 3.69957216481585  C 5.5408997220946 3.89446808053571  5.57936194090372 4.0611059296317  5.57474358839527 4.06110593020089  C 5.53712900594183 4.01092734199962  5.50511936764097 3.95661682930111  5.47930965842061 3.89918389856027  C 5.02826256662162 3.04090502463728  4.31548476469595 2.17006291658482  3.49035109992399 1.47053763384487  Z M 5.19759014035473 1.87455060297433  L 5.19603866235642 1.87455060297433  C 5.21606355150338 1.87455060297433  5.302260775625 1.8871138368192  5.40541601438345 1.91227714717076  C 6.0612221054223 2.0694465186942  7.23579910151182 2.31153745618304  7.98707520289696 2.44988039798549  C 8.0649428426418 2.45771108913494  8.1415124061425 2.47566341615658  8.21492596579392 2.50330177353795  C 8.21492596579392 2.51118603202009  8.16874243847973 2.54102831773438  8.11021924959459 2.57403904333705  C 7.83444998396464 2.73944618976062  7.56437877920135 2.91456467703723  7.300492120625 3.09907906030692  C 6.90858994705636 3.37670701643445  6.54361488356929 3.69200487893348  6.21056087121622 4.04065843815848  C 6.09972040516047 4.16172232837612  6.0027349971875 4.26075450603795  6.0027349971875 4.26075450603795  C 6.0027349971875 4.26075450603795  5.97964323325169 4.19001723623884  5.95961834466217 4.10354829213728  C 5.78148330365499 3.40580331295627  5.55090400100985 2.72312859688539  5.2699323066723 2.06159910258928  C 5.24078127553235 1.99920012795638  5.21508726505159 1.93517776356598  5.19297178784629 1.86983478523437  C 5.19297178784629 1.87926642099888  5.19297178784629 1.87455060325893  5.19759014035473 1.87455060297433  Z M 7.05416794685811 3.80173594084263  C 7.44366105591216 3.43231791754464  8.49971235836993 2.54891257593192  8.53359230559966 2.56147580949219  C 8.55668406953547 2.5693232253125  8.59514628834459 2.71238198542411  8.67214288837838 3.02362597276786  C 8.8436457719441 3.76562571688932  8.89871688786299 4.53071985390526  8.83530063188345 5.29035020527344  L 8.82299705124156 5.33124518935826  L 8.62285640506757 5.26050791955915  C 8.21030761328547 5.11903337967634  7.54064646388514 4.90682157027902  6.96641924501689 4.73233630479353  C 6.7653622471239 4.67843613657357  6.56703638389298 4.6144243643953  6.37216713672297 4.54053514506138  C 6.37216713672297 4.51540867737165  6.84940894817568 3.9982160762221  7.05416794685811 3.80173594084263  Z M 8.84608881517737 2.73596107497768  C 8.82611527717005 2.69375938778376  8.81063221705837 2.64949191148808  8.79990528758446 2.60391817142857  C 9.57432777259068 2.73278060389197  10.3462416469671 2.87689780262928  11.1152154134628 3.03618920661272  C 11.650980413522 3.14936883834821  12.4299305512584 3.3238541041183  12.4761140785726 3.34430159559152  C 12.4992058425084 3.35373323135603  12.4176269706166 3.40247563154576  12.1605146135557 3.52821849741071  C 11.1429616108361 4.02337938628906  10.3870671566639 4.46979787526228  9.63582713592905 5.01056956625  C 9.44030484226351 5.15204410613281  9.27404414331926 5.26993955560826  9.26942579053209 5.26993955560826  C 9.26201287856073 5.18106923397256  9.25944717246775 5.09184665139116  9.26174056295608 5.00268530776786  C 9.26523907169745 4.22703036643216  9.12418042750249 3.45777810477329  8.84608881517737 2.73596107497768  Z M 12.8963841791385 3.47947609750558  L 12.8948327014189 3.47792871936942  C 12.8830287321234 3.66345780499568  12.8552106761054 3.84756098955966  12.8117023518074 4.02809520431362  C 12.6731517690287 4.64899895877232  12.2990651960557 5.56858346672991  11.8403328766807 6.43629397670201  C 11.7914815735939 6.53351387555796  11.7375221595707 6.62796787771043  11.6786905305236 6.71924305589844  C 11.5982555327651 6.68126427116884  11.5210217269971 6.63658303352236  11.4477728928378 6.58565277449777  C 10.9626102429565 6.28351237099777  10.4574764964119 6.01615479942612  9.93602006486486 5.78551109386719  C 9.78206294600506 5.71477382406808  9.64813071629223 5.65663663020647  9.64351236350506 5.64875237286272  C 9.6173537247804 5.62362590517299  10.8581391373311 4.73705212310268  11.5124298313007 4.31262850373884  C 12.0327522146284 3.96992116807477  12.8809776430574 3.46219704535156  12.8963841791385 3.47947609750558  Z M 13.1888918802196 3.52821849741071  L 13.1873404025 3.52821849741071  C 13.222735746799 3.52821849741071  13.9247253654307 3.73729870901228  14.2911267108277 3.85360993854353  C 15.1963238504223 4.14440643384487  16.2369686165203 4.55785103902344  16.914351074147 4.89108989626116  L 17.1960705919341 5.02784861783482  L 16.9990329017568 5.07813839559152  C 15.4795104423968 5.44445663462248  13.9932138180625 5.94193456747522  12.556177553674 6.56520528273995  C 12.4846157395852 6.59877606100329  12.4116774285652 6.62919891020234  12.3375634963514 6.65639004429688  C 12.3298782687753 6.65639004429688  12.3683404878632 6.5620736846596  12.4176269708953 6.44417823518415  C 12.8301757626774 5.49784619693081  13.0949733475929 4.5106928593471  13.1611817640541 3.66969303672433  C 13.1658001168412 3.59110835110491  13.1765522192061 3.52821849684152  13.1888918802196 3.52821849741071  Z M 6.2074579152196 5.26205529741072  L 6.20749399614865 5.26050791955915  C 6.21824609879223 5.24790784333705  6.7539750179223 5.38625078485491  7.04337976384291 5.47426710709263  C 7.48212327555743 5.60631001064174  8.41351513424831 5.94430152828125  8.41351513424831 5.96942799568638  C 8.41351513424831 5.97414381371094  8.31035989576858 6.07004439357701  8.18721584934966 6.18635562339286  C 7.6822639214527 6.64065837056362  7.19733688242399 7.11854020757255  6.6154244354223 7.72688072818639  C 6.51045157439784 7.83980134520191  6.4010616790235 7.94835335837388  6.28752139004223 8.0522721693192  C 6.27983616246622 8.0522721693192  6.27673320702703 8.02710885953683  6.27983616274494 7.99409813336496  C 6.36910026193412 7.294572850625  6.34911145399494 6.39385161476563  6.22593132664696 5.48215136500558  C 6.21517922400338 5.3658032930971  6.20283956271115 5.2652237378683  6.2074579152196 5.26205529741072  Z M 16.4910140990709 5.57801510249442  C 16.957467726951 5.42084573097098  17.4531468686233 5.26522373758371  17.4608681768497 5.27307115340402  C 17.4685534044257 5.28250278916853  17.2145440030828 5.71481066644531  17.052901656647 5.96158057958147  C 16.8219840189612 6.31998274660156  16.4832927900084 6.7946961437221  15.7166462331926 7.83534454161272  L 14.7067784583277 9.21391077267299  C 14.5528213394679 9.42299098427456  14.4250589402618 9.59747625004464  14.421992065473 9.59747624976005  C 14.3823300617335 9.54454696474611  14.3463187598901 9.48886685009274  14.3142184744848 9.43083840009487  C 13.8851312371269 8.73635785972873  13.3592781756293 8.10939008151072  12.7532152438514 7.56967451428572  C 12.6599923655117 7.48384063545683  12.5650433217791 7.39998189621517  12.4684288512753 7.31815194074777  C 12.4402044205156 7.29825324628509  12.4143624343915 7.27504375191768  12.3914322512416 7.24899889089286  C 12.3914322512416 7.23643565704799  13.0457229449324 6.93145486529576  13.5429535648818 6.71452723815848  C 14.5098562475471 6.29430179673304  15.4933855859274 5.91513962693104  16.4910140990709 5.57801510249442  Z M 17.7579581500676 5.35637165704799  C 17.7548912752787 5.35637165704799  17.7548912752787 5.35637165704799  17.7579581500676 5.35637165704799  C 17.7733646861486 5.35324005925223  17.8657317410557 5.40352983672433  17.9781236853885 5.47426710709263  C 19.2189311067947 6.24206145750521  20.3268817177766 7.21405151126202  21.2571541397466 8.35091608044085  L 20.8722793829223 8.38551102655692  C 19.2497221695439 8.51913815033482  17.1729788279983 8.88851933125558  15.1762989612753 9.41042775014509  C 15.0423667315625 9.44343847603237  14.9222895599324 9.47328076174665  14.9146043323564 9.47328076174665  C 14.9069191047804 9.47328076174665  15.0577732676436 9.30981135225447  15.2455742525253 9.11487859472657  C 16.4171204550338 7.89348173547433  16.9543647706757 7.1232560253125  17.5855637012669 5.74778455023996  C 17.6733124033868 5.54345699904018  17.7502729222128 5.37051911112165  17.7579581500676 5.35637165704799  Z M 9.13549356081926 6.41116750901228  C 9.15090009690034 6.34827765503348  9.16630663298142 6.3074195133259  9.177058735625 6.3074195130413  C 9.23096357172297 6.31998274688616  9.73126106590372 6.57463691821987  10.1099659916639 6.77900131208147  C 10.4563424481926 6.96446559118304  10.9767009124493 7.26627794276228  11.0028595506166 7.28985703288505  C 10.8701745379261 7.37233542220835  10.7340585404255 7.44891619727441  10.5948930306926 7.51938473624442  C 9.87136312612331 7.91079762915179  9.25095237938344 8.28176303030134  8.60286759712838 8.70618664994978  C 8.41813348703547 8.82721369750558  8.26417636845439 8.92624587545201  8.26110949366554 8.92624587516741  C 8.24570295758446 8.92624587516741  8.24876983237331 8.91055104352679  8.35347654857264 8.70618664994978  C 8.69985300510135 8.02239304179688  8.97695417010135 7.20655652924107  9.13549356081926 6.41116750901228  Z M 7.54064646388514 7.39360502857143  C 7.90239337556588 7.05723457353795  8.66442157987331 6.39385161476563  8.67676124116554 6.40645169098772  C 8.62232902264015 6.6777545151671  8.55554301491333 6.94631944523639  8.47662059527027 7.21127234726563  C 8.29754969382481 7.7941300052381  8.06937544460569 8.36005525824429  7.79465586522804 8.90270362713728  L 7.58989686654561 9.2846480424721  L 7.49446293629223 9.45128589213728  L 7.27891575403716 9.22651084889509  C 7.07130481195115 8.99826196068826  6.82909138667215 8.80559669956955  6.56155568053209 8.65589687190848  C 6.49611951743557 8.623897680574  6.43419457600754 8.58489650464766  6.37682157016047 8.5395488  C 6.37682157016047 8.50653807411273  7.03569453598818 7.86047100958706  7.54064646388514 7.39360502857143  Z M 11.6047968864865 7.99409813336496  L 11.7402445132686 7.76932309012277  L 11.9280815790794 7.90291337152344  C 12.6693299520583 8.42199477558643  13.3587325569937 9.01432856330285  13.986315428826 9.67134511735491  L 14.0324989564189 9.72638755551339  L 13.7200024471199 9.82225129300224  C 12.1230307725673 10.2932195783947  10.548056711639 10.8387400495092  9.00004593403717 11.4570927577176  C 8.88859329710485 11.5034386632545  8.77563109013945 11.5459055102165  8.66135470508446 11.5844198432422  C 8.63826294114865 11.5844198432422  8.61823805228041 11.604830493192  9.01541638918919 11.2102860022042  C 9.99727547273299 10.2439209013554  10.8661940888207 9.16466448655394  11.6047968864865 7.99409813336496  Z M 10.9351357373649 7.98466649731585  L 10.9351357373649 7.98625071726005  C 10.9428209649409 7.99409813308036  10.4147772733868 8.7973714112221  10.0992138890203 9.25163731630023  C 9.72050896326014 9.79395638513951  9.05084781413851 10.7009776592522  8.58746106104729 11.2935865061328  C 8.46934037050725 11.4479132371478  8.34769028133057 11.5993891580008  8.22261119364865 11.7478892527344  C 8.21030761328547 11.7510208505301  8.20720465756757 11.6881678389286  8.20720465756757 11.5938514792913  C 8.20720465756757 11.0892589543638  8.0871274859375 10.5516557035491  7.87930161190878 10.0926371383538  C 7.79003751271959 9.90242019856585  7.77463097663851 9.85684623883371  7.79465586522804 9.83485136922433  C 7.86699803154561 9.76411409942522  8.98925775046452 9.07243623279018  9.69741719932432 8.66061269021764  C 10.1034521574316 8.42303157681865  10.5162012483665 8.19761992783195  10.9351357373649 7.98466649731585  Z M 5.98732846110642 9.48901243576451  C 6.00201355242169 9.41461756328239  6.02797951346672 9.34301872714975  6.06428897993243 9.27680062636719  C 6.37435739807723 9.43689519664016  6.66391360615973 9.63541303532225  6.92640554765203 9.86786209539621  C 6.86116956944718 9.9442581904619  6.78667754786074 10.0118665912446  6.70472461554054 10.0690580488002  C 6.33832327014358 10.3520071279967  5.78256946186655 10.8062730330748  5.45928476927365 11.0845431363393  C 5.12062962152872 11.3769238518694  5.10828996023649 11.3847712674051  5.14678826025338 11.3218814137109  C 5.4023491395946 10.9021736123717  5.52856006080236 10.6648353352846  5.66404376851351 10.3598545441016  C 5.78256946214527 10.0895055411272  5.90264663405405 9.76882991773438  5.98732846110642 9.48901243576451  Z M 7.35591235407095 10.3771704380636  L 7.36359758136824 10.3771704380636  C 7.38207099223818 10.3724546200391  7.40516275617398 10.4085969440067  7.50983339172297 10.5767821715234  C 7.72844744876689 10.9304685208036  7.89777502305743 11.4052187597321  7.94089167558277 11.7887473947266  L 7.94857690315878 11.8720847407478  L 7.42056929225507 12.09214396625  C 6.47687385264358 12.4882726774665  5.60555666027872 12.8796855706585  5.01592290532939 13.1720662856194  C 4.68533497432771 13.3384869708629  4.35689855805991 13.5093272538126  4.03069837184122 13.6845430687444  C 4.03069837184122 13.6797904086272  4.14922406547297 13.5839266708538  4.2954598758277 13.4675785986607  C 5.44853266690878 12.5637257650056  6.44609686141047 11.5718197670201  7.19271852963682 10.5814979892634  C 7.27429740125 10.4762026157254  7.34667564849662 10.3803020358594  7.35591235407095 10.3771704380636  Z M 4.87737232255067 11.9176587004799  C 5.44391431440034 11.4775034073828  6.75090814313345 10.5186449779464  6.76627859856419 10.5343398095871  C 6.78168513464527 10.5516557035491  6.34139014521115 11.0892589546484  6.04274869427365 11.417781993577  C 5.33092360623677 12.2104600939715  4.52702978793948 12.9114819642383  3.64889049036317 13.5053051428571  L 3.41797285295608 13.6625113567578  C 3.39026273651182 13.6798272507199  3.42569416173986 13.638932266635  3.82593937288007 13.1673504678795  C 4.06136368199389 12.8938663566094  4.28381694450449 12.6090185955084  4.49253364721284 12.3137874116964  C 4.59278976690994 12.1561424277027  4.72379558690675 12.0212932819102  4.87737232255067 11.9176587004799  Z " fill-rule="nonzero" fill="#e7332b" stroke="none" transform="matrix(1 0 0 1 218 9 )" />
  </g>
</svg>