<?xml version="1.0" encoding="utf-8"?>
<svg version="1.1" xmlns:xlink="http://www.w3.org/1999/xlink" width="29px" height="29px" xmlns="http://www.w3.org/2000/svg">
  <g transform="matrix(1 0 0 1 -270 -6 )">
    <path d="M 28.4264507317073 13.2098536585366  L 15.7766790243902 0.56098731707317  C 15.0487648780488 -0.167832195121952  13.8672624390244 -0.167832195121952  13.1375375609756 0.56098731707317  L 10.19872 3.49980487804878  L 12.4105287804878 5.71161365853659  C 12.765432195122 5.54231024390244  13.1619824390244 5.44634146341463  13.5811668292683 5.44634146341463  C 15.0813580487805 5.44634146341463  16.2972643902439 6.66224780487805  16.2972643902439 8.16243902439024  C 16.2972643902439 8.58162341463415  16.2022009756098 8.97907902439024  16.031992195122 9.33307707317073  L 19.6525502439024 12.9536351219512  C 20.0074536585366 12.7843317073171  20.404003902439 12.6883629268293  20.8231882926829 12.6883629268293  C 22.3233795121951 12.6883629268293  23.5392858536585 13.9042692682927  23.5392858536585 15.4044604878049  C 23.5392858536585 16.9046517073171  22.3233795121951 18.1205580487805  20.8231882926829 18.1205580487805  C 19.3229970731707 18.1205580487805  18.1070907317073 16.9046517073171  18.1070907317073 15.4044604878049  C 18.1070907317073 14.985276097561  18.2021541463415 14.5878204878049  18.3723629268293 14.2338224390244  L 14.7518048780488 10.6132643902439  C 14.6657951219512 10.6549112195122  14.5770692682927 10.6911258536585  14.4865326829268 10.7228136585366  L 14.4865326829268 18.2762809756098  C 15.541283902439 18.6492917073171  16.2972643902439 19.6542478048781  16.2972643902439 20.8375609756098  C 16.2972643902439 22.337752195122  15.0813580487805 23.5536585365854  13.5811668292683 23.5536585365854  C 12.0809756097561 23.5536585365854  10.8650692682927 22.337752195122  10.8650692682927 20.8375609756098  C 10.8650692682927 19.6551531707317  11.6210497560976 18.6492917073171  12.6758009756098 18.2762809756098  L 12.6758009756098 10.7228136585366  C 11.6210497560976 10.3498029268293  10.8650692682927 9.3448468292683  10.8650692682927 8.16153365853659  C 10.8650692682927 7.74234926829268  10.9601326829268 7.34489365853659  11.1303414634146 6.9908956097561  L 8.91853268292683 4.77908682926829  L 0.546614634146341 13.1500995121951  C -0.18220487804878 13.8798243902439  -0.18220487804878 15.0604214634146  0.546614634146341 15.7892409756098  L 13.1972917073171 28.4381073170732  C 13.9252058536585 29.1669268292683  15.1067082926829 29.1669268292683  15.8364331707317 28.4381073170732  L 28.4264507317073 15.8480897560976  C 29.1552702439024 15.1192702439024  29.1552702439024 13.9368624390244  28.4264507317073 13.2089482926829  Z " fill-rule="nonzero" fill="#ef4f37" stroke="none" transform="matrix(1 0 0 1 270 6 )" />
  </g>
</svg>