<?xml version="1.0" encoding="utf-8"?>
<svg version="1.1" xmlns:xlink="http://www.w3.org/1999/xlink" width="5px" height="7px" xmlns="http://www.w3.org/2000/svg">
  <g transform="matrix(1 0 0 1 -234 -82 )">
    <path d="M 0.269374999999998 4.2735  L 1.175 4.2735  L 1.35875 2.7335  L 0.455000000000005 2.7335  L 0.548750000000005 1.50325  L 1.50687500000001 1.50325  L 1.63250000000001 0.451500000000001  L 2.4125 0.451500000000001  L 2.285 1.50325  L 3.18500000000001 1.50325  L 3.30875000000001 0.451500000000001  L 4.08875000000001 0.451500000000001  L 3.96312500000001 1.50325  L 4.46187500000001 1.50325  L 4.37000000000001 2.73525  L 3.81312500000001 2.73525  L 3.62937500000001 4.27525  L 4.184375 4.27525  L 4.09062500000001 5.5055  L 3.48125 5.5055  L 3.344375 6.63425  L 2.57000000000001 6.63425  L 2.705 5.5055  L 1.805 5.5055  L 1.668125 6.63425  L 0.891875000000004 6.63425  L 1.026875 5.5055  L 0.177500000000004 5.5055  L 0.269374999999998 4.2735  Z M 2.13875 2.7335  L 1.95125 4.2735  L 2.85125 4.2735  L 3.03875 2.7335  L 2.13875 2.7335  Z " fill-rule="nonzero" fill="#ffffff" stroke="none" transform="matrix(1 0 0 1 234 82 )" />
  </g>
</svg>