<?xml version="1.0" encoding="utf-8"?>
<svg version="1.1" xmlns:xlink="http://www.w3.org/1999/xlink" width="21px" height="21px" xmlns="http://www.w3.org/2000/svg">
  <g transform="matrix(1 0 0 1 -166 -39 )">
    <path d="M 15.7890352941176 5.38588235294118  L 15.792 5.38588235294118  C 15.792 5.38588235294118  22.8094588235294 0.123529411764705  20.3546823529412 0.123529411764705  C 11.5984235294118 1.49025882352941  1.21157647058823 15.7386352941176  0.268800000000001 19.4415529411765  C -0.266329411764705 21.7095529411765  0.787623529411766 20.7267529411765  1.36870588235294 20.2449882352941  C 1.94978823529412 19.7632235294118  4.64915294117647 14.4638117647059  7.85992941176471 13.4306117647059  C 15.1204941176471 11.9008235294118  17.1409411764706 10.3532470588235  17.6523529411765 9.09472941176471  C 15.5548235294118 9.6432  14.5453411764706 9.10510588235294  13.1904705882353 8.92870588235294  C 14.3511529411765 8.57590588235294  18.8352705882353 8.59072941176471  19.7869411764706 4.15552941176471  C 18.2008235294118 5.65270588235294  15.7890352941176 5.38588235294118  15.7890352941176 5.38588235294118  Z M 18.6114352941176 19  L 4.52018823529412 19  C 3.92724705882353 18.9523764705882  3.44548235294118 19.3852235294118  3.44548235294118 19.9144235294118  C 3.44548235294118 20.4436235294118  3.92872941176471 20.8764705882353  4.52018823529412 20.8764705882353  L 18.6114352941176 20.8764705882353  C 19.2028941176471 20.8764705882353  19.6846588235294 20.4436235294118  19.6846588235294 19.9144235294118  C 19.6846588235294 19.3852235294118  19.2028941176471 18.9523764705882  18.6114352941176 19  Z " fill-rule="nonzero" fill="#ffffff" stroke="none" transform="matrix(1 0 0 1 166 39 )" />
  </g>
</svg>