<?xml version="1.0" encoding="utf-8"?>
<svg version="1.1" xmlns:xlink="http://www.w3.org/1999/xlink" width="17px" height="17px" xmlns="http://www.w3.org/2000/svg">
  <g transform="matrix(1 0 0 1 -103 -41 )">
    <path d="M 15.483015625 7.021  C 15.8523518139608 5.9105390297988  15.7251589266177 4.69477042095963  15.133984375 3.68479743303571  C 14.2441730828465 2.13615567139294  12.4560050604398 1.33950750507647  10.7095636160714 1.71367020089286  C 9.93885332724271 0.845146320794122  8.83325063152268 0.348039984538625  7.67207533482143 0.347940290178573  L 7.63630133928572 0.347940290178573  C 5.8544510823913 0.348140284663071  4.27577460159138 1.49671060795511  3.72720256696429 3.192015625  C 2.58040310093182 3.42694503739288  1.59066746883411 4.14511483721628  1.01162332589286 5.16248828125  C 0.115660814323085 6.70748162284346  0.31989207702527 8.65424019622282  1.516984375 9.97965457589286  C 1.1476499392229 11.0898258939637  1.27459919198736 12.3053071718414  1.86536104910714 13.3152025669643  C 2.75502609172003 14.8640063674336  4.54331770317494 15.6607095940058  6.28978180803571 15.2863297991071  C 7.06074627479579 16.1548647206664  8.16654392818692 16.6519458908033  9.32789620535714 16.65203125  L 9.36432477678571 16.65203125  C 11.146857341192 16.6519865073021  12.725936135284 15.50232710658  13.2734520089286 13.8059637276786  C 14.4202867425725 13.5711143903337  15.410052294031 12.8529228804893  15.98903125 11.8354910714286  C 16.8859913830738 10.2912964361275  16.6813878670735 8.34431791649231  15.483015625 7.02031696428572  Z M 12.40648046875 12.5309921875  C 12.4042904587183 14.2162254080336  11.0396506270477 15.5823413376562  9.35442075892857 15.5863532366071  L 9.34978180803572 15.5863532366071  C 8.6366582900045 15.5859742909014  7.94622057249062 15.3356777787109  7.39851953125 14.878984375  C 7.43104087865621 14.8615511578852  7.46307058537616 14.8432159302162  7.49457142857143 14.824  L 10.7406986607143 12.9495792410714  C 10.9057473082623 12.8557188142056  11.0076724062104 12.6804498111448  11.0076233258929 12.4905792410714  L 11.0076233258929 7.91054017857143  L 12.3799559151786 8.70266238839286  C 12.3945424091034 8.7100398563967  12.4044904832981 8.72420412083483  12.40648046875 8.74042857142857  L 12.40648046875 12.5309921875  Z M 2.78930915178571 12.7826623883929  C 2.43176505802083 12.1639921445071  2.30283557950457 11.4394084752457  2.4250234375 10.7353766741071  L 2.52172991071429 10.7923532366071  L 5.76720256696429 12.6674285714286  C 5.93211561489277 12.7637588987437  6.13613884939295 12.7637588987437  6.30105189732143 12.6674285714286  L 10.26448046875 10.3790597098214  L 10.26448046875 11.9666623883929  C 10.2642784853906 11.9820782372828  10.2569284033538 11.9965260380247  10.2445870535714 12.0057661830357  L 6.96336886160714 13.9000518973214  C 6.01787433577458 14.4443585478816  4.85415691422542 14.4443585478816  3.90866238839286 13.9000518973214  C 3.44397982851556 13.6319568346705  3.0579644761441 13.2463831474619  2.78933761160715 12.7820078125  Z M 1.93557142857143 5.69565457589285  C 2.29199403270863 5.07623693823056  2.8549395144676 4.601927312238  3.52584933035714 4.35576618303571  L 3.52451171875 4.46835323660714  L 3.52451171875 8.22049609375  C 3.52442722589374 8.4100333955032  3.62608905133528 8.5850295155049  3.79078180803572 8.67884151785714  L 7.75421037946429 10.9672103794643  L 6.38184933035714 11.7593610491071  C 6.36800531626984 11.7683046155204  6.35062614388829 11.7697973051728  6.33545982142857 11.7633454241071  L 3.05358705357143 9.86706752232143  C 1.59521102768949 9.02184355921676  1.0952669011564 7.15621609691358  1.93557142857143 5.695  Z M 13.2085636160714 8.31851171875  L 9.24581808035714 6.03079743303571  L 10.61749609375 5.23864676339285  C 10.6311794942443 5.22938352960149  10.6486096228265 5.22763944675379  10.6638571428571 5.2340078125  L 13.9457299107143 7.12894810267857  C 14.890011702618 7.67553678893931  15.4714497813926 8.68391734827236  15.4714497813926 9.77498439225693  C 15.4714497813926 11.0549361907874  14.674150720913 12.1994102090066  13.47349609375 12.6429246651786  L 13.47349609375 8.77617410714286  C 13.4733589924455 8.58739670767643  13.3722997610707 8.41309938456306  13.20853515625 8.31919475446428  Z M 14.6181659451601 5.74731594479962  C 14.6181659451601 5.92023735470859  14.6034891301328 6.09284677873957  14.5742935267857 6.26328571428571  C 14.5425077429426 6.24370779618589  14.5104978129573 6.22449614585388  14.4782700892857 6.20565457589286  L 11.2321428571429 4.33123381696429  C 11.067192544605 4.23504126504389  10.8632438393236 4.23504126504389  10.6982935267857 4.33123381696429  L 6.73554799107143 6.61894810267857  L 6.73554799107143 5.032  C 6.73554799107143 5.01677399553571  6.74215066964286 5.00154799107143  6.75541294642857 4.99227008928571  L 10.0366311383929 3.09929352678571  C 10.5006120342448 2.83199527742776  11.0266817162015 2.69130031979962  11.5621503201601 2.69130031979962  C 13.2499411450923 2.69130031979962  14.6181659451601 4.0595251198675  14.6181659451601 5.74731594479962  Z M 5.99237667410714 4.51272209821429  L 5.98972991071429 9.08749609375  L 4.61739732142857 8.29534542410714  C 4.60273106569743 8.28806045914022  4.59274867281304 8.27384733107415  4.59087276785714 8.25757924107143  L 4.59087276785714 4.46769866071428  C 4.5922686831604 2.78089596793627  5.96008407604224 1.41421204372184  7.64688734641573 1.41421204372184  C 8.36098705704839 1.41421204372184  9.05253967574063 1.66428550502115  9.60148046875 2.121015625  C 9.56909945182862 2.13870093275613  9.53707573655907 2.15703273065265  9.50542857142857 2.176  L 6.25864676339286 4.05107533482143  C 6.09415734760486 4.14509226406758  5.99257092396275 4.31995859078372  5.99237667410714 4.50942075892857  L 5.99237667410714 4.51272209821429  Z M 6.73486495535714 7.48  L 6.73551953125 7.48065457589285  L 8.5 6.46065457589286  L 10.2651350446429 7.48  L 10.2651350446429 9.51866238839286  L 8.5 10.5373532366071  L 6.73486495535714 9.51866238839286  L 6.73486495535714 7.48  Z " fill-rule="nonzero" fill="#ffffff" stroke="none" transform="matrix(1 0 0 1 103 41 )" />
  </g>
</svg>