<?xml version="1.0" encoding="utf-8"?>
<svg version="1.1" xmlns:xlink="http://www.w3.org/1999/xlink" width="6px" height="2px" xmlns="http://www.w3.org/2000/svg">
  <g transform="matrix(1 0 0 1 -44 -625 )">
    <path d="M 5.83846153846154 1.075  C 5.90769230769231 1.45  5.56153846153846 1.825  5.14615384615385 1.825  C 4.73076923076923 1.825  4.45384615384616 1.45  4.45384615384616 1.075  C 4.45384615384616 0.625  4.8 0.325000000000001  5.14615384615385 0.325000000000001  C 5.56153846153846 0.325000000000001  5.83846153846154 0.700000000000003  5.83846153846154 1.075  Z M 3.76153846153846 1.075  C 3.83076923076923 1.45  3.48461538461539 1.825  3.06923076923077 1.825  C 2.65384615384615 1.825  2.37692307692308 1.45  2.37692307692308 1.075  C 2.37692307692308 0.625  2.72307692307693 0.325000000000001  3.06923076923077 0.325000000000001  C 3.41538461538462 0.325000000000001  3.76153846153846 0.700000000000003  3.76153846153846 1.075  Z M 1.68461538461539 1.075  C 1.68461538461539 1.45  1.40769230769231 1.825  0.992307692307693 1.825  C 0.576923076923077 1.825  0.300000000000001 1.45  0.300000000000001 1.075  C 0.300000000000001 0.625  0.646153846153847 0.325000000000001  0.992307692307693 0.325000000000001  C 1.40769230769231 0.325000000000001  1.68461538461539 0.700000000000003  1.68461538461539 1.075  Z " fill-rule="nonzero" fill="#4080ff" stroke="none" transform="matrix(1 0 0 1 44 625 )" />
  </g>
</svg>