<?xml version="1.0" encoding="utf-8"?>
<svg version="1.1" xmlns:xlink="http://www.w3.org/1999/xlink" width="20px" height="20px" xmlns="http://www.w3.org/2000/svg">
  <g transform="matrix(1 0 0 1 -32 -538 )">
    <path d="M 7.91183035714285 19.95  C 7.846875 19.9707589285714  7.78124999999999 19.9799107142857  7.71629464285714 19.9799107142857  C 7.43169642857143 19.9799107142857  7.16852678571428 19.7966517857143  7.08013392857143 19.5107142857143  C 6.65714285714286 18.1372767857143  6.05424107142857 17.1560267857143  5.2375 16.5129464285714  C 4.71116071428571 16.0984375  3.95892857142857 15.9984375  3.23102678571429 15.9008928571429  C 2.28571428571429 15.7747767857143  1.30848214285714 15.6448660714286  0.722991071428572 14.8274553571429  C -0.141741071428572 13.6189732142857  0.660714285714285 11.9466517857143  1.30580357142857 10.6035714285714  C 1.45401785714286 10.2941964285714  1.59352678571429 10.0058035714286  1.69308035714286 9.75446428571428  C 1.7625 9.58102678571428  1.55334821428571 9.38995535714285  0.894642857142857 9.02410714285714  C 0.489955357142857 8.79933035714286  0.140848214285714 8.60558035714286  0.0598214285714281 8.19508928571429  L 0 7.89151785714286  L 0.214955357142857 7.57321428571429  C 0.346205357142857 7.41071428571429  0.583928571428572 7.11830357142857  3.6890625 5.5453125  C 4.44620535714286 1.92834821428571  7.01450892857143 0.0200892857142858  11.1377232142857 0.0200892857142858  C 17.5933035714286 0.0200892857142858  20 5.4734375  20 8.91116071428572  C 20 12.5107142857143  17.0879464285714 15.9140625  13.2895089285714 16.8508928571429  C 13.3779017857143 17.1171875  13.6754464285714 17.7203125  14.7020089285714 18.8533482142857  C 14.9488839285714 19.1263392857143  14.928125 19.5473214285714  14.6564732142857 19.7928571428571  C 14.3861607142857 20.0397321428571  13.9651785714286 20.0203125  13.7169642857143 19.7473214285714  C 12.6046875 18.5194196428571  11.4220982142857 16.9756696428571  12.15625 15.9191964285714  L 12.3109375 15.6957589285714  L 12.5772321428571 15.6450892857143  C 16.3404017857143 14.9303571428571  18.6691964285714 11.5933035714286  18.6691964285714 8.91138392857143  C 18.6691964285714 5.98816964285715  16.6238839285714 1.35111607142858  11.1375 1.35111607142858  C 7.52165178571428 1.35111607142858  5.49330357142857 2.90647321428572  4.93638392857142 6.10647321428572  L 4.87924107142857 6.4359375  L 4.5796875 6.58660714285715  C 3.14129464285714 7.31049107142857  2.31607142857142 7.76004464285715  1.84375 8.03482142857143  C 2.4765625 8.41741071428572  3.3765625 9.12433035714286  2.92946428571428 10.2464285714286  C 2.8203125 10.521875  2.66830357142857 10.8397321428571  2.50513392857142 11.1794642857143  C 2.06450892857142 12.0975446428571  1.39866071428571 13.4852678571429  1.80535714285714 14.053125  C 2.05491071428571 14.4026785714286  2.68125 14.4859375  3.40625 14.5819196428571  C 4.26919642857142 14.6975446428571  5.24754464285714 14.8274553571429  6.0609375 15.4680803571429  C 7.08236607142857 16.2725446428571  7.85290178571428 17.5004464285714  8.35178571428571 19.1183035714286  C 8.45959821428571 19.4691964285714  8.26272321428571 19.8421875  7.91183035714285 19.95  Z " fill-rule="nonzero" fill="#4080ff" stroke="none" transform="matrix(1 0 0 1 32 538 )" />
  </g>
</svg>