<?xml version="1.0" encoding="utf-8"?>
<svg version="1.1" xmlns:xlink="http://www.w3.org/1999/xlink" width="9px" height="7px" xmlns="http://www.w3.org/2000/svg">
  <defs>
    <mask fill="white" id="clip1954">
      <path d="M 4.423828125 1.01747916666667  C 4.008984375 0.466229166666667  3.3178125 0.102447916666667  2.538515625 0.102447916666667  C 1.2628125 0.102447916666667  0.232265625 1.06429166666667  0.232265625 2.25494791666667  C 0.232265625 4.40744791666667  2.953359375 6.36066666666667  4.423828125 6.81807291666667  C 5.88796875 6.36066666666667  8.615390625 4.40744791666667  8.615390625 2.25494791666667  C 8.615390625 1.06429166666667  7.58484375 0.102447916666667  6.309140625 0.102447916666667  C 5.52984375 0.102447916666667  4.838671875 0.466010416666667  4.423828125 1.01747916666667  Z " fill-rule="evenodd" />
    </mask>
  </defs>
  <g transform="matrix(1 0 0 1 -39 -543 )">
    <path d="M 4.423828125 1.01747916666667  C 4.008984375 0.466229166666667  3.3178125 0.102447916666667  2.538515625 0.102447916666667  C 1.2628125 0.102447916666667  0.232265625 1.06429166666667  0.232265625 2.25494791666667  C 0.232265625 4.40744791666667  2.953359375 6.36066666666667  4.423828125 6.81807291666667  C 5.88796875 6.36066666666667  8.615390625 4.40744791666667  8.615390625 2.25494791666667  C 8.615390625 1.06429166666667  7.58484375 0.102447916666667  6.309140625 0.102447916666667  C 5.52984375 0.102447916666667  4.838671875 0.466010416666667  4.423828125 1.01747916666667  Z " fill-rule="nonzero" fill="#fbfcff" stroke="none" fill-opacity="0" transform="matrix(1 0 0 1 39 543 )" />
    <path d="M 4.423828125 1.01747916666667  C 4.008984375 0.466229166666667  3.3178125 0.102447916666667  2.538515625 0.102447916666667  C 1.2628125 0.102447916666667  0.232265625 1.06429166666667  0.232265625 2.25494791666667  C 0.232265625 4.40744791666667  2.953359375 6.36066666666667  4.423828125 6.81807291666667  C 5.88796875 6.36066666666667  8.615390625 4.40744791666667  8.615390625 2.25494791666667  C 8.615390625 1.06429166666667  7.58484375 0.102447916666667  6.309140625 0.102447916666667  C 5.52984375 0.102447916666667  4.838671875 0.466010416666667  4.423828125 1.01747916666667  Z " stroke-width="2" stroke="#4080ff" fill="none" transform="matrix(1 0 0 1 39 543 )" mask="url(#clip1954)" />
  </g>
</svg>