<?xml version="1.0" encoding="utf-8"?>
<svg version="1.1" xmlns:xlink="http://www.w3.org/1999/xlink" width="124px" height="25px" xmlns="http://www.w3.org/2000/svg">
  <g transform="matrix(1 0 0 1 -176 -59 )">
    <path d="M 0 23.5  L 0 0.6  L 110.7 0.6  C 116.157002265895 0.6  120.638824626562 4.08844844146811  121.976810092987 8.94958240829479  C 122.243229622473 9.91753090751862  122.385 10.9399046496537  122.385 12  C 122.385 18.384  117.2436 23.4  110.7 23.5  L 0 23.5  Z " fill-rule="nonzero" fill="#ffffff" stroke="none" transform="matrix(1 0 0 1 176 59 )" />
    <path d="M 0 0.6  L 110.7 0.6  C 116.157002265895 0.6  120.638824626562 4.08844844146811  121.976810092987 8.94958240829479  C 122.243229622473 9.91753090751862  122.385 10.9399046496537  122.385 12  C 122.385 18.384  117.2436 23.4  110.7 23.5  L 0 23.5  " stroke-width="1" stroke="#0fc6c2" fill="none" transform="matrix(1 0 0 1 176 59 )" />
  </g>
</svg>