<?xml version="1.0" encoding="utf-8"?>
<svg version="1.1" xmlns:xlink="http://www.w3.org/1999/xlink" width="20px" height="20px" xmlns="http://www.w3.org/2000/svg">
  <g transform="matrix(1 0 0 1 -32 -466 )">
    <path d="M 11.5670833398437 17.0625  C 11.5686906821652 18.6676691295816  12.8694144570661 19.9685793050918  14.4745833398437 19.9704166601563  L 17.0579166601563 19.9704166601563  C 18.6630855429339 19.9685793050918  19.9638093178348 18.6676691295816  19.9654166601562 17.0625  L 19.9654166601562 14.4783333398438  C 19.9654166601562 12.8758333398438  18.6616666601563 11.5716666796875  17.0579166601563 11.5716666601563  L 16.425 11.5716666601563  C 16.2800093236062 10.8744293013697  15.8845153209333 10.2545057898015  15.3133333398438 9.82916666015625  C 15.0083333398438 9.535  14.3266666796875 9.25166666015625  13.5783333398437 9.25166666015625  L 11.1775 9.25166666015625  C 11.6877934410645 9.0266491759831  12.1227898563696 8.65991018107392  12.4308333398437 8.195  L 13.89 6.81916666015625  C 14.4360100282308 6.27753510290134  14.7425505814452 5.53991721253315  14.74125 4.77083333984375  L 14.74125 4.7625  C 14.7434959908587 3.99127233577901  14.4369470442305 3.25123346902891  13.89 2.7075  L 12.0633333398437 0.880000000000003  C 11.5215432963679 0.334225869369288  10.7840284836797 0.0277281562828201  10.015 0.02875  L 10.0066666601563 0.02875  C 9.23523295504751 0.0266995714772308  8.49500754631133 0.333201500870462  7.95083333984375 0.88  L 6.12416666015625 2.70708333984375  C 5.57813064614557 3.24838991890312  5.27143932209412 3.98570947756723  5.2725 4.75458333984375  L 5.2725 4.76291666015625  C 5.2725 5.53916666015625  5.575 6.26916666015625  6.12416666015625 6.81875  L 7.95083333984375 8.64541666015625  C 8.34280430528127 9.03898193562317  8.84008420857593 9.31098840477189  9.38291666015625 9.42875  L 6.4225 9.25125  C 5.70463479996412 9.25103414760162  5.01220219274938 9.51708029193107  4.47916666015625 9.99791666015625  C 3.95017560253907 10.4723562217352  3.61363345976836 11.1243881002734  3.53333333984375 11.8304166601562  L 2.9425 11.57125  C 1.33916666015625 11.57125  0.0345833398437506 12.8754166601562  0.0345833398437506 14.4779166601562  L 0.0345833398437506 17.0620833398438  C 0.0361910914389168 18.667414940902  1.33716839894174 19.9683922484048  2.9425 19.97  L 5.52541666015625 19.97  C 7.13065319879849 19.9681630875847  8.43149641664676 18.6673198784737  8.43333333984375 17.0620833398438  L 8.43333333984375 14.4779166601562  C 8.43333333984375 12.8754166601562  7.12875 11.57125  5.52541666015625 11.57125  L 5.075 11.57125  C 5.30761927635801 11.0360820332457  5.83521270219366 10.6895881182317  6.41875 10.68875  L 13.58125 10.68875  C 14.1795833398438 10.68875  14.6945833398437 11.0475  14.9216666601562 11.5620833398437  L 14.4741666601562 11.57125  C 12.87125 11.57125  11.5666666601562 12.8754166601562  11.5666666601562 14.4779166601562  L 11.5666666601562 17.0625  Z M 17.0579166601563 13.0091666601563  C 17.8692053457037 13.0100828463991  18.5269139897991 13.6670462144922  18.52875 14.4783333398437  L 18.52875 17.0625  C 18.5273731330532 17.8741803198149  17.8695973375055 18.5317697707881  17.0579166601563 18.5329166601563  L 14.4745833398437 18.5329166601563  C 13.6630106010751 18.5319974243292  13.0054591676563 17.8740731294665  13.005 17.0625  L 13.005 14.4783333398437  C 13.0061479947109 13.667248343708  13.6634980507882 13.0100846612576  14.4745833398437 13.0091666601563  L 17.0579166601563 13.0091666601563  Z M 6.71 4.76791666015625  L 6.71 4.76333333984375  C 6.71 4.37083333984375  6.86333333984375 4.0016666796875  7.14125 3.72416666015625  L 8.96791666015625 1.89708333984375  C 9.24163663528613 1.62096035612666  9.61453260314848 1.465949675398  10.0033333398437 1.46666666015625  L 10.0075 1.46666666015625  C 10.4 1.46666666015625  10.7691666601563 1.6195833203125  11.0466666601562 1.8975  L 12.8741666601563 3.72458333984375  C 13.1498373337283 3.9984025625794  13.3046501467493 4.37103340322307  13.3041666601562 4.75958333984375  L 13.3041666601562 4.7675  C 13.3041666601562 5.1725  13.1391666601562 5.53916666015625  12.8741666601563 5.80333333984375  L 11.0466666601562 7.63041666015625  C 10.4719948391154 8.20329187565061  9.54217182104081 8.20329187565061  8.9675 7.63041666015625  L 7.14083333984375 5.80375  C 6.86461208587837 5.52989141079943  6.70946785479235 5.15688507126777  6.71 4.76791666015625  Z M 5.52583333984375 13.0091666601563  C 6.33714906350182 13.0098546033014  6.99487207590025 13.6670184946414  6.99625 14.4783333398437  L 6.99625 17.0625  C 6.99533198676758 17.8740455142452  6.33779522148797 18.5317686532468  5.52625 18.5329166601563  L 2.94291666015625 18.5329166601563  C 2.13111362456369 18.5322274255634  1.47318923459284 17.8743030355926  1.4725 17.0625  L 1.4725 14.4783333398437  C 1.47387792409975 13.6670184946414  2.13160093649818 13.0098546033014  2.94291666015625 13.0091666601563  L 5.52583333984375 13.0091666601563  Z " fill-rule="nonzero" fill="#4080ff" stroke="none" transform="matrix(1 0 0 1 32 466 )" />
  </g>
</svg>