<?xml version="1.0" encoding="utf-8"?>
<svg version="1.1" xmlns:xlink="http://www.w3.org/1999/xlink" width="20px" height="19px" xmlns="http://www.w3.org/2000/svg">
  <g transform="matrix(1 0 0 1 -32 -394 )">
    <path d="M 19.8605251113281 6.46933905664062  C 19.8688980450163 4.47757562205421  18.2632270324422 2.85500280200787  16.2714851171875 2.84251967773438  L 13.7976920566406 2.84251967773438  L 13.7976920566406 2.17760280273438  C 13.8018775005534 0.98254727170152  12.8378011888553 0.00968204336696827  11.6427568847656 0.0030223544921875  L 8.31061657714844 0.0030223544921875  C 7.11557227305881 0.00968204336696985  6.15149596136062 0.982547271701519  6.15568140527344 2.17760280273438  L 6.15568140527344 2.84251967773438  L 3.73780181933594 2.84251967773438  C 1.74546851500683 2.85417286505397  0.138880290327906 4.47698925563121  0.147250638671875 6.46933905664062  L 0.147250638671875 15.3701582666016  C 0.138880290327905 17.362508067611  1.74546851500683 18.9853244581882  3.73780181933594 19  L 16.2684627626953 19  C 18.2613873998189 18.9861548754694  19.8688932215253 17.3630947222713  19.8605251113281 15.3701582666016  L 19.8605251113281 6.46933905664062  Z M 16.2714851171875 17.5356716699219  L 16.2714851171875 17.5417163789063  L 3.74082417382812 17.5417163789063  C 2.54612818483468 17.5342280646716  1.58253531018998 16.5618506806018  1.58588900195312 15.3671359306641  L 1.58588900195312 9.92690686230469  L 7.5278280625 9.92690686230469  L 7.5278280625 10.1928736123047  C 7.52631705237839 10.228446528038  7.52556129199219 10.2640475095189  7.52556129199219 10.2996525019408  C 7.52556129199219 11.6892594466528  8.65206029649889 12.8157584511595  10.0416672412109 12.8157584511595  C 11.431274185923 12.8157584511595  12.5577731904297 11.6892594466528  12.5577731904297 10.2996525019408  C 12.5577731904297 10.2640475095189  12.5570174300435 10.228446528038  12.5555064199219 10.1928736123047  L 12.5555064199219 9.92690686230469  L 18.4264202890625 9.92690686230469  L 18.4264202890625 15.3671359306641  C 18.42727057272 16.5598346249719  17.464165555929 17.5290181423362  16.2714851171875 17.5356716699219  Z M 11.1183792431641 9.92992921679688  L 11.1183792431641 10.1958959667969  C 11.1214000068779 10.2287909468645  11.122912765625 10.2618070067177  11.122912765625 10.2948403947828  C 11.122912765625 10.8924131062513  10.638484368695 11.3768415031813  10.0409116572266 11.3768415031813  C 9.44333894575809 11.3768415031813  8.95891054882813 10.8924131062513  8.95891054882813 10.2948403947828  C 8.95891054882813 10.2618070067177  8.96042330757526 10.2287909468645  8.96344407128906 10.1958959667969  L 8.96344407128906 9.92992921679688  L 11.1183792431641 9.92992921679688  Z M 8.31061657714844 1.44619422167969  L 8.31061657714844 1.45223893066406  L 11.6427568847656 1.45223893066406  C 12.0411052666246 1.45473555348178  12.3622394686663 1.77925011703045  12.3605648798828 2.17760280273437  L 12.3605648798828 2.84251967773437  L 7.58978622753906 2.84251967773437  L 7.58978622753906 2.17760280273437  C 7.58974827659914 2.1745801091836  7.58972930056837 2.17155720717896  7.58972930056837 2.16853427539413  C 7.58972930056837 1.77016386956049  7.9122469786337 1.44699623369544  8.31061657714844 1.44619422167969  Z M 3.74082417382812 4.28569156347656  L 3.74082417382812 4.29173625390625  L 16.2714851171875 4.29173625390625  C 17.4665294212771 4.29839594278103  18.4306057329753 5.27126117111558  18.4264202890625 6.46631670214844  L 18.4264202890625 8.480712640625  L 1.58588900195312 8.480712640625  L 1.58588900195312 6.46631670214844  C 1.57919191814594 5.26924651511469  2.54375868010194 4.29318071206852  3.74082417382812 4.28569156347656  Z " fill-rule="nonzero" fill="#4080ff" stroke="none" transform="matrix(1 0 0 1 32 394 )" />
  </g>
</svg>