<?xml version="1.0" encoding="utf-8"?>
<svg version="1.1" xmlns:xlink="http://www.w3.org/1999/xlink" width="16px" height="28px" xmlns="http://www.w3.org/2000/svg">
  <g transform="matrix(1 0 0 1 -48 -6 )">
    <path d="M 6.52770973611111 1.34428572851563  L 6.52335602777778 1.34000000585938  C 6.04879819444444 0.714285728515625  5.41315194444444 0.714285728515625  5.20417231944444 0.714285728515625  L 3.14485261111111 0.714285728515625  C 2.61804990277778 0.714285728515625  2.18702948611111 0.95428574609375  1.96063490277778 1.36999998242188  C 1.72988661111111 1.79428570507813  1.77777777777778 2.30428571679688  2.09995465277778 2.77999998828125  L 9.73206348611111 13.198571421875  L 0.954920652777779 25.2499999882813  C 0.650158736111112 25.7042856875  0.606621319444446 26.2057142539063  0.837369611111113 26.6300000175781  C 1.06376415277778 27.0457142949219  1.49478456944445 27.2857143125  2.02158731944445 27.2857142714844  L 4.12879819444445 27.2857142714844  C 4.66866215277778 27.2857142714844  5.14757369444445 27.0071428320313  5.38267573611111 26.5742857050781  L 15.2047165694444 13.2457142890625  L 6.52770973611111 1.34428572851563  Z " fill-rule="nonzero" fill="#0a99d6" stroke="none" transform="matrix(1 0 0 1 48 6 )" />
  </g>
</svg>