<?xml version="1.0" encoding="utf-8"?>
<svg version="1.1" xmlns:xlink="http://www.w3.org/1999/xlink" width="9px" height="9px" xmlns="http://www.w3.org/2000/svg">
  <g transform="matrix(1 0 0 1 -16 -93 )">
    <path d="M 20.5 93  C 23.02 93  25 94.98  25 97.5  C 25 100.02  23.02 102  20.5 102  C 17.98 102  16 100.02  16 97.5  C 16 94.98  17.98 93  20.5 93  Z " fill-rule="nonzero" fill="#4080ff" stroke="none" />
    <path d="M 20.5 93.5  C 22.74 93.5  24.5 95.26  24.5 97.5  C 24.5 99.74  22.74 101.5  20.5 101.5  C 18.26 101.5  16.5 99.74  16.5 97.5  C 16.5 95.26  18.26 93.5  20.5 93.5  Z " stroke-width="1" stroke="#4080ff" fill="none" />
  </g>
</svg>