<?xml version="1.0" encoding="utf-8"?>
<svg version="1.1" xmlns:xlink="http://www.w3.org/1999/xlink" width="29px" height="22px" xmlns="http://www.w3.org/2000/svg">
  <g transform="matrix(1 0 0 1 -102 -9 )">
    <path d="M 28.9041964285714 17.773701171875  L 27.3965848214286 17.04892578125  C 26.3851450892857 18.814296875  24.4765178571429 20.00732421875  22.2934263392857 20  L 6.79137276785714 20  C 4.54969866071429 20.00732421875  2.59802455357143 18.74984375  1.60924107142857 16.906162109375  L 0.103247767857142 17.629970703125  C 1.36358258928571 20.0298828125  3.88813616071428 21.67150390625  6.79137276785714 21.67150390625  L 22.2934263392857 21.67150390625  C 25.1380803571429 21.67150390625  27.6199107142857 20.09498046875  28.9041964285714 17.773701171875  Z M 0.0142410714285714 4.54501953125  L 1.46715401785714 5.377109375  C 2.40188616071429 3.3803515625  4.43674107142857 1.99267578125  6.79137276785714 2  L 22.2934263392857 2  C 24.5813839285714 1.99267578125  26.5673660714286 3.302685546875  27.5357589285714 5.208564453125  L 28.9860825892857 4.378408203125  C 27.7273660714286 1.973984375  25.1998995535714 0.32849609375  22.29375 0.32849609375  L 6.79137276785714 0.32849609375  C 3.81822544642857 0.32849609375  1.24188616071428 2.050361328125  0.0142410714285714 4.54501953125  Z M 6.47806919642857 12.8498046875  C 6.47806919642857 13.241357421875  6.15926339285714 13.5587890625  5.766015625 13.5587890625  L 3.930859375 13.5587890625  C 3.53761160714286 13.5587890625  3.21880580357143 13.241357421875  3.21880580357143 12.8498046875  L 3.21880580357143 9.1501953125  C 3.21880580357143 8.758642578125  3.53761160714286 8.4412109375  3.930859375 8.4412109375  L 5.766015625 8.4412109375  C 6.15926339285714 8.4412109375  6.47806919642857 8.758642578125  6.47806919642857 9.1501953125  L 6.47806919642857 12.8498046875  Z M 16.1331919642857 12.891376953125  C 16.1331919642857 13.2829296875  15.8143861607143 13.600361328125  15.4211383928571 13.600361328125  L 13.5859821428571 13.600361328125  C 13.192734375 13.600361328125  12.8739285714286 13.2829296875  12.8739285714286 12.891376953125  L 12.8739285714286 9.19208984375  C 12.8739285714286 8.800537109375  13.192734375 8.48310546875  13.5859821428571 8.48310546875  L 15.4211383928571 8.48310546875  C 15.8143861607143 8.48310546875  16.1331919642857 8.800537109375  16.1331919642857 9.19208984375  L 16.1331919642857 12.891376953125  Z " fill-rule="nonzero" fill="#ec5643" stroke="none" transform="matrix(1 0 0 1 102 9 )" />
  </g>
</svg>