<?xml version="1.0" encoding="utf-8"?>
<svg version="1.1" xmlns:xlink="http://www.w3.org/1999/xlink" width="28px" height="14px" xmlns="http://www.w3.org/2000/svg">
  <defs>
    <mask fill="white" id="clip2045">
      <path d="M 0 9.33333333333333  L 0 4.66666666666667  C 0 2.05333333333359  1.20195121951219 0  2.73170731707317 0  L 14.3739837398374 0  L 25.2682926829268 0  C 26.7980487804878 0  28 2.05333333333359  28 4.66666666666667  L 28 9.33333333333333  C 28 11.9466666666664  26.7980487804878 14  25.2682926829268 14  L 2.73170731707317 14  C 1.20195121951219 14  0 11.9466666666664  0 9.33333333333333  Z " fill-rule="evenodd" />
    </mask>
  </defs>
  <g transform="matrix(1 0 0 1 -299 -195 )">
    <path d="M 0 9.33333333333333  L 0 4.66666666666667  C 0 2.05333333333359  1.20195121951219 0  2.73170731707317 0  L 14.3739837398374 0  L 25.2682926829268 0  C 26.7980487804878 0  28 2.05333333333359  28 4.66666666666667  L 28 9.33333333333333  C 28 11.9466666666664  26.7980487804878 14  25.2682926829268 14  L 2.73170731707317 14  C 1.20195121951219 14  0 11.9466666666664  0 9.33333333333333  Z " fill-rule="nonzero" fill="#fdf968" stroke="none" fill-opacity="0" transform="matrix(1 0 0 1 299 195 )" />
    <path d="M 0 9.33333333333333  L 0 4.66666666666667  C 0 2.05333333333359  1.20195121951219 0  2.73170731707317 0  L 14.3739837398374 0  L 25.2682926829268 0  C 26.7980487804878 0  28 2.05333333333359  28 4.66666666666667  L 28 9.33333333333333  C 28 11.9466666666664  26.7980487804878 14  25.2682926829268 14  L 2.73170731707317 14  C 1.20195121951219 14  0 11.9466666666664  0 9.33333333333333  Z " stroke-width="2" stroke="#f76560" fill="none" transform="matrix(1 0 0 1 299 195 )" mask="url(#clip2045)" />
  </g>
</svg>