<?xml version="1.0" encoding="utf-8"?>
<svg version="1.1" xmlns:xlink="http://www.w3.org/1999/xlink" width="20px" height="16px" xmlns="http://www.w3.org/2000/svg">
  <g transform="matrix(1 0 0 1 -32 -252 )">
    <path d="M 18.9296875 14.54140625  C 18.4 15.15546875  17.63828125 15.5046875  16.84375 15.5046875  L 3.15625 15.5046875  C 1.63046875 15.5046875  0.38828125 14.2625  0.38828125 12.73671875  L 0.38828125 3.2609375  C 0.38828125 2.5203125  0.6765625 1.8265625  1.19921875 1.30390625  C 1.71484375 0.788281250000001  2.42734375 0.49296875  3.15625 0.49296875  L 16.84375 0.49296875  C 17.58203125 0.49296875  18.278125 0.781250000000001  18.80078125 1.30390625  L 18.9296875 1.45625  C 19.3703125 1.9625  19.61171875 2.6046875  19.61171875 3.2609375  L 19.61171875 12.73671875  C 19.61171875 13.39296875  19.3703125 14.0328125  18.9296875 14.54140625  Z M 3.15625 2  L 3.15625 1.81953125  C 2.77421875 1.81953125  2.40390625 1.97421875  2.134375 2.24140625  C 1.8625 2.51328125  1.7125 2.8765625  1.7125 3.26328125  L 1.7125 12.7390625  C 1.7125 13.5359375  2.359375 14.1828125  3.15625 14  L 16.84375 14  C 17.2609375 14.1828125  17.64765625 14.0046875  17.92890625 13.67890625  C 18.09296875 13.4890625  18.2875 13.17265625  18.2875 12.7390625  L 18.2875 3.2609375  C 18.2875 2.82734375  18.09296875 2.5109375  17.92890625 2.3234375  L 17.8234375 2.19453125  C 17.59140625 1.9671875  17.23046875 1.8171875  16.84375 2  L 3.15625 2  Z " fill-rule="nonzero" fill="#4080ff" stroke="none" transform="matrix(1 0 0 1 32 252 )" />
  </g>
</svg>