<?xml version="1.0" encoding="utf-8"?>
<svg version="1.1" xmlns:xlink="http://www.w3.org/1999/xlink" width="14px" height="8px" xmlns="http://www.w3.org/2000/svg">
  <g transform="matrix(1 0 0 1 -35 -256 )">
    <path d="M 5.88599537037037 3.1125  C 5.88599537037037 3.7640625  5.33668981481481 4.29375  4.66099537037037 4.29375  L 1.61793981481481 4.29375  C 0.944675925925925 4.29375  0.392939814814814 3.7640625  0.392939814814814 3.1125  L 0.392939814814814 1.50234375  C 0.392939814814814 0.850781250000001  0.94224537037037 0.321093750000001  1.61793981481481 0.321093750000001  L 4.66099537037037 0.321093750000001  C 5.33425925925926 0.321093750000001  5.88599537037037 0.850781250000001  5.88599537037037 1.50234375  L 5.88599537037037 3.1125  Z M 1.76863425925926 1.6453125  L 1.76863425925926 2.96953125  L 4.51516203703704 2.96953125  L 4.51516203703704 1.6453125  L 1.76863425925926 1.6453125  Z M 4.6755787037037 1.6453125  L 4.66099537037037 1.6453125  L 4.6755787037037 1.6453125  Z M 12.8446759259259 3.17578125  C 12.8446759259259 3.54140625  12.5384259259259 3.83671875  12.1592592592593 3.83671875  L 8.21446759259259 3.83671875  C 7.83530092592593 3.83671875  7.52905092592592 3.54140625  7.52905092592592 3.17578125  C 7.52905092592592 2.81015625  7.83530092592593 2.51484375  8.21446759259259 2.51484375  L 12.1592592592593 2.51484375  C 12.5384259259259 2.51484375  12.8446759259259 2.81015625  12.8446759259259 3.17578125  Z M 13.7439814814815 7.0546875  C 13.7439814814815 7.4203125  13.4377314814815 7.715625  13.0585648148148 7.715625  L 1.4599537037037 7.715625  C 1.08078703703704 7.715625  0.774537037037036 7.4203125  0.774537037037036 7.0546875  C 0.774537037037036 6.6890625  1.08078703703704 6.39375  1.4599537037037 6.39375  L 13.0585648148148 6.39375  C 13.4377314814815 6.39375  13.7439814814815 6.6890625  13.7439814814815 7.0546875  Z " fill-rule="nonzero" fill="#4080ff" stroke="none" transform="matrix(1 0 0 1 35 256 )" />
  </g>
</svg>