<?xml version="1.0" encoding="utf-8"?>
<svg version="1.1" xmlns:xlink="http://www.w3.org/1999/xlink" width="20px" height="20px" xmlns="http://www.w3.org/2000/svg">
  <g transform="matrix(1 0 0 1 -32 -178 )">
    <path d="M 8.48397514945652 19.3555279415761  C 8.3399674719393 19.5112469312574  8.14358295737156 19.6083776521741  7.93242235733696 19.6283229755435  L 7.71925466711957 19.6283229755435  C 7.447709344523 19.5062587659111  7.26468076937779 19.2454430531715  7.24223601902174 18.948571419837  L 7.24223601902174 12.960496888587  L 0.775652173913043 10.620124232337  C 0.548175357364367 10.4952493897314  0.396183083452556 10.2669826003861  0.368695652173913 10.0089440964674  C 0.38127784604812 9.7607991695097  0.507128340223957 9.53217993157526  0.710062105978261 9.38881988451087  L 18.5893167730978 0.44472050271739  C 18.686578227722 0.391129207558343  18.7957837486703 0.362930598829852  18.9068322894022 0.362732927989129  C 19.0652045520198 0.366320616615656  19.2186755974193 0.418344694377031  19.3465838451087 0.511801236413042  C 19.564920064638 0.698243934439589  19.6681548860928 0.986393880074476  19.6178881929348 1.26906832880435  L 16.1893167730978 15.7078260869565  L 16.1803726766304 15.7257142798913  C 16.1132919225544 15.9239751494565  16.0462111888587 16.1281987432065  15.8390062024457 16.1922981453804  C 15.7342436237731 16.2476882311353  15.6156655761915 16.2715073996375  15.4976397486413 16.2608695652174  C 15.452751336366 16.2561045675998  15.408662626689 16.2455833975445  15.3664596331522 16.2295652173913  C 15.3190077354737 16.2097306638486  15.2686765290949 16.1976511718404  15.2173913043478 16.1937888111413  L 11.7888198845109 14.7493167730978  L 8.48397514945652 19.3555279415761  Z M 10.4710559035326 14.196273294837  L 8.61962732336957 13.440496888587  L 8.61962732336957 16.8139130434783  L 10.4710559035326 14.196273294837  Z M 15.0086956521739 14.5510559035326  L 17.69192546875 3.27403727581522  L 8.89689441576087 12.0690683288043  L 15.0086956521739 14.5510559035326  Z M 3.95229814538044 10.3115527921196  L 3.97763974864131 10.320496888587  L 7.46583851222826 11.568198763587  L 15.420124232337 3.5438509375  L 2.70310558423913 9.86434782608695  L 3.95229814538044 10.3115527921196  Z " fill-rule="nonzero" fill="#4080ff" stroke="none" transform="matrix(1 0 0 1 32 178 )" />
  </g>
</svg>