<?xml version="1.0" encoding="utf-8"?>
<svg version="1.1" xmlns:xlink="http://www.w3.org/1999/xlink" width="7px" height="10px" xmlns="http://www.w3.org/2000/svg">
  <g transform="matrix(1 0 0 1 -344 -28 )">
    <path d="M 6.12276162423483 5.3820183747944  C 6.16081390031079 5.34539252672695  6.18095921223959 5.30056621350744  6.20692910870119 5.25863547234784  C 6.2141015122443 5.24588163034537  6.22572658762799 5.23520554070728  6.23200846239956 5.22203173828124  C 6.35514281741152 4.98682619757403  6.31482809987207 4.69901382606906  6.09679174176491 4.50985030324838  L 1.15425696357585 0.21669148334703  C 0.88471405107822 -0.0172762515420085  0.45983314373179 -0.00618018863073238  0.204610972622068 0.240961348684274  C -0.0501538942571958 0.488500758120917  -0.0385047531753205 0.878697509765597  0.23103815932249 1.11308521792759  L 4.66584834098609 4.96587187756989  L 0.248487805247117 8.87581871916114  C -0.0183594412462943 9.11223996453535  -0.0264223875526252 9.50245881733135  0.23103815932249 9.74794258840461  C 0.362668685181423 9.8737568873355  0.53863334789604 9.93668613795234  0.714598010610877 9.93668613795234  C 0.882499741011012 9.93668613795234  1.05040145741952 9.8791280838816  1.18068415027645 9.76398987458879  L 6.07845155307711 5.42887822522614  C 6.0878623323854 5.42023567280012  6.09142446146302 5.40832177734379  6.10083524077131 5.39928136564559  C 6.10800764431425 5.3931144377056  6.11561328638985 5.38858317485611  6.12276162423483 5.3820183747944  Z " fill-rule="nonzero" fill="#165dff" stroke="none" transform="matrix(1 0 0 1 344 28 )" />
  </g>
</svg>