<?xml version="1.0" encoding="utf-8"?>
<svg version="1.1" xmlns:xlink="http://www.w3.org/1999/xlink" width="20px" height="20px" xmlns="http://www.w3.org/2000/svg">
  <g transform="matrix(1 0 0 1 -226 -39 )">
    <path d="M 19.9611760038986 0.0194931773879148  L 11.9995090643275 0.0194931773879148  L 11.9995090643275 2.00990990253411  L 16.5675154580897 2.00990990253411  L 11.9995090643275 6.52815590643275  C 10.6996012466757 5.5447121600141  9.11415991492781 5.01254907533506  7.48415318587353 5.01254907533506  C 3.35087238767633 5.01254907533506  0.000186265795553555 8.36323519721583  0.000186265795553555 12.496515995413  C 0.000186265795553555 16.6297967936102  3.35087238767633 19.980482915491  7.48415318587353 19.980482915491  C 11.6174339840707 19.980482915491  14.9681201059515 16.6297967936102  14.9681201059515 12.496515995413  C 14.9681201059515 10.8665092663587  14.4359570212725 9.28106793461087  13.4525132748538 7.98116011695906  L 17.9707592592593 3.4131537037037  L 17.9707592592593 7.98116011695906  L 19.9611760038986 7.98116011695906  L 19.9611760038986 0.0194931773879148  Z M 12.9947174269006 12.4595977582846  C 12.9892400966947 15.4803372895872  10.5418109348114 17.9277664514705  7.52107140350877 17.9332437816764  C 4.49806017881751 17.9332437816764  2.04742538011696 15.4826089829759  2.04742538011696 12.4595977582846  C 2.04742538011696 9.43658653359334  4.49806017881751 6.98595173489279  7.52107140350877 6.98595173489279  C 10.5440826282 6.98595173489279  12.9947174269006 9.43658653359334  12.9947174269006 12.4595977582846  Z " fill-rule="nonzero" fill="#3491fa" stroke="none" transform="matrix(1 0 0 1 226 39 )" />
  </g>
</svg>