<?xml version="1.0" encoding="utf-8"?>
<svg version="1.1" xmlns:xlink="http://www.w3.org/1999/xlink" width="62px" height="53px" xmlns="http://www.w3.org/2000/svg">
  <g transform="matrix(1 0 0 1 -157 -281 )">
    <path d="M 27.1707841031149 39.8496240601504  C 27.1707841031149 41.6102912325433  28.6019340327643 43.0375939849624  30.3673469387755 43.0375939849624  C 32.1327598447867 43.0375939849624  33.5639097744361 41.6102912325433  33.5639097744361 39.8496240601504  C 33.5639097744361 38.0889568877575  32.1327598447867 36.6616541353384  30.3673469387755 36.6616541353384  C 28.6019340327643 36.6616541353384  27.1707841031149 38.0889568877575  27.1707841031149 39.8496240601504  Z M 28.7690655209452 19.1278195488722  C 28.4760472610097 19.1278195488722  28.2363050483351 19.3669172932331  29 19.6591478696742  L 29 31.8796992481203  C 28.2363050483351 32.1719298245614  28.4760472610097 32.4110275689223  28.7690655209452 32.4110275689223  L 31.9656283566058 32.4110275689223  C 32.2586466165414 32.4110275689223  32.4983888292159 32.1719298245614  32 31.8796992481203  L 32 19.6591478696742  C 32.4983888292159 19.3669172932331  32.2586466165414 19.1278195488722  31.9656283566058 19.1278195488722  L 28.7690655209452 19.1278195488722  Z M 58.0708915145005 52  C 59.7091299677766 52.0701754385965  60.734693877551 50.3035087719298  59.915574650913 48.8822055137845  L 32.212030075188 1.06265664160401  C 31.7991407089152 0.352005012531329  31.0865735767991 0  30.3673469387755 0  C 29.6481203007519 0  28.9288936627283 0.352005012531329  28.5226638023631 1.06265664160401  L 0.819119226638022 48.8822055137845  C 0 50.3035087719298  1.02556390977444 52.0701754385965  2.66380236305049 52  L 58.0708915145005 52  Z M 52.9963480128894 47  L 7.73834586466166 47  L 30.3673469387755 7.96328320802005  L 52.9963480128894 47  Z " fill-rule="nonzero" fill="#ffffff" stroke="none" transform="matrix(1 0 0 1 157 281 )" />
  </g>
</svg>