<?xml version="1.0" encoding="utf-8"?>
<svg version="1.1" xmlns:xlink="http://www.w3.org/1999/xlink" width="14px" height="12px" xmlns="http://www.w3.org/2000/svg">
  <g transform="matrix(1 0 0 1 -273 -470 )">
    <path d="M 6.13533834586466 9.02255639097744  C 6.13533834586466 9.42119801491546  6.45850123320484 9.74436090225564  6.85714285714286 9.74436090225564  C 7.25578448108087 9.74436090225564  7.57894736842105 9.42119801491546  7.57894736842105 9.02255639097744  C 7.57894736842105 8.62391476703943  7.25578448108087 8.30075187969925  6.85714285714286 8.30075187969925  C 6.45850123320484 8.30075187969925  6.13533834586466 8.62391476703943  6.13533834586466 9.02255639097744  Z M 6.49624060150376 4.33082706766917  C 6.43007518796993 4.33082706766917  6.37593984962406 4.38496240601504  6.37593984962406 4.45112781954887  L 6.37593984962406 7.21804511278196  C 6.37593984962406 7.28421052631579  6.43007518796993 7.33834586466165  6.49624060150376 7.33834586466165  L 7.21804511278196 7.33834586466165  C 7.28421052631579 7.33834586466165  7.33834586466165 7.28421052631579  7.33834586466165 7.21804511278196  L 7.33834586466165 4.45112781954887  C 7.33834586466165 4.38496240601504  7.28421052631579 4.33082706766917  7.21804511278196 4.33082706766917  L 6.49624060150376 4.33082706766917  Z M 13.1127819548872 11.7894736842105  C 13.4827067669173 11.7894736842105  13.7142857142857 11.3894736842105  13.5293233082707 11.0676691729323  L 7.27368421052632 0.240601503759398  C 7.18045112781955 0.0796992481203009  7.01954887218045 0  6.85714285714286 0  C 6.69473684210526 0  6.53233082706767 0.0796992481203009  6.4406015037594 0.240601503759398  L 0.184962406015037 11.0676691729323  C 0 11.3894736842105  0.231578947368421 11.7894736842105  0.601503759398497 11.7894736842105  L 13.1127819548872 11.7894736842105  Z M 11.9669172932331 10.6481203007519  L 1.74736842105263 10.6481203007519  L 6.85714285714286 1.80300751879699  L 11.9669172932331 10.6481203007519  Z " fill-rule="nonzero" fill="#262626" stroke="none" transform="matrix(1 0 0 1 273 470 )" />
  </g>
</svg>