<?xml version="1.0" encoding="utf-8"?>
<svg version="1.1" xmlns:xlink="http://www.w3.org/1999/xlink" width="20px" height="13px" xmlns="http://www.w3.org/2000/svg">
  <g transform="matrix(1 0 0 1 -217 -709 )">
    <path d="M 19.8497448421053 8.42020833333333  C 19.8501237894737 6.17205333333333  18.0780261052632 4.34958333333333  15.8922431578947 4.34958333333333  C 15.7714743157895 4.34958333333333  15.6577202105263 4.37512833333333  15.5396056842105 4.38604833333333  C 14.7317627368421 2.00119833333333  12.5497713684211 0.278958333333334  9.95561157894738 0.278958333333334  C 7.36145157894737 0.278958333333334  5.17946021052633 2.00119833333333  4.3716172631579 4.38604833333333  C 4.25369242105263 4.37512833333333  4.13974884210527 4.34958333333333  4.01898000000001 4.34958333333333  C 1.83319684210527 4.34958333333333  0.0612888421052635 6.17205333333333  0.0612888421052635 8.42020833333333  C 0.0612888421052635 10.6683633333333  1.83319684210527 12.4908333333333  4.01898000000001 12.4908333333333  C 5.02873621052632 12.4908333333333  14.8822972631579 12.4908333333333  15.8920534736842 12.4908333333333  C 18.077836631579 12.4908333333333  19.8497448421053 10.6683633333333  19.8497448421053 8.42020833333333  Z " fill-rule="nonzero" fill="#f3f9ff" stroke="none" transform="matrix(1 0 0 1 217 709 )" />
  </g>
</svg>