<?xml version="1.0" encoding="utf-8"?>
<svg version="1.1" xmlns:xlink="http://www.w3.org/1999/xlink" width="18px" height="9px" xmlns="http://www.w3.org/2000/svg">
  <g transform="matrix(1 0 0 1 -81 -759 )">
    <path d="M 0.410502939825004 8.92025570571429  L 0.250480587717277 8.19904943428571  C 1.69216207388182 7.22211616928572  3.06574894738636 6.41437764285714  4.36339550931818 5.74657697142857  C 5.11347253302273 4.40246178714286  6.30098345331819 2.10865775092857  7.79551228138637 1.05835000464285  C 6.72672284134092 2.00680035757143  5.76895723200001 3.79952165228572  5.06210550272728 5.397042105  C 6.24043844740909 4.82382326071428  7.35171301063637 4.36716768142856  8.38897168125001 4.00509404978572  C 9.06680919047727 2.65354843957143  10.2797815745455 0.906957092571428  11.4031947326591 0.282809577428572  C 10.5047898716591 0.964232532857143  9.59217396913637 2.48590167842857  9.02077131102273 3.79286531835714  C 14.4128288209091 2.05710986500001  17.6422900568182 2.89998763742857  17.6422900568182 2.89998763742857  C 15.2801469987955 2.78342437242856  12.7414020053864 3.30834604207143  10.3577943261818 4.09069761128571  C 11.13792179325 4.77568092857143  12.0928747847046 5.52351236357143  12.9422811305455 6.04889856071428  C 11.8674224012727 5.63125210214285  10.56459472275 4.90509242  9.67388751129545 4.32351449071429  C 8.57297518125 4.71143962428572  7.51336371681819 5.14750691785714  6.52865631763637 5.59301693571429  C 6.87253414568182 6.11406857571428  7.40870524384091 6.79378876285714  7.94295192961364 7.30710068785714  C 7.91378967531818 7.28093962142857  8.09468450536364 7.48217772  8.82744180115909 8.00524171  C 8.78540078072728 7.97970001357142  7.16386068586364 7.24812230714286  6.01039706795455 5.83140656142857  C 2.7341577649091 7.36375686142857  0.410502939825004 8.92025570571429  0.410502939825004 8.92025570571429  Z " fill-rule="nonzero" fill="#c4e2fe" stroke="none" transform="matrix(1 0 0 1 81 759 )" />
  </g>
</svg>