<?xml version="1.0" encoding="utf-8"?>
<svg version="1.1" xmlns:xlink="http://www.w3.org/1999/xlink" width="13px" height="9px" xmlns="http://www.w3.org/2000/svg">
  <g transform="matrix(1 0 0 1 -25 -756 )">
    <path d="M 12.4579783324192 7.69890075578571  C 12.7929687718182 8.38094290907143  13.0421446323081 8.2922433755  12.8931807990556 8.58759889421429  C 12.834593113596 8.70369775221429  12.3368115827929 7.944256366  11.4783807856414 8.23837348900001  C 10.6200925399899 8.53249062921428  9.57477984351515 8.48280030242857  9.20001821601515 8.24936419071429  C 8.82525657269192 8.01592806178571  7.96597048236363 8.39657756028571  7.00832550265151 7.85044847592857  C 6.05068050711616 7.30416461792858  6.13392920649495 6.78713766071428  5.73764265060606 6.45076055078571  C 5.47050560175758 6.22413556385714  4.9038728515505 6.16438334935715  3.96447414737374 5.18868846285715  C 2.44589838251515 3.61129187164286  2.32729751241919 1.99024208971428  1.75581809191061 1.62306008263571  C 1.04720641960606 1.16779772779286  0.388486938417172 1.50015008263572  0.388486938417172 1.50015008263572  C 0.388486938417172 1.50015008263572  0.110231056751112 1.17847882369286  1.6094201461 0.923835309314289  C 3.10860922975253 0.669191796657145  3.12314924540404 0.190245271821429  3.56961309066162 0.125539503900713  C 4.01607693591919 0.0608337356357152  4.12013779036364 0.748603420900003  5.33978805986364 0.345508156728572  C 6.55943832936364 -0.0575871083035732  6.02559187034344 0.871049025949999  7.67388733241919 0.688386808007144  C 9.32218281031818 0.505724591785714  11.0222236124394 2.97630846285714  11.4249248750657 3.86485179321429  C 12.2987509652222 5.79271216814285  11.7925590541515 6.34410438264285  12.4579783324192 7.69890075578571  Z " fill-rule="nonzero" fill="#dceefd" stroke="none" transform="matrix(1 0 0 1 25 756 )" />
  </g>
</svg>