<?xml version="1.0" encoding="utf-8"?>
<svg version="1.1" xmlns:xlink="http://www.w3.org/1999/xlink" width="7px" height="8px" xmlns="http://www.w3.org/2000/svg">
  <g transform="matrix(1 0 0 1 -40 -743 )">
    <path d="M 0.018850226911765 0.664514694666674  C 0.018850226911765 0.664514694666674  1.00209664285294 0.0739774780350899  2.05015776418627 0.43684684849123  C 2.05015776418627 0.43684684849123  2.16384423108823 1.48013436021053  2.37363525089216 2.30274982449123  C 2.58342627069608 3.125517364  4.0816143032549 4.5461221031579  4.66345658422549 4.91355396722808  C 5.11984145502941 5.2019028228772  5.76456146768627 5.04784302322807  6.44563728961765 5.23764226035088  C 6.66854025229412 5.29969201452632  6.66496425885294 5.5427202028772  6.37173362363725 5.62043448350877  C 6.15583362950981 5.67776966884211  5.79689431121569 5.73115069529825  5.83384614420588 5.88201676294738  C 5.87079796065686 6.0328828305965  5.88688988979412 6.08702428392983  6.36711465071569 6.65246785333334  C 6.84733941163725 7.21791142273684  5.94470162663726 7.66336173480702  5.50142868216667 7.57849958021053  C 5.07648266066667 7.49713530807018  4.72260932067647 6.67497610329825  4.43265665877451 6.22359456982457  C 4.05404943444118 5.63457817312281  2.16116224841177 4.86823331684211  1.19475275403921 3.44671607557895  C 0.252928142215685 2.06124245607018  0.018850226911765 0.664514694666674  0.018850226911765 0.664514694666674  Z " fill-rule="nonzero" fill="#f1b282" stroke="none" transform="matrix(1 0 0 1 40 743 )" />
  </g>
</svg>