<?xml version="1.0" encoding="utf-8"?>
<svg version="1.1" xmlns:xlink="http://www.w3.org/1999/xlink" width="30px" height="31px" xmlns="http://www.w3.org/2000/svg">
  <g transform="matrix(1 0 0 1 -163 -723 )">
    <path d="M 27.5877532631579 1.93622847457627  C 25.8025738947369 0.155357288135596  23.1981762105263 -0.133856949152541  21.7699947368421 1.29102915254237  C 21.2423656842105 1.8174406779661  20.9194938947368 3.09894915254237  20.7285768421053 4.25296881355933  C 20.6616515789474 4.65794440677966  20.3730955789474 4.99142033898306  19.9814027368421 5.11682847457628  C 19.5897096842105 5.24223661016949  19.1614258947368 5.13801355932204  18.8705949473684 4.84766440677966  L 14.01292 0.0011979661016981  L 1.0843988631579 12.8998881355932  C -0.343592989473683 14.3245850847458  -0.343592989473683 16.6347050847458  1.0843988631579 18.0594020338983  L 14.01292 30.9580922033898  L 18.8705949473684 26.1116257627119  C 19.1614258947368 25.8214657627119  19.2660795789474 25.3939810169492  19.1403814736842 25.0033810169492  C 19.0146831578947 24.6125918644068  18.680436 24.3248908474576  18.274524 24.2579308474576  C 17.1180248421053 24.0672650847458  15.833552631579 23.7453274576271  15.3057341052632 23.2189159322034  C 13.8775526315789 21.7940298305085  14.1670566315789 19.1954522033898  15.952236 17.4145810169492  C 17.7374153684211 15.6337098305085  20.3420027368421 15.3448738983051  21.7699947368421 16.7695708474576  C 22.2976235789474 17.2959823728814  22.6204953684211 18.5774908474576  22.8114126315789 19.7315105084746  C 22.8785273684211 20.1361077966102  23.1672730526316 20.4690162711864  23.5585867368421 20.5944244067797  C 23.9500901052632 20.7196433898305  24.3787530526316 20.6161769491526  24.6693945263158 20.3262061016949  L 29.5270694736842 15.479739661017  L 24.6693945263158 10.633273220339  C 24.3787530526316 10.3433023728814  24.2750473684211 9.91562847457628  24.4005557894737 9.52502847457627  C 24.5260644210526 9.13442847457628  24.8599324210526 8.84634915254238  25.2654654736842 8.77957830508475  C 26.4219644210526 8.58891254237289  27.706436631579 8.26697491525424  28.2342551578947 7.74056338983051  C 29.6624366315789 6.3156772881356  29.3729328421053 3.71709966101695  27.5877532631579 1.93622847457627  Z " fill-rule="nonzero" fill="#224380" stroke="none" transform="matrix(1 0 0 1 163 723 )" />
  </g>
</svg>