<?xml version="1.0" encoding="utf-8"?>
<svg version="1.1" xmlns:xlink="http://www.w3.org/1999/xlink" width="4px" height="5px" xmlns="http://www.w3.org/2000/svg">
  <g transform="matrix(1 0 0 1 -146 -773 )">
    <path d="M 2.13934386971429 1.23474  C 1.83099469942857 0.880320000000012  1.84211008914286 0.682140000000004  1.65850030171429 0.460740000000001  C 1.55228656914286 0.332760000000007  1.213061312 0.380459999999999  0.700929979428573 0.806160000000006  C 0.18859280457143 1.23186000000001  -0.17245155222857 1.37244000000001  0.152982386057143 1.77096  C 0.347295883428572 2.00892  2.47157053714286 4.06668000000001  3.16607661714286 4.73034000000001  C 3.21177323428572 4.77408  3.28011229714286 4.79514  3.35359737142857 4.78847999999999  C 3.42708246857143 4.78164000000001  3.49850914285714 4.74780000000001  3.54914592 4.69506000000001  C 3.77310045714286 4.46286000000001  4.00570029714286 4.00530000000001  3.45260669714286 3.31356  C 3.09115065142857 2.77158  3.17225184 1.91352000000001  2.97423321142857 1.70292000000001  C 2.77621458285714 1.49232000000001  2.44789888 1.58916000000001  2.13934386971429 1.23474  Z " fill-rule="nonzero" fill="#0b224e" stroke="none" transform="matrix(1 0 0 1 146 773 )" />
  </g>
</svg>