<?xml version="1.0" encoding="utf-8"?>
<svg version="1.1" xmlns:xlink="http://www.w3.org/1999/xlink" width="3px" height="6px" xmlns="http://www.w3.org/2000/svg">
  <g transform="matrix(1 0 0 1 -94 -724 )">
    <path d="M 2.73763921164286 3.01834069192858  C 2.83968245042857 1.55147021242857  3.68813011157142 0.223918381464289  1.34113562122143 0.274692285564289  C 0.662656639164287 0.28939814171429  0.755550104657142 1.30534063071429  0.611945181607138 1.45363757071429  C 0.355751517357139 1.718188194  0.188574296342137 2.00859016428572  0.164846916942854 2.18506043464286  C 0.128713064975707 2.45456460635714  0.472062200585709 2.18506043464286  0.328147115699997 2.97762869964286  C 0.184232030814286 3.77019696464286  1.21365911362856 3.65316929264286  1.25165393592143 3.97731733957143  C 1.28964875821428 4.30146536928572  0.861160203692854 5.81260822014286  0.861160203692854 5.81260822014286  L 2.77951106807142 5.77406338592857  C 2.77951106807142 5.77406338592857  2.63559597285713 4.48521117142858  2.73763921164286 3.01834069192858  Z " fill-rule="nonzero" fill="#f1b282" stroke="none" transform="matrix(1 0 0 1 94 724 )" />
  </g>
</svg>