<?xml version="1.0" encoding="utf-8"?>
<svg version="1.1" xmlns:xlink="http://www.w3.org/1999/xlink" width="12px" height="29px" xmlns="http://www.w3.org/2000/svg">
  <g transform="matrix(1 0 0 1 -266 -739 )">
    <path d="M 5.33938128 28.8805974580645  C 6.7260434688 28.8805974580645  11.089015296 25.4331137548387  11.089015296 23.5975411677419  C 11.089015296 21.7619685806452  8.5593077184 21.2247770709677  8.5593077184 19.9711618903226  C 8.5593077184 18.7175467658065  11.9170358976 18.0460573787097  11.9170358976 15.7626568941935  C 11.9170358976 13.4794247032258  8.5593077184 13.7927864109677  8.5593077184 12.0467457296774  C 8.5593077184 10.3007050296774  10.238171808 10.3007050296774  10.238171808 8.15177071612903  C 10.238171808 6.00283640258064  5.8914526464 0.272120502961285  3.959635104 0.272120502961285  C 2.0278175424 0.272120502961285  0.0959999999999997 5.64470874193548  0.0959999999999997 7.43551537612903  C 0.0959999999999997 9.22632202903226  3.361745088 10.0322775870968  3.361745088 11.5543201729032  C 3.361745088 13.0763627774194  0.0959999999999997 13.1709434896774  0.0959999999999997 14.6684152922581  C 0.0959999999999997 16.1658871135484  4.051618176 17.5166073535484  4.051618176 18.6281831348387  C 4.051618176 19.739758916129  1.19979694272 20.4637557032258  1.19979694272 22.5679240451613  C 1.19979694272 24.6720923870968  3.952719072 28.8805974580645  5.33938128 28.8805974580645  Z " fill-rule="nonzero" fill="#e7f4fe" stroke="none" transform="matrix(1 0 0 1 266 739 )" />
  </g>
</svg>