<?xml version="1.0" encoding="utf-8"?>
<svg version="1.1" xmlns:xlink="http://www.w3.org/1999/xlink" width="2px" height="4px" xmlns="http://www.w3.org/2000/svg">
  <g transform="matrix(1 0 0 1 -90 -720 )">
    <path d="M 1.3200946086 3.94855681073333  L 1.95884186013334 3.3294660494  C 1.95884186013334 3.3294660494  1.63085607526667 2.54191325146667  1.54647138733334 2.38761012553333  C 1.4620866994 2.23330698353333  1.8198893738 1.0082730311  1.64576452806667 0.982989277660002  C 1.47149493773334 0.957850003720002  1.32241049006667 1.73225524266667  1.32241049006667 1.73225524266667  C 1.32241049006667 1.73225524266667  0.912645371866665 0.454631075976668  0.74488917606667 0.401029519358669  C 0.577277724866667 0.347427962740669  0.0699563850666664 1.22195686521333  0.134656128733332 1.65625950445333  C 0.199355888466675 2.09056213726667  0.722743621800009 2.8018302412  0.886012799266666 3.0042447434  C 1.0492819928 3.2066592456  1.3200946086 3.94855681073333  1.3200946086 3.94855681073333  Z " fill-rule="nonzero" fill="#f1b282" stroke="none" transform="matrix(1 0 0 1 90 720 )" />
  </g>
</svg>