<?xml version="1.0" encoding="utf-8"?>
<svg version="1.1" xmlns:xlink="http://www.w3.org/1999/xlink" width="19px" height="12px" xmlns="http://www.w3.org/2000/svg">
  <g transform="matrix(1 0 0 1 -82 -758 )">
    <path d="M 0.967089619460145 8.82568759931035  C 0.274930920969925 9.70765468965518  -0.00635663260651513 9.44281048206897  0.066879765646022 9.97548812827586  C 0.0957259393126793 10.1850318110345  1.02478196679348 9.26674585448276  1.99867658591305 10.1611181289655  C 2.97257122162319 11.0553409834483  4.31847685752899 11.5144840448276  4.88538637308333 11.3458924117241  C 5.4522958720471 11.1773007786207  6.39360777054711 12.2058887786207  7.82261430956522 11.8528628372414  C 9.25162084858334 11.4998368958621  9.34847223983696 10.6580747551724  9.98293859597102 10.34166652  C 10.4105494732246 10.12838634  11.152927413529 10.3265711110345  12.7269121269529 9.30052391586207  C 15.2715032895507 7.64195958896552  16.056926318442 5.19797970255172  16.9258985776812 4.923719492  C 18.0033704588406 4.58369659758621  18.7089807545652 5.4345758513793  18.7089807545652 5.4345758513793  C 18.7089807545652 5.4345758513793  19.1878570540217 5.08020474772414  17.3854943008333 3.9184474275862  C 15.5831317135507 2.75669010744828  15.752023815 2.00923759924138  15.2109711658696 1.68042424641379  C 14.669918599692 1.3516109102069  14.2684635676993 2.36091841158621  12.8787655537246 1.11307176951724  C 11.48906753975 -0.134774855931033  11.8026388865399 1.57355991006896  9.7828089215145 0.446477453862068  C 7.76282949195653 -0.680605002344827  4.63832561514493 2.26511416358621  3.7793672970942 3.43165422013793  C 1.91572516392392 5.96232122482758  2.34199089356523 7.07371034275862  0.967089619460145 8.82568759931035  Z " fill-rule="nonzero" fill="#f3f9ff" stroke="none" transform="matrix(1 0 0 1 82 758 )" />
  </g>
</svg>