<?xml version="1.0" encoding="utf-8"?>
<svg version="1.1" xmlns:xlink="http://www.w3.org/1999/xlink" width="7px" height="7px" xmlns="http://www.w3.org/2000/svg">
  <g transform="matrix(1 0 0 1 -341 -749 )">
    <path d="M 6.59111566750001 3.48694361750001  C 6.591273255 5.19785530250001  5.19769054 6.59000756750001  3.48482718500001 6.59000756750001  C 1.7721214175 6.59000756750001  0.378381115000002 5.19801271500001  0.378381115000002 3.48710103000001  C 0.378381115000002 1.77634675750001  1.77196383000001 0.384194492500005  3.48482718500001 0.384194492500005  C 3.65660205750001 0.384194492500005  3.79544026750001 0.523031932500005  3.79544026750001 0.694453672500006  C 3.79544026750001 0.865875395000006  3.6564444525 1.00471283500001  3.48482718500001 1.00471283500001  C 2.11425284 1.00471283500001  0.999764884999998 2.11793092000001  0.999764884999998 3.48694361750001  C 0.999764884999998 4.85595629750001  2.11425284 5.9691744  3.48482718500001 5.9691744  C 4.85540153 5.9691744  5.969889485 4.85595629750001  5.969889485 3.48694361750001  C 5.969889485 3.31536446500001  6.1088853 3.17668443750001  6.2805025675 3.17668443750001  C 6.45211985250001 3.17668443750001  6.59111566750001 3.31552187750001  6.59111566750001 3.48694361750001  Z " fill-rule="nonzero" fill="#ffffff" stroke="none" transform="matrix(1 0 0 1 341 749 )" />
  </g>
</svg>