<?xml version="1.0" encoding="utf-8"?>
<svg version="1.1" xmlns:xlink="http://www.w3.org/1999/xlink" width="4px" height="5px" xmlns="http://www.w3.org/2000/svg">
  <g transform="matrix(1 0 0 1 -284 -748 )">
    <path d="M 3.60127511111111 1.50865047272727  C 3.6385768 1.61152027272727  3.58462544 1.7824248  3.48632828444444 1.97753398181818  C 3.21689164444445 2.51232612727273  2.61045905777778 3.2293074  2.61045905777778 3.2293074  L 2.61045905777778 4.36283776363637  C 2.61045905777778 4.36283776363637  2.60613655111111 4.39799994545454  2.60613655111111 4.45753032727273  C 2.42299006222222 4.52916303636363  2.27714528 4.57528272727273  2.21422869333333 4.58542250909091  C 1.95663893333334 4.62598167272727  1.12447511111111 2.1564522  0.80733073777778 2.19684781818181  C 0.490186346666667 2.23724343636364  0.847033813333335 3.04695472727273  0.926279893333335 3.20886427272727  C 1.00552595555556 3.37077381818182  0.767787733333336 3.45172858181818  0.391248817777779 3.57324252727273  C 0.384845102222225 3.57520505454546  0.378121191111114 3.57684050909091  0.371077084444446 3.57765823636364  C 0.34017912888889 3.45908810909091  0.304158186666667 3.33593872727272  0.262053706666668 3.20886427272727  C -0.401372 1.20494741818182  1.61980309333333 0.223677418181819  1.61980309333333 0.223677418181819  C 1.62140403555556 0.224495145454543  1.62332513777778 0.224822236363638  1.62492608 0.226130600000002  C 1.65230199111111 0.239868381818179  1.78261776 0.304305109090912  1.96496376888889 0.398997654545458  C 2.50543800888889 0.680295054545455  3.50057656888889 1.23013334545455  3.60127511111111 1.50865047272727  Z " fill-rule="nonzero" fill="#f1b282" stroke="none" transform="matrix(1 0 0 1 284 748 )" />
  </g>
</svg>