<?xml version="1.0" encoding="utf-8"?>
<svg version="1.1" xmlns:xlink="http://www.w3.org/1999/xlink" width="4px" height="2px" xmlns="http://www.w3.org/2000/svg">
  <g transform="matrix(1 0 0 1 -40 -759 )">
    <path d="M 1.14667615466667 0.230254375000008  C 0.795756786592594 0.179506201666669  0.689773341259259 0.0547127866666699  0.475233266814813 0.0182320141666708  C 0.351076636296297 -0.00289806249999458  0.211320004370369 0.203886966666673  0.198775686592594 0.728344137500002  C 0.186231368814813 1.25280150916667  0.0878066831851862 1.52676910416668  0.471695119037037 1.59521571500001  C 0.80186811814815 1.65409081000001  3.00532661948148 1.76118558666667  3.61597781074074 1.78990073666667  C 3.66293860659259 1.79206772833334  3.70845197429629 1.76895120916667  3.74077773274074 1.72633015833334  C 3.77310349118519 1.68370890666667  3.78902512940741 1.62591750833334  3.78452203548148 1.56758426166667  C 3.76409730333333 1.31059290750001  3.62112419614815 0.91381854083334  2.96061737059259 0.788844576666669  C 2.47830424911111 0.653215400000008  2.03587564577778 0.0957084933333405  1.82020978 0.0731338224999973  C 1.60454393207407 0.0505589508333344  1.49759554059259 0.281002347500007  1.14667615466667 0.230254375000008  Z " fill-rule="nonzero" fill="#0b224e" stroke="none" transform="matrix(1 0 0 1 40 759 )" />
  </g>
</svg>