<?xml version="1.0" encoding="utf-8"?>
<svg version="1.1" xmlns:xlink="http://www.w3.org/1999/xlink" width="11px" height="17px" xmlns="http://www.w3.org/2000/svg">
  <g transform="matrix(1 0 0 1 -274 -750 )">
    <path d="M 0.469087611666667 12.5627314  C 0.199485861666666 13.3937371111111  2.85307364833334 16.6322979333333  6.89099126833333 16.6322979333333  C 9.46764432166667 16.6322979333333  10.9289088333333 12.7999188  10.42899825 12.0085009888889  C 9.92908761166667 11.2170831777778  8.352420945 13.3937371111111  8.00621466333333 12.7605009  C 7.66017347333334 12.1272646888889  11.1341231833333 9.11943504444444  10.49322065 8.32784723333334  C 9.85215287833334 7.53625942222222  8.65999476833333 9.35679244444444  8.39088831166666 9.00067134444444  C 8.121616745 8.64455024444445  11.1772133 5.51795701333333  10.5724666666667 4.76595712111111  C 9.96772007 4.01395722888889  9.30585025333333 5.9928417  8.77159965 5.55754489444445  C 8.23718393666667 5.12224807  11.00600875 1.16447910888889  9.73708098 0.254297597777778  C 8.46798813666667 -0.655883913333333  6.583582555 6.42830843  5.85303280833333 6.62624785444444  C 5.12231797 6.82418726  3.276379755 2.54988513666667  2.43042792666667 3.42047878555555  C 1.58431098833333 4.29124232111111  5.35312217 9.39655015555556  4.73780943166667 9.91102285555555  C 4.122496675 10.4254953666667  1.853582555 7.65519293333333  1.12286771666667 8.76331394444444  C 0.392152878333335 9.87143495555555  3.66105340333333 12.2856161  3.43024922166667 12.6023193  C 3.19944502166667 12.9188525  0.73835916 11.7315556888889  0.469087611666667 12.5627314  Z " fill-rule="nonzero" fill="#f3f9ff" stroke="none" transform="matrix(1 0 0 1 274 750 )" />
  </g>
</svg>