<?xml version="1.0" encoding="utf-8"?>
<svg version="1.1" xmlns:xlink="http://www.w3.org/1999/xlink" width="6px" height="9px" xmlns="http://www.w3.org/2000/svg">
  <g transform="matrix(1 0 0 1 -54 -760 )">
    <path d="M 5.7989331104 8.59736601081819  C 5.80645970106666 8.60179887170454  5.8155784502 8.60298097670455  5.82382876386666 8.60120783563636  C 5.83164484373333 8.59958244947728  5.8387372006 8.59544509840909  5.84336894746666 8.58923909645455  C 5.8532114196 8.57638377852273  5.84901390653333 8.55894784479545  5.83396070913333 8.55037763284091  C 5.8018279542 8.53205512036364  2.58956467693333 6.64646177065909  0.461130889466665 0.118328053431817  C 0.456354397999996 0.103551839522725  0.43970904213333 0.0954249087272743  0.421326783199993 0.0989712072954554  C 0.404102464999994 0.103256313272726  0.39425999286666 0.118771334590907  0.399181228933332 0.133695319840908  C 1.5148539684 3.55557219361364  2.92218222473333 5.67359548472727  3.90628432393333 6.84771388165909  C 4.97433689333333 8.1220150365  5.79068279673333 8.59263762368182  5.7989331104 8.59736601081819  Z " fill-rule="nonzero" fill="#f3f9ff" stroke="none" transform="matrix(1 0 0 1 54 760 )" />
  </g>
</svg>