<?xml version="1.0" encoding="utf-8"?>
<svg version="1.1" xmlns:xlink="http://www.w3.org/1999/xlink" width="12px" height="15px" xmlns="http://www.w3.org/2000/svg">
  <g transform="matrix(1 0 0 1 -164 -756 )">
    <path d="M 10.8776025182609 13.6909655172414  C 10.9005313669565 14.5776827586207  11.2386379408696 14.6305655172414  10.906169613913 14.8454482758621  C 10.775362413913 14.9299862068966  10.604523693913 13.8710275862069  9.44661679304348 13.6768137931035  C 8.28870989217391 13.4826  7.09810119652174 12.8310620689655  6.7872461426087 12.3780206896552  C 6.47639108869566 11.9249793103448  5.27074708173913 11.8184689655172  4.44944322782609 10.7120275862069  C 3.62813935304348 9.60577241379311  4.0034583026087 9.12740689655173  3.72304975304348 8.5574275862069  C 3.53398071652174 8.17328275862069  2.90625648 7.78671724137931  2.33735789217392 6.25404827586207  C 1.41776068173913 3.77619310344828  2.15223562434783 2.05843448275862  1.68426156521739 1.35643448275862  C 1.10408650434783 0.485917241379313  0.157989558260872 0.445137931034485  0.157989558260872 0.445137931034485  C 0.157989558260872 0.445137931034485  0.00707261217391419 -0.041979310344826  1.89005739130435 0.560772413793102  C 3.77285421913044 1.16352413793104  4.04781247304348 0.684786206896552  4.60261544347827 0.875462068965517  C 5.15741843478261 1.06613793103448  4.90839608347827 1.82586206896552  6.54574146782609 2.11708965517242  C 8.18308683130435 2.40813103448276  7.06164058434783 3.04607586206897  9.0795672626087 3.80784827586207  C 11.0974939408696 4.56962068965518  11.7473952626087 8.0606275862069  11.7382824 9.19630344827586  C 11.7180764243478 11.6600068965517  10.8317448208696 11.9301931034483  10.8776025182609 13.6909655172414  Z " fill-rule="nonzero" fill="#dceefd" stroke="none" transform="matrix(1 0 0 1 164 756 )" />
  </g>
</svg>