<?xml version="1.0" encoding="utf-8"?>
<svg version="1.1" xmlns:xlink="http://www.w3.org/1999/xlink" width="5px" height="2px" xmlns="http://www.w3.org/2000/svg">
  <g transform="matrix(1 0 0 1 -200 -735 )">
    <path d="M 3.80165744444445 0.470820000000003  C 3.48826517777777 0.498719999999999  3.15145853333334 0.251040000000003  2.96394351111112 0.0852600000000052  C 2.87368813333333 0.00552000000000419  2.73360220000001 -0.00419999999999732  2.63053895555556 0.0616800000000026  C 2.30173724444444 0.271920000000001  1.65073786666667 0.687899999999999  1.6423326888889 0.691140000000004  C 1.22927928888889 0.852600000000002  0.117197044444453 1.128  0.140011022222224 1.50888  C 0.169228955555556 1.99758  3.22270224444444 1.83288  4.41283239999999 1.72344  C 4.65418046666667 1.7013  4.84569795555556 1.39422  4.83589193333333 1.17606000000001  L 4.79686800000001 0.292439999999999  C 4.79486677777778 0.247439999999997  4.76644933333334 0.206760000000003  4.72202208888889 0.185879999999997  C 4.67759482222222 0.164999999999999  4.62436215555556 0.166800000000002  4.58193613333334 0.190740000000005  C 4.38821728888889 0.300719999999998  4.08543153333334 0.445800000000006  3.80165744444445 0.470820000000003  Z " fill-rule="nonzero" fill="#0b224e" stroke="none" transform="matrix(1 0 0 1 200 735 )" />
  </g>
</svg>