<?xml version="1.0" encoding="utf-8"?>
<svg version="1.1" xmlns:xlink="http://www.w3.org/1999/xlink" width="16px" height="18px" xmlns="http://www.w3.org/2000/svg">
  <g transform="matrix(1 0 0 1 -156 -743 )">
    <path d="M 7.85901058064516 8.09810742857144  C 9.83664708129032 6.87079542857143  13.3544491354839 4.43986971428572  15.6423869935484 1.43426057142858  L 14.4515660387097 0.33951085714286  C 14.4515660387097 0.33951085714286  9.64645039483871 4.81348800000001  8.19292380903226 5.16433371428572  C 6.73939724387097 5.51517942857143  4.18466347354839 4.19936914285714  3.34783523096774 4.94493942857143  C 2.32229768258064 5.85861942857143  2.46694385548387 10.0730262857143  2.46694385548387 11.0857577142857  C 2.46694385548387 13.3193211428572  -0.38972484129032 16.1918125714286  0.579292882580647 16.9814468571429  C 1.54831058580645 17.770896  6.29560497548388 17.5702011428572  7.09190253419355 16.8420342857143  C 7.88820009290323 16.1138674285714  7.04895490064516 13.3115451428571  7.08056138322581 12.1455154285714  C 7.11216786580645 10.9793005714286  8.59971790451613 10.5381051428571  8.66441822967742 9.68718857142857  C 8.69918538322581 9.22988571428572  8.26673426580645 8.59188342857143  7.85901058064516 8.09810742857144  Z " fill-rule="nonzero" fill="#ffcb01" stroke="none" transform="matrix(1 0 0 1 156 743 )" />
  </g>
</svg>