<?xml version="1.0" encoding="utf-8"?>
<svg version="1.1" xmlns:xlink="http://www.w3.org/1999/xlink" width="4px" height="5px" xmlns="http://www.w3.org/2000/svg">
  <g transform="matrix(1 0 0 1 -170 -739 )">
    <path d="M 1.0487514 4.90580000000001  L 0.261308200000002 3.86306  C 0.261308200000002 3.86306  0.944107200000005 2.83958  1.1146718 2.6477  C 1.2852364 2.45582  1.392042 0.6434  1.647979 0.664820000000006  C 1.903916 0.686059999999998  1.8614098 1.83752  1.8614098 1.83752  C 1.8614098 1.83752  2.864085 0.153080000000003  3.1202022 0.131660000000004  C 3.3761392 0.110420000000005  3.9308794 1.77344000000001  3.6961954 2.37050000000001  C 3.4615116 2.96756000000001  2.3927358 3.54122  2.0941126 3.77576000000001  C 1.7954894 4.0103  1.0487514 4.90580000000001  1.0487514 4.90580000000001  Z " fill-rule="nonzero" fill="#f1b282" stroke="none" transform="matrix(1 0 0 1 170 739 )" />
  </g>
</svg>