<?xml version="1.0" encoding="utf-8"?>
<svg version="1.1" xmlns:xlink="http://www.w3.org/1999/xlink" width="5px" height="3px" xmlns="http://www.w3.org/2000/svg">
  <g transform="matrix(1 0 0 1 -287 -776 )">
    <path d="M 1.25384288 0.792861200000004  C 0.87328162 0.752383800000004  0.856712000000002 0.288243200000011  0.6697633 0.268454200000008  C 0.263447080000002 0.225098400000007  0.0804606800000016 1.3532482  0.0563266600000034 1.5693074  C 0.0150826800000026 1.9400804  0.502265919999999 2.0719466  0.728117220000001 2.11800099999999  C 0.953968540000005 2.16405520000001  1.8161298 2.2057918  2.26098844000001 2.4815778  C 2.70602718 2.75736380000001  4.5225633 2.6222592  4.59280414 2.0706874  C 4.66304498 1.5192954  3.71317272 1.55293660000001  3.23679576 1.2224612  C 2.82669734 0.938040200000003  2.6917989 0.178864199999992  2.38472036 0.146122600000012  C 2.08736748 0.114460199999996  1.63440414 0.833338600000005  1.25384288 0.792861200000004  Z " fill-rule="nonzero" fill="#0b224e" stroke="none" transform="matrix(1 0 0 1 287 776 )" />
  </g>
</svg>