<?xml version="1.0" encoding="utf-8"?>
<svg version="1.1" xmlns:xlink="http://www.w3.org/1999/xlink" width="23px" height="30px" xmlns="http://www.w3.org/2000/svg">
  <g transform="matrix(1 0 0 1 -173 -751 )">
    <path d="M 22.5682395069767 8.35810344827587  L 15.5864193497674 8.35810344827587  C 15.1686970297674 8.35810344827587  14.7860418148837 8.13242068965518  14.5949068725581 7.77341379310345  C 14.4037719302326 7.41440689655173  14.4363342390698 6.98203448275863  14.6794917795349 6.65375172413794  C 15.3733193218605 5.71787586206897  16.06444936 4.60156551724138  16.06444936 3.86865517241379  C 16.06444936 1.88499310344828  13.9847008902326 0.277096551724144  11.4192153348837 0.277096551724144  C 8.85353711441861 0.277096551724144  6.77398130976745 1.88499310344828  6.77398130976745 3.86865517241379  C 6.77398130976745 4.60156551724138  7.46511136930233 5.71768965517242  8.15893889023256 6.65375172413794  C 8.40248180372094 6.98203448275863  8.4354294427907 7.41459310344828  8.24429452186047 7.77397241379311  C 8.05315957953489 8.13335172413793  7.67011901302326 8.35810344827587  7.25220400651163 8.35810344827587  L 0.270576616046512 8.35810344827587  L 0.270576616046512 26.315524137931  C 0.270576616046512 28.299  1.93433686204652 29.9070827586207  3.98691796930233 30  L 22.5682395069767 30  L 22.5682395069767 8.35810344827587  Z " fill-rule="nonzero" fill="#44d690" stroke="none" transform="matrix(1 0 0 1 173 751 )" />
  </g>
</svg>