<?xml version="1.0" encoding="utf-8"?>
<svg version="1.1" xmlns:xlink="http://www.w3.org/1999/xlink" width="4px" height="6px" xmlns="http://www.w3.org/2000/svg">
  <g transform="matrix(1 0 0 1 -158 -742 )">
    <path d="M 3.5486165 2.20978  C 3.50322864 1.9405  3.69846842 1.84906  3.69846842 1.68382  C 3.69846842 1.34884  2.8813071 0.48124  2.57800102 0.499780000000001  C 1.98471704 0.415720000000007  0.89414798 0.572320000000005  0.483676160000002 1.5463  C 0.0202518600000019 2.64646  0.618939140000002 5.65714000000001  0.792745780000001 5.8888  C 0.966552400000005 6.12046  3.12949936 5.77306  3.07726732 5.65714000000001  C 3.02503528 5.5414  2.5500839 4.22902000000001  2.51154026 4.01662  C 2.4729966 3.80422  3.67019108 3.57274  3.64353472 2.74276  C 3.63578998 2.503  3.58878114 2.44954000000001  3.5486165 2.20978  Z " fill-rule="nonzero" fill="#f1b282" stroke="none" transform="matrix(1 0 0 1 158 742 )" />
  </g>
</svg>