<?xml version="1.0" encoding="utf-8"?>
<svg version="1.1" xmlns:xlink="http://www.w3.org/1999/xlink" width="4px" height="4px" xmlns="http://www.w3.org/2000/svg">
  <g transform="matrix(1 0 0 1 -204 -729 )">
    <path d="M 2.46740329142858 0.825659999999999  C 2.18437250285714 1.16604  1.43799460571428 1.03032  1.34577803428572 1.13652  C 1.25356146285714 1.24272  1.48677883428572 1.71612  1.32560566857144 2.43378  C 1.19489689142857 3.01608  0.0847987199999969 3.11022  0.309988297142857 3.56238  C 0.520151519999997 3.98448  2.15390811428571 3.80880000000001  2.75084576 3.1806  C 2.79345476571429 3.1356  3.58841104 1.75698  3.94389769142858 1.13868  C 4.04290699428572 0.9666  3.99247606857143 0.757080000000002  3.82204006857143 0.634860000000003  L 2.99312011428572 0.0406800000000018  C 2.95339286857143 0.012240000000002  2.89946265142857 0.00450000000000017  2.85129595428573 0.0201600000000042  C 2.80333510857143 0.0360000000000014  2.76834219428572 0.0729000000000042  2.76010857142858 0.117180000000001  C 2.72182224 0.319860000000002  2.63928016 0.619020000000003  2.46740329142858 0.825659999999999  Z " fill-rule="nonzero" fill="#0b224e" stroke="none" transform="matrix(1 0 0 1 204 729 )" />
  </g>
</svg>