<?xml version="1.0" encoding="utf-8"?>
<svg version="1.1" xmlns:xlink="http://www.w3.org/1999/xlink" width="5px" height="4px" xmlns="http://www.w3.org/2000/svg">
  <g transform="matrix(1 0 0 1 -41 -735 )">
    <path d="M 3.12137171770833 0.368619646460002  C 3.59721164055556 0.560631692140004  4.21372287847222 0.362262588626669  4.21372287847222 0.362262588626669  C 4.21372287847222 0.362262588626669  4.93396600583334 1.27478936036667  4.66875611652778 1.79736841820001  C 4.45511062069444 2.2180900712  4.12974226118055 2.53030830253334  3.21937423381944 2.10583019860001  C 2.781076805625 1.90139299946667  2.50802671770834 3.0169121898  2.39720847430556 2.96518885013334  C 2.20331426736111 2.87474526153334  2.24568151506944 2.2283480434  2.02163266847222 2.12389003166667  C 1.70139059652778 1.97449916053334  1.08307008458333 3.79391804046667  0.751520024861113 3.639470427  C 0.303271572777778 3.430409916  -0.214784822152776 2.46298127326667  0.368857865069444 1.31350962215334  C 1.15272725180556 -0.229955149586664  2.64553179486111 0.176607601631537  3.12137171770833 0.368619646460002  Z " fill-rule="nonzero" fill="#0b224e" stroke="none" transform="matrix(1 0 0 1 41 735 )" />
  </g>
</svg>