<?xml version="1.0" encoding="utf-8"?>
<svg version="1.1" xmlns:xlink="http://www.w3.org/1999/xlink" width="11px" height="9px" xmlns="http://www.w3.org/2000/svg">
  <g transform="matrix(1 0 0 1 -48 -761 )">
    <path d="M 10.9306223622716 8.91554082714286  C 10.9387306094136 8.92498353421429  10.9521460603704 8.92885351221429  10.9643821436111 8.92637672078571  C 10.9686573884012 8.92544794121428  10.9729326495555 8.92374515571429  10.9766182104877 8.9212683815  C 10.9910656368333 8.9115160755  10.9940140888518 8.89309505114286  10.9831048147469 8.88009198221429  C 10.9701316225926 8.86476692992857  9.66986434788271 7.32421237021429  7.7157778667037 5.48582551757143  C 5.91162016330246 3.78846009035714  3.16498982209259 1.48258179921428  0.325630659172836 0.136299353571425  C 0.309709031364196 0.128869013714283  0.289806976148143 0.134132161071428  0.2812564702037 0.148528433785718  C 0.272705947895058 0.162769898428572  0.278897702043207 0.180571707714283  0.294966771271599 0.188311646499995  C 3.12621768704938 1.53087893942857  5.86695112422222 3.83180366492857  7.66757067538271 5.52591832921429  C 9.61944581345679 7.3619831985  10.9177965951728 8.90021579207143  10.9306223622716 8.91554082714286  Z " fill-rule="nonzero" fill="#f3f9ff" stroke="none" transform="matrix(1 0 0 1 48 761 )" />
  </g>
</svg>