<?xml version="1.0" encoding="utf-8"?>
<svg version="1.1" xmlns:xlink="http://www.w3.org/1999/xlink" width="18px" height="16px" xmlns="http://www.w3.org/2000/svg">
  <g transform="matrix(1 0 0 1 -160 -764 )">
    <path d="M 17.1223740205714 14.3475406451613  C 17.4132267428571 15.4389677419355  17.8424660777143 15.4051509677419  17.4991857531429 15.7691458064516  C 17.3641337691429 15.9122167741936  16.8415251428571 14.6509625806452  15.367068576 14.7509264516129  C 13.8926119885714 14.8508903225806  12.2427175062857 14.3941780645161  11.7284454308571 13.9244593548387  C 11.2141733554286 13.4547406451613  9.70711162971429 13.6773367741936  8.37456154971429 12.5483767741935  C 7.04201144914286 11.4196025806452  7.35991162971429 10.7166967741935  6.84804789257143 10.0931303225806  C 6.50310027428572 9.67283612903226  5.62035299657143 9.37870451612904  4.470651072 7.64735999999999  C 2.61197249142857 4.84837161290323  3.00230796342857 2.50460903225807  2.22182228571429 1.77253161290323  C 1.25404226948571 0.864867096774193  0.0845179119771424 1.09266580645161  0.0845179119771424 1.09266580645161  C 0.0845179119771424 1.09266580645161  -0.244312395428569 0.533574193548387  2.23812485485714 0.726441290322584  C 4.72056210514286 0.919308387096774  4.91526670628572 0.245202580645164  5.65054979657143 0.318410322580649  C 6.38583288685714 0.391432258064521  6.30598733485714 1.40593548387097  8.39586604114286 1.28478967741936  C 10.4855594811429 1.16364387096774  9.30214090285714 2.28387096774194  11.9968821051429 2.63393032258064  C 14.691623328 2.98398967741936  16.5202903542857 7.11725419354839  16.8450450171429 8.52659612903227  C 17.5497607748571 11.5844129032258  16.54511472 12.1797367741936  17.1223740205714 14.3475406451613  Z " fill-rule="nonzero" fill="#f3f9ff" stroke="none" transform="matrix(1 0 0 1 160 764 )" />
  </g>
</svg>