<?xml version="1.0" encoding="utf-8"?>
<svg version="1.1" xmlns:xlink="http://www.w3.org/1999/xlink" width="17px" height="16px" xmlns="http://www.w3.org/2000/svg">
  <g transform="matrix(1 0 0 1 -163 -764 )">
    <path d="M 16.07825016125 15.6594986666667  L 16.61331343125 15.2084906666667  C 15.51218539375 13.5584426666667  14.4016803475 12.0804266666667  13.305145115 10.7565866666667  C 13.1482238525 9.25937066666667  12.982308315 6.76202666666666  11.85936439 5.02269866666667  C 12.564170535 6.41719466666667  12.72645009125 8.38769066666667  12.70980114125 10.0515626666667  C 11.697658945 8.87498666666667  10.70140023125 7.82954666666666  9.739396305 6.90276266666666  C 9.66571985625 5.44509866666667  9.19935749625 3.35018666666667  8.27294789375 2.16919466666667  C 8.92302296375 3.25303466666667  9.17046100250001 4.98794666666666  9.14941060375 6.34481066666667  C 4.0762607225 1.63889066666667  0.100985673750002 0.25917866666667  0.100985673750002 0.25917866666667  C 2.75984436625 1.65060266666667  5.29393151625 3.64279466666667  7.5291028 5.73444266666667  C 6.32922917875 5.76900266666667  4.90564705375 5.74193066666667  3.70902668 5.61117866666667  C 5.100459085 5.96561066666666  6.89625079125 6.22730666666666  8.16635623625 6.34097066666667  C 9.18538766125 7.32746666666667  10.13514408625 8.32471466666666  10.9976369825 9.28221866666666  C 10.35980941375 9.46481066666667  9.43110340875 9.64836266666666  8.58736453 9.70596266666666  C 8.63252724000001 9.70423466666668  8.33322861875 9.74474666666667  7.26616397 9.68522666666668  C 7.3251051375 9.69194666666667  9.47454380625 10.1492906666667  11.44964677375 9.78948266666666  C 14.2943232225 13.0137386666667  16.07825016125 15.6594986666667  16.07825016125 15.6594986666667  Z " fill-rule="nonzero" fill="#c4e2fe" stroke="none" transform="matrix(1 0 0 1 163 764 )" />
  </g>
</svg>