<?xml version="1.0" encoding="utf-8"?>
<svg version="1.1" xmlns:xlink="http://www.w3.org/1999/xlink" width="4px" height="2px" xmlns="http://www.w3.org/2000/svg">
  <g transform="matrix(1 0 0 1 -93 -748 )">
    <path d="M 2.94679678355556 0.486159111666666  C 3.28549339925927 0.461417047500007  3.39453251037038 0.344028156666667  3.60199637851852 0.323259379166672  C 3.72197153407408 0.311339920833333  3.84275091555556 0.529683109166669  3.82184371925926 1.05793301750001  C 3.80093652296297 1.58618292583334  3.87797154814815 1.86899963916667  3.50662732296296 1.90891185  C 3.28485019703704 1.9327509675  1.17306174044445 1.8883238225  0.487948743481487 1.86863854083333  C 0.442917839925927 1.867374295  0.40078177481482 1.84064578833333  0.37263747348148 1.79531569666668  C 0.3444931542963 1.75016615416666  0.332752955333338 1.69056866166667  0.340794179185195 1.63241596416667  C 0.376497258074071 1.37560536000001  0.537965205111113 0.987499763333332  1.17740400703704 0.91146787833334  C 1.64701198340741 0.8114165275  2.1050405702963 0.283889016666663  2.31266519437037 0.277567988333331  C 2.52028981844445 0.27124716083334  2.60810007859259 0.510900974999998  2.94679678355556 0.486159111666666  Z " fill-rule="nonzero" fill="#0b224e" stroke="none" transform="matrix(1 0 0 1 93 748 )" />
  </g>
</svg>