<?xml version="1.0" encoding="utf-8"?>
<svg version="1.1" xmlns:xlink="http://www.w3.org/1999/xlink" width="5px" height="3px" xmlns="http://www.w3.org/2000/svg">
  <g transform="matrix(1 0 0 1 -284 -734 )">
    <path d="M 3.63380098 0.99436662857143  C 4.0629905 1.13838908571429  4.2425549 1.08966205714286  4.50766904 1.1733924  C 4.66093814 1.22181102857143  4.72847742 1.47068914285714  4.50334652 1.91940994285714  C 4.27839574 2.36813057142857  4.18239992 2.77059154285714  3.70674338 2.62363937142857  C 3.40794966 2.53127382857143  2.110115106 1.68934422857143  1.06028474 1.25326782857143  C 0.680984216000002 1.09567577142857  0.366881599000003 0.728064  0.245671127800001 0.372479828571428  C 0.220996782200004 0.299851885714286  0.245671127800001 0.221364171428572  0.308707777000002 0.172945542857144  C 0.371744426200003 0.124526914285713  0.460896258000002 0.115274914285715  0.535459610000004 0.149507314285713  C 1.36682296 0.530842800000001  1.35079364 0.600386742857143  2.21205438 0.5203572  C 2.52471616 0.491367771428572  2.79235176 0.453434571428571  2.92598946 0.502778400000001  C 3.18588056 0.598844742857144  3.20443134 0.850035942857145  3.63380098 0.99436662857143  Z " fill-rule="nonzero" fill="#0b224e" stroke="none" transform="matrix(1 0 0 1 284 734 )" />
  </g>
</svg>