<?xml version="1.0" encoding="utf-8"?>
<svg version="1.1" xmlns:xlink="http://www.w3.org/1999/xlink" width="4px" height="3px" xmlns="http://www.w3.org/2000/svg">
  <g transform="matrix(1 0 0 1 -31 -758 )">
    <path d="M 1.80594318667407 0.862952397857149  C 1.53495365545185 0.667596592857149  1.50761346579259 0.531838366428575  1.3445372722 0.408463925000005  C 1.2502940294 0.337101931428569  1.02948178714074 0.418371090714292  0.758170606607406 0.780289914285721  C 0.486859426074075 1.14220873785715  0.267494607321481 1.28942221071429  0.557622270948147 1.51217713357143  C 0.73983659765926 1.65226991714286  1.75319270322222 2.26558152142857  2.48140670251852 2.70226801285714  C 2.7445158282963 2.86000767714286  3.21219391237037 2.76171066285714  3.53689887140741 2.66109161357144  C 3.60315862592593 2.64050332785715  3.65590911651852 2.58632394571429  3.67118744540741 2.52316610857143  C 3.68630496481482 2.46000827142858  3.66089467459259 2.40010135214286  3.6066967737037 2.37068971214286  C 3.00167444985185 2.04267167  2.95278374385185 2.08694405857143  2.70028904355555 1.51202237714286  C 2.60861899881482 1.30319932  2.54059017933333 1.11821512214286  2.45261909185185 1.05954642642857  C 2.28182332014815 0.945614709285719  2.0769327178963 1.05830803071428  1.80594318667407 0.862952397857149  Z " fill-rule="nonzero" fill="#0b224e" stroke="none" transform="matrix(1 0 0 1 31 758 )" />
  </g>
</svg>