<?xml version="1.0" encoding="utf-8"?>
<svg version="1.1" xmlns:xlink="http://www.w3.org/1999/xlink" width="10px" height="15px" xmlns="http://www.w3.org/2000/svg">
  <g transform="matrix(1 0 0 1 -166 -757 )">
    <path d="M 8.21349581052632 10.5228642857143  C 8.36478863157895 9.34836428571429  8.69126261052632 7.40455714285715  8.15661882105263 5.86536428571428  C 8.437212 7.06262142857143  8.20420589473684 8.60085000000001  7.89138240000001 9.8712  C 7.33948591578948 8.78445000000001  6.77640364210526 7.80184285714286  6.21730273684211 6.91547142857143  C 6.42471418947368 5.78648571428571  6.45068802105263 4.09647857142857  5.96438968421053 3.02187857142857  C 6.25977088421052 3.97092857142857  6.13350395789474 5.34445714285714  5.87281770526316 6.37894285714286  C 2.89265254736843 1.84506428571428  0.141322505263162 0.0567000000000003  0.141322505263162 0.0567000000000003  C 1.89711547368421 1.61055  3.45042631578948 3.60122142857143  4.76011402105263 5.61310714285714  C 3.84837572631579 5.41870714285714  2.77889854736842 5.13617142857143  1.89920096842105 4.81583571428572  C 2.88563770526316 5.34310714285715  4.19342951578947 5.87346428571429  5.13152082105263 6.19437857142858  C 5.72247284210527 7.13629285714286  6.25939170526316 8.07396428571429  6.73753768421053 8.96515714285714  C 6.22299044210527 8.98791428571429  5.49117305263158 8.95840714285715  4.8427752631579 8.84693571428572  C 4.87709105263158 8.85407142857143  4.64389534736842 8.82977142857143  3.84932366315789 8.58792857142857  C 3.89255018947369 8.60393571428572  5.43202096842106 9.34797857142857  6.98722770526316 9.43630714285714  C 8.55324109473685 12.4273285714286  9.42270082105263 14.7807642857143  9.42270082105263 14.7807642857143  L 9.9080512 14.5341  C 9.37454494736842 13.0689642857143  8.80236233684211 11.7374785714286  8.21349581052632 10.5228642857143  Z " fill-rule="nonzero" fill="#b8ddfe" stroke="none" transform="matrix(1 0 0 1 166 757 )" />
  </g>
</svg>