<?xml version="1.0" encoding="utf-8"?>
<svg version="1.1" xmlns:xlink="http://www.w3.org/1999/xlink" width="3px" height="6px" xmlns="http://www.w3.org/2000/svg">
  <g transform="matrix(1 0 0 1 -166 -736 )">
    <path d="M 1.066495 5.89854545454546  L 0.134423120000001 4.91181818181818  C 0.134423120000001 4.91181818181818  0.612976799999998 3.65646545454546  0.736172199999999 3.41061818181819  C 0.859367800000001 3.16477090909091  0.337047440000006 1.21213090909092  0.591363400000006 1.17207272727273  C 0.845679400000002 1.13201454545455  1.0630728 2.36635636363637  1.0630728 2.36635636363637  C 1.0630728 2.36635636363637  1.6610396 0.330065454545454  1.9058098 0.24445090909091  C 2.1504 0.159032727272729  2.890654 1.55282181818183  2.7962762 2.24500363636364  C 2.7018982 2.93718545454546  1.9380496 4.07079272727273  1.6997634 4.39341818181819  C 1.4614772 4.71604363636364  1.066495 5.89854545454546  1.066495 5.89854545454546  Z " fill-rule="nonzero" fill="#f1b282" stroke="none" transform="matrix(1 0 0 1 166 736 )" />
  </g>
</svg>