<?xml version="1.0" encoding="utf-8"?>
<svg version="1.1" xmlns:xlink="http://www.w3.org/1999/xlink" width="8px" height="14px" xmlns="http://www.w3.org/2000/svg">
  <g transform="matrix(1 0 0 1 -88 -747 )">
    <path d="M 1.32339888 9.62056714136274  C 1.12472118596491 8.41482957267647  0.730108293333339 6.40819194605882  1.10171480168421 4.93206694605882  C 0.929243058666675 6.09943270739216  1.219793944 7.68383164980392  1.56336618231579 9.0094439652549  C 1.97610993621053 7.99214471004902  2.40485152378948 7.08118596294118  2.83542143038597 6.26690038697059  C 2.59088331361404 5.09893971004902  2.47006169277194 3.39109656042157  2.82719397789474 2.37647440882353  C 2.62760212435088 3.2915975485098  2.81637640961404 4.6945483942549  3.10144232098246 5.77475956770588  C 5.40848035607017 1.62643931944118  7.67788542091228 0.214267333349998  7.67788542091228 0.214267333349998  C 6.25362235249123 1.53155087852941  5.02956055473685 3.31821984742157  4.01682235522807 5.16066181365686  C 4.79203102238597 5.09432915558823  5.69811708189474 4.96136634857843  6.4382828945965 4.76340943530392  C 5.61812798112281 5.15486142801961  4.52082988329825 5.50377722080392  3.73023283340351 5.69385156042157  C 3.27513294898246 6.55974574115686  2.86665526715789 7.42891192454902  2.50601868982457 8.25955757996078  C 2.95106281964913 8.35563585204902  3.58076749157895 8.42985110031372  4.13368262947369 8.4097728232549  C 4.10442947445614 8.41200374844117  4.30417367382456 8.42077869548039  4.97562504224562 8.28989809302941  C 4.93921095698246 8.2998628712451  3.65466218435088 8.8312678712451  2.31815856407019 8.69919743761765  C 1.14132845368421 11.4927547050784  0.528078669824565 13.7424138278824  0.528078669824565 13.7424138278824  L 0.0950710101754483 13.4247309050098  C 0.470029431087728 12.022969873902  0.886125131368425 10.7616080450392  1.32339888 9.62056714136274  Z " fill-rule="nonzero" fill="#b8ddfe" stroke="none" transform="matrix(1 0 0 1 88 747 )" />
  </g>
</svg>