<?xml version="1.0" encoding="utf-8"?>
<svg version="1.1" xmlns:xlink="http://www.w3.org/1999/xlink" width="3px" height="5px" xmlns="http://www.w3.org/2000/svg">
  <g transform="matrix(1 0 0 1 -275 -766 )">
    <path d="M 2.34228686 1.3189918  C 2.39974026 0.941203000000002  2.86459052 0.945340599999994  2.89286696 0.759684399999998  C 2.95446278 0.356169800000004  1.834391572 0.123019999999997  1.619346546 0.0893787999999986  C 1.250492096 0.0316310000000044  1.096682672 0.511782799999999  1.040490002 0.735038199999998  C 0.984297332000001 0.958293400000002  0.90397063 1.8167738  0.608238694000001 2.2483528  C 0.312506756020003 2.6801114  0.366358065 4.4988954  0.914776914000001 4.5937024  C 1.463195762 4.6885094  1.471840788 3.7391798  1.823765394 3.27863719999999  C 2.12670152 2.8821386  2.89196644 2.781395  2.93843346 2.47646520000001  C 2.98345964 2.1812502  2.284653352 1.6969608  2.34228686 1.3189918  Z " fill-rule="nonzero" fill="#0b224e" stroke="none" transform="matrix(1 0 0 1 275 766 )" />
  </g>
</svg>