<?xml version="1.0" encoding="utf-8"?>
<svg version="1.1" xmlns:xlink="http://www.w3.org/1999/xlink" width="14px" height="14px" xmlns="http://www.w3.org/2000/svg">
  <g transform="matrix(1 0 0 1 -42 -739 )">
    <path d="M 6.90036269423529 0.210392948197359  C 10.6707901295882 0.210541676267456  13.7245308930882 3.25872120391177  13.7245308930882 7.02213349785294  C 13.7245308930882 8.49230939158824  13.2581630674706 9.85465748825491  12.4620597790294 10.9672913627941  C 12.024150816451 11.5916513363137  11.4782173559118 12.1365905749804  10.8527182769902 12.5737020496569  C 9.73805446181372 13.3683555435294  8.37336982052941 13.8338740638824  6.90036269423529 13.8338740638824  C 3.13008424413726 13.8338740638824  0.0761944776853921 10.7856945289608  0.0761944776853921 7.02213349785294  C 0.0761944776853921 5.55195762065687  0.542562304460785 4.18960950745098  1.3386655962098 3.07697564945098  C 1.77657455548039 2.45261567593138  2.32250801601961 1.90767642072549  2.94800709494117 1.47056495101079  C 4.06267091011764 0.675911462100004  5.42735555140196 0.210392948197359  6.90036269423529 0.210392948197359  Z " fill-rule="nonzero" fill="#ffe18d" stroke="none" transform="matrix(1 0 0 1 42 739 )" />
  </g>
</svg>