<?xml version="1.0" encoding="utf-8"?>
<svg version="1.1" xmlns:xlink="http://www.w3.org/1999/xlink" width="15px" height="10px" xmlns="http://www.w3.org/2000/svg">
  <g transform="matrix(1 0 0 1 -87 -752 )">
    <path d="M 0.990117621214292 8.89088737133334  C 0.560698570857141 9.69346594086667  0.297061027714294 9.56748060413333  0.431981417642865 9.936623405  C 0.485019096714284 10.0818243947333  1.09944966400001 9.19718198333333  2.00837887450001 9.61674780033334  C 2.917308085 10.0361691458667  4.06258060742858 10.052495241  4.49339537485715 9.79691260413333  C 4.92421014228572 9.54132998333333  5.82616071578572 10.0659317461333  6.922272595 9.4735695236  C 8.01838447421429 8.8813517886  7.9760473845 8.24795764513333  8.43989438657143 7.86913479006666  C 8.75253748942857 7.61384112826667  9.37642799528571 7.58292270806667  10.4928554342857 6.4684148662  C 12.2978421485714 4.66676686033333  12.5793139671429 2.70937093353333  13.2373222921429 2.30598670806667  C 14.0532030035714 1.80580182813333  14.7408317778571 2.25700847086666  14.7408317778571 2.25700847086666  C 14.7408317778571 2.25700847086666  15.0745658235714 1.887287752  13.4626548821429 1.46873328346667  C 11.8508990414286 1.05017879886667  11.8797439871429 0.468363523599999  11.3986830264286 0.357115015533333  C 10.9176220657143 0.2458664914  10.7395891685714 1.07242851333333  9.4465245667143 0.494369672933334  C 8.15345994764285 -0.0836891674666674  8.64894345007143 1.0815306656  6.86752903185715 0.739260874999996  C 5.08611461364286 0.396991100466664  2.99965604635714 3.26879202286667  2.4768782955 4.31683971246666  C 1.34277161292858 6.59078822346667  1.84321770128571 7.29656613853333  0.990117621214292 8.89088737133334  Z " fill-rule="nonzero" fill="#dceefd" stroke="none" transform="matrix(1 0 0 1 87 752 )" />
  </g>
</svg>