<?xml version="1.0" encoding="utf-8"?>
<svg version="1.1" xmlns:xlink="http://www.w3.org/1999/xlink" width="3px" height="3px" xmlns="http://www.w3.org/2000/svg">
  <g transform="matrix(1 0 0 1 -352 -776 )">
    <path d="M 1.33474822285714 1.8683706857143  C 1.46287985142857 1.78942062857144  2.44146594857142 0.389442685714288  2.59012952571428 0.316506342857151  C 2.77244694857142 0.226916400000009  3.01064828571428 0.908786742857152  2.92157365714285 1.21487297142858  C 2.92821179999999 1.21132628571429  2.168067 1.6861068  2.168067 1.6861068  L 2.05676228571428 1.48395120000001  C 2.05676228571428 1.48395120000001  1.52509316571429 2.1533316  1.14841702285714 2.36011320000001  C 0.761243365714287 2.5727544  0.429490474285712 2.72279057142858  0.394910365714281 2.65987714285715  C 0.346282097142859 2.57152080000001  0.679887479999999 1.99250142857144  0.791964068571421 1.93097571428571  C 0.946802674285708 1.84585765714286  1.20646220571428 1.94747502857144  1.33474822285714 1.8683706857143  Z " fill-rule="nonzero" fill="#0b224e" stroke="none" transform="matrix(1 0 0 1 352 776 )" />
  </g>
</svg>