<?xml version="1.0" encoding="utf-8"?>
<svg version="1.1" xmlns:xlink="http://www.w3.org/1999/xlink" width="2px" height="23px" xmlns="http://www.w3.org/2000/svg">
  <g transform="matrix(1 0 0 1 -271 -747 )">
    <path d="M 0.521692139999999 22.5999428816327  C 0.5081843 22.6696925877551  0.4435267 22.7188382367347  0.370584300000001 22.7188382367347  C 0.36175916 22.7188382367347  0.35275392 22.7181626938775  0.3439288 22.7166426285714  C 0.26054032 22.7029629795918  0.204887960000001 22.6284844734694  0.219476439999999 22.5502906693878  C 1.72623246 14.4895668489796  1.64644608 8.8376534  1.31379268 5.51584957959183  C 0.95484398 1.92788258693878  0.23568586 0.226532651428567  0.22848168 0.209813022040811  C 0.196603140000001 0.136179057142855  0.23460524 0.0524119681632631  0.313130900000001 0.0226881763265277  C 0.39165654 -0.00703563428571937  0.48116858 0.0284302718367356  0.51268692 0.102233122448977  C 0.542944500000001 0.172320506122449  1.25597906 1.85948407918367  1.61925026 5.48899682612245  C 1.9533445 8.8283647232653  2.03439162 14.5076377142857  0.521692139999999 22.5999428816327  Z " fill-rule="nonzero" fill="#d0e7fe" stroke="none" transform="matrix(1 0 0 1 271 747 )" />
  </g>
</svg>