<?xml version="1.0" encoding="utf-8"?>
<svg version="1.1" xmlns:xlink="http://www.w3.org/1999/xlink" width="3px" height="3px" xmlns="http://www.w3.org/2000/svg">
  <g transform="matrix(1 0 0 1 -103 -746 )">
    <path d="M 1.42631267428572 0.554522949375004  C 1.62466118285714 0.326969092500001  1.61752758285714 0.199782848749999  1.73538897714285 0.0576972318750038  C 1.80362451214285 -0.0245202193749989  2.02151330071429 0.00622671125000451  2.35059501357143 0.279426721250005  C 2.67967672642858 0.552626580624999  2.91167761428571 0.64283544125  2.70262870571429 0.898562649999999  C 2.57778846785715 1.051213255  1.21307656285715 2.371702413125  0.766753686428578 2.797553028125  C 0.737443266428577 2.82559096812501  0.693400344285724 2.839135770625  0.646255752142866 2.83480138562501  C 0.599111160000007 2.830467000625  0.553207201428575 2.808659814375  0.52064018285714 2.774933069375  C 0.376725139285721 2.62593948875001  0.227382259285719 2.332286863125  0.582672550000004 1.88842149812501  C 0.814983811428574 1.54058936125  0.762876685000005 0.989990368125001  0.890042917142864 0.854948126875005  C 1.01720932142857 0.719770323125005  1.22811926642858 0.781941243750003  1.42631267428572 0.554522949375004  Z " fill-rule="nonzero" fill="#0b224e" stroke="none" transform="matrix(1 0 0 1 103 746 )" />
  </g>
</svg>