<?xml version="1.0" encoding="utf-8"?>
<svg version="1.1" xmlns:xlink="http://www.w3.org/1999/xlink" width="12px" height="8px" xmlns="http://www.w3.org/2000/svg">
  <g transform="matrix(1 0 0 1 -26 -758 )">
    <path d="M 9.32735230146667 5.09965397881481  C 9.01644610626667 4.12362084881482  8.55356060353333 2.47768864125926  7.64371123093333 1.48817084718519  C 8.25886551433333 2.31137773674074  8.64243229373333 3.60397952296296  8.87662515233333 4.71887262207407  C 8.11470230273333 4.08910650688889  7.38172789113334 3.54506435948148  6.68566272593333 3.0745457422963  C 6.42917958453333 2.11151568696297  5.85021085666667 0.782473201185187  5.13721086246667 0.13633283728148  C 5.6747833256 0.760159278962962  6.0734033024 1.88179473688889  6.25997597486667 2.79200983859259  C 2.61652574813333 0.43283500874815  0.0994591813200003 0.125577209007411  0.0994591813200003 0.125577209007411  C 1.85141856553333 0.643613214222221  3.61886536166667 1.58272405525926  5.2269510042 2.63452817437037  C 4.53349120966667 2.84354054785186  3.7007894396 3.04597110422222  2.9848946016 3.14389547385185  C 3.84712378806667 3.16524619940741  4.93066375653333 3.06186373318519  5.68679691853333 2.94114385192593  C 6.42454783766667 3.44248456607407  7.1235078306 3.96180482637038  7.76587363286667 4.46796148814815  C 7.4212425082 4.68917424562963  6.90928940546667 4.95549645481482  6.4255610338 5.12501799703704  C 6.45161461193333 5.1169914117037  6.2832794538 5.19035443592592  5.65336147826667 5.31589026481481  C 5.6886785662 5.31123484103704  7.00641140933333 5.28298125066667  8.10326767213333 4.73685218607408  C 10.2327146557333 6.45149197622223  11.6597278402667 7.94395581222222  11.6597278402667 7.94395581222222  L 11.9052105848667 7.55964277007408  C 11.0221385294667 6.62727427000001  10.159909343 5.81450193066667  9.32735230146667 5.09965397881481  Z " fill-rule="nonzero" fill="#b8ddfe" stroke="none" transform="matrix(1 0 0 1 26 758 )" />
  </g>
</svg>