<?xml version="1.0" encoding="utf-8"?>
<svg version="1.1" xmlns:xlink="http://www.w3.org/1999/xlink" width="18px" height="8px" xmlns="http://www.w3.org/2000/svg">
  <g transform="matrix(1 0 0 1 -27 -761 )">
    <path d="M 17.4456188581395 7.93371979955556  L 17.6582889718605 7.37057436762963  C 16.2633613555814 6.50867931962963  14.925691135814 5.78532317518519  13.6551240593023 5.17738937496296  C 12.987727938 4.06538584800001  11.9428576865581 2.1730373885926  10.4993068742791 1.24981919437038  C 11.5178205810698 2.06676535022223  12.3645623505349 3.54751035592593  12.9703083963488 4.85825223  C 11.8144074216279 4.332671236  10.7184902932326 3.90356982555555  9.69088812334884 3.55409217303703  C 9.09741150523256 2.44048330044445  7.98831612132558 0.981089020296294  6.89179310211628 0.418425177777774  C 7.75610589013954 1.01319537948148  8.57588522413953 2.27609877140741  9.06454157127907 3.34780884785185  C 3.71310329086046 1.64713531118519  0.376425705418605 2.12327253096296  0.376425705418605 2.12327253096296  C 2.78214175667442 2.17207419192593  5.32206412806977 2.7406777025926  7.68673062690698 3.50432731540741  C 6.84710815437209 4.0016547368889  5.82556495988372 4.53815188837037  4.92671600874419 4.90448538437037  C 6.04686902190698 4.63703945466667  7.41998424941861 4.13858833051852  8.36472994674419 3.73003497281482  C 9.45489103674418 4.10391346474075  10.500064242 4.51343000125927  11.4682884563721 4.92599663377777  C 11.0829376447674 5.31913893407408  10.491127255814 5.82674038192593  9.91310103 6.20238470762964  C 9.94460770541861 6.18344196481482  9.74678216044186 6.33241543644445  8.96668912032558 6.70388594562963  C 9.01107111425581 6.68606692333334  10.7080385716047 6.20222418377778  11.9778482635814 5.14640675414815  C 15.1959214653488 6.55892576666666  17.4456188581395 7.93371979955556  17.4456188581395 7.93371979955556  Z " fill-rule="nonzero" fill="#c4e2fe" stroke="none" transform="matrix(1 0 0 1 27 761 )" />
  </g>
</svg>