<?xml version="1.0" encoding="utf-8"?>
<svg version="1.1" xmlns:xlink="http://www.w3.org/1999/xlink" width="7px" height="9px" xmlns="http://www.w3.org/2000/svg">
  <g transform="matrix(1 0 0 1 -193 -715 )">
    <path d="M 4.45063534000001 0.278320000000001  C 4.45063534000001 0.278320000000001  5.99850496000001 -0.20966  6.74470274000001 0.7996  C 6.74470274000001 0.7996  5.77985082 1.9912  4.7948265 3.26524  C 3.61528286 4.79092  2.51895026 5.71216  1.97789832 6.73258  C 1.85019998 6.97342  2.38656904 7.82662  2.1113602 8.23108  C 1.83597126 8.63554  0.495048600000004 9.19894  0.24127292 8.35114  C 0.067466280000005 7.77046  -0.231337033999999 7.08106  0.373113799999999 6.49588  C 0.595910480000001 6.28006  1.71205524 4.65376  2.32317014 3.83692  C 2.93428506 3.02008  4.45063534000001 0.278320000000001  4.45063534000001 0.278320000000001  Z " fill-rule="nonzero" fill="#cd916a" stroke="none" transform="matrix(1 0 0 1 193 715 )" />
  </g>
</svg>