<?xml version="1.0" encoding="utf-8"?>
<svg version="1.1" xmlns:xlink="http://www.w3.org/1999/xlink" width="11px" height="12px" xmlns="http://www.w3.org/2000/svg">
  <g transform="matrix(1 0 0 1 -88 -725 )">
    <path d="M 10.7030860207051 11.5830158561379  C 11.3837360485256 11.039577077931  9.37776258410257 9.06221321413793  9.37776258410257 7.52456245986207  C 9.37776258410257 6.82747818710345  9.47926308647436 3.92629828103448  8.75911502794871 3.29721857386207  C 8.17139206653846 2.78397084627587  6.37760503296795 3.6897021322069  5.35693604578846 3.44817379372414  C 4.33626705860898 3.20664545524138  0.962104099352564 0.126710663517242  0.962104099352564 0.126710663517242  L 0.125911812583332 0.880291053793105  C 1.73261962845513 2.94927427537931  4.20261713151923 4.6227847242069  5.59147406026282 5.46768554917242  C 5.30519071796154 5.80755897372414  5.00160790130129 6.24667425365517  5.02594963820513 6.56158775696552  C 5.07126508448718 7.14732388006897  6.11581652282051 7.45117731165517  6.13801497720513 8.25393024496552  C 6.16021341459615 9.05668317827586  5.57095963663461 10.9857712683448  6.13005414316027 11.4870621548966  C 6.68914866667949 11.9883530414483  10.0225889351923 12.1266040875862  10.7030860207051 11.5830158561379  Z " fill-rule="nonzero" fill="#1b90fb" stroke="none" transform="matrix(1 0 0 1 88 725 )" />
  </g>
</svg>