<?xml version="1.0" encoding="utf-8"?>
<svg version="1.1" xmlns:xlink="http://www.w3.org/1999/xlink" width="8px" height="6px" xmlns="http://www.w3.org/2000/svg">
  <g transform="matrix(1 0 0 1 -41 -742 )">
    <path d="M 0.338073404912279 1.0118676144  C 0.338073404912279 1.0118676144  1.11632925915789 0.310857498733338  2.15222622259649 0.408669501666668  C 2.15222622259649 0.408669501666668  2.47340149375438 1.27395177253334  2.83693291235088 1.93219622933334  C 3.20031198512281 2.59044068613334  4.86896080757895 3.49819965686667  5.47855393649122 3.69396815026667  C 5.9568125848421 3.84754888673334  6.515669768 3.58647607706667  7.17919834175439 3.61089295993334  C 7.39631160561404 3.61883929226667  7.44369575719299 3.82645502433334  7.19123481192982 3.95171795553334  C 7.00520310666667 4.0440397696  6.6875321277193 4.16178983106667  6.75274216140351 4.2827184094  C 6.81795236421052 4.40364698773334  6.84400590175438 4.44655711806667  7.40179659649123 4.83130360853334  C 7.95943491157895 5.21605008293334  7.22505886596491 5.77706045480001  6.80119280140351 5.79410892333334  C 6.39484813024561 5.8104350024  5.89952514287719 5.18166418686667  5.53980274196491 4.85586496286667  C 5.07022861740351 4.43051999800001  3.17608671585965 4.1593336876  1.99468577410527 3.14379368466667  C 0.843299801052632 2.15397087206667  0.338073404912279 1.0118676144  0.338073404912279 1.0118676144  Z " fill-rule="nonzero" fill="#f1b282" stroke="none" transform="matrix(1 0 0 1 41 742 )" />
  </g>
</svg>