<?xml version="1.0" encoding="utf-8"?>
<svg version="1.1" xmlns:xlink="http://www.w3.org/1999/xlink" width="10px" height="6px" xmlns="http://www.w3.org/2000/svg">
  <g transform="matrix(1 0 0 1 -342 -756 )">
    <path d="M 8.33205083809523 0.333668360000004  L 9.57768933333333 1.53521712000001  C 9.57768933333333 1.53521712000001  8.31215354285713 3.27052766000001  7.19893489523809 3.91150958000001  C 4.94436697142857 5.20966434  3.08534327619047 5.36743620000001  3.08534327619047 5.36743620000001  C 3.08534327619047 5.36743620000001  0.734891022857144 6.03324424  0.421165768190473 5.09165028  C 0.308986261714278 4.75523822  1.08309346666666 5.1193548  2.10248613714285 4.9389156  C 2.43336422857142 4.8694744  2.06269157142857 4.60574174000001  1.94365093333332 4.39741812  C 1.82443876761905 4.1890945  2.14228070285714 4.10580104  2.60557862857143 4.45300706  C 3.06887657142857 4.8000332  4.88261678095238 4.02250756000001  6.47114034285714 2.67577992  C 8.02964643809523 1.35459802  8.33205083809523 0.333668360000004  8.33205083809523 0.333668360000004  Z " fill-rule="nonzero" fill="#f1b282" stroke="none" transform="matrix(1 0 0 1 342 756 )" />
  </g>
</svg>