<?xml version="1.0" encoding="utf-8"?>
<svg version="1.1" xmlns:xlink="http://www.w3.org/1999/xlink" width="10px" height="11px" xmlns="http://www.w3.org/2000/svg">
  <g transform="matrix(1 0 0 1 -95 -735 )">
    <path d="M 9.74490377083333 10.0705382629762  C 9.7856125201389 10.0238536795833  9.78154162847223 9.95560037083334  9.73585740069444 9.91303083375  C 9.25670053125001 9.46732719821429  6.74889135069444 7.15225134577381  5.17286013541666 6.04402320303571  C 4.37165178611111 4.11434389208333  2.66037706111111 0.381417077773814  2.66037706111111 0.381417077773814  C -0.812078350902776 -0.851256184755953  0.132213606319453 2.38814729345238  0.28449444368056 2.81810004404762  C 0.436775281041667 3.24805295244048  3.19999396875 7.26577032172619  3.53048864930556 7.57681199392857  C 4.084730575 8.098431275  8.30773457986112 10.4167708555952  8.98666588888889 10.7879776039881  C 9.03973793819445 10.8169249460119  9.10698279583334 10.8055731430952  9.14573157916667 10.7608750739286  L 9.74490377083333 10.0705382629762  Z " fill-rule="nonzero" fill="#0b224e" stroke="none" transform="matrix(1 0 0 1 95 735 )" />
  </g>
</svg>