<?xml version="1.0" encoding="utf-8"?>
<svg version="1.1" xmlns:xlink="http://www.w3.org/1999/xlink" width="4px" height="4px" xmlns="http://www.w3.org/2000/svg">
  <g transform="matrix(1 0 0 1 -41 -736 )">
    <path d="M 2.23256759106667 0.362539608346853  C 2.8137074558 0.463149244253946  3.8470218996 0.880429678848491  3.85614064873333 1.28418166447273  C 3.86468043553333 1.66455438761819  3.65437005033333 1.76056697792728  3.6215135724 1.90202464757577  C 3.58865709446667 2.04348232890909  3.61413172633333 2.37657114563637  3.54205012053333 2.49097191763637  C 3.46996851473333 2.60537268963637  3.26761893793333 2.52170645775758  3.12128458946667 2.64438191363637  C 2.974950241 2.76705736951516  2.9465807814 3.01070080357576  2.69299246773333 3.08753715387879  C 2.43940417013333 3.16437348957576  1.90791086773333 2.84192355212122  1.8345265766 3.00452762509091  C 1.76114230153333 3.16713171266667  1.71786438913333 3.88899929018182  1.71786438913333 3.88899929018182  L 0.131345316682666 3.10067156624243  C 0.131345316682666 3.10067156624243  0.796580389146666 2.36094118557576  0.917440112173333 1.97557738018182  C 1.0382998352 1.59021358647273  1.65142772151333 0.261929972498189  2.23256759106667 0.362539608346853  Z " fill-rule="nonzero" fill="#f1b282" stroke="none" transform="matrix(1 0 0 1 41 736 )" />
  </g>
</svg>