<?xml version="1.0" encoding="utf-8"?>
<svg version="1.1" xmlns:xlink="http://www.w3.org/1999/xlink" width="3px" height="3px" xmlns="http://www.w3.org/2000/svg">
  <g transform="matrix(1 0 0 1 -32 -756 )">
    <path d="M 0.695787535891668 0.82287986916667  C 0.536752061658333 0.980903167500003  0.289966639758333 0.972415147500001  0.227003791125 1.24782733666667  C 0.145948166733334 1.60270305  0.562624727116667 1.81869849666667  0.778652435649999 2.03035955833334  C 0.994680140166665 2.24202082083334  1.78262040183333 2.92594628583333  1.94907392033333 2.73487325166667  C 2.11552741875 2.54380041833333  2.09381609025 2.30793914083334  2.21340932775 2.15641721916667  C 2.33300254516667 2.0048952975  2.66156730441667 1.93066930583333  2.54052666108333 1.67530349666667  C 2.41948599766667 1.41993748666667  2.01583624241667 1.31139791500001  1.77158380683333 1.15590290750001  C 1.593008149 1.04212600416668  1.10450327783333 0.356213895833342  0.9613894445 0.40389193  C 0.818275607149999 0.451389214166667  0.802715821725002 0.716507489999998  0.695787535891668 0.82287986916667  Z " fill-rule="nonzero" fill="#355aa2" stroke="none" transform="matrix(1 0 0 1 32 756 )" />
  </g>
</svg>