<?xml version="1.0" encoding="utf-8"?>
<svg version="1.1" xmlns:xlink="http://www.w3.org/1999/xlink" width="4px" height="6px" xmlns="http://www.w3.org/2000/svg">
  <g transform="matrix(1 0 0 1 -284 -749 )">
    <path d="M 3.6002722 3.19722980571428  C 4.17984916 3.59784029142857  2.94361042 5.64376018285714  2.94361042 5.64376018285714  L 0.128213560000003 4.11687605142857  C 0.128213560000003 4.11687605142857  0.928959120000002 3.31334208  0.417641840000002 1.65908910857143  C 0.425746540000002 1.65831810857143  0.433310940000002 1.65677610857143  0.440335020000003 1.65492572571428  C 0.863941320000002 1.54035543428571  1.1313968 1.46402665714286  1.04224498 1.31136908571429  C 0.95309314 1.15871151428571  0.55181984 0.395269439999997  0.908427180000004 0.357182142857145  C 1.2650345 0.319094845714287  2.2013989 2.64735414857143  2.49118738 2.60926685142857  C 2.56214864 2.59970648571429  2.72622404 2.55622220571428  2.93208372 2.48868279428572  C 2.9317235 2.67264288  3.15577378 2.88991006285715  3.6002722 3.19722980571428  Z " fill-rule="nonzero" fill="#f1b282" stroke="none" transform="matrix(1 0 0 1 284 749 )" />
  </g>
</svg>