<?xml version="1.0" encoding="utf-8"?>
<svg version="1.1" xmlns:xlink="http://www.w3.org/1999/xlink" width="13px" height="11px" xmlns="http://www.w3.org/2000/svg">
  <g transform="matrix(1 0 0 1 -197 -710 )">
    <path d="M 12.9610809952 7.427376  C 12.9610809952 6.235416  9.64467038080001 7.016724  8.11299632000001 4.180176  C 6.33725089920001 0.892386000000001  3.4031500464 -0.536382  1.8134083344 0.584297999999999  C 0.0537719936000019 1.824966  0.181520767999998 4.228884  0.868966529600003 5.623596  C 1.109104256 6.111072  1.41779924 6.474996  1.7382950624 6.623298  C 2.28113369120001 6.873966  2.9402948848 6.824862  3.6032023664 6.949008  C 4.35751954560001 7.08939  5.1172688528 7.453908  5.71705120480001 8.738334  C 7.0445520288 11.579832  8.2821416912 10.943262  8.6766268992 9.870696  C 9.3058177056 8.160372  12.9610809952 8.619336  12.9610809952 7.427376  Z " fill-rule="nonzero" fill="#1b90fb" stroke="none" transform="matrix(1 0 0 1 197 710 )" />
  </g>
</svg>