<?xml version="1.0" encoding="utf-8"?>
<svg version="1.1" xmlns:xlink="http://www.w3.org/1999/xlink" width="6px" height="7px" xmlns="http://www.w3.org/2000/svg">
  <g transform="matrix(1 0 0 1 -194 -706 )">
    <path d="M 0.337785662000002 2.93674  C -0.0417071557999975 2.03728  0.594983452000001 0.952240000000001  1.665200026 0.544900000000001  C 3.92000334 -0.31352  3.73719118 2.40394  4.2591514 3.26776  C 4.78111162 4.13158  5.94822766 5.25118  5.94822766 5.25118  L 3.94918124 6.67102  C 3.94918124 6.67102  3.48611716000001 5.98828  3.30924864 5.6011  C 3.13238014 5.21392  2.76009174 5.17414  2.30531274000001 5.43622  C 1.850533728 5.69848  1.364595606 4.80154  1.21024091 4.66996  C 0.957725994 4.4545  0.593722678000006 4.87408  0.508350302000004 4.504  C 0.422977928000002 4.13392  0.717278480000004 3.8362  0.337785662000002 2.93674  Z " fill-rule="nonzero" fill="#f1b282" stroke="none" transform="matrix(1 0 0 1 194 706 )" />
  </g>
</svg>