<?xml version="1.0" encoding="utf-8"?>
<svg version="1.1" xmlns:xlink="http://www.w3.org/1999/xlink" width="5px" height="3px" xmlns="http://www.w3.org/2000/svg">
  <g transform="matrix(1 0 0 1 -159 -778 )">
    <path d="M 1.4531977 0.635616000000016  C 1.0085049 0.601055999999994  0.865317040000001 0.436248  0.592629760000001 0.407304000000005  C 0.435033060000002 0.390455999999995  0.276355719999998 0.696744000000012  0.303732520000004 1.43762400000002  C 0.331109320000003 2.178504  0.230067320000003 2.57508000000001  0.717806539999998 2.63124  C 1.00904522 2.66471999999999  3.78238666 2.60251200000001  4.68239882 2.57464800000001  C 4.74165516 2.57292000000001  4.79676898 2.53533600000002  4.83387174 2.471832  C 4.8709745 2.40832800000002  4.8862839 2.32495200000002  4.87565738 2.24351999999999  C 4.82882864 1.883232  4.6168386 1.33891200000001  3.77698334 1.23220799999999  C 3.1601049 1.091808  2.55871594 0.352008000000001  2.28602864 0.343152000000021  C 2.01334136 0.334080000000006  1.89807064 0.670392000000004  1.4531977 0.635616000000016  Z " fill-rule="nonzero" fill="#0b224e" stroke="none" transform="matrix(1 0 0 1 159 778 )" />
  </g>
</svg>