<?xml version="1.0" encoding="utf-8"?>
<svg version="1.1" xmlns:xlink="http://www.w3.org/1999/xlink" width="15px" height="17px" xmlns="http://www.w3.org/2000/svg">
  <g transform="matrix(1 0 0 1 -147 -757 )">
    <path d="M 14.5605804214286 4.50098181818183  C 14.7890634428571 3.84206181818182  16.2064687285714 -1.12292727272727  10.99458555 0.766298181818191  C 10.99458555 0.766298181818191  8.42627419285714 6.48757090909092  7.22365067142857 9.44501454545455  C 4.85815658571429 11.1435927272727  1.09416880714286 14.6917090909091  0.374949006428573 15.3749236363636  C 0.306442692857144 15.4400181818182  0.300460450714286 15.5446145454546  0.361440717857143 15.6163854545455  L 1.26070669285714 16.6744036363636  C 1.31898531428572 16.7428363636364  1.41991150714286 16.7604545454546  1.49941744285714 16.7159454545455  C 2.51832825 16.1469709090909  8.85660962142858 12.5938472727273  9.68852715 11.7943527272727  C 10.1846672357143 11.3175490909091  14.3320973785714 5.15990181818182  14.5605804214286 4.50098181818183  Z " fill-rule="nonzero" fill="#0b224e" stroke="none" transform="matrix(1 0 0 1 147 757 )" />
  </g>
</svg>