<?xml version="1.0" encoding="utf-8"?>
<svg version="1.1" xmlns:xlink="http://www.w3.org/1999/xlink" width="3px" height="3px" xmlns="http://www.w3.org/2000/svg">
  <g transform="matrix(1 0 0 1 -286 -732 )">
    <path d="M 0.942320340000002 0.7000894  C 0.769960140000002 0.883407000000002  0.511329760000002 0.894740800000001  0.435325580000004 1.196612  C 0.337348620000004 1.5853748  0.766718240000003 1.7829046  0.985545480000003 1.9926674  C 1.2043727 2.2024302  2.00619888 2.8727356  2.18774442 2.6530784  C 2.36928998 2.4334212  2.3550617 2.181382  2.48599782 2.0084984  C 2.61693396 1.8354352  2.96417584 1.7280352  2.84656746 1.463403  C 2.72877898 1.1987708  2.30949522 1.1156572  2.05878946 0.968679399999999  C 1.87562296 0.861099400000001  1.3880795 0.163809000000001  1.23625124 0.2269538  C 1.08442296 0.290098400000002  1.05848788 0.576678400000002  0.942320340000002 0.7000894  Z " fill-rule="nonzero" fill="#355aa2" stroke="none" transform="matrix(1 0 0 1 286 732 )" />
  </g>
</svg>