<?xml version="1.0" encoding="utf-8"?>
<svg version="1.1" xmlns:xlink="http://www.w3.org/1999/xlink" width="3px" height="4px" xmlns="http://www.w3.org/2000/svg">
  <g transform="matrix(1 0 0 1 -87 -723 )">
    <path d="M 2.28613955335715 3.601308597  L 2.86428118414286 2.8874398942  C 2.86428118414286 2.8874398942  2.36305967828571 2.186863209  2.23759922692858 2.05553217093334  C 2.11229384185715 1.92420113286667  2.03397798264286 0.683707970333336  1.84601993085714 0.698300311466667  C 1.65806186185715 0.712892636533334  1.68938819521429 1.50102335246667  1.68938819521429 1.50102335246667  C 1.68938819521429 1.50102335246667  0.953064045428578 0.348084204600002  0.765105976428576 0.333491863466668  C 0.577147907428574 0.318899522333334  0.169750369785715 1.45724632906667  0.342200329785718 1.8658317844  C 0.514495223500002 2.27441723973334  1.29920463342857 2.66711004646667  1.51848903578572 2.82777023826667  C 1.73777345535715 2.98828594253334  2.28613955335715 3.601308597  2.28613955335715 3.601308597  Z " fill-rule="nonzero" fill="#f1b282" stroke="none" transform="matrix(1 0 0 1 87 723 )" />
  </g>
</svg>