<?xml version="1.0" encoding="utf-8"?>
<svg version="1.1" xmlns:xlink="http://www.w3.org/1999/xlink" width="22px" height="30px" xmlns="http://www.w3.org/2000/svg">
  <g transform="matrix(1 0 0 1 -196 -737 )">
    <path d="M 0.100799390476193 7.00442068965518  C 0.100799390476193 7.40867586206897  0.328733428571438 7.77866896551725  0.69289984761905 7.96338620689655  C 1.05687727619048 8.14810344827586  1.49519773333333 8.11626206896552  1.82804180952382 7.88089655172414  C 2.77638365714287 7.21036551724138  3.90756331428572 6.54244137931034  4.65023617142858 6.54244137931034  C 6.66032085714286 6.54244137931034  8.28963457142858 8.55235862068966  8.28963457142858 11.0317034482759  C 8.28963457142858 13.5110482758621  6.66032085714286 15.5209655172414  4.65023617142858 15.5209655172414  C 3.90756331428572 15.5209655172414  2.77657243809524 14.8532275862069  1.82804180952382 14.1825103448276  C 1.49538630476191 13.9473310344828  1.05744340952381 13.9162344827586  0.693465771428577 14.1007655172414  C 0.329676914285718 14.2854827586207  0.100799390476193 14.6552896551724  0.100799390476193 15.0589862068966  L 0.100799390476193 21.8061931034483  L 6.93806834285714 21.8061931034483  C 7.34714220952382 21.8061931034483  7.72187491428572 22.031875862069  7.90905259047619 22.3908827586207  C 8.09623026666667 22.7498896551724  8.06434220952382 23.1822620689655  7.82621881904762 23.5105448275862  C 7.14675636190476 24.4464206896552  6.46993537142858 25.5627310344828  6.46993537142858 26.2956413793104  C 6.46993537142858 28.2793034482759  8.50662497142858 29.8872  11.0189948 29.8872  C 13.5313646285714 29.8872  15.5680542285714 28.2793034482759  15.5680542285714 26.2956413793104  C 15.5680542285714 25.5627310344828  14.8912332380952 24.4466068965517  14.2117707809524 23.5105448275862  C 13.9732700380952 23.1822620689655  13.9410046285714 22.7497034482759  14.1281823047619 22.390324137931  C 14.3153599809524 22.0311310344828  14.6904700380952 21.8061931034483  15.0997326857143 21.8061931034483  L 22 21.8061931034483  L 22 3.84877241379311  C 21.9368128571429 1.86529655172414  20.3074989333334 0.25721379310345  18.2974144571429 0.25721379310345  L 0.100799390476193 0.25721379310345  L 0.100799390476193 7.00442068965518  Z " fill-rule="nonzero" fill="#1b90fb" stroke="none" transform="matrix(1 0 0 1 196 737 )" />
  </g>
</svg>