<?xml version="1.0" encoding="utf-8"?>
<svg version="1.1" xmlns:xlink="http://www.w3.org/1999/xlink" width="3px" height="3px" xmlns="http://www.w3.org/2000/svg">
  <g transform="matrix(1 0 0 1 -293 -733 )">
    <path d="M 2.13291302 0.739788000000001  C 2.27447532000001 0.947751800000002  2.52824286000001 0.999562800000003  2.55597898000001 1.3093498  C 2.59181982 1.7085468  2.13687532 1.8366352  1.8877905 2.0096984  C 1.63870568 2.1827618  0.74178422 2.719402  0.596980020000004 2.474199  C 0.452175840000002 2.228996  0.505666940000005 1.9821738  0.403367459999998 1.7909408  C 0.301067979999999 1.5995276  -0.0251016399999955 1.4392372  0.132670080000004 1.196193  C 0.290441800000004 0.953148800000001  0.717650180000007 0.936598  0.98816746 0.830637200000002  C 1.18592244 0.7531006  1.77684600000001 0.140542800000002  1.91678736 0.226534600000001  C 2.05672872 0.312706600000002  2.03763762 0.599646200000002  2.13291302 0.739788000000001  Z " fill-rule="nonzero" fill="#355aa2" stroke="none" transform="matrix(1 0 0 1 293 733 )" />
  </g>
</svg>