<?xml version="1.0" encoding="utf-8"?>
<svg version="1.1" xmlns:xlink="http://www.w3.org/1999/xlink" width="13px" height="9px" xmlns="http://www.w3.org/2000/svg">
  <g transform="matrix(1 0 0 1 -87 -754 )">
    <path d="M 3.13395054542425 5.72865826759091  C 3.52239691122223 4.58394456  4.11639909055556 2.64958967481818  5.09742212068687 1.53309853513636  C 4.42145420547475 2.47242279709091  3.93521915629293 3.98994052752273  3.61106245683839 5.30620616338636  C 4.41603732759092 4.60921188184091  5.1852323889495 4.01254814597727  5.9119477995303 3.50114319920454  C 6.24537018825253 2.36839821436364  6.92775282602525 0.821475811022724  7.6855439414394 0.101135120045457  C 7.10266058922727 0.807586159431818  6.61585534986869 2.11971444422727  6.35584574943434 3.19468440047727  C 10.1507884262121 0.641649229909092  12.6625039246465 0.459901719954542  12.6625039246465 0.459901719954542  C 10.8889077194444 0.950324450863633  9.06499176831314 1.943138619  7.38918432561112 3.08253290338636  C 8.05674184473232 3.38367224604545  8.86242947298485 3.68717579870455  9.5614903514394 3.85710232438636  C 8.70804877767173 3.81912743952273  7.64634292769193 3.61551113495455  6.90950653466667 3.41544112895454  C 6.13917109295455 3.96053585461364  5.40547076963637 4.53015911113636  4.72893264842425 5.08825692606818  C 5.05095110702525 5.37816633695454  5.53447772517677 5.73456875972727  5.99819001711617 5.97305693175  C 5.97310136452021 5.96153149015909  6.13332657639394 6.06156649315909  6.74514739258586 6.25823797193182  C 6.71065051504546 6.25011104113636  5.41145783769697 6.11919375040909  4.3732726054596 5.38496340784091  C 2.12741122402021 7.27868367190908  0.593725237510102 8.95844429481818  0.593725237510102 8.95844429481818  L 0.383180200590911 8.48072912693182  C 1.33284242288889 7.43073098270455  2.25214169785354 6.52228900847727  3.13395054542425 5.72865826759091  Z " fill-rule="nonzero" fill="#b8ddfe" stroke="none" transform="matrix(1 0 0 1 87 754 )" />
  </g>
</svg>