<?xml version="1.0" encoding="utf-8"?>
<svg version="1.1" xmlns:xlink="http://www.w3.org/1999/xlink" width="6px" height="5px" xmlns="http://www.w3.org/2000/svg">
  <g transform="matrix(1 0 0 1 -293 -712 )">
    <path d="M 3.71516222 0.874263316  C 3.71516222 0.874263316  5.33898632 0.1712160804  5.62048998 2.25229346  C 5.83823658 3.86167438  5.44758946 4.63236382  5.11007322 4.72950954  C 4.67854234000001 4.8538201  3.77099468 3.12012864  3.3664795 3.2775407  C 3.08371510000001 3.3876392  2.80167112 3.8857809  2.56753500000001 3.76704724  C 2.36887950000001 3.66630352  2.46721668000001 2.9208  1.9137549 3.1361397  C 0.764146520000004 3.58354974  0.40123552 3.15628844  0.185109879999999 2.60237788  C 0.0318407600000015 1.920019096  0.601872180000001 1.269142714  1.4784418 0.803922614  C 2.22011302 0.410122614000001  3.0984837 -0.0306311559999997  3.71516222 0.874263316  Z " fill-rule="nonzero" fill="#0b224e" stroke="none" transform="matrix(1 0 0 1 293 712 )" />
  </g>
</svg>