<?xml version="1.0" encoding="utf-8"?>
<svg version="1.1" xmlns:xlink="http://www.w3.org/1999/xlink" width="57px" height="17px" xmlns="http://www.w3.org/2000/svg">
  <g transform="matrix(1 0 0 1 -290 -762 )">
    <path d="M 0.114165957678047 0.257303729729734  L 0.114165957678047 4.94111836756757  C 0.114165957678047 6.23452780540541  1.17297959570732 7.28310838918919  2.47901111609756 7.28310838918919  L 21.3972715219512 7.28310838918919  C 21.3972715219512 11.1633363351351  19.2798112390244 14.3089130486487  16.6677481834146 14.3089130486487  C 15.3617166741463 14.3089130486487  14.3029030253659 15.3574938162162  14.3029030253659 16.6509030702703  L 42.6803771414634 16.6509030702703  C 42.6803771414634 15.3574938162162  41.6215634926829 14.3089130486487  40.3155320390244 14.3089130486487  C 37.7034689463415 14.3089130486487  35.5860086634146 11.1633363351351  35.5860086634146 7.28310838918919  L 54.504268995122 7.28310838918919  C 55.8103006341464 7.28310838918919  56.8691142829268 6.23452780540541  56.8691142829268 4.94111836756757  L 56.8691142829268 0.257303729729734  L 0.114165957678047 0.257303729729734  Z " fill-rule="nonzero" fill="#dae7ff" stroke="none" transform="matrix(1 0 0 1 290 762 )" />
  </g>
</svg>