<?xml version="1.0" encoding="utf-8"?>
<svg version="1.1" xmlns:xlink="http://www.w3.org/1999/xlink" width="5px" height="6px" xmlns="http://www.w3.org/2000/svg">
  <g transform="matrix(1 0 0 1 -293 -714 )">
    <path d="M 2.57756489090909 0.13546316123077  C 1.82636452727273 0.217331272615385  0.463299309090911 0.702395667692307  0.405502072727276 1.27597061538462  C 0.351143200000001 1.81616730461539  0.607874272727274 1.97508775384615  0.633580127272728 2.17984105846154  C 0.659285981818181 2.38459436307692  0.588717690909096 2.85570961846154  0.667308836363635 3.02608829538462  C 0.746063709090908 3.19646695384616  1.01310987272728 3.09865698461538  1.18535547272727 3.28863084923077  C 1.35760107272728 3.47860471384615  1.36595138181818 3.82816327384615  1.67982478181818 3.96416730461539  C 1.99369816363637 4.10017131692308  2.661068 3.71756660307692  2.78206561818182 3.93626904  C 3.18353538181818 4.66162380923077  3.02618936363637 5.53460688  3.18353538181818 5.64719628923077  C 3.29290807272727 5.72557711384615  5.08544114545455 4.21276072615385  4.78908703636364 3.84659604923077  C 4.41234072727273 3.38096080615385  4.17673101818182 3.12987646153846  4.0671946 2.56875609230769  C 3.95749445454546 2.00763572307692  3.32876527272727 0.0534289920000001  2.57756489090909 0.13546316123077  Z " fill-rule="nonzero" fill="#f1b282" stroke="none" transform="matrix(1 0 0 1 293 714 )" />
  </g>
</svg>