<?xml version="1.0" encoding="utf-8"?>
<svg version="1.1" xmlns:xlink="http://www.w3.org/1999/xlink" width="7px" height="14px" xmlns="http://www.w3.org/2000/svg">
  <g transform="matrix(1 0 0 1 -215 -722 )">
    <path d="M 6.77170284 5.78309925925926  C 6.77170284 2.4447525925926  3.85049068000001 -0.186314074074072  0.512863060000001 0.485499259259264  C 0.472518300000004 0.493525925925929  0.43523544 0.509952592592596  0.395431020000004 0.519099259259263  C 2.75703986000001 1.0341125925926  4.53761222 3.18245925925926  4.53761222 5.78309925925926  C 4.53761222 6.88424592592593  4.21899676000001 7.90736592592593  3.67272162 8.76061925925926  C 2.70949068 10.2651525925926  2.30712384 12.0817925925926  2.30424206000001 13.8876059259259  L 4.53743212000001 13.8876059259259  L 4.53743212000001 13.9055259259259  C 4.53743212000001 12.0939259259259  4.94051942 10.2701925925926  5.90681222000001 8.76061925925926  C 6.45308736000001 7.90717925925926  6.77170284 6.88405925925926  6.77170284 5.78309925925926  Z " fill-rule="nonzero" fill="#f0b701" stroke="none" transform="matrix(1 0 0 1 215 722 )" />
  </g>
</svg>