<?xml version="1.0" encoding="utf-8"?>
<svg version="1.1" xmlns:xlink="http://www.w3.org/1999/xlink" width="38px" height="17px" xmlns="http://www.w3.org/2000/svg">
  <g transform="matrix(1 0 0 1 -144 -719 )">
    <path d="M 34.7885741888889 16.8815151515152  C 36.3762382555556 16.8815151515152  37.6640884444444 15.6261733333333  37.6640884444444 14.0774424242424  C 37.6640884444444 10.9781260606061  35.0891487 8.46651515151516  31.9130601444444 8.46651515151516  C 31.8640101666667 8.46651515151516  31.8183820888889 8.47931151515152  31.7697121111111 8.4806096969697  C 31.1090569888889 5.27317333333334  28.2071164777778 2.85651515151515  24.7243698222222 2.85651515151515  C 23.3682680444444 2.85651515151515  22.1140685444444 3.24448606060606  21.0317344944444 3.88115151515151  C 19.8397031844444 1.61675151515152  17.4491766166667 0.0515151515151522  14.6601655611111 0.0515151515151522  C 11.1774189055556 0.0515151515151522  8.27528845777778 2.46798787878788  7.61482327222222 5.6756096969697  C 7.56577316777778 5.67449696969697  7.52052540666667 5.66151515151515  7.47147532333333 5.66151515151515  C 3.50107950222222 5.66151515151515  0.282594966277779 8.80107515151516  0.282594966277779 12.6741078787879  C 0.282594966277779 12.6744787878788  0.282594966277779 12.6750351515152  0.282594966277779 12.6754060606061  C 0.282975199555558 14.9989660606061  2.21379975455556 16.8817006060606  4.59596119444445 16.8817006060606  L 34.7885741888889 16.8817006060606  Z " fill-rule="nonzero" fill="#f3f9ff" stroke="none" transform="matrix(1 0 0 1 144 719 )" />
  </g>
</svg>