<?xml version="1.0" encoding="utf-8"?>
<svg version="1.1" xmlns:xlink="http://www.w3.org/1999/xlink" width="4px" height="4px" xmlns="http://www.w3.org/2000/svg">
  <g transform="matrix(1 0 0 1 -293 -734 )">
    <path d="M 2.26080087111111 1.1236954  C 2.56673873777778 0.817326600000001  2.59411464888889 0.631310600000003  2.7780616 0.4391778  C 2.88436339555556 0.327999999999999  3.14195315555556 0.399240200000001  3.46726229333333 0.836216  C 3.79257143111112 1.273192  4.12684577777778 1.5709256  3.79961552 1.9172322  C 3.59405601777778 2.1347306  2.29297957333334 2.8474924  1.46737957333333 3.5532382  C 1.16912616888889 3.8081558  0.702454844444446 3.8941478  0.324475093333338 3.814812  C 0.247310222222224 3.7986212  0.184553742222224 3.7351166  0.164862293333335 3.6534422  C 0.145170844444446 3.5717678  0.17254675555556 3.487395  0.234182595555555 3.439002  C 0.921141991111111 2.8993036  0.97925578666667 2.950215  1.25093372444444 2.1404874  C 1.34955105777778 1.8465316  1.42191313777778 1.588196  1.52133093333334 1.495188  C 1.71456328888889 1.314209  1.95486298666667 1.4300644  2.26080087111111 1.1236954  Z " fill-rule="nonzero" fill="#0b224e" stroke="none" transform="matrix(1 0 0 1 293 734 )" />
  </g>
</svg>