<?xml version="1.0" encoding="utf-8"?>
<svg version="1.1" xmlns:xlink="http://www.w3.org/1999/xlink" width="4px" height="5px" xmlns="http://www.w3.org/2000/svg">
  <g transform="matrix(1 0 0 1 -350 -749 )">
    <path d="M 2.40085256888888 0.395401581818188  C 1.55524092444445 0.154172703636368  1.24770213333333 0.261785312727276  0.941123893333333 0.366454109090914  C 0.578352977777778 0.490421218181822  0.605728888888886 1.12595707272728  0.492543075555558 1.31092647272728  C 0.379517368888881 1.49589587272728  0.194289671111114 1.75168023636364  0.205176000000001 1.89609047272728  C 0.216062328888888 2.04066425454546  0.579633724444446 2.03526727272728  0.550977048888879 2.3890150909091  C 0.52248048 2.74276292727273  0.518798346666661 3.18286250909092  1.0482261511111 3.29358247272727  C 1.57765395555555 3.40430243636364  1.49392528 3.887905  1.51393692444444 4.34534036363637  C 1.5339485511111 4.80277572727273  1.60086744888889 4.93492007272728  1.78241301333333 4.92625220000001  C 1.88407210666666 4.92150938181819  2.40165303111111 4.81929376363637  2.95637553777778 4.40029147272728  C 3.3919888 4.0714024909091  3.90060451555555 3.10943081818182  3.80935146666666 2.55844770909091  C 3.63356926222222 1.49704067272727  3.24662428444444 0.636794000000006  2.40085256888888 0.395401581818188  Z " fill-rule="nonzero" fill="#f1b282" stroke="none" transform="matrix(1 0 0 1 350 749 )" />
  </g>
</svg>