<?xml version="1.0" encoding="utf-8"?>
<svg version="1.1" xmlns:xlink="http://www.w3.org/1999/xlink" width="30px" height="22px" xmlns="http://www.w3.org/2000/svg">
  <g transform="matrix(1 0 0 1 -187 -759 )">
    <path d="M 8.37539751724138 0  L 8.37539751724138 0.0830971428571457  L 8.37539751724138 6.91617142857143  C 8.37539751724138 7.32499428571429  8.14957613793104 7.69949714285714  7.79034889655173 7.88656  C 7.43112165517242 8.07362285714287  6.99848383448277 8.04175428571429  6.66999953793104 7.80377714285715  C 5.73354916551724 7.12473142857143  4.61655355862069 6.44832571428571  3.88319329655173 6.44832571428571  C 1.89831351724139 6.44832571428571  0.289429903448279 8.48376571428572  0.289429903448279 10.9945942857143  C 0.289429903448279 13.5054228571429  1.89831351724139 15.5408628571429  3.88319329655173 15.5408628571429  C 4.61655355862069 15.5408628571429  5.73336285517242 14.8644571428571  6.66999953793104 14.1854114285714  C 6.99848383448277 13.9470571428571  7.43130806896552 13.9148114285714  7.79090793103449 14.1018742857143  C 8.15050779310345 14.2889371428572  8.37539751724138 14.6638171428571  8.37539751724138 15.0728285714286  L 8.37539751724138 22  L 26.343841862069 22  C 28.3285353103448 21.9057142857143  29.9376051724138 20.2774  30 18.2685485714286  L 30 0  L 8.37539751724138 0  Z " fill-rule="nonzero" fill="#355aa2" stroke="none" transform="matrix(1 0 0 1 187 759 )" />
  </g>
</svg>