<?xml version="1.0" encoding="utf-8"?>
<svg version="1.1" xmlns:xlink="http://www.w3.org/1999/xlink" width="8px" height="34px" xmlns="http://www.w3.org/2000/svg">
  <g transform="matrix(1 0 0 1 -236 -747 )">
    <path d="M 1.497279488 33.80086625  L 0.494424234666667 33.8362475  C 0.475212458666677 30.98719625  0.611231893333343 28.16855375  0.894605738666678 25.3501025  C 1.17202393600001 22.53509375  1.61255020800001 19.7311775  2.30436663466667 16.98310625  C 2.42924324266667 16.5311825  2.55834645333334 16.08461375  2.68648906666667 15.6368975  C 1.48479182933334 12.945245  1.021787776 9.9736025  1.29305819733334 7.0918475  C 1.193925376 9.784265  1.76605237333333 12.47955125  2.90031624533334 14.88299  C 3.47666984533334 12.87123125  4.03458011733334 10.878215  4.35791447466668 8.80487375  C 4.83398254933334 6.03882500000001  5.102179072 3.22439000000001  5.010346752 0.410146250000002  C 5.18575035733334 3.22152125  5.00131720533333 6.05087375  4.60574651733333 8.8436975  C 4.55003234133334 9.2896925  4.466845312 9.73262750000001  4.39057450666667 10.1763275  C 5.09526284800001 9.72096125  5.72925179733334 9.07759625  6.24393555200001 8.37838625000001  C 6.83258468266668 7.54797875000001  7.29001732266667 6.6164  7.60778026666667 5.63471375000001  C 7.370514688 6.63839375  6.98839227733333 7.614725  6.45353612800001 8.515895  C 5.89466525866668 9.40444250000001  5.22705570133333 10.22700875  4.28433333333334 10.833845  C 3.87954099200001 12.94926125  3.29627116800001 15.0394325  2.79234600533334 17.099195  C 1.60966843733334 22.57028375  1.33263447466667 28.2318575  1.497279488 33.80086625  Z " fill-rule="nonzero" fill="#d0e7fe" stroke="none" transform="matrix(1 0 0 1 236 747 )" />
  </g>
</svg>