<?xml version="1.0" encoding="utf-8"?>
<svg version="1.1" xmlns:xlink="http://www.w3.org/1999/xlink" width="6px" height="8px" xmlns="http://www.w3.org/2000/svg">
  <g transform="matrix(1 0 0 1 -348 -753 )">
    <path d="M 3.87396257142857 5.69965205333334  C 4.21343423999999 4.88474730666667  5.51343005142857 3.38510510222222  5.65622734285714 1.66990332444445  C 5.78775524571428 0.0883868444444463  3.99298606285714 0.05896328888889  3.64224500571428 0.0591225777777835  C 3.48925890857142 0.0591225777777835  3.10872339428572 0.357996231111113  2.72108658857143 0.768806720000005  C 2.30936722285713 1.27428433777778  0.984825702857137 1.9364744  0.887260405714276 2.61001811555556  C 0.806213297142851 3.17002526222223  1.09582167428571 4.32873793777778  0.803280154285708 5.69821287111112  C 0.452539097142855 6.85228812444445  0.180683897142858 7.80103809777778  0.180683897142858 7.80103809777778  L 3.77871291428571 7.80103809777778  C 3.77871291428571 7.80103809777778  3.53433654857142 6.51423697777778  3.87396257142857 5.69965205333334  Z " fill-rule="nonzero" fill="#ffcb01" stroke="none" transform="matrix(1 0 0 1 348 753 )" />
  </g>
</svg>