<?xml version="1.0" encoding="utf-8"?>
<svg version="1.1" xmlns:xlink="http://www.w3.org/1999/xlink" width="3px" height="2px" xmlns="http://www.w3.org/2000/svg">
  <g transform="matrix(1 0 0 1 -40 -758 )">
    <path d="M 0.409073573333334 0.773368204166673  C 0.355880816499997 0.990627896666673  0.140757749666669 1.11180932416667  0.230859756916665 1.37963664083334  C 0.347015370416667 1.72475988750001  0.815256318916667 1.69225220083334  1.110168521 1.76069881166667  C 1.40508072308333 1.82914562333333  2.43455949925 2.0028811175  2.47689659183333 1.7532942875  C 2.51905275366666 1.50370765833334  2.37756725691667 1.31353757083333  2.40054508058333 1.12210343833334  C 2.42352290425 0.930669305833334  2.6652423495 0.696433372500003  2.42858888491667 0.541480213333337  C 2.19193542033333 0.386526853333336  1.79081863533333 0.503735195000004  1.50115334466667 0.497956015  C 1.28928697108334 0.493802179166671  0.5143735025 0.162404485000003  0.41703438575 0.277445634166668  C 0.319695269 0.392486582500005  0.444897259333331 0.626722515833336  0.409073573333334 0.773368204166673  Z " fill-rule="nonzero" fill="#355aa2" stroke="none" transform="matrix(1 0 0 1 40 758 )" />
  </g>
</svg>