<?xml version="1.0" encoding="utf-8"?>
<svg version="1.1" xmlns:xlink="http://www.w3.org/1999/xlink" width="10px" height="15px" xmlns="http://www.w3.org/2000/svg">
  <g transform="matrix(1 0 0 1 -87 -746 )">
    <path d="M 1.28414319118055 13.4097006284286  C 1.31716250076389 14.3700704454286  1.02933663590278 14.3771911691429  1.32831971291668 14.6603176076429  C 1.44592272555556 14.7717725161429  1.53005411847223 13.6460779041429  2.51550715187501 13.6078426860714  C 3.50096018527778 13.5696074507857  4.48746861458333 13.0391130348571  4.72810249541666 12.5931385927857  C 4.96873637625001 12.1471641507143  6.00062753229167 12.2110959249286  6.64186555430556 11.1310668708571  C 7.28310357631945 10.0510378167857  6.93134991756944 9.47503263378571  7.13896448881945 8.8973246825  C 7.27888192576389 8.50800648285714  7.79633523493056 8.18153646978571  8.19482855083334 6.60011510971429  C 8.83893125951388 4.04377286907143  8.10406314756945 2.06699615607143  8.46516472770833 1.37365373140714  C 8.91296086965279 0.513902925821426  9.72502481291668 0.610961577100002  9.72502481291668 0.610961577100002  C 9.72502481291668 0.610961577100002  9.82589203243056 0.103841728620716  8.24051281208334 0.477989675614286  C 6.655133575 0.852137622435712  6.38977291006945 0.290683504556424  5.92358245986111 0.415141489042855  C 5.45724125076389 0.539599475078571  5.71702330125001 1.4027558465  4.32433211631945 1.47473714465714  C 2.93179170701389 1.54671844109286  3.93548827305556 2.40755284292857  2.24321092534723 2.934486897  C 0.550933560902784 3.461266143  0.199481453402785 7.15924724578572  0.275169545208342 8.39515837057142  C 0.439361472847229 11.0764229956429  1.21870765777778 11.5024284359286  1.28414319118055 13.4097006284286  Z " fill-rule="nonzero" fill="#f3f9ff" stroke="none" transform="matrix(1 0 0 1 87 746 )" />
  </g>
</svg>