<?xml version="1.0" encoding="utf-8"?>
<svg version="1.1" xmlns:xlink="http://www.w3.org/1999/xlink" width="6px" height="5px" xmlns="http://www.w3.org/2000/svg">
  <g transform="matrix(1 0 0 1 -283 -748 )">
    <path d="M 5.53603733538462 3.3910534  C 5.62947011076924 3.7734216  4.67751972923077 4.23658103636364  4.09115420307692 4.45753032727273  C 3.90096361846154 4.52916303636363  3.74950942153846 4.57528272727273  3.68417296615385 4.58542250909091  C 3.41667590769231 4.62598167272727  2.55250578461538 2.1564522  2.22316355076923 2.19684781818181  C 1.89382129846154 2.23724343636364  2.26439366769231 3.04695472727273  2.34668767384616 3.20886427272727  C 2.42898166153846 3.37077381818182  2.18209968 3.45172858181818  1.79107848 3.57324252727273  C 1.78442846769231 3.57520505454546  1.77744594461539 3.57684050909091  1.77013092923077 3.57765823636364  C 1.36098843692308 3.6407866  0.247941323076923 2.11572950909091  0.247941323076923 2.11572950909091  L 2.47021179692308 0.0511374545454531  C 2.47021179692308 0.0511374545454531  2.76198142153846 0.10543438181818  3.06688484307693 0.223677418181819  C 3.06854736 0.224495145454543  3.07054236923077 0.224822236363638  3.07220486769231 0.226130600000002  C 3.19406649230769 0.27306801818182  3.31742435076923 0.330635854545452  3.42532092923077 0.398997654545458  C 3.48251110153846 0.434977563636365  3.53554502769231 0.474228363636364  3.58126390153846 0.516750054545457  C 3.93105496615385 0.84056916363636  2.86106673230769 1.95398349090909  3.33438192 2.50038734545454  C 3.80769708923077 3.04695472727273  4.54834308923077 2.17656823636363  4.91874921230769 1.99715938181819  C 4.9491730523077 1.98260387272727  4.97793439384616 1.97606207272727  5.00519946461539 1.97737043636364  C 5.30927163692308 1.98865503636364  5.42298697846154 2.92625850909091  5.53603733538462 3.3910534  Z " fill-rule="nonzero" fill="#0b224e" stroke="none" transform="matrix(1 0 0 1 283 748 )" />
  </g>
</svg>