<?xml version="1.0" encoding="utf-8"?>
<svg version="1.1" xmlns:xlink="http://www.w3.org/1999/xlink" width="17px" height="18px" xmlns="http://www.w3.org/2000/svg">
  <g transform="matrix(1 0 0 1 -278 -745 )">
    <path d="M 1.96532258888889 6.89382380842106  C 1.37558971777778 5.16411854526316  0.470663586666667 0.952425113684209  0.470323303333333 0.713310290526312  C 0.469983190000003 0.474195448421052  1.35449745888889 -0.172590593684212  1.60726441444444 0.249226389473682  C 1.86003137 0.671043372631576  2.28102613222222 3.24455301473684  2.70202089444445 4.1727208168421  C 3.12301565666667 5.1008886  4.34415563333333 7.46340455368421  6.57568301666667 7.96958492210526  C 8.25983217888889 8.47576529052631  8.59679809444445 9.23520628421053  8.84939495555556 9.19310981684211  C 9.10199181666667 9.15101333052632  8.97577843333334 7.50550102105263  9.22837529444445 7.33677423157895  C 9.48097213666667 7.16804744210526  12.0494654544444 7.12578052421053  13.1442219344444 5.69143237263158  C 14.2389784333333 4.25708420210526  15.1653370122222 1.13512725473684  15.6285162922222 1.13512725473684  C 16.0916956666667 1.13512725473684  16.8496563444445 1.72584145894737  16.8074717888889 1.97893165263158  C 16.7652872333333 2.23202184631579  15.0950861744444 5.94162522947368  14.66014329 6.61960015578947  C 14.0916727911111 7.50550102105263  11.2916748711111 10.0790106821053  11.3338594077778 11.1759052547368  C 11.3760439255556 12.2727998463158  12.6812127488889 15.0571327642105  12.7233972855556 15.9009372  C 12.7655818033333 16.7447415789474  11.5444418455556 17.4196487368421  9.90230710666667 17.5883754315789  C 8.26017238666667 17.7571023157895  6.28124184555556 18.0101925473684  6.11284392555556 16.8712014315789  C 5.94444602444444 15.7320399789474  6.09175166666667 13.6016511536842  5.71277132777778 12.2516663873684  C 5.33379098888889 10.9016816210526  2.55488534666667 8.62352907157895  1.96532258888889 6.89382380842106  Z " fill-rule="nonzero" fill="#1b90fb" stroke="none" transform="matrix(1 0 0 1 278 745 )" />
  </g>
</svg>