<?xml version="1.0" encoding="utf-8"?>
<svg version="1.1" xmlns:xlink="http://www.w3.org/1999/xlink" width="18px" height="10px" xmlns="http://www.w3.org/2000/svg">
  <g transform="matrix(1 0 0 1 -25 -761 )">
    <path d="M 17.153147846 7.52191571673913  C 17.7568674666667 8.27147692050724  18.0454834433333 8.07470335442029  17.938229446 8.49903069224638  C 17.8959646333333 8.66596627536232  17.0671709353333 7.87337558688406  16.06975259 8.53640668369565  C 15.0723341964667 9.19943776304347  13.7477984856667 9.49075058210146  13.215002514 9.32224456963768  C 12.6820617977333 9.15373855717392  11.7067889584667 9.9266990097826  10.3585155349333 9.5600060710145  C 9.01024209533333 9.19331313224638  8.97550396973333 8.51049474789855  8.38785071046667 8.21918194630435  C 7.99183610433333 8.02287951775363  7.26494085346667 8.13924759021739  5.82403242833333 7.22259376913043  C 3.49440698873333 5.74090301384058  2.90906961093333 3.72935273217391  2.0934473984 3.45829833818841  C 1.08198902930667 3.12222858833333  0.345251318035334 3.76594351768116  0.345251318035334 3.76594351768116  C 0.345251318035334 3.76594351768116  -0.0902779104666663 3.453115965  1.72145999259333 2.6229922334058  C 3.53319789886667 1.79286851927537  3.42261487213333 1.1818183107971  3.96510857133333 0.948611028333334  C 4.50760227053333 0.7154037284058  4.82342971786667 1.5507098331884  6.2446532148 0.627303192101453  C 7.66587669566667 -0.29610343152174  7.24641384993333 1.06011079601449  9.26469886053333 0.270346862898558  C 11.2829838550667 -0.519260036014496  14.0804160174 2.03141522659421  14.8249698042 3.01968018934783  C 16.4400031393333 5.16345978384058  15.9536693488 6.03284398717392  17.153147846 7.52191571673913  Z " fill-rule="nonzero" fill="#f3f9ff" stroke="none" transform="matrix(1 0 0 1 25 761 )" />
  </g>
</svg>