<?xml version="1.0" encoding="utf-8"?>
<svg version="1.1" xmlns:xlink="http://www.w3.org/1999/xlink" width="4px" height="7px" xmlns="http://www.w3.org/2000/svg">
  <g transform="matrix(1 0 0 1 -47 -742 )">
    <path d="M 2.34843027807407 5.14197256876471  C 2.4706570162963 5.03890409640197  2.53193121274074 4.89999218312746  2.53193121274074 4.72479063398039  C 2.53193121274074 4.54289634235294  2.47741165718518 4.39833276406863  2.36821171874074 4.29080245787256  C 2.25917260762963 4.18327213513726  2.073902608 4.08407059755882  1.81256256503704 3.99319781205883  C 1.55122250422222 3.90232502655883  1.32590717696297 3.81189841948039  1.13645573807407 3.72206674452941  C 0.947004299185184 3.63223505303922  0.784571405999998 3.52916658067648  0.649157058518515 3.4127125737353  C 0.513742693185186 3.29625858333333  0.408241729851852 3.15942885807843  0.332654150666668 3.00192595671569  C 0.257066571481478 2.84442303881373  0.219433600296295 2.65717453997059  0.219433600296295 2.43988300239216  C 0.219433600296295 2.06508853037256  0.348897443555554 1.75811402193138  0.60782511222222 1.51851328210785  C 0.866752798740739 1.27906126291177  1.21091754377778 1.13940571342157  1.63999771051851 1.09939789647059  L 1.63999771051851 0.387585877274513  L 2.21542830488889 0.387585877274513  L 2.21542830488889 1.10936267468628  C 2.63984455037037 1.16483819769608  2.97194744177778 1.32829022186275  3.21173699696297 1.6000162049804  C 3.4515265342963 1.87159346747059  3.57134089822222 2.22363254228432  3.57134089822222 2.65598472533334  L 2.53193121274074 2.65598472533334  C 2.53193121274074 2.3899104072255  2.47258690859259 2.19091239994118  2.35389831814815 2.05899068694118  C 2.2352097277037 1.9270689904804  2.07631498229629 1.86103377366667  1.87737489140741 1.86103377366667  C 1.68068634748148 1.86103377366667  1.52854622511111 1.91264237843138  1.42063288748148 2.01571085079412  C 1.31271954985185 2.11877932315687  1.25884328577777 2.26126071342157  1.25884328577777 2.44315500504902  C 1.25884328577777 2.61166379517648  1.31159377637037 2.74685751083334  1.4170947397037 2.84888488918628  C 1.52259572088889 2.95091226753922  1.71864095548148 3.05517057107843  2.00506965185185 3.16151106263726  C 2.29165917555556 3.26800027482353  2.52710646414814 3.36824292295099  2.71173315444445 3.46253644827451  C 2.89635986259259 3.55682997359804  3.05219894222223 3.66317046515687  3.17925041118518 3.7818553807451  C 3.30630188014815 3.90054029633334  3.40343996496296 4.0357340119902  3.47050385614815 4.18758524834314  C 3.53756772948148 4.3394365012353  3.57118007088889 4.51627404344118  3.57118007088889 4.71809787496079  C 3.57118007088889 5.094974535  3.44412860192592 5.40105667005882  3.190025664 5.63604685542157  C 2.93592272607407 5.8710370242451  2.58580745896296 6.0096514797255  2.13984070785185 6.0517415012353  L 2.13984070785185 6.71358092526471  L 1.56794826125926 6.71358092526471  L 1.56794826125926 6.05501352043138  C 1.07646814244444 6.00623073990196  0.6957961997037 5.84486090375491  0.42609326037037 5.57105273261765  C 0.156390338888886 5.29724456148039  0.0214584555555525 4.93300978326471  0.0214584555555525 4.47849713513726  L 1.06086815888889 4.47849713513726  C 1.06086815888889 4.74234054459804  1.1285753237037 4.94475929170588  1.26415051637037 5.0854559517451  C 1.39972569118519 5.2261525952451  1.59448434281481 5.29664964589216  1.84858728074074 5.29664964589216  C 2.05958920740741 5.29664964589216  2.2262035577037 5.24504104112746  2.34843027807407 5.14197256876471  Z " fill-rule="nonzero" fill="#fff0c6" stroke="none" transform="matrix(1 0 0 1 47 742 )" />
  </g>
</svg>