<?xml version="1.0" encoding="utf-8"?>
<svg version="1.1" xmlns:xlink="http://www.w3.org/1999/xlink" width="8px" height="9px" xmlns="http://www.w3.org/2000/svg">
  <g transform="matrix(1 0 0 1 -191 -715 )">
    <path d="M 5.5439591 0.0701788235294126  C 5.5439591 0.0701788235294126  7.14207954 -0.23076  7.75175358 0.930684705882353  C 7.75175358 0.930684705882353  6.64119224 2.0502  5.50019224 3.25357411764706  C 4.1336939 4.69461176470588  2.92767402 5.51242588235294  2.25964418 6.50996470588235  C 2.101867386 6.74534117647059  2.52386628 7.71448235294118  2.19858672 8.10156705882353  C 1.873307164 8.48865176470588  0.470786722 8.89746352941176  0.328499429800004 7.97253882352941  C 0.231059650799999 7.33921411764706  0.0235723580000027 6.57438352941176  0.698626502000003 6.04245176470589  C 0.947539208000002 5.84633647058824  2.26396684 4.29075529411765  2.9754033 3.51639529411765  C 3.68683976 2.74203529411765  5.5439591 0.0701788235294126  5.5439591 0.0701788235294126  Z " fill-rule="nonzero" fill="#f1b282" stroke="none" transform="matrix(1 0 0 1 191 715 )" />
  </g>
</svg>