<?xml version="1.0" encoding="utf-8"?>
<svg version="1.1" xmlns:xlink="http://www.w3.org/1999/xlink" width="12px" height="11px" xmlns="http://www.w3.org/2000/svg">
  <g transform="matrix(1 0 0 1 -42 -740 )">
    <path d="M 6.10691815758621 0.105414642358934  C 9.26434408931035 0.105414642358934  11.8216390011724 2.52890108369643  11.8216390011724 5.52111716376786  C 11.8216390011724 6.68993605755357  11.431134568069 7.77319007607738  10.7643722172414 8.65778604448214  C 10.3976753763448 9.15428929394048  9.94053964551724 9.58750577269048  9.41662284793103 9.93501546877977  C 8.48318550393103 10.5668899976488  7.34027127572413 10.9369615973095  6.1067684217931 10.9369615973095  C 2.94934247344827 10.9369615973095  0.392047569896551 8.5134751512381  0.392047569896551 5.52125907116667  C 0.392047569896551 4.35229828576191  0.782551996351724 3.26918615885714  1.44931434551724 2.38459019045238  C 1.81601118641379 1.88808694099405  2.27314691724138 1.45487046224405  2.79706371482759 1.10736076615476  C 3.73050105882759 0.475486237285719  4.87341528703448 0.105414642358934  6.10691815758621 0.105414642358934  Z " fill-rule="nonzero" fill="#ffd255" stroke="none" transform="matrix(1 0 0 1 42 740 )" />
  </g>
</svg>