<?xml version="1.0" encoding="utf-8"?>
<svg version="1.1" xmlns:xlink="http://www.w3.org/1999/xlink" width="6px" height="21px" xmlns="http://www.w3.org/2000/svg">
  <g transform="matrix(1 0 0 1 -157 -757 )">
    <path d="M 5.83649613818182 10.770501  C 5.78992939636364 9.85838700000001  6.26404570909091 3.459414  5.65887445090909 2.091621  C 5.05370317090909 0.723828000000001  2.26087706181818 -0.529808999999997  0.538496749090913 0.858207000000002  C 0.538496749090913 0.858207000000002  -0.170811141818177 3.32087700000001  0.114090916363638 5.42539200000001  C 0.314701265454548 6.906963  1.64509564363636 9.94098000000001  2.41551010909091 11.608527  C 2.21273842909091 15.003912  2.66720633454546 19.653879  2.76387656727273 20.582247  C 2.77370077090909 20.675802  2.85543818181818 20.747244  2.95328729454546 20.747244  L 4.50531582545455 20.747244  C 4.60139659636364 20.747244  4.68195510545455 20.678826  4.69413713454546 20.587161  C 4.85564712 19.370946  5.87952617454546 11.611173  5.83649613818182 10.770501  Z " fill-rule="nonzero" fill="#102b5e" stroke="none" transform="matrix(1 0 0 1 157 757 )" />
  </g>
</svg>