<?xml version="1.0" encoding="utf-8"?>
<svg version="1.1" xmlns:xlink="http://www.w3.org/1999/xlink" width="10px" height="2px" xmlns="http://www.w3.org/2000/svg">
  <g transform="matrix(1 0 0 1 -70 -767 )">
    <path d="M 9.68621957926666 1.86267955166667  C 9.68274575706666 1.86629151506667  9.67854824399999 1.86903661753333  9.67406122566666 1.870336925  C 9.66581092806666 1.8727930524  9.65654743433333 1.87120378593334  9.64959980599999 1.86513569513334  C 9.64163898153333 1.85820072733334  8.84034625946666 1.17351669073333  7.2942102614 0.665385478466669  C 5.86705233226667 0.196407977733338  3.49516219246666 -0.213622256533336  0.300557467199997 0.496201052399999  C 0.286662210533325 0.499379585333338  0.272766969933332 0.490566392066671  0.269727381533323 0.476696440399996  C 0.266687793133326 0.462682017266673  0.274648617599996 0.447656245666667  0.289412325799992 0.445922507733337  C 3.49718856866666 -0.266790375133337  5.8796449036 0.145696002600005  7.31346097186666 0.617418589733336  C 8.86857099053333 1.12901727786667  9.6756534002 1.8193359748  9.68375895319999 1.82627095866667  C 9.69446987686666 1.83566205386667  9.69562781759999 1.85198813293334  9.68621957926666 1.86267955166667  Z " fill-rule="nonzero" fill="#f3f9ff" stroke="none" transform="matrix(1 0 0 1 70 767 )" />
  </g>
</svg>