<?xml version="1.0" encoding="utf-8"?>
<svg version="1.1" xmlns:xlink="http://www.w3.org/1999/xlink" width="12px" height="14px" xmlns="http://www.w3.org/2000/svg">
  <g transform="matrix(1 0 0 1 -328 -737 )">
    <path d="M 10.1568385846154 13.6488030933333  L 8.53007741538463 13.6488030933333  L 8.53007741538463 13.3252477866667  L 10.1531811692308 13.3252477866667  L 10.1604961846154 13.5589733066667  L 10.1568385846154 13.6488030933333  Z M 6.90697384615385 13.3252477866667  L 6.90697384615385 13.6488030933333  L 5.28403643076923 13.6488030933333  L 5.28403643076923 13.3252477866667  L 6.90697384615385 13.3252477866667  Z M 3.66109901538462 13.3252477866667  L 3.66109901538462 13.6488030933333  L 2.03799526153846 13.6488030933333  L 2.03799526153846 13.3252477866667  L 3.66109901538462 13.3252477866667  Z M 0.858448061538468 12.6643690133333  L 0.567177046153854 12.7991976  C 0.48056067692308 12.6081203733333  0.436504246153845 12.4041144266667  0.436504246153845 12.1927204  L 0.436504246153845 11.1095575733333  L 0.756868984615389 11.1095575733333  L 0.756868984615389 12.1927204  C 0.756868984615389 12.35726856  0.790950276923092 12.5159398933333  0.858448061538468 12.6643690133333  Z M 11.5947393230769 12.1927204  C 11.5947393230769 12.3376235733333  11.5736254153846 12.4808474933333  11.5320627692308 12.6185305866667  L 11.2254969230769 12.5241674133333  C 11.2579157538462 12.4170431466667  11.2743745846154 12.3055534933333  11.2743745846154 12.1927204  L 11.2743745846154 10.93795752  L 11.5947393230769 10.93795752  L 11.5947393230769 12.1927204  Z M 0.757035138461543 7.83135699733334  L 0.757035138461543 9.470457304  L 0.436670399999999 9.470457304  L 0.436670399999999 7.83135699733334  L 0.757035138461543 7.83135699733334  Z M 11.5947393230769 7.65958896266667  L 11.5947393230769 9.298857176  L 11.2743745846154 9.298857176  L 11.2743745846154 7.65958896266667  L 11.5947393230769 7.65958896266667  Z M 0.757035138461543 4.552988496  L 0.757035138461543 6.19225670933333  L 0.436670399999999 6.19225670933333  L 0.436670399999999 4.552988496  L 0.757035138461543 4.552988496  Z M 11.5947393230769 4.38122046133334  L 11.5947393230769 6.020488656  L 11.2743745846154 6.020488656  L 11.2743745846154 4.38122046133334  L 11.5947393230769 4.38122046133334  Z M 0.757035138461543 2.91388818933334  L 0.436670399999999 2.91388818933334  L 0.436670399999999 1.66416236  C 0.436670399999999 1.51724443733334  0.458449292307705 1.37200558133334  0.50117575384616 1.23264344  L 0.807076615384622 1.32851786666667  C 0.773992800000004 1.43664946133334  0.757035138461543 1.54965033066667  0.757035138461543 1.66399445333334  L 0.757035138461543 2.91388818933334  Z M 11.5947393230769 2.74212015466667  L 11.2743745846154 2.74212015466667  L 11.2743745846154 1.66416236  C 11.2743745846154 1.49810313333334  11.2396281230769 1.338088528  11.1709667076923 1.18865200533334  L 11.4615725538462 1.05248009066667  C 11.5500179076923 1.24490058933334  11.5947393230769 1.450753584  11.5947393230769 1.66416236  L 11.5947393230769 2.74212015466667  Z M 9.98826073846155 0.208079816000001  L 9.98826073846155 0.53163506666667  L 8.36515698461539 0.53163506666667  L 8.36515698461539 0.208079816000001  L 9.98826073846155 0.208079816000001  Z M 6.74221956923078 0.208079816000001  L 6.74221956923078 0.53163506666667  L 5.11911600000002 0.53163506666667  L 5.11911600000002 0.208079816000001  L 6.74221956923078 0.208079816000001  Z M 3.49601224615385 0.208247722666667  L 3.49601224615385 0.53163506666667  L 1.8780624 0.53163506666667  L 1.87373981538462 0.250895904000002  L 1.87407230769231 0.208247722666667  L 3.49601224615385 0.208247722666667  Z " fill-rule="nonzero" fill="#b8ddfe" stroke="none" transform="matrix(1 0 0 1 328 737 )" />
  </g>
</svg>