<?xml version="1.0" encoding="utf-8"?>
<svg version="1.1" xmlns:xlink="http://www.w3.org/1999/xlink" width="27px" height="26px" xmlns="http://www.w3.org/2000/svg">
  <g transform="matrix(1 0 0 1 -278 -713 )">
    <path d="M 26.5973173448276 9.06779603508772  L 25.5761235310345 6.65426438596491  C 25.3698725793104 6.16699553964912  24.8408304827586 5.88979882947369  24.3121237448276 5.99220897964912  L 22.6423296 6.31552308491228  C 22.248608337931 6.39183835789474  21.8413045862069 6.25758913684211  21.5753581241379 5.9634881754386  C 21.2936496206897 5.6519906231579  20.9953402137931 5.35887437754386  20.6812687655172 5.08512415438597  C 20.3819532827586 4.82433931929825  20.2461295034483 4.42766408842105  20.3239347517241 4.0428053922807  L 20.6537686137931 2.41130000982456  C 20.7584032965517 1.89383330385965  20.4751854 1.37620249136842  19.9773325862069 1.17433631831579  L 17.5118791655172 0.174852583214036  C 17.0140262772414 -0.0270135896561393  16.4397096124138 0.143177647143861  16.1398911662069 0.58137494863158  L 15.1943227882759 1.9632555845614  C 14.9716388358621 2.28870324070176  14.5881462165517 2.47579871157895  14.1885559737931 2.45298620210526  C 13.7688436737931 2.42902483929825  13.3459453924138 2.42984543578948  12.9217056393103 2.45511973473684  C 12.5206062268966 2.47891697824562  12.1366105696552 2.29231384701754  11.9129205227586 1.96555323649123  L 10.9656753144828 0.58137494863158  C 10.6656891703448 0.143013528392983  10.0915401848276 -0.0270135896561393  9.59368729655173 0.174852583214036  L 7.12823389448276 1.17433631831579  C 6.63038098758621 1.37620249136842  6.34716322137931 1.89383330385965  6.45179784827586 2.41146412912281  L 6.78213474827586 4.04575953964912  C 6.85993997793104 4.4311105754386  6.72294238758621 4.82975523789474  6.42245320551724 5.09004771508772  C 6.10418955103448 5.36576736982456  5.80470646344828 5.65773478035088  5.52517775379311 5.96512936842105  C 5.25872834689655 6.25808149473684  4.85343685862069 6.39101776140351  4.46021857862069 6.31486662596491  L 2.79310726551724 5.99204486035088  C 2.26440056482759 5.88963471017544  1.73552618296552 6.16683142035088  1.52927523496552 6.65410026666667  L 0.508081518372415 9.06713955789474  C 0.301830570558621 9.55440840421053  0.475718564793103 10.116515431579  0.923434036758623 10.4099599157895  L 2.33533077517242 11.3354260477193  C 2.66784754344828 11.5533758736842  2.85883926827586 11.9287156505263  2.83569892758621 12.3198108435088  C 2.81138479448276 12.7307644168421  2.81205551172414 13.1446721375439  2.83804649379311 13.5597286750877  C 2.8625283062069 13.9524650610526  2.67170426068966 14.3282972140351  2.33784602068965 14.5470676182456  L 0.923601719793104 15.4741749431579  C 0.475886248386208 15.7676194273684  0.301998254151726 16.3297264547368  0.508249201965517 16.8169953010526  L 1.52944291986207 19.2300346105263  C 1.73569386786207 19.7173034385965  2.26473592344828 19.9943360842105  2.79344262413793 19.8920900350877  L 4.46323688068966 19.5687759298246  C 4.85695821724138 19.4926247578947  5.26426191310345 19.6267097684211  5.53020826344828 19.9208108210526  C 5.81191686 20.2321443087719  6.1102261737931 20.5255887017544  6.4242977337931 20.7991747508772  C 6.72378082137931 21.059959677193  6.85943692137931 21.4566348350877  6.78163169172414 21.8414935859649  L 6.45179784827586 23.472998877193  C 6.34716322137931 23.9904656561404  6.63021330827586 24.5082606736842  7.12823389448276 24.7101268631579  L 9.59368729655173 25.7096104701754  C 10.0915401848276 25.9114766596491  10.6658568496552 25.7412854035088  10.9656753144828 25.303088154386  L 11.9112436737931 23.9212074947368  C 12.1339276262069 23.5957599298246  12.5174202455172 23.4086642947368  12.9170104882759 23.4314769684211  C 13.3367227882759 23.4554382035088  13.7596210696552 23.4546176982456  14.1838608227586 23.4293433263158  C 14.5849602351724 23.4055461192983  14.9689558924138 23.5919850947368  15.192645957931 23.9189098245614  L 16.1397234682759 25.3032521824561  C 16.4395419331034 25.7414496140351  17.013858597931 25.9116408701754  17.5117114862069 25.7097746807018  L 19.9771648137931 24.7102908912281  C 20.4750178137931 24.5084247017544  20.758067937931 23.9906298666667  20.6536008413793 23.4731630877193  L 20.3232640344828 21.838867677193  C 20.2454587862069 21.4535166596491  20.3824564137931 21.0548718877193  20.6829455586207 20.7945794105263  C 21.0012092689655 20.5188599017544  21.300692337931 20.2267282807018  21.5803886896552 19.9193336561404  C 21.8468380965517 19.6263815298246  22.2521296965517 19.4934452631579  22.6453478275862 19.5695964350877  L 24.3122915172414 19.8924182736842  C 24.8409982551724 19.9948283508772  25.3700403517241 19.7177957052632  25.5761235310345 19.2303628491228  L 26.5973173448276 16.8173235396491  C 26.8035682965517 16.3300546933333  26.6296802896552 15.7679476659649  26.1819648 15.4745031817544  L 24.7699003655172 14.5490370498246  C 24.4373836344828 14.3309231045614  24.2463917793103 13.9557474470175  24.2695322689655 13.5646522540351  C 24.2940140068966 13.1538628  24.2931755172414 12.7399550792982  24.2673523448276 12.3248985235088  C 24.2430381931034 11.9323262750877  24.4336945034483 11.556330002807  24.7675526689655 11.3375595985965  L 26.1819648 10.4106163929825  C 26.6296802896552 10.1171718905263  26.8035682965517 9.55506488140351  26.5973173448276 9.06779603508772  Z M 18.7752081413793 10.8248523340351  C 19.9699545103448 13.6478605010526  18.6001463606897 16.8842840126316  15.7159867717241 18.0536307466667  C 12.8316594848276 19.2229775719298  9.52493697310345 17.8824548112281  8.33019064137931 15.0594466442105  C 7.13544429103449 12.236438477193  8.50508472413793 9.00001496561404  11.3894120110345 7.83066823157895  C 14.273739297931 6.66132149754386  17.5804618096552 8.00184416701754  18.7752081413793 10.8248523340351  Z " fill-rule="nonzero" fill="#f3f9ff" stroke="none" transform="matrix(1 0 0 1 278 713 )" />
  </g>
</svg>