<?xml version="1.0" encoding="utf-8"?>
<svg version="1.1" xmlns:xlink="http://www.w3.org/1999/xlink" width="27px" height="8px" xmlns="http://www.w3.org/2000/svg">
  <g transform="matrix(1 0 0 1 -26 -723 )">
    <path d="M 6.33999382795385 7.9132722102  L 6.18682877508462 7.91399459966667  C 5.93476025870769 7.91399459966667  5.67622845602307 7.90864889833334  5.41829788345385 7.89810195106667  C 5.36764367478461 7.89607925413334  5.32841298846923 7.85490286173334  5.3305173189 7.806358055  C 5.33262164933077 7.75766876073333  5.37966841056923 7.7186595528  5.42596364667692 7.7219825572  C 5.6813389704 7.73238501693334  5.93731550755385 7.7375862468  6.18667846338461 7.7375862468  L 6.33849074432307 7.73686385733334  C 6.38959587140769 7.73686385733334  6.43047996973846 7.77587306526667  6.43093460882308 7.82427340053333  C 6.43138182325384 7.87296267873334  6.39064803662308 7.91283877973333  6.33999382795385 7.9132722102  Z M 7.26184010083846 7.88090901106667  C 7.25973577040769 7.88105348253333  7.25778175167692 7.88119797006667  7.25582773294615 7.88119797006667  C 7.20772878980769 7.88119797006667  7.16744592159231 7.845367279  7.16428942594615 7.79870068166667  C 7.1611329303 7.75001140346667  7.19946177978462 7.70811260553334  7.24996567675385 7.70493408866667  C 7.55509332226154 7.68600739466667  7.86037129615385 7.65826749133334  8.15723193163846 7.6222923288  C 8.20818674702308 7.61665766846667  8.25342981791538 7.6504656626  8.25974280920769 7.69872151033333  C 8.2660558005 7.74697735806667  8.23043251156154 7.79118779586667  8.18022923799231 7.79725590273334  C 7.87961086006154 7.8336645118  7.57057517709231 7.86169335806667  7.26184010083846 7.88090901106667  Z M 4.59821094632307 7.7595469862  C 4.59400228546154 7.805202219  4.55386972894615 7.8397326026  4.50697326272308 7.8397326026  C 4.50426770217692 7.8397326026  4.50141181324615 7.83958813113333  4.4987062527 7.8394436436  C 4.19748664465385 7.8132930228  3.88950311021538 7.7802074342  3.58317298779231 7.7406202922  C 3.53296971422308 7.73411875486667  3.49764704868462 7.68976382953334  3.50441095839231 7.6415079818  C 3.51117488478462 7.59325213406667  3.55716949749231 7.55915518093334  3.60752306607692 7.5658012058  C 3.91114762795385 7.60495490126667  4.21657591354615 7.6378960184  4.51508996104615 7.6637576802  C 4.56559384133077 7.66809204913333  4.6028705256 7.71100217946667  4.59821094632307 7.7595469862  Z M 9.09185448212308 7.65783406086667  C 9.08569180253077 7.65884540933334  9.07982974633846 7.65942332733334  9.07411800184615 7.65942332733334  C 9.03097926138462 7.65942332733334  8.9926504119 7.6300941736  8.98423310686154 7.5880509042  C 8.97461330822308 7.54022848693334  9.00708010151538 7.49399533613334  9.05683243998461 7.4847487124  C 9.35805206471538 7.4285465484  9.65641580051538 7.3622308676  9.94365665404615 7.28753544006667  C 9.99220653228461 7.27496579586667  10.0430110359692 7.30256121166667  10.0562382486692 7.34966123946667  C 10.0694654613692 7.39661677973334  10.0404557871231 7.44501709893333  9.99160528548461 7.45787570213334  C 9.70015577109231 7.53358247813334  9.39743306273077 7.60090949133333  9.09185448212308 7.65783406086667  Z M 2.77901880722308 7.5334379906  C 2.7712027323 7.57620366553334  2.7324229644 7.6063996802  2.68868299382308 7.6063996802  C 2.68342216774615 7.6063996802  2.67816134166923 7.60596624973334  2.67275022057692 7.60509937273333  C 2.37573925670769 7.55510978706667  2.07166375973077 7.49818521753334  1.76894105804308 7.43591494666667  C 1.7193390246 7.42580144593334  1.68777409483385 7.37884590566667  1.69844604700846 7.3313124474  C 1.70896769082 7.28363451766667  1.75781817744231 7.25271609746667  1.80726990085385 7.26355198766667  C 2.10773796708462 7.3252443566  2.40970913363077 7.3817354796  2.70446545536923 7.4312916348  C 2.75436810553846 7.4396713976  2.78773675234615 7.48547110186667  2.77901880722308 7.5334379906  Z M 0.983274922924615 7.17166360406667  C 0.973053897507692 7.21168417653333  0.935626908212308 7.23841271533333  0.89459249985 7.23841271533333  C 0.887227350016153 7.23841271533333  0.879711890150769 7.23754583833334  0.872196430285384 7.2358121004  C 0.716476110216923 7.19839214286667  0.559403006538461 7.1592384474  0.400977120417923 7.118351014  C 0.351976324431462 7.10563689833334  0.322966650852692 7.0573810506  0.336043550351077 7.01042551033333  C 0.349270759046768 6.96346997006667  0.399774646839461 6.93573006673334  0.448324515234 6.94801075193334  C 0.605848546003845 6.9886092424  0.761869486135385 7.02747397886667  0.91668795102 7.06474944886667  C 0.965839056036923 7.0765967036  0.995750585466923 7.1244191048  0.983274922924615 7.17166360406667  Z M 10.8733190018538 7.19261301106667  C 10.8630979731 7.19622497446667  10.8527266493308 7.19781424093334  10.8425056205769 7.19781424093334  C 10.8047780178923 7.19781424093334  10.7694553523538 7.17527556746667  10.7560778279538 7.13930040493333  C 10.7389425777923 7.09335621313334  10.7638939028769 7.04307766846667  10.8116922393 7.02660710186667  C 11.0999852580462 6.92778375046667  11.3833180741154 6.81711314433333  11.6538746292692 6.69806279146667  C 11.6998692419769 6.677546831  11.7542811597231 6.697340402  11.7754747590462 6.74155085586667  C 11.7965180466692 6.78576129366667  11.7763766125615 6.83806255133333  11.7302316881538 6.85843402426667  C 11.4548652587077 6.9796515616  11.1665722232769 7.0922003932  10.8733190018538 7.19261301106667  Z M 12.5528738908154 6.45042648693334  C 12.5384442012 6.45866177826667  12.5226617396538 6.46241821313333  12.5071799015077 6.46241821313333  C 12.4754646500308 6.46241821313333  12.4446512687538 6.44667005206667  12.4276663302923 6.4183522468  C 12.4022640867923 6.37616448986667  12.4172950065231 6.3222739818  12.4610349771 6.29785709893334  C 12.7261803777923 6.15034445326667  12.9821569316308 5.99055113846667  13.2217497771231 5.82281149133333  C 13.2627841871538 5.7943492146  13.3202023055308 5.80287344886667  13.3499635215923 5.84217163186667  C 13.3797247376538 5.8814697988  13.3707061858154 5.93680510186667  13.3298220874846 5.96541186613334  C 13.0849684159154 6.13676347666667  12.8237310526846 6.29987979586667  12.5528738908154 6.45042648693334  Z M 14.0469472286308 5.3997781824  C 14.0293610600538 5.41581531853333  14.0068146888 5.4234726758  13.9845689242615 5.4234726758  C 13.9599182225769 5.4234726758  13.9352675042077 5.41393709306667  13.9172304005308 5.39515487053334  C 13.8990430018385 5.37622817653333  13.8910766152154 5.35181129366667  13.8930306339462 5.32811681633333  C 13.7899185262615 5.31699195106667  13.6892113724077 5.30312201546667  13.5909091557 5.28636248986667  C 13.5410065055308 5.27798274313334  13.5076378587231 5.2321830228  13.5165060988615 5.18421613406667  C 13.5252240439846 5.13624924533333  13.5730223637231 5.10388603013334  13.6227747021923 5.11269923946667  C 13.7563995677538 5.13523789686667  13.8952852593923 5.15271979586667  14.0380789884923 5.16500048106667  C 14.2202537322923 4.995527096  14.3899528052077 4.8192632146  14.5441700399769 4.63953185733334  C 14.5764865048846 4.6021118998  14.6340549349615 4.59662171093333  14.6734359329769 4.6276846026  C 14.7125163242769 4.65874751033334  14.7180777737538 4.71422728486667  14.6857612921615 4.7519362014  C 14.5607040433385 4.89757060553334  14.4257263891615 5.04103785733333  14.2824817416462 5.18060417066667  C 14.3606425242462 5.18392717506667  14.4398554553769 5.18580540053334  14.5198199450077 5.18609435953334  C 14.5704741536769 5.18638331853334  14.6113582520077 5.22597044446667  14.6110576286077 5.27465972266667  C 14.6107570052077 5.3232045294  14.5697225951769 5.36235824093334  14.5193690265923 5.36235824093334  C 14.3783790045231 5.36178032293334  14.2402448547 5.35657909306667  14.1055678239231 5.34704351033334  C 14.0861779316308 5.36481436833334  14.0664874326231 5.3822962834  14.0469472286308 5.3997781824  Z M 15.4457245503692 5.3078897988  C 15.4421171363077 5.30832324533334  15.4383594105462 5.3084677168  15.4346016847846 5.3084677168  C 15.3887573670923 5.3084677168  15.3493763690769 5.2756710872  15.3435143128846 5.23088271533334  C 15.3373516332923 5.1826268676  15.3732755289462 5.13870537273334  15.4236291142154 5.13263728193334  C 15.7099681142308 5.09926271826667  16.0110374272615 5.0492731326  16.3185700266 4.9841132878  C 16.3681720533692 4.9732773976  16.4170225383231 5.0036178998  16.4279951088923 5.05115135806667  C 16.4389676794615 5.0988292878  16.4077033797692 5.14578482806667  16.3582516480154 5.15633175926667  C 16.0448569924846 5.22279191153334  15.7379256232615 5.2736483742  15.4457245503692 5.3078897988  Z M 12.8129087938154 4.98758077973334  C 12.7981784808 5.02095532733334  12.7643589155769 5.0408933698  12.7288859550231 5.0408933698  C 12.7167109075385 5.0408933698  12.7043855483538 5.03858171386667  12.6925111242692 5.033669443  C 12.3905399577231 4.9084065118  12.1216368312692 4.74760183246667  11.8930165396615 4.55558979  C 11.8548380185615 4.52351554986667  11.8509299644154 4.4678912878  11.8842986112231 4.43119371973333  C 11.9175169463308 4.39420720873333  11.9755362948231 4.3907397168  12.0137148326077 4.422813973  C 12.2279054179154 4.6026898178  12.4807254761077 4.7538144108  12.7651104573923 4.87170894373334  C 12.8115560052 4.8910690682  12.8330502112385 4.9429368954  12.8129087938154 4.98758077973334  Z M 17.2519901335385 4.93166755866667  C 17.2431219267692 4.93412370213334  17.2344038815385 4.93527952206667  17.2258363315385 4.93527952206667  C 17.1863049717692 4.93527952206667  17.1496295176154 4.91042920873334  17.1379054052308 4.8721423742  C 17.123626044 4.82533132146667  17.151282963 4.7763530682  17.1998328579231 4.7624831326  C 17.4957915731538 4.67825210626667  17.7885938928462 4.59329870653333  18.0776385034615 4.50791186026667  C 18.12603807 4.49331951913334  18.1775940320769 4.51975909893333  18.1923243784615 4.56628120873333  C 18.2072050532308 4.61280331853334  18.1799989525385 4.6622149862  18.1315995528462 4.67651836833334  C 17.8418033003077 4.76204970213333  17.5485501623077 4.8471475894  17.2519901335385 4.93166755866667  Z M 19.0082027381538 4.4129894152  C 18.9990338746154 4.41602347666667  18.9895643543077 4.4171792966  18.9805458191538 4.4171792966  C 18.9416157729231 4.4171792966  18.9055414654615 4.39319586026667  18.893065878 4.3556314152  C 18.8777342180769 4.30925379293334  18.9044893336154 4.25955316626667  18.9527385717692 4.2448163376  C 19.2486974538462 4.154372749  19.5398463281538 4.06392914433333  19.8254337196154 3.9739189862  C 19.8738332861538 3.9588932146  19.9253894150769 3.98388801546667  19.9411718933077 4.03026563773333  C 19.9569542046923 4.07649878853334  19.9308004026923 4.12634390273334  19.8825511645385 4.1415141458  C 19.5963624595385 4.231813279  19.3047627669231 4.32240135513333  19.0082027381538 4.4129894152  Z M 15.2211626246077 4.019863178  C 15.2043279978462 4.0477475528  15.1735146165692 4.0633512424  15.1420999884923 4.0633512424  C 15.1263175269462 4.0633512424  15.1103847537 4.05945032  15.0958047690692 4.05121502866667  C 15.0520647818077 4.02665367433333  15.0374847971769 3.97261867873333  15.0630373690615 3.93057540933333  C 15.2216135597077 3.67051394813334  15.3486248272615 3.40727397006667  15.4404637409769 3.14822385733333  C 15.4566971209385 3.102135178  15.5091550366385 3.0771403932  15.5568030446769 3.09317751326667  C 15.6049019878154 3.10878120286667  15.6304545597 3.15891526  15.6140708513538 3.20500393933334  C 15.5183239001769 3.47546786026667  15.3860518065462 3.7495437446  15.2211626246077 4.019863178  Z M 11.4297636219231 3.88058582366667  C 11.4162358025077 3.88723183246667  11.4018061128923 3.8904103654  11.3875267349769 3.8904103654  C 11.3543084165538 3.8904103654  11.3224428533769 3.87321740933334  11.3060591617154 3.84302139466667  C 11.1581549182385 3.57067924826667  11.0684203349538 3.27680979293334  11.0386591022077 2.96979279146667  C 11.0339995229308 2.92124798473334  11.0711258955 2.87848232586667  11.1216297757846 2.873859014  C 11.1727349028692 2.8693801736  11.2166251851462 2.9050663932  11.2214350928077 2.95361118386667  C 11.2487913550385 3.23765609746667  11.3320626520154 3.50956479733333  11.4686937015231 3.76167994226667  C 11.4921419429769 3.80487904766667  11.4747060694154 3.85819163773334  11.4297636219231 3.88058582366667  Z M 20.7546451656923 3.8625259906  C 20.7445744986923 3.86570452353334  20.7346539932308 3.86714931853334  20.7250343113846 3.86714931853334  C 20.6867054118462 3.86714931853334  20.6510820895385 3.84403274313333  20.6381555169231 3.8071907036  C 20.6219220535385 3.7609575528  20.6476250372308 3.71096795106667  20.695723947 3.69536426146667  C 20.9924343041538 3.59899705353334  21.2819297330769 3.50349670653334  21.5633085971538 3.40944113846667  C 21.6109565217692 3.3934040184  21.6634144541538 3.41767641373333  21.6800989026923 3.46376509306667  C 21.6967831843846 3.50970928486667  21.6715311858462 3.55998782953334  21.6235826044615 3.5760249496  C 21.3419030836154 3.67022498913333  21.0518063411538 3.76586982366667  20.7546451656923 3.8625259906  Z M 22.489814466 3.2825889408  C 22.479743799 3.28605643273333  22.4692221468462 3.28779017066667  22.4590009846154 3.28779017066667  C 22.4212733986154 3.28779017066667  22.3859507330769 3.26525151326667  22.3725733421538 3.22927633466667  C 22.3554380753077 3.1834766304  22.3803894170769 3.1330535982  22.4281876700769 3.11658304766667  C 22.7280544227692 3.01371428633333  23.0158965731538 2.91330166846667  23.2905114941538 2.816501014  C 23.3383097471539 2.79959701693334  23.3907676795385 2.8231470228  23.4082036031538 2.8688022556  C 23.4256395267692 2.91460197593333  23.4012893316923 2.96531395106667  23.3537917354615 2.98192898913334  C 23.0785755009231 3.0790186026  22.7901322038462 3.17943122046667  22.489814466 3.2825889408  Z M 24.2150632608462 2.6744785572  C 24.2043914471538 2.67823499206667  24.1934188098462 2.67996874606667  24.1825965009231 2.67996874606667  C 24.1454702284615 2.67996874606667  24.1105983812308 2.65815247813333  24.0967700051538 2.62289970506667  C 24.0788832632308 2.57738894373334  24.1029326346923 2.5263880096  24.1502800693846 2.509339525  C 24.4602176559231 2.39707966846667  24.7468571792308 2.29175477973334  25.0073430673846 2.19480963773333  C 25.0546905020769 2.1771832512  25.1077495811538 2.19986639613334  25.1260873082308 2.24523266993334  C 25.1444250353077 2.2907434152  25.1208264821538 2.3417443654  25.0736293758462 2.35937075193333  C 24.8126926693846 2.4564603654  24.5256021609231 2.56192974166667  24.2150632608462 2.6744785572  Z M 15.7974480553846 2.31877226146667  C 15.7950431182385 2.36601676073333  15.7544596266231 2.4030032878  15.7057594533692 2.4030032878  C 15.7042563697385 2.4030032878  15.7030538928231 2.4030032878  15.7015507925077 2.40285881633334  C 15.6508966005231 2.40054714433334  15.6118162092231 2.35951523946667  15.6140708513538 2.3108259452  C 15.6157242466846 2.27398390566667  15.6166261002 2.2375752966  15.6166261002 2.20160013406667  C 15.6166261002 1.93864909893334  15.5703308807769 1.69736986026667  15.4789428854769 1.4846973698  C 15.4595530098692 1.439620055  15.4817987577231 1.38804120286667  15.5286952239462 1.36954793933334  C 15.5754413951539 1.3510546758  15.6292520827846 1.37229302573334  15.6484916633769 1.4173703566  C 15.7491988172308 1.65157013993334  15.8001536326154 1.91538805206667  15.8001536326154 2.20160013406667  C 15.8001536326154 2.24032039906667  15.7992517791 2.279329607  15.7974480553846 2.31877226146667  Z M 11.3084640988615 2.11462402133334  C 11.2964393630769 2.15291085586667  11.2599142373077 2.17761668166667  11.2205332226077 2.17761668166667  C 11.2118152941692 2.17761668166667  11.2029470540308 2.17646086173334  11.1942291255923 2.1738602468  C 11.1458295590538 2.15984582366667  11.1181726734231 2.11072309893333  11.1326023463538 2.06405651766667  C 11.2251928185692 1.76671958646667  11.3739989155615 1.49596670653333  11.5751126165538 1.25902182073334  C 11.6071284580615 1.2213129042  11.6648471998385 1.21538928486667  11.7042281978538 1.24645217653334  C 11.7434589008538 1.27722612526667  11.7493209570462 1.3327058998  11.7174554105538 1.37041481633333  C 11.5316732526923 1.58929986906667  11.3941403496692 1.83968126  11.3084640988615 2.11462402133334  Z M 25.9291892568462 2.0363166304  C 25.9182167863846 2.04065098326667  25.9067933307692 2.04252920873333  25.8953697083077 2.04252920873333  C 25.8589949109231 2.04252920873333  25.8244238873077 2.0215798178  25.8101443592308 1.9870494342  C 25.7913558138462 1.94182763186667  25.8142027250769 1.89053772266667  25.8613998313846 1.87247790566667  C 26.4067216359231 1.66341739466667  26.7106467544615 1.54003267286667  26.711248068 1.5398882014  C 26.7579941891538 1.52081701986667  26.8116545817692 1.54191089833333  26.8313450974615 1.58684374166667  C 26.8510356131538 1.63177656893334  26.8292406669231 1.6834999086  26.7824945457692 1.70228213113334  C 26.7824945457692 1.70228213113334  26.4772166386154 1.8261002834  25.9291892568462 2.0363166304  Z M 15.0707031322846 0.825875011066668  C 15.0528163403077 0.851014283400002  15.0239569777615 0.864739747533335  14.9944963684154 0.864739747533335  C 14.9769101998385 0.864739747533335  14.9590234078615 0.859827476666669  14.9433912413308 0.849713975933335  C 14.7186790038692 0.704079555733335  14.4439138045385 0.61060190566667  14.1269117182615 0.571737169200003  C 14.0767084613769 0.56552459086667  14.0412354841385 0.521314137000002  14.0475484754308 0.473058289266669  C 14.0540117617385 0.424802441533336  14.1004573095462 0.392150283400002  14.1502096480154 0.396773595266669  C 14.4959207851385 0.439105823666668  14.7971404098692 0.542408015466668  15.0459021189 0.703501637733336  C 15.0878383824462 0.730663607000002  15.0989612647154 0.785565479600001  15.0707031322846 0.825875011066668  Z M 12.3947486185846 0.839311516200002  C 12.3809201757692 0.846246484000002  12.3663401911385 0.849569488400002  12.3520608132231 0.849569488400002  C 12.3189927898154 0.849569488400002  12.2871272433231 0.832376548400001  12.2707435349769 0.802324989133336  C 12.2471449985077 0.759125899800003  12.2645808553846 0.705813293666668  12.3093730078615 0.683274636266668  C 12.5255176119 0.574337784133337  12.7621042734462 0.495596946666669  13.0125193944923 0.449219324400002  C 13.0798579015385 0.436794167733336  13.1459939483538 0.425958261466667  13.2109275182538 0.416711637733334  C 13.2606798567231 0.409921141400002  13.3077266346462 0.442862258533336  13.3150917911538 0.490973634800002  C 13.3224569476615 0.539229482533335  13.2878858239385 0.584017838333335  13.2378328620692 0.59109729366667  C 13.1754545577 0.599910486933334  13.1118737597308 0.61031294666667  13.0472408132308 0.62230467286667  C 12.8144118774462 0.665214819266669  12.5948101543615 0.738320980333336  12.3947486185846 0.839311516200002  Z " fill-rule="nonzero" fill="#dae7ff" stroke="none" transform="matrix(1 0 0 1 26 723 )" />
  </g>
</svg>