<?xml version="1.0" encoding="utf-8"?>
<svg version="1.1" xmlns:xlink="http://www.w3.org/1999/xlink" width="12px" height="12px" xmlns="http://www.w3.org/2000/svg">
  <g transform="matrix(1 0 0 1 -334 -132 )">
    <path d="M 340 132  C 343.36 132  346 134.64  346 138  C 346 141.36  343.36 144  340 144  C 336.64 144  334 141.36  334 138  C 334 134.64  336.64 132  340 132  Z " fill-rule="nonzero" fill="#ffffff" stroke="none" />
    <path d="M 340 132.5  C 343.08 132.5  345.5 134.92  345.5 138  C 345.5 141.08  343.08 143.5  340 143.5  C 336.92 143.5  334.5 141.08  334.5 138  C 334.5 134.92  336.92 132.5  340 132.5  Z " stroke-width="1" stroke="#000000" fill="none" />
  </g>
</svg>