<?xml version="1.0" encoding="utf-8"?>
<svg version="1.1" xmlns:xlink="http://www.w3.org/1999/xlink" width="20px" height="20px" xmlns="http://www.w3.org/2000/svg">
  <g transform="matrix(1 0 0 1 -178 -1055 )">
    <path d="M 17.5142045454545 2.48579545454545  C 17.0691287878788 2.0407196969697  16.5340909090909 1.81818181818182  15.9090909090909 2  L 4.09090909090909 2  C 3.46590909090909 1.81818181818182  2.93087121212121 2.0407196969697  2.48579545454545 2.48579545454545  C 2.0407196969697 2.93087121212121  1.81818181818182 3.46590909090909  2 4.09090909090909  L 2 15.9090909090909  C 1.81818181818182 16.5340909090909  2.0407196969697 17.0691287878788  2.48579545454545 17.5142045454545  C 2.93087121212121 17.9592803030303  3.46590909090909 18.1818181818182  4.09090909090909 18  L 15.9090909090909 18  C 16.5340909090909 18.1818181818182  17.0691287878788 17.9592803030303  17.5142045454545 17.5142045454545  C 17.9592803030303 17.0691287878788  18.1818181818182 16.5340909090909  18 15.9090909090909  L 18 4.09090909090909  C 18.1818181818182 3.46590909090909  17.9592803030303 2.93087121212121  17.5142045454545 2.48579545454545  Z M 18.7997159090909 1.20028409090909  C 19.5999053030303 2.00047348484848  20 2.96401515151515  20 4.09090909090909  L 20 15.9090909090909  C 20 17.0359848484848  19.5999053030303 17.9995265151515  18.7997159090909 18.7997159090909  C 17.9995265151515 19.5999053030303  17.0359848484849 20  15.9090909090909 20  L 4.09090909090909 20  C 2.96401515151515 20  2.00047348484849 19.5999053030303  1.20028409090909 18.7997159090909  C 0.400094696969697 17.9995265151515  0 17.0359848484848  0 15.9090909090909  L 0 4.09090909090909  C 0 2.96401515151515  0.400094696969697 2.00047348484848  1.20028409090909 1.20028409090909  C 2.00047348484849 0.400094696969695  2.96401515151515 0  4.09090909090909 0  L 15.9090909090909 0  C 17.0359848484849 0  17.9995265151515 0.400094696969695  18.7997159090909 1.20028409090909  Z " fill-rule="nonzero" fill="#aaaaaa" stroke="none" transform="matrix(1 0 0 1 178 1055 )" />
  </g>
</svg>