<?xml version="1.0" encoding="utf-8"?>
<svg version="1.1" xmlns:xlink="http://www.w3.org/1999/xlink" width="4px" height="4px" xmlns="http://www.w3.org/2000/svg">
  <g transform="matrix(1 0 0 1 -338 -136 )">
    <path d="M 340 136  C 341.12 136  342 136.88  342 138  C 342 139.12  341.12 140  340 140  C 338.88 140  338 139.12  338 138  C 338 136.88  338.88 136  340 136  Z " fill-rule="nonzero" fill="#000000" stroke="none" />
    <path d="M 340 136.5  C 340.84 136.5  341.5 137.16  341.5 138  C 341.5 138.84  340.84 139.5  340 139.5  C 339.16 139.5  338.5 138.84  338.5 138  C 338.5 137.16  339.16 136.5  340 136.5  Z " stroke-width="1" stroke="#000000" fill="none" />
  </g>
</svg>