<?xml version="1.0" encoding="utf-8"?>
<svg version="1.1" xmlns:xlink="http://www.w3.org/1999/xlink" width="5px" height="8px" xmlns="http://www.w3.org/2000/svg">
  <g transform="matrix(1 0 0 1 -338 -1581 )">
    <path d="M 4.37340116016773 4.30561469983552  C 4.40058135736485 4.27631402138156  4.41497086588542 4.24045297080595  4.43352079192942 4.20690837787827  C 4.43864393731736 4.19670530427629  4.44694756259142 4.18816443256583  4.45143461599969 4.17762539062499  C 4.53938772672252 3.98946095805923  4.51059149990862 3.75921106085525  4.35485124411779 3.6078802425987  L 0.824469259697038 0.173353186677624  C 0.631938607913014 -0.0138210012336068  0.328452245522707 -0.0049441509045859  0.146150694730049 0.192769078947419  C -0.0358242101837113 0.390800606496733  -0.0275033951252289 0.702958007812478  0.165027256658921 0.890468174342069  L 3.33274881499007 3.97269750205591  L 0.177491289462226 7.10065497532891  C -0.0131138866044959 7.28979197162828  -0.0188731339661609 7.60196705386508  0.165027256658921 7.79835407072369  C 0.259049060843874 7.8990055098684  0.384738105640028 7.94934891036188  0.510427150436341 7.94934891036188  C 0.630356957865009 7.94934891036188  0.750286755299656 7.90330246710528  0.843345821626037 7.81119189967103  L 4.34175110934079 4.34310258018091  C 4.348473094561 4.33618853824009  4.35101747247359 4.32665742187503  4.35773945769379 4.31942509251647  C 4.3628626030816 4.31449155016448  4.36829520456418 4.31086653988489  4.37340116016773 4.30561469983552  Z " fill-rule="nonzero" fill="#262626" stroke="none" transform="matrix(1 0 0 1 338 1581 )" />
  </g>
</svg>