<?xml version="1.0" encoding="utf-8"?>
<svg version="1.1" xmlns:xlink="http://www.w3.org/1999/xlink" width="9px" height="21px" xmlns="http://www.w3.org/2000/svg">
  <g transform="matrix(1 0 0 1 -185 -1609 )">
    <path d="M 8.8948051948052 4.78819444444445  C 8.9961038961039 4.91782407407407  9.01558441558442 5.05960648148148  8.95324675324675 5.21354166666667  C 8.88311688311688 5.36747685185185  8.77012987012987 5.44444444444445  8.61428571428571 5.44444444444445  L 6 5.44444444444445  L 6 20.6111111111111  C 5.9961038961039 20.724537037037  5.96103896103896 20.8177083333333  5.89090909090909 20.890625  C 5.82077922077922 20.9635416666667  5.73116883116883 21  5.62207792207792 21  L 3.37792207792208 21  C 3.26883116883117 21  3.17922077922078 20.9635416666667  3.10909090909091 20.890625  C 3.03896103896104 20.8177083333333  3.0038961038961 20.724537037037  3 20.6111111111111  L 3 5.44444444444445  L 0.385714285714286 5.44444444444445  C 0.222077922077922 5.44444444444445  0.109090909090909 5.36747685185185  0.0467532467532468 5.21354166666667  C -0.0155844155844156 5.05960648148148  0.00389610389610389 4.91782407407407  0.105194805194805 4.78819444444445  L 4.1961038961039 0.121527777777779  C 4.27402597402597 0.0405092592592589  4.36363636363636 0  4.46493506493507 0  C 4.57402597402597 0  4.66753246753247 0.0405092592592589  4.74545454545455 0.121527777777779  L 8.8948051948052 4.78819444444445  Z " fill-rule="nonzero" fill="#e21f0c" stroke="none" transform="matrix(1 0 0 1 185 1609 )" />
  </g>
</svg>