<?xml version="1.0" encoding="utf-8"?>
<svg version="1.1" xmlns:xlink="http://www.w3.org/1999/xlink" width="11px" height="15px" xmlns="http://www.w3.org/2000/svg">
  <g transform="matrix(1 0 0 1 -117 -3185 )">
    <path d="M 0.26542854309082 9.67423502604167  L 4.89736747741699 14.5746866861979  C 5.05730438232422 14.7458902994792  5.2837085723877 14.8425699869792  5.52049827575684 14.8425699869792  C 5.75728797912598 14.8425699869792  5.98369216918945 14.7458902994792  6.14362907409668 14.5746866861979  L 10.7755680084229 9.67423502604167  C 11.091287612915 9.33988444010417  11.0684394836426 8.82224527994792  10.7257175445557 8.51407877604167  C 10.3809185028076 8.20792643229167  9.84710311889648 8.23008219401042  9.52930641174316 8.56241861979167  L 6.40742111206055 11.8696695963542  L 6.40742111206055 0.952921549479167  C 6.40742111206055 0.501749674479167  6.02938842773438 0.137186686197917  5.56619453430176 0.137186686197917  C 5.10092353820801 0.137186686197917  4.72496795654297 0.503763834635417  4.72496795654297 0.952921549479167  L 4.72496795654297 11.9663492838542  L 1.51169013977051 8.56241861979167  C 1.19597053527832 8.22806803385417  0.660078048706055 8.20591227213542  0.315279006958008 8.51407877604167  C -0.0295200347900391 8.82023111979167  -0.0523681640625 9.33988444010417  0.26542854309082 9.67423502604167  Z " fill-rule="nonzero" fill="#ffffff" stroke="none" transform="matrix(1 0 0 1 117 3185 )" />
  </g>
</svg>