<?xml version="1.0" encoding="utf-8"?>
<svg version="1.1" xmlns:xlink="http://www.w3.org/1999/xlink" width="18px" height="7px" xmlns="http://www.w3.org/2000/svg">
  <g transform="matrix(1 0 0 1 -113 -3196 )">
    <path d="M 17.9127141270069 0.929559326171875  C 17.9127141270069 0.455828857421875  17.551495753297 0.0709228515625  17.1044630698108 0.0709228515625  C 16.6574303863245 0.0709228515625  16.2962120126147 0.455828857421875  16.2962120126147 0.927444458007813  L 16.2962120126147 5.2142822265625  L 1.7297318484805 5.2142822265625  L 1.7297318484805 0.929559326171875  C 1.7297318484805 0.455828857421875  1.36651779314794 0.0730377197265625  0.921480791284404 0.0730377197265625  C 0.474448107798165 0.0730377197265625  0.113229734088303 0.457943725585937  0.113229734088303 0.929559326171875  L 0.113229734088303 6.07503356933594  C 0.113229734088303 6.54876403808594  0.476443789420872 6.93155517578125  0.921480791284404 7  L 17.1044630698108 7  C 17.551495753297 6.93155517578125  17.9127141270069 6.54664916992188  17.9127141270069 6.07503356933594  L 17.9127141270069 0.929559326171875  Z " fill-rule="nonzero" fill="#ffffff" stroke="none" transform="matrix(1 0 0 1 113 3196 )" />
  </g>
</svg>