<?xml version="1.0" encoding="utf-8"?>
<svg version="1.1" xmlns:xlink="http://www.w3.org/1999/xlink" width="6px" height="9px" xmlns="http://www.w3.org/2000/svg">
  <g transform="matrix(1 0 0 1 -270 -2279 )">
    <path d="M 5.24808139220128 4.84381653731496  C 5.28069762883782 4.81085327405425  5.29796503906251 4.7705095921567  5.3202249503153 4.73277192511305  C 5.32637272478083 4.72129346731083  5.33633707510971 4.71168498663656  5.34172153919963 4.69982856445311  C 5.44726527206702 4.48814357781663  5.41270979989035 4.22911244346216  5.22582149294135 4.05886527292354  L 0.989363111636446 0.195022335012327  C 0.758326329495617 -0.0155486263878077  0.394142694627249 -0.00556216976765914  0.175380833676059 0.216865213815847  C -0.0429890522204535 0.439650682308825  -0.0330040741502747 0.790827758789037  0.198032707990706 1.00177669613483  L 3.99929857798808 4.4692846898129  L 0.212989547354672 7.98823684724502  C -0.0157366639253951 8.20101596808182  -0.022647760759393 8.55221293559821  0.198032707990706 8.77314832956415  C 0.310858873012648 8.88638119860195  0.461685726768034 8.94301752415711  0.612512580523609 8.94301752415711  C 0.756428349438011 8.94301752415711  0.900344106359588 8.89121527549344  1.01201498595124 8.78759088712991  L 5.21010133120895 4.88599040270352  C 5.2181677134732 4.87821210552011  5.2212209669683 4.86748959960941  5.22928734923255 4.85935322908103  C 5.23543512369793 4.85380299393504  5.24195424547702 4.8497248573705  5.24808139220128 4.84381653731496  Z " fill-rule="nonzero" fill="#ffffff" stroke="none" transform="matrix(1 0 0 1 270 2279 )" />
  </g>
</svg>