<?xml version="1.0" encoding="utf-8"?>
<svg version="1.1" xmlns:xlink="http://www.w3.org/1999/xlink" width="20px" height="20px" xmlns="http://www.w3.org/2000/svg">
  <g transform="matrix(1 0 0 1 -44 -2415 )">
    <path d="M 19.8932983791307 2.5130546875  C 19.8932983791307 1.97377811145231  19.5563444234914 1.20960153992052  17.9479763829023 0.63168359375  C 16.8609585802802 0.241397398843931  15.4257914197198 0.0263019553829478  13.9075599407328 0.0263019553829478  C 12.3885638918822 0.0263019553829478  10.9533967313218 0.242166388186416  9.86714349856322 0.63168359375  C 8.25940348868535 1.21026068009393  7.92171228448276 1.97377811145231  7.92171228448276 2.5130546875  C 7.92171228448276 2.59319366419798  7.91051690463362 2.67410163023844  7.92597200520833 2.75347164017341  C 7.91051690463362 2.80345551842486  7.884712890625 2.85475765444364  7.884712890625 2.90537319364162  L 7.884712890625 5.26211291997832  C 7.884712890625 5.34365254696532  7.8923858207615 5.42453305635838  7.90710367277299 5.50327138276734  C 7.89238582076149 5.55240387915462  7.884712890625 5.60304689757948  7.884712890625 5.65509054371387  L 7.884712890625 6.81166799132948  C 7.18562901849856 6.74064694725434  6.70469142869971 6.70480685513006  6.07911483028017 6.70480685513006  C 4.55798893229167 6.70480685513006  3.13273379130747 6.92067128793353  2.04776391882184 7.31007862174856  C 0.440023908943965 7.88736490697254  0.106592403017242 8.65088233833092  0.106592403017242 9.19015891437861  C 0.106592403017242 9.27233020231214  0.15907421875 9.3532381683526  0.174420079022989 9.43197651734104  C 0.159074196300288 9.48185054642341  0.195336341594827 9.53323505238439  0.195336341594827 9.58313653811416  L 0.195336341594827 11.9398488078035  C 0.195336341594827 12.0213884347905  0.203009271731322 12.1015274114884  0.218491693606322 12.1802657604769  C 0.203009294181034 12.2323368858381  0.195336341594827 12.2815517747471  0.195336341594827 12.33142578125  L 0.195336341594827 14.6895386786488  C 0.195336341594827 14.7710783056358  0.203009271731322 14.8512172823338  0.218491693606322 14.9307245980853  C 0.203009294181034 14.9813401372832  0.195336341594827 15.0318732839595  0.195336341594827 15.0811156520954  L 0.195336341594827 17.4378553784321  C 0.195336341594827 17.9771319544798  0.491003883800287 18.7406493858381  2.09811584051724 19.3185398753613  C 3.18297649515086 19.7087161985188  4.59711815283764 19.9238116419798  6.11824405082615 19.9238116419798  C 7.63936994881465 19.9238116419798  9.06183988864942 19.7080021450506  10.1460725125718 19.3185398753613  C 11.7538125224497 18.7406219066113  12.0789157237787 17.9771044752529  12.0789157237787 17.4378553784321  L 12.0789157237787 15.8883003070809  C 12.7778903780532 15.9607220014451  13.2798261494253 15.9965071576951  13.9054300466954 15.9965071576951  C 15.4236888469828 15.9965071576951  16.7972813397989 15.7806976607659  17.8842991648707 15.391125519328  C 19.4920391747486 14.813207550578  19.7681830325072 14.0490584582731  19.7681830325072 13.509754425578  L 19.7681830325072 11.1537836885838  C 19.7681830325072 11.1017674990968  19.7605101023707 11.0503829705564  19.7451369207974 11.0012504741691  C 19.7605101023707 10.9238853188223  19.7681830325072 10.8430048094292  19.7681830325072 10.7614651824422  L 19.7681830325072 8.40412125180636  C 19.7681830325072 8.35210506231936  19.7605101023707 8.3007205337789  19.7451369207974 8.25156058074422  C 19.7605101023707 8.17488202221821  19.7681830325072 8.09611621658237  19.7681830325072 8.01180276824422  L 19.7681830325072 5.65509049855491  C 19.7681830325072 5.60241519147399  19.7605101023707 5.55100320628612  19.7451369207974 5.50252982749277  C 19.7605101023707 5.42516467214595  19.7681830325072 5.34579468479046  19.7681830325072 5.26211287481936  L 19.7681830325072 2.90537314848266  C 19.7681830325072 2.85335695899566  19.8234227280891 2.80271396315029  19.8080768453664 2.75347159501445  C 19.8234227505388 2.67624379064306  19.8932983791307 2.5953358246026  19.8932983791307 2.5130546875  Z M 13.9075599407328 14.951734329841  C 13.2742011943247 14.951734329841  12.6555330010776 14.9123788836705  12.0726354391164 14.8350137509032  C 12.0781785201149 14.7872819048049  12.0789157911279 14.7387810693642  12.0789157911279 14.6895387012283  L 12.0789157911279 13.1392421197616  C 12.7778904454023 13.2116912707731  13.2818741693606 13.24750390625  13.9054301140445 13.24750390625  C 15.4222963137572 13.24750390625  16.9658129938937 13.0316394734465  18.0542233970905 12.641463150289  C 18.4016354840158 12.5156246161488  18.3701518498563 12.3765211569725  19.0692357219828 12.2253611136199  L 19.0692357219828 13.5098093840318  C 19.0692357219828 13.6637707053829  18.6994328529095 14.0497725569003  17.7060740391523 14.4068826318642  C 16.7295629265445 14.7584175623194  15.3118987966954 14.951734329841  13.9075599407328 14.951734329841  Z M 17.706046717852 11.6579342485549  C 16.7260131555316 12.009496658237  15.3622234419899 12.2028134257587  13.9612977954382 12.2028134257587  C 13.330806169181 12.2028134257587  12.6863612607759 12.1634030662934  12.0998047099497 12.0846921965318  C 12.1047197602371 12.0375920113801  12.0788884473779 11.9890911759393  12.0788884473779 11.9390798410405  L 12.0788884473779 10.3889205653902  C 12.7778631016523 10.4613148031069  13.2755391747486 10.4971274160043  13.9054027702945 10.4971274160043  C 15.4216136179957 10.4971274160043  16.964393049569 10.2813179190751  18.0541960533405 9.89177325686416  C 18.4016081402658 9.76667625541907  18.3701245061063 9.62669393515174  19.0692083782328 9.47627542449422  L 19.0692083782328 10.7614652276012  C 19.0692084006825 10.9154539830202  18.6994055316092 11.300824173591  17.706046717852 11.6579342485549  Z M 17.706046717852 8.90824437770954  C 16.7260131555316 9.25969693822254  15.3622234419899 9.45309607568642  13.9612977954382 9.45309607568642  C 13.3335913703305 9.45309607568642  12.6905117411997 9.41299911940029  12.1019345590876 9.33500230310693  C 12.106849609375 9.2879021179552  12.0962822602371 9.2392914107659  12.0962822602371 9.189417404263  C 12.0962822602371 8.65088233833092  11.9145346623563 7.88659594020954  10.306139300467 7.30804631051301  C 9.94957976382902 7.18146626625722  9.28271677442529 7.07180382947977  9.28271677442529 6.98246452763728  L 9.28271677442529 6.72658553106936  C 9.28271677442529 6.87977786307803  9.68323870779454 7.01904612987717  10.0286028421336 7.14282487355491  C 11.1134634967672 7.53300119671243  12.4674504085848 7.74809664017341  13.9885763065733 7.74809664017341  C 15.5089649559986 7.74809664017341  17.0104579741379 7.53225966401734  18.0953186287716 7.14282487355491  C 18.4420753636853 7.01838698970376  18.3700972072557 6.87837721278902  19.0691537805316 6.72658553106936  L 19.0691537805316 8.0118027908237  C 19.0692084006825 8.16573663294798  18.6994055316092 8.55099697434971  17.706046717852 8.90824437770954  Z M 17.6745904049928 6.15844463511561  C 16.6756885102371 6.5107485549133  15.2796779139727 6.70406532243497  13.8446199937141 6.70406532243497  C 12.4080875538793 6.70406532243497  11.0330751391882 6.5107485549133  10.0341732444325 6.15844463511561  C 9.01779561781609 5.80204861361994  8.71519239403736 5.4160467621026  8.71519239403736 5.26211291997832  L 8.71519239403736 3.97752732117052  C 8.71519239403736 4.12945633128613  9.29606932471264 4.26858726968931  9.65041709321121 4.39379414288295  C 10.7633208288434 4.78471199873555  12.2347501346983 4.99980744219653  13.7865950969828 4.99980744219653  C 15.3384400592672 4.99980744219653  16.9175908539871 4.78397046604046  18.0304126706178 4.39379414288295  C 18.3862349586925 4.26795560874278  18.3540413748204 4.12805570357659  19.0692083782328 3.97752732117052  L 19.0692083782328 5.26211291997832  C 19.0692084006825 5.4160467621026  18.6909953529095 5.80204861361994  17.6745904049928 6.15844463511561  Z M 17.5990624775503 3.41012793533237  C 16.6204215158046 3.76169034501445  15.3097416487069 3.95437542901012  13.907559918283 3.95437542901012  C 12.5046136404454 3.95437542901012  11.1931965247845 3.76169034501445  10.2159481411638 3.41012793533237  C 9.2219612966954 3.05235874277457  8.95911536907328 2.66701600885116  8.95911536907328 2.51382367684248  C 8.95911536907328 2.35912084537572  9.22193399784483 1.97311899385838  10.2159481411638 1.61664057984104  C 11.1939337733477 1.26507817015896  12.5046136404454 1.07250293533237  13.9082152478448 1.07250293533237  C 15.310506173671 1.07250293533237  16.6211860407687 1.26507817015896  17.5998270249641 1.61664057984104  C 18.5931858387213 1.97377811145231  18.8560044674928 2.35975250632225  18.8560044674928 2.51382367684248  C 18.855239920079 2.66701600885116  18.5924212913075 3.05235872019509  17.5990624775503 3.41012793533237  Z M 11.3798591954023 16.1526655753251  L 11.3798591954023 17.4378828350795  C 11.3798591954023 17.5925856665462  10.9499015804598 17.9785600614162  9.95591473599138 18.3342969427384  C 8.97664572108477 18.6858593524205  7.58202774784483 18.8784345872471  6.1804740705819 18.8784345872471  C 4.77826506375718 18.8784345872471  3.29842555675287 18.6858318957731  2.31978459500718 18.3342969427384  C 1.32642578125 17.9785600614162  0.894447535021551 17.5925856665462  0.894447535021551 17.4378828350795  L 0.894447535021551 16.1540662256142  C 1.59350410829741 16.3059677790824  1.58293675915948 16.4450987174856  1.92895622306034 16.5695640579841  C 3.01458144755747 16.9597403811416  4.51331656339799 17.1741767070087  6.03294064295977 17.1741767070087  C 7.55267396282328 17.1741767070087  9.18698253412356 16.9590812635477  10.2718431887572 16.5695640579841  C 10.6199652253951 16.444467056539  10.6807753232759 16.3051987897399  11.3798591954023 16.1526655753251  Z M 9.95588743714081 15.5852387554191  C 8.97724647539512 15.9368011651012  7.58273769755747 16.1301179326228  6.18044677173132 16.1301179326228  C 4.77750049389368 16.1301179326228  3.29763371048851 15.9368011651012  2.31975729615661 15.5852387554191  C 1.32639848239943 15.2281012238078  0.894420236170977 14.8435000225795  0.894420236170977 14.6895387012283  L 0.894420236170977 13.4043488981214  C 1.59347680944684 13.556140579841  1.58290946030891 13.6953813899928  1.92892892420977 13.8198192738439  C 3.01668399784483 14.2107645863439  4.51604714439655 14.4258600298049  6.0329133441092 14.4258600298049  C 7.55051679238506 14.4258600298049  9.18417003412356 14.2100230536488  10.2718158899066 13.8198192738439  C 10.6185726248204 13.6953813899928  10.6807753232759 13.5561406024205  11.379831874102 13.4035799313584  L 11.379831874102 14.6895387012283  C 11.3798591954023 14.8435274792269  10.9498742816092 15.2281286804552  9.95588743714081 15.5852387554191  Z M 9.95588743714081 12.8362903721098  C 8.97863907596983 13.1877703892702  7.58413029813219 13.3804280166185  6.18044677173132 13.3804280166185  C 4.77610789331897 13.3804280166185  3.29624110991379 13.1877703892702  2.32038532686782 12.8362903721098  C 1.32639848239943 12.4784387870303  0.894420236170977 12.0930411398121  0.894420236170977 11.939848785224  L 0.894420236170977 10.6546315254697  C 1.59347680944684 10.8078513367052  1.58430203843391 10.9478336343931  1.92892892420977 11.0715300081286  C 3.01733932740661 11.4617063312861  4.51681171426006 11.6769116464957  6.0329133441092 11.6769116464957  C 7.54988876167385 11.6769116464957  9.18417003412356 11.4611021495665  10.2718158899066 11.0715300081286  C 10.6171800466954 10.9478336569725  10.6807753232759 10.8071921965318  11.379831874102 10.6546315254697  L 11.379831874102 11.939848785224  C 11.3798591954023 12.0930411398121  10.9498742816092 12.4784113303829  9.95588743714081 12.8362903721098  Z M 9.78948569953305 10.0864906520954  C 8.81234655621408 10.4380805184249  7.50092941810345 10.6307106891257  6.09724589170259 10.6307106891257  C 4.69290701329023 10.6307106891257  3.38222714619253 10.4380530617775  2.40571603358477 10.0864906520954  C 1.41235721982759 9.7293805771315  1.14953859105604 9.34335126896676  1.14953859105604 9.19015893695809  C 1.14953859105604 9.03685673320087  1.41235721982759 8.6508823609104  2.40571603358477 8.29374482929913  C 3.38296439475575 7.94218241961705  4.69429961386494 7.74886565209538  6.09724589170259 7.74886565209538  C 7.50019216954023 7.74886565209538  8.81160928520115 7.94218241961705  9.78948569953305 8.29374482929913  C 10.7836090831537 8.65162389360549  11.0464276894756 9.03685675578035  11.0464276894756 9.19015893695809  C 11.0464276894756 9.34335124638728  10.7828445132902 9.72935309790462  9.78948569953305 10.0864906520954  Z " fill-rule="nonzero" fill="#ffffff" stroke="none" transform="matrix(1 0 0 1 44 2415 )" />
  </g>
</svg>