<?xml version="1.0" encoding="utf-8"?>
<svg version="1.1" xmlns:xlink="http://www.w3.org/1999/xlink" width="20px" height="20px" xmlns="http://www.w3.org/2000/svg">
  <g transform="matrix(1 0 0 1 -217 -2415 )">
    <path d="M 19.7996493252841 12.2556818181818  C 19.7996271306818 11.8378684303977  19.459716796875 11.500244140625  19.0408380681818 11.500244140625  C 18.6219815340909 11.500244140625  18.2820712002841 11.8387118252841  18.2820712002841 12.2556818181818  C 18.2820712002841 12.672607421875  18.6219815340909 13.0110751065341  19.0408380681818 13.0110751065341  C 19.4597389914773 13.0110751065341  19.7996493252841 12.6726296164773  19.7996493252841 12.2556818181818  Z M 19.1844149502841 7.70547762784091  C 18.7655140269886 7.70545543323864  18.4256036931818 8.04392311789773  18.4256036931818 8.46089311079546  C 18.4256036931818 8.87868430397727  18.7655140269886 9.21630859375  19.1844149502841 9.21630859375  C 19.603271484375 9.21630859375  19.9432040127841 8.87784090909091  19.9432040127841 8.46089311079546  C 19.9432040127841 8.0439453125  19.6032936789773 7.70547762784091  19.1844149502841 7.70547762784091  Z M 13.0462091619318 19.0111860795455  C 13.0462091619318 18.5891779119318  12.6985529119318 18.2464932528409  12.2685324928977 18.2464932528409  C 11.8393776633523 18.2464932528409  11.4908558238636 18.5891779119318  11.4908558238636 19.0111860795455  C 11.4908558238636 19.4331942471591  11.8393776633523 19.77587890625  12.2685324928977 19.77587890625  C 12.6976873224432 19.77587890625  13.0462091619318 19.4331942471591  13.0462091619318 19.0111860795455  Z M 18.4247824928977 15.3448597301136  C 18.4247824928977 14.9228515625  18.085693359375 14.5801669034091  17.6659712357955 14.5801669034091  C 17.2471147017045 14.5801669034091  16.9071821732955 14.9228515625  16.9071821732955 15.3448597301136  C 16.9071821732955 15.7668900923295  17.2470925071023 16.1095525568182  17.6659712357955 16.1095525568182  C 18.0848721590909 16.1095525568182  18.4247824928977 15.7668678977273  18.4247824928977 15.3448597301136  Z M 16.1192072088068 17.6389825994318  C 16.1200727982955 17.2118918678977  15.7801624644886 16.864990234375  15.3603959517045 16.864990234375  C 14.9415172230114 16.864990234375  14.6016068892045 17.2118918678977  14.6016068892045 17.6389825994318  C 14.6016068892045 18.0669167258523  14.9415172230114 18.4129527698864  15.3603959517045 18.4129527698864  C 15.779296875 18.4129527698864  16.1192072088068 18.0660511363636  16.1192072088068 17.6389825994318  Z M 9.99997780539773 19.9431818181818  L 10 18.5227272727273  C 8.84881036931818 18.5227272727273  7.73282137784091 18.2975852272727  6.68299449573864 17.8535600142045  C 5.66827947443182 17.4243829900568  4.75670276988636 16.8096590909091  3.97354403409091 16.0264781605114  C 3.19034090909091 15.2433194247159  2.57563920454545 14.3317205255682  2.14646218039773 13.3170055042614  C 1.70241477272727 12.2671786221591  1.47727272727273 11.1511674360795  1.47727272727273 10  C 1.47727272727273 8.84883256392046  1.70241477272727 7.73282137784091  2.14643998579545 6.68299449573864  C 2.57563920454545 5.66827947443182  3.19034090909091 4.75670276988636  3.97352183948864 3.97354403409091  C 4.75668057528409 3.19036310369318  5.66827947443182 2.57563920454545  6.68297230113636 2.14646218039773  C 7.73282137784091 1.70241477272727  8.84881036931818 1.47727272727273  10 1.47727272727273  C 11.1511896306818 1.47727272727273  12.2671786221591 1.70241477272727  13.3170055042614 2.14643998579545  C 14.3317205255682 2.57561700994318  15.2432972301136 3.19034090909091  16.0264781605114 3.97352183948864  C 16.8096590909091 4.75668057528409  17.4243829900568 5.66827947443182  17.8535600142045 6.68297230113636  C 17.8633256392045 6.70603249289773  17.8728249289773 6.72920365767046  17.8823686079545 6.75230823863636  L 19.1957341974432 6.21120383522727  C 17.7058327414773 2.59916548295455  14.1498579545455 0.0568181818181818  9.99997780539773 0.0568181818181818  C 4.50850053267046 0.0568181818181818  0.0567959872159096 4.50852272727273  0.0567959872159096 10  C 0.0567959872159096 15.4914772727273  4.50850053267046 19.9431818181818  9.99997780539773 19.9431818181818  Z " fill-rule="nonzero" fill="#ffffff" stroke="none" transform="matrix(1 0 0 1 217 2415 )" />
  </g>
</svg>