<?xml version="1.0" encoding="utf-8"?>
<svg version="1.1" xmlns:xlink="http://www.w3.org/1999/xlink" width="8px" height="13px" xmlns="http://www.w3.org/2000/svg">
  <g transform="matrix(1 0 0 1 -223 -2419 )">
    <path d="M 7.84325892857143 5.57355400219298  C 7.96754464285714 5.40299136513158  7.80127232142857 5.16886307565789  7.61325892857143 5.1688630756579  L 6.14477678571429 5.1688630756579  C 5.82622767857143 5.1688630756579  4.94359375 5.32701994243421  4.63435267857143 5.13939658717105  C 4.5753125 4.92698396381579  4.77109375 4.53623560855263  4.82238839285714 4.35017132675438  C 4.97466517857143 3.81057600054825  5.12540178571429 3.26944387335526  5.27770089285714 2.72987081962719  C 5.49837053571428 1.94374143366228  5.71901785714286 1.15763432017544  5.9396875 0.369968133223683  C 6.02669642857143 0.0629642955043853  5.62113839285714 -0.0688219572368429  5.45174107142857 0.163747258771928  C 3.68801339285714 2.58567879660088  1.92274553571429 5.00605126096491  0.155915178571429 7.42798279879386  C 0.0331473214285714 7.59698636239035  0.199419642857143 7.82957785087719  0.387455357142858 7.82957785087719  L 2.535 7.82957785087719  C 2.68573660714286 7.82957785087719  3.25136160714286 7.74120065789474  3.34616071428571 7.87454598410088  C 3.43162946428571 7.99238966557018  3.26535714285714 8.33661081414473  3.22805803571429 8.46839706688596  C 2.83801339285714 9.85612835800439  2.44799107142857 11.2423005756579  2.05948660714286 12.6300095942982  C 1.97245535714286 12.9370134320175  2.37803571428571 13.0687996847588  2.54743303571429 12.83623046875  C 4.31270089285714 10.415858004386  6.07796875 7.99392646655702  7.84325892857143 5.57355400219298  Z " fill-rule="nonzero" fill="#ffffff" stroke="none" transform="matrix(1 0 0 1 223 2419 )" />
  </g>
</svg>