<?xml version="1.0" encoding="utf-8"?>
<svg version="1.1" xmlns:xlink="http://www.w3.org/1999/xlink" width="20px" height="16px" xmlns="http://www.w3.org/2000/svg">
  <g transform="matrix(1 0 0 1 -27 -2469 )">
    <path d="M 20 1.5  C 20 0.67157287525381  19.3284271247462 0  18.5 0  L 13 0  C 12.7238576250846 0  12.5 0.223857625084603  12.5 0.5  C 12.5 0.776142374915397  12.7238576250846 1  13 1  L 18.5 1  C 18.7761423749154 1  19 1.2238576250846  19 1.5  L 19 14.5  C 19 14.7761423749154  18.7761423749154 15  18.5 15  L 13 15  C 12.7238576250846 15  12.5 15.2238576250846  12.5 15.5  C 12.5 15.7761423749154  12.7238576250846 16  13 16  L 18.5 16  C 19.3284271247462 16  20 15.3284271247462  20 14.5  L 20 1.5  Z M 7 15  L 1.5 15  C 1.2238576250846 15  1 14.7761423749154  1 14.5  L 1 1.5  C 1 1.2238576250846  1.2238576250846 1  1.5 1  L 7 1  C 7.2761423749154 1  7.5 0.776142374915397  7.5 0.5  C 7.5 0.223857625084603  7.2761423749154 0  7 0  L 1.5 0  C 0.67157287525381 0  0 0.67157287525381  0 1.5  L 0 14.5  C 0 15.3284271247462  0.67157287525381 16  1.5 16  L 7 16  C 7.2761423749154 16  7.5 15.7761423749154  7.5 15.5  C 7.5 15.2238576250846  7.2761423749154 15  7 15  Z " fill-rule="nonzero" fill="#2678ff" stroke="none" transform="matrix(1 0 0 1 27 2469 )" />
  </g>
</svg>