<?xml version="1.0" encoding="utf-8"?>
<svg version="1.1" xmlns:xlink="http://www.w3.org/1999/xlink" width="14px" height="11px" xmlns="http://www.w3.org/2000/svg">
  <g transform="matrix(1 0 0 1 -30 -2471 )">
    <path d="M 13.4131097560976 6.30535714285714  C 13.7077738756719 6.30535714285714  13.9466463414634 6.08549697536334  13.9466463414634 5.81428571428571  C 13.9466463414634 5.54307445320809  13.7077738756719 5.32321428571429  13.4131097560976 5.32321428571429  L 0.608231707317073 5.32321428571429  C 0.313567587742717 5.32321428571429  0.0746951219512195 5.54307445320809  0.0746951219512195 5.81428571428571  C 0.0746951219512195 6.08549697536334  0.313567587742717 6.30535714285714  0.608231707317073 6.30535714285714  L 13.4131097560976 6.30535714285714  Z M 3.8734756097561 3.53571428571429  L 1.33384146341463 2.11160714285714  C 1.25963095417824 2.07736837314275  1.17776401000252 2.05953999760682  1.09475192522275 2.05953999760682  C 0.800087805648398 2.05953999760682  0.561215339856901 2.27940016510063  0.561215339856901 2.55061142617825  C 0.561215339856901 2.70692869583991  0.642071929770509 2.85390783504479  0.778963414634146 2.94642857142857  L 3.73475609756098 4.60625  C 3.97017710073983 4.73712406683276  4.27511115114401 4.68184180531391  4.4390243902439 4.47857142857143  L 6.96798780487805 1.375  L 9.4969512195122 4.47857142857143  C 9.67374969125681 4.69554043743353  10.0081711433649 4.73951247093229  10.2439024390244 4.57678571428571  L 13.2850609756098 2.51428571428571  C 13.42321448336 2.42166473449922  13.5049302284549 2.27383189111327  13.5049302284549 2.11651785714286  C 13.5049302284549 1.84473764918525  13.2655566560959 1.62441625911597  12.9702743902439 1.62441625911597  C 12.8571448431054 1.62441625911597  12.7469309087518 1.65744464472216  12.6554878048781 1.71875  L 10.0411585365854 3.48660714285714  L 7.40548780487805 0.245535714285714  C 7.3000684130096 0.128726682790571  7.14364158106964 0.0611530803289235  6.97865853658537 0.0611530803289235  C 6.8136754921011 0.0611530803289235  6.65724866016114 0.128726682790571  6.55182926829269 0.245535714285713  L 3.8734756097561 3.53571428571429  Z M 1.93140243902439 7.53303571428571  L 1.93140243902439 10.4794642857143  C 1.93140243902439 10.7506755467919  2.17027490481589 10.9705357142857  2.46493902439024 10.9705357142857  C 2.7596031439646 10.9705357142857  2.9984756097561 10.7506755467919  2.9984756097561 10.4794642857143  L 2.9984756097561 7.53303571428571  C 2.9984756097561 7.26182445320809  2.7596031439646 7.04196428571429  2.46493902439024 7.04196428571429  C 2.17027490481589 7.04196428571429  1.93140243902439 7.26182445320809  1.93140243902439 7.53303571428571  Z M 7.41615853658537 8.51517857142857  C 7.41615853658537 8.24396731035095  7.17728607079387 8.02410714285714  6.88262195121951 8.02410714285714  C 6.58795783164516 8.02410714285714  6.34908536585366 8.24396731035095  6.34908536585366 8.51517857142857  L 6.34908536585366 10.4794642857143  C 6.34908536585366 10.7506755467919  6.58795783164516 10.9705357142857  6.88262195121951 10.9705357142857  C 7.17728607079387 10.9705357142857  7.41615853658537 10.7506755467919  7.41615853658537 10.4794642857143  L 7.41615853658537 8.51517857142857  Z M 10.7560975609756 9.49732142857143  L 10.7560975609756 10.4794642857143  C 10.7560975609756 10.7506755467919  10.9949700267671 10.9705357142857  11.2896341463415 10.9705357142857  C 11.5842982659158 10.9705357142857  11.8231707317073 10.7506755467919  11.8231707317073 10.4794642857143  L 11.8231707317073 9.49732142857143  C 11.8231707317073 9.22611016749381  11.5842982659158 9.00625  11.2896341463415 9.00625  C 10.9949700267671 9.00625  10.7560975609756 9.22611016749381  10.7560975609756 9.49732142857143  Z " fill-rule="nonzero" fill="#fd892e" stroke="none" transform="matrix(1 0 0 1 30 2471 )" />
  </g>
</svg>