<?xml version="1.0" encoding="utf-8"?>
<svg version="1.1" xmlns:xlink="http://www.w3.org/1999/xlink" width="20px" height="20px" xmlns="http://www.w3.org/2000/svg">
  <g transform="matrix(1 0 0 1 -28 -2934 )">
    <path d="M 13.125 0  C 16.9177395424443 0.00595312549955595  19.989209061543 3.08224737458398  19.989209061543 6.87499157603967  C 19.989209061543 10.6719492181878  16.9111667166297 13.7499915526123  13.114209061543 13.7499915526123  C 12.9091651853158 13.7499915526123  12.704223953297 13.7408185386806  12.5 13.7225000213914  L 12.5 18.7500000042595  C 12.5 19.4403559391955  11.9403559372885 20  11.25 20  L 1.25 20  C 0.559644062711508 20  0 19.4403559391955  0 18.7500000042595  L 0 8.75000003833576  C 0 8.05964410339974  0.559644062711508 7.50000004259529  1.25 7.50000004259529  L 6.2775 7.50000004259529  C 6.25853114196147 7.29220663739444  6.24903196259314 7.0836573915326  6.24903196259314 6.87499997657259  C 6.24903196259314 3.07804233442449  9.32707430750643 0  13.1240319625931 0  Z M 6.51 8.75000003833576  L 6.50875 8.75000003833576  L 1.25 8.75000003833576  L 1.25 18.7500000042595  L 11.25 18.7500000042595  L 11.25 13.4912500221794  C 8.95565580065086 12.83813882  7.16250621290458 11.0445163613647  6.51 8.75000003833576  Z M 18.7401850800335 6.874991481816  C 18.7401850800335 3.77222204900228  16.2277647200565 1.2554140076543  13.125 1.25000006389294  C 10.0184646504623 1.25009391907018  7.50016994346245 3.76846470178826  7.50016994346245 6.87500004215788  C 7.50016994346245 7.08381837789216  7.51179796252182 7.29247471209473  7.535 7.50000004259529  L 11.25 7.50000004259529  C 11.9403559372885 7.50000004259529  12.5 8.05964410339974  12.5 8.75000003833576  L 12.5 12.4662500256722  C 12.7042912891557 12.4887274252106  12.90966095902 12.4999914626481  13.1151850800335 12.4999914626481  C 16.2217867978317 12.4999914626481  18.7401850800335 9.98159318902808  18.7401850800335 6.874991481816  Z M 11.25 12.1800000266476  L 11.25 8.75000003833576  L 7.82 8.7512500383315  C 8.38862826827678 10.352394475357  9.64864840007622 11.6119554118543  11.25 12.1800000266476  Z " fill-rule="nonzero" fill="#2678ff" stroke="none" transform="matrix(1 0 0 1 28 2934 )" />
  </g>
</svg>