<?xml version="1.0" encoding="utf-8"?>
<svg version="1.1" xmlns:xlink="http://www.w3.org/1999/xlink" width="18px" height="19px" xmlns="http://www.w3.org/2000/svg">
  <g transform="matrix(1 0 0 1 -331 -2313 )">
    <path d="M 9.97839721560595 18.6954319029342  C 9.76391696698117 18.8733041076793  9.49428516743752 18.9699041743271  9.21637630049543 18.9684385412882  C 8.98917586133769 18.9659669714259  8.76573810652302 18.909746683635  8.56411150438262 18.8043189430414  L 6.17142857755335 17.6554817337391  C 5.67684470955494 17.4340832703716  5.35758141323806 16.9409718795991  5.35609756097561 16.3961794081577  L 5.35609756097561 9.22699336164608  L 5.35609756097561 9.17176080350654  L 0.297909410727897 2.33081395348837  C -0.034336833027591 1.8858716151706  -0.076672070727099 1.28626191606069  0.189721260480183 0.798504989553052  C 0.407665508288872 0.304568118640988  0.895296179496951 0.0315614587118458  1.4409407726753 0  L 14.5458188214558 0  C 15.0898954673209 0.0315614587118458  15.5806620331555 0.30456809706577  15.7970383336509 0.798504989553052  C 16.0149825814596 1.29086378429324  16.0149825814596 1.83845515874818  15.6872822360899 2.27558139534884  L 10.6306620117188 9.11652824536701  L 10.6306620117188 17.4913621354924  C 10.6306620117188 17.9837209302326  10.3594076624428 18.4224252645803  9.97839721560595 18.6954319029342  Z M 1.44250871998857 1.3445182662609  L 1.43937282536204 1.3445182662609  C 1.38606272389482 1.3445182662609  1.33118467511433 1.3445182662609  1.33118467511433 1.39975082440044  L 1.33118467511433 1.51021594067951  L 6.38937282536204 8.35116279069767  C 6.5675560540699 8.60787388445799  6.66232036583735 8.91385047617855  6.66062717463796 9.22699336164608  L 6.66062717463796 16.3961794081577  C 6.66062717463796 16.4514119662972  6.66062717463796 16.5066445244368  6.71550522341845 16.5066445244368  L 9.16149825171494 17.6554817337391  L 9.27125434927592 17.6554817337391  C 9.3261323980564 17.6554817337391  9.3261323980564 17.6002491755996  9.3261323980564 17.54501661746  L 9.3261323980564 9.22699336164608  C 9.3261323980564 8.89875416515262  9.43432054830412 8.62416945062682  9.59738676876905 8.35116279069767  L 14.6540069717035 1.50863786450763  C 14.708885020484 1.45498338253997  14.708885020484 1.39975082440044  14.6540069717035 1.39975082440044  C 14.6540069717035 1.3445182662609  14.6006968702363 1.3445182662609  14.5458188214558 1.3445182662609  L 1.44250871998857 1.3445182662609  Z M 17.3451224120795 11.744546418673  C 17.3365830021134 11.744546418673  17.3280444827216 11.7443708880603  17.319512195122 11.744019936637  L 13.5125435570694 11.744019936637  C 13.5040112694697 11.7443708880603  13.4954727500779 11.744546418673  13.4869333401118 11.744546418673  C 13.1405526590841 11.744546418673  12.8597556367009 11.4619354620368  12.8597556367009 11.1133171797105  C 12.8597556367009 11.1047226055973  12.859930040673 11.0961289278115  12.8602787395198 11.0875415220749  C 12.8599300412579 11.0789541235307  12.8597556375785 11.0703604529532  12.8597556375785 11.0617658860506  C 12.8597556375785 10.7131476037242  13.1405526599616 10.430536647088  13.4869333409893 10.430536647088  C 13.4954727506626 10.430536647088  13.5040112697617 10.4307121776887  13.5125435570694 10.4310631290879  L 17.319512195122 10.4310631290879  C 17.3280444824296 10.4307121776887  17.3365830015287 10.430536647088  17.345122411202 10.430536647088  C 17.6915030922297 10.430536647088  17.9723001146128 10.7131476037242  17.9723001146128 11.0617658860506  C 17.9723001146128 11.0703604529532  17.9721257109334 11.0789541235307  17.9717770126715 11.0875415220749  C 17.9721257115183 11.0961289278115  17.9723001154904 11.1047226055973  17.9723001154904 11.1133171797105  C 17.9723001154904 11.4619354620368  17.6915030931072 11.744546418673  17.3451224120795 11.744546418673  Z M 17.345122411202 14.4809251500141  C 17.3365830015287 14.4809251500141  17.3280444824296 14.4807496194134  17.319512195122 14.4803986680142  L 13.5125435570694 14.4803986680142  C 13.5040112697617 14.4807496194134  13.4954727506626 14.4809251500141  13.4869333409893 14.4809251500141  C 13.1405526599616 14.4809251500141  12.8597556375785 14.1983141933779  12.8597556375785 13.8496959110515  C 12.8597556375785 13.8411013441489  12.8599300412579 13.8325076735714  12.8602787395198 13.8239202750273  C 12.859930040673 13.8153328692906  12.8597556367009 13.8067391915048  12.8597556367009 13.7981446173916  C 12.8597556367009 13.4495263350653  13.1405526590841 13.1669153784291  13.4869333401118 13.1669153784291  C 13.4954727500779 13.1669153784291  13.5040112694697 13.1670909090418  13.5125435570694 13.1674418604651  L 17.319512195122 13.1674418604651  C 17.3280444827216 13.1670909090418  17.3365830021134 13.1669153784291  17.3451224120795 13.1669153784291  C 17.6915030931072 13.1669153784291  17.9723001154904 13.4495263350653  17.9723001154904 13.7981446173916  C 17.9723001154904 13.8067391915048  17.9721257115183 13.8153328692906  17.9717770126715 13.8239202750273  C 17.9721257109334 13.8325076735714  17.9723001146128 13.8411013441489  17.9723001146128 13.8496959110515  C 17.9723001146128 14.1983141933779  17.6915030922297 14.4809251500141  17.345122411202 14.4809251500141  Z M 17.345122411202 17.2173038813913  C 17.3365830015287 17.2173038813913  17.3280444824296 17.2171283507906  17.319512195122 17.2167773993914  L 13.5125435570694 17.2167773993914  C 13.5040112697617 17.2171283507906  13.4954727506626 17.2173038813913  13.4869333409893 17.2173038813913  C 13.1405526599616 17.2173038813913  12.8597556375785 16.9346929247551  12.8597556375785 16.5860746424287  C 12.8597556375785 16.5774800755261  12.8599300412579 16.5688864049486  12.8602787395198 16.5602990064044  C 12.859930040673 16.5517116006678  12.8597556367009 16.543117922882  12.8597556367009 16.5345233487688  C 12.8597556367009 16.1859050664425  13.1405526590841 15.9032941098063  13.4869333401118 15.9032941098063  C 13.4954727500779 15.9032941098063  13.5040112694697 15.903469640419  13.5125435570694 15.9038205918423  L 17.319512195122 15.9038205918423  C 17.3280444827216 15.903469640419  17.3365830021134 15.9032941098063  17.3451224120795 15.9032941098063  C 17.6915030931072 15.9032941098063  17.9723001154904 16.1859050664425  17.9723001154904 16.5345233487688  C 17.9723001154904 16.543117922882  17.9721257115183 16.5517116006678  17.9717770126715 16.5602990064044  C 17.9721257109334 16.5688864049486  17.9723001146128 16.5774800755261  17.9723001146128 16.5860746424287  C 17.9723001146128 16.9346929247551  17.6915030922297 17.2173038813913  17.345122411202 17.2173038813913  Z " fill-rule="nonzero" fill="#ffffff" stroke="none" fill-opacity="0.988235294117647" transform="matrix(1 0 0 1 331 2313 )" />
  </g>
</svg>