<?xml version="1.0" encoding="utf-8"?>
<svg version="1.1" xmlns:xlink="http://www.w3.org/1999/xlink" width="6px" height="8px" xmlns="http://www.w3.org/2000/svg">
  <g transform="matrix(1 0 0 1 -337 -1908 )">
    <path d="M 5.24808139220128 4.30561469983552  C 5.28069762883782 4.27631402138156  5.29796503906251 4.24045297080595  5.3202249503153 4.20690837787827  C 5.32637272478083 4.19670530427629  5.33633707510971 4.18816443256583  5.34172153919963 4.17762539062499  C 5.44726527206702 3.98946095805923  5.41270979989035 3.75921106085525  5.22582149294135 3.6078802425987  L 0.989363111636446 0.173353186677624  C 0.758326329495617 -0.0138210012336068  0.394142694627249 -0.0049441509045859  0.175380833676059 0.192769078947419  C -0.0429890522204535 0.390800606496733  -0.0330040741502747 0.702958007812478  0.198032707990706 0.890468174342069  L 3.99929857798808 3.97269750205591  L 0.212989547354672 7.10065497532891  C -0.0157366639253951 7.28979197162828  -0.022647760759393 7.60196705386508  0.198032707990706 7.79835407072369  C 0.310858873012648 7.8990055098684  0.461685726768034 7.94934891036188  0.612512580523609 7.94934891036188  C 0.756428349438011 7.94934891036188  0.900344106359588 7.90330246710528  1.01201498595124 7.81119189967103  L 5.21010133120895 4.34310258018091  C 5.2181677134732 4.33618853824009  5.2212209669683 4.32665742187503  5.22928734923255 4.31942509251647  C 5.23543512369793 4.31449155016448  5.24195424547702 4.31086653988489  5.24808139220128 4.30561469983552  Z " fill-rule="nonzero" fill="#262626" stroke="none" transform="matrix(1 0 0 1 337 1908 )" />
  </g>
</svg>