<?xml version="1.0" encoding="utf-8"?>
<svg version="1.1" xmlns:xlink="http://www.w3.org/1999/xlink" width="69px" height="53px" xmlns="http://www.w3.org/2000/svg">
  <g transform="matrix(1 0 0 1 -57 -541 )">
    <path d="M 69 17.875  C 69 20.4625  67.275 22.1875  64.6875 22.1875  C 62.1 22.1875  60.375 20.4625  60.375 17.875  L 60.375 15.2875  L 41.83125 33.83125  C 40.96875 34.69375  40.10625 35.125  38.8125 35.125  C 37.51875 35.125  36.65625 34.69375  35.79375 33.83125  L 30.1875 28.225  L 20.26875 38.14375  C 19.40625 39.00625  18.54375 39.4375  17.25 39.4375  C 14.6625 39.4375  12.9375 37.7125  12.9375 35.125  C 12.9375 33.83125  13.36875 32.96875  14.23125 32.10625  L 27.16875 19.16875  C 28.03125 18.30625  28.89375 17.875  30.1875 17.875  C 31.48125 17.875  32.34375 18.30625  33.20625 19.16875  L 38.8125 24.775  L 54.3375 9.25  L 51.75 9.25  C 49.1625 9.25  47.4375 7.525  47.4375 4.9375  C 47.4375 2.35  49.1625 0.625  51.75 1  L 64.6875 1  C 67.275 0.625  69 2.35  69 4.9375  L 69 17.875  Z M 9 43  L 64.6875 43  C 67.275 43.75  69 45.475  69 48.0625  C 69 50.65  67.275 52.375  64.6875 52  L 4.3125 52  C 1.725 52.375  0 50.65  0 48.0625  L 0 4.9375  C 0 2.35  1.725 0.625  4.3125 0.625  C 6.9 0.625  8.625 2.35  9 4.9375  L 9 43  Z " fill-rule="nonzero" fill="#bfbaba" stroke="none" fill-opacity="0.2" transform="matrix(1 0 0 1 57 541 )" />
  </g>
</svg>