<?xml version="1.0" encoding="utf-8"?>
<svg version="1.1" xmlns:xlink="http://www.w3.org/1999/xlink" width="56px" height="50px" xmlns="http://www.w3.org/2000/svg">
  <g transform="matrix(1 0 0 1 -36 -375 )">
    <path d="M 49.128339405303 7.79704436961206  L 49.1632484848485 7.8384236799569  C 49.6577939507576 7.36551724137931  50.140703030303 7.51921188038794  50.2977939280303 8.21083747306035  L 52.2061575530303 16.6463054418103  L 54.835975780303 28.3862068965517  C 55.0105212575758 29.1605911099138  54.7254303484848 29.4147783135776  53.9341575871212 29.1665024515086  L 51.9734303030303 28.5753694234914  C 51.3043393598485 28.3684728717672  50.8097939734849 28.2206896551724  50.3850666666667 28.0610837553879  L 49.8788848143939 27.883743830819  C 49.6541734670269 27.7682560168378  49.405878714648 27.7080821281858  49.1540541621829 27.7080821281858  C 48.4202018699769 27.7080821281858  47.779716570747 28.2135386663504  47.5981575416667 28.9359606142241  C 44.2849397262407 37.0890418659212  38.0064391324913 43.6310820398022  30.0679757689394 47.2019704202586  L 29.433793905303 47.4857142510776  L 28.7937939280303 47.751724137931  C 28.3671272765152 47.9251231681034  27.9365818295455 48.0866995150862  27.5021575871212 48.2364531788793  L 27.1123393598485 48.3665024515086  L 26.9727030416667 48.1536945581896  C 26.2318844439849 47.0650268316499  25.429568711281 46.0209106095847  24.5697939507576 45.0266009967672  L 22.8243394166667 42.9576354795258  L 22.2425212121212 42.2778324892241  L 21.7770666325758 41.6866995420258  L 22.2308848257576 41.5921182381465  C 22.8820173572747 41.4535399365005  23.5249704176736 41.2778935677172  24.156703030303 41.0660098868534  C 31.1866677344861 38.798274188227  36.9294944294868 33.5893507302012  39.9414302689394 26.7487685075431  C 40.0907673182828 26.5188269396227  40.1703736777534 26.2493992904715  40.1703736777534 25.9739097546036  C 40.1703736777534 25.2487681674596  39.6279059501698 24.6424104335423  38.9174303371212 24.5733990032328  L 38.393793905303 24.4256157866379  L 37.3116121212121 24.1123152478448  L 36.4156121212121 23.8403941002155  L 34.5945212348485 23.2492610721983  C 33.896339405303 23.0246304956896  33.7916121666667 22.5812807650862  34.3036121325758 22.0669950969828  C 39.2335515037879 17.2985221982759  44.1751272613636 12.541871955819  49.128339405303 7.79704436961206  Z M 16.4185212121212 0.667980307112069  L 16.4185212121212 0.673891648706897  C 24.7377370156601 0.6738916487069  31.4817939280303 7.52591991558552  31.4817939280303 15.9783251346983  C 31.4817939280303 24.430730353811  24.7377370156601 31.2827586206897  16.4185212121212 31.2827586206897  C 8.09930540858235 31.2827586206897  1.35524849621212 24.430730353811  1.35524849621212 15.9783251346983  C 1.3552477471192 15.9763546876005  1.35524737257273 15.9743842403482  1.35524737257273 15.9724137931034  C 1.35524737257273 7.52000857399064  8.09930428494294 0.667980307112029  16.4185200884818 0.667980307112029  Z M 19.5719757916667 6.06502459590518  L 19.5719757916667 6.07093593749999  C 19.2983153630428 5.91441868468401  18.9554778411844 5.96279733010116  18.7341575643939 6.18916252693965  L 8.18579392803031 16.90640390625  C 8.05219466791452 17.0407490963312  7.97702305271341 17.2237983392983  7.97702305271341 17.4147786508672  C 7.97702305271341 17.8095406520054  8.29179806815909 18.1296659040656  8.6803393939394 18.1300492726293  L 14.0039757348485 18.1300492726293  L 11.5370666780303 25.0285714170259  C 11.5027428250786 25.1138202427101  11.4850879621309 25.2050447059335  11.4850879621309 25.2971507014416  C 11.4850879621309 25.6889192003088  11.7976746146094 26.0065103188985  12.1832697916763 26.0065103188985  C 12.3804042038088 26.0065103188985  12.5683513389831 25.9218373551037  12.7007030075758 25.7733990032328  L 24.6512484962121 13.6315271282328  C 24.8529264660594 13.4291905778542  24.9128572482695 13.1223972497324  24.8025212007576 12.8571428340517  C 24.6939386489463 12.5887386651039  24.4365042333729 12.4135896323586  24.1508848371212 12.4137931034483  L 18.6992484848485 12.4137931034483  L 19.9152484734849 6.85714283405173  C 19.9888751503732 6.54474284435462  19.8484873010175 6.22079112381611  19.5719757916667 6.06502459590518  Z " fill-rule="nonzero" fill="#bfbaba" stroke="none" fill-opacity="0.2" transform="matrix(1 0 0 1 36 375 )" />
  </g>
</svg>