<?xml version="1.0" encoding="utf-8"?>
<svg version="1.1" xmlns:xlink="http://www.w3.org/1999/xlink" width="70px" height="79px" xmlns="http://www.w3.org/2000/svg">
  <g transform="matrix(1 0 0 1 -13 -351 )">
    <path d="M 14.374243902439 47.9142360363451  L 14.374243902439 47.8906831953125  L 14.584975621189 48.520720485394  C 16.7717389956706 55.0239595785184  21.435091802378 60.3882812207949  27.5508292339939 63.4355279273098  C 27.8062534833677 63.6283898949064  28.1170047257775 63.7326555202883  28.4363825343662 63.7326555202883  C 29.1594773463054 63.7326555202883  29.7759706435319 63.2054163715828  29.892292660061 62.4875279273098  C 30.1303414253049 61.8084223525815  30.3800975304878 61.1352049612772  30.6415609756098 60.4678757533967  L 31.3674146112805 58.6189813549592  C 31.6366828696646 57.9477266735734  32.023024367378 57.8829565217391  32.4561951448171 58.4070061881793  L 38.1283902210366 65.3020869565217  L 45.4220487576219 74.1873788474864  C 46.0074146341463 74.9116272601902  45.8903414748476 75.2178136300951  44.9010731707317 75.3650186450407  L 25.051317038872 78.6035279273098  C 24.8874145998476 78.6270807146739  24.7235121608232 78.6447453186141  24.5596097217988 78.6565217391304  C 23.9157073056402 78.7036273406929  23.6698536471037 78.3856646307744  23.8864390358232 77.7968447319973  C 24.4679024657012 76.2266583889266  25.0805853887195 74.656472045856  25.724487804878 73.0862857027853  C 25.8450876744933 72.8682672418858  25.9083830343788 72.6228977355121  25.9083830343788 72.3734011916817  C 25.9083830343788 71.7373987305856  25.5007448297788 71.1739248652188  24.8991219397866 70.9783105360054  L 24.3137560632622 70.7074534276495  L 23.7283902667683 70.4248198987772  C 16.8807074356578 66.9368691479517  11.4224510497328 61.2012771388701  8.25717070884146 54.1675030940897  L 8.12253661966463 53.8848695652174  L 8.16936581935975 53.8848695652174  L 8.36839027820122 53.8024347826087  C 8.95232009517969 53.5162917236806  9.47369589549975 53.1159465010459  9.90204876905488 52.6247950655571  L 14.374243902439 47.9142360363451  Z M 24.5830244016768 9.68216145618207  L 24.5771707317073 9.68216145618206  L 25.0161950990854 10.1767701518342  L 26.356682961128 11.6605962387908  L 30.2025366082317 15.8647701518342  L 29.6581463414634 16.0767453186141  L 28.9849755754573 16.3593788474864  C 27.2546410907803 17.0982533591778  25.6113692117408 18.0284182766126  24.0854634146342 19.132720485394  C 20.2113644422611 21.9298606520741  17.1743301186099 25.7424441353008  15.3049755868902 30.1554285944293  C 15.16703712062 30.3717313401025  15.0937136679713 30.6233129369058  15.0937136679713 30.88029368173  C 15.0937136679713 31.6058999845168  15.6668838651004 32.2001972825739  16.3879024504573 32.2221863699049  C 16.8327804878049 32.3105093627717  17.2308292454268 32.3988323556386  17.7166828925305 32.5165962387908  L 20.4854634260671 33.1878509201766  C 21.1703414519817 33.352720485394  21.3225366310976 33.8355527605299  20.8600975838415 34.3301614561821  C 16.165463445122 39.3626086688179  11.4571707431402 44.3734658308424  6.73521947789634 49.3627329422554  C 6.23765849085366 49.8926708189538  5.75765851371951 49.7690186450408  5.56448780487805 49.0388820220788  C 4.97912192835366 47.0251180584239  4.44058533155488 44.9878012537364  3.86107320503049 42.8798260869565  L 0.0444878277439024 29.0307826086957  C 0.0159109252172683 28.9656318601689  0.00115143261169786 28.8952035907651  0.00115143261169786 28.8239931618682  C 0.00115143261169786 28.5410724159376  0.229158629029566 28.3117198354415  0.510419759593405 28.3117198354415  C 0.569089867888249 28.3117198354415  0.627318772753494 28.3219177084539  0.682536573932927 28.341863377038  C 2.181073125 28.677490717731  3.35180487804878 28.9306832758152  4.42887807164634 29.2309813549592  L 5.48839025533536 29.5077266735734  C 5.66989883751899 29.5778442117292  5.86267562601692 29.6137993234923  6.05710896586432 29.6137993234923  C 6.78444843556932 29.6137993234923  7.4186080313238 29.1162453070143  7.59570728277439 28.4066335288723  C 10.6024687180107 20.1910014559137  16.6815350680811 13.4823201549604  24.5361951219512 9.71160250747283  L 24.5830244016768 9.68216145618207  Z M 48.9986341463415 1.02062115251359  L 49.1039999657012 1.02062115251359  C 49.1192184400835 1.01920675145552  49.1344936191879 1.01849842435636  49.1497769137104 1.01849842435636  C 49.4245722589648 1.01849842435636  49.6473379007531 1.24257852179492  49.6473379007531 1.51899533026669  C 49.6473379007531 1.58651152727915  49.6337577015702 1.65332975925935  49.6074146227134 1.71542859442935  C 49.1898536318598 3.11681989877717  48.7410731478659 4.50839751936141  48.2610731707317 5.89016145618207  C 48.1489494335987 6.10475324853148  48.0903646519117 6.34354535983816  48.0903646519117 6.58597095573572  C 48.0903646519117 7.30787121536192  48.6029950689528 7.92674320611734  49.3088780144817 8.05701864504076  L 49.8942438910061 8.25721739130435  L 50.4796097675305 8.46919255808424  C 58.9857659949563 11.5910933362735  65.8652972406862 18.0563941488336  69.5391219740854 26.3810931447011  L 69.784975632622 26.9286956521739  L 69.6444877934451 26.9816894639946  C 69.0007833939272 27.2820811492961  68.4189684771243 27.7015421660835  67.9293658536586 28.218211203125  L 63.4805854001525 32.4871552680027  L 63.3576585708842 32.0867577754755  L 63.1586341120427 31.4979378766984  C 62.7786086867481 30.3845689649374  62.3148281793259 29.3019343461856  61.7713170503049 28.2594285944294  C 58.7056988699235 22.3051800689033  53.4575294402895 17.7841272448189  47.1371706974086 15.6527950655571  C 46.9201054794876 15.5377291111307  46.6784379595701 15.4775949076926  46.4330757694066 15.4775949076926  C 45.676468512967 15.4775949076926  45.0366231254974 16.0407681542763  44.9361951105183 16.7951056015625  C 44.7683902248476 17.4114037612092  44.592780472561 18.0237764205163  44.4093658536586 18.6322235794837  L 43.6074146684452 21.2112546813859  L 43.525463448933 21.4526708189538  C 43.2503415205793 22.165142891644  42.7586342035061 22.2358012537364  42.2142439367378 21.6352049344429  L 28.6161950876524 6.62618636990489  C 28.030829211128 5.97848452955163  28.1654633803354 5.57219882676631  29.0318048551829 5.37788821025815  L 48.5010731592988 1.12072048539402  L 48.7469268178354 1.07361488383152  L 48.9986341463415 1.02062115251359  Z " fill-rule="nonzero" fill="#bfbaba" stroke="none" fill-opacity="0.2" transform="matrix(1 0 0 1 13 351 )" />
  </g>
</svg>