<?xml version="1.0" encoding="utf-8"?>
<svg version="1.1" xmlns:xlink="http://www.w3.org/1999/xlink" width="61px" height="61px" xmlns="http://www.w3.org/2000/svg">
  <g transform="matrix(1 0 0 1 -163 -263 )">
    <path d="M 21.3264255849609 2.51160065625  C 21.9872482353516 2.29132643945312  37.9283247412109 -1.33472628613281  58.3765508994141 0.532521421875  L 60.1387446933594 0.644352948242187  L 59.915081640625 2.40315796582031  C 59.8066389501953 2.84370639941406  58.2681081494141 13.6168106621094  53.2119674326172 24.6101890820313  C 51.2328881982422 28.7886217675781  49.6909686210938 32.0859575263672  46.7257386054687 35.4951248115234  C 46.4231679919404 35.8464737296247  45.9825105526287 36.0485295662043  45.5188349780921 36.0485295662043  C 45.1070622207581 36.0485295662043  44.711290747112 35.8890563559944  44.4145536279297 35.6035675019531  C 44.0642729466158 35.3010152375017  43.8629291268244 34.8610539139803  43.8629291268244 34.3981992624682  C 43.8629291268244 33.9873153018795  44.0217163773197 33.5923272523718  44.3061108779297 33.2957713603516  C 46.9426239267578 30.2153209824219  48.4845435634766 27.1382594404297  50.3517912714844 23.1801009716797  C 54.0896755234375 15.15534134375  55.8484804814453 7.13058177539062  56.5093031914062 3.61297179980468  C 37.8198820507813 2.29132643945312  23.1970621289063 5.48021950781249  22.0990798212891 5.70049372460937  C 13.8540459765625 8.22856408300781  8.57763098339843 12.4069967685547  6.48672022265625 17.9036859785156  C 3.70787612402343 25.037182171875  7.09671039355468 32.6383374863281  8.23196989648437 34.919023  C 19.0762396542969 20.7875839912109  36.8201759853516 17.1005322783203  37.0506167099609 17.0259778876953  C 37.9317136367187 16.8057036708984  38.8094217275391 17.4665263212891  39.0296958847656 18.3442344716797  C 39.2499701015625 19.2253313984375  38.5891474511719 20.1030394892578  37.708050524414 20.3233137060547  C 36.2813513095703 20.5435879228516  3.8468182783203 27.3585337167969  3.29782715429686 59.349129359375  C 3.29782715429686 60.2302262861328  2.52856175390623 60.9994916865234  1.65085366308592 60.9994916865234  C 1.64059076987517 60.9996868102907  1.63032625378862 60.9997843787854  1.6200615058453 60.9997843787854  C 0.725435982537595 60.9997843787854  0.000198702134360472 60.2745470983822  0.000198702134360472 59.3799215750745  C 0.000198702134360472 59.3696568076408  0.000296270999613201 59.3593922720656  0.0004913955078125 59.349129359375  C 0.1699331328125 50.52121603125  2.62344916015625 43.4554965566406  6.19528045117188 37.8198651328125  C 6.0127377856651 37.6936892816134  5.8514443635053 37.5392594127555  5.71745482226563 37.3623725195312  C 5.69373297070313 37.3047623085937  5.60223445996094 37.1319317949219  5.46668108203125 36.8608250390625  L 5.22607384960938 36.3829994101562  C 3.82987415820313 33.5363785927734  0.183488416992187 25.077848203125  3.40965868066406 16.6938721445312  C 5.9377290390625 10.2076433173828  11.8749667421875 5.37177681738281  21.2145940585938 2.51160065625  L 21.3264255849609 2.51160065625  Z M 39.6464637275391 37.3115399804687  C 40.4597839355469 36.7184939892578  41.4832119121094 36.4168877099609  42.6998034179688 36.4033323662109  C 43.9333391035156 36.4202765458984  44.9635447519531 36.721882765625  45.7836426318359 37.3183176523438  C 46.6003516757813 37.9011971357422  47.190008890625 38.5687975175781  47.5526141572266 39.3177299023438  C 47.8135544052734 39.7108346923828  47.9999402626953 40.2259375166016  48.094827609375 40.8664271513672  C 48.1761596123047 41.4221959472656  48.2202144794922 42.4591792675781  48.2303809873047 43.9705993808594  L 48.2337698232422 44.6483662109375  C 48.2337698232422 46.5054474111328  48.1897149560547 47.7559272763672  48.0982164453125 48.4099722548828  C 47.9965514267578 49.0640172929687  47.8135543457031 49.5858977294922  47.5492253212891 49.9790025791016  C 47.190008890625 50.7313237998047  46.6003517353516 51.3921464501953  45.7836426318359 51.9614706494141  C 44.9567670800781 52.554516640625  43.9299502675781 52.8662894277344  42.6998034179687 52.8934000556641  C 41.4764342402344 52.8662893681641  40.4597839355469 52.554516640625  39.6430748916016 51.9614706494141  C 38.8805389118494 51.465939594834  38.2575508438052 50.7834526574873  37.8334373945312 49.9790025791016  C 37.7267203884797 49.7469170283771  37.6239112419905 49.5130544281579  37.5250535029297 49.2775138378906  C 37.4262850285054 48.9958331325027  37.3547914296087 48.7053195193738  37.3115568984375 48.4099722548828  C 37.2065030439453 47.7559272167969  37.1522816689453 46.5020585751953  37.1522817285156 44.6483662109375  C 37.1522817285156 42.7573966513672  37.2065031035156 41.4933615019531  37.314945734375 40.8528718076172  C 37.4267772607422 40.2191597851563  37.6029966699219 39.700668125  37.8368262304688 39.3075633945313  C 38.2129868408203 38.5620198457031  38.8161993398437 37.8944195234375  39.6464637275391 37.3115399804687  Z M 31.2082663535156 36.3999435302734  L 31.2082663535156 36.4033323662109  C 32.7162976308594 36.4168877099609  33.9464444804687 36.8777691591797  34.9020957382812 37.789365609375  C 35.8509693242187 38.7043508955078  36.4507929873047 39.8429991748047  36.6981778916016 41.1985328945313  L 34.1904405488281 41.1985328945313  C 34.0015527740923 40.5535448846746  33.6351823557543 39.9746326485692  33.1331242724609 39.5278376113281  C 32.5875277654925 39.0843869532662  31.9045503283973 38.8447457417251  31.2014886816406 38.8500707216797  C 30.7012904117953 38.8503615355674  30.2080849371485 38.9675703833885  29.7612341230469 39.1923430322266  C 29.3745049095717 39.3961703335889  29.0368275001283 39.6818084115006  28.7716945058594 40.0293850917969  C 28.4472247590219 40.4150111336112  28.2360684354333 40.8830743192843  28.1617043349609 41.3815299755859  C 28.0464839726563 41.9576317871094  27.9922625976563 43.0488364228516  27.9922625976563 44.644977375  C 27.9922625976563 46.2445071630859  28.0498728085938 47.3255452910156  28.1617043349609 47.8880918183594  C 28.2633693535156 48.4540271220703  28.4666994501953 48.9115197949219  28.7716945058594 49.2605697177734  C 29.0345117436667 49.6042576649188  29.3731595936166 49.8825983548504  29.7612341230469 50.0738899257812  C 30.1678942568359 50.3212748300781  30.6423310498047 50.4466617001953  31.2014886816406 50.4466617001953  C 32.5366893857422 50.4466617001953  33.5296178388672 49.7011181513672  34.1904405488281 48.2235863974609  L 36.7015667275391 48.2235863974609  C 36.3592944765625 49.7282288388672  35.7052494384766 50.8838212978516  34.7360428369141 51.6903638935547  C 33.7431143837891 52.4901287578125  32.5671889091797 52.8900112197266  31.2082663535156 52.8900112197266  C 29.9781195039063 52.8629005322266  28.9546915273438 52.5511278046875  28.1312048115234 51.9580818134766  C 27.3640910381748 51.4638662054229  26.7364007626872 50.7813405277552  26.3080119707031 49.9756137431641  C 26.1988835510106 49.7441319788147  26.0949334413773 49.5102441973819  25.9962392431641 49.2741250019531  C 25.8973500462403 48.992480260213  25.825853554115 48.7019549104242  25.7827426386719 48.4065834785156  C 25.6878552919922 47.8372593388672  25.6336339169922 46.8036648544922  25.62346746875 45.3125777568359  L 25.6200786328125 44.644977375  C 25.6200786328125 42.7607854873047  25.6743000078125 41.5001391738281  25.7827426386719 40.8630383154297  C 25.8979630009766 40.2225486210937  26.0707935742188 39.7108346328125  26.3046231347656 39.3143410664062  C 26.6875614169922 38.5654086816406  27.2907739160156 37.897808359375  28.1278159755859 37.3149288164062  C 28.9513026914063 36.7184939892578  29.9781195039063 36.4134988740234  31.2082663535156 36.3999435302734  Z M 49.3215856230469 46.2580625068359  C 49.6921643167163 45.8814348046802  50.1995954350107 45.6711260133228  50.7279518818359 45.6751830234375  C 51.3481085605469 45.6819606953125  51.8530448769531 45.8785130605469  52.2393719951172 46.2648401787109  C 52.6329351628524 46.6476411228638  52.8501278820032 47.1765115331612  52.8391956582031 47.7254277529297  C 52.8443053679571 48.1810268498754  52.6909742117046 48.6242496954511  52.4054248369141 48.9792964541016  L 50.080684515625 51.8699720791016  L 52.8391956582031 51.8699720791016  L 52.8391956582031 52.8900112197266  L 48.7183731240234 52.8900112197266  L 48.7183731240234 51.9275822900391  L 51.5446609257812 48.4269164345703  C 51.6415893316206 48.3099412632518  51.7172867556586 48.1768973510617  51.7683240380859 48.0338117041016  C 51.792655701103 47.9270663945516  51.8051567769341 47.8179659619972  51.8056011738281 47.7084835732422  C 51.809566436788 47.4514320187682  51.7191378583208 47.201849152372  51.5514385976562 47.0069948916016  C 51.3595529921627 46.8007330684124  51.0874176409879 46.6881679808588  50.8058950488281 46.6986109404297  C 50.5421359350389 46.6911773926279  50.2861992851537 46.7886770748956  50.094239859375 46.9697176962891  C 49.8883135240101 47.1721249541721  49.7650943529821 47.4439319622027  49.7485787724609 47.7322054248047  L 48.7183731240234 47.7322054248047  C 48.7258785125545 47.1822414820817  48.941406412555 46.6555300364057  49.3215856230469 46.2580625068359  Z M 42.6930258056641 38.8500707216797  L 42.6964146416016 38.8500707216797  C 42.1983136955433 38.8497794750053  41.7071754601527 38.9670489009701  41.2629376953125 39.1923430322266  C 40.8787789567033 39.3971596400517  40.5435132227164 39.6827135545254  40.28017575 40.0293850917969  C 39.9569059791528 40.4157650341781  39.7459090066818 40.8834749915394  39.6701855791016 41.3815299755859  C 39.5583540527344 41.9576317871094  39.5041326777344 43.0488364228516  39.5041327373047 44.644977375  C 39.5041327373047 46.2445071630859  39.5617429482422 47.3255452910156  39.6735744150391 47.8880918183594  C 39.7470721350728 48.3929021192039  39.9581110854044 48.8677397626024  40.2835645859375 49.2605697177734  C 40.5309494902344 49.5994531328125  40.8596663974609 49.8671710527344  41.26632653125 50.0738899257812  C 41.6973368444456 50.3299321635065  42.1918553979536 50.4591412841515  42.6930258056641 50.4466617001953  C 43.2555722734375 50.4466617001953  43.7435644101562 50.3212748300781  44.1570022158203 50.0738899257813  C 44.5291248868991 49.8811795435587  44.8498044437827 49.6023277558523  45.0923204580078 49.2605697177734  C 45.4206192031333 48.8671937137905  45.6381880690869 48.3934550563743  45.7226436445312 47.8880918183594  C 45.8276974990234 47.3255453505859  45.8819188740234 46.2445071630859  45.8819188740234 44.644977375  C 45.8819188740234 43.0488364228516  45.8276974990234 41.9610206230469  45.7226436445312 41.3815299755859  C 45.6346154415746 40.8833794923831  45.4172518366493 40.4170995068051  45.0923204580078 40.0293850917969  C 44.8457837051934 39.6850849627254  44.5264484337589 39.3993030317862  44.1570022158203 39.1923430322266  C 43.7021722934557 38.9662210136695  43.2009631674489 38.8490401599103  42.6930258056641 38.8500707216797  Z M 10.1161617246094 40.76815096875  C 10.5567101582031 40.0022744042969  11.5428609394531 39.6701686611328  12.3121263398438 40.1107170947266  C 15.6321701863838 42.0344339785111  19.2904545107473 43.3033294638642  23.0886193789063 43.8486013466797  C 23.9697163056641 43.9604328730469  24.6271501201172 44.8381409638672  24.5153186533203 45.7192378310547  C 24.4365528736531 46.558903028501  23.7106614315874 47.1877102310608  22.8683451621094 47.1459371054688  L 22.6480709453125 47.1459371054688  C 18.4526962771206 46.5534851248703  14.4165910234197 45.1343978874243  10.7735955986328 42.9708932558594  C 10.0043301982422 42.5303448222656  9.67561329101562 41.5408052050781  10.1161617246094 40.76815096875  Z " fill-rule="nonzero" fill="#bfbaba" stroke="none" fill-opacity="0.2" transform="matrix(1 0 0 1 163 263 )" />
  </g>
</svg>