<?xml version="1.0" encoding="utf-8"?>
<svg version="1.1" xmlns:xlink="http://www.w3.org/1999/xlink" width="68px" height="68px" xmlns="http://www.w3.org/2000/svg">
  <g transform="matrix(1 0 0 1 -263 -529 )">
    <path d="M 68 24.1090908789063  C 68 21.1727272304688  67.5363636485507 18.3909090546875  66.6090908792458 15.7636363515625  C 66.4545454066273 15.3  66.300000000415 14.9909090546875  66.1454545277965 14.527272703125  C 66.1454545277965 14.0636363515625  65.8363636489657 13.6  65.5272727037287 13.2909091210937  C 65.0636363522794 12.8272727695313  64.290909055593 12.3636364179688  63.3636363526944 12.3636363515625  C 62.9000000012451 12.3636363515625  62.4363636497958 12.5181818242188  62.1272727045588 12.672727296875  L 58.5727272991766 16.227272703125  L 49.7636363560147 25.0363636484375  C 48.8363636531161 25.9636363515625  47.1363636535312 25.9636363515625  46.2090908842263 25.0363636484375  L 42.5000000062256 21.327272703125  C 41.572727303327 20.4  41.572727303327 18.7  42.5000000062256 17.772727296875  L 51.3090908829812 8.9636363515625  L 53.627272706634 6.64545452734375  L 54.7090908821511 5.5636363515625  C 54.8636363547696 5.1  55.0181817609819 4.7909090546875  55.0181818273881 4.327272703125  C 55.0181818273881 3.4  54.5545454759388 2.627272703125  53.936363651871 2.1636363515625  C 53.4727273004217 1.85454547265625  53.1636363551847 1.7  52.7000000037353 1.7  C 52.5454545311168 1.54545452734375  52.236363652286 1.39090912109375  51.7727273008367 1.39090912109375  C 49.3000000045654 0.463636417968751  46.6727273020818 0  43.8909091269798 0  L 42.3454545336071 0  C 29.8272727124445 0.772727296875001  19.7818181875533 11.127272703125  19.7818181875533 24.1090908789063  C 19.7818181875533 25.1909090546875  19.7818181875533 26.2727272304688  19.9363636601718 27.3545454726563  L 3.70909089460227 43.8909091210938  C -1.23636363153409 48.8363636484375  -1.23636363153409 56.7181818242187  3.70909089460227 61.6636363515625  L 5.87272731204279 63.827272703125  C 10.8181818381792 68.7727272304688  18.7000000120361 68.7727272304688  23.6454545381725 63.827272703125  L 39.7181818311235 47.7545454726563  C 41.1090909518777 48.0636363515625  42.5000000062256 48.2181818242187  44.045454533192 48.2181818242187  C 56.7181818269731 48.2181818242187  67.0727272306951 38.4818181757813  68 25.9636363515625  L 68 24.1090908789063  Z M 62.1272727045588 24.1090908789063  C 62.1272727045588 34  53.9363635854647 42.1909090546875  43.7363636543612 42.1909091210938  C 41.8818181821578 42.1909091210938  40.0272727763605 41.8818182421875  38.4818181829878 41.4181818242188  C 38.1727273041571 41.8818181757813  37.86363635892 42.3454545273437  37.4000000074707 42.8090908789063  L 20.2454545390026 60.1181818242187  C 17.309090891282 63.0545454726563  12.5181818377641 63.0545454726563  9.73636366266202 60.1181818242187  L 7.72727271784002 58.2636363515625  C 4.79090907011941 55.327272703125  4.79090907011941 50.5363636484375  7.72727271784002 47.7545454726562  L 24.8818181863082 30.6  C 25.3454545377575 30.1363636484375  25.8090908892068 29.827272703125  26.1181818344438 29.5181818242187  C 25.500000010376 27.8181818242187  25.1909091315452 25.8090909453125  25.1909091315452 23.9545454726563  L 25.1909091315452 23.8  C 25.1909091315452 13.6  33.3818182506392 5.40909087890625  43.5818181817427 5.40909087890625  C 44.8181818298784 5.40909087890625  46.054545478014 5.5636363515625  47.2909091261497 5.872727296875  L 39.563636358505 13.6  C 36.163636359335 17  36.163636359335 22.7181818242188  39.563636358505 26.272727296875  L 41.572727303327 28.2818181757813  C 44.9727273024969 31.6818181757813  50.6909091253196 31.6818181757813  54.2454545307018 28.2818181757813  L 61.818181825728 20.7090908789063  C 61.9727272983465 21.7909090546875  62.1272727045588 22.8727272304688  62.1272727045588 24.1090908789063  Z " fill-rule="nonzero" fill="#bfbaba" stroke="none" fill-opacity="0.2" transform="matrix(1 0 0 1 263 529 )" />
  </g>
</svg>