<?xml version="1.0" encoding="utf-8"?>
<svg version="1.1" xmlns:xlink="http://www.w3.org/1999/xlink" width="67px" height="66px" xmlns="http://www.w3.org/2000/svg">
  <g transform="matrix(1 0 0 1 -287 -344 )">
    <path d="M 66.3249113924051 62.5612307692308  C 66.9101012658228 60.6929230769231  66.3249113924051 58.63  64.9204556962025 57.2676923076923  L 42.9563291139241 35.5875384615385  C 49.0032911392405 26.4016923076923  48.2230379746836 14.2576923076923  40.4595189873418 6.55092307692308  C 31.5256202531646 -2.28461538461538  16.7398227848101 -1.89538461538462  7.41579746835443 7.44615384615385  C -1.90822784810127 16.7876923076923  -2.22032911392405 31.5395384615385  6.71356962025316 40.414  C 14.6331392405063 48.2764615384615  27.1952151898734 48.8213846153846  36.4412151898734 42.2823076923077  L 57.8201518987342 63.3007692307692  C 58.8344810126582 64.3127692307692  60.1218987341772 64.9744615384615  61.5263544303798 65.1690769230769  C 64.5303291139241 65.5972307692308  65.817746835443 64.1570769230769  66.3249113924051 62.5612307692308  Z M 35.8170126582279 11.2216923076923  C 42.0980506329114 17.4883076923077  41.7859493670886 28.0753846153846  35.0757721518987 34.8090769230769  C 28.3655949367089 41.5427692307692  17.7541518987342 41.932  11.4341012658228 35.7043076923077  C 5.11405063291139 29.4376923076923  5.42615189873418 18.8506153846154  12.1753417721519 12.1169230769231  C 18.8855189873418 5.34430769230769  29.4969620253164 4.95507692307692  35.8170126582279 11.2216923076923  Z " fill-rule="nonzero" fill="#bfbaba" stroke="none" fill-opacity="0.196078431372549" transform="matrix(1 0 0 1 287 344 )" />
  </g>
</svg>