<?xml version="1.0" encoding="utf-8"?>
<svg version="1.1" xmlns:xlink="http://www.w3.org/1999/xlink" width="25px" height="25px" xmlns="http://www.w3.org/2000/svg">
  <g transform="matrix(1 0 0 1 -213 -1054 )">
    <path d="M 24.8666229739134 3.141318359375  C 24.8666229739134 2.46722263931539  24.4454305293642 1.51200192490065  22.4349704786279 0.789604492187499  C 21.0761982253502 0.301746748554913  19.2822392746498 0.0328774442286847  17.384449925916 0.0328774442286847  C 15.4857048648527 0.0328774442286847  13.6917459141523 0.30270798523302  12.333929373204 0.7896044921875  C 10.3242543608567 1.51282585011741  9.90214035560345 2.46722263931539  9.90214035560345 3.141318359375  C 9.90214035560345 3.24149208024747  9.88814613079203 3.34262703779805  9.90746500651042 3.44183955021676  C 9.88814613079203 3.50431939803107  9.85589111328125 3.56844706805455  9.85589111328125 3.63171649205202  L 9.85589111328125 6.5776411499729  C 9.85589111328125 6.67956568370665  9.86548227595187 6.78066632044798  9.88387959096624 6.87908922845918  C 9.86548227595187 6.94050484894328  9.85589111328125 7.00380862197435  9.85589111328125 7.06886317964234  L 9.85589111328125 8.51458498916185  C 8.9820362731232 8.42580868406792  8.38086428587464 8.38100856891257  7.59889353785022 8.38100856891257  C 5.69748616536458 8.38100856891257  3.91591723913434 8.65083910991691  2.5597048985273 9.1375982771857  C 0.550029886179957 9.85920613371568  0.133240503771552 10.8136029229137  0.133240503771552 11.4876986429733  C 0.133240503771552 11.5904127528902  0.1988427734375 11.6915477104408  0.218025098778736 11.7899706466763  C 0.198842745375359 11.8523131830293  0.244170426993534 11.9165438154805  0.244170426993534 11.9789206726427  L 0.244170426993534 14.9248110097543  C 0.244170426993534 15.0267355434881  0.253761589664152 15.1269092643605  0.273114617007902 15.2253322005961  C 0.253761617726293 15.2904211072977  0.244170426993534 15.3519397184339  0.244170426993534 15.4142822265625  L 0.244170426993534 18.3619233483111  C 0.244170426993534 18.4638478820448  0.253761589664152 18.5640216029173  0.273114617007902 18.6634057476066  C 0.253761617726293 18.726675171604  0.244170426993534 18.7898416049494  0.244170426993534 18.8513945651192  L 0.244170426993534 21.7973192230401  C 0.244170426993534 22.4714149430997  0.613754854750359 23.4258117322977  2.62264480064655 24.1481748442016  C 3.97872061893858 24.6358952481485  5.74639769104705 24.9047645524747  7.64780506353269 24.9047645524747  C 9.54921243601832 24.9047645524747  11.3272998608118 24.6350026813132  12.6825906407148 24.1481748442016  C 14.6922656530621 23.4257773832641  15.0986446547234 22.4713805940661  15.0986446547234 21.7973192230401  L 15.0986446547234 19.8603753838512  C 15.9723629725665 19.9509025018064  16.5997826867816 19.9956339471189  17.3817875583693 19.9956339471189  C 19.2796110587285 19.9956339471189  20.9966016747486 19.7258720759574  22.3553739560884 19.23890689916  C 24.3650489684357 18.5165094382225  24.710228790634 17.5613230728414  24.710228790634 16.8871930319725  L 24.710228790634 13.9422296107298  C 24.710228790634 13.877209373871  24.7006376279634 13.8129787131954  24.6814211509968 13.7515630927113  C 24.7006376279634 13.6548566485278  24.710228790634 13.5537560117865  24.710228790634 13.4518314780527  L 24.710228790634 10.5051515647579  C 24.710228790634 10.4401313278992  24.7006376279634 10.3759006672236  24.6814211509968 10.3144507259303  C 24.7006376279634 10.2186025277728  24.710228790634 10.120145270728  24.710228790634 10.0147534603053  L 24.710228790634 7.06886312319364  C 24.710228790634 7.00301898934248  24.7006376279634 6.93875400785766  24.6814211509968 6.87816228436597  C 24.7006376279634 6.78145584018244  24.710228790634 6.68224335598808  24.710228790634 6.5776410935242  L 24.710228790634 3.63171643560332  C 24.710228790634 3.56669619874458  24.7792784101114 3.50339245393786  24.760096056708 3.44183949376806  C 24.7792784381735 3.34530473830383  24.8666229739134 3.24416978075325  24.8666229739134 3.141318359375  Z M 17.384449925916 18.6896679123013  C 16.5927514929059 18.6896679123013  15.819416251347 18.6404736045882  15.0907942988955 18.543767188629  C 15.0977231501437 18.4841023810061  15.0986447389098 18.4234763367052  15.0986447389098 18.3619233765354  L 15.0986447389098 16.4240526497019  C 15.9723630567529 16.5146140884664  16.6023427117008 16.5593798828125  17.3817876425557 16.5593798828125  C 19.2778703921965 16.5593798828125  21.2072662423671 16.2895493418082  22.5677792463631 15.8018289378613  C 23.0020443550198 15.6445307701861  22.9626898123204 15.4706514462157  23.8365446524785 15.2817013920249  L 23.8365446524785 16.8872617300397  C 23.8365446524785 17.0797133817287  23.3742910661369 17.5622156961254  22.1325925489404 18.0086032898302  C 20.9119536581807 18.4480219528992  19.1398734958693 18.6896679123013  17.384449925916 18.6896679123013  Z M 22.132558397315 14.5724178106936  C 20.9075164444145 15.0118708227962  19.2027793024874 15.2535167821983  17.4516222442978 15.2535167821983  C 16.6635077114763 15.2535167821983  15.8579515759698 15.2042538328667  15.1247558874371 15.1058652456647  C 15.1308997002963 15.0469900142251  15.0986105592223 14.9863639699241  15.0986105592223 14.9238498013006  L 15.0986105592223 12.9861507067377  C 15.9723288770654 13.0766435038837  16.5944239684357 13.1214092700054  17.3817534628682 13.1214092700054  C 19.2770170224946 13.1214092700054  21.2054913119612 12.8516473988439  22.5677450666756 12.3647165710802  C 23.0020101753323 12.2083453192738  22.9626556326329 12.0333674189397  23.8365104727909 11.8453442806178  L 23.8365104727909 13.4518315345014  C 23.8365105008531 13.6443174787753  23.3742569145115 14.1260302169888  22.132558397315 14.5724178106936  Z M 22.132558397315 11.1353054721369  C 20.9075164444145 11.5746211727782  19.2027793024874 11.816370094608  17.4516222442978 11.816370094608  C 16.6669892129131 11.816370094608  15.8631396764996 11.7662488992504  15.1274181988596 11.6687528788837  C 15.1335620117187 11.609877647444  15.1203528252963 11.5491142634574  15.1203528252963 11.4867717553288  C 15.1203528252963 10.8136029229137  14.8931683279454 9.85824492526192  12.8826741255837 9.13505788814126  C 12.4369747047863 8.97683283282153  11.6033959680316 8.83975478684971  11.6033959680316 8.7280806595466  L 11.6033959680316 8.4082319138367  C 11.6033959680316 8.59972232884754  12.1040483847432 8.77380766234646  12.535753552667 8.92853109194364  C 13.8918293709591 9.41625149589053  15.584313010731 9.68512080021676  17.4857203832166 9.68512080021676  C 19.3862061949982 9.68512080021676  21.2630724676724 9.41532458002168  22.6191482859644 8.92853109194364  C 23.0525942046067 8.7729837371297  22.9626215090697 8.59797151598627  23.8364422256645 8.4082319138367  L 23.8364422256645 10.0147534885296  C 23.8365105008531 10.207170791185  23.3742569145115 10.6887462179371  22.132558397315 11.1353054721369  Z M 22.093238006241 7.69805579389451  C 20.8446106377963 8.13843569364162  19.0995973924659 8.38008165304371  17.3057749921426 8.38008165304371  C 15.5101094423491 8.38008165304371  13.7913439239853 8.13843569364162  12.5427165555406 7.69805579389451  C 11.2722445222701 7.25256076702493  10.8939904925467 6.77005845262825  10.8939904925467 6.57764114997291  L 10.8939904925467 4.97190915146315  C 10.8939904925467 5.16182041410766  11.6200866558908 5.33573408711163  12.063021366514 5.49224267860369  C 13.4541510360542 5.98088999841944  15.2934376683728 6.24975930274567  17.2332438712284 6.24975930274567  C 19.1730500740841 6.24975930274567  21.1469885674838 5.97996308255058  22.5380158382723 5.49224267860369  C 22.9827936983657 5.33494451092847  22.9425517185255 5.16006962947074  23.8365104727909 4.97190915146315  L 23.8365104727909 6.57764114997291  C 23.8365105008531 6.77005845262825  23.3637441911369 7.25256076702493  22.093238006241 7.69805579389451  Z M 21.9988280969379 4.26265991916546  C 20.7755268947557 4.70211293126806  19.1371770608836 4.94296928626264  17.3844498978538 4.94296928626264  C 15.6307670505568 4.94296928626264  13.9914956559806 4.70211293126806  12.7699351764547 4.26265991916546  C 11.5274516208693 3.81544842846821  11.1988942113416 3.33377001106394  11.1988942113416 3.14227959605311  C 11.1988942113416 2.94890105671965  11.527417497306 2.46639874232298  12.7699351764547 2.0208007248013  C 13.9924172166846 1.5813477126987  15.6307670505568 1.34062866916546  17.385269059806 1.34062866916546  C 19.1381327170887 1.34062866916546  20.7764825509608 1.5813477126987  21.9997837812051 2.0208007248013  C 23.2414822984016 2.46722263931539  23.570005584366 2.94969063290282  23.570005584366 3.14227959605311  C 23.5690499000988 3.33377001106395  23.2405266141343 3.81544840024386  21.9988280969379 4.26265991916546  Z M 14.2248239942529 20.1908319691564  L 14.2248239942529 21.7973535438493  C 14.2248239942529 21.9907320831828  13.6873769755747 22.4732000767702  12.4448934199892 22.9178711784231  C 11.220807151356 23.3573241905257  9.47753468480603 23.5980432340589  7.72559258822737 23.5980432340589  C 5.97283132969648 23.5980432340589  4.12303194594109 23.3572898697164  2.89973074375898 22.9178711784231  C 1.6580322265625 22.4732000767702  1.11805941877694 21.9907320831828  1.11805941877694 21.7973535438493  L 1.11805941877694 20.1925827820177  C 1.99188013537177 20.382459723853  1.97867094894935 20.5563733968569  2.41119527882543 20.7119550724801  C 3.76822680944684 21.199675476427  5.64164570424748 21.4677208837608  7.54117580369971 21.4677208837608  C 9.44084245352909 21.4677208837608  11.4837281676545 21.1988515794346  12.8398039859465 20.7119550724801  C 13.2749565317439 20.5555838206738  13.3509691540948 20.3814984871749  14.2248239942529 20.1908319691564  Z M 12.444859296426 19.4815484442738  C 11.2215580942439 19.9210014563764  9.47842212194684 20.1626474157785  7.72555846466415 20.1626474157785  C 5.9718756173671 20.1626474157785  4.12204213811063 19.9210014563764  2.89969662019576 19.4815484442738  C 1.65799810299928 19.0351265297598  1.11802529521372 18.5543750282243  1.11802529521372 18.3619233765354  L 1.11802529521372 16.7554361226517  C 1.99184601180855 16.9451757248013  1.97863682538613 17.119226737491  2.41116115526221 17.2747740923049  C 3.77085499730604 17.7634557329299  5.64505893049569 18.0323250372561  7.54114168013649 18.0323250372561  C 9.43814599048132 18.0323250372561  11.4802125426545 17.7625288170611  12.8397698623833 17.2747740923049  C 13.2732157810255 17.119226737491  13.3509691540948 16.9451757530256  14.2247898426275 16.754474914198  L 14.2247898426275 18.3619233765354  C 14.2248239942529 18.5544093490336  13.6873428520115 19.035160850569  12.444859296426 19.4815484442738  Z M 12.444859296426 16.0453629651373  C 11.2232988449623 16.4847129865878  9.48016287266523 16.7255350207731  7.72555846466415 16.7255350207731  C 5.97013486664871 16.7255350207731  4.12030138739224 16.4847129865878  2.90048165858477 16.0453629651373  C 1.65799810299928 15.5980484837879  1.11802529521372 15.1163014247652  1.11802529521372 14.92481098153  L 1.11802529521372 13.3182894068371  C 1.99184601180855 13.5098141708815  1.98037754804239 13.6847920429913  2.41116115526221 13.8394125101608  C 3.77167415925826 14.3271329141077  5.64601464282507 14.5961395581196  7.54114168013649 14.5961395581196  C 9.43736095209231 14.5961395581196  11.4802125426545 14.3263776869581  12.8397698623833 13.8394125101608  C 13.2714750583693 13.6847920712157  13.3509691540948 13.5089902456647  14.2247898426275 13.3182894068371  L 14.2247898426275 14.92481098153  C 14.2248239942529 15.1163014247652  13.6873428520115 15.5980141629787  12.444859296426 16.0453629651373  Z M 12.2368571244163 12.6081133151192  C 11.0154331952676 13.0476006480311  9.37616177262931 13.2883883614071  7.62155736462823 13.2883883614071  C 5.86613376661279 13.2883883614071  4.22778393274066 13.0475663272218  3.00714504198096 12.6081133151192  C 1.76544652478448 12.1617257214144  1.43692323882004 11.6791890862085  1.43692323882004 11.4876986711976  C 1.43692323882004 11.2960709165011  1.76544652478448 10.813602951138  3.00714504198096 10.3671810366239  C 4.22870549344468 9.92772802452131  5.86787451733118 9.68608206511922  7.62155736462823 9.68608206511922  C 9.37524021192529 9.68608206511922  11.0145116065014 9.92772802452131  12.2368571244163 10.3671810366239  C 13.4795113539422 10.8145298670069  13.8080346118445 11.2960709447254  13.8080346118445 11.4876986711976  C 13.8080346118445 11.6791890579841  13.4785556416128 12.1616913723808  12.2368571244163 12.6081133151192  Z " fill-rule="nonzero" fill="#ffffff" stroke="none" transform="matrix(1 0 0 1 213 1054 )" />
  </g>
</svg>