<?xml version="1.0" encoding="utf-8"?>
<svg version="1.1" xmlns:xlink="http://www.w3.org/1999/xlink" width="18px" height="18px" xmlns="http://www.w3.org/2000/svg">
  <g transform="matrix(1 0 0 1 -267 -2068 )">
    <path d="M 18 13.5  C 18 14.7426406871193  16.9926406871193 15.75  15.75 15.75  L 14.95125 14.956875  C 15.1624217627894 14.7439096294634  15.4500877027986 14.624386457206  15.75 14.625  C 16.3713203435596 14.625  16.875 14.1213203435596  16.875 13.5  L 16.875 2.25  C 16.875 1.62867965644036  16.3713203435596 1.125  15.75 1.125  L 4.5 1.125  C 3.87867965644036 1.125  3.375 1.62867965644036  3.375 2.25  L 3.375 2.345625  C 3.375 2.655  3.25125 2.935125  3.04875 3.13875  L 2.25 2.345625  L 2.25 2.25  C 2.25 1.00735931288071  3.25735931288071 0  4.5 0  L 15.75 0  C 16.9926406871193 0  18 1.00735931288071  18 2.25  L 18 13.5  Z M 2.25 3.375  C 1.62867965644036 3.375  1.125 3.87867965644036  1.125 4.5  L 1.125 15.75  C 1.125 16.3713203435596  1.62867965644036 16.875  2.25 16.875  L 13.5 16.875  C 14.1213203435596 16.875  14.625 16.3713203435596  14.625 15.75  L 14.625 4.5  C 14.625 3.87867965644036  14.1213203435596 3.375  13.5 3.375  L 2.25 3.375  Z M 2.25 2.25  L 13.5 2.25  C 14.7426406871193 2.25  15.75 3.25735931288071  15.75 4.5  L 15.75 15.75  C 15.75 16.9926406871193  14.7426406871193 18  13.5 18  L 2.25 18  C 1.00735931288071 18  0 16.9926406871193  0 15.75  L 0 4.5  C 0 3.25735931288071  1.00735931288071 2.25  2.25 2.25  Z " fill-rule="nonzero" fill="#278cff" stroke="none" transform="matrix(1 0 0 1 267 2068 )" />
  </g>
</svg>