<?xml version="1.0" encoding="utf-8"?>
<svg version="1.1" xmlns:xlink="http://www.w3.org/1999/xlink" width="14px" height="3px" xmlns="http://www.w3.org/2000/svg">
  <g transform="matrix(1 0 0 1 -268 -2072 )">
    <path d="M 1.78476821192053 0  L 8.73841059602649 0  C 9.05844314973639 0  9.31788079470199 0.220912130017701  9.31788079470199 0.493421052631579  C 9.31788079470199 0.765929975245457  9.05844314973639 0.986842105263158  8.73841059602649 0.986842105263158  L 1.78476821192053 0.986842105263158  C 1.46473565821063 0.986842105263158  1.20529801324503 0.765929975245457  1.20529801324503 0.493421052631579  C 1.20529801324503 0.220912130017701  1.46473565821063 0  1.78476821192053 0  Z M 12.2152317880795 0.986842105263158  C 11.8951992343696 0.986842105263158  11.635761589404 0.765929975245457  11.635761589404 0.493421052631579  C 11.635761589404 0.220912130017701  11.8951992343696 0  12.2152317880795 0  C 12.5352643417894 0  12.794701986755 0.220912130017701  12.794701986755 0.493421052631579  C 12.794701986755 0.765929975245457  12.5352643417894 0.986842105263158  12.2152317880795 0.986842105263158  Z M 0.0463576158940397 3  L 0.0463576158940397 2  L 13.953642384106 2  L 13.953642384106 3  L 0.0463576158940397 3  Z " fill-rule="nonzero" fill="#278cff" stroke="none" transform="matrix(1 0 0 1 268 2072 )" />
  </g>
</svg>