<?xml version="1.0" encoding="utf-8"?>
<svg version="1.1" xmlns:xlink="http://www.w3.org/1999/xlink" width="20px" height="18px" xmlns="http://www.w3.org/2000/svg">
  <g transform="matrix(1 0 0 1 -92 -2068 )">
    <path d="M 19.9477703651685 9.79938616071429  C 19.9477703651685 9.44363839285714  19.8007373595506 9.10672433035714  19.5352001404494 8.853515625  L 11.0555653089888 0.771763392857143  L 10.487183988764 0.229771205357143  C 10.2172577247191 -0.0255301339285714  9.7827422752809 -0.0255301339285714  9.51281601123596 0.229771205357143  L 0.464799859550562 8.853515625  C 0.194873595505618 9.11090959821428  0.0500351123595506 9.45200892857143  0.0522296348314607 9.81612723214286  C 0.0610077247191011 10.552734375  0.704002808988764 11.1407645089286  1.47647471910112 11.1407645089286  L 2.40914676966292 11.1407645089286  L 2.40914676966292 18  L 17.5908532303371 18  L 17.5908532303371 11.1407645089286  L 18.5432759831461 11.1407645089286  C 18.9185393258427 11.1407645089286  19.2718574438202 11.0005580357143  19.5373946629213 10.7473493303571  C 19.8029318820225 10.494140625  19.9477703651685 10.1572265625  19.9477703651685 9.79938616071429  Z M 11.2289325842697 12.1808035714286  L 11.2289325842697 16.4497767857143  L 8.77106741573034 16.4497767857143  L 8.77106741573034 12.1808035714286  L 11.2289325842697 12.1808035714286  Z M 18.1197331460674 9.63406808035714  L 16.0107970505618 9.63406808035714  L 16.0107970505618 16.4497767857143  L 12.6334269662921 16.4497767857143  L 12.6334269662921 11.6785714285714  C 12.6334269662921 11.2160993303571  12.2406074438202 10.8415178571429  11.7556179775281 10.8415178571429  L 8.24438202247191 10.8415178571429  C 7.75939255617978 10.8415178571429  7.36657303370786 11.2160993303571  7.36657303370786 11.6785714285714  L 7.36657303370786 16.4497767857143  L 3.9892029494382 16.4497767857143  L 3.9892029494382 9.63406808035714  L 1.88246137640449 9.63406808035714  L 10.0021945224719 1.89760044642857  L 10.5091292134831 2.38099888392857  L 18.1197331460674 9.63406808035714  Z " fill-rule="nonzero" fill="#999999" stroke="none" transform="matrix(1 0 0 1 92 2068 )" />
  </g>
</svg>