<?xml version="1.0" encoding="utf-8"?>
<svg version="1.1" xmlns:xlink="http://www.w3.org/1999/xlink" width="25px" height="25px" xmlns="http://www.w3.org/2000/svg">
  <g transform="matrix(1 0 0 1 -139 -1060 )">
    <path d="M 24.7495616566051 15.3196022727273  C 24.7495339133523 14.7973355379972  24.3246459960938 14.3753051757813  23.8010475852273 14.3753051757813  C 23.2774769176136 14.3753051757813  22.8525890003551 14.7983897816051  22.8525890003551 15.3196022727273  C 22.8525890003551 15.8407592773438  23.2774769176136 16.2638438831676  23.8010475852273 16.2638438831676  C 24.3246737393466 16.2638438831676  24.7495616566051 15.8407870205966  24.7495616566051 15.3196022727273  Z M 23.9805186878551 9.63184703480114  C 23.4568925337358 9.6318192915483  23.0320046164773 10.0549038973722  23.0320046164773 10.5761163884943  C 23.0320046164773 11.0983553799716  23.4568925337358 11.5203857421875  23.9805186878551 11.5203857421875  C 24.5040893554688 11.5203857421875  24.9290050159801 11.0973011363636  24.9290050159801 10.5761163884943  C 24.9290050159801 10.054931640625  24.5041170987216 9.63184703480114  23.9805186878551 9.63184703480114  Z M 16.3077614524148 23.7639825994318  C 16.3077614524148 23.2364723899148  15.8731911399148 22.8081165660511  15.3356656161222 22.8081165660511  C 14.7992220791903 22.8081165660511  14.3635697798295 23.2364723899148  14.3635697798295 23.7639825994318  C 14.3635697798295 24.2914928089489  14.7992220791903 24.7198486328125  15.3356656161222 24.7198486328125  C 15.872109153054 24.7198486328125  16.3077614524148 24.2914928089489  16.3077614524148 23.7639825994318  Z M 23.0309781161222 19.181074662642  C 23.0309781161222 18.653564453125  22.6071166992188 18.2252086292614  22.0824640447443 18.2252086292614  C 21.5588933771307 18.2252086292614  21.1339777166193 18.653564453125  21.1339777166193 19.181074662642  C 21.1339777166193 19.7086126154119  21.5588656338778 20.1369406960227  22.0824640447443 20.1369406960227  C 22.6060901988636 20.1369406960227  23.0309781161222 19.7085848721591  23.0309781161222 19.181074662642  Z M 20.1490090110085 22.0487282492898  C 20.1500909978693 21.5148648348722  19.7252030806108 21.0812377929688  19.2004949396307 21.0812377929688  C 18.6768965287642 21.0812377929688  18.2520086115057 21.5148648348722  18.2520086115057 22.0487282492898  C 18.2520086115057 22.5836459073153  18.6768965287642 23.016190962358  19.2004949396307 23.016190962358  C 19.72412109375 23.016190962358  20.1490090110085 22.5825639204545  20.1490090110085 22.0487282492898  Z M 12.4999722567472 24.9289772727273  L 12.5 23.1534090909091  C 11.0610129616477 23.1534090909091  9.66602672230114 22.8719815340909  8.3537431196733 22.3169500177557  C 7.08534934303977 21.780478737571  5.94587846235795 21.0120738636364  4.96693004261364 20.0330977006392  C 3.98792613636364 19.0541492808949  3.21954900568182 17.9146506569602  2.68307772549716 16.6462568803267  C 2.12801846590909 15.3339732776989  1.84659090909091 13.9389592950994  1.84659090909091 12.5  C 1.84659090909091 11.0610407049006  2.12801846590909 9.66602672230114  2.68304998224432 8.3537431196733  C 3.21954900568182 7.08534934303977  3.98792613636364 5.94587846235795  4.9669022993608 4.96693004261364  C 5.94585071910511 3.98795387961648  7.08534934303977 3.21954900568182  8.35371537642046 2.68307772549716  C 9.66602672230114 2.12801846590909  11.0610129616477 1.84659090909091  12.5 1.84659090909091  C 13.9389870383523 1.84659090909091  15.3339732776989 2.12801846590909  16.6462568803267 2.68304998224432  C 17.9146506569602 3.21952126242898  19.054121537642 3.98792613636364  20.0330977006392 4.9669022993608  C 21.0120738636364 5.94585071910511  21.780478737571 7.08534934303977  22.3169500177557 8.35371537642046  C 22.3291570490057 8.38254061612216  22.3410311612216 8.41150457208807  22.3529607599432 8.44038529829546  L 23.994667746804 7.76400479403409  C 22.1322909268466 3.24895685369318  17.6873224431818 0.0710227272727273  12.4999722567472 0.0710227272727273  C 5.63562566583807 0.0710227272727273  0.070994984019887 5.63565340909091  0.070994984019887 12.5  C 0.070994984019887 19.3643465909091  5.63562566583807 24.9289772727273  12.4999722567472 24.9289772727273  Z " fill-rule="nonzero" fill="#ffffff" stroke="none" transform="matrix(1 0 0 1 139 1060 )" />
  </g>
</svg>