<?xml version="1.0" encoding="utf-8"?>
<svg version="1.1" xmlns:xlink="http://www.w3.org/1999/xlink" width="10px" height="16px" xmlns="http://www.w3.org/2000/svg">
  <g transform="matrix(1 0 0 1 -147 -1065 )">
    <path d="M 9.80407366071429 6.85975877192982  C 9.95943080357143 6.64983552631579  9.75159040178571 6.36167763157895  9.51657366071429 6.36167763157895  L 7.68097098214286 6.36167763157895  C 7.28278459821429 6.36167763157895  6.1794921875 6.55633223684211  5.79294084821429 6.32541118421053  C 5.719140625 6.0639802631579  5.9638671875 5.58305921052632  6.02798549107143 5.35405701754386  C 6.21833147321429 4.68993969298246  6.40675223214286 4.02393092105263  6.59712611607143 3.35984100877193  C 6.87296316964286 2.39229714912281  7.14877232142857 1.42478070175439  7.424609375 0.455345394736841  C 7.53337053571429 0.0774945175438588  7.02642299107143 -0.084703947368422  6.81467633928571 0.201535087719296  C 4.61001674107143 3.18237390350877  2.40343191964286 6.16129385964912  0.194893973214286 9.1421326754386  C 0.0414341517857143 9.35013706140351  0.249274553571429 9.63640350877193  0.484319196428572 9.63640350877193  L 3.16875 9.63640350877193  C 3.35717075892857 9.63640350877193  4.06420200892857 9.52763157894737  4.18270089285714 9.69174890350877  C 4.28953683035714 9.83678728070175  4.08169642857143 10.2604440789474  4.03507254464286 10.4226425438596  C 3.54751674107143 12.1306195175439  3.05998883928571 13.8366776315789  2.57435825892857 15.5446271929825  C 2.46556919642857 15.9224780701754  2.97254464285714 16.0846765350877  3.18429129464286 15.7984375  C 5.39087611607143 12.8195175438596  7.5974609375 9.83867872807017  9.80407366071429 6.85975877192982  Z " fill-rule="nonzero" fill="#ffffff" stroke="none" transform="matrix(1 0 0 1 147 1065 )" />
  </g>
</svg>