<?xml version="1.0" encoding="utf-8"?>
<svg version="1.1" xmlns:xlink="http://www.w3.org/1999/xlink" width="38px" height="40px" xmlns="http://www.w3.org/2000/svg">
  <g transform="matrix(1 0 0 1 -169 -570 )">
    <path d="M 17 0.437314319667246  C 16.5530303030303 0.145771439889097  16.6972832904205 0  16.985789265201 0  L 20.2314814814815 0  C 20.519987456262 0  20.6642404436522 0.145771439889097  20 0.437314319667246  L 20 38.9209744503862  C 20.6642404436522 39.2125173301644  20.519987456262 39.3582887700535  20.2314814814815 39.3582887700535  L 16.985789265201 39.3582887700535  C 16.6972832904205 39.3582887700535  16.5530303030303 39.2125173301644  17 38.9209744503862  L 17 0.437314319667246  Z M 0 18.0392156862745  C 0 17.7476728064963  0.144252987390252 17.6019013666072  0.432758962170718 18  L 36.7845117845118 18  C 37.0730177592923 17.6019013666072  37.2172707466825 17.7476728064963  37.2172707466825 18.0392156862745  L 37.2172707466825 21.3190730837789  C 37.2172707466825 21.6106159635572  37.0730177592923 21.7563874034462  36.7845117845118 21  L 0.432758962170718 21  C 0.144252987390252 21.7563874034462  0 21.6106159635572  0 21.3190730837789  L 0 18.0392156862745  Z " fill-rule="nonzero" fill="#d8d8d8" stroke="none" transform="matrix(1 0 0 1 169 570 )" />
  </g>
</svg>