<?xml version="1.0" encoding="utf-8"?>
<svg version="1.1" xmlns:xlink="http://www.w3.org/1999/xlink" width="16px" height="16px" xmlns="http://www.w3.org/2000/svg">
  <g transform="matrix(1 0 0 1 -276 -1244 )">
    <path d="M 7.28571428571429 9  C 7.28571428571429 9.07857142857143  7.36607142857143 9.14285714285714  7.46428571428571 9.14285714285714  L 8.53571428571429 9.14285714285714  C 8.63392857142857 9.14285714285714  8.71428571428571 9.07857142857143  8.71428571428571 9  L 8.71428571428571 4.14285714285714  C 8.71428571428571 4.06428571428571  8.63392857142857 4  8.53571428571429 4  L 7.46428571428571 4  C 7.36607142857143 4  7.28571428571429 4.06428571428571  7.28571428571429 4.14285714285714  L 7.28571428571429 9  Z M 7.14285714285714 11.1428571428571  C 7.14285714285714 11.6162440712835  7.5266130715736 12  8 12  C 8.47338692842639 12  8.85714285714286 11.6162440712835  8.85714285714286 11.1428571428571  C 8.85714285714286 10.6694702144308  8.47338692842639 10.2857142857143  8 10.2857142857143  C 7.5266130715736 10.2857142857143  7.14285714285714 10.6694702144308  7.14285714285714 11.1428571428571  Z M 16 8  C 16 3.58214285714286  12.4178571428571 0  8 0  C 3.58214285714286 0  0 3.58214285714286  0 8  C 0 12.4178571428571  3.58214285714286 16  8 16  C 12.4178571428571 16  16 12.4178571428571  16 8  Z M 14.6428571428571 8  C 14.6428571428571 11.6678571428571  11.6678571428571 14.6428571428571  8 14.6428571428571  C 4.33214285714286 14.6428571428571  1.35714285714286 11.6678571428571  1.35714285714286 8  C 1.35714285714286 4.33214285714286  4.33214285714286 1.35714285714286  8 1.35714285714286  C 11.6678571428571 1.35714285714286  14.6428571428571 4.33214285714286  14.6428571428571 8  Z " fill-rule="nonzero" fill="#5da8ff" stroke="none" transform="matrix(1 0 0 1 276 1244 )" />
  </g>
</svg>