<?xml version="1.0" encoding="utf-8"?>
<svg version="1.1" xmlns:xlink="http://www.w3.org/1999/xlink" width="18px" height="5px" xmlns="http://www.w3.org/2000/svg">
  <g transform="matrix(1 0 0 1 -107 -89 )">
    <path d="M 13.7077501441176 4.30881343259804  C 11.3775136411765 4.96019811642158  8.7080655 5.13226197671569  6.17135233676471 4.81271478431373  C 3.90010915735294 4.50545786764706  0.920946039705883 3.41162321078432  0.390006072058824 2.66191632107843  C -0.096688902941176 1.97366081004902  0.213026073529413 0.990438658088236  1.03893268676471 0.63402061519608  C 1.67311097058824 0.363634525735296  2.27779259264706 0.412795628676474  3.25118254264706 0.818374774509806  C 5.44868406764706 1.74014554779412  8.11813220882353 2.17030524509804  10.1386537352941 1.92449970710785  C 11.5544936397059 1.75243582352941  12.8965918897059 1.40830807965687  14.1944451191176 0.867535877450983  C 15.2710733852941 0.412795628676474  15.8757550073529 0.351344250000002  16.5099332911765 0.621730339460788  C 17.0998665823529 0.879826153186277  17.4095815588235 1.34685667769608  17.4095815588235 1.97366081004902  C 17.4095815588235 2.36694968014706  17.4833232132353 2.53901354044118  17.6603032117647 2.58817464338236  C 17.9700181882353 2.698787125  15.2563250544118 3.87865371200981  13.7077501441176 4.30881343259804  Z " fill-rule="nonzero" fill="#ff4065" stroke="none" transform="matrix(1 0 0 1 107 89 )" />
  </g>
</svg>