<?xml version="1.0" encoding="utf-8"?>
<svg version="1.1" xmlns:xlink="http://www.w3.org/1999/xlink" width="13px" height="15px" xmlns="http://www.w3.org/2000/svg">
  <g transform="matrix(1 0 0 1 -166 -79 )">
    <path d="M 4.27581817574458 0.312500000000002  L 3.84090909468621 0.468749990234374  L 0 8.12500000976562  L 0 8.90624999023437  L 2.95454545958161 14.6875000097656  L 10.1931818037029 14.6875000097656  L 13 8.90624999023438  L 13 8.12500000976562  L 8.71590908776149 0.3125  L 5.31581818350026 6.875  C 4.33343181202638 7.645625  4.51395455750859 10.6084375097656  6.64240908147385 10.625  C 7.70013636193162 10.4165624902344  8.82168179641807 8.7509375  7.82422727084627 6.875  L 8.71059090595087 4.68749999023437  L 10.1878636218922 7.34375  L 10.1878636218922 10.0000000097656  C 9.59606817742036 12.5  4.65813636625265 14.3350000097656  2.79854545980321 10.0000000097656  C 2.64402272351701 10.0728125  2.78643183268973 7.36968751953125  2.79854545980321 7.34375  C 2.67652274193676 7.28249999023437  5.28538635612871 2.34374999023438  5.30990910183252 2.34374999023438  C 5.47004545600846 2.22656249023438  4.59904546647863 0.312500000000002  4.27581817574458 0.312500000000002  Z " fill-rule="nonzero" fill="#263246" stroke="none" transform="matrix(1 0 0 1 166 79 )" />
  </g>
</svg>