<?xml version="1.0" encoding="utf-8"?>
<svg version="1.1" xmlns:xlink="http://www.w3.org/1999/xlink" width="21px" height="22px" xmlns="http://www.w3.org/2000/svg">
  <defs>
    <linearGradient gradientUnits="userSpaceOnUse" x1="0" y1="11" x2="21" y2="11" id="LinearGradient1347">
      <stop id="Stop1348" stop-color="#7936ff" offset="0" />
      <stop id="Stop1349" stop-color="#cc51ff" offset="0.33" />
      <stop id="Stop1350" stop-color="#ea61e6" offset="0.74" />
      <stop id="Stop1351" stop-color="#ff68cf" offset="1" />
    </linearGradient>
  </defs>
  <g transform="matrix(1 0 0 1 -222 -72 )">
    <path d="M 5.36928 10.7040702702703  L 5.36928 11.5196162162162  L 0.26508 5.93513027027027  C 0.76764 4.93436810810811  1.4448 4.00581945945946  2.29656 3.14956756756757  C 4.38528 1.04982810810811  6.90942 0  9.86904 0  C 12.82866 0  15.3528 1.04982810810811  17.44146 3.14956756756757  C 19.51896 5.23798  20.55774 7.75612972972973  20.55774 10.7040702702703  C 20.55774 13.6520702702703  19.51896 16.1702378378378  17.44146 18.2586918918919  C 15.3528 20.3583243243243  12.82866 21.4082594594595  9.86904 21.4082594594595  L 9.86904 15.2684162162162  C 11.1036 15.2684162162162  12.15942 14.8276432432432  13.03644 13.9459783783784  C 13.92468 13.0530756756757  14.3688 11.9724594594595  14.3688 10.7040702702703  C 14.3688 9.4358  13.92468 8.35518378378378  13.03644 7.46228108108108  C 12.15942 6.58061621621622  11.1036 6.13978378378378  9.86904 6.13978378378378  C 8.63448 6.13978378378378  7.57866 6.58061621621622  6.70164 7.46228108108108  C 5.8134 8.35518378378378  5.36928 9.4358  5.36928 10.7040702702703  Z " fill-rule="nonzero" fill="url(#LinearGradient1347)" stroke="none" transform="matrix(1 0 0 1 222 72 )" />
  </g>
</svg>