<?xml version="1.0" encoding="utf-8"?>
<svg version="1.1" xmlns:xlink="http://www.w3.org/1999/xlink" width="29px" height="18px" xmlns="http://www.w3.org/2000/svg">
  <defs>
    <linearGradient gradientUnits="userSpaceOnUse" x1="1.16" y1="9" x2="29" y2="9" id="LinearGradient1355">
      <stop id="Stop1356" stop-color="#ff9059" offset="0" />
      <stop id="Stop1357" stop-color="#ff68cf" offset="1" />
    </linearGradient>
  </defs>
  <g transform="matrix(1 0 0 1 -214 -76 )">
    <path d="M 7.83030208333333 1.92084827586207  C 6.05387083333333 -0.0912972413793106  3.02763625 -0.241317931034483  1.07122979166667 1.58573793103448  L 0 2.58610344827586  L 8.75485833333333 12.5021172413793  L 10.1199729166667 14.0517931034483  L 10.1667354166667 14.1005172413793  C 12.2699604166667 16.2923586206897  14.8116291666667 17.3883103448276  17.7917416666667 17.3883103448276  C 20.7719145833333 17.3883103448276  23.3135833333333 16.2923586206897  25.4168083333333 14.1005172413793  C 27.5087354166667 11.9204689655172  28.55466875 9.29172413793103  28.55466875 6.21440689655172  L 22.32275 6.21440689655172  C 22.32275 7.53833793103448  21.87560625 8.66644137931034  20.9811375 9.59859310344828  C 20.0980875 10.5188896551724  19.0349354166667 10.9790689655172  17.7917416666667 10.9790689655172  C 16.5680625 10.9790689655172  15.51880625 10.5331655172414  14.6439729166667 9.64142068965517  L 10.46193125 4.89388965517241  L 10.4582458333333 4.89730344827586  L 7.83030208333333 1.92084827586207  Z " fill-rule="nonzero" fill="url(#LinearGradient1355)" stroke="none" transform="matrix(1 0 0 1 214 76 )" />
  </g>
</svg>