<?xml version="1.0" encoding="utf-8"?>
<svg version="1.1" xmlns:xlink="http://www.w3.org/1999/xlink" width="22px" height="21px" xmlns="http://www.w3.org/2000/svg">
  <g transform="matrix(1 0 0 1 -202 -39 )">
    <path d="M 14.6666666666667 0  C 13.9916466988767 0  13.4444348958333 0.553064335696269  13.4444348958333 1.23530376838235  L 13.4444348958333 12.3529508272059  C 13.444450716228 13.0351789533248  13.9916578856123 13.5882256435697  14.6666666666667 13.5882256433824  L 20.7777682291667 13.5882256433824  C 21.4527770102211 13.5882256435697  21.9999841796053 13.0351789533248  22 12.3529508272059  L 22 1.23530376838235  C 22 0.553064335696269  21.4527881969566 0  20.7777682291667 0  L 14.6666666666667 0  Z M 1.22223177083333 0  C 0.5472118030434 0  0 0.553064335696269  0 1.23530376838235  L 0 19.7647155330882  C 1.58203947080931E-05 20.4469436592072  0.547222989778927 20.9999903494521  1.22223177083333 20.9999903492647  L 7.33333333333333 20.9999903492647  C 8.00834211438774 20.9999903494521  8.55554928377196 20.4469436592072  8.55556510416667 19.7647155330882  L 8.55556510416667 1.23530376838236  C 8.55556510416667 0.553064335696269  8.00835330112327 0  7.33333333333333 0  L 1.22223177083333 0  Z " fill-rule="nonzero" fill="#ffffff" stroke="none" transform="matrix(1 0 0 1 202 39 )" />
  </g>
</svg>