<?xml version="1.0" encoding="utf-8"?>
<svg version="1.1" xmlns:xlink="http://www.w3.org/1999/xlink" width="29px" height="28px" xmlns="http://www.w3.org/2000/svg">
  <g transform="matrix(1 0 0 1 -225 -36 )">
    <path d="M 28.1987926136364 3.659375  C 28.0783025568182 3.628125  27.9547230113636 3.6125  27.8311434659091 3.615625  L 18.5534090909091 3.615625  L 18.5534090909091 5.353125  L 21.2876065340909 5.353125  L 21.2876065340909 8.1  L 18.5534090909091 8.1  L 18.5534090909091 8.975  L 21.2876065340909 8.975  L 21.2876065340909 11.725  L 18.5534090909091 11.725  L 18.5534090909091 12.625  L 21.2876065340909 12.625  L 21.2876065340909 15.225  L 18.5534090909091 15.225  L 18.5534090909091 16.26875  L 21.2876065340909 16.26875  L 21.2876065340909 18.875  L 18.5534090909091 18.875  L 18.5534090909091 19.91875  L 21.2876065340909 19.91875  L 21.2876065340909 22.540625  L 18.5534090909091 22.540625  L 18.5534090909091 24.453125  L 27.8311434659091 24.453125  C 27.9763494318182 24.409375  28.0999289772727 24.234375  28.1987926136364 23.93125  C 28.29765625 23.625  28.3470880681818 23.378125  28 23.1875  L 28 3.93125  C 28.3470880681818 3.78125  28.29765625 3.690625  28.1987926136364 3.659375  Z M 26.6293323863636 19.91875  L 26.6262428977273 22.5375  L 22.1773792613636 22.5375  L 22.1773792613636 19.91875  L 26.6293323863636 19.91875  Z M 26.6293323863636 16.265625  L 26.6262428977273 18.875  L 22.1773792613636 18.875  L 22.1773792613636 16.265625  L 26.6293323863636 16.265625  Z M 26.6293323863636 12.634375  L 26.6262428977273 15.225  L 22.1773792613636 15.225  L 22.1773792613636 12.634375  L 26.6293323863636 12.634375  Z M 26.6293323863636 8.978125  L 26.6262428977273 11.725  L 22.1773792613636 11.725  L 22.1773792613636 8.978125  L 26.6293323863636 8.978125  Z M 26.6293323863636 8.103125  L 26.6262428977273 8.084375  L 22.1773792613636 8.084375  L 22.1773792613636 5.353125  L 26.6293323863636 5.353125  L 26.6293323863636 8.103125  Z M 0.652911931818182 3.190625  L 1 3.18125  L 1 24.890625  L 17 27.75  L 17 0.25  L 0.652911931818182 3.190625  Z M 12.9892400568182 19.759375  L 10.3384588068182 19.603125  C 10.2766690340909 19.43125  9.98316761363636 18.709375  9.46413352272727 17.428125  C 9.164453125 16.68125  8.85550426136364 15.934375  8.54346590909091 15.190625  L 8.51566051136364 15.190625  L 6.76392045454546 19.409375  L 4.42208806818182 19.25  L 7.19644886363636 14  L 4.65071022727273 8.74999999999999  L 7.03888494318182 8.621875  L 8.61761363636364 12.73125  L 8.64850852272727 12.73125  L 10.4311434659091 8.434375  L 12.8996448863636 8.278125  L 9.96154119318182 13.9625  L 12.9892400568182 19.759375  Z " fill-rule="nonzero" fill="#107b0f" stroke="none" transform="matrix(1 0 0 1 225 36 )" />
  </g>
</svg>