<?xml version="1.0" encoding="utf-8"?>
<svg version="1.1" xmlns:xlink="http://www.w3.org/1999/xlink" width="29px" height="29px" xmlns="http://www.w3.org/2000/svg">
  <g transform="matrix(1 0 0 1 -47 -6 )">
    <path d="M 0 14.355  L 0 14.3533888763021  L 8.58238887630208 6.04166666666667  L 12.1590555429687 6.04166666666667  L 13.8587777903646 3.09494445703125  L 25.6730555429688 0  L 28.8469444570312 11.3535  L 27.0263888763021 14.3533888763021  L 28.8469444570312 17.2856111236979  L 25.6730555429688 28.6310555429687  L 13.8587777903646 25.6263333333333  L 12.1590555429687 22.6796111236979  L 8.58238887630209 22.6796111236979  L 0 14.355  Z M 5.94661112369792 12.9404444570312  L 5.945 13  L 16.2480555429688 13  L 21.3762222096354 4.33227779036458  L 12.4474444570313 6.53466666666667  L 5.94661112369792 12.9404444570312  Z M 18.7903888763021 14.3517777903646  L 18.7903888763021 14.3533888763021  L 23.9556111236979 22.9325555429688  L 26.4608888763021 14.3533888763021  L 23.9556111236979 5.73233333333333  L 18.7903888763021 14.3517777903646  Z M 16.3447222096354 15.8130555429687  L 5.95305554296875 15.8130555429687  L 12.3975 22.1672777903646  L 21.4632222096354 24.4228333333333  L 16.3447222096354 15.8130555429687  Z " fill-rule="nonzero" fill="#262626" stroke="none" transform="matrix(1 0 0 1 47 6 )" />
  </g>
</svg>