<?xml version="1.0" encoding="utf-8"?>
<svg version="1.1" xmlns:xlink="http://www.w3.org/1999/xlink" width="22px" height="24px" xmlns="http://www.w3.org/2000/svg">
  <g transform="matrix(1 0 0 1 -103 -71 )">
    <path d="M 17.1694285714286 0  L 11.1162857142857 0  C 8.88171428571429 0  7.07142857142857 1.97485714285714  7.07142857142857 4.41257142857143  L 7.07142857142857 7.00457142857143  L 13.1396571428571 7.00457142857143  C 13.6902857142857 7.00457142857143  14.1428571428571 7.88502857142857  14.1428571428571 8.48571428571428  L 4.04485714285714 8.48571428571428  C 1.81028571428571 8.48571428571428  0 10.4605714285714  0 12.8982857142857  L 0 18.7323428571429  C 0 21.1700571428571  1.81028571428571 23.1449142857143  4.04485714285714 23.1449142857143  L 5.71371428571429 23.1449142857143  L 5.71371428571429 19.0100571428571  C 5.71371428571429 16.5723428571429  7.5108 14.5974857142857  9.74537142857143 14.5974857142857  L 17.1694285714286 14.5974857142857  C 17.1738287002862 14.5975014236174  17.1782288497603 14.597509278299  17.1826290021815 14.597509278299  C 19.4095652630028 14.597509278299  21.2151422432932 12.6286990380787  21.2161714285714 10.1993142857143  L 21.2161714285714 4.41257142857143  C 21.2161714285714 1.97485714285714  19.4058857142857 0  17.1694285714286 0  Z M 9.0948 3.58148571428571  C 9.0948 2.67017142857143  9.54737142857143 2.48502857142857  10.098 2.48502857142857  C 10.6637142857143 2.48502857142857  11.1162857142857 2.67017142857143  11.1162857142857 3.57942857142857  C 11.1162857142857 4.49074285714286  10.6637142857143 4.9536  10.098 4.9536  C 9.54737142857143 4.9536  9.0948 4.49074285714286  9.0948 3.58148571428571  Z " fill-rule="nonzero" fill="#3c78aa" stroke="none" transform="matrix(1 0 0 1 103 71 )" />
  </g>
</svg>