<?xml version="1.0" encoding="utf-8"?>
<svg version="1.1" xmlns:xlink="http://www.w3.org/1999/xlink" width="8px" height="29px" xmlns="http://www.w3.org/2000/svg">
  <g transform="matrix(1 0 0 1 -123 -5 )">
    <path d="M 0.349696 0.277035294117644  C 1.461376 0.277035294117644  1.780864 0.506305882352938  1.780864 0.506305882352941  L 6.93568 3.19491294117647  C 7.716352 3.61988235294118  7.82464 3.92612235294118  7.82464 4.36624  L 7.847296 24.6063294117647  C 7.847296 25.1463435294118  7.573504 25.3588282352941  6.818944 25.8120470588235  L 1.800064 28.4941035294118  C 1.590784 28.5980941176471  1.42336 28.7246023529412  0.1696 28.7246023529412  C 0.1696 28.7246023529412  1.254784 28.7344282352941  1.254784 27.8099764705882  L 1.254784 1.30711529411764  C 1.26757957923658 0.75783490785433  0.864621433340471 0.299228532645879  0.349696 0.277035294117644  Z " fill-rule="nonzero" fill="#4b9ae9" stroke="none" transform="matrix(1 0 0 1 123 5 )" />
  </g>
</svg>