<?xml version="1.0" encoding="utf-8"?>
<svg version="1.1" xmlns:xlink="http://www.w3.org/1999/xlink" width="29px" height="29px" xmlns="http://www.w3.org/2000/svg">
  <g transform="matrix(1 0 0 1 -159 -6 )">
    <path d="M 28.880031078125 16.3451560925749  C 29.8995391621094 8.40355693656544  24.2898091816406 1.13893938349466  16.3454906152344 0.11940307125049  C 8.4038907421875 -0.89922701939581  1.13836631152344 4.71239988702308  0.11973612890625 12.6548486523308  C -0.898894053710937 20.5964478083402  4.71177049707031 27.861065361411  12.6542765917969 28.8806016736552  C 20.5967827148437 29.8992317643015  27.8641195888672 24.2876614985025  28.880031078125 16.3451560925749  Z M 19.3316298193359 9.16393998314574  C 19.0625015097436 9.16728281304648  18.8053110971264 9.27556066888365  18.6148306738281 9.46571435238327  L 13.2342917431641 14.8461961283048  L 12.0860424355469 13.6979469243616  C 17.389495203125 8.40990051607081  18.3455955517578 8.35915168178567  19.3316298193359 9.16300544123793  Z M 14.1668301298828 15.7488571835234  L 13.4552984492188 15.0374388483424  L 18.8204881103516 9.6723346325559  C 18.9619287598373 9.52424747288616  19.1577951586939 9.44047080368848  19.362576183562 9.44047080368848  C 19.776580789755 9.44047080368848  20.1121978349292 9.77608781856014  20.1121978349292 10.1900923873732  C 20.1121978349292 10.4112009150968  20.014583445601 10.6210310219518  19.8454619013672 10.7634630740783  L 19.8445556513672 10.7643692956762  L 14.1668301298828 15.7488571835234  Z M 13.2342917431641 15.2586437766123  L 13.8542942695313 15.8766355333145  L 12.5246857871094 16.1639102153847  C 12.5193234626706 16.1650630297197  12.5138582480595 16.1656702799498  12.5083736552734 16.1657226869007  C 12.4809847320861 16.1654087540633  12.4559745720706 16.1500981830818  12.4432384375 16.1258485967509  C 12.4366792946926 16.11489761104  12.4332326655359 16.102364414348  12.4332699140625 16.0895994213128  C 12.4331424025885 16.070129620707  12.4410036704511 16.0514590933057  12.4550194042969 16.0379443371095  L 13.2342917431641 15.2586437766123  Z M 10.4665538330078 15.3219948656189  L 11.8830470517578 13.9055017747624  L 12.9452328837891 14.9667246486724  L 10.5536084912109 15.4814912262182  C 10.546215482304 15.4834352257491  10.5385968057306 15.4843875626156  10.5309527509766 15.4843232005719  C 10.4969625221873 15.4845484376279  10.4658966821663 15.4651322783356  10.4512045634766 15.4344805595643  C 10.4421067187191 15.4195591285109  10.437375607582 15.4031579434019  10.437611125 15.3864504183931  C 10.4378478752886 15.3616612424615  10.4483472551809 15.3380786565205  10.4666104736328 15.3213151781803  Z M 8.62605852441406 22.8195133234426  L 6.06120274511719 22.6418923892845  C 6.01390087602888 22.6375798613077  5.97772143472312 22.5978611370959  5.97782961425781 22.5503632149314  L 5.97782961425781 22.5413009139918  C 5.98013602462248 22.5204465733009  5.98939299101141 22.500975033324  6.00411026953125 22.486020943397  L 6.00694224414062 22.486020943397  L 7.14975416503906 21.3432090973614  L 8.62605852441406 22.8195133234426  Z M 8.99293984667969 21.1229670596296  L 8.9911556953125 21.1239582421572  C 8.89996372840734 21.1715298421318  8.84271190030453 21.265785909113  8.84253409375 21.368640169284  C 8.84245379352926 21.3909473605976  8.84519420804974 21.4131752012045  8.85069014550781 21.4347949123344  L 8.85069014550781 21.4329824408183  L 9.09627831640625 22.477978145295  C 9.09926953390517 22.4899449014492  9.10078207302638 22.5022332954981  9.10078207302638 22.5145682309809  C 9.10078207302638 22.5979009219907  9.03322757331805 22.6654554155996  8.9498948747842 22.6654554155996  C 8.90870784754864 22.6656768032969  8.86975702867811 22.6493109088197  8.84148627050781 22.6201428726935  L 8.83786132714844 22.6201428726935  L 7.35430713769531 21.1347763456727  L 11.9002370849609 16.5934912547233  L 14.0997408388672 16.1185987673273  L 15.155526421875 17.1743842550095  C 13.63934796875 18.5056917793386  11.5658101044922 19.8342806388741  8.99293984667969 21.1229670596296  Z M 15.3695098603516 16.9812441308464  L 15.3703594414063 16.982263633684  L 15.3675274667969 16.982263633684  L 14.3534284492188 15.9681646793473  L 20.0312672519531 10.9837051118101  C 20.0830558953344 10.9375450559255  20.1306668361441 10.8869015726092  20.1735452451172 10.8323648305525  L 20.1753577167969 10.8295328561989  C 19.9969437978516 12.4544586987441  17.7239221835938 14.7509287863204  15.3695098603516 16.9812441308464  Z M 19.7900969365234 9.1766271987971  L 19.7893039960938 9.17557937564952  L 19.7856790810547 9.17274740129584  C 19.3766069272045 8.76032185089939  19.1470724071379 8.20296166424562  19.1470724071379 7.6220702531733  C 19.1470724071379 6.40594161662987  20.1329395455573 5.42007456722322  21.3490682919035 5.42007456722322  C 21.8651256808315 5.42007456722322  22.364790404486 5.60132559888598  22.7608302304688 5.93218457962455  L 22.7572053154297 5.92935260527087  L 20.8114458125 7.87873687555237  C 20.7841904725666 7.90584495591946  20.7688661422212 7.9426998974515  20.7688661422212 7.98114077988067  C 20.7688661422212 8.01958166230983  20.7841904725666 8.05643660384188  20.8114458125 8.08354468420896  L 22.3185619638672 9.59066072782076  C 21.4743388696125 10.0103387059038  20.456374191958 9.84364804443414  19.7900969365234 9.1766271987971  Z M 22.9692913212891 6.12781683442209  C 23.7676377981749 6.99711633128984  23.7389002883882 8.34119724469409  22.9041277548828 9.17557937564952  C 22.8063985260994 9.27219649749766  22.6991867337918 9.35872493956155  22.5841155019531 9.43385471170515  L 22.5759594501953 9.4383858763351  L 21.1168734443359 7.9802062238127  L 22.9692913212891 6.12781683442209  Z M 22.7834859707031 7.31061602352701  C 22.7386284700493 7.34296841318997  22.7120044546626 7.39486837853336  22.7118938349609 7.45017533905137  C 22.7118849908726 7.46735030415982  22.7143261994904 7.48443871526097  22.7191436933594 7.50092420165682  C 22.8069521885353 7.67849817574281  22.7814265448423 7.89194801532263  22.6540084472656 8.04469012521709  L 22.6549146689453 8.04378387529892  C 22.5971766642294 8.11712619216167  22.6097479075083 8.22337341296525  22.6830077958984 8.28121597300208  C 22.7120334134728 8.30395116363977  22.7476443534654 8.31666935818489  22.7845054736328 8.31746514844013  C 22.8337535341325 8.31698839842431  22.8803719029661 8.29516703889774  22.9122838349609 8.2576540132154  C 23.1255052798684 8.00151048232736  23.1657716036768 7.64302220614306  23.0146877626953 7.34595897736719  L 23.0165002060547 7.35049011367683  C 22.9853473248021 7.30564426937893  22.9342051154734 7.27890003639644  22.8796006090266 7.27890003639644  C 22.8444683961458 7.27890003639644  22.8102343940561 7.29000036018036  22.7817867802734 7.31061602352701  Z " fill-rule="nonzero" fill="#ff6c37" stroke="none" transform="matrix(1 0 0 1 159 6 )" />
  </g>
</svg>