<?xml version="1.0" encoding="utf-8"?>
<svg version="1.1" xmlns:xlink="http://www.w3.org/1999/xlink" width="20px" height="22px" xmlns="http://www.w3.org/2000/svg">
  <g transform="matrix(1 0 0 1 -217 -75 )">
    <path d="M 19.5618181818182 5.203  L 19.5618181818182 5.20116666666666  C 17.6362522423718 2.27945760549965  14.3881489006988 0.523543380787863  10.9091154403479 0.523543380787863  C 5.17137896665127 0.523543380787863  0.520024531257005 5.21365910314375  0.520024531257005 10.9992100474545  C 0.520024531257005 16.7847609917653  5.17137896665127 21.4748767141212  10.9091154403479 21.4748767141212  C 14.2197809902252 21.4748767141212  17.3322228530665 19.8838459850096  19.2890909090909 17.1911666666667  L 14.8654545454545 14.3953333333333  C 13.8784922856007 15.5661379939502  12.4314451765669 16.2408862788612  10.9075311033116 16.2408862788612  C 8.03866286646331 16.2408862788612  5.71298564876618 13.8958284176832  5.71298564876618 11.0030529455279  C 5.71298564876618 8.11027747337246  8.03866286646331 5.76521961219452  10.9075311033116 5.76521961219452  C 12.5589297343839 5.76521961219452  14.1119393800901 6.55697893307224  15.0909090909091 7.89799999999999  L 19.5618181818182 5.203  Z " fill-rule="nonzero" fill="#ffffff" stroke="none" transform="matrix(1 0 0 1 217 75 )" />
  </g>
</svg>