<?xml version="1.0" encoding="utf-8"?>
<svg version="1.1" xmlns:xlink="http://www.w3.org/1999/xlink" width="28px" height="24px" xmlns="http://www.w3.org/2000/svg">
  <g transform="matrix(1 0 0 1 -225 -40 )">
    <path d="M 27 10.1663333333333  L 23 10.1663333333333  L 23 4.62433333333333  L 25.69 2.05633333333333  C 25.887740982527 1.86761163542747  25.9996212426501 1.6061781255486  25.9996212426501 1.33283333333333  C 25.9996212426501 0.780481623035854  25.5518517102975 0.332712090683223  24.9995 0.332712090683223  C 24.7423287343369 0.332712090683223  24.495040854621 0.431778101659792  24.309 0.609333333333332  L 21.457 3.33333333333333  L 6.543 3.33333333333333  L 3.69 0.610333333333334  C 3.50409184173531 0.432910609678235  3.25698378582814 0.33391900483889  3 0.33391900483889  C 2.44803870761014 0.33391900483889  2.00058567150556 0.781372040943469  2.00058567150556 1.33333333333333  C 2.00058567150556 1.60649064808156  2.1123915277856 1.86774433495444  2.31 2.05633333333333  L 5 4.62533333333333  L 5 10.1673333333333  L 1 10.1673333333333  C 0.447715250169207 10.1673333333333  0 10.6150485835025  0 11.1673333333333  C 0 11.7196180831641  0.447715250169207 12.1673333333333  1 12.1673333333333  L 5 12.1673333333333  L 5 13.3333333333333  C 5 14.9883333333333  5.447 16.5393333333333  6.226 17.8713333333333  L 2.31 21.6103333333333  C 2.11225901747301 21.7990550312392  2.00037875734989 22.0604885411181  2.00037875734989 22.3338333333333  C 2.00037875734989 22.8861850436308  2.44814828970252 23.3339545759834  3.0005 23.3339545759834  C 3.2576712656631 23.3339545759834  3.50495914537899 23.2348885650069  3.691 23.0573333333333  L 7.432 19.4863333333333  C 8.89527489825743 21.0522842575097  10.870776856132 22.0426957257061  13 22.2783333333333  L 13 10.3333333333333  C 13.001 9.78104858350254  13.4487152501692 9.33333333333333  14.001 9.33333333333333  C 14.5532847498308 9.33333333333333  15.001 9.78104858350254  15.001 10.3333333333333  L 15 22.2783333333333  C 17.1309686696136 22.0418352770593  19.1061878783378 21.051565564228  20.57 19.4863333333333  L 24.311 23.0573333333333  C 24.493605839464 23.2175425936431  24.7282404370833 23.3058810901858  24.9711640870134 23.3058810901858  C 25.524001121594 23.3058810901858  25.9721640870134 22.8577181247664  25.9721640870134 22.3048810901858  C 25.9721640870134 22.045835193481  25.8717400064717 21.7968763757476  25.692 21.6103333333333  L 21.775 17.8713333333333  C 22.5794515236343 16.4944472701033  23.0023033509774 14.9279969905254  23 13.3333333333333  L 23 12.1663333333333  L 27 12.1663333333333  C 27.5522847498308 12.1663333333333  28 11.7186180831641  28 11.1663333333333  C 28 10.6140485835025  27.5522847498308 10.1663333333333  27 10.1663333333333  Z " fill-rule="nonzero" fill="#000000" stroke="none" transform="matrix(1 0 0 1 225 40 )" />
  </g>
</svg>