<?xml version="1.0" encoding="utf-8"?>
<svg version="1.1" xmlns:xlink="http://www.w3.org/1999/xlink" width="18px" height="19px" xmlns="http://www.w3.org/2000/svg">
  <g transform="matrix(1 0 0 1 -34 -683 )">
    <path d="M 14.6810808006515 2.8221004690013  C 13.9305242899285 1.64447833981842  12.2626209392815 0.466856210635538  9.42718522559045 0.214508610116731  L 9.42718522559045 1.64447833981842  C 11.2618789249842 1.81271006692607  12.7629919464302 2.48563701478599  13.7637339607275 3.66325914396887  C 14.9312663042259 5.00911301997406  15.4316373113745 6.8596620773022  15.1814518078002 8.71021115434501  L 15.0980566529726 9.46725395590143  L 15.8486131636956 9.55136982931258  C 16.2655889964709 9.55136982931258  16.5157745000452 9.88783330324254  16.5157745000452 10.2242967574578  C 16.5157745000452 10.8131078319066  16.0154034928966 11.6542664871595  15.7652179893222 11.6542664871595  C 15.6818228149489 11.6542664871595  15.4316373113745 11.6542664871595  15.0980566529726 11.570150633463  L 14.4308952970772 11.4019188866407  L 14.1807097935028 12.2430775616083  C 13.3467581084065 15.3553646412451  10.2611369106868 17.4582612990921  8.59323356003982 17.4582612990921  C 6.92533020939281 17.4582612990921  3.83970899212741 15.3553646412451  3.00575730703104 12.2430775616083  L 2.7555718034567 11.4019188866407  L 2.08841046710705 11.570150633463  C 1.75482978915935 11.6542665068742  1.50464428558501 11.6542665068742  1.42124911121165 11.6542664871595  L 0.837482949235363 12.0748458345006  L 0.170321593339969 12.4954251621271  C 0.503902271287666 12.8318886360571  0.92087810406298 13.1683520902724  1.42124911121165 13.1683520902724  L 1.75482978915935 13.1683520902724  C 2.83896697783006 16.532986770428  6.17477367912406 18.9723469022049  8.50983838566645 18.9723469022049  C 10.8449030922088 18.9723469022049  14.0973146386752 16.6171026241245  15.2648469821736 13.1683520902724  L 15.5984276601213 13.1683520902724  C 16.8493551779929 13.1683520902724  17.7667020179169 11.4019188866407  17.7667020179169 10.308412630869  C 17.7667020179169 9.46725395590143  17.2663310107683 8.71021115434501  16.5157745000452 8.37374768041505  C 16.5991696744186 6.27085100285344  15.9320083185232 4.25207019870299  14.6810808006515 2.8221004690013  Z " fill-rule="nonzero" fill="#4080ff" stroke="none" transform="matrix(1 0 0 1 34 683 )" />
  </g>
</svg>