<?xml version="1.0" encoding="utf-8"?>
<svg version="1.1" xmlns:xlink="http://www.w3.org/1999/xlink" width="13px" height="16px" xmlns="http://www.w3.org/2000/svg">
  <g transform="matrix(1 0 0 1 -32 -682 )">
    <path d="M 11.6127024039162 12.9572803669875  L 11.5291577758253 12.9572803669875  L 10.108899215765 12.9572803669875  L 10.108899215765 10.7763260225271  C 10.108899215765 10.3569117345894  10.4430777085478 10.0213802924432  10.8608008098406 10.0213802924432  C 11.2785239111334 10.0213802924432  11.6127024039162 10.3569117345894  11.6127024039162 10.7763260225271  L 11.6127024039162 12.9572803669875  Z M 8.60509602761391 4.31734589391767  L 8.68864063612401 4.31734589391767  L 7.26838207606376 4.31734589391767  C 7.01774821137191 4.90452591275855  6.5164804819882 5.74335448863404  5.84812351600351 6.498300218718  C 6.4329358734781 6.91771450665574  7.10129283946278 7.1693630833504  7.76964980544747 7.16936310301044  L 7.76964980544747 8.59537169772681  C 6.68356971858918 8.59537169772681  5.68103425982176 8.0920745443375  4.8455880572361 7.4210116797051  C 4.01014183506966 8.0920745443375  2.92406176779214 8.59537169772681  1.50380318815112 8.59537169772681  L 1.50380318815112 7.25324594880197  C 2.33924941031756 7.25324594880197  3.09115100439312 7.00159737210731  3.67596334228693 6.58218308416957  L 2.75697251161039 5.65947164284252  L 3.84305259846868 4.73676018185542  C 4.01014183506966 4.98840875855007  4.34432032785239 5.32394020069629  4.76204342914522 5.65947164284252  C 5.09622192192795 5.24005735490477  5.43040039512991 4.82064304730698  5.68103425982177 4.40122875936924  L 1.50380318815112 4.40122875936924  L 1.50380318815112 2.89133729920131  L 4.34432032785239 2.89133729920131  L 4.34432032785239 1.4653286848249  L 5.76457888791264 1.4653286848249  L 5.76457888791264 2.89133729920131  L 8.60509602761391 2.89133729920131  L 8.60509602761391 4.31734589391767  Z M 12.9494163358855 10.8602088879787  C 12.9494163358855 9.60196600450543  12.030425505209 8.67925456317837  10.8608008098406 8.67925456317837  C 10.6101669451487 8.67925456317837  10.3595330804569 8.76313742862994  10.108899215765 8.84702027442146  L 10.108899215765 1.4653286848249  C 10.108899215765 0.710382954740938  9.44054224978034 0.0393200901085397  8.68864063612401 0.0393200901085397  L 1.50380318815112 0.0393200901085397  C 0.751901594075562 0.0393200901085397  0.0835446280908749 0.710382954740938  0.0835446280908749 1.4653286848249  L 0.0835446280908749 8.67925456317837  C 0.0835446280908749 9.43420029326234  0.751901594075562 10.1052631578947  1.50380318815112 10.1052631578947  L 2.25570478222668 10.1052631578947  L 2.25570478222668 12.2023346369035  L 5.34685578661981 10.1052631578947  L 8.85572989230576 10.1052631578947  C 8.77218526421489 10.3569117345894  8.68864065570478 10.608560311284  8.68864063612401 10.8602088879787  L 8.68864063612401 15.8931804218718  L 10.108899215765 15.8931804218718  L 10.108899215765 14.4671718271554  L 11.5291577758253 14.4671718271554  L 11.5291577758253 15.8931804218718  L 12.9494163358855 15.8931804218718  L 12.9494163358855 10.8602088879787  Z " fill-rule="nonzero" fill="#4080ff" stroke="none" transform="matrix(1 0 0 1 32 682 )" />
  </g>
</svg>