<?xml version="1.0" encoding="utf-8"?>
<svg version="1.1" xmlns:xlink="http://www.w3.org/1999/xlink" width="13px" height="13px" xmlns="http://www.w3.org/2000/svg">
  <g transform="matrix(1 0 0 1 -36 -609 )">
    <path d="M 0.406588225 6.51173733430233  C 0.406588200000002 3.21181940479653  3.087058825 0.523556764171531  6.377411775 0.523556764171531  C 9.667764725 0.523556764171531  12.3482353 3.21181942986914  12.3482353 6.51173733430233  C 12.3482353 9.81165523873551  9.6677647 12.4999179044331  6.377411775 12.4999179295058  C 3.087058825 12.4999179295058  0.406588249999999 9.81165526380812  0.406588225 6.51173733430233  Z M 1.9124706 6.51928864716569  C 1.9124706 8.98856361591572  3.915294125 10.9972093023256  6.377411775 10.9972093023256  C 8.839529425 10.9972093023256  10.84235295 8.98856361591572  10.84235295 6.51928864716569  C 10.84235295 4.05001367841567  8.839529425 2.0413679920058  6.377411775 2.0413679920058  C 3.915294125 2.0413679920058  1.9124706 4.05001367841567  1.9124706 6.51928864716569  Z " fill-rule="nonzero" fill="#4080ff" stroke="none" transform="matrix(1 0 0 1 36 609 )" />
  </g>
</svg>