<?xml version="1.0" encoding="utf-8"?>
<svg version="1.1" xmlns:xlink="http://www.w3.org/1999/xlink" width="11px" height="12px" xmlns="http://www.w3.org/2000/svg">
  <g transform="matrix(1 0 0 1 -32 -620 )">
    <path d="M 1.36941175568182 11.4943315568182  L 1.37711230397727 11.4866310085227  C 0.996045096723385 11.4871316884849  0.671919153147222 11.2088417407728  0.614759352272728 10.8320855539773  C 0.553155068181816 10.3931550681818  0.514652403409087 9.94652405965905  0.514652403409087 9.49219250284091  C 0.514652403409087 4.44064169318187  4.62673795738637 0.328556139204579  9.67828876704545 0.328556139204579  C 9.84 0.328556139204579  10.0017112329545 0.328556139204579  10.1634224659091 0.343957210227245  C 10.5869518806818 0.367058803977216  10.9103743465909 0.72898396022731  10.89497325 1.15251337500001  C 10.87187165625 1.57604278977271  10.5099465 1.89946525568178  10.0864171107955 1.88406415909094  C 9.95550801988636 1.88406415909094  9.81689840625 1.87636363636364  9.67828876704545 1.87636363636364  C 5.47379678693181 1.87636363636364  2.05475935227273 5.29540107102275  2.05475935227273 9.49989305113638  C 2.05475935227273 9.87721925284086  2.08556149431818 10.2468449318181  2.13176470738636 10.6164705852273  C 2.19336899147727 11.04  1.90074866761363 11.4250267244319  1.48491977556818 11.4866310085227  C 1.44641711079545 11.4866310085227  1.40791442045455 11.4943315312501  1.36941175568182 11.4943315568182  Z " fill-rule="nonzero" fill="#4080ff" stroke="none" transform="matrix(1 0 0 1 32 620 )" />
  </g>
</svg>