<?xml version="1.0" encoding="utf-8"?>
<svg version="1.1" xmlns:xlink="http://www.w3.org/1999/xlink" width="10px" height="9px" xmlns="http://www.w3.org/2000/svg">
  <g transform="matrix(1 0 0 1 -42 -622 )">
    <path d="M 9.78571428571429 7.95789473684211  C 9.78571428571429 8.1  9 6.82105263157895  9 6.82105263157895  C 9.5 6.11052631578948  9.85714285714286 5.25789473684211  9.85714285714286 4.33421052631579  C 9.85714285714286 1.91842105263158  7.71428571428572 0  5.07142857142857 0  C 2.42857142857143 0  0.285714285714286 1.91842105263158  0.285714285714286 4.33421052631579  C 0.285714285714286 6.75  2.42857142857143 8.66842105263158  5.07142857142857 8.66842105263158  C 5.92857142857143 8.66842105263158  6.71428571428572 8.52631578947369  7.35714285714286 8.1  C 8 8.2421052631579  8.64285714285715 8.45526315789474  9.21428571428572 8.59736842105263  C 9.35714285714286 8.66842105263158  9.57142857142857 8.59736842105263  9.71428571428572 8.45526315789474  C 9.85714285714286 8.31315789473684  9.85714285714286 8.1  9.78571428571429 7.95789473684211  Z M 8.14285714285715 6.53684210526316  C 8.00000000000001 6.67894736842105  8.00000000000001 6.8921052631579  8.14285714285714 7.03421052631579  L 8.5 7.60263157894737  L 7.42857142857143 7.31842105263158  C 7.35714285714286 7.24736842105263  7.21428571428572 7.31842105263158  7.14285714285715 7.38947368421053  C 6.5 7.74473684210527  5.78571428571429 7.88684210526316  5.07142857142857 7.88684210526316  C 2.92857142857143 7.88684210526316  1.14285714285715 6.32368421052632  1.14285714285715 4.40526315789474  C 1.14285714285715 2.48684210526316  2.85714285714286 0.923684210526319  5.07142857142857 0.923684210526319  C 7.28571428571429 0.923684210526319  9 2.48684210526316  9 4.40526315789474  C 9 5.18684210526316  8.71428571428572 5.96842105263158  8.14285714285715 6.53684210526316  Z " fill-rule="nonzero" fill="#4080ff" stroke="none" transform="matrix(1 0 0 1 42 622 )" />
  </g>
</svg>