<?xml version="1.0" encoding="utf-8"?>
<svg version="1.1" xmlns:xlink="http://www.w3.org/1999/xlink" width="20px" height="19px" xmlns="http://www.w3.org/2000/svg">
  <g transform="matrix(1 0 0 1 -32 -323 )">
    <path d="M 19.801796875 6.12523361280488  C 19.801796875 5.67144931402439  19.5607102272727 5.25326829268293  19.1734375 5.0330449695122  L 10.7145667613636 0.228362042682927  C 10.2662073863636 -0.0263132621951221  9.72838068181818 -0.0274428353658534  9.27784801136364 0.223930640243903  L 1.00980113636364 4.85730945121951  C 0.618091078310639 5.07714228484965  0.3747610512417 5.49688297130173  0.3747610512417 5.95274417608457  C 0.3747610512417 6.39901231859772  0.60804405501298 6.81145548065404  0.986896306818182 7.03499618902439  L 3.241796875 8.36517721036585  C 3.241796875 8.37629916158537  3.23962357954545 8.38742111280488  3.23962357954545 8.39965091463415  L 3.23962357954545 14.8537061737805  C 3.23962357954545 15.2073929115854  3.37053267045455 15.5455045731707  3.60833806818182 15.803525152439  C 4.24980113636364 16.4997549542683  6.61379261363636 18.7730861280488  10.11015625 18.7730861280488  C 13.6065198863636 18.7730861280488  15.9705326704545 16.4997549542683  16.6119744318182 15.803525152439  C 16.8494150747358 15.5465859728767  16.9813577914985 15.2067174327951  16.9807102272727 14.8537061737805  L 16.9807102272727 8.46862004573171  L 19.1745241477273 7.21740053353659  C 19.561796875 6.9960693597561  19.8028835227273 6.57788833841463  19.801796875 6.12523361280488  Z M 15.4545454545455 9.3394775152439  L 15.4545454545455 14.7858883384146  C 14.86 15.4164942835366  12.9181818181818 17.216034679878  10.1112642045455 17.216034679878  C 7.30436789772727 17.216034679878  5.36254971590909 15.4176238567073  4.76800426136364 14.7858883384146  L 4.76800426136364 9.26607698170732  L 9.35527698863636 11.972056402439  C 9.58127395157011 12.1046371892059  9.8374407582031 12.1744320433211  10.0981818181818 12.1744672256098  C 10.3480042613636 12.1744672256098  10.5988920454545 12.111059070122  10.8225497159091 11.9831566310976  L 15.4545454545455 9.3394775152439  Z M 17.9581818181818 6.12634146341463  L 10.0981818181818 10.6118330792683  L 2.21308238636364 5.96059832317073  L 9.99126420454546 1.60081516768293  L 17.9581818181818 6.12634146341463  Z " fill-rule="nonzero" fill="#4080ff" stroke="none" transform="matrix(1 0 0 1 32 323 )" />
  </g>
</svg>