<?xml version="1.0" encoding="utf-8"?>
<svg version="1.1" xmlns:xlink="http://www.w3.org/1999/xlink" width="96px" height="96px" xmlns="http://www.w3.org/2000/svg">
  <g transform="matrix(1 0 0 1 -32 -32 )">
    <path d="M 80 32  C 106.88 32  128 53.12  128 80  C 128 106.88  106.88 128  80 128  C 53.12 128  32 106.88  32 80  C 32 53.12  53.12 32  80 32  Z " fill-rule="nonzero" fill="#ffffff" stroke="none" />
    <path d="M 80 32.5  C 106.6 32.5  127.5 53.4  127.5 80  C 127.5 106.6  106.6 127.5  80 127.5  C 53.4 127.5  32.5 106.6  32.5 80  C 32.5 53.4  53.4 32.5  80 32.5  Z " stroke-width="1" stroke="#797979" fill="none" />
  </g>
</svg>