<?xml version="1.0" encoding="utf-8"?>
<svg version="1.1" xmlns:xlink="http://www.w3.org/1999/xlink" width="19px" height="20px" xmlns="http://www.w3.org/2000/svg">
  <g transform="matrix(1 0 0 1 -334 -572 )">
    <path d="M 18.3876795678879 8.75727859374999  L 10.5891402042026 0.804782343750001  C 10.4591582764009 0.606516781250001  10.2736134488147 0.45919265625  10.0563902262931 0.381773156250001  C 9.94231031573276 0.335468562500001  9.81883375862069 0.310941187500002  9.68341496443966 0.310941187500002  L 9.67778953125 0.310941187500002  L 9.64255990732759 0.307167750000001  C 9.62489795366379 0.307167750000001  9.61103866163793 0.309981843750002  9.59337670797414 0.3118685625  C 9.46348903286638 0.3118685625  9.34196094827586 0.335468562500001  9.23426073814655 0.378927093750001  C 9.009683625 0.4573059375  8.82316457650862 0.607444156250001  8.705313421875 0.796276125000001  L 0.899231600754313 8.7572785625  C 0.716420930495692 8.94233709375  0.617111697737071 9.194486125  0.617111697737071 9.46639778125  C 0.617111697737071 9.76856090625  0.743353829741381 10.06790996875  0.960451320581899 10.28884815625  C 1.17575748814655 10.50700425  1.45413756465517 10.62791428125  1.74364280657328 10.62791428125  C 2.01089774838362 10.62791428125  2.26146495743535 10.52398475  2.45074958081897 10.33237065625  C 2.45819778556035 10.3229050625  2.46746873114224 10.3153581875  2.476771125 10.30589259375  C 2.49625585021552 10.288880125  2.51941753609914 10.26710290625  2.52963128502155 10.250154375  L 8.5363934612069 4.148403375  L 8.54849284752156 18.8296495  C 8.54384166594828 18.86172375  8.54384166594828 18.89098390625  8.54569585506466 18.9193486875  L 8.54755004418104 18.953373625  C 8.54755004418104 19.505735125  9.02272581465518 19.9381779375  9.62961200107759 19.9381779375  C 10.2420607548491 19.9381779375  10.7375697704741 19.49630153125  10.7375697704741 18.953373625  L 10.7487577710129 4.14840340624999  L 16.7480403248922 10.24161621875  C 16.7674621842672 10.26623953125  16.7888325161638 10.2869934375  16.8120570678879 10.306852  L 16.8380471637931 10.3323706875  C 17.025509015625 10.52398478125  17.2760762553879 10.6279143125  17.5432369137931 10.6279143125  C 17.8328049908405 10.6279143125  18.1111850980603 10.50703628125  18.3265226831897 10.2888481875  C 18.7589263415948 9.84981784374999  18.7868020748922 9.16333928124999  18.3876795678879 8.75727859374999  Z " fill-rule="nonzero" fill="#165dff" stroke="none" fill-opacity="0.996078431372549" transform="matrix(1 0 0 1 334 572 )" />
  </g>
</svg>