<?xml version="1.0" encoding="utf-8"?>
<svg version="1.1" xmlns:xlink="http://www.w3.org/1999/xlink" width="29px" height="28px" xmlns="http://www.w3.org/2000/svg">
  <g transform="matrix(1 0 0 1 -214 -6 )">
    <path d="M 0 2.61100658984375  C 4.9807821533801 1.74176857421875  9.96156430676021 0.856067734375  14.9456870271046 0  L 16.7763165583546 0  L 16.7763165583546 2.93038569140625  C 20.227120013074 2.95014111328125  23.6812640625 2.8941674453125  27.132067489477 2.93038569140625  C 27.175670785596 2.92535127143641  27.2195348695206 2.92282763432016  27.2634363175055 2.92282763432016  C 27.8870270554172 2.92282763432016  28.392547230133 3.4210845881349  28.392547230133 4.03571568900766  C 28.392547230133 4.08781586310819  28.3888352760721 4.13985172844062  28.3814387573342 4.191439328125  C 28.4382283679847 10.2728128125  28.3814387573342 16.3574788398438  28.4148443992347 22.4421448671875  C 28.3814387573342 23.1006585195313  28.4783151438138 23.82831609375  28.1041718657526 24.417685796875  C 27.6331522289541 24.746942609375  27.0218288628827 24.7173095039063  26.4672951074617 24.746942609375  C 23.2403095006378 24.7304797578125  20.0133238660714 24.746942609375  16.7796571253189 24.746942609375  L 16.7796571253189 27.98682971875  L 14.7753182228954 27.98682971875  C 9.85132568016582 27.0945437382812  4.92399254272959 26.2681091367187  0 25.3955785507812  L 0 2.61100658984375  Z " fill-rule="nonzero" fill="#d24625" stroke="none" transform="matrix(1 0 0 1 214 6 )" />
  </g>
</svg>