<?xml version="1.0" encoding="utf-8"?>
<svg version="1.1" xmlns:xlink="http://www.w3.org/1999/xlink" width="10px" height="22px" xmlns="http://www.w3.org/2000/svg">
  <g transform="matrix(1 0 0 1 -232 -9 )">
    <path d="M 0.188146743421054 3.94527616607143  L 0.182205287828946 0.439940855357143  L 9.65291875822368 0.439940855357143  L 9.65291875822368 21.8373874419643  L 0.182205287828946 21.8373874419643  L 0.182205287828946 19.0309904517857  L 7.0713472368421 19.0309904517857  L 7.0713472368421 17.6295659276786  L 0.182205287828946 17.6295659276786  L 0.182205287828946 15.8556107973214  L 7.0713472368421 15.8556107973214  L 7.0713472368421 14.47192580625  L 0.185176027960527 14.47192580625  L 0.185176027960527 12.4105899696429  C 1.32296875822368 12.8398871169643  2.61821064144737 12.8292433794643  3.63420310032895 11.9954844723214  C 4.73337623355263 11.1972046607143  5.30672873355264 9.67869908303572  5.40179234375 8.16374144732143  L 1.62301331414474 8.16374144732143  C 1.62301331414474 6.63814004464286  1.63786701480263 5.11253864196429  1.59924741776316 3.59048515178572  C 1.12690003289474 3.70047038035715  0.657523388157896 3.82109931696429  0.188146743421054 3.94527616607143  Z " fill-rule="nonzero" fill="#ffffff" stroke="none" transform="matrix(1 0 0 1 232 9 )" />
  </g>
</svg>