<?xml version="1.0" encoding="utf-8"?>
<svg version="1.1" xmlns:xlink="http://www.w3.org/1999/xlink" width="15px" height="15px" xmlns="http://www.w3.org/2000/svg">
  <g transform="matrix(1 0 0 1 -316 -283 )">
    <path d="M 8.4375 12.55859375  C 8.60677083333333 12.55859375  8.75325520833333 12.4967447916667  8.876953125 12.373046875  L 9.873046875 11.376953125  C 9.99674479166667 11.2532552083333  10.05859375 11.1067708333333  10.05859375 10.9375  C 10.05859375 10.7682291666667  9.99674479166667 10.6217447916667  9.873046875 10.498046875  L 6.875 7.5  L 9.873046875 4.501953125  C 9.99674479166667 4.37825520833333  10.05859375 4.23177083333333  10.05859375 4.0625  C 10.05859375 3.89322916666667  9.99674479166667 3.74674479166667  9.873046875 3.623046875  L 8.876953125 2.626953125  C 8.75325520833333 2.50325520833333  8.60677083333333 2.44140625  8.4375 2.44140625  C 8.26822916666667 2.44140625  8.12174479166667 2.50325520833333  7.998046875 2.626953125  L 3.564453125 7.060546875  C 3.44075520833333 7.18424479166667  3.37890625 7.33072916666667  3.37890625 7.5  C 3.37890625 7.66927083333333  3.44075520833333 7.81575520833333  3.564453125 7.939453125  L 7.998046875 12.373046875  C 8.12174479166667 12.4967447916667  8.26822916666667 12.55859375  8.4375 12.55859375  Z M 13.994140625 3.7353515625  C 14.6647135416667 4.88444010416667  15 6.13932291666666  15 7.5  C 15 8.86067708333333  14.6647135416667 10.1155598958333  13.994140625 11.2646484375  C 13.3235677083333 12.4137369791667  12.4137369791667 13.3235677083333  11.2646484375 13.994140625  C 10.1155598958333 14.6647135416667  8.86067708333333 15  7.5 15  C 6.13932291666667 15  4.88444010416667 14.6647135416667  3.7353515625 13.994140625  C 2.58626302083333 13.3235677083333  1.67643229166667 12.4137369791667  1.005859375 11.2646484375  C 0.335286458333333 10.1155598958333  0 8.86067708333333  0 7.5  C 0 6.13932291666666  0.335286458333333 4.88444010416667  1.005859375 3.7353515625  C 1.67643229166667 2.58626302083333  2.58626302083333 1.67643229166667  3.7353515625 1.005859375  C 4.88444010416667 0.335286458333332  6.13932291666667 0  7.5 0  C 8.86067708333333 0  10.1155598958333 0.335286458333332  11.2646484375 1.005859375  C 12.4137369791667 1.67643229166667  13.3235677083333 2.58626302083333  13.994140625 3.7353515625  Z " fill-rule="nonzero" fill="#7f7f7f" stroke="none" transform="matrix(1 0 0 1 316 283 )" />
  </g>
</svg>