<?xml version="1.0" encoding="utf-8"?>
<svg version="1.1" xmlns:xlink="http://www.w3.org/1999/xlink" width="20px" height="15px" xmlns="http://www.w3.org/2000/svg">
  <g transform="matrix(1 0 0 1 -254 -139 )">
    <path d="M 2.75669642857143 12.587890625  C 2.82366071428571 12.646484375  2.85714285714286 12.7213541666667  2.85714285714286 12.8125  L 2.85714285714286 14.6875  C 2.85714285714286 14.7786458333333  2.82366071428571 14.853515625  2.75669642857143 14.912109375  C 2.68973214285714 14.970703125  2.60416666666667 15  2.5 15  L 0.357142857142857 15  C 0.25297619047619 15  0.167410714285714 14.970703125  0.100446428571429 14.912109375  C 0.0334821428571429 14.853515625  0 14.7786458333333  0 14.6875  L 0 12.8125  C 0 12.7213541666667  0.0334821428571429 12.646484375  0.100446428571429 12.587890625  C 0.167410714285714 12.529296875  0.25297619047619 12.5  0.357142857142857 12.5  L 2.5 12.5  C 2.60416666666667 12.5  2.68973214285714 12.529296875  2.75669642857143 12.587890625  Z M 7.04241071428571 11.337890625  C 7.109375 11.396484375  7.14285714285714 11.4713541666667  7.14285714285714 11.5625  L 7.14285714285714 14.6875  C 7.14285714285714 14.7786458333333  7.109375 14.853515625  7.04241071428571 14.912109375  C 6.97544642857143 14.970703125  6.88988095238095 15  6.78571428571429 15  L 4.64285714285714 15  C 4.53869047619048 15  4.453125 14.970703125  4.38616071428571 14.912109375  C 4.31919642857143 14.853515625  4.28571428571429 14.7786458333333  4.28571428571429 14.6875  L 4.28571428571429 11.5625  C 4.28571428571429 11.4713541666667  4.31919642857143 11.396484375  4.38616071428571 11.337890625  C 4.453125 11.279296875  4.53869047619048 11.25  4.64285714285714 11.25  L 6.78571428571429 11.25  C 6.88988095238095 11.25  6.97544642857143 11.279296875  7.04241071428571 11.337890625  Z M 11.328125 8.837890625  C 11.3950892857143 8.896484375  11.4285714285714 8.97135416666666  11.4285714285714 9.0625  L 11.4285714285714 14.6875  C 11.4285714285714 14.7786458333333  11.3950892857143 14.853515625  11.328125 14.912109375  C 11.2611607142857 14.970703125  11.1755952380952 15  11.0714285714286 15  L 8.92857142857143 15  C 8.82440476190476 15  8.73883928571429 14.970703125  8.671875 14.912109375  C 8.60491071428571 14.853515625  8.57142857142857 14.7786458333333  8.57142857142857 14.6875  L 8.57142857142857 9.0625  C 8.57142857142857 8.97135416666666  8.60491071428571 8.896484375  8.671875 8.837890625  C 8.73883928571429 8.779296875  8.82440476190476 8.75  8.92857142857143 8.75  L 11.0714285714286 8.75  C 11.1755952380952 8.75  11.2611607142857 8.779296875  11.328125 8.837890625  Z M 15.6138392857143 5.087890625  C 15.6808035714286 5.146484375  15.7142857142857 5.22135416666667  15.7142857142857 5.3125  L 15.7142857142857 14.6875  C 15.7142857142857 14.7786458333333  15.6808035714286 14.853515625  15.6138392857143 14.912109375  C 15.546875 14.970703125  15.4613095238095 15  15.3571428571429 15  L 13.2142857142857 15  C 13.110119047619 15  13.0245535714286 14.970703125  12.9575892857143 14.912109375  C 12.890625 14.853515625  12.8571428571429 14.7786458333333  12.8571428571429 14.6875  L 12.8571428571429 5.3125  C 12.8571428571429 5.22135416666667  12.890625 5.146484375  12.9575892857143 5.087890625  C 13.0245535714286 5.029296875  13.110119047619 5  13.2142857142857 5  L 15.3571428571429 5  C 15.4613095238095 5  15.546875 5.029296875  15.6138392857143 5.087890625  Z M 19.8995535714286 0.087890625  C 19.9665178571429 0.146484375  20 0.221354166666665  20 0.312500000000001  L 20 14.6875  C 20 14.7786458333333  19.9665178571429 14.853515625  19.8995535714286 14.912109375  C 19.8325892857143 14.970703125  19.7470238095238 15  19.6428571428571 15  L 17.5 15  C 17.3958333333333 15  17.3102678571429 14.970703125  17.2433035714286 14.912109375  C 17.1763392857143 14.853515625  17.1428571428571 14.7786458333333  17 14.6875  L 17 0.312500000000001  C 17.1428571428571 0.221354166666665  17.1763392857143 0.146484375  17.2433035714286 0.087890625  C 17.3102678571429 0.029296875  17.3958333333333 0  17.5 0  L 19.6428571428571 0  C 19.7470238095238 0  19.8325892857143 0.029296875  19.8995535714286 0.087890625  Z " fill-rule="nonzero" fill="#f2f2f2" stroke="none" transform="matrix(1 0 0 1 254 139 )" />
  </g>
</svg>