<?xml version="1.0" encoding="utf-8"?>
<svg version="1.1" xmlns:xlink="http://www.w3.org/1999/xlink" width="13px" height="15px" xmlns="http://www.w3.org/2000/svg">
  <g transform="matrix(1 0 0 1 -31 -915 )">
    <path d="M 7.4954955012141 3.21536145166604  L 6.49268017446157 2.46234939759036  L 5.48986486486486 3.21536145166604  L 5.8704955012141 2.00301204230987  L 4.86768017446157 1.25000000588291  L 6.11204955526816 1.25000000588291  L 6.49268017446157 0.0376505965267326  L 6.87331081081081 1.25000000588291  L 8.11768017446157 1.25000000588291  L 7.11486486486486 2.00301204230987  L 7.4954955012141 3.21536145166604  Z M 2.92060810810811 8.33584337349398  L 1.91047297297297 7.59789157214797  L 0.907657663376267 8.33584337349398  L 1.29560810810811 7.13102409050264  L 0.285472972972974 6.37801205407568  L 1.52984233662373 6.37801205407568  L 1.98367117688978 5.1656626447195  L 2.29842341770482 6.37801205407568  L 3.5427927985114 6.37801205407568  L 2.53265766337627 7.13102409050264  L 2.92060810810811 8.33584337349398  Z M 12.0557432432432 6.53614458419616  L 11.0529279336465 5.78313253012048  L 10.0427927985114 6.53614458419616  L 10.4307432432432 5.31626506612387  L 9.42060810810811 4.56325301204819  L 10.6649774717589 4.56325301204819  L 10.8333333390519 3.3433734939759  L 11.4335585528399 4.56325301204819  L 12.6779279336465 4.56325301204819  L 11.675112606894 5.31626506612387  L 12.0557432432432 6.53614458419616  Z M 8.40315314743454 5.03012047604481  C 8.40315314743454 4.52560239787274  8.00788287716428 4.12650601821348  7.52477476905617 4.12650601821348  L 5.47522523094383 4.12650601821348  C 4.99211712283573 4.12650601821348  4.59684685256546 4.53313252423758  4.59684685256546 5.0301204760448  L 4.59684685256546 14.0662650543581  C 4.59684685256546 14.5632530061653  4.99211712283573 14.9698795121894  5.47522523094383 14.9698795121894  L 7.52477476905617 14.9698795121894  C 8.00788287716427 14.9698795121894  8.40315314743454 14.5632530061653  8.40315314743454 14.0662650543581  L 8.40315314743454 5.03012047604481  Z M 7.23198198770059 5.33132530120482  L 7.23198198770059 13.7650602468468  L 5.76801801229941 13.7650602468468  L 5.76801801229941 5.33132530120482  L 7.23198198770059 5.33132530120482  Z M 3.82094594594595 10.4442771143166  C 3.82094594594595 9.94728916250941  3.42567567567568 9.54066265648532  2.94256756756757 9.54066265648532  L 0.893018012299409 9.54066265648532  C 0.4099099041913 9.54066265648532  0.0146396339210301 9.94728916250941  0.0146396339210301 10.4442771143166  L 0.0146396339210301 14.0587349456419  C 0.0146396339210301 14.5557228974492  0.4099099041913 14.9623494034733  0.893018012299409 14.9623494034733  L 2.94256756756757 14.9623494034733  C 3.42567567567568 14.9623494034733  3.82094594594595 14.5557228974492  3.82094594594595 14.0587349456419  L 3.82094594594595 10.4442771143166  Z M 2.64977476905617 10.7530120481928  L 2.64977476905617 13.7650602468468  L 1.18581081081081 13.7650602468468  L 1.18581081081081 10.7530120481928  L 2.64977476905617 10.7530120481928  Z M 12.9780405405405 8.64457830737011  C 12.9780405405405 8.14006022919804  12.5827702702703 7.74096384953878  12.0996621621622 7.74096384953878  L 10.050112606894 7.74096384953878  C 9.5670044987859 7.74096384953878  9.17173422851562 8.14759035556288  9.17173422851562 8.64457830737011  L 9.17173422851562 14.0662650543581  C 9.17173422851562 14.5632530061653  9.56700449878589 14.9698795121894  10.050112606894 14.9698795121894  L 12.0996621621622 14.9698795121894  C 12.5827702702703 14.9698795121894  12.9780405405405 14.5632530061653  12.9780405405405 14.0662650543581  L 12.9780405405405 8.64457830737011  Z M 11.8068693636508 8.94578313253012  L 11.8068693636508 13.7650602468468  L 10.3429054054054 13.7650602468468  L 10.3429054054054 8.94578313253012  L 11.8068693636508 8.94578313253012  Z " fill-rule="nonzero" fill="#278cff" stroke="none" transform="matrix(1 0 0 1 31 915 )" />
  </g>
</svg>