<?xml version="1.0" encoding="utf-8"?>
<svg version="1.1" xmlns:xlink="http://www.w3.org/1999/xlink" width="15px" height="15px" xmlns="http://www.w3.org/2000/svg">
  <g transform="matrix(1 0 0 1 -30 -607 )">
    <path d="M 0.221170774647888 5.49254511443662  C 0.256244498239437 5.52968199823944  0.295444542253522 5.56062940140845  0.340834066901408 5.58332416373239  L 3.10546875 7.06261003521127  C 3.1818056778169 7.10387323943662  3.26433208626761 7.1245048415493  3.34892165492958 7.1245048415493  C 3.43351122359155 7.1245048415493  3.51603763204225 7.10387323943662  3.59237455985916 7.06261003521127  L 6.35700924295775 5.58332416373239  C 6.40239876760563 5.55856624119718  6.44366197183099 5.52761883802817  6.47873569542254 5.49254511443662  C 6.57570422535211 5.39557658450704  6.62934639084507 5.26559749119718  6.62934639084507 5.12736575704225  L 6.62934639084507 2.16879401408451  C 6.62934639084507 1.96041483274648  6.50555677816901 1.77885673415493  6.32606183978873 1.69839348591549  L 3.59237455985916 0.237676056338028  C 3.43970070422535 0.157212808098592  3.2581426056338 0.157212808098592  3.10546875 0.237676056338028  L 0.367655149647887 1.70045664612676  C 0.351149867957746 1.70870928697183  0.332581426056339 1.7169619278169  0.318139304577465 1.72727772887324  C 0.163402288732394 1.82011993838028  0.0684969190140849 1.98929907570423  0.0684969190140849 2.16879401408451  L 0.0684969190140849 5.12736575704225  C 0.0684969190140849 5.26353433098592  0.12420224471831 5.39557658450704  0.221170774647888 5.49254511443662  Z M 2.8186894806338 5.73806117957747  L 1.10007702464789 4.81995488556338  L 1.10007702464789 3.03119498239437  L 2.8186894806338 3.94930127640845  L 2.8186894806338 5.73806117957747  Z M 5.59776628521127 4.81789172535211  L 3.84820642605634 5.75456646126761  L 3.84820642605634 3.96580655809859  L 5.59776628521127 3.0291318221831  L 5.59776628521127 4.81789172535211  Z M 1.67982504401409 2.16879401408451  L 3.34892165492958 1.2775088028169  L 5.02008142605634 2.17085717429577  L 3.35511113556338 3.06007922535211  L 1.67982504401409 2.16879401408451  Z M 14.8304082306338 9.97579225352113  C 14.8283450704225 9.7674130721831  14.7045554577465 9.58585497359155  14.5250605193662 9.50539172535212  L 11.7913732394366 8.04261113556338  C 11.6386993838028 7.96214788732394  11.4571412852113 7.96214788732394  11.3044674295775 8.04261113556338  L 8.56665382922535 9.50539172535211  C 8.55014854753521 9.51364436619718  8.5315801056338 9.52189700704225  8.51713798415493 9.53221280809859  C 8.36240096830986 9.62505501760563  8.26749559859155 9.79423415492958  8.26749559859155 9.97372909330986  L 8.26749559859155 12.9323008362676  C 8.26749559859155 13.0684694102113  8.32113776408451 13.1984485035211  8.41810629401408 13.2954170334507  C 8.4552431778169 13.3325539172535  8.49650638204225 13.3635013204225  8.54189590669014 13.3882592429577  L 11.3065305897887 14.8675451144366  C 11.3828675176056 14.908808318662  11.4653939260563 14.9294399207746  11.5499834947183 14.9294399207746  C 11.6345730633803 14.9294399207746  11.717099471831 14.908808318662  11.7934363996479 14.8675451144366  L 14.5580710827465 13.3882592429577  C 14.6034606073944 13.3635013204225  14.6447238116197 13.3325539172535  14.6797975352113 13.297480193662  C 14.7767660651408 13.2005116637324  14.8304082306338 13.0705325704225  14.8304082306338 12.9323008362676  L 14.8304082306338 9.97579225352113  Z M 9.87882372359155 9.97579225352113  L 11.547920334507 9.08244388204226  L 13.2190801056338 9.97579225352113  L 11.5541098151408 10.8650143045775  L 9.87882372359155 9.97579225352113  Z M 11.015625 13.5429962588028  L 9.29701254401408 12.6248899647887  L 9.29701254401408 10.8361300616197  L 11.015625 11.7542363556338  L 11.015625 13.5429962588028  Z M 13.7967649647887 12.6248899647887  L 12.0472051056338 13.5615647007042  L 12.0472051056338 11.7728047975352  L 13.7967649647887 10.8361300616197  L 13.7967649647887 12.6248899647887  Z M 12.1751210387324 2.82694212147887  C 13.3119223151408 3.96374339788732  13.9391230193662 5.47810299295775  13.9391230193662 7.08736795774648  C 13.9391230193662 7.37208406690141  14.1701969630282 7.60315801056338  14.4549130721831 7.60315801056338  C 14.739629181338 7.60315801056338  14.970703125 7.37208406690141  14.970703125 7.08736795774648  C 14.970703125 6.13418794014085  14.7850187059859 5.20989216549296  14.415713028169 4.33923855633803  C 14.060849471831 3.49953235035211  13.5512488996479 2.74441571302817  12.9034165933099 2.09658340669014  C 12.2555842869718 1.44875110035211  11.5004676496479 0.939150528169015  10.660761443662 0.584286971830986  C 9.79010783450704 0.217044454225352  8.86581205985916 0.029296875  7.91263204225352 0.029296875  C 7.62791593309859 0.029296875  7.39684198943662 0.260370818661972  7.39684198943662 0.545086927816901  C 7.39684198943662 0.829803036971831  7.62791593309859 1.0608769806338  7.91263204225352 1.0608769806338  C 9.52189700704225 1.0608769806338  11.0362566021127 1.68807768485915  12.1751210387324 2.82694212147887  Z M 7.60315801056338 14.4549130721831  C 7.60315801056338 14.1701969630282  7.37208406690141 13.9391230193662  7.08736795774648 13.9391230193662  C 5.47810299295775 13.9391230193662  3.96374339788732 13.3119223151408  2.82487896126761 12.1730578785211  C 1.68807768485915 11.0362566021127  1.0608769806338 9.52189700704225  1.0608769806338 7.91263204225352  C 1.0608769806338 7.62791593309859  0.829803036971831 7.39684198943662  0.545086927816901 7.39684198943662  C 0.260370818661971 7.39684198943662  0.0292968749999996 7.62791593309859  0.0292968749999996 7.91263204225352  C 0.0292968749999996 8.86581205985916  0.214981294014084 9.79010783450704  0.584286971830986 10.660761443662  C 0.939150528169013 11.5004676496479  1.44875110035211 12.2555842869718  2.09658340669014 12.9034165933099  C 2.74441571302817 13.5512488996479  3.49953235035211 14.060849471831  4.33923855633803 14.415713028169  C 5.20989216549296 14.7829555457746  6.13418794014084 14.970703125  7.08736795774648 14.970703125  C 7.37208406690141 14.970703125  7.60315801056338 14.739629181338  7.60315801056338 14.4549130721831  Z " fill-rule="nonzero" fill="#278cff" stroke="none" transform="matrix(1 0 0 1 30 607 )" />
  </g>
</svg>