<?xml version="1.0" encoding="utf-8"?>
<svg version="1.1" xmlns:xlink="http://www.w3.org/1999/xlink" width="58px" height="61px" xmlns="http://www.w3.org/2000/svg">
  <g transform="matrix(1 0 0 1 -204 -820 )">
    <path d="M 41.2949434791145 32.8044759098819  L 56.8020793145014 4.0199137039625  C 57.9451699519703 1.84249102327716  58.3079424667782 0.0782325153717987  57.6157375807554 0  L 0.965276925911129 0  C 0.27307203988823 0.0782325153717987  0.634256928810738 1.84249102327716  1.77655375333704 4.0199137039625  L 17.3773595159609 32.9896874356109  C 18.7601816621214 36.1762754808451  19.6135305755097 41.066967863235  19.4182525916087 47.5881548738372  L 19.4134897139526 47.7211272512837  L 18.5641098652777 57.0996373724908  C 18.3743885719756 59.1314236397824  20.046158629274 60.7785398151754  22.2997935735618 60  L 36.5796945995549 60  C 38.8333295438427 60.7785398151754  40.5050996011412 59.1314236397824  40.315378307839 57.0996373724908  L 39.159586663287 44.3121270747254  C 39.2945348635438 39.288462314889  40.1097807556831 35.4378038846693  41.2949434791145 32.8044759098819  Z " fill-rule="nonzero" fill="#52daf2" stroke="none" transform="matrix(1 0 0 1 204 820 )" />
  </g>
</svg>