<?xml version="1.0" encoding="utf-8"?>
<svg version="1.1" xmlns:xlink="http://www.w3.org/1999/xlink" width="32px" height="11px" xmlns="http://www.w3.org/2000/svg">
  <g transform="matrix(1 0 0 1 -218 -790 )">
    <path d="M 9.38165106793018 6.84117687385126  L 9.38165106793018 8.3955056301265  L 7.64115376761574 8.3955056301265  L 7.64115376761574 10.6422171960152  L 5.87258393019943 10.6422171960152  L 5.87258393019943 8.3955056301265  L 0.482656806644982 8.3955056301265  L 0.482656806644982 7.12378210226496  L 5.32516945671343 0.75103420153661  L 7.27621078529175 0.75103420153661  L 2.71442350624174 6.84117687385126  L 5.92872900440313 6.84117687385126  L 5.92872900440313 4.84881001353489  L 7.64115376761574 4.84881001353489  L 7.64115376761574 6.84117687385126  L 9.38165106793018 6.84117687385126  Z M 12.4524747097932 10.4090678825739  C 12.2278944129785 10.6304419781646  11.9565265543273 10.74112902596  11.6383711338397 10.74112902596  C 11.3202157133521 10.74112902596  11.048847854701 10.6304419781646  10.8242675578862 10.4090678825739  C 10.5996872610714 10.1876937869832  10.487397112664 9.90744360213962  10.487397112664 9.56831732804324  C 10.487397112664 9.21977087966637  10.5973478829796 8.93716565125269  10.8172494236107 8.7205016428022  C 11.0371509642418 8.50383763435174  11.3108582009848 8.3955056301265  11.6383711338397 8.3955056301265  C 11.9658840666946 8.3955056301265  12.2395913034376 8.50383763435174  12.4594928440687 8.7205016428022  C 12.6793943846998 8.93716565125269  12.7893451550154 9.21977087966637  12.7893451550154 9.56831732804324  C 12.7893451550154 9.90744360213962  12.677055006608 10.1876937869832  12.4524747097932 10.4090678825739  Z M 16.8427075954431 9.08788843973998  L 21.4746762172477 9.08788843973998  L 21.4746762172477 10.6422171960152  L 14.2319616449714 10.6422171960152  L 14.2319616449714 9.41288445241571  L 18.134044302128 5.68249543735521  C 18.5738473833903 5.25858759473473  18.8709484010514 4.88884575422683  19.0253473551116 4.57326991583155  C 19.1797463091718 4.2576940774363  19.2569457862018 3.94447328261114  19.2569457862018 3.63360753135609  C 19.2569457862018 3.17201899161375  19.1025468321417 2.81876245609665  18.7937489240214 2.57383792480479  C 18.4849510159011 2.32891339351295  18.0311116660879 2.20645112786701  17.4322308745818 2.20645112786701  C 16.4309770512827 2.20645112786701  15.6636610371656 2.55028748910367  15.1302828322305 3.23796021157692  L 13.8529823940965 2.24884191212906  C 14.2366404011551 1.730732326704  14.7536429594474 1.32801987621454  15.4039900689735 1.04070456066062  C 16.0543371784996 0.753389245106734  16.7818837650558 0.60973158732977  17.586629828642 0.60973158732977  C 18.6533862385121 0.60973158732977  19.5049198639348 0.864076292902078  20.14123070491 1.37276570404669  C 20.7775415458852 1.88145511519131  21.0956969663728 2.57383792480481  21.0956969663728 3.44991413288718  C 21.0956969663728 3.98686406687319  20.9834068179654 4.49084339087756  20.7588265211506 4.96185210490033  C 20.5342462243359 5.43286081892315  20.1038006554409 5.96981075290911  19.4674898144657 6.5727019068583  L 16.8427075954431 9.08788843973998  Z M 29.1072871381607 10.6422171960152  L 26.5105774562399 7.40638733067862  L 25.2052044810041 8.64985033569878  L 25.2052044810041 10.6422171960152  L 23 10.6422171960152  L 23 0.157563221867899  L 25.2052044810041 0.157563221867899  L 25.2052044810041 6.48792033833418  L 28.8405980356932 3.0966575973701  L 30.9460383183317 3.0966575973701  L 27.8159504314758 6.26183615560324  L 31.240799957901 10.6422171960152  L 29.1072871381607 10.6422171960152  Z " fill-rule="nonzero" fill="#ffffff" stroke="none" transform="matrix(1 0 0 1 218 790 )" />
  </g>
</svg>