<?xml version="1.0" encoding="utf-8"?>
<svg version="1.1" xmlns:xlink="http://www.w3.org/1999/xlink" width="37px" height="13px" xmlns="http://www.w3.org/2000/svg">
  <g transform="matrix(1 0 0 1 -51 -834 )">
    <path d="M 1.96493008506487 10.9930675943807  C 2.186145092477 11.1029279980946  2.62037681242856 11.1578581999516  3.26762524491957 11.1578581999516  L 8.06056026702647 11.1578581999516  C 8.69141210977211 11.1578581999516  9.11336080718497 11.0268916103025  9.32640635926505 10.7649584310042  C 9.53939947581669 10.5024840674513  9.69096437079269 9.90204013680793  9.78110104419305 8.96362663907417  C 9.78928098663078 8.86188399918148  9.79748714683274 8.75608247737819  9.80571952479891 8.64622207366422  C 10.0678971670338 8.83238945729773  10.3833230884066 8.95929716503623  10.7519972889174 9.02694519687977  C 10.6372683526754 10.2105151620145  10.4283389895784 11.0011853582019  10.1252091996264 11.398955785442  C 9.79748714683274 11.8383974002977  9.19529132038338 12.0751655117502  8.31862172027829 12.1092601197993  C 8.22848504687793 12.1092601197993  8.13837459124179 12.1092601197993  8.04829035336988 12.1092601197993  L 3.34136270679814 12.1092601197993  C 2.25168950303572 12.1092601197993  1.53070098688973 11.9612462261256  1.17839715836015 11.6652184387782  C 0.858865535109931 11.3859673633281  0.699099723484823 10.8829365985394  0.699099723484823 10.1561261444123  L 0.699099723484823 3.66191508743141  L 1.63310757394668 3.66191508743141  L 1.63310757394668 5.77983966838933  L 8.20803519078361 5.77983966838933  L 8.20803519078361 2.38012018005978  L 0.0231769222625854 2.38012018005978  L 0.0231769222625854 1.42953003659421  L 9.16658286855865 1.42953003659421  L 9.16658286855865 7.37822736478875  L 8.20803519078361 7.37822736478875  L 8.20803519078361 6.73124158823698  L 1.63310757394668 6.73124158823698  L 1.63310757394668 10.1683027901441  C 1.63310757394668 10.5909676931026  1.74371507765275 10.8658892945148  1.96493008506487 10.9930675943807  Z M 22.353357957812 2.91345726311435  L 13.7874638129489 2.91345726311435  L 13.7874638129489 4.71397727866227  L 12.8411860488304 4.71397727866227  L 12.8411860488304 2.00020883322645  L 17.572732176008 2.00020883322645  L 17.572732176008 0.629930300203423  L 18.5435497674397 0.629930300203423  L 18.5435497674397 2.00020883322645  L 23.3241755492437 2.00020883322645  L 23.3241755492437 4.71397727866227  L 22.353357957812 4.71397727866227  L 22.353357957812 2.91345726311435  Z M 21.4685084152692 4.35923099967474  L 21.4685084152692 5.24731436171689  L 14.6969318360976 5.24731436171689  L 14.6969318360976 4.35923099967474  L 21.4685084152692 4.35923099967474  Z M 20.1289641877984 11.3356372276365  C 20.2190484256703 11.3610728876096  20.3583171892255 11.3737907175962  20.546770478464 11.3737907175962  L 22.304199649893 11.3737907175962  C 22.5336050868485 11.3737907175962  22.6851699818245 11.2763775517415  22.758894334821 11.0815512200321  C 22.8326186878174 10.8618304126042  22.8776870245176 10.3882941896994  22.8940993449215 9.66094255131746  C 23.0907325765977 9.78757966692865  23.37747626391 9.91015790062916  23.7543304068585 10.028677252419  C 23.6970183742659 11.0520566781483  23.5372735368522 11.6990424547  23.2750958946173 11.9696345820742  C 23.0784626629411 12.1558019657076  22.7793966264438 12.2488856575244  22.3778977851252 12.2488856575244  L 20.4361839489693 12.2488856575244  C 19.7725599009443 12.2488856575244  19.3547011747503 12.1135895938373  19.1826077703873 11.8429974664631  C 19.0596988917076 11.6481711347536  18.9982444523677 11.3437549914577  18.9982444523677 10.9297490365751  L 18.9982444523677 7.64449001812492  L 16.7984691629599 7.64449001812492  C 16.6181958161592 9.05643973876357  16.2371992664634 10.1177020623251  15.6554795138726 10.8282769888098  C 15.0328600490932 11.5805231029101  14.0906722561936 12.1384840695557  12.8289161351739 12.5021598887466  C 12.6732350512148 12.1558019657076  12.4888979509594 11.8808803642955  12.2759048344078 11.6773950845101  C 13.7506540719791 11.2969425534219  14.7420001727978 10.637509539011  15.2499431368637 9.69909604127725  C 15.5203007215363 9.18334744650207  15.7046640395559 8.49847877211796  15.8030330909224 7.64449001812492  L 12.5462362013162 7.64449001812492  L 12.5462362013162 6.73124158823698  L 23.6314739637072 6.73124158823698  L 23.6314739637072 7.64449001812492  L 19.9323309561222 7.64449001812492  L 19.9323309561222 10.9297490365751  C 19.9323309561222 11.1575876078242  19.997875366681 11.2928836715114  20.1289641877984 11.3356372276365  Z M 33.2050740942644 1.26392765464121  L 33.7580853950305 0.681072212277197  C 34.7494314958491 1.20493857087365  35.4990760282914 1.69958097971367  36.0070189923573 2.16499943879729  L 35.429467864278 2.82416186108088  L 36.695235303224 2.82416186108088  L 36.695235303224 3.77556378092852  L 32.6888725344681 3.77556378092852  C 32.8199613555856 5.60206064070442  33.0493667925411 7.10303517124918  33.3770888453347 8.27848737256271  C 34.0571252137636 7.23021347111503  34.5937766296543 6.06314962575009  34.9870430930066 4.77729583646787  L 35.9333208571251 5.01839342195829  C 35.3761933673759 6.73502987802021  34.6388187485902 8.19812151073254  33.7211970007681 9.40766832009527  C 34.2209600223962 10.7433110608143  34.7821774833643 11.4154619052118  35.4048493836722 11.4241208532878  C 35.6506671410316 11.4241208532878  35.8186181386473 11.0225621362645  35.9087023765192 10.2194447022179  C 35.941527017327 9.90664020297328  35.9702092513876 9.50481089382261  35.9947490787007 9.01395677476578  C 36.2405668360602 9.26777219024278  36.510950638497 9.44122174388966  36.8059004860113 9.53430543570641  C 36.6994039277355 10.8786071245014  36.4863845934196 11.7242075225458  36.1668424830637 12.0711066298395  C 35.9702092513875 12.2827096734462  35.691645506513 12.3885111952494  35.33115124844 12.3885111952494  C 34.4135295006178 12.3711932990975  33.6474726477716 11.6606183726129  33.0329806899014 10.2567864157955  C 32.2792199684761 11.1113163540433  31.4148464997918 11.8302796364765  30.4398602838486 12.4136762630953  C 30.2022749044554 12.0835538676988  29.9769856564829 11.8256795703112  29.7639925399313 11.6400533709324  C 30.8782475194296 11.0139031881886  31.8409113861878 10.2145740439251  32.6519841402057 9.24206593814222  C 32.2095855866985 7.78790384563324  31.9023658255276 5.96573645989539  31.7303248566931 3.77556378092852  L 27.3920451928678 3.77556378092852  L 27.3920451928678 5.46243510297933  L 30.5996051212624 5.46243510297933  L 30.5996051212624 5.88131171615462  C 30.5504730311075 8.17268585075942  30.4562726042525 9.53403484357901  30.3170038406973 9.96535869461347  C 30.2760516929803 10.0752190983274  30.2350733274989 10.1599144341956  30.1940687442534 10.2194447022179  C 30.0220277754188 10.4305065615697  29.7721462646048 10.5530847952702  29.4444242118111 10.5871794033194  C 29.0921098961759 10.6126150632926  28.5923206567835 10.6126150632926  27.9450564936339 10.5871794033194  C 27.9286966087585 10.2489392441017  27.8426761243412 9.9485819827163  27.6869950403821 9.68610761916327  C 28.1703981771348 9.72886117528845  28.6128229484062 9.75023795335098  29.0142693541963 9.75023795335098  C 29.2027226434348 9.74157900527504  29.3297214933334 9.69503715936666  29.3952659038921 9.6106124156259  C 29.5263547250095 9.45799845578683  29.6164913984099 8.5953507537179  29.6656759240932 7.022669309419  C 29.6656759240932 6.81972521388833  29.669765895312 6.60000440646053  29.6779458377498 6.36350688713546  L 27.3920451928678 6.36350688713546  L 27.3920451928678 6.4649789349008  C 27.3838652504301 9.22123034433441  26.9414404791587 11.2590596555896  26.0647708790536 12.5784668686662  C 25.8681376473774 12.3500871131623  25.6264622967653 12.1428135435938  25.3397448272172 11.9566461599603  L 25.2905078660055 11.9314810921144  C 26.0360886449931 10.7901234988501  26.4170851946889 9.04832197494234  26.4334975150928 6.70607652039117  L 26.4334975150928 2.82416186108088  L 31.6810878954813 2.82416186108088  C 31.6483681257304 2.3425078743548  31.623802080653 1.61542682810031  31.6073897602491 0.642918722317408  L 32.5782860049734 0.642918722317408  C 32.5782860049734 1.48013076441327  32.5946721076131 2.20721181066776  32.6274443128925 2.82416186108088  L 35.429467864278 2.82416186108088  C 34.9051125798082 2.32518997820282  34.1800078746791 1.81377085746559  33.2541537488908 1.28990449886913  L 33.2050740942644 1.26392765464121  Z " fill-rule="nonzero" fill="#888888" stroke="none" transform="matrix(1 0 0 1 51 834 )" />
  </g>
</svg>