<?xml version="1.0" encoding="utf-8"?>
<svg version="1.1" xmlns:xlink="http://www.w3.org/1999/xlink" width="37px" height="11px" xmlns="http://www.w3.org/2000/svg">
  <g transform="matrix(1 0 0 1 -215 -746 )">
    <path d="M 0.120834645081935 0.790220892742917  L 4.05664541031237 0.790220892742917  L 4.05664541031237 10.6814038872215  L 2.21615836182332 10.6814038872215  L 2.21615836182332 2.33041938759742  L 0.120834645081935 2.33041938759742  L 0.120834645081935 0.790220892742917  Z M 8.92371116076119 9.12707513094626  L 13.5957167453872 9.12707513094626  L 13.5957167453872 10.6814038872215  L 6.29039892215377 10.6814038872215  L 6.29039892215377 9.45207114362201  L 10.2262096873842 5.72168212856151  C 10.6698142580457 5.29777428594099  10.9694833031202 4.92803244543312  11.1252168226077 4.61245660703784  C 11.2809503420952 4.29688076864256  11.358817101839 3.98365997381741  11.358817101839 3.67279422256238  C 11.358817101839 3.21120568282005  11.2030835823515 2.85794914730298  10.8916165433764 2.61302461601107  C 10.5801495044013 2.36810008471924  10.1223873410592 2.24563781907332  9.51833005334996 2.24563781907332  C 8.50842177546111 2.24563781907332  7.73447337558366 2.58947418030995  7.19648485371762 3.27714690278323  L 5.90814391977529 2.28802860333537  C 6.29511811971402 1.7699190179103  6.81658945011924 1.36720656742081  7.47255791099098 1.07989125186692  C 8.12852637186272 0.792575936313018  8.86236159247824 0.648918278536077  9.67406357283749 0.648918278536077  C 10.7500406165696 0.648918278536077  11.6089345725311 0.903262984108384  12.2507454407222 1.411952395253  C 12.8925563089132 1.92064180639759  13.2134617430087 2.6130246160111  13.2134617430087 3.48910082409349  C 13.2134617430087 4.02605075807948  13.1002010015633 4.53003008208387  12.8736795186723 5.00103879610664  C 12.6471580357814 5.47204751012943  12.2129918602403 6.00899744411542  11.5711809920493 6.61188859806458  L 8.92371116076119 9.12707513094626  Z M 16.9762352643641 10.4482545737802  C 16.7497137814732 10.6696286693709  16.4760003229799 10.7803157171663  16.1550948888844 10.7803157171663  C 15.8341894547889 10.7803157171663  15.5604759962956 10.6696286693709  15.3339545134047 10.4482545737802  C 15.1074330305137 10.2268804781895  14.9941722890682 9.94663029334595  14.9941722890682 9.60750401924953  C 14.9941722890682 9.25895757087265  15.1050734317336 8.97635234245899  15.3268757170643 8.75968833400851  C 15.5486780023951 8.54302432555802  15.8247510596685 8.43469232133278  16.1550948888844 8.43469232133278  C 16.4854387181004 8.43469232133278  16.7615117753738 8.54302432555802  16.9833140607045 8.75968833400851  C 17.2051163460353 8.97635234245899  17.3160174887006 9.25895757087265  17.3160174887006 9.60750401924953  C 17.3160174887006 9.94663029334595  17.2027567472551 10.2268804781895  16.9762352643641 10.4482545737802  Z M 21.8716162001743 4.83854078976877  C 22.3246591659563 4.66426756558036  22.8343325024609 4.57713095348614  23.4006362096883 4.57713095348612  C 24.0518854729998 4.57713095348614  24.6370659704682 4.70194826270218  25.1561777020933 4.95158288113424  C 25.6752894337184 5.20121749956632  26.081140423898 5.55682907865355  26.3737306726322 6.01841761839587  C 26.6663209213664 6.48000615813823  26.8126160457334 7.01224600498398  26.8126160457334 7.61513715893311  C 26.8126160457334 8.25570901000412  26.6521633286857 8.81856442326133  26.3312578945901 9.30370339870482  C 26.0103524604946 9.78884237414831  25.5761862849536 10.1632943017964  25.0287593679671 10.4270591816492  C 24.4813324509806 10.690824061502  23.8678367681509 10.8227065014283  23.1882723194781 10.8227065014283  C 21.8291434221323 10.8227065014283  20.7744027674213 10.3987986588078  20.0240503553449 9.55098297356678  C 19.2736979432687 8.70316728832579  18.8985217372305 7.48796480614699  18.8985217372305 5.9053755270304  C 18.8985217372305 4.79379496193662  19.1014472323203 3.84471240318069  19.5072982224999 3.05812785076262  C 19.9131492126796 2.27154329834459  20.4818125186871 1.67336223153563  21.2132881405225 1.26358465033579  C 21.9447637623579 0.853807069135988  22.7918597244189 0.648918278536077  23.7545760267054 0.648918278536077  C 24.2642493632101 0.648918278536077  24.7432479155733 0.703084280648698  25.191571683795 0.811416284873918  C 25.6398954520166 0.919748289099161  26.0292292507355 1.0775362082968  26.3595730799515 1.28478004246683  L 25.6800086312786 2.66954566169382  C 25.1892120850148 2.34925973615834  24.5615588095045 2.18911677339058  23.7970488047475 2.18911677339058  C 22.8437708975814 2.18911677339058  22.0981376830653 2.48114217608473  21.5601491611993 3.06519298147299  C 21.0221606393332 3.64924378686123  20.7531663784002 4.49234938496202  20.7531663784002 5.59450977577535  L 20.7531663784002 5.60864003719602  C 21.0457566271344 5.26951376309962  21.4185732343924 5.01281401395721  21.8716162001743 4.83854078976877  Z M 21.5813855502203 8.90805607892568  C 21.9447637623579 9.22363191732095  22.4473583025222 9.38141983651859  23.0891691707132 9.38141983651859  C 23.6649112730611 9.38141983651859  24.1321118315237 9.22834200446118  24.4907708461011 8.92218634034635  C 24.8494298606785 8.61603067623155  25.0287593679671 8.20860813860187  25.0287593679671 7.69991872745723  C 25.0287593679671 7.18180914203217  24.8494298606785 6.77203156083234  24.4907708461011 6.47058598385774  C 24.1321118315237 6.16914040688318  23.6507536803804 6.01841761839587  23.0466963926712 6.01841761839587  C 22.4520775000824 6.01841761839587  21.968359750159 6.17856058116363  21.595543142901 6.49884650669911  C 21.2227265356429 6.81913243223461  21.0363182320139 7.22419992629421  21.0363182320139 7.71404898887791  C 21.0363182320139 8.19447787718117  21.2180073380827 8.59248024053044  21.5813855502203 8.90805607892568  Z M 34.4120971835544 10.6814038872215  L 31.7929425376277 7.4455740218849  L 30.476286418324 8.68903702690509  L 30.476286418324 10.6814038872215  L 28 10.6814038872215  L 28 0.196749913074184  L 30.476286418324 0.196749913074184  L 30.476286418324 6.52710702954048  L 34.1431029226214 3.13584428857641  L 36.2667418247242 3.13584428857641  L 33.1095986569314 6.30102284680953  L 36.5640512710185 10.6814038872215  L 34.4120971835544 10.6814038872215  Z " fill-rule="nonzero" fill="#ffffff" stroke="none" transform="matrix(1 0 0 1 215 746 )" />
  </g>
</svg>