<?xml version="1.0" encoding="utf-8"?>
<svg version="1.1" xmlns:xlink="http://www.w3.org/1999/xlink" width="41px" height="11px" xmlns="http://www.w3.org/2000/svg">
  <g transform="matrix(1 0 0 1 -213 -658 )">
    <path d="M 7.73130928720113 2.097227256412  L 5.32076573924602 4.95154006339011  C 6.23771759866428 5.06458215475558  6.93724788316887 5.37544790601062  7.41935659275989 5.88413731715523  C 7.90146530235091 6.39282672829984  8.14251965714642 7.02868849223061  8.14251965714642 7.79172260894753  C 8.14251965714642 8.36635324005534  7.99599642187854 8.88917291262063  7.70294995134283 9.36018162664342  C 7.40990348080713 9.83119034066621  6.96797049701535 10.2056422683143  6.37715099996753 10.4835374095878  C 5.78633150291972 10.7614325508612  5.06553171652138 10.9003801214979  4.21475164077251 10.9003801214979  C 3.50576824431515 10.9003801214979  2.82278090572788 10.799113247983  2.16578962501068 10.5965795009532  C 1.50879834429353 10.3940457539234  0.948701461092212 10.1137955690799  0.485498975406713 9.75582894642256  L 1.27956037943897 8.32867254293351  C 1.63877863364405 8.6301181199081  2.07598506145944 8.86797752048961  2.59117966288512 9.04225074467804  C 3.10637426431084 9.21652396886647  3.63811181165387 9.30366058096069  4.18639230491421 9.30366058096069  C 4.83865702965503 9.30366058096069  5.35148835309254 9.16942309746419  5.72488627522674 8.9009481304712  C 6.09828419736098 8.63247316347821  6.28498315842807 8.26744141011055  6.28498315842807 7.80585287036821  C 6.28498315842807 7.34426433062589  6.10773730931374 6.98394266439845  5.75324561108504 6.72488787168591  C 5.39875391285636 6.46583307897338  4.85756325356057 6.33630568261711  4.12967363319763 6.33630568261711  L 3.2221748857322 6.33630568261711  L 3.2221748857322 5.07871241617626  L 5.47674208646666 2.40809300766704  L 0.96760768499773 2.40809300766704  L 0.96760768499773 0.86789451281252  L 7.73130928720113 0.86789451281252  L 7.73130928720113 2.097227256412  Z M 12.7194013609435 4.9162144098384  C 13.1731507346762 4.74194118564997  13.6836187801255 4.65480457355575  14.2508054972915 4.65480457355575  C 14.9030702220322 4.65480457355575  15.4891631631037 4.77962188277179  16.0090843205057 5.02925650120387  C 16.5290054779078 5.27889111963594  16.9354892918767 5.63450269872315  17.2285357624125 6.09609123846549  C 17.5215822329481 6.55767977820782  17.668105468216 7.08991962505357  17.668105468216 7.69281077900274  C 17.668105468216 8.33338263007374  17.507402565019 8.89623804333097  17.185996758625 9.38137701877444  C 16.864590952231 9.86651599421792  16.4297478024038 10.240967921866  15.8814673091434 10.5047328017188  C 15.3331868158831 10.7684976815716  14.7187345389533 10.9003801214979  14.0381104783542 10.9003801214979  C 12.6768623571561 10.9003801214979  11.6204770964346 10.4764722788774  10.8689546961897 9.62865659363641  C 10.1174322959449 8.78084090839539  9.74167109582254 7.56563842621659  9.74167109582252 5.98304914710002  C 9.74167109582254 4.87146858200624  9.94491300280698 3.92238602325031  10.3513968167759 3.13580147083226  C 10.7578806307448 2.3492169184142  11.3274306258989 1.75103585160525  12.0600468022381 1.34125827040543  C 12.7926629785775 0.931480689205597  13.6410797763381 0.726591898605691  14.6052971955201 0.726591898605685  C 15.1157652409695 0.726591898605691  15.5955106725723 0.780757900718307  16.0445334903286 0.889089904943544  C 16.493556308085 0.997421909168792  16.8834971761366 1.15520982836642  17.2143560944833 1.36245366253645  L 16.5337320338842 2.74721928176346  C 16.0421702123404 2.42693335622796  15.4135382674815 2.26679039346021  14.6478361993076 2.26679039346021  C 13.6930718920783 2.26679039346021  12.9462760478099 2.55881579615434  12.4074486665022 3.1428666015426  C 11.8686212851946 3.72691740693085  11.5992075945408 4.57002300503165  11.5992075945408 5.67218339584498  L 11.5992075945408 5.68631365726566  C 11.8922540650766 5.34718738316925  12.2656519872108 5.09048763402683  12.7194013609435 4.9162144098384  Z M 12.428718168396 8.9857296989953  C 12.7926629785775 9.30130553739057  13.2960411900622 9.45909345658821  13.9388528028502 9.45909345658821  C 14.5154926319689 9.45909345658821  14.9834216736307 9.3060156245308  15.3426399278358 8.99985996041598  C 15.7018581820409 8.69370429630117  15.8814673091434 8.28628175867146  15.8814673091434 7.77759234752684  C 15.8814673091434 7.25948276210179  15.7018581820409 6.84970518090195  15.3426399278358 6.54825960392736  C 14.9834216736307 6.24681402695278  14.5013129640398 6.09609123846549  13.8963137990628 6.09609123846549  C 13.3007677460386 6.09609123846549  12.8162957584594 6.25623420123323  12.4428978363251 6.57652012676873  C 12.0694999141909 6.89680605230423  11.8828009531238 7.30187354636383  11.8828009531238 7.79172260894753  C 11.8828009531238 8.27215149725077  12.0647733582145 8.67015386060003  12.428718168396 8.9857296989953  Z M 20.9546373904607 10.5259281938498  C 20.7277627035943 10.7473022894405  20.4536224569642 10.8579893372359  20.1322166505701 10.8579893372359  C 19.8108108441761 10.8579893372359  19.536670597546 10.7473022894405  19.3097959106796 10.5259281938498  C 19.0829212238132 10.3045540982591  18.96948388038 10.0243039134156  18.96948388038 9.68517763931914  C 18.96948388038 9.33663119094228  19.080557945825 9.05402596252861  19.302706076715 8.83736195407812  C 19.524854207605 8.62069794562764  19.8013577322234 8.5123659414024  20.1322166505701 8.5123659414024  C 20.4630755689169 8.5123659414024  20.7395790935353 8.62069794562764  20.9617272244253 8.83736195407812  C 21.1838753553153 9.05402596252861  21.2949494207602 9.33663119094228  21.2949494207602 9.68517763931914  C 21.2949494207602 10.0243039134156  21.181512077327 10.3045540982591  20.9546373904607 10.5259281938498  Z M 24.3829659919968 1.12223921838483  C 24.9312464852572 0.85847433853207  25.545698762187 0.726591898605691  26.226322822786 0.726591898605685  C 27.5875709439842 0.726591898605691  28.6439562047057 1.1504997412262  29.3954786049505 1.99831542646722  C 30.1470010051953 2.84613111170824  30.5227622053177 4.06133359388704  30.5227622053177 5.64392287300361  C 30.5227622053177 6.75550343809739  30.3195202983333 7.70458599685331  29.9130364843644 8.49117054927137  C 29.5065526703955 9.27775510168943  28.9370026752414 9.87593616849837  28.2043864989021 10.2857137496982  C 27.4717703225628 10.695491330898  26.6233535248021 10.9003801214979  25.6591361056201 10.9003801214979  C 25.1486680601708 10.9003801214979  24.668922628568 10.8462141193853  24.2198998108116 10.7378821151601  C 23.7708769930553 10.6295501109348  23.3809361250037 10.4717621917372  23.050077206657 10.2645183575672  L 23.730701267256 8.87975273834017  C 24.2222630887998 9.20003866387567  24.8508950336587 9.36018162664343  25.6165971018327 9.36018162664342  C 26.5713614090619 9.36018162664343  27.3181572533304 9.06815622394929  27.856984634638 8.48410541856103  C 28.3958120159456 7.90005461317277  28.6652257065994 7.05694901507198  28.6652257065994 5.95478862425865  L 28.6652257065994 5.94065836283797  C 28.3721792360637 6.27978463693438  27.9987813139295 6.5364843860768  27.5450319401967 6.71075761026523  C 27.091282566464 6.88503083445366  26.5808145210148 6.97216744654788  26.0136278038488 6.97216744654787  C 25.361363079108 6.97216744654788  24.7752701380366 6.84735013733184  24.2553489806345 6.59771551889976  C 23.7354278232324 6.34808090046768  23.3289440092635 5.99246932138048  23.0358975387278 5.53088078163814  C 22.742851068192 5.06929224189581  22.5963278329242 4.53705239505005  22.5963278329242 3.93416124110088  C 22.5963278329242 3.29358939002989  22.7570307361212 2.73073397677266  23.0784365425153 2.24559500132918  C 23.3998423489093 1.7604560258857  23.8346854987365 1.38600409823759  24.3829659919968 1.12223921838483  Z M 24.9217933733044 5.07871241617626  C 25.2810116275095 5.38015799315085  25.7631203371006 5.53088078163814  26.3681195020775 5.53088078163814  C 26.9636655551017 5.53088078163814  27.4481375426809 5.37073781887039  27.8215354648151 5.0504518933349  C 28.1949333869494 4.7301659677994  28.3816323480165 4.3250984737398  28.3816323480165 3.8352494111561  C 28.3816323480165 3.35482052285285  28.1996599429257 2.95681815950359  27.8357151327443 2.64124232110832  C 27.4717703225628 2.32566648271305  26.9683921110781 2.16787856351542  26.32558049829 2.16787856351542  C 25.7489406691714 2.16787856351542  25.2810116275095 2.32095639557282  24.9217933733044 2.62711205968764  C 24.5625751190994 2.93326772380245  24.3829659919969 3.34069026143217  24.3829659919968 3.84937967257678  C 24.3829659919969 4.36748925800185  24.5625751190994 4.77726683920168  24.9217933733044 5.07871241617626  Z M 38.4176862045354 10.7590775072911  L 35.7944476376431 7.52324764195454  L 34.4757385202323 8.7667106469747  L 34.4757385202323 10.7590775072911  L 32 10.7590775072911  L 32 0.274423533143803  L 34.4757385202323 0.274423533143803  L 34.4757385202323 6.6047806496101  L 38.1482725138816 3.21351790864601  L 40.2752227032537 3.21351790864601  L 37.1131567550538 6.37869646687916  L 40.5729957297658 10.7590775072911  L 38.4176862045354 10.7590775072911  Z " fill-rule="nonzero" fill="#ffffff" stroke="none" transform="matrix(1 0 0 1 213 658 )" />
  </g>
</svg>