<?xml version="1.0" encoding="utf-8"?>
<svg version="1.1" xmlns:xlink="http://www.w3.org/1999/xlink" width="28px" height="11px" xmlns="http://www.w3.org/2000/svg">
  <g transform="matrix(1 0 0 1 -219 -833 )">
    <path d="M 3.18370003071998 9.05010127321961  L 7.93146786806969 9.05010127321961  L 7.93146786806969 10.6044300294948  L 0.50768543148647 10.6044300294948  L 0.50768543148647 9.37509728589534  L 4.50732015507201 5.64470827083484  C 4.95811831336582 5.22080042821437  5.26264685646859 4.85105858770649  5.42090578438022 4.53548274931117  C 5.57916471229191 4.21990691091589  5.65829417624773 3.90668611609076  5.65829417624771 3.59582036483568  C 5.65829417624773 3.13423182509341  5.50003524833608 2.78097528957633  5.18351739251273 2.53605075828445  C 4.86699953668942 2.29112622699257  4.4018142031309 2.16866396134667  3.78796139183721 2.16866396134667  C 2.76167622295557 2.16866396134667  1.97517730848549 2.5125003225833  1.42846464842705 3.2001730450566  L 0.119231699339684 2.21105474560872  C 0.512481156574745 1.69294516018365  1.04240877882437 1.29023270969418  1.70901456608863 1.00291739414028  C 2.37562035335288 0.71560207858637  3.12135560457295 0.571944420809406  3.94622031974884 0.571944420809406  C 5.03964563986579 0.571944420809406  5.91246760592401 0.826289126381736  6.56468621792355 1.33497853752633  C 7.2169048299231 1.84366794867095  7.54301413592288 2.53605075828449  7.54301413592288 3.41212696636684  C 7.54301413592288 3.94907690035285  7.42791673380532 4.45305622435722  7.19772192957018 4.92406493837999  C 6.96752712533505 5.39507365240276  6.5263204172177 5.93202358638877  5.87410180521813 6.53491474033793  L 3.18370003071998 9.05010127321961  Z M 16.8914809079165 4.54254788002152  C 16.6708775538579 4.89109432839839  16.3543596980346 5.17840964395232  15.9419273404466 5.40449382668325  C 16.4694571001522 5.63999818369464  16.8746958701077 5.95792906566002  17.1576436503134 6.35828647257935  C 17.4405914305191 6.75864387949872  17.582065320622 7.22729754995139  17.582065320622 7.7642474839374  C 17.582065320622 8.3671386378866  17.4118170799898 8.89466839759212  17.0713205987252 9.34683676305399  C 16.7308241174608 9.79900512851586  16.2488537460935 10.1451965333226  15.6254094846233 10.3854109774742  C 15.0019652231531 10.6256254216259  14.2778107348301 10.7457326437017  13.4529460196542 10.7457326437017  C 12.6280813044783 10.7457326437017  11.9063246786993 10.6256254216259  11.2876761423174 10.3854109774742  C 10.6690276059355 10.1451965333226  10.1918529596564 9.79900512851586  9.85615220348013 9.34683676305399  C 9.52045144730391 8.89466839759212  9.35260106921578 8.3671386378866  9.35260106921578 7.7642474839374  C 9.35260106921578 7.22729754995139  9.49167709677451 6.75864387949872  9.76982915189196 6.35828647257935  C 10.0479812070095 5.95792906566002  10.4460263893327 5.63999818369464  10.9639646988617 5.40449382668325  C 10.5611237914502 5.18782981823272  10.2517995232593 4.90286954624899  10.0359918942888 4.54961301073186  C 9.8201842653184 4.19635647521479  9.71228045083319 3.78893393758507  9.71228045083319 3.3273453978427  C 9.71228045083319 2.77155511529583  9.86814151620074 2.28641613985232  10.1798636469358 1.8719284715123  C 10.4915857776709 1.45744080317227  10.9303946232441 1.13715487763677  11.4962901836555 0.911070694905809  C 12.0621857440669 0.684986512174874  12.7144043560665 0.571944420809406  13.4529460196542 0.571944420809406  C 14.2010791334184 0.571944420809406  14.8580934705061 0.684986512174874  15.4239890309175 0.911070694905809  C 15.9898845913289 1.13715487763677  16.4310912994463 1.45744080317227  16.7476091552696 1.8719284715123  C 17.0641270110929 2.28641613985232  17.2223859390046 2.77155511529583  17.2223859390046 3.3273453978427  C 17.2223859390046 3.78893393758507  17.1120842619752 4.19400143164469  16.8914809079165 4.54254788002152  Z M 14.855695607962 2.38061788265691  C 14.5056076765211 2.13569335136508  14.0380244804185 2.01323108571914  13.4529460196542 2.01323108571914  C 12.8678675588898 2.01323108571914  12.4050800878755 2.13569335136508  12.064583606611 2.38061788265691  C 11.7240871253465 2.62554241394875  11.5538388847143 2.96937877518537  11.5538388847143 3.41212696636684  C 11.5538388847143 3.83603480898736  11.7240871253465 4.17280603951364  12.064583606611 4.42244065794568  C 12.4050800878755 4.6720752763778  12.8678675588898 4.79689258559385  13.4529460196542 4.79689258559385  C 14.0476159305949 4.79689258559385  14.5175969892417 4.6720752763778  14.8628891955944 4.42244065794568  C 15.2081814019471 4.17280603951364  15.3808275051235 3.83603480898736  15.3808275051235 3.41212696636684  C 15.3808275051235 2.96937877518537  15.205783539403 2.62554241394875  14.855695607962 2.38061788265691  Z M 11.8271952147435 8.88053813617142  C 12.2204446719786 9.16314336458506  12.7623616069488 9.3044459787919  13.4529460196542 9.3044459787919  C 14.1435304323596 9.3044459787919  14.690243092418 9.16314336458506  15.0930839998296 8.88053813617142  C 15.495924907241 8.59793290775779  15.6973453609467 8.20699567511882  15.6973453609467 7.70772643825466  C 15.6973453609467 7.21787737567098  15.495924907241 6.83165023017231  15.0930839998296 6.54904500175858  C 14.690243092418 6.26643977334495  14.1435304323596 6.12513715913811  13.4529460196542 6.12513715913811  C 12.7623616069488 6.12513715913811  12.2204446719786 6.26643977334495  11.8271952147435 6.54904500175858  C 11.4339457575085 6.83165023017231  11.237321028891 7.21787737567098  11.237321028891 7.70772643825466  C 11.237321028891 8.20699567511882  11.4339457575085 8.59793290775779  11.8271952147435 8.88053813617142  Z M 25.5565568548372 10.1451965333226  C 24.9187254181023 10.545553940242  24.1969687923234 10.7457326437017  23.3912869775004 10.7457326437017  C 22.5856051626774 10.7457326437017  21.8662463994426 10.545553940242  21.2332106877959 10.1451965333226  C 20.6001749761493 9.74483912640322  20.1014195669732 9.160788321015  19.7369444602676 8.39304411715785  C 19.3724693535619 7.62529991330071  19.1902318002091 6.71389805166662  19.1902318002091 5.65883853225554  C 19.1902318002091 4.60377901284451  19.3724693535619 3.69237715121042  19.7369444602676 2.92463294735327  C 20.1014195669732 2.15688874349612  20.6001749761493 1.57283793810782  21.2332106877959 1.17248053118847  C 21.8662463994426 0.772123124269092  22.5856051626774 0.571944420809406  23.3912869775004 0.571944420809406  C 24.1969687923234 0.571944420809406  24.9187254181023 0.772123124269092  25.5565568548372 1.17248053118847  C 26.194388291572 1.57283793810782  26.6955415632923 2.15688874349612  27.0600166699979 2.92463294735327  C 27.4244917767036 3.69237715121042  27.6067293300564 4.60377901284451  27.6067293300564 5.65883853225554  C 27.6067293300564 6.71389805166662  27.4244917767036 7.62529991330071  27.0600166699979 8.39304411715785  C 26.6955415632923 9.160788321015  26.194388291572 9.74483912640322  25.5565568548372 10.1451965333226  Z M 21.7007938838986 8.27293689508202  C 22.1180219665748 8.85698770047028  22.6815196644421 9.14901310316441  23.3912869775004 9.14901310316441  C 24.1106457407352 9.14901310316441  24.6789391636907 8.85698770047028  25.0961672463668 8.27293689508202  C 25.5133953290431 7.6888860896938  25.7220093703812 6.81751996875161  25.7220093703811 5.65883853225554  C 25.7220093703812 4.50015709575947  25.5133953290431 3.62879097481732  25.0961672463668 3.04474016942902  C 24.6789391636907 2.4606893640408  24.1106457407352 2.16866396134667  23.3912869775004 2.16866396134667  C 22.6815196644421 2.16866396134667  22.1180219665748 2.4606893640408  21.7007938838986 3.04474016942902  C 21.2835658012224 3.62879097481732  21.0749517598843 4.50015709575947  21.0749517598843 5.65883853225554  C 21.0749517598843 6.81751996875161  21.2835658012224 7.6888860896938  21.7007938838986 8.27293689508202  Z " fill-rule="nonzero" fill="#ffffff" stroke="none" transform="matrix(1 0 0 1 219 833 )" />
  </g>
</svg>