<?xml version="1.0" encoding="utf-8"?>
<svg version="1.1" xmlns:xlink="http://www.w3.org/1999/xlink" width="40px" height="11px" xmlns="http://www.w3.org/2000/svg">
  <g transform="matrix(1 0 0 1 -214 -702 )">
    <path d="M 3.12616414488489 9.16626182215257  L 7.78083849522775 9.16626182215257  L 7.78083849522775 10.7205905784278  L 0.502620420146179 10.7205905784278  L 0.502620420146179 9.49125783482829  L 4.42383093346534 5.76086881976779  C 4.86578991218476 5.33696097714729  5.1643473073835 4.9672191366394  5.31950311906162 4.65164329824412  C 5.47465893073971 4.33606745984887  5.55223683657876 4.02284666502371  5.55223683657876 3.71198091376866  C 5.55223683657876 3.25039237402633  5.39708102490065 2.89713583850923  5.08676940154445 2.65221130721738  C 4.77645777818827 2.40728677592553  4.32039372567994 2.28482451027961  3.71857724401943 2.28482451027961  C 2.71241531374331 2.28482451027961  1.94133794661583 2.62866087151626  1.40534514263692 3.31633359398952  L 0.121783427845408 2.32721529454165  C 0.507322111409171 1.80910570911659  1.02685899596765 1.40639325862711  1.68039408152082 1.1190779430732  C 2.33392916707404 0.831762627519314  3.06504215846626 0.68810496974235  3.87373305569752 0.68810496974235  C 4.94571866365529 0.68810496974235  5.80142647351631 0.942449675314669  6.44085648528055 1.45113908645927  C 7.08028649704486 1.95982849760389  7.40000150292698 2.65221130721738  7.40000150292696 3.52828751529977  C 7.40000150292698 4.06523744928575  7.28716091261564 4.56921677329014  7.06147973199294 5.04022548731293  C 6.83579855137028 5.51123420133573  6.40324295517679 6.0481841353217  5.76381294341251 6.65107528927086  L 3.12616414488489 9.16626182215257  Z M 11.3744978505598 4.65870842895446  L 12.3195377944173 4.65870842895446  C 13.7112384082572 4.65870842895446  14.7409087948482 4.92953843951757  15.4085489541903 5.47119846064378  C 16.0761891135324 6.01285848176999  16.4100091932035 6.74998711921567  16.4100091932034 7.68258437298078  C 16.4100091932035 8.2760553526495  16.2642567640513 8.81300528663548  15.972751905747 9.29343417493871  C 15.6812470474427 9.77386306324197  15.2439897599863 10.1553801216004  14.6609800433777 10.4379853500141  C 14.0779703267691 10.7205905784278  13.3586115635343 10.8618931926346  12.5029037536732 10.8618931926346  C 11.7976500642273 10.8618931926346  11.1159048310963 10.7606263191197  10.4576680542802 10.5580925720899  C 9.79943127746399 10.3555588250601  9.24463170843323 10.0753086402165  8.79326934718785 9.71734201755923  L 9.56904840557832 8.29018561407018  C 9.93578032409018 8.59163119104476  10.3753884571781 8.82949059162627  10.8878728048421 9.00376381581469  C 11.4003571525062 9.17803704000313  11.9292974195906 9.26517365209735  12.4746936060954 9.26517365209734  C 13.1235270003856 9.26517365209735  13.6336605024181 9.13093616860086  14.005094112193 8.86246120160786  C 14.3765277219678 8.59398623461488  14.5622445268552 8.22424439410699  14.5622445268552 7.7532356800842  C 14.5622445268552 7.24454626893959  14.3624226481789 6.86067416701101  13.9627788908262 6.60161937429848  C 13.5631351334735 6.34256458158595  12.879039054711 6.21303718522969  11.9104906545387 6.21303718522968  L 9.52673318421159 6.21303718522968  L 10.0345158406126 0.82940758394919  L 15.8317011678578 0.82940758394919  L 15.8317011678578 2.36960607880371  L 11.5860739573936 2.36960607880371  L 11.3744978505598 4.65870842895446  Z M 19.7779873679128 10.4874412649865  C 19.5523061872902 10.7088153605772  19.2796080940377 10.8195024083725  18.9598930881556 10.8195024083725  C 18.6401780822734 10.8195024083725  18.367479989021 10.7088153605772  18.1417988083983 10.4874412649865  C 17.9161176277757 10.2660671693958  17.8032770374643 9.98581698455222  17.8032770374643 9.64669071045581  C 17.8032770374643 9.29814426207894  17.9137667821442 9.01553903366528  18.1347462715039 8.79887502521478  C 18.3557257608636 8.58221101676432  18.6307746997475 8.47387901253908  18.9598930881556 8.47387901253907  C 19.2890114765637 8.47387901253908  19.5640604154476 8.58221101676432  19.7850399048073 8.79887502521478  C 20.006019394167 9.01553903366528  20.1165091388468 9.29814426207894  20.1165091388468 9.64669071045581  C 20.1165091388468 9.98581698455222  20.0036685485355 10.2660671693958  19.7779873679128 10.4874412649865  Z M 23.1882807639889 1.08375228952149  C 23.7336769504937 0.81998740966874  24.3448968146802 0.68810496974235  25.0219403565482 0.68810496974235  C 26.3760274402844 0.68810496974235  27.4268554375588 1.11201281236287  28.1744243483714 1.95982849760388  C 28.921993259184 2.80764418284491  29.2957777145903 4.02284666502371  29.2957777145903 5.60543594414027  C 29.2957777145903 6.71701650923406  29.0936049902825 7.66609906798998  28.6892595416669 8.45268362040803  C 28.2849140930512 9.2392681728261  27.718360295863 9.83744923963505  26.9895981501023 10.2472268208349  C 26.2608360043415 10.6570044020347  25.4168824226379 10.8618931926346  24.4577374049915 10.8618931926346  C 23.9499547485905 10.8618931926346  23.4727330853988 10.807727190522  23.0260724154164 10.6993951862968  C 22.579411745434 10.5910631820715  22.1915222162387 10.4332752628739  21.8624038278306 10.2260314287038  L 22.5394473696987 8.84126580947684  C 23.0284232610478 9.16155173501235  23.6537481990232 9.3216946977801  24.4154221836248 9.32169469778009  C 25.3651638187452 9.3216946977801  26.1080310382949 9.02966929508597  26.6440238422738 8.44561848969769  C 27.1800166462527 7.86156768430944  27.4480130482421 7.01846208620865  27.4480130482421 5.91630169539531  L 27.4480130482421 5.90217143397464  C 27.1565081899378 6.24129770807104  26.7850745801629 6.49799745721346  26.3337122189176 6.67227068140189  C 25.8823498576722 6.84654390559033  25.3745672012712 6.93368051768453  24.8103642497145 6.93368051768453  C 24.1615308554243 6.93368051768453  23.5785211388156 6.8088632084685  23.0613350998886 6.55922859003643  C 22.5441490609617 6.30959397160435  22.139803612346 5.95398239251715  21.8482987540417 5.4923938527748  C 21.5567938957374 5.03080531303247  21.4110414665853 4.49856546618672  21.4110414665853 3.89567431223755  C 21.4110414665853 3.25510246116655  21.5708989695263 2.69224704790933  21.8906139754085 2.20710807246584  C 22.2103289812907 1.72196909702238  22.6428845774841 1.34751716937427  23.1882807639889 1.08375228952149  Z M 23.7242735679678 5.04022548731293  C 24.0816021039537 5.34167106428751  24.561174612777 5.4923938527748  25.1629910944374 5.4923938527748  C 25.755404193572 5.4923938527748  26.2373275480267 5.33225089000705  26.6087611578015 5.01196496447156  C 26.9801947675763 4.69167903893607  27.1659115724637 4.28661154487647  27.1659115724637 3.79676248229277  C 27.1659115724637 3.31633359398952  26.9848964588393 2.91833123064027  26.6228662315904 2.60275539224499  C 26.2608360043415 2.28717955384973  25.7601058848349 2.12939163465209  25.1206758730707 2.12939163465209  C 24.547069538988 2.12939163465209  24.0816021039537 2.2824694667095  23.7242735679678 2.58862513082431  C 23.3669450319819 2.89478079493913  23.188280763989 3.30220333256884  23.1882807639889 3.81089274371344  C 23.188280763989 4.32900232913851  23.3669450319819 4.73877991033834  23.7242735679678 5.04022548731293  Z M 37.1491693541755 10.7205905784278  L 34.5397307032258 7.48476071309121  L 33.2279588408564 8.72822371811136  L 33.2279588408564 10.7205905784278  L 31 10.7205905784278  L 31 0.235936604280468  L 33.2279588408564 0.235936604280468  L 33.2279588408564 6.56629372074677  L 36.8811729521861 3.17503097978267  L 38.9969340205237 3.17503097978267  L 35.8515025655951 6.34020953801582  L 39.293140570091 10.7205905784278  L 37.1491693541755 10.7205905784278  Z " fill-rule="nonzero" fill="#ffffff" stroke="none" transform="matrix(1 0 0 1 214 702 )" />
  </g>
</svg>