<?xml version="1.0" encoding="utf-8"?>
<svg version="1.1" xmlns:xlink="http://www.w3.org/1999/xlink" width="51px" height="13px" xmlns="http://www.w3.org/2000/svg">
  <g transform="matrix(1 0 0 1 -50 -701 )">
    <path d="M 9.76149303977313 2.5405650912983  L 7.91199860312583 2.5405650912983  L 7.91199860312583 3.47897858903203  L 9.76149303977313 3.47897858903203  L 9.76149303977313 2.5405650912983  Z M 7.91199860312583 5.2048151774247  L 9.76149303977313 5.2048151774247  L 9.76149303977313 4.24042483546304  L 7.91199860312583 4.24042483546304  L 7.91199860312583 5.2048151774247  Z M 4.35983730919122 5.2048151774247  L 7.00555583743462 5.2048151774247  L 7.00555583743462 4.24042483546304  L 3.5636759309232 4.24042483546304  L 3.5636759309232 3.47897858903203  L 7.00555583743462 3.47897858903203  L 7.00555583743462 2.5405650912983  L 4.44558210700434 2.5405650912983  L 4.44558210700434 1.77976826597298  L 7.00555583743462 1.77976826597298  L 7.00555583743462 0.841111235324609  L 7.91199860312583 0.841111235324609  L 7.91199860312583 1.77976826597298  L 10.6679358054643 1.77976826597298  L 10.6679358054643 3.47897858903203  L 11.6110658680805 3.47897858903203  L 11.6110658680805 4.24042483546304  L 10.6679358054643 4.24042483546304  L 10.6679358054643 5.9906147153194  L 7.91199860312583 5.9906147153194  L 7.91199860312583 6.94201663516709  L 10.7903835785345 6.94201663516709  L 10.7903835785345 7.69047445948414  L 7.91199860312583 7.69047445948414  L 7.91199860312583 8.71818335925136  L 11.3293262416951 8.71818335925136  L 11.3293262416951 9.50398289714605  L 7.91199860312583 9.50398289714605  L 7.91199860312583 10.887249852283  L 7.00555583743462 10.887249852283  L 7.00555583743462 9.50398289714605  L 3.7229050709104 9.50398289714605  L 3.7229050709104 8.71818335925136  L 7.00555583743462 8.71818335925136  L 7.00555583743462 7.69047445948414  L 4.29859774432415 7.69047445948414  L 4.29859774432415 6.94201663516709  L 7.00555583743462 6.94201663516709  L 7.00555583743462 5.9906147153194  L 4.35983730919122 5.9906147153194  L 4.35983730919122 5.2048151774247  Z M 3.14721239749666 5.24215689100234  L 3.31870199312289 5.21699182315655  L 3.85764465628358 5.35661736088163  C 3.67799187578601 7.14090184878714  3.33502836286557 8.64187637933183  2.82875411752226 9.85954095251576  C 3.66982869091467 10.6880940465356  4.92736157162295 11.1616302694404  6.6013527596471 11.2801496212303  C 6.97696378594223 11.3055852812035  7.38933527471176 11.3183031111901  7.83846722595569 11.3183031111901  C 9.96972741954174 11.3183031111901  11.2558471256317 11.3139736371521  11.6968263442257 11.3053146890761  C 11.5089999266354 11.6013424764235  11.3783471598086 11.9184764497061  11.3048680437452 12.2567166089238  L 7.8140090280057 12.2567166089238  C 5.86235980603184 12.2567166089238  4.37617151809991 11.9650182956144  3.35544416420993 11.3816216689956  C 3.01248065128949 11.178677573465  2.69809612458475 10.9462389360506  2.41229058409572 10.6843057567523  C 1.9550059002018 11.5041999026962  1.40790005216976 12.1509150871205  0.770973039999618 12.6244513100254  C 0.599488670484061 12.3792948426243  0.387177924390455 12.1679623911451  0.1340408017188 11.9904539555876  C 0.109540794883432 11.9736772436904  0.0891249935390706 11.9609594137038  0.0727933976857163 11.9523004656279  C 0.758720423526597 11.4619875308258  1.330326278394 10.7938955683389  1.78761096228792 9.94802457816712  C 1.32215786741198 9.313756631602  0.930199566931481 8.46815623355761  0.611736060846408 7.41122338403397  L 1.33440525777433 7.13197230858378  C 1.55488441484995 7.89341855501479  1.83660574984798 8.5363454496559  2.17956926276842 9.06075299250711  C 2.50620117983551 8.23165871423257  2.74300931970914 7.24643277846307  2.88999368238933 6.10507518519868  L 1.44464744936748 6.10507518519868  L 1.18742089509414 6.61243542402531  L 0.330019951959051 6.35834941642093  C 0.950620594386515 5.14934379131298  1.57122123681398 3.83886611843973  2.19182187924144 2.42691639780113  L 0.170782972805842 2.42691639780113  L 0.170782972805842 1.56407928124301  L 2.65726452189603 1.56407928124301  L 2.80424888457622 1.51334325736035  L 3.44118112285704 1.716287352891  C 3.17171240433203 2.37566624887645  2.64093815215335 3.55095609491357  1.848858366321 5.24215689100234  L 3.14721239749666 5.24215689100234  Z M 21.7897525815986 2.10951183239119  L 19.5727580424208 2.10951183239119  L 19.5727580424208 2.65502556117758  C 19.5564003160141 4.26180161352561  18.8255548689381 5.43292434080116  17.380221701193 6.16839374300424  C 17.2413639406094 5.93189622367919  17.0535375230191 5.70784594221335  16.8167424484222 5.49624289860672  C 16.8004369831222 5.47946618670954  16.7881817535938 5.46674835672294  16.7799767598371 5.45808940864695  C 17.9722093876854 4.90012844200136  18.6091677565195 4.06291639990557  18.6908518663397 2.94645328235961  C 18.6990045989897 2.83659287864568  18.7030809653147 2.73106194896974  18.7030809653147 2.62986049333178  L 18.7030809653147 1.20892711406437  L 22.6593512670447 1.20892711406437  L 22.6593512670447 4.21525976761724  C 22.7002194525081 4.51128755496463  22.7778010654499 4.67174868649753  22.89209610587 4.69664316221594  L 23.7495440840011 4.69664316221594  C 23.9863391585981 4.69664316221596  24.1863946751633 4.67553697628076  24.3497106336969 4.63332460441038  C 24.3660683601036 4.94612910365496  24.3946551854853 5.22538017910515  24.435471109842 5.47107783076093  C 24.2966133492585 5.51329020263131  24.0720473736365 5.53439638856649  23.7617731829761 5.53439638856648  L 22.8308722193349 5.53439638856648  C 22.3327716110843 5.53439638856649  22.0224712898706 5.36933519086822  21.8999712556937 5.03921279547169  C 21.8264921396303 4.84492764801701  21.7897525815986 4.56188828278361  21.7897525815986 4.19009469977144  L 21.7897525815986 2.10951183239119  Z M 16.6085341992069 2.88313472455403  C 16.6166869318569 2.89179367263001  16.6248657950603 2.90018202857861  16.633070788817 2.90829979239983  L 16.0083676495112 3.59343905891133  C 15.5673884309173 3.00138348421657  14.9426852916114 2.33762099576765  14.1342582315937 1.60215159356456  C 14.1179527662937 1.58526664481641  14.1057236673187 1.57257587404257  14.0975709346687 1.56407928124301  L 14.6977374843645 0.980655595411476  C 15.5224700096822 1.68235510011828  16.159402247963 2.31651480983246  16.6085341992069 2.88313472455403  Z M 15.7878519096609 4.7989269863634  L 15.7878519096609 10.3669011913424  L 17.1719350603176 9.33919229157516  C 17.2699768965445 9.64387902699852  17.3843241980713 9.90608279842412  17.5149769648982 10.125803605852  C 15.8409491940993 11.4111162108794  14.9222773294331 12.1468562052099  14.7589613708996 12.3330235888433  C 14.6283086040727 12.02833685342  14.4609162792142 11.7618036079564  14.2567843963239 11.5334238524526  C 14.5426003890343 11.3477976530739  14.7345031729496 11.0772055256997  14.8324927480697 10.72164747033  C 14.8651559397764 10.6036693027948  14.8814875356298 10.4854205431323  14.8814875356298 10.3669011913424  L 14.8814875356298 5.72435206198318  L 13.1299042824425 5.72435206198318  L 13.1299042824425 4.7989269863634  L 15.7878519096609 4.7989269863634  Z M 20.6751015666922 9.92285951032132  C 21.5243445510666 9.22094353191263  22.1735320188758 8.36262530388166  22.6226639701197 7.3479048262284  L 18.7153100642897 7.3479048262284  C 19.1725947481836 8.33718964390849  19.8258585823177 9.19550787193947  20.6751015666922 9.92285951032132  Z M 23.0636170581603 6.43465639634046  L 23.2228305198154 6.39650290638071  L 23.8107679705362 6.67575398183088  C 23.3453305539923 8.1975641061834  22.5410059908529 9.46177052527568  21.3977942811181 10.4683732391077  C 22.2797004571993 11.0604288138025  23.3412541876673 11.5001410207856  24.5824554725222 11.787509860057  C 24.3538131305753 12.0158896155608  24.16191034666 12.3032584548322  24.0067471207764 12.6496163778712  C 22.7083721851581 12.3113762186534  21.58967093448 11.7829097938916  20.6506433687422 11.0642171035857  C 19.7360740009544 11.7071439982268  18.6173466197229 12.22722206704  17.2944612250478 12.6244513100254  C 17.2046243825777 12.337082470754  17.0494872872475 12.0497136314826  16.8290499390573 11.7623447922112  C 17.9804143814421 11.491752664837  19.0133812865284 11.0604288138025  19.9279506543162 10.4683732391077  C 19.0541972108851 9.61438448511474  18.3560149555159 8.59533453342349  17.8334038882085 7.41122338403397  L 18.0049248404988 7.3479048262284  L 17.3679142105579 7.3479048262284  L 17.3679142105579 6.43465639634046  L 23.0636170581603 6.43465639634046  Z M 29.089975928048 3.28902291561534  C 29.1307918524047 3.33123528748572  29.1634550441114 3.36938877744549  29.1879655031681 3.40348338549463  L 28.5632623638623 4.15194120981168  C 28.1223354063751 3.6020980069873  27.4364083805342 2.99326572039534  26.5054812863397 2.32544435003581  C 26.4483076355762 2.28269079391069  26.3952364816912 2.24453730395092  26.3462678246845 2.21098388015652  L 26.9464343743802 1.53875185812078  C 27.8610037421681 2.13086155124102  28.5755175933907 2.71428523707255  29.089975928048 3.28902291561534  Z M 29.0286736498528 7.85526506505503  C 28.3836148094754 9.05615292634176  27.6242086675711 10.3076415154475  26.75045522414 11.6097308323721  L 25.978767722154 10.9627450558204  C 26.8443684329351 9.77917509068562  27.6405402634245 8.53201597561792  28.367283213622 7.22126771061727  L 29.0286736498528 7.85526506505503  Z M 33.5239650064037 9.3010388016154  L 31.3315070568359 9.3010388016154  L 31.3315070568359 11.0901939478136  L 33.5239650064037 11.0901939478136  L 33.5239650064037 9.3010388016154  Z M 31.3315070568359 5.8509891775943  L 33.5239650064037 5.8509891775943  L 33.5239650064037 4.16411785554352  L 31.3315070568359 4.16411785554352  L 31.3315070568359 5.8509891775943  Z M 31.3315070568359 8.45192070591515  L 33.5239650064037 8.45192070591515  L 33.5239650064037 6.72608411752248  L 31.3315070568359 6.72608411752248  L 31.3315070568359 8.45192070591515  Z M 34.4304077720949 11.0901939478136  L 37.4680846008188 11.0901939478136  L 37.4680846008188 11.9774655334737  L 31.3315070568359 11.9774655334737  L 31.3315070568359 12.5992862421796  L 30.4496008807548 12.5992862421796  L 30.4496008807548 5.06518963969962  C 30.106611237281 5.59771494637206  29.7350608989788 6.08802788117411  29.3349498658483 6.53612844410579  C 29.0246234140812 6.16433486109363  28.7918785752559 5.91484891965462  28.6367153493723 5.78767061978874  C 29.673784751337 4.72262000644388  30.5312065989148 3.27248973663279  31.2089808921057 1.43727981035545  C 31.2906650019258 1.20051169890303  31.3682466148676 0.967964824637633  31.441725730931 0.739639187559283  L 32.3480901049621 0.993319306972593  C 32.029610920545 1.90683832898792  31.7193105993313 2.67640233924015  31.4171891413209 3.3020113377293  L 33.6954859586939 3.3020113377293  C 33.9976074167043 2.56600075127146  34.2507340871546 1.73300994636272  34.4548659700448 0.803038923003069  L 35.4103035232961 1.0821276431768  C 35.1163347979357 1.95321781961986  34.8386976684287 2.69317905113734  34.577392134775 3.3020113377293  L 37.1741158754584 3.3020113377293  L 37.1741158754584 4.16411785554352  L 34.4304077720949 4.16411785554352  L 34.4304077720949 5.8509891775943  L 36.880147150098 5.8509891775943  L 36.880147150098 6.72608411752248  L 34.4304077720949 6.72608411752248  L 34.4304077720949 8.45192070591515  L 36.880147150098 8.45192070591515  L 36.880147150098 9.3010388016154  L 34.4304077720949 9.3010388016154  L 34.4304077720949 11.0901939478136  Z M 44.1925995955224 9.11108312819871  L 44.1925995955224 7.81711157509527  L 41.534651968304 7.81711157509527  L 41.534651968304 9.11108312819871  L 44.1925995955224 9.11108312819871  Z M 45.1357296581386 9.11108312819871  L 47.756989988432 9.11108312819871  L 47.756989988432 7.81711157509527  L 45.1357296581386 7.81711157509527  L 45.1357296581386 9.11108312819871  Z M 45.1357296581386 9.90987108820736  L 45.1357296581386 11.3304797569219  L 47.756989988432 11.3304797569219  L 47.756989988432 9.90987108820736  L 45.1357296581386 9.90987108820736  Z M 41.534651968304 9.90987108820736  L 41.534651968304 11.3304797569219  L 44.1925995955224 11.3304797569219  L 44.1925995955224 9.90987108820736  L 41.534651968304 9.90987108820736  Z M 41.534651968304 12.5992862421796  L 40.5914435140277 12.5992862421796  L 40.5914435140277 6.95500505728105  L 48.7368857396332 6.95500505728105  L 48.7368857396332 12.5741211743338  L 47.756989988432 12.5741211743338  L 47.756989988432 12.1804096290043  L 41.534651968304 12.1804096290043  L 41.534651968304 12.5992862421796  Z M 46.985302486446 2.71834411898315  L 42.6737611811604 2.71834411898315  L 42.5512350164302 2.84498123459428  C 43.0738460837376 3.42837786121306  43.7802072023102 3.95278540406427  44.670318372148 4.41820386314789  C 45.6420613906993 3.89379632029669  46.4137227621319 3.32717640557511  46.985302486446 2.71834411898315  Z M 47.7446824977969 1.85542582478681  L 47.9039743511122 1.80509568909521  L 48.5041409008079 2.21098388015652  C 47.8590297993237 3.23436330588576  46.9077208735042 4.12217607580052  45.6502141233493 4.8744221899008  C 47.1118527563944 5.47513671267154  48.7450123417299 5.87263654778425  50.5496928793555 6.06692169523891  C 50.3292032700586 6.31207816263996  50.1413768524683 6.60810594998733  49.9862136265848 6.95500505728105  C 47.9284325490622 6.65031832185771  46.1564674642499 6.14295808303108  44.670318372148 5.43292434080115  C 43.1351483619327 6.21060611487462  41.3345964517387 6.78128491150682  39.2686626415661 7.14496073069774  C 39.1461626073893 6.76450819960961  39.0073309773591 6.45603317440303  38.8521677514755 6.21953565507797  C 40.5588064528744 5.99115589957415  42.1756344423564 5.54711421855307  43.7026517199217 4.88741061201476  C 43.0167246940809 4.46474570905628  42.4165320138317 3.98282113020281  41.9020736791744 3.44163687545439  C 41.3958203382738 3.87241954223413  40.7793221927247 4.29075497115465  40.0525792425271 4.69664316221594  C 39.8810582902368 4.41793327102053  39.6728239104682 4.18549463360608  39.4278761032213 3.99932724997263  C 40.8568515445597 3.28929350774273  41.9674000625878 2.35493889191959  42.7595216573056 1.19626340250326  C 42.8656639650757 1.03558579726846  42.9636535401958 0.874908192033666  43.0534903826659 0.714230586798847  L 44.0456152328422 0.904510970768395  C 43.9068097333654 1.16666062376853  43.6944989872718 1.48363224177467  43.4086829945614 1.85542582478681  L 47.7446824977969 1.85542582478681  Z " fill-rule="nonzero" fill="#888888" stroke="none" transform="matrix(1 0 0 1 50 701 )" />
  </g>
</svg>