<?xml version="1.0" encoding="utf-8"?>
<svg version="1.1" xmlns:xlink="http://www.w3.org/1999/xlink" width="22px" height="9px" xmlns="http://www.w3.org/2000/svg">
  <g transform="matrix(1 0 0 1 -146 -767 )">
    <path d="M 4.46341165857335 8.38262585324691  C 4.03793378690609 8.65946998334033  3.54625302376787 8.79789204838704  2.98836936915865 8.79789204838701  C 2.01809141827172 8.79080745450669  1.22077833403426 8.43794018238961  0.596430116446255 7.73929023203578  L 1.06508378689895 7.09513715768462  C 1.61616398230561 7.68370341851311  2.23397041219884 7.9812563614875  2.91850307657862 7.98779598660781  C 3.52976771877709 7.98779598660781  3.96832916583386 7.76653867003711  4.23418741774892 7.32402403689568  C 4.37339665989348 7.09568212644466  4.44300128096571 6.83627699667212  4.44300128096571 6.54580864757803  C 4.4299177055762 5.51472775360816  3.6527533274386 4.99564500968305  2.11150814655292 4.98856041580269  L 2.11150814655292 4.24140824580654  C 3.4800501322969 4.22778402680586  4.17086291286367 3.73322487708195  4.18394648825318 2.75773079663476  C 4.18394648825318 2.19750291132766  3.95132051782749 1.81684223244924  3.48606857697608 1.61574875999952  C 3.3133653818344 1.54653772747618  3.1241768817019 1.50866239865433  2.91850307657862 1.502122773534  C 2.36689953815637 1.52937121153534  1.85193001082479 1.78877634130789  1.37359449458388 2.28033816285165  L 0.865690097962605 1.65743887014152  C 1.51672880934525 1.03508454619143  2.21434504911455 0.723907384216372  2.95853881727055 0.723907384216349  C 3.80216775838693 0.723907384216372  4.41657245867889 0.993666920429423  4.80175291814641 1.53318599285552  C 5.02103364167479 1.85798737383121  5.13067400343901 2.23837556832963  5.13067400343899 2.67435057635073  C 5.13067400343901 3.49071377887022  4.76538057856354 4.08581966481904  4.03479372881262 4.45966823419711  C 3.95472224742878 4.49400126607875  3.87491243755268 4.52860678234046  3.79536429918436 4.56348478298214  L 3.79536429918436 4.60517489312414  C 4.43331943517747 4.7572211771715  4.89176791682632 5.09946155846806  5.17070974413092 5.63189603701382  C 5.31672244547798 5.9229093548679  5.38972879615152 6.23790129816314  5.38972879615152 6.57687186689955  C 5.38972879615152 7.36544166265771  5.08095641695878 7.96735965810683  4.46341165857335 8.38262585324691  Z M 10.2670240298575 8.47581551121143  C 9.94830813336875 8.69053320266183  9.58955649618808 8.79789204838704  9.19076911831544 8.79789204838701  C 8.26078857962823 8.79789204838704  7.59980635094957 8.2616427885211  7.20782243227948 7.18914426878916  C 6.96865467415903 6.53845156931771  6.84907079509879 5.72208836679819  6.84907079509879 4.74005466123067  C 6.84907079509879 2.7956061254566  7.28737057064778 1.55008002441631  8.16397012174574 1.00347635810987  C 8.469602442845 0.817097042180871  8.81186877503489 0.723907384216372  9.19076911831544 0.723907384216349  C 10.1411600346103 0.723907384216372  10.8055439928902 1.27378086308298  11.1839209931552 2.37352782081618  C 11.4032017166836 3.01005133252698  11.5128420784478 3.79889361266516  11.5128420784478 4.74005466123067  C 11.5128420784478 6.64254060248271  11.0975693955844 7.887794219143  10.2670240298575 8.47581551121143  Z M 8.83201748113475 7.96735965810681  C 8.95186303170277 8.00877728386882  9.07144691076302 8.02948609674981  9.19076911831544 8.02948609674981  C 9.86169486429013 8.02948609674981  10.2968545817456 7.44146480468136  10.4962482706819 6.26542222054447  C 10.5695162928632 5.82236261864304  10.6061503039539 5.31390676553846  10.6061503039539 4.74005466123067  C 10.6061503039539 2.80269071933695  10.2173064433773 1.7370043091054  9.43961872222414 1.54299543053599  C 9.35326712465329 1.522286617655  9.27031725668374 1.51193221121449  9.19076911831544 1.51193221121447  C 8.46018226856452 1.51193221121449  8.00853724611822 2.15881012936578  7.83583405097654 3.45256596566838  C 7.78245306338731 3.83349912892682  7.7557625695927 4.26266202744759  7.75576256959267 4.74005466123067  C 7.7557625695927 6.61474719572138  8.11451420677337 7.69051552801346  8.83201748113475 7.96735965810681  Z M 15.3437129524998 5.39319972012226  C 15.0914616189898 5.55941519193033  14.8091180620839 5.64252292783434  14.4966822817821 5.64252292783434  C 13.8320366519944 5.64252292783434  13.3537011357535 5.30709465603811  13.0616757330594 4.63623811244564  C 12.8889725379177 4.22805651118591  12.8026209403469 3.74030947096232  12.8026209403469 3.17299699177486  C 12.8026209403469 2.09341387816262  13.0881045553462 1.35988592716711  13.6590717853449 0.972413138788369  C 13.905043002668 0.806742635740363  14.1842465014804 0.723907384216372  14.4966822817821 0.723907384216349  C 15.1676080277568 0.723907384216372  15.6524853316925 1.06287795295277  15.9513141935892 1.74081909042555  C 16.1177372725439 2.14191609780497  16.2009488120213 2.61930873158807  16.2009488120213 3.17299699177486  C 16.2009488120213 4.25911973050741  15.9152035255141 4.99918730662324  15.3437129524998 5.39319972012226  Z M 14.1677611964896 4.95749719648119  C 14.2739998286525 5.01308401000391  14.3836401904167 5.04087741676527  14.4966822817821 5.04087741676524  C 14.9352437288389 5.04087741676527  15.2340725907356 4.73651236429051  15.3931688674722 4.12778225934104  C 15.459633430451 3.85093812924767  15.4928657119403 3.53267637339227  15.4928657119403 3.17299699177486  C 15.4928657119403 2.18333372356698  15.2670432007172 1.58468554067802  14.8153981782709 1.37705244310797  C 14.709159546108 1.33563481734596  14.6029209139451 1.31492600446495  14.4966822817821 1.31492600446495  C 14.064924293928 1.31492600446495  13.772637219726 1.61602124437952  13.6198210591764 2.21821172420866  C 13.5465530369951 2.49451088554203  13.5099190259044 2.81277264139744  13.5099190259044 3.17299699177486  C 13.5099190259044 4.14140647834171  13.7291997494328 4.73623987991049  14.1677611964896 4.95749719648119  Z M 15.3437129524998 8.79789204838701  L 14.7157013338028 8.79789204838701  L 18.8417376686424 0.723907384216349  L 19.4799544761433 0.723907384216349  L 15.3437129524998 8.79789204838701  Z M 20.5460041988815 8.54856884067496  C 20.3000329815585 8.714784312483  20.0210911542539 8.79789204838704  19.7091787169677 8.79789204838701  C 19.04453308718 8.79789204838704  18.5659358994313 8.46573358915097  18.2733871537215 7.80141667067878  C 18.0944038423929 7.39323506941905  18.0049121867286 6.90548802919546  18.0049121867286 6.338175550008  C 18.0049121867286 5.27276162415647  18.2872557436344 4.54277597010112  18.8519428574462 4.14821858784204  C 19.1041941909562 3.97546349091369  19.3899394774634 3.88908594244949  19.7091787169677 3.88908594244949  C 20.3801044629424 3.88908594244949  20.8615800372768 4.22805651118591  21.1536054399709 4.90599764865869  C 21.3200285189256 5.30709465603813  21.403240058403 5.78448728982123  21.403240058403 6.338175550008  C 21.403240058403 7.42429828874057  21.1174947718958 8.16109605229622  20.5460041988815 8.54856884067496  Z M 19.3802576316751 8.13330264553486  C 19.4864962638381 8.18180486517721  19.5961366256022 8.20605597499836  19.7091787169677 8.20605597499836  C 20.1341332456194 8.20605597499836  20.4264203198213 7.91531514152432  20.5860399395735 7.33383347457615  C 20.6655880779418 7.05044971936247  20.7053621471259 6.7185637445064  20.7053621471259 6.338175550008  C 20.7053621471259 5.37630568856147  20.4826796939963 4.78474209955284  20.0373147877369 4.56348478298214  C 19.931076155574 4.51498256333981  19.8216974653176 4.49073145351864  19.7091787169677 4.49073145351861  C 19.2570103515058 4.49073145351864  18.9579198181014 4.80218109987369  18.8119071167543 5.42508039258382  C 18.7454425537755 5.68775533491653  18.7122102722862 5.99212038739126  18.7122102722861 6.338175550008  C 18.7122102722862 7.31366963045522  18.9348927254158 7.91204532896413  19.3802576316751 8.13330264553486  Z " fill-rule="nonzero" fill="#888888" stroke="none" transform="matrix(1 0 0 1 146 767 )" />
  </g>
</svg>