<?xml version="1.0" encoding="utf-8"?>
<svg version="1.1" xmlns:xlink="http://www.w3.org/1999/xlink" width="22px" height="9px" xmlns="http://www.w3.org/2000/svg">
  <g transform="matrix(1 0 0 1 -127 -724 )">
    <path d="M 4.45979557719698 8.32869603996697  C 4.02803758934277 8.66821157746341  3.53321676811104 8.83796934621163  2.97533311350183 8.83796934621162  C 2.05163269100158 8.83088475233129  1.26086139445887 8.4883718866547  0.603019223873706 7.8104307491819  L 1.06146770552256 7.17690456565126  C 1.64604185392641 7.72350823195771  2.25730649612486 8.00716447155143  2.89526163211794 8.02787328443242  C 3.4468651705402 8.02787328443242  3.87548310030093 7.79626156142122  4.18111542140017 7.33303811539881  C 4.38678922652345 7.01477635954341  4.4896261290851 6.634115680665  4.4896261290851 6.19105607876355  C 4.4896261290851 5.41611050200606  4.22716960677128 4.88694583602046  3.70225656214366 4.60356208080675  C 3.47669572242832 4.4787642347607  3.22104265931706 4.41636531173768  2.93529737280988 4.41636531173768  C 2.55639702952934 4.41636531173768  2.17095489855402 4.54797526728404  1.77897097988393 4.81119517837679  C 1.74600036990236 4.83190399125779  1.71616981801423 4.85261280413879  1.6894793242196 4.8733216170198  L 1.19099510187882 4.56187197066473  L 1.43042453150707 0.908673887827962  L 5.06818183280975 0.908673887827962  L 5.06818183280975 1.73920627810814  L 2.24762465033661 1.73920627810814  L 2.05843615020412 3.99128967891711  C 2.41692611587702 3.79074117522742  2.78902299995504 3.69046692338257  3.17472680243815 3.69046692338256  C 4.04504623734914 3.69046692338257  4.67619791413968 4.01554078873831  5.06818183280975 4.66568851944975  C 5.30734959093021 5.07387012070951  5.42693346999045 5.5719715673736  5.42693346999045 6.15999285944205  C 5.42693346999045 7.10115390800761  5.10455417239263 7.82405496818259  4.45979557719698 8.32869603996697  Z M 10.2838183260888 8.51589280903603  C 9.96510242960003 8.73061050048642  9.60635079241933 8.83796934621163  9.2075634145467 8.83796934621162  C 8.27758287585949 8.83796934621163  7.61660064718083 8.30172008634568  7.22461672851076 7.22922156661377  C 6.9854489703903 6.5785288671423  6.86586509133007 5.7621656646228  6.86586509133007 4.78013195905529  C 6.86586509133007 2.83568342328121  7.30416486687906 1.59015732224094  8.18076441797702 1.04355365593449  C 8.48639673907626 0.857174340005478  8.82866307126615 0.763984682040968  9.2075634145467 0.763984682040968  C 10.1579543308416 0.763984682040968  10.8223382891215 1.31385816090758  11.2007152893865 2.41360511864078  C 11.4199960129149 3.05012863035159  11.5296363746791 3.83897091048975  11.5296363746791 4.78013195905529  C 11.5296363746791 6.68261790030734  11.1143636918156 7.92787151696759  10.2838183260888 8.51589280903603  Z M 8.84881177736601 8.00743695593143  C 8.96865732793404 8.04885458169344  9.08824120699426 8.06956339457445  9.2075634145467 8.06956339457444  C 9.87848916052138 8.06956339457445  10.3136488779769 7.481542102506  10.5130425669132 6.30549951836909  C 10.5863105890945 5.86243991646767  10.6229446001852 5.35398406336306  10.6229446001852 4.78013195905529  C 10.6229446001852 2.84276801716155  10.2341007396086 1.77708160692998  9.45641301845541 1.58307272836059  C 9.37006142088456 1.5623639154796  9.287111552915 1.5520095090391  9.2075634145467 1.55200950903909  C 8.47697656479581 1.5520095090391  8.02533154234951 2.1988874271904  7.8526283472078 3.49264326349299  C 7.79924735961857 3.87357642675143  7.77255686582395 4.3027393252722  7.77255686582394 4.78013195905529  C 7.77255686582395 6.65482449354599  8.13130850300463 7.73059282583804  8.84881177736601 8.00743695593143  Z M 15.3605072487311 5.43327701794688  C 15.1082559152211 5.59949248975494  14.8259123583152 5.68260022565895  14.5134765780134 5.68260022565895  C 13.8488309482257 5.68260022565895  13.3704954319848 5.34717195386273  13.0784700292907 4.67631541027026  C 12.905766834149 4.26813380901053  12.8194152365781 3.78038676878692  12.8194152365781 3.21307428959945  C 12.8194152365781 2.13349117598722  13.1048988515775 1.39996322499174  13.6758660815762 1.01249043661299  C 13.9218372988993 0.846819933564982  14.2010407977116 0.763984682040968  14.5134765780134 0.763984682040968  C 15.1844023239881 0.763984682040968  15.6692796279238 1.10295525077737  15.9681084898205 1.78089638825017  C 16.1345315687752 2.18199339562958  16.2177431082526 2.65938602941268  16.2177431082526 3.21307428959945  C 16.2177431082526 4.29919702833203  15.9319978217454 5.03926460444781  15.3605072487311 5.43327701794688  Z M 14.1845554927208 4.99757449430581  C 14.2907941248838 5.0531613078285  14.400434486648 5.08095471458984  14.5134765780134 5.08095471458984  C 14.9520380250702 5.08095471458984  15.2508668869669 4.77658966211512  15.4099631637035 4.16785955716566  C 15.4764277266822 3.89101542707227  15.5096600081716 3.57275367121688  15.5096600081716 3.21307428959945  C 15.5096600081716 2.22341102139158  15.2838374969485 1.62476283850262  14.8321924745022 1.41712974093256  C 14.7259538423393 1.37571211517057  14.6197152101763 1.35500330228958  14.5134765780134 1.35500330228956  C 14.0817185901592 1.35500330228958  13.7894315159573 1.65609854220413  13.6366153554077 2.25828902203327  C 13.5633473332264 2.53458818336663  13.5267133221357 2.85284993922203  13.5267133221357 3.21307428959945  C 13.5267133221357 4.18148377616632  13.7459940456641 4.77631717773511  14.1845554927208 4.99757449430581  Z M 15.3605072487311 8.83796934621162  L 14.732495630034 8.83796934621162  L 18.8585319648736 0.763984682040968  L 19.4967487723745 0.763984682040968  L 15.3605072487311 8.83796934621162  Z M 20.5627984951128 8.58864613849957  C 20.3168272777898 8.7548616103076  20.0378854504852 8.83796934621163  19.725973013199 8.83796934621162  C 19.0613273834113 8.83796934621163  18.5827301956625 8.50581088697555  18.2901814499528 7.84149396850341  C 18.1111981386242 7.43331236724367  18.0217064829598 6.94556532702007  18.0217064829598 6.37825284783261  C 18.0217064829598 5.31283892198108  18.3040500398657 4.58285326792576  18.8687371536775 4.18829588566664  C 19.1209884871875 4.01554078873829  19.4067337736946 3.92916324027412  19.725973013199 3.92916324027411  C 20.3968987591737 3.92916324027412  20.8783743335081 4.26813380901053  21.1703997362022 4.94607494648331  C 21.3368228151569 5.34717195386273  21.4200343546343 5.82456458764582  21.4200343546343 6.37825284783261  C 21.4200343546343 7.46437558656515  21.1342890681271 8.20117335012081  20.5627984951128 8.58864613849957  Z M 19.3970519279064 8.17337994335946  C 19.5032905600693 8.22188216300182  19.6129309218335 8.24613327282298  19.725973013199 8.24613327282298  C 20.1509275418507 8.24613327282298  20.4432146160525 7.95539243934892  20.6028342358047 7.37391077240078  C 20.682382374173 7.09052701718707  20.7221564433572 6.75864104233102  20.7221564433572 6.37825284783261  C 20.7221564433572 5.41638298638608  20.4994739902275 4.82481939737746  20.0541090839682 4.60356208080675  C 19.9478704518053 4.5550598611644  19.8384917615489 4.53080875134321  19.725973013199 4.53080875134321  C 19.2738046477371 4.53080875134321  18.9747141143326 4.84225839769829  18.8287014129856 5.46515769040842  C 18.7622368500068 5.72783263274114  18.7290045685174 6.03219768521587  18.7290045685174 6.37825284783261  C 18.7290045685174 7.35374692827983  18.9516870216471 7.95212262678878  19.3970519279064 8.17337994335946  Z " fill-rule="nonzero" fill="#888888" stroke="none" transform="matrix(1 0 0 1 127 724 )" />
  </g>
</svg>