<?xml version="1.0" encoding="utf-8"?>
<svg version="1.1" xmlns:xlink="http://www.w3.org/1999/xlink" width="16px" height="9px" xmlns="http://www.w3.org/2000/svg">
  <g transform="matrix(1 0 0 1 -165 -811 )">
    <path d="M 4.50668347536598 8.24781276617548  C 4.06707534227803 8.58732830367194  3.5632577788421 8.75708607242016  2.99523078505817 8.75708607242014  C 2.05473580942157 8.7500014785398  1.24958685294173 8.40748861286322  0.579783915618646 7.72954747539041  L 1.04656782420657 7.09602129185975  C 1.64177059349047 7.6426249581662  2.26414913827437 7.92628119775994  2.91370345855823 7.94699001064093  C 3.47533615222455 7.94699001064093  3.91174713525365 7.71537828762975  4.22293640764558 7.25215484160731  C 4.43234973649837 6.93389308575191  4.5370564009248 6.55323240687351  4.53705640092478 6.11017280497207  C 4.5370564009248 5.33522722821456  4.26982794184162 4.80606256222896  3.73537102367532 4.52267880701524  C 3.50570907778331 4.39788096096923  3.24540777716095 4.33548203794619  2.95446712180819 4.33548203794619  C 2.56867768137711 4.33548203794619  2.17622751165679 4.46709199349255  1.77711661264725 4.73031190458529  C 1.74354653702962 4.75102071746633  1.7131736114708 4.77172953034732  1.68599783597083 4.79243834322829  L 1.17845026413293 4.48098869687322  L 1.42223295611807 0.827790614036468  L 5.12613129926262 0.827790614036468  L 5.12613129926262 1.65832300431663  L 2.25429125892633 1.65832300431663  L 2.06166296788235 3.91040640512561  C 2.42667093293112 3.70985790143591  2.80553321490145 3.60958364959104  3.19824981379334 3.60958364959104  C 4.08439323842999 3.60958364959104  4.72702040025308 3.93465751494679  5.12613129926262 4.58480524565824  C 5.36964756207617 4.992986846918  5.49140569348297 5.4910882935821  5.49140569348297 6.07910958565055  C 5.49140569348297 7.0202706342161  5.16316495411063 7.74317169439108  4.50668347536598 8.24781276617548  Z M 9.44228387867145 5.35239374415539  C 9.18544615727944 5.51860921596344  8.89796908115711 5.60171695186747  8.57985265030441 5.60171695186745  C 7.90312255452054 5.60171695186747  7.4160900288934 5.26628868007124  7.11875507342304 4.59543213647877  C 6.94291182018785 4.18725053521903  6.85499019357026 3.69950349499545  6.85499019357026 3.13219101580796  C 6.85499019357026 2.05260790219574  7.14593084892303 1.31907995120026  7.7278121596285 0.931607162821494  C 7.9777227225597 0.765936659773489  8.26173621945168 0.683101408249474  8.57985265030441 0.683101408249474  C 9.2629770462059 0.683101408249474  9.75667030112222 1.02207197698587  10.0609324150534 1.70001311445868  C 10.2303813681709 2.10111012183807  10.3151058447297 2.57850275562117  10.3151058447297 3.13219101580796  C 10.3151058447297 4.21831375454055  10.024165189377 4.95838133065634  9.44228387867145 5.35239374415539  Z M 8.24495118164284 4.91669122051431  C 8.35312142529967 4.97227803403701  8.46475524818682 5.00007144079834  8.57985265030441 5.00007144079834  C 9.02638794185311 5.00007144079834  9.33091648495586 4.69570638832361  9.49343827961261 4.08697628337414  C 9.56057843084784 3.8101321532808  9.59414850646547 3.49187039742539  9.59414850646544 3.13219101580796  C 9.59414850646547 2.1425277476001  9.36422013140191 1.54387956471115  8.90436338127474 1.33624646714107  C 8.79619313761798 1.29482884137906  8.68802289396119 1.27412002849805  8.57985265030441 1.27412002849805  C 8.14024451721646 1.27412002849805  7.84264313257449 1.57521526841262  7.68704849637852 2.17740574824178  C 7.61244832833938 2.45370490957516  7.57514824431978 2.77196666543056  7.57514824431978 3.13219101580796  C 7.57514824431978 4.10060050237484  7.79841589009413 4.69543390394361  8.24495118164284 4.91669122051431  Z M 9.44228387867145 8.75708607242014  L 8.80285386690719 8.75708607242014  L 13.0039090441984 0.683101408249474  L 13.6537297936539 0.683101408249474  L 9.44228387867145 8.75708607242014  Z M 14.7391622386237 8.50776286470806  C 14.4887188173494 8.67397833651611  14.2047053204574 8.75708607242016  13.8871217479478 8.75708607242014  C 13.210391652164 8.75708607242016  12.7230926973653 8.42492761318407  12.4252248835518 7.76061069471191  C 12.242987330199 7.35242909345217  12.1518685535226 6.86468205322856  12.1518685535226 6.2973695740411  C 12.1518685535226 5.23195564818955  12.4393456296449 4.50196999413423  13.0142997818896 4.10741261187514  C 13.2711375032816 3.93465751494679  13.5620781586344 3.84827996648259  13.8871217479478 3.84827996648259  C 14.5702461438493 3.84827996648259  15.0604758195353 4.18725053521901  15.3578107750057 4.8651916726918  C 15.5272597281232 5.26628868007124  15.611984204682 5.74368131385434  15.611984204682 6.2973695740411  C 15.611984204682 7.38349231277365  15.3210435493293 8.1202900763293  14.7391622386237 8.50776286470806  Z M 13.5522202792863 8.09249666956796  C 13.6603905229431 8.14099888921031  13.7720243458303 8.16524999903149  13.8871217479478 8.16524999903149  C 14.319802722575 8.16524999903149  14.617404107217 7.87450916555742  14.7799259018737 7.29302749860928  C 14.8609203700305 7.00964374339558  14.9014176041089 6.67775776853953  14.9014176041089 6.2973695740411  C 14.9014176041089 5.33549971259458  14.6749528082758 4.74393612358597  14.2220232166094 4.52267880701524  C 14.1133201146095 4.47417658737289  14.0016862917223 4.44992547755172  13.8871217479478 4.44992547755172  C 13.4267321394776 4.44992547755172  13.1222035963748 4.76137512390679  12.9735361186396 5.38427441661692  C 12.9058631090613 5.64694935894966  12.8720266042721 5.95131441142436  12.8720266042721 6.2973695740411  C 12.8720266042721 7.2728636544883  13.0987578292768 7.87123935299726  13.5522202792863 8.09249666956796  Z " fill-rule="nonzero" fill="#888888" stroke="none" transform="matrix(1 0 0 1 165 811 )" />
  </g>
</svg>