<?xml version="1.0" encoding="utf-8"?>
<svg version="1.1" xmlns:xlink="http://www.w3.org/1999/xlink" width="37px" height="13px" xmlns="http://www.w3.org/2000/svg">
  <g transform="matrix(1 0 0 1 -50 -742 )">
    <path d="M 9.79407207369812 2.5022133437967  L 7.93840493972366 2.5022133437967  L 7.93840493972366 3.44062684153043  L 9.79407207369812 3.44062684153043  L 9.79407207369812 2.5022133437967  Z M 7.93840493972366 5.16646342992308  L 9.79407207369812 5.16646342992308  L 9.79407207369812 4.20207308796143  L 7.93840493972366 4.20207308796143  L 7.93840493972366 5.16646342992308  Z M 4.37438828894655 5.16646342992308  L 7.02893691657499 5.16646342992308  L 7.02893691657499 4.20207308796143  L 3.5755697179267 4.20207308796143  L 3.5755697179267 3.44062684153043  L 7.02893691657499 3.44062684153043  L 7.02893691657499 2.5022133437967  L 4.46041926046952 2.5022133437967  L 4.46041926046952 1.7415788737478  L 7.02893691657499 1.7415788737478  L 7.02893691657499 0.802353599631951  L 7.93840493972366 0.802353599631951  L 7.93840493972366 1.7415788737478  L 10.7035400968468 1.7415788737478  L 10.7035400968468 3.44062684153043  L 11.6498178609652 3.44062684153043  L 11.6498178609652 4.20207308796143  L 10.7035400968468 4.20207308796143  L 10.7035400968468 5.95226296781779  L 7.93840493972366 5.95226296781779  L 7.93840493972366 6.90366488766548  L 10.8263965399981 6.90366488766548  L 10.8263965399981 7.65212271198254  L 7.93840493972366 7.65212271198254  L 7.93840493972366 8.67983161174974  L 11.3671379271076 8.67983161174974  L 11.3671379271076 9.46563114964445  L 7.93840493972366 9.46563114964445  L 7.93840493972366 10.8488981047814  L 7.02893691657499 10.8488981047814  L 7.02893691657499 9.46563114964445  L 3.73533028599896 9.46563114964445  L 3.73533028599896 8.67983161174974  L 7.02893691657499 8.67983161174974  L 7.02893691657499 7.65212271198254  L 4.31294433671238 7.65212271198254  L 4.31294433671238 6.90366488766548  L 7.02893691657499 6.90366488766548  L 7.02893691657499 5.95226296781779  L 4.37438828894655 5.95226296781779  L 4.37438828894655 5.16646342992308  Z M 3.15771623528555 5.20380514350075  L 3.32977817833148 5.17864007565495  L 3.87051956544097 5.31826561338003  C 3.69026719285163 7.10255010128552  3.34615903741831 8.60352463183026  2.83819509914102 9.82118920501415  C 3.68207676330821 10.649742299034  4.9438066665637 11.1232785219388  6.6233848089075 11.2417978737287  C 7.00024943896165 11.2672335337019  7.4139972197254 11.2799513636885  7.86462815119876 11.2799513636885  C 10.0030014367951 11.2799513636885  11.2934135741111 11.2756218896505  11.7358645631467 11.2669629415745  C 11.5474112739083 11.5629907289219  11.4163224527908 11.8801247022045  11.3425980997944 12.2183648614222  L 7.84008832388557 12.2183648614222  C 5.88192546245581 12.2183648614222  4.39077701336266 11.9266665481128  3.36664297660613 11.3432699214941  C 3.02253482117281 11.1403258259634  2.70710103447073 10.907887188549  2.42034161649987 10.6459540092507  C 1.96153074258879 11.4658481551946  1.41259892593587 12.1125633396189  0.773546166541127 12.5860995625238  C 0.601489467048046 12.3409430951227  0.388470132732184 12.1296106436435  0.134488163593539 11.952102208086  C 0.109906387857594 11.9353254961888  0.0894224486697809 11.9226076662022  0.0730363460300992 11.9139487181262  C 0.761252656896732 11.4236357833242  1.33476624928559 10.7555438208373  1.79357712319668 9.90967283066552  C 1.32657057618933 9.2754048841004  0.933304112836968 8.42980448605602  0.613777733139596 7.37287163653236  L 1.33885884228088 7.0936205610822  C 1.560073849693 7.85506680751319  1.84273543111573 8.4979937021543  2.18684358654904 9.0224012450055  C 2.51456563934268 8.19330696673096  2.75216412761806 7.20808103096149  2.8996390513752 6.06672343769707  L 1.44946896776336 6.06672343769707  L 1.19138391852374 6.57408367652371  L 0.33112139526972 6.31999766891933  C 0.953793295577625 5.11099204381141  1.57646519588553 3.80051437093812  2.19913709619344 2.38856465029952  L 0.17135296186819 2.38856465029952  L 0.17135296186819 1.52564635610318  L 2.6661331560951 1.52564635610318  L 2.81360807985223 1.47531622041157  L 3.45266608279982 1.67826031594223  C 3.1822980110215 2.33742273822579  2.64975229700826 3.51260434741197  1.85502894076012 5.20380514350075  L 3.15771623528555 5.20380514350075  Z M 21.86247599447 2.07116008488957  L 19.6380822244564 2.07116008488957  L 19.6380822244564 2.61667381367598  C 19.6216699040525 4.223449866024  18.8883852564857 5.39457259329954  17.438228281756 6.13004199550264  C 17.2989070826723 5.89354447617757  17.1104537934339 5.66949419471173  16.8728684140406 5.45789115110511  C 16.8565085291652 5.44111443920792  16.8442123977444 5.42839660922133  16.8359800197782 5.41973766114534  C 18.0321917302392 4.86177669449976  18.671275950951 4.02456465240396  18.7532326819136 2.90810153485801  C 18.7614126243513 2.79824113114406  18.7655025955702 2.69271020146813  18.7655025955702 2.59150874583017  L 18.7655025955702 1.17090007711561  L 22.7349769700636 1.17090007711561  L 22.7349769700636 4.17690802011563  C 22.7759815533091 4.47293580746301  22.8538220952887 4.63339693899592  22.9684985960022 4.65829141471434  L 23.8288083112319 4.65829141471434  C 24.0663936906251 4.65829141471434  24.2671168935202 4.63718522877915  24.430977919917 4.5949728569088  C 24.4473902403209 4.90777735615337  24.4760724743814 5.18702843160353  24.5170246220985 5.43272608325931  C 24.3777034230149 5.47493845512969  24.1523879572782 5.49604464106488  23.8410782248884 5.49604464106488  L 22.9070703744266 5.49604464106488  C 22.4073073527984 5.49604464106488  22.0959714026445 5.33098344336661  21.9730625239647 5.0008610479701  C 21.8993381709683 4.80657590051539  21.86247599447 4.523536535282  21.86247599447 4.15174295226982  L 21.86247599447 2.07116008488957  Z M 16.6639652687078 2.84478297705244  C 16.6721452111456 2.8534419251284  16.6803513713475 2.86183028107699  16.6885837493137 2.86994804489824  L 16.0617956600227 3.55508731140971  C 15.6193446709871 2.96303173671497  14.9925565816961 2.29926924826605  14.1814313921497 1.56379984606295  C 14.1650715072743 1.54702313416576  14.1528015936177 1.53430530417915  14.1446216511799 1.52564635610318  L 14.7467912598651 0.941979137357032  C 15.5742763342869 1.64389511576572  16.2133343372345 2.27816306233084  16.6639652687078 2.84478297705244  Z M 15.8405439477407 4.76057523886178  L 15.8405439477407 10.3285494438408  L 17.2292464831305 9.30084054407357  C 17.3276155344971 9.60552727949691  17.4423444707391 9.8677310509225  17.5734332918565 10.0874518583504  C 15.8938184446428 11.3727644633779  14.9720805078375 12.1085044577083  14.8082194814407 12.2946718413417  C 14.6771306603233 11.9899851059184  14.5091796627076 11.7234518604548  14.3043664885937 11.495072104951  C 14.5911363936702 11.3094459055723  14.7836796541275 11.0388537781981  14.8819962699656 10.6832957228284  C 14.914768475245 10.5653175552932  14.9311545778847 10.4470687956307  14.9311545778847 10.3285494438408  L 14.9311545778847 5.68600031448157  L 13.1737254064556 5.68600031448157  L 13.1737254064556 4.76057523886178  L 15.8405439477407 4.76057523886178  Z M 20.7441048259886 9.88450776281972  C 21.596182163252 9.18259178441103  22.2475362976205 8.32427355638007  22.6981672290938 7.30955307872679  L 18.7777725092268 7.30955307872679  C 19.2365833831379 8.29883789640689  19.8920274887251 9.15715612443787  20.7441048259886 9.88450776281972  Z M 23.1405920003652 6.39630464883886  L 23.3003368377789 6.3581511588791  L 23.8902365328075 6.63740223432926  C 23.4232457164587 8.1592123586818  22.6162367158954 9.42341877777407  21.4692095311177 10.4300214916061  C 22.3540590736605 11.0220770663009  23.4191557452398 11.461789273284  24.6644995458556 11.7491581125554  C 24.4350941089001 11.9775378680592  24.2425508484428 12.2649067073306  24.0868697644837 12.6112646303696  C 22.7841614957469 12.2730244711518  21.6617265738108 11.74455804639  20.7195649986754 11.0258653560841  C 19.8019432508532 11.6687922507252  18.6794821111529 12.1888703195385  17.3521815795745 12.5860995625238  C 17.2620449061741 12.2987307232524  17.1063900399793 12.011361883981  16.8852169809899 11.7239930447095  C 18.0404241082053 11.4534009173354  19.0768385457242 11.0220770663009  19.9944602935463 10.4300214916061  C 19.1177906934412 9.57603273761311  18.4172782511538 8.55698278592186  17.892922966684 7.37287163653236  L 18.065016371047 7.30955307872679  L 17.4258797148067 7.30955307872679  L 17.4258797148067 6.39630464883886  L 23.1405920003652 6.39630464883886  Z M 32.3085771006208 3.96097550247101  L 32.3085771006208 7.39884848076026  L 35.921752059317 7.39884848076026  L 35.921752059317 3.96097550247101  L 32.3085771006208 3.96097550247101  Z M 27.7368544641496 3.96097550247101  L 27.7368544641496 7.39884848076026  L 31.3377595091892 7.39884848076026  L 31.3377595091892 3.96097550247101  L 27.7368544641496 3.96097550247101  Z M 32.3085771006208 0.701693328248732  L 32.3085771006208 3.00957358262332  L 36.880299737092 3.00957358262332  L 36.880299737092 9.08571980281105  L 35.921752059317 9.08571980281105  L 35.921752059317 8.34943862422585  L 32.3085771006208 8.34943862422585  L 32.3085771006208 12.560934494678  L 31.3377595091892 12.560934494678  L 31.3377595091892 8.34943862422585  L 27.7368544641496 8.34943862422585  L 27.7368544641496 9.16121500634846  L 26.815195180637 9.16121500634846  L 26.815195180637 3.00957358262332  L 31.3377595091892 3.00957358262332  L 31.3377595091892 0.701693328248732  L 32.3085771006208 0.701693328248732  Z " fill-rule="nonzero" fill="#888888" stroke="none" transform="matrix(1 0 0 1 50 742 )" />
  </g>
</svg>