<?xml version="1.0" encoding="utf-8"?>
<svg version="1.1" xmlns:xlink="http://www.w3.org/1999/xlink" width="38px" height="13px" xmlns="http://www.w3.org/2000/svg">
  <g transform="matrix(1 0 0 1 -51 -787 )">
    <path d="M 2.44562733242584 1.29444446367531  C 2.61041099973706 1.08284142006874  2.74635884353815 0.883956206448675  2.85347086382911 0.697788822815218  L 3.74330266730967 1.05334687818491  C 3.11712473152706 2.00041932399463  2.28908548501887 2.8841732119988  1.2591849277851 3.70460854219735  C 1.06144452701165 3.86479908160289  0.86782503619031 4.00848350123861  0.678326455321091 4.13566180110446  C 0.562972615125887 3.88184638562746  0.402307221228116 3.62397208823985  0.196330273627775 3.3620389089416  C 1.06144189047297 2.78676004614408  1.81120757673899 2.097561897722  2.44562733242584 1.29444446367531  Z M 2.6433677331993 4.26229891671558  C 2.80815140051051 4.00848350123861  2.95233579113849 3.76738591574819  3.07592090508322 3.53900616024435  L 3.89160796788976 3.88157579350008  C 3.61147046038334 4.4059833363513  3.27366130585668 4.93444976111313  2.87818050430976 5.46697506778556  L 2.87818050430976 12.5196882756668  L 1.96363906034856 12.5196882756668  L 1.96363906034856 6.57099094747229  C 1.46104623851068 7.13761086219387  0.979052693356041 7.61114708509874  0.517658424884642 7.99159961618686  C 0.377589671131434 7.65335945696914  0.208685093868101 7.34028436559716  0.0109446930946445 7.05237434207101  C 1.04084525032841 6.27469256799755  1.91831959702996 5.34466742621241  2.6433677331993 4.26229891671558  Z M 5.01625254248078 9.04447358379988  C 4.96681744228741 8.98494331577759  4.92150325204617 8.92974252179323  4.88030997175704 8.87887120184688  L 5.63419129489783 8.43564129720793  C 6.30977796548704 9.21332307128139  6.80824196775677 9.93634523562526  7.12958330170702 10.6047077902395  C 7.13780930237919 10.629602265958  7.14606166843814 10.6507084518932  7.15434039988385 10.6680263480451  L 6.36337879679003 11.1494097426438  C 6.07499419630202 10.4902473203603  5.62595211153227 9.78860193407893  5.01625254248078 9.04447358379988  Z M 11.7394657168585 4.87113120330754  L 11.7394657168585 5.75921456534968  L 9.95980210989735 5.75921456534968  L 9.95980210989735 7.19199987979609  L 11.65293451748 7.19199987979609  L 11.65293451748 8.08008324183823  L 9.95980210989735 8.08008324183823  L 9.95980210989735 11.3523538381745  C 9.95980210989735 11.8177722972581  9.85267954345167 12.1221884405541  9.63843441056033 12.2656022680624  C 9.58074694430801 12.2996968761116  9.51894647771962 12.3294620101227  9.45303301079513 12.3548976700959  C 9.15642240963495 12.4560991257339  8.48080937365897 12.5066998535528  7.4261939028672 12.5066998535528  C 7.39323716940496 12.286979046125  7.29025396868214 11.9785040209184  7.11724430069875 11.5812747779331  C 7.92465790513693 11.6067104379062  8.47255700760003 11.6107693198168  8.76094160808803 11.5934514236649  C 8.92572527539925 11.5425801037186  9.0163694751138 11.4622142418884  9.03287420723169 11.3523538381745  L 9.03287420723169 8.08008324183823  L 3.90396278813008 8.08008324183823  L 3.90396278813008 7.19199987979609  L 9.03287420723169 7.19199987979609  L 9.03287420723169 5.75921456534968  L 3.76801230779032 5.75921456534968  L 3.76801230779032 4.87113120330754  L 7.27788860228711 4.87113120330754  L 7.27788860228711 3.22241337121652  L 4.49718399045045 3.22241337121652  L 4.49718399045045 2.33433000917437  L 7.27788860228711 2.33433000917437  L 7.27788860228711 0.723765667043118  L 8.1924775039445 0.723765667043118  L 8.1924775039445 2.33433000917437  L 11.0843913171761 2.33433000917437  L 11.0843913171761 3.22241337121652  L 8.1924775039445 3.22241337121652  L 8.1924775039445 4.87113120330754  L 11.7394657168585 4.87113120330754  Z M 13.1112304251041 9.58998731258627  C 13.6550428926179 9.47146796079638  14.7632064639391 9.18815800343558  16.4357211390677 8.74005744050389  L 16.5222523384462 9.47552684270699  C 14.7425887314851 9.99127543748225  13.66326889329 10.3000210548162  13.284292823861 10.4017636947089  L 13.1112304251041 9.58998731258627  Z M 17.375067138902 1.2433025516016  C 17.2102307408172 3.61098366612589  17.0536730741782 5.42909216995317  16.9053941389849 6.69762806308341  L 17.8940961428521 6.69762806308341  C 17.8940961428521 6.7062870111594  17.889983142516 6.84158307484653  17.8817571418439 7.10351625414472  C 17.7251994752048 9.64004685615055  17.5233460740953 11.1789042845276  17.2761969385152 11.720088539276  C 17.2185094722629 11.8386078910659  17.1608220060106 11.9316915828827  17.1031345397583 11.9993396147262  C 16.8889421376405 12.22771937023  16.6129229035475 12.3546270779685  16.2750768374794 12.3800627379417  C 15.9949709684371 12.4054983979149  15.4965069661674 12.4011689238769  14.7796848306702 12.3670743158277  C 14.746728097208 12.037493104686  14.6602232632163 11.7628420954011  14.5201703286951 11.5431212879733  C 15.0145213306288 11.5939926079196  15.4923939658313 11.6194282678928  15.9537882343027 11.6194282678928  C 16.1679806364205 11.6107693198168  16.3162859370006 11.5598979998705  16.3987041360429 11.4668143080538  C 16.6623580037409 11.1962221806796  16.8683244051865 9.89819174566552  17.0166033403798 7.57272300301159  C 17.0166033403798 7.53916957921722  17.0166033403798 7.51373391924401  17.0166033403798 7.49641602309208  L 13.6550165272311 7.49641602309208  C 13.828078925988 6.15211433429702  13.959905859837 4.66818710777689  14.050497328778 3.04463434353167  L 14.8537979328801 3.08278783349144  C 14.7796584652834 4.22414542675584  14.6766752645606 5.42909216995317  14.5448483307116 6.69762806308341  L 16.1020935348828 6.69762806308341  C 16.266877202194 5.34466742621241  16.402817136379 3.80986887974595  16.5099133374379 2.09323242368398  L 13.5191293238196 2.09323242368398  L 13.5191293238196 1.2433025516016  L 17.375067138902 1.2433025516016  Z M 20.4893993549236 1.71250930046848  C 20.7201492199328 1.33205676938036  20.9137766203702 0.951604238292218  21.0702815562357 0.571151707204075  L 21.8983392585146 0.85040278265426  C 21.8653825250524 0.926168578319032  21.8118344245229 1.03602898203296  21.7376949569263 1.17998399379603  C 21.680007490674 1.29850334558592  21.6387983911528 1.38319868145404  21.6140676583627 1.43407000140041  C 22.2649763269354 2.42335481908051  23.1053730302226 3.34499160491704  24.1352577682243 4.19898035891001  C 24.4154163680401 4.4354778782351  24.6790702357381 4.63842197376575  24.9262193713181 4.80781264550197  C 24.7038009685281 5.10384043284937  24.5472696672759 5.39986822019675  24.4566254675613 5.69589600754411  C 23.3855052646516 4.87546067734553  22.3968032607844 3.87345802967888  21.4905194559595 2.68988806454407  C 21.3669185227827 2.53727410470503  21.2556829560009 2.38926021103136  21.1568127556142 2.24584638352302  C 20.3246684183859 3.62424268036721  19.2659399472581 4.78264757765619  17.9806273422306 5.72106107538992  C 17.8240696755916 5.46724565991292  17.6386682758264 5.21343024443592  17.424423142935 4.95961482895892  C 18.685057745946 4.13106173493913  19.7067164832755 3.04869322544231  20.4893993549236 1.71250930046848  Z M 19.4018271506696 4.66818710777689  L 23.146555764357 4.66818710777689  L 23.146555764357 5.5051285577453  L 19.4018271506696 5.5051285577453  L 19.4018271506696 4.66818710777689  Z M 21.5276155551446 6.40620034190141  C 21.815947424859 7.63198267890655  21.9971830935146 8.65509151250842  22.0713225611112 9.47552684270699  L 21.2803609580174 9.58998731258627  C 21.2309522232108 8.83720001423126  21.0620555555635 7.8097617065914  20.7736709550755 6.50767238966672  L 21.5276155551446 6.40620034190141  Z M 19.3771491486531 9.93174516945991  C 19.2865049489385 9.1031920754401  19.0187380809045 8.06736541185165  18.573848544551 6.82426517869455  L 19.3153750474514 6.64648615100971  C 19.7190818496705 7.71207794860931  19.9951010837635 8.73545737433854  20.1434327497304 9.71662442819741  L 19.3771491486531 9.93174516945991  Z M 23.5420365659039 6.83725360080851  C 23.5749932993662 6.74416990899179  23.6038370324923 6.65541569121305  23.6285677652824 6.57099094747229  L 24.4813034695778 6.79910011084875  C 23.7480293327363 8.68458605439222  23.1342167633487 10.1008652490688  22.6398657614151 11.0479376948785  L 24.5801736699646 11.0479376948785  L 24.5801736699646 11.8978675669609  L 18.1660287419958 11.8978675669609  L 18.1660287419958 11.0479376948785  L 21.8242261563047 11.0479376948785  C 22.4668560934317 9.8134964097974  23.0394595632981 8.40993504510739  23.5420365659039 6.83725360080851  Z M 34.4919508068142 8.37232273940236  C 35.2004942108657 7.23042396188324  35.7483933133288 5.76327344726032  36.1356481142035 3.97087119553355  L 32.9347056026431 3.97087119553355  C 33.2890036700556 5.68750765159552  33.8080854047793 7.15465816621847  34.4919508068142 8.37232273940236  Z M 37.853537619963 3.05762276564563  L 37.853537619963 3.97087119553355  L 37.1120111170625 3.97087119553355  C 36.6176601151289 6.16916163832162  35.9255687124218 7.92368099221593  35.0357369089412 9.23442925721658  C 35.8514292448251 10.384445798557  36.8359918829695 11.2173283666147  37.9894248233745 11.73307696139  C 37.7340496871223 11.9701156649698  37.5198572850045 12.245037266382  37.3468476170211 12.5578417656265  C 36.2015879465148 11.982562902829  35.2334773097147 11.1410213866952  34.4425157066209 10.0332172172252  C 33.5773619051568 11.0565966429545  32.4897897009028 11.8981381590883  31.1797990938588 12.5578417656265  C 31.0644241613542 12.2785906901764  30.8955011283201 12.0036690887642  30.6730299947566 11.73307696139  C 30.6565779934123 11.7163002494928  30.644238992404 11.7035824195062  30.6360129917318 11.6949234714302  C 31.9789603322381 11.077973421017  33.0665325364921 10.2494203269972  33.8987296044939 9.20926418937077  C 33.2725516687112 8.118236731798  32.7493569336514 6.77799392491358  32.3291453993145 5.18853576871747  C 31.9501165991119 5.9072284590234  31.5917055313633 6.47790725565559  31.2539121960687 6.90057215861406  C 31.0809025280853 6.69762806308343  30.8378663928414 6.46924830757962  30.5248037903368 6.2154328921026  L 30.5248037903368 12.5196882756668  L 29.6102148886794 12.5196882756668  L 29.6102148886794 9.01849673957196  C 29.1405946195359 9.171110699411  28.1065705158113 9.49690362076954  26.5081425775058 9.99587550364758  L 26.186853974329 9.03148516168592  C 26.2527674412535 9.01470844978875  26.3516376416403 8.98927278981559  26.4834645754892 8.95517818176641  C 26.7306137110693 8.89618909799886  26.9201017457838 8.84964725209046  27.0519286796328 8.81555264404131  L 27.0519286796328 2.16953940360349  L 27.9417604831133 2.16953940360349  L 27.9417604831133 8.58744348066485  C 28.304284551198 8.49435978884817  28.86043601972 8.33795753922587  29.6102148886794 8.118236731798  L 29.6102148886794 0.723765667043118  L 30.5248037903368 0.723765667043118  L 30.5248037903368 6.17727940214283  C 31.5629145290107 4.95149706513769  32.3579891324406 3.11255296750259  32.9100276006266 0.660447109237547  L 33.8368764071319 0.85040278265426  C 33.6556407384764 1.63674350480368  33.4455613366946 2.37248349913416  33.2066382017868 3.05762276564563  L 37.853537619963 3.05762276564563  Z " fill-rule="nonzero" fill="#888888" stroke="none" transform="matrix(1 0 0 1 51 787 )" />
  </g>
</svg>