<?xml version="1.0" encoding="utf-8"?>
<svg version="1.1" xmlns:xlink="http://www.w3.org/1999/xlink" width="51px" height="13px" xmlns="http://www.w3.org/2000/svg">
  <g transform="matrix(1 0 0 1 -50 -656 )">
    <path d="M 1.99584272900119 7.73172067849532  L 1.99584272900119 9.02552987632234  L 4.76404038697874 9.02552987632234  L 4.76404038697874 7.73172067849532  L 1.99584272900119 7.73172067849532  Z M 4.76404038697874 6.97068032025537  L 4.76404038697874 5.70227972318879  L 1.99584272900119 5.70227972318879  L 1.99584272900119 6.97068032025537  L 4.76404038697874 6.97068032025537  Z M 1.10168393644704 4.86517591794396  L 5.67045179600591 4.86517591794396  L 5.67045179600591 11.5369224696951  C 5.67045179600591 11.9512531351304  5.55613062503243 12.2303147960915  5.32748828308547 12.3741074525781  C 5.28665668039675 12.3909924013263  5.24990928319903 12.4078773500744  5.21724609149232 12.4247622988226  C 4.94777214685664 12.5347309393874  4.36391890162689 12.5897152596699  3.46568635580308 12.5897152596699  C 3.40035997238966 12.2852991163739  3.30237039726953 12.0020162182258  3.1717176304427 11.7398665652257  C 3.83314464944821 11.7652481067734  4.28226092236012 11.7694693439605  4.51906644917842 11.7525302767868  C 4.67421922284062 11.710263786491  4.75587720210739 11.6341732802734  4.76404038697874 11.5242587581339  L 4.76404038697874 9.7992339461234  L 1.99584272900119 9.7992339461234  L 1.99584272900119 12.5897152596699  L 1.10168393644704 12.5897152596699  L 1.10168393644704 4.86517591794396  Z M 9.43075862582768 11.689130541343  C 9.59412684546796 11.6299249838736  9.68396368793809 11.5453649440691  9.70026915323808 11.4354504219297  L 9.70026915323808 4.61141462089243  L 10.6189410179043 4.61141462089243  L 10.6189410179043 11.4354504219297  C 10.6189410179043 11.892047577661  10.5086962132558 12.1922424837699  10.2882066039588 12.3360351402566  C 10.2310329531954 12.3698591561783  10.173859302432 12.3994348757003  10.1166856516686 12.4247622988226  C 9.7574428040015 12.5516158881356  9.09602623721733 12.6108214456051  8.13243595131606 12.602378971231  C 8.06710956790265 12.2810237607614  7.95686476325417 11.9723863802784  7.80170153737062 11.6764668297819  C 8.61012859738834 11.7017942529042  9.15314762687403 11.7060154900912  9.43075862582768 11.689130541343  Z M 7.17699839806479 5.00463910039262  L 8.04667547517093 5.00463910039262  L 8.04667547517093 10.2685218726285  L 7.17699839806479 10.2685218726285  L 7.17699839806479 5.00463910039262  Z M 9.63904526670302 1.05989294910601  C 9.27159742527924 1.70260337004522  8.90004708697708 2.29455070788902  8.52439425179657 2.83573496263743  L 11.4640815054003 2.83573496263743  L 11.4640815054003 3.71091108020382  L 0.317767335486031 3.71091108020382  L 0.317767335486031 2.83573496263743  L 3.39218633529697 2.83573496263743  C 3.17988081531404 2.34525967255895  2.80017251825122 1.77025140188876  2.25306144410852 1.11071015062688  L 3.11047022640962 0.768221695009352  C 3.67391289640568 1.40243552314902  4.09036859066621 2.00701951334119  4.35983730919122 2.5819736655859  L 3.74740246469043 2.83573496263743  L 7.48327461406026 2.83573496263743  C 7.91604883889746 2.20996360887185  8.30800713937797 1.50810174888864  8.65914951550177 0.7301493826878  L 9.63904526670302 1.05989294910601  Z M 17.4046798991429 7.33849619899513  L 15.1386905724051 7.33849619899513  L 15.1386905724051 8.63230539682215  L 17.4046798991429 8.63230539682215  L 17.4046798991429 7.33849619899513  Z M 17.4046798991429 4.5099425731271  L 17.4046798991429 3.36842262458629  L 15.1386905724051 3.36842262458629  L 15.1386905724051 4.5099425731271  L 17.4046798991429 4.5099425731271  Z M 17.4046798991429 5.28372782056638  L 15.1386905724051 5.28372782056638  L 15.1386905724051 6.56479212919406  L 17.4046798991429 6.56479212919406  L 17.4046798991429 5.28372782056638  Z M 18.2743569762491 8.63230539682215  L 19.1930288409153 8.63230539682215  L 19.1930288409153 9.50748151438853  L 13.0686803959074 9.50748151438853  L 13.0686803959074 8.63230539682215  L 14.281320985934 8.63230539682215  L 14.281320985934 3.36842262458629  L 13.2278938575626 3.36842262458629  L 13.2278938575626 2.4932465070199  L 14.281320985934 2.4932465070199  L 14.281320985934 0.920429766657341  L 15.1386905724051 0.920429766657341  L 15.1386905724051 2.4932465070199  L 17.4046798991429 2.4932465070199  L 17.4046798991429 0.920429766657341  L 18.2743569762491 0.920429766657341  L 18.2743569762491 2.4932465070199  L 19.1930288409153 2.4932465070199  L 19.1930288409153 3.36842262458629  L 18.2743569762491 3.36842262458629  L 18.2743569762491 8.63230539682215  Z M 14.7712688615346 9.82456136924562  C 14.7794215941846 9.80767642049748  14.7875743268346 9.79498564972363  14.7957270594846 9.78648905692407  L 15.6898623345407 10.0275054647763  C 15.2407303832968 11.0168444008818  14.6487165662511 11.866693095326  13.9138208834035 12.5770515481088  C 13.8811576916968 12.6108214456051  13.8525708663151 12.63617592794  13.8280604072584 12.6531149951137  C 13.5586021409547 12.4163468836612  13.3095518368294 12.2303147960915  13.0809094948824 12.0950187324044  C 13.80765244508 11.4777439714383  14.3711055672974 10.7209248503854  14.7712688615346 9.82456136924562  Z M 16.6207632981819 10.2304495603069  C 16.604457832882 10.2050680187592  16.5922026033536 10.1881560107983  16.5839976095969 10.1797135364243  L 17.3066903240228 9.78648905692407  C 17.959954158157 10.5475564743768  18.4009072461976 11.1859915397035  18.6295495881445 11.7017942529042  L 17.8701695767936 12.1584184678481  C 17.6333745021966 11.6003492643516  17.2169057426594 10.9576929618378  16.6207632981819 10.2304495603069  Z M 20.6873306656672 6.12083162581121  C 20.6873306656672 6.39142375318541  20.6791779330172 6.81847224860738  20.6628724677172 7.40197711207712  L 23.2350596187904 7.40197711207712  L 23.2350596187904 5.24565550824483  L 20.6873306656672 5.24565550824483  L 20.6873306656672 6.12083162581121  Z M 23.2350596187904 4.38314310223955  L 23.2350596187904 2.31562983461147  L 20.6873306656672 2.31562983461147  L 20.6873306656672 4.38314310223955  L 23.2350596187904 4.38314310223955  Z M 19.805424489586 1.42779000548397  L 24.1415023844816 1.42779000548397  L 24.1415023844816 11.4100418211693  C 24.1415023844816 11.9089595856219  24.0026707544515 12.2345360332785  23.7250074943911 12.3867711641392  C 23.7005492964411 12.3952136385133  23.6801413342627 12.4036561128874  23.663783607856 12.4120985872614  C 23.3453044234389 12.5389521765745  22.7247037810115 12.602378971231  21.8019816805736 12.602378971231  C 21.7530130235669 12.2810237607614  21.6550234484468 11.9681651430913  21.5080129552132 11.6638031182208  C 22.2755718297675 11.680688066969  22.7655197053682 11.680688066969  22.9778565820151 11.6638031182208  C 23.1411725405487 11.6299249838736  23.2269068861404 11.5411166476694  23.2350596187904 11.3973781096082  L 23.2350596187904 8.2771532296435  L 20.589341090547 8.2771532296435  C 20.4342301257702 10.1712981212629  20.0381954589647 11.6510852882342  19.4012370901305 12.7165147305574  C 19.2215634051903 12.5051281606527  18.9969974295683 12.3275656066697  18.7275391632646 12.1838270686086  C 18.7030809653147 12.1668880014349  18.6826730031363 12.1541972306611  18.6663152767296 12.145754756287  C 19.4012632206839 10.9450292502767  19.780966291636 9.08048713739204  19.805424489586 6.55212841763295  C 19.805424489586 6.40833576114631  19.805424489586 6.26457016387239  19.805424489586 6.12083162581121  L 19.805424489586 1.42779000548397  Z M 30.1065589761742 2.55664624246368  L 30.1065589761742 6.23496738513765  L 33.5974963835738 6.23496738513765  L 33.5974963835738 2.55664624246368  L 30.1065589761742 2.55664624246368  Z M 34.54062644619 6.23496738513765  L 37.3333293371136 6.23496738513765  L 37.3333293371136 7.17362441578602  L 34.54062644619 7.17362441578602  L 34.54062644619 12.6657787066748  L 33.5974963835738 12.6657787066748  L 33.5974963835738 7.17362441578602  L 30.0698716792493 7.17362441578602  C 29.9147084533657 9.0255028171096  29.32269463632 10.5010687468939  28.293830228112 11.6003222051388  C 27.9100246602815 12.0062103962001  27.4649690753626 12.3740533341526  26.9586634733552 12.7038510189963  C 26.7300211314083 12.416373942874  26.4809708272829 12.1796058314215  26.2115125609793 11.993546684639  C 27.812008954608 10.9788262069858  28.7592415141025 9.54552676749735  29.0532102394629 7.69364836617377  C 29.0777206985196 7.52452828656489  29.098128660698 7.35118696976898  29.114434125998 7.17362441578602  L 26.1747468723942 7.17362441578602  L 26.1747468723942 6.23496738513765  L 29.1511998145831 6.23496738513765  C 29.1593525472331 6.09967132145055  29.163428913558 5.91366629309352  29.163428913558 5.67695230006657  L 29.163428913558 2.55664624246368  L 26.6402365500449 2.55664624246368  L 26.6402365500449 1.63073410101462  L 36.9413710366331 1.63073410101462  L 36.9413710366331 2.55664624246368  L 34.54062644619 2.55664624246368  L 34.54062644619 6.23496738513765  Z M 47.5487033475566 0.958420901340679  C 48.3081617505677 1.77019728346329  48.8512069106067 2.38749910364206  49.1778388276738 2.81032636187699  L 48.4183804246628 3.34309520146406  C 48.0835957749457 2.86106238575965  47.5569083413134 2.22262732043296  46.8383181237658 1.42779000548397  L 47.5487033475566 0.958420901340679  Z M 45.7848909953944 9.6343621629143  C 46.6178285144688 8.88173721983569  47.258863249628 7.98962203509567  47.7079952008719 6.95801660869426  L 43.7761830970919 6.95801660869426  C 44.2742837053425 8.01500357664338  44.9438530047767 8.90711876138339  45.7848909953944 9.6343621629143  Z M 48.1611773878875 6.03202328960699  L 48.3326199485176 5.98136844336255  L 48.9573230878235 6.29844829821964  C 48.4592224795728 7.87123797936946  47.6508215501085 9.17768382954485  46.5321202994304 10.2177858487458  C 47.6426688174585 10.9872957405726  48.9532728520518 11.5242587581339  50.4639324032104 11.8286749014299  C 50.2352900612635 12.0570005385083  50.0433872773482 12.3445046738434  49.8882240514647 12.6911873074352  C 48.2795749251859 12.3191231322957  46.9199761030325 11.6976000749299  45.8094275850044 10.8266181353378  C 44.7152367933831 11.6468369918345  43.4291170872931 12.2641388120132  41.9510684667345 12.6785235958741  C 41.8285684325576 12.3825499269522  41.6652524740241 12.1034882659912  41.4611205911338 11.841338612991  C 42.8329746428156 11.5030984537733  44.0374363696388 10.9576929618378  45.0745057716035 10.2051221371847  C 44.3068946359425 9.46099378690565  43.68221762719 8.6196146260483  43.2004747453461 7.68098465461266  C 42.3022108428583 9.32147648603151  41.0814175201817 10.6406131069808  39.5380947773164 11.6383945174604  C 39.3584733534829 11.3678023900862  39.1298310115359 11.1225647450469  38.8521677514755 10.9026815823427  C 40.9099488289982 9.59204155419297  42.3797924558 7.58376090324711  43.2616986318812 4.87783962950507  C 43.2862090909379 4.80174912328745  43.3106934194412 4.72563155785708  43.3351516173912 4.64948693321398  L 41.595875854839 4.64948693321398  C 40.8283169802848 4.64948693321398  40.3873638922442 4.72138326145731  40.2730165907173 4.86517591794396  C 40.1505165565405 4.4761726756308  40.0443742487704 4.17597776952186  39.954589667407 3.96459119961713  C 40.1178533648338 3.90538564214766  40.268914093839 3.73204432535174  40.4077718544225 3.44456724922939  C 40.6527196616695 3.03018246536854  40.8854383699414 2.43401389033769  41.1059279792384 1.65606152413685  C 41.1631016300018 1.4784989701539  41.2080200512369 1.30937889054502  41.2406832429436 1.14870128531021  L 42.2205789941449 1.33898166927976  C 42.0327525765546 2.0915524939329  41.7347074848692 2.88219563090758  41.3264437190887 3.71091108020382  L 43.5802039468516 3.71091108020382  C 43.8251517540986 2.70463307692462  44.0006968116071 1.71526708160632  44.1068391193772 0.74281309424891  L 45.1480371487736 0.8950211658969  C 45.0255371145968 1.82520866295846  44.8581186591849 2.7638386343941  44.6457817825379 3.71091108020382  L 50.0475159047799 3.71091108020382  L 50.0352084141449 4.64948693321398  L 44.3885787457626 4.64948693321398  C 44.2579259789358 5.09764161457113  44.1150179825806 5.55848706670214  43.959854756697 6.03202328960699  L 48.1611773878875 6.03202328960699  Z " fill-rule="nonzero" fill="#888888" stroke="none" transform="matrix(1 0 0 1 50 656 )" />
  </g>
</svg>