<?xml version="1.0" encoding="utf-8"?>
<svg version="1.1" xmlns:xlink="http://www.w3.org/1999/xlink" width="21px" height="9px" xmlns="http://www.w3.org/2000/svg">
  <g transform="matrix(1 0 0 1 -109 -680 )">
    <path d="M 2.19437696333259 8.06892449634133  C 2.32591156517386 8.11045111585534  2.45747206985128 8.13121442561235  2.58905847736479 8.13121442561234  C 3.02966571984612 8.13121442561235  3.36837120501284 7.89943921197313  3.60517493286492 7.43588878469469  C 3.76302681620889 7.12454813209163  3.8419527578809 6.76478700516022  3.8419527578809 6.35660540390048  C 3.8419527578809 5.45026785910063  3.54927661250779 4.90023088960602  2.9639243217616 4.70649449541663  C 2.82581039954465 4.6580467726503  2.67453783657635 4.63382291126712  2.51010663285668 4.63382291126712  C 1.96423026436455 4.63382291126712  1.47425221622954 4.94170301224402  1.04017248845163 5.55746321419781  C 1.02043452732461 5.58514762720716  1.00398622638542 5.60937148859033  0.990827585634057 5.63013479834733  C 1.08288626522128 7.03457378981127  1.48406939112079 7.84750368914261  2.19437696333259 8.06892449634133  Z M 2.85536553556293 0.804463676751842  C 3.53277650589637 0.81138478000418  4.10825981607906 1.07773826146707  4.58181546611099 1.6035241211405  L 4.07865287438849 2.20541486815163  C 3.76300091337278 1.81799657664889  3.36510744766111 1.62082687927134  2.88497247725348 1.61390577601901  C 2.05628894395176 1.61390577601901  1.49067461433259 2.12587667762578  1.18812948839597 3.14981848083932  C 1.05659488655469 3.62721111462241  0.984248265258384 4.19452359380987  0.971089624507037 4.85175591840167  C 1.37227275040654 4.3398122652329  1.84253874025065 4.03539271588217  2.38188759403936 3.93849727034948  C 2.48052559400226 3.91778845746847  2.57258427358948 3.90743405102797  2.65806363280102 3.90743405102797  C 3.57885765136221 3.90743405102797  4.19708064115067 4.31215510066156  4.51273260216639 5.12159719992872  C 4.64426720400767 5.4744644720458  4.71003450492831 5.88613387336971  4.71003450492831 6.35660540390048  C 4.71003450492831 7.20065301942932  4.44696530124575 7.86483369571146  3.92082689388064 8.34914743274689  C 3.53280240873248 8.70196020798795  3.0888796032272 8.87836659560849  2.58905847736479 8.87836659560849  C 1.73405766256036 8.87836659560849  1.08293807089353 8.45980333947023  0.635699702364281 7.62267682719374  C 0.287099333797938 6.9584689024736  0.112799149514762 6.09365797718776  0.112799149514762 5.02824405133621  C 0.112799149514762 3.18096344547483  0.563327178231849 1.92524642862207  1.46438323566601 1.26109300077794  C 1.8721456819412 0.956673451427211  2.33580644857351 0.804463676751842  2.85536553556293 0.804463676751842  Z M 9.4194809464341 8.55669878500292  C 9.10388079109064 8.77114399207329  8.74877881065698 8.87836659560849  8.35417500513315 8.87836659560849  C 7.43343279224421 8.87836659560849  6.77902354038953 8.34217183261855  6.39094724956912 7.26978230663866  C 6.15419532738926 6.6194710852992  6.03581936629934 5.80308063434171  6.03581936629934 4.82061095376616  C 6.03581936629934 2.8765438961241  6.46989909407724 1.63120853414984  7.33805854963303 1.0846048678434  C 7.64060367556964 0.89784407378236  7.97930916073635 0.804463676751842  8.35417500513315 0.804463676751842  C 9.29491420751038 0.804463676751842  9.95256131388064 1.35447339780846  10.3271163242439 2.45449283992168  C 10.544182090969 3.09101635163248  10.6527149743316 3.87972238958064  10.6527149743315 4.82061095376616  C 10.6527149743316 6.72326038564622  10.2416369650324 7.96862299605847  9.4194809464341 8.55669878500292  Z M 7.99904712186337 8.04816118658432  C 8.11742308295331 8.08968780609835  8.23579904404323 8.11045111585535  8.35417500513315 8.11045111585534  C 9.01827191769847 8.11045111585535  9.44901017961628 7.52237532691089  9.64638979088656 6.34622374902197  C 9.71891773203575 5.90343663150055  9.75518170261035 5.39489903308195  9.75518170261035 4.82061095376616  C 9.75518170261035 2.88346499937644  9.37039507197778 1.81802382508689  8.60082181071264 1.62428743089751  C 8.51529064582884 1.60352412114051  8.43307504396901 1.59314246626201  8.35417500513315 1.593142466262  C 7.63070879216999 1.59314246626201  7.18347042364074 2.24002038441331  7.01245989954541 3.5337762207159  C 6.95987714221226 3.91432790584231  6.93358576354567 4.34327281685906  6.93358576354567 4.82061095376616  C 6.93358576354567 6.69557597263688  7.28873954965158 7.77142605024293  7.99904712186337 8.04816118658432  Z M 14.4448901829891 5.47449172048379  C 14.1951868427469 5.64048920478783  13.9156952409613 5.72348794693984  13.6064153776322 5.72348794693984  C 12.9484833400646 5.72348794693984  12.4749794957049 5.38795068139161  12.1859038445531 4.71687615029513  C 12.0149451261301 4.30869454903539  11.9294657669185 3.8209475088118  11.9294657669185 3.25363502962435  C 11.9294657669185 2.17432440039212  12.2120657090391 1.44093269158664  12.7772655932803 1.05345990320789  C 13.0207522528525 0.887462418903857  13.2971355143032 0.804463676751842  13.6064153776322 0.804463676751842  C 14.2705640958698 0.804463676751842  14.7505436492607 1.14346149392624  15.0463540378049 1.82145712827505  C 15.211096075558 2.22271762628247  15.2934670944346 2.70011026006557  15.2934670944346 3.25363502962435  C 15.2934670944346 4.3398122652329  15.0106081239528 5.08009782885271  14.4448901829891 5.47449172048379  Z M 13.2808167275446 5.03854396090071  C 13.385982242211 5.0939127869194  13.4945151255735 5.12159719992872  13.6064153776322 5.12159719992872  C 14.0405469110824 5.12159719992872  14.3363572996266 4.817177650578  14.4938465432648 4.20833855187653  C 14.5596397470216 3.93160341553515  14.5925363489 3.61336890811775  14.5925363489 3.25363502962435  C 14.5925363489 2.26424424579648  14.3689948731437 1.66578680197352  13.9219119216312 1.45826269815548  C 13.8167464069649 1.41673607864147  13.7115808922986 1.39597276888447  13.6064153776322 1.39597276888446  C 13.1790185815745 1.39597276888447  12.8896839020615 1.69693176660903  12.7384113390932 2.29884976205814  C 12.665883397944 2.57558489839954  12.6296194273694 2.89384665425494  12.6296194273694 3.25363502962435  C 12.6296194273694 4.2222080068192  12.8466851940945 4.817177650578  13.2808167275446 5.03854396090071  Z M 14.4448901829891 8.87836659560849  L 13.8232221159961 8.87836659560849  L 17.9075813161404 0.804463676751842  L 18.539351489222 0.804463676751842  L 14.4448901829891 8.87836659560849  Z M 19.5946330329427 8.62928862383844  C 19.3511463733705 8.79534060501847  19.075022140281 8.87836659560849  18.7662603336745 8.87836659560849  C 18.1083282961069 8.87836659560849  17.6345654233859 8.54628988168642  17.3449717155116 7.88213645384229  C 17.1677963164186 7.47390035570654  17.0792086168721 6.98612606704494  17.0792086168721 6.41881358785749  C 17.0792086168721 5.35334516512994  17.3587002186577 4.62344125638863  17.917683422229 4.22910186163353  C 18.1673867624712 4.05612877720118  18.450245732953 3.96964223498498  18.7662603336745 3.96964223498498  C 19.4304090519121 3.96964223498498  19.9070212366067 4.30866730059739  20.1960968877585 4.98671743182219  C 20.3608389255116 5.38797792982962  20.4432099443882 5.86534331517471  20.4432099443882 6.41881358785749  C 20.4432099443882 7.50504532034204  20.1603509739064 8.2418703323357  19.5946330329427 8.62928862383844  Z M 18.4406616835869 8.21418591932635  C 18.5458271982532 8.2626336420927  18.6543600816157 8.28685750347588  18.7662603336745 8.28685750347587  C 19.1869223923398 8.28685750347588  19.4762570718528 7.99628016062982  19.6342643722135 7.4151254749377  C 19.7130089940327 7.13146923534398  19.7523813049422 6.79936527298391  19.7523813049422 6.41881358785749  C 19.7523813049422 5.45716171391496  19.5319481695209 4.86562537334434  19.0910818986784 4.64420456614562  C 18.985916384012 4.59581134025528  18.8776425290107 4.57161472731011  18.7662603336745 4.57161472731011  C 18.3186593254395 4.57161472731011  18.0225899085341 4.88292813147517  17.8780520829582 5.5055549398053  C 17.8122588792014 5.76850236651801  17.779362277323 6.07292191586875  17.779362277323 6.41881358785749  C 17.779362277323 7.39436216518069  17.9997954127443 7.99281960900364  18.4406616835869 8.21418591932635  Z " fill-rule="nonzero" fill="#888888" stroke="none" transform="matrix(1 0 0 1 109 680 )" />
  </g>
</svg>