<?xml version="1.0" encoding="utf-8"?>
<svg version="1.1" xmlns:xlink="http://www.w3.org/1999/xlink" width="24px" height="24px" xmlns="http://www.w3.org/2000/svg">
  <g transform="matrix(1 0 0 1 -328 -1783 )">
    <path d="M 23.25 12  C 23.25 18.1875  18.1875 23.25  12 23.25  C 5.8125 23.25  0.75 18.1875  0.75 12  C 0.75 5.8125  5.8125 0.75  12 0.75  C 18.1875 0.75  23.25 5.8125  23.25 12  Z M 21.5625 12  C 21.5625 6.75  17.25 2.4375  12 2.4375  C 6.75 2.4375  2.4375 6.75  2.4375 12  C 2.4375 17.25  6.75 21.5625  12 21.5625  C 17.25 21.5625  21.5625 17.25  21.5625 12  Z M 8.625 9.375  L 8.625 11.0625  C 8.625 11.625  8.0625 12  7.6875 12  C 7.125 12  6.75 11.625  6.75 11.0625  L 6.75 9.375  C 6.75 8.8125  7.125 8.4375  7.6875 8.4375  C 8.25 8.4375  8.625 8.8125  8.625 9.375  Z M 17.25 9.375  L 17.25 11.0625  C 17.25 11.625  16.875 12  16.3125 12  C 15.75 12  15.375 11.625  15.375 11.0625  L 15.375 9.375  C 15.375 8.8125  15.75 8.4375  16.3125 8.4375  C 16.875 8.4375  17.25 8.8125  17.25 9.375  Z M 15.1875 14.25  C 15.375 14.0625  15.5625 13.875  15.75 13.875  C 15.9375 13.875  16.125 13.875  16.3125 14.0625  C 16.6875 14.4375  16.6875 15  16.3125 15.375  C 15.1875 16.6875  13.5 17.25  11.8125 17.25  C 10.125 17.25  8.4375 16.5  7.3125 15.375  C 6.9375 15  6.9375 14.4375  7.3125 14.0625  C 7.875 13.875  8.4375 13.875  8.8125 14.25  C 10.5 16.125  13.5 15.9375  15.1875 14.25  Z " fill-rule="nonzero" fill="#d8d8d8" stroke="none" transform="matrix(1 0 0 1 328 1783 )" />
  </g>
</svg>