<?xml version="1.0" encoding="utf-8"?>
<svg version="1.1" xmlns:xlink="http://www.w3.org/1999/xlink" width="8px" height="8px" xmlns="http://www.w3.org/2000/svg">
  <g transform="matrix(1 0 0 1 -197 -1528 )">
    <path d="M 1.234375 6.67788461538462  C 1.30034722222222 6.61698717948718  1.33333333333333 6.54487179487179  1.33333333333333 6.46153846153846  C 1.33333333333333 6.37820512820513  1.30034722222222 6.30608974358974  1.234375 6.24519230769231  C 1.16840277777778 6.18429487179487  1.09027777777778 6.15384615384615  1 6.15384615384615  C 0.909722222222222 6.15384615384615  0.831597222222222 6.18429487179487  0.765625 6.24519230769231  C 0.699652777777778 6.30608974358974  0.666666666666667 6.37820512820513  0.666666666666667 6.46153846153846  C 0.666666666666667 6.54487179487179  0.699652777777778 6.61698717948718  0.765625 6.67788461538462  C 0.831597222222222 6.73878205128205  0.909722222222222 6.76923076923077  1 6.76923076923077  C 1.09027777777778 6.76923076923077  1.16840277777778 6.73878205128205  1.234375 6.67788461538462  Z M 7.22135416666667 4.08173076923077  C 7.29600694444445 3.93429487179487  7.33333333333333 3.80448717948718  7.33333333333333 3.69230769230769  C 7.33333333333333 3.52884615384615  7.265625 3.38541666666667  7.13020833333333 3.26201923076923  C 6.99479166666667 3.13862179487179  6.84027777777778 3.07692307692308  6.66666666666667 3.07692307692308  L 4.83333333333333 3.07692307692308  C 4.83333333333333 2.89102564102564  4.91666666666667 2.63541666666667  5.08333333333333 2.31009615384615  C 5.25 1.98477564102564  5.33333333333333 1.7275641025641  5.33333333333333 1.53846153846154  C 5.33333333333333 1.22435897435897  5.27777777777778 0.991987179487179  5.16666666666667 0.841346153846154  C 5.05555555555556 0.690705128205128  4.83333333333333 0.615384615384615  4.5 0.615384615384615  C 4.40972222222222 0.698717948717948  4.34375 0.834935897435897  4.30208333333333 1.02403846153846  C 4.26041666666667 1.21314102564103  4.20746527777778 1.41426282051282  4.14322916666667 1.62740384615385  C 4.07899305555556 1.84054487179487  3.97569444444445 2.01602564102564  3.83333333333333 2.15384615384615  C 3.75694444444444 2.2275641025641  3.62326388888889 2.37339743589744  3.43229166666667 2.59134615384615  C 3.41840277777778 2.60737179487179  3.37847222222222 2.65544871794872  3.3125 2.73557692307692  C 3.24652777777778 2.81570512820513  3.19184027777778 2.88141025641026  3.1484375 2.93269230769231  C 3.10503472222222 2.98397435897436  3.04513888888889 3.05208333333333  2.96875 3.13701923076923  C 2.89236111111111 3.22195512820513  2.82291666666667 3.29246794871795  2.76041666666667 3.34855769230769  C 2.69791666666667 3.40464743589744  2.63107638888889 3.46153846153846  2.55989583333333 3.51923076923077  C 2.48871527777778 3.57692307692308  2.41927083333333 3.62019230769231  2.3515625 3.64903846153846  C 2.28385416666667 3.67788461538462  2.22222222222222 3.69230769230769  2.16666666666667 3.69230769230769  L 2 3.69230769230769  L 2 6.76923076923077  L 2.16666666666667 6.76923076923077  C 2.21180555555556 6.76923076923077  2.26649305555556 6.77403846153846  2.33072916666667 6.78365384615385  C 2.39496527777778 6.79326923076923  2.45225694444444 6.8036858974359  2.50260416666667 6.81490384615385  C 2.55295138888889 6.82612179487179  2.61892361111111 6.84375  2.70052083333333 6.86778846153846  C 2.78211805555556 6.89182692307692  2.84288194444444 6.91025641025641  2.8828125 6.92307692307692  C 2.92274305555556 6.93589743589744  2.984375 6.95592948717949  3.06770833333333 6.98317307692308  C 3.15104166666667 7.01041666666667  3.20138888888889 7.02724358974359  3.21875 7.03365384615385  C 3.95138888888889 7.26762820512821  4.54513888888889 7.38461538461539  5 7.38461538461539  L 5.63020833333333 7.38461538461539  C 6.296875 7.38461538461539  6.63020833333333 7.11698717948718  6.63020833333333 6.58173076923077  C 6.63020833333333 6.49839743589744  6.62152777777778 6.40865384615385  6.60416666666667 6.3125  C 6.70833333333333 6.26121794871795  6.79079861111111 6.17708333333333  6.8515625 6.06009615384615  C 6.91232638888889 5.94310897435897  6.94270833333333 5.82532051282051  6.94270833333333 5.70673076923077  C 6.94270833333333 5.58814102564103  6.91145833333333 5.4775641025641  6.84895833333333 5.375  C 7.03298611111111 5.21474358974359  7.125 5.02403846153846  7.125 4.80288461538462  C 7.125 4.72275641025641  7.10763888888889 4.6338141025641  7.07291666666667 4.53605769230769  C 7.03819444444445 4.43830128205128  6.99479166666667 4.36217948717949  6.94270833333333 4.30769230769231  C 7.05381944444445 4.30448717948718  7.14670138888889 4.22916666666667  7.22135416666667 4.08173076923077  Z M 7.60416666666667 2.82692307692308  C 7.86805555555555 3.07051282051282  8 3.35737179487179  8 3.6875  C 8 3.97275641025641  7.91493055555555 4.23397435897436  7.74479166666667 4.47115384615385  C 7.77604166666667 4.57692307692308  7.79166666666667 4.6875  7.79166666666667 4.80288461538462  C 7.79166666666667 5.04967948717949  7.72569444444445 5.28044871794872  7.59375 5.49519230769231  C 7.60416666666667 5.5625  7.609375 5.63141025641026  7.609375 5.70192307692308  C 7.609375 6.02564102564103  7.50520833333333 6.31089743589744  7.296875 6.55769230769231  C 7.30034722222222 7.00320512820513  7.15277777777778 7.35496794871795  6.85416666666667 7.61298076923077  C 6.55555555555556 7.87099358974359  6.16145833333333 8  5.671875 8  L 5.484375 8  L 5 8  C 4.66666666666667 8  4.33767361111111 7.96394230769231  4.01302083333333 7.89182692307692  C 3.68836805555556 7.81971153846154  3.3125 7.71474358974359  2.88541666666667 7.57692307692308  C 2.48263888888889 7.44871794871795  2.24305555555556 7.38461538461539  2.16666666666667 7.38461538461539  L 0.666666666666667 7.38461538461539  C 0.482638888888889 7.38461538461539  0.325520833333333 7.32451923076923  0.1953125 7.20432692307692  C 0.0651041666666667 7.08413461538462  0 6.93910256410256  0 6.76923076923077  L 0 3.69230769230769  C 0 3.5224358974359  0.0651041666666667 3.37740384615385  0.1953125 3.25721153846154  C 0.325520833333333 3.13701923076923  0.482638888888889 3.07692307692308  0.666666666666667 3.07692307692308  L 2.09375 3.07692307692308  C 2.21875 3  2.45659722222222 2.75160256410256  2.80729166666667 2.33173076923077  C 3.00868055555556 2.09134615384615  3.19444444444444 1.88621794871795  3.36458333333333 1.71634615384615  C 3.44791666666667 1.63621794871795  3.50954861111111 1.49919871794872  3.54947916666667 1.30528846153846  C 3.58940972222222 1.1113782051282  3.64236111111111 0.908653846153846  3.70833333333333 0.697115384615385  C 3.77430555555556 0.485576923076923  3.88194444444444 0.3125  4.03125 0.177884615384615  C 4.16666666666667 0.0592948717948723  4.32291666666667 0  4.5 0  C 4.79166666666667 0  5.05381944444445 0.0520833333333339  5.28645833333333 0.15625  C 5.51909722222222 0.260416666666666  5.69618055555556 0.423076923076923  5.81770833333333 0.644230769230769  C 5.93923611111111 0.865384615384615  6 1.16346153846154  6 1.53846153846154  C 6 1.83653846153846  5.91666666666667 2.14423076923077  5.75 2.46153846153846  L 6.66666666666667 2.46153846153846  C 7.02777777777778 2.46153846153846  7.34027777777778 2.58333333333333  7.60416666666667 2.82692307692308  Z " fill-rule="nonzero" fill="#999999" stroke="none" transform="matrix(1 0 0 1 197 1528 )" />
  </g>
</svg>