<?xml version="1.0" encoding="utf-8"?>
<svg version="1.1" xmlns:xlink="http://www.w3.org/1999/xlink" width="17px" height="15px" xmlns="http://www.w3.org/2000/svg">
  <g transform="matrix(1 0 0 1 -30 -1206 )">
    <path d="M 0 0.703296709735577  L 0.0753297187143262 0.702197806490385  C 0.0753239694868932 0.701097639509418  0.0753210948587227 0.699997459621049  0.0753210948587227 0.698897277888753  C 0.0753210948587227 0.346891614346798  0.363284066274433 0.0615346426724066  0.718504393410378 0.0615346426724066  C 0.719246562290691 0.0615346426724066  0.719988730615033 0.061535915629665  0.720730895048516 0.0615384615384616  C 0.721473059481944 0.0615359156296652  0.722215227806396 0.0615346426724068  0.722957396686654 0.0615346426724068  C 1.0781777238226 0.0615346426724068  1.36614069523831 0.346891614346798  1.36614069523831 0.698897277888753  C 1.36614069523831 0.699997459621049  1.36613782061014 0.701097639509418  1.36613207138271 0.702197806490385  L 1.36613207138271 13.2406593449519  C 1.36613207138271 13.4747252854567  1.55465131902825 13.6615384615385  1.78974590913956 13.6615384615385  L 16.404423008526 13.6615384615385  C 16.5374954177369 13.6615384615385  16.6705678269478 13.7450549429087  16.7637185118793 13.8538461538462  C 16.8601960134846 13.9670329627404  16.9311679509132 14.1241758263221  16.9311679509132 14.3010989032452  C 16.9311705090375 14.3018327701599  16.9311717881025 14.3025666409062  16.9311717881025 14.3033005121992  C 16.9311717881025 14.6553061757411  16.6432088166868 14.9406631474155  16.2879884895509 14.9406631474155  C 16.2872479162365 14.9406631474155  16.2865073434752 14.9406618799258  16.2857667745791 15  L 1.25523839451341 15  C 1.25375352806023 14.9406649211773  1.25226865227699 14.9406677092975  1.25078377516133 14.9406677092975  C 0.601587999103691 14.9406677092975  0.0753108397660688 14.4191532391847  0.0753108397660688 13.7758325380235  C 0.0753108397660688 13.7736319351722  0.0753171327740891 13.7714313367388  0 13.7692307692308  L 0 0.703296709735577  Z M 0.720730895048516 0.282417578125  L 0.720730895048516 0.281318674879808  C 0.719983810925757 0.281314737278651  0.719236717556788 0.28131276846763  0.718489622866896 0.28131276846763  C 0.485759060532774 0.28131276846763  0.297093662892581 0.468270786943659  0.297093662892581 0.69889519034263  C 0.297093662892581 0.700362394038686  0.297101466187731 0.70182958754622  0.297117072452911 0.703296709735577  L 0.297117072452911 13.7725274789663  C 0.297110163144047 13.7739960917055  0.297106708475537 13.7754647184096  0.297106708475537 13.7769333471088  C 0.297106708475537 14.2988727798295  0.724086287249722 14.7219882900174  1.25079229013222 14.7219882900174  C 1.25227433096537 14.7219882900174  1.25375636978603 14.7219848666129  1.25523839451341 14.7219780198317  L 16.2857667745791 14.7219780198317  C 16.2865080165274 14.7219818960885  16.2872492675072 14.7219838342269  16.2879905197767 14.7219838342269  C 16.5207210821108 14.7219838342269  16.709386479751 14.5350258157509  16.709386479751 14.3044014123519  C 16.709386479751 14.3036668732293  16.7093845239392 14.3029323353854  16.7093806123359 14.3021978064904  C 16.7081988053135 14.1904607627288  16.6673704849134 14.0827002253463  16.5940511799015 13.9978021935096  C 16.5241881662029 13.9153846153846  16.4487804732092 13.8813186748798  16.404423008526 13.8813186748798  L 1.78974590913956 13.8813186748798  C 1.78900534026142 13.8813212098535  1.78826476751645 13.8813224773432  1.78752419422009 13.8813224773432  C 1.43230386708415 13.8813224773432  1.14434089566844 13.5959655056688  1.14434089566844 13.2439598421269  C 1.14434089566844 13.2432259758418  1.14434217471599 13.242492110104  1.14434473280537 13.2417582481971  L 1.14434473280537 0.703296709735577  C 1.14435351881875 0.702195877110819  1.14435791187697 0.701095014360441  1.14435791187697 0.699994147306293  C 1.14435791187697 0.469369743907321  0.955692514236777 0.282411725431293  0.722961951902656 0.282411725431293  C 0.722218262375857 0.282411725431293  0.721474574152015 0.282413676336031  0.720730895048516 0.282417578125  Z M 10.0413440826555 2.09670329026442  L 10.039126204873 2.09670329026442  L 11.9720029172018 8.48131867487981  L 14.1821138065425 8.48131867487981  C 14.2425713189504 8.332708648106  14.3494359079974 8.20717199282146  14.4870714103525 8.12307692307692  C 14.6545208493864 8.01538461538462  14.8685456460474 7.95054944411058  15.0969866028111 7.95054944411058  C 15.4485195490868 7.95054944411058  15.7457145806578 8.06153846153846  15.955303636915 8.26923076923077  C 16.1660016169021 8.47802198016827  16.2768952937714 8.77252747896635  16.2768952786102 9.11978021334135  C 16.2769040231837 9.12161448185621  16.2769083954888 9.12344876828082  16.2769083954888 9.12528305726416  C 16.2769083954888 9.76860375842536  15.7506312361512 10.2901182285382  15.1014354600936 10.2901182285382  C 15.0999525036831 10.2901182285382  15.0984695486004 10.2901154476263  15.0969866028111 10.2901098858173  C 14.9164366884804 10.2834601414165  14.7421198055794 10.2229439164068  14.5968561483305 10.1164835186298  C 14.4531830486612 10.0152578447553  14.3240983840596 9.89510508388029  14.213164034853 9.75934065504808  L 11.5927465592894 9.75934065504808  C 11.2689370398116 9.75934065504808  10.9573258178154 9.56593405949519  10.9473453829552 9.25384615384615  L 9.56782810092037 4.5  L 7.47415555258276 11.170329672476  L 7.46528405661387 11.182417578125  C 7.38213175674669 11.3022150278726  7.27301484939952 11.4020845694017  7.1459102927012 11.4747252704327  C 7.0128378834903 11.5494505408654  6.83651694848744 11.5967032902644  6.6701764331835 11.5142857121394  L 6.65465131902825 11.5065934044471  L 6.32973286065925 11.1846153846154  L 4.8060537956621 7.77252747896635  L 3.84127884025399 9.41648351862981  C 3.77809842388639 9.51068328332175  3.6980434371208 9.59262089653671  3.60507532641267 9.65824175180289  C 3.52665198687355 9.71792794584242  3.43207045849791 9.75312286087  3.33338582869577 9.75934065504808  L 2.26437081460474 9.75934065504808  C 2.07141582655536 9.75934065504808  1.90951106681649 9.64615384615385  1.801944206621 9.52307692307692  C 1.74913913509329 9.46277482489249  1.70509520440026 9.39545743020657  1.67108967519263 9.32307692307692  C 1.63950098570317 9.25969073548122  1.62174202852945 9.19042104909625  1.61896965343179 9.11978021334135  C 1.61896709534253 9.11904635145178  1.61896581629504 9.11831248573118  1.61896581629504 9.11757861946347  C 1.61896581629504 8.76557295592152  1.90692878771075 8.48021598424713  2.2621491148467 8.48021598424713  C 2.26288968308945 8.48021598424713  2.2636302507801 8.48021725171953  2.26437081460474 8.48021978665865  L 2.91531668539526 8.48021978665865  L 4.35582548515982 6.20109890324519  C 4.36659309298137 6.12303445544045  4.40326592470529 6.05073916552996  4.46006554384275 5.99560440204327  C 4.51716719198322 5.93744856548015  4.59275551591816 5.9005785854896  4.67409032534247 5.8912087890625  C 4.91805641142266 5.77582417367788  5.14871524596889 5.75824175180288  5.31505574611159 5.92197801983173  L 5.34832385220462 5.95494505709135  L 5.34832385220462 6.00109890324519  C 5.34832385220462 6.01098901742788  5.34832385220462 6.01318680889423  5.3749383401113 6.03956044170673  L 5.37715620273259 6.04285713641827  C 5.42667882194558 6.0856504742824  5.45831242370822 6.14521039091154  5.46587114726027 6.20989011418269  L 6.76000030144121 9.09560440204327  L 8.80931536993436 2.15604396033654  C 8.81675738341329 2.08203126673968  8.8435093576176 2.01121202583452  8.88694094071062 1.95054944411058  C 8.9069139673184 1.92139743486627  8.92916075154862 1.89384062005697  8.95347715289669 1.86813186598558  L 8.95791289330051 1.86263736478365  L 8.96013077108305 1.86153846153846  L 8.96123970997431 1.85934065504808  L 8.9634575725956 1.85824175180288  L 8.96900226705194 1.85274725060096  C 8.99469432959658 1.82836481502881  9.02252781352783 1.80629953827532  9.05217251712329 1.78681319110577  C 9.1129080360038 1.74460630551953  9.18353282306833 1.71850355161657  9.25732581781535 1.71098901742788  C 9.43033349900264 1.65146867687025  9.61986244136996 1.66052468207641  9.78628862282391 1.73626373197115  C 9.93183922677774 1.80065404718429  10.0298498135466 1.9391607571616  10.0413440826555 2.09670329026442  Z M 9.11649085152683 2.01648351862981  L 9.11649085152682 2.01538461538462  L 9.11427297374429 2.01868132512019  C 9.09780643858603 2.03520350465078  9.08295442947666 2.05323256860064  9.06991550906107 2.07252747896635  C 9.04765503856305 2.10204491510072  9.03386121220308 2.13697678576715  9.02999378478168 2.1736263671875  L 9.02999378478168 2.18901098257212  L 6.80103096461187 9.73296703725961  L 5.24408380868293 6.25934065504808  L 5.24408380868293 6.23516482872596  L 5.24408380868293 6.23406594050481  C 5.24408380868293 6.22527472956731  5.24408380868293 6.22307692307692  5.21636038188499 6.19560440204327  C 5.21562364154536 6.19486927508077  5.2148843445532 6.19413666855912  5.21414250410245 6.19340659555288  C 5.18863695508704 6.16813186598558  5.14649736818636 6.1263736328125  5.13097225403111 6.05604396033654  C 5.06110924033247 6.00769230769231  4.94799770084189 6.00109890324519  4.75060695722745 6.09780219350962  L 4.72731928599458 6.10989011418269  L 4.70070481324914 6.10989011418269  C 4.66829314677462 6.11274550064164  4.63817778641369 6.12766690685468  4.61642560912528 6.15164834735577  C 4.59222516344493 6.17320366866004  4.57716748899478 6.20304648583474  4.5742860222246 6.23516482872596  L 4.5742860222246 6.26703296274038  L 3.03951759863727 8.7  L 2.265479753496 8.7  C 2.26473851660117 8.69999612379613  2.2639972706758 8.69999418568408  2.26325602346002 8.69999418568408  C 2.03052546112589 8.69999418568408  1.8418600634857 8.88695220416011  1.8418600634857 9.11757660755908  C 1.8418600634857 9.11831114665512  1.84186201929741 9.11904568447285  1.8418659309004 9.11978021334135  C 1.8418659309004 9.14175823317307  1.84962848797802 9.18131867487981  1.8729161592109 9.23186813401442  C 1.89840974485419 9.28519203018314  1.93125219419067 9.33474954748308  1.97050258454623 9.37912088341346  C 2.05589071240011 9.47802198016827  2.16123969481307 9.53956044170673  2.265479753496 9.53956044170673  L 3.33449476758704 9.53956044170673  C 3.38723855613187 9.53291759488995  3.437116746965 9.51200625432855  3.47865653538813 9.47912088341346  C 3.54830885649278 9.42973139573143  3.60841210906277 9.36831083122462  3.65608640928225 9.29780219350961  L 4.8337772072988 7.28901098257211  L 6.51714316941353 11.0582417518029  L 6.78550585045662 11.3241758263221  C 6.85425992526398 11.3516483473558  6.94075699200913 11.3373626352163  7.03834341734446 11.2835164813702  C 7.13051460629999 11.2304195785772  7.21056648475006 11.1589500568818  7.27343800745577 11.0736263671875  L 9.57669958172803 3.73296703725961  L 11.1691327215325 9.22197801983173  L 11.1691327215325 9.23736263521634  C 11.1691327215325 9.38791207932692  11.3277106797588 9.53956044170673  11.5927465592894 9.53956044170673  L 14.3196219561573 9.53956044170673  L 14.3528900622503 9.5813186748798  C 14.4671105406321 9.72307692307692  14.5924203927654 9.847252734375  14.7221660004638 9.93406594050481  C 14.8519115930009 10.0219780348558  14.9783303840254 10.070329672476  15.0969866028111 10.070329672476  C 15.0988402188899 10.0703403832154  15.1006938625422 10.0703457386192  15.1025475101334 10.0703457386192  C 15.6292535130159 10.0703457386192  16.0562330917901 9.64723022843121  16.0562330917901 9.12529079571055  C 16.0562330917901 9.12345392321095  16.0562276874785 9.1216170546137  16.0562168789241 9.11978021334134  C 16.0562168789241 8.81978021334134  15.9597393773188 8.58461538461538  15.7989435564712 8.42527472956731  C 15.6370387967323 8.26483517127404  15.3997263288385 8.17032967247596  15.0969866028111 8.17032967247596  C 14.9244534421659 8.16908430020673  14.7551571934293 8.21674457126107  14.6090544458119 8.30769230769231  C 14.4927459268098 8.37389927607105  14.4080678575999 8.48353868333591  14.3739598557006 8.61208790564904  L 14.3562168789241 8.7  L 11.8078802796804 8.7  L 9.81844779002569 2.13186813401442  L 9.81844779002569 2.11538461538462  C 9.81844779002569 2.04835165264423  9.77630818796376 1.97912088341346  9.68537538081478 1.93406594050481  C 9.5664413530221 1.88250298311979  9.43181738854965 1.87934545212628  9.31055477846747 1.92527472956731  L 9.29392072542095 1.93076923076923  L 9.2750687945919 1.93076923076923  C 9.23836192113212 1.93511603560546  9.20350856768301 1.94915893515367  9.17415555258276 1.97142857572115  C 9.15455320418229 1.98463659698187  9.13601522445463 1.99933276713681  9.11870871414812 2.01538461538462  L 9.11649085152683 2.01648351862981  Z " fill-rule="nonzero" fill="#1e87f0" stroke="none" transform="matrix(1 0 0 1 30 1206 )" />
  </g>
</svg>