<?xml version="1.0" encoding="utf-8"?>
<svg version="1.1" xmlns:xlink="http://www.w3.org/1999/xlink" width="17px" height="15px" xmlns="http://www.w3.org/2000/svg">
  <g transform="matrix(1 0 0 1 -30 -1206 )">
    <path d="M 1.60503685410611 9.15370231205006  C 1.60503685410611 9.33433058430137  1.84676442223837 9.69558712880399  2.14948867914244 9.69558712880399  L 3.23839234465843 9.69558712880399  C 3.35925613644622 9.69558712880399  3.5411166015625 9.57442033090641  3.66198037790698 9.3949139909195  L 4.75201359829215 7.53141361256544  L 6.38536908884448 11.1978309626554  L 6.68809333030523 11.4985041158786  C 6.9298208984375 11.6185489968505  7.23254515534157 11.3784592349067  7.35453851744186 11.1978309626554  L 9.59221293604651 4.04562453472677  L 11.1058342051235 9.27374719302192  C 11.1058342051235 9.51495885655268  11.3475617732558 9.69558712880399  11.6502860301599 9.69558712880399  L 14.3725451553416 9.69558712880399  C 14.6154022937863 9.99513836510144  14.9181265506904 10.2363500286322  15.219721237282 10.2363500439709  C 15.2216087616309 10.2363598339052  15.2234963084993 10.2363647288974  15.2253838585841 10.2363647288974  C 15.8242733692536 10.2363647288974  16.3097692428501 9.75415832534065  16.3097692428501 9.15932658160515  C 16.3097692428501 9.15745181550118  16.309764314439 9.15557705259231  16.3097544576672 9.15370231205006  C 16.3097544576672 8.49289453125  15.8861664244186 8.07217651239365  15.219721237282 8.07217651239365  C 14.7961332040334 8.07217651239365  14.4335418286701 8.31226625899869  14.3725451553416 8.61293941222186  L 11.9530102716206 8.61293941222186  L 9.95593386627907 2.0014958841214  C 9.95593386627907 1.76140613751636  9.653209609375 1.58077786526505  9.28948867914244 1.70194464782395  C 9.16862488735465 1.70194464782395  9.04776111101017 1.82198952879581  9.04776111101017 1.82198952879581  C 9.04776111101017 1.82198952879581  8.92689731922238 1.94203440976767  8.92689731922238 2.06207927540085  L 6.74796044876454 9.45549738219895  L 5.29646542332849 6.20867613403959  C 5.29646542332849 6.08863125306774  5.1756016315407 6.08863125306774  5.17560164698401 5.96858638743455  C 5.05360828488372 5.8485415064627  4.87287739007994 5.8485415064627  4.63002025163518 5.96858638743455  C 4.50031431378808 5.9772759056348  4.39704147187986 6.07984901739213  4.38829266805959 6.20867613403959  L 2.87467141442587 8.61293941222186  L 2.14948867914244 8.61293941222186  C 2.14873406094998 8.61293628271631  2.14797943700165 8.61293471795842  2.14722481223113 8.61293471795842  C 1.84778006116092 8.61293471795842  1.60503212781979 8.8540379163031  1.60503212781979 9.15145378393519  C 1.60503212781979 9.15220329575689  1.60503370325199 9.15295280676185  1.60503685410611 9.15370231205006  Z M 16.9750700744913 14.4435302938891  C 16.9750700744913 14.1428571406659  16.733342506359 13.9027673940609  16.5514820412427 14  L 1.66490397256541 14  C 1.66414738483265 13.9027705399239  1.66339079129849 13.9027721128605  1.66263419693604 13.9027721128605  C 1.36318944586584 13.9027721128605  1.1204415125247 13.6616689145159  1.1204415125247 13.3642530468838  C 1.1204415125247 13.3631295487729  1.12044505239572 13.3620060534126  1.12045213208576 13.3608825773069  L 1.12045213208576 0.560957373813809  C 1.12045528298286 0.560207863412713  1.12045685843656 0.559458347294704  1.12045685843656 0.55870883035999  C 1.12045685843656 0.261292962727899  0.87770892509542 0.0201897643832231  0.578264174025219 0.0201897643832231  C 0.577509549233175 0.0201897643832231  0.576754925263408 0.0201913291412  0.576000307049419 0.0201944586469241  C 0.575246868763844 0.0201913389203383  0.574493424749426 0.0201897790519623  0.573739979916605 0.0201897790519623  C 0.274295228846404 0.0201897790519623  0.0315472955052681 0.261292977396638  0.0315472955052681 0.558708845028729  C 0.0315472955052681 0.55908438262337  0.0315476910080889 0.559459920115256  0 0.559835456888089  L 0 13.9027673940609  C 0.0315421803481184 13.9042663995029  0.0315390295053372 13.9057654163786  0.0315390295053372 13.9072644348875  C 0.0315390295053372 14.502096178623  0.517034903101815 14.9843025821797  1.11592441377133 14.9843025821797  C 1.11743365814294 14.9843025821797  1.11894290087011 14.9842994526854  1.12045213208576 15  L 16.4306182494549 15  C 16.4313728676477 14.9842963232228  16.4321274915954 14.9842978879807  16.4328821163663 14.9842978879807  C 16.7323268674365 14.9842978879807  16.9750748007776 14.743194689636  16.9750748007776 14.4457788220039  C 16.9750748007776 14.4450293101819  16.9750732253454 14.4442797991776  16.9750700744913 14.4435302938891  Z " fill-rule="nonzero" fill="#1e87f0" stroke="none" transform="matrix(1 0 0 1 30 1206 )" />
  </g>
</svg>