<?xml version="1.0" encoding="utf-8"?>
<svg version="1.1" xmlns:xlink="http://www.w3.org/1999/xlink" width="16px" height="15px" xmlns="http://www.w3.org/2000/svg">
  <g transform="matrix(1 0 0 1 -30 -1450 )">
    <path d="M 9.69911504424778 6.45825317429781  C 9.69911504424778 6.07560600230858  9.38230088495575 5.76567910734898  9.00884955752213 5.76567910734898  C 8.6 5.76567910734898  8.28318584070796 6.07560600230858  8.28318584070796 6.45825317429781  C 8.28318584070796 6.84090034628704  8.6 7.15082724124663  9.00884955752213 7.15082724124663  C 9.38230088495575 7.15082724124663  9.69911504424778 6.84090034628704  9.69911504424778 6.45825317429781  Z M 4.74336283185841 6.45825317429781  C 4.74336283185841 6.07560600230858  4.42654867256637 5.76567910734898  4.05309734513274 5.76567910734898  C 3.64424778761062 5.76567910734898  3.32743362831858 6.07560600230858  3.32743362831858 6.45825317429781  C 3.32743362831858 6.84090034628704  3.64424778761062 7.15082724124663  4.05309734513274 7.15082724124663  C 4.42654867256637 7.15082724124663  4.74336283185841 6.84090034628704  4.74336283185841 6.45825317429781  Z M 14.6725663716814 11.5140438630242  C 16.2318584070796 9.44324740284725  16.2725663716814 6.58118507118123  14.6902654867257 4.44978838014621  C 13.8389380530973 3.30704116968065  12.6495575221239 2.54347826086957  11.3451327433628 2.19892266256252  L 11.3451327433628 2.2006540977299  C 11.0424778761062 1.8716814159292  10.7008849557522 1.56868026163909  10.3185840707965 1.29857637552905  C 7.4212389380531 -0.761831473643709  3.35398230088496 -0.133320507887649  1.23893805309735 2.70103886110042  C -0.465486725663716 5.00384763370527  -0.3929203539823 8.1013851481339  1.34513274336283 10.3020392458638  L 1.35929203539823 12.5979222777992  C 1.35929203539823 12.6533282031551  1.36814159292035 12.708734128511  1.3858407079646 12.7606771835321  C 1.47964601769912 13.053289726818  1.79823008849558 13.2143131973836  2.09557522123894 13.1225471335129  L 4.33628318584071 12.4317045017314  C 4.92920353982301 12.6377452866487  5.54159292035398 12.75548287803  6.15044247787611 12.7883801462101  L 6.14159292035398 12.7953058868796  C 7.71858407079646 13.919007310504  9.7858407079646 14.2566371681416  11.6814159292035 13.6437091188919  L 13.9309734513274 14.3605232781839  C 13.987610619469 14.3778376298576  14.046017699115 14.3882262408619  14.1061946902655 14.3882262408619  C 14.4194690265487 14.3882262408619  14.6725663716814 14.1406310119277  14.6725663716814 13.8341669873028  L 14.6725663716814 11.5140438630242  Z M 10.7433628318584 9.43632166217776  C 9.32566371681416 11.3391689111197  6.78761061946903 12.0421315890727  4.58407079646018 11.2023855328973  L 4.3716814159292 11.1158137745287  L 2.61946902654867 11.652558676414  L 2.60176991150442 9.85186610234706  L 2.46017699115044 9.69603693728357  C 0.962831858407081 7.9091958445556  0.863716814159292 5.33455175067334  2.26548672566372 3.44555598307041  C 3.9716814159292 1.15659869180454  7.2424778761062 0.651019622931897  9.57522123893805 2.30280877260485  C 11.9150442477876 3.96671796844941  12.4336283185841 7.16121585225087  10.7433628318584 9.43632166217776  Z M 13.6637168141593 5.1943055021162  C 14.9486725663717 6.91881492881878  14.8761061946903 9.2666410157753  13.5221238938053 10.908041554444  L 13.3805309734513 11.0811850711812  L 13.3982300884956 12.8818776452482  L 11.6637168141593 12.3105040400154  L 11.4513274336283 12.397075798384  C 10.4601769911504 12.7572143131974  9.40353982300885 12.7866487110427  8.42477876106195 12.5182762601  L 8.4212389380531 12.5165448249327  C 9.72920353982301 12.1235090419392  10.9150442477876 11.3270488649481  11.7699115044248 10.1808387841478  C 13.1221238938053 8.35763755290496  13.341592920354 6.06694882647172  12.5557522123894 4.11388995767603  L 12.5663716814159 4.12081569834552  C 12.9734513274336 4.40650250096191  13.3469026548673 4.76317814544055  13.6637168141593 5.1943055021162  Z M 7.2212389380531 6.45825317429781  C 7.2212389380531 6.07560600230858  6.90442477876106 5.76567910734898  6.53097345132743 5.76567910734898  C 6.12212389380531 5.76567910734898  5.80530973451328 6.07560600230858  5.80530973451328 6.45825317429781  C 5.80530973451328 6.84090034628704  6.12212389380531 7.15082724124663  6.53097345132743 7.15082724124663  C 6.90442477876106 7.15082724124663  7.2212389380531 6.84090034628704  7.2212389380531 6.45825317429781  Z " fill-rule="nonzero" fill="#278cff" stroke="none" transform="matrix(1 0 0 1 30 1450 )" />
  </g>
</svg>