<?xml version="1.0" encoding="utf-8"?>
<svg version="1.1" xmlns:xlink="http://www.w3.org/1999/xlink" width="9px" height="7px" xmlns="http://www.w3.org/2000/svg">
  <g transform="matrix(1 0 0 1 -49 -2154 )">
    <path d="M 8.91129807692308 3.9090625  C 9.028125 3.6575  9.028125 3.3665625  8.91346153846154 3.1171875  L 8.91129807692308 3.115  L 8.90913461538461 3.1128125  C 7.95504807692308 1.071875  6.47740384615385 0.021875  4.51081730769231 0.021875  C 2.54423076923077 0.021875  1.06658653846154 1.0740625  0.110336538461539 3.1128125  L 0.110336538461539 3.115  C -0.00649038461538363 3.3665625  -0.00649038461538363 3.6596875  0.110336538461539 3.91125  C 1.06658653846154 5.95  2.54423076923077 7  4.51081730769231 7  C 6.47740384615385 7  7.95504807692308 5.9478125  8.91129807692308 3.9090625  Z M 7.56346153846154 3.5109375  C 6.83653846153846 4.94375  5.85432692307692 5.6  4.51081730769231 5.6  C 3.16730769230769 5.6  2.18725961538462 4.94375  1.45817307692308 3.5109375  C 2.18509615384615 2.078125  3.16730769230769 1.421875  4.51081730769231 1.421875  C 5.85432692307692 1.421875  6.834375 2.078125  7.56346153846154 3.5109375  Z " fill-rule="nonzero" fill="#ffffff" stroke="none" transform="matrix(1 0 0 1 49 2154 )" />
  </g>
</svg>