<?xml version="1.0" encoding="utf-8"?>
<svg version="1.1" xmlns:xlink="http://www.w3.org/1999/xlink" width="19px" height="14px" xmlns="http://www.w3.org/2000/svg">
  <g transform="matrix(1 0 0 1 -38 -2145 )">
    <path d="M 14.1827830188679 12.5493421052632  C 14.1827830188679 13.2614987563608  14.744538945967 13.8388157894737  15.4375 13.8388157894737  C 16.130461054033 13.8388157894737  16.6922169811321 13.2614987563608  16.6922169811321 12.5493421052632  C 16.6922169811321 11.8371854541656  16.130461054033 11.2598684210526  15.4375 11.2598684210526  C 14.744538945967 11.2598684210526  14.1827830188679 11.8371854541656  14.1827830188679 12.5493421052632  Z M 1.61320754716981 11.7894736842105  L 1.61320754716981 1.65789473684211  L 17.3867924528302 1.65789473684211  L 17.3867924528302 7.48355263157895  L 19 7.48355263157895  L 19 0.736842105263158  C 19 0.329276315789474  18.6795990566038 0  18.2830188679245 0  L 0.716981132075472 0  C 0.320400943396226 0  0 0.329276315789474  0 0.736842105263158  L 0 12.7105263157895  C 0 13.1180921052632  0.320400943396226 13.4473684210526  0.716981132075472 13.4473684210526  L 8.60377358490566 13.4473684210526  L 8.60377358490566 11.7894736842105  L 1.61320754716981 11.7894736842105  Z " fill-rule="nonzero" fill="#ffffff" stroke="none" transform="matrix(1 0 0 1 38 2145 )" />
  </g>
</svg>