<?xml version="1.0" encoding="utf-8"?>
<svg version="1.1" xmlns:xlink="http://www.w3.org/1999/xlink" width="20px" height="19px" xmlns="http://www.w3.org/2000/svg">
  <g transform="matrix(1 0 0 1 -38 -2195 )">
    <path d="M 18.3265306122449 15  L 1.6734693877551 15  L 1.6734693877551 17  L 18.3265306122449 17  L 18.3265306122449 15  Z M 0.0408163265306121 14.7869565217391  C 0.0408163265306121 13.9661565217391  0.699102040816326 13.3  1.51020408163265 13  L 18.4897959183673 13  C 19.3008979591837 13.3  19.9591836734694 13.9661565217391  19.9591836734694 14.7869565217391  L 19.9591836734694 17.4304347826087  C 19.9591836734694 18.2512347826087  19.3008979591837 18.9173913043478  18.4897959183673 19  L 1.51020408163265 19  C 0.69868363290169 18.9173913043478  0.0408163265306121 18.2516581932267  0.0408163265306121 17.4304347826087  L 0.0408163265306121 14.7869565217391  Z M 13.1020408163265 2  L 1.6734693877551 2  L 1.6734693877551 9  L 13.1020408163265 9  L 13.1020408163265 2  Z M 0.0408163265306121 1.5695652173913  C 0.0408163265306121 0.748765217391305  0.699102040816326 0.0826086956521744  1.51020408163265 0  L 13.265306122449 0  C 14.0764081632653 0.0826086956521736  14.734693877551 0.748765217391304  14.734693877551 1.5695652173913  L 14.734693877551 9.5  C 14.734693877551 10.3208  14.0764081632653 10.9869565217391  13.265306122449 11  L 1.51020408163265 11  C 0.69868363290169 10.9869565217391  0.0408163265306121 10.321223410618  0.0408163265306121 9.5  L 0.0408163265306121 1.5695652173913  Z " fill-rule="nonzero" fill="#ffffff" stroke="none" transform="matrix(1 0 0 1 38 2195 )" />
  </g>
</svg>