<?xml version="1.0" encoding="utf-8"?>
<svg version="1.1" xmlns:xlink="http://www.w3.org/1999/xlink" width="17px" height="20px" xmlns="http://www.w3.org/2000/svg">
  <g transform="matrix(1 0 0 1 -38 -2246 )">
    <path d="M 8.60108108108108 17.677  C 9.00708500528101 17.677  9.33621621621622 17.3412135623731  9.33621621621622 16.927  C 9.33621621621622 16.5127864376269  9.00708500528101 16.177  8.60108108108108 16.177  L 4.62350990990991 16.177  L 4.62350990990991 9.896  C 4.62350990990991 7.858  5.61055135135135 5.939  7.32390630630631 4.721  L 7.41212252252252 4.661  C 7.64179079518267 4.52764210464783  7.78362842593331 4.2787821742331  7.78362842593331 4.00917768188752  C 7.78362842593331 3.59496411951443  7.45449721499811 3.25917768188752  7.04849329079817 3.25917768188752  C 6.89810419895451 3.25917768188752  6.75133306224712 3.30623433623784  6.62797837837838 3.394  L 6.4241009009009 3.532  C 4.37981306160947 4.98042220915936  3.15846192160959 7.35676227194821  3.15323963963964 9.896  L 3.15323963963964 16.177  L 0.75963963963964 16.177  C 0.353635715439705 16.177  0.0245045045045046 16.5127864376269  0.0245045045045046 16.927  C 0.0245045045045046 17.3412135623731  0.353635715439705 17.677  0.75963963963964 17.677  L 8.60108108108108 17.677  Z M 11.9336936936937 18.465  L 8.60108108108108 18.465  C 8.19507715688115 18.465  7.86594594594594 18.8007864376269  7.86594594594594 19.215  C 7.86594594594594 19.6292135623731  8.19507715688115 19.965  8.60108108108108 19.965  L 11.9336936936937 19.965  C 12.3396976178936 19.965  12.6688288288288 19.6292135623731  12.6688288288288 19.215  C 12.6688288288288 18.8007864376269  12.3396976178936 18.465  11.9336936936937 18.465  Z M 10.0135207207207 2.894  C 10.0135203611262 3.30892792080663  10.3429322714524 3.64544823414803  10.749636036036 3.646  C 12.2714773197083 3.64393483728758  13.7385993709755 4.22494844312241  14.8605117117117 5.274  C 14.9956362690352 5.39998715575918  15.1720681272193 5.46984795308657  15.3551212725314 5.46984795308657  C 15.5621538384519 5.46984795308657  15.7595361231178 5.38054740278154  15.8985225225225 5.224  C 16.0221002720843 5.08582588506783  16.0906097778347 4.90552736441126  16.0906097778347 4.7184782101342  C 16.0906097778347 4.50741618392106  16.0034400870149 4.30612315385759  15.8504936936937 4.164  C 14.6423206106698 3.04366925081655  13.1095458027997 2.35497932210217  11.483790990991 2.202  L 11.483790990991 0.785  C 11.483790990991 0.370786437626905  11.1546597800558 0.035  10.7486558558559 0.035  C 10.3426519316559 0.035  10.0135207207207 0.370786437626905  10.0135207207207 0.785  L 10.0135207207207 2.684  C 10.0135207207207 2.721  10.0292036036036 2.754  10.0341045045045 2.789  C 10.0292036036036 2.825  10.0135207207207 2.857  10.0135207207207 2.894  Z M 12.5316036036036 11.24  L 14.6958414414414 11.24  C 15.1018453656414 11.24  15.4309765765766 10.9042135623731  15.4309765765766 10.49  C 15.4309765765766 10.0757864376269  15.1018453656414 9.74  14.6958414414414 9.74  L 12.5316036036036 9.74  C 12.1255996794037 9.74  11.7964684684685 10.0757864376269  11.7964684684685 10.49  C 11.7964684684685 10.9042135623731  12.1255996794037 11.24  12.5316036036036 11.24  Z M 16.1386666666667 11.974  L 12.5316036036036 11.974  C 12.1255996794037 11.974  11.7964684684685 12.3097864376269  11.7964684684685 12.724  C 11.7964684684685 13.1382135623731  12.1255996794037 13.474  12.5316036036036 13.474  L 16.1386666666667 13.474  C 16.5446705908666 13.474  16.8738018018018 13.1382135623731  16.8738018018018 12.724  C 16.8738018018018 12.3097864376269  16.5446705908666 11.974  16.1386666666667 11.974  Z " fill-rule="nonzero" fill="#ffffff" stroke="none" transform="matrix(1 0 0 1 38 2246 )" />
  </g>
</svg>