<?xml version="1.0" encoding="utf-8"?>
<svg version="1.1" xmlns:xlink="http://www.w3.org/1999/xlink" width="11px" height="11px" xmlns="http://www.w3.org/2000/svg">
  <g transform="matrix(1 0 0 1 -47 -2252 )">
    <path d="M 10.9744927536232 2.81293913043478  C 10.9728058038696 1.26403947578561  9.71759530682308 0.00882897873914014  8.16869565217391 0.00714202898550759  L 2.8631884057971 0.00714202898550646  C 1.31428875114793 0.00882897873913901  0.0590782541014551 1.26403947578561  0.0573913043478249 2.81293913043478  L 0.0573913043478237 8.11844637681159  C 0.0590782541014574 9.66734603146076  1.31428875114793 10.9225565285072  2.8631884057971 10.9242434782609  L 8.16869565217391 10.9242434782609  C 9.71759530682308 10.9225565285072  10.9728058038696 9.66734603146076  10.9744927536232 8.1184463768116  L 10.9744927536232 2.81293913043478  Z M 9.44405797101449 2.81293913043478  L 9.44405797101449 8.1184463768116  C 9.44405797101449 8.82142608695652  8.87167536231884 9.39380869565217  8.16869565217391 9.39380869565217  L 2.8631884057971 9.39380869565217  C 2.16020869565217 9.39380869565217  1.58782608695652 8.82142608695652  1.58782608695652 8.1184463768116  L 1.58782608695652 2.81293913043478  C 1.58782608695652 2.10995942028986  2.16020869565217 1.5375768115942  2.8631884057971 1.5375768115942  L 8.16869565217391 1.5375768115942  C 8.87167536231884 1.5375768115942  9.44405797101449 2.10995942028986  9.44405797101449 2.81293913043478  Z " fill-rule="nonzero" fill="#ffffff" stroke="none" transform="matrix(1 0 0 1 47 2252 )" />
  </g>
</svg>