<?xml version="1.0" encoding="utf-8"?>
<svg version="1.1" xmlns:xlink="http://www.w3.org/1999/xlink" width="7px" height="10px" xmlns="http://www.w3.org/2000/svg">
  <g transform="matrix(1 0 0 1 -51 -2195 )">
    <path d="M 1.68823529411765 6.38464  L 1.68823529411765 6.38592  L 5.31176470588236 8.14592  L 5.31176470588236 1.7728  L 1.68823529411765 3.5328  L 1.68823529411765 6.38464  Z M 4.81369411764706 0.226559999999999  L 4.81369411764706 0.22784  C 5.01948735545247 0.127911905726116  5.24639997711827 0.0758889096112448  5.47647063688011 0.0758889096112448  C 6.29500325862757 0.0758889096112448  6.95861383180671 0.720374050681661  6.95882352941177 1.51552  L 6.95882352941177 8.40448  C 6.95861383180671 9.19962594931834  6.29500325862757 9.84411109038875  5.47647063688011 9.84411109038875  C 5.24639997711826 9.84411109038875  5.01948735545247 9.79208809427388  4.81369411764706 9.69216  L 0.0411764705882359 7.37536  L 0.0411764705882359 2.54464  L 4.81369411764706 0.226559999999999  Z " fill-rule="nonzero" fill="#ffffff" stroke="none" transform="matrix(1 0 0 1 51 2195 )" />
  </g>
</svg>