<?xml version="1.0" encoding="utf-8"?>
<svg version="1.1" xmlns:xlink="http://www.w3.org/1999/xlink" width="20px" height="17px" xmlns="http://www.w3.org/2000/svg">
  <g transform="matrix(1 0 0 1 -38 -2300 )">
    <path d="M 19.8698660714286 2.21514473684211  C 19.8600446428571 1.01127631578947  18.93125 0.0201315789473685  17.8006696428571 0.0201315789473685  L 12.3095982142857 0.0201315789473685  C 12.0169642857143 0.0201315789473685  11.7444196428571 0.141592105263158  11.5424107142857 0.353868421052631  L 10.2301339285714 1.74988157894737  C 10.0080357142857 1.98251315789474  9.70513392857143 2.11403947368421  9.39241071428572 2.11403947368421  L 2.07410714285714 2.11403947368421  C 0.933482142857143 2.11403947368421  0.00491071428571394 3.09511842105263  0 4.30905263157895  L 0 14.7987236842105  C 0.00491071428571394 16.0126578947368  0.933482142857143 16.9937368421053  2.07410714285714 17  L 17.8006696428571 17  C 18.9412946428571 16.9937368421053  19.8698660714286 16.0126578947368  19.8698660714286 14.7987236842105  L 19.8698660714286 2.21514473684211  Z M 1.59977678571428 4.31911842105263  L 1.60982142857143 4.31911842105263  C 1.60982142857143 4.046  1.81160714285714 3.82343421052631  2.07410714285714 3.82343421052631  L 10.0685267857143 3.82343421052631  C 10.3915178571429 3.82343421052631  10.6944196428571 3.69190789473684  10.90625 3.45927631578947  L 12.2993303571429 1.97222368421053  C 12.4506696428571 1.81027631578947  12.6526785714286 1.72952631578947  12.8747767857143 1.72952631578947  L 17.8006696428571 1.72952631578947  C 18.053125 1.72952631578947  18.2649553571429 1.95209210526316  18 2.22521052631579  L 18 14.8087894736842  C 18.2649553571429 15.0819078947368  18.0631696428571 15.3044736842105  17.8006696428571 15  L 2.0640625 15  C 1.81160714285714 15.3044736842105  1.59977678571428 15.0819078947368  1.59977678571428 14.8087894736842  L 1.59977678571428 4.31911842105263  Z " fill-rule="nonzero" fill="#ffffff" stroke="none" transform="matrix(1 0 0 1 38 2300 )" />
  </g>
</svg>