<?xml version="1.0" encoding="utf-8"?>
<svg version="1.1" xmlns:xlink="http://www.w3.org/1999/xlink" width="19px" height="18px" xmlns="http://www.w3.org/2000/svg">
  <g transform="matrix(1 0 0 1 -38 -2351 )">
    <path d="M 17.105200661157 0  L 1.86339438016529 0  C 0.882856198347107 0.0254867256637168  0.0879338842975207 0.831886725663717  0 1.82658265486726  L 0 12.5310074336283  C 0.0879338842975207 13.5257033628319  0.882856198347108 14.3320014159292  1.86339438016529 14.3320014159292  L 9.73553719008264 14.3320014159292  C 10.0685512012203 14.3320014159292  10.3385123966942 14.0581423177726  10.3385123966942 13.72032  C 10.3385123966942 13.3824976822274  10.0685512012203 13.1086385840708  9.73553719008264 13.1086385840708  L 1.86339438016529 13.1086385840708  C 1.54890188854391 13.1086385890379  1.29393979293122 12.8500407992953  1.29388429752066 12.5310074336283  L 1.29388429752066 1.82658265486726  C 1.29388429752066 1.50750947573103  1.54886264664579 1.24884955752212  1.86339438016529 1.24884955752212  L 17.105200661157 1.24884955752212  C 17.4197323946765 1.24884955752212  17.6747107438017 1.50750947573103  17.6747107438017 1.82658265486726  L 17.6747107438017 7.90088495575221  C 17.6747107438017 8.23870727352482  17.9446719392756 8.51256637168142  18.2776859504132 8.51256637168142  C 18.6106999615509 8.51256637168142  18.8806611570248 8.23870727352482  18.8806611570248 7.90088495575221  L 18.8806611570248 1.82658265486726  C 18.8806611570248 0.831886725663717  18.0857388429752 0.0254867256637168  17.105200661157 0  Z M 9.48429752066116 16.6754548672566  L 4.20826446280992 16.6754548672566  C 3.87525045167228 16.6754548672566  3.60528925619835 16.9493139654132  3.60528925619835 17.2871362831858  C 3.60528925619835 17.6249586009584  3.87525045167228 17.898817699115  4.20826446280992 17.898817699115  L 9.48429752066116 17.898817699115  C 9.8173115317988 17.898817699115  10.0872727272727 17.6249586009584  10.0872727272727 17.2871362831858  C 10.0872727272727 16.9493139654132  9.8173115317988 16.6754548672566  9.48429752066116 16.6754548672566  Z " fill-rule="nonzero" fill="#ffffff" stroke="none" transform="matrix(1 0 0 1 38 2351 )" />
  </g>
</svg>