<?xml version="1.0" encoding="utf-8"?>
<svg version="1.1" xmlns:xlink="http://www.w3.org/1999/xlink" width="12px" height="10px" xmlns="http://www.w3.org/2000/svg">
  <g transform="matrix(1 0 0 1 -42 -2353 )">
    <path d="M 11.99478125 5.258078125  C 11.994796875 5.396125  11.8829375 5.50796875  11.74490625 5.50796875  L 9.2721875 5.504515625  C 9.13884375 5.54025  9.001796875 5.461140625  8.966125 5.32784375  L 8.59328125 4.142265625  L 7.4254375 9.6249375  C 7.4254375 9.6249375  7.401640625 9.914109375  7.24546875 9.914109375  C 7.089296875 9.914109375  6.82515625 9.9185  6.82515625 9.9185  C 6.696109375 9.953078125  6.56346875 9.876515625  6.528890625 9.747421875  L 5.0798125 2.596671875  L 3.981296875 7.762828125  C 3.94596875 7.892375  3.794734375 8.000421875  3.66278125 7.965734375  L 3.27409375 7.97103125  C 3.137796875 8.006859375  2.997765625 7.927453125  2.961234375 7.793703125  L 2.228578125 5.50796875  L 0.249890625 5.50796875  C 0.11190625 5.50796875  0 5.396109375  0 5.258078125  L 0 4.758296875  C 0 4.6203125  0.11190625 4.50840625  0.249890625 4.50840625  L 2.70971875 4.50034375  C 2.859171875 4.49559375  2.986046875 4.51265625  3.022578125 4.646453125  L 3.403609375 5.835390625  L 4.476140625 0.227468749999999  C 4.476140625 0.227468749999999  4.529265625 0.0572499999999989  4.70109375 0.0572499999999989  C 4.872875 0.0572499999999989  5.234015625 0.0502499999999988  5.234015625 0.0502499999999988  C 5.363109375 0.0156718749999989  5.49575 0.092234374999999  5.53034375 0.221328124999999  L 6.96646875 7.317046875  L 8.02815625 2.220453125  C 8.062734375 2.091359375  8.164203125 1.9835625  8.293234375 2.018140625  L 8.720046875 2.0129375  C 8.85334375 1.977203125  8.990375 2.0563125  9.026109375 2.18965625  L 9.75525 4.50840625  L 11.744890625 4.50840625  C 11.8829375 4.50840625  11.99478125 4.6203125  11.99478125 4.758296875  L 11.99478125 5.258078125  Z " fill-rule="nonzero" fill="#ffffff" stroke="none" transform="matrix(1 0 0 1 42 2353 )" />
  </g>
</svg>