<?xml version="1.0" encoding="utf-8"?>
<svg version="1.1" xmlns:xlink="http://www.w3.org/1999/xlink" width="3px" height="3px" xmlns="http://www.w3.org/2000/svg">
  <g transform="matrix(1 0 0 1 -52 -2364 )">
    <path d="M 2.97792 1.49579076923077  C 2.97792 0.727643076923076  2.3303424 0.104972307692307  1.5315456 0.104972307692308  C 0.7327488 0.104972307692308  0.0851711999999986 0.727643076923077  0.0851711999999986 1.49579076923077  C 0.0851711999999986 2.26386461538462  0.732748799999998 2.88653538461538  1.5315456 2.88653538461538  C 2.3303424 2.88653538461538  2.97792 2.26386461538462  2.97792 1.49579076923077  Z M 1.5316224 2.00045535453503  C 1.2417550985266 2.00045535453503  1.00677121727744 1.7745093283398  1.0067712 1.49579076923077  C 1.0067712 1.21707216829427  1.24175508630961 0.991126123765799  1.5316224 0.991126123765799  C 1.82148971369039 0.991126123765799  2.0564736 1.21707216829427  2.0564736 1.49579073915041  C 2.0564736 1.77450931000656  1.82148971369039 2.00045535453503  1.5316224 2.00045535453503  Z " fill-rule="nonzero" fill="#ffffff" stroke="none" transform="matrix(1 0 0 1 52 2364 )" />
  </g>
</svg>