<?xml version="1.0" encoding="utf-8"?>
<svg version="1.1" xmlns:xlink="http://www.w3.org/1999/xlink" width="9px" height="9px" xmlns="http://www.w3.org/2000/svg">
  <g transform="matrix(1 0 0 1 -49 -2361 )">
    <path d="M 7.54240581818182 6.77434666666666  C 7.54123078809794 6.76851032815919  7.54021801975769 6.76264131622581  7.53936872727274 6.75674666666667  C 7.5423010909091 6.60154666666667  7.59152290909091 6.50458666666667  7.63823127272726 6.44848000000001  C 7.68703418181818 6.38992000000001  7.75720145454544 6.34597333333334  7.85438836363635 6.332  C 8.50255079203517 6.23898333352945  8.97207879146746 5.65481344992939  8.93360290909089 4.98928  L 8.86762472727272 3.84944  C 8.83249121546152 3.24150501472751  8.38165492544125 2.74297265229186  7.78966690909093 2.65744  C 7.71834763636364 2.64709333333334  7.64084945454545 2.60794666666667  7.57769890909092 2.53072  C 7.51695709090909 2.45648  7.4762181818182 2.35418666666667  7.47223854545456 2.24026666666667  C 7.47360000000004 2.23461333333333  7.47778909090909 2.21562666666667  7.47925527272729 2.2104  C 7.72800446926921 1.61209683392012  7.50001736436772 0.90886463271561  6.9452509090909 0.588106666666666  L 6.25153745454544 0.186933333333333  C 5.77112183291985 -0.0907847007864291  5.16899396010893 -0.016516125240931  4.76755199999998 0.369973333333329  C 4.72911709090908 0.399199999999998  4.65947345454544 0.45210666666667  4.57862399999999 0.525493333333335  C 4.54961454545456 0.544053333333333  4.52563199999999 0.558026666666668  4.50636218181819 0.568693333333338  C 4.47839999999999 0.552693333333337  4.43944145454547 0.528160000000005  4.38843927272728 0.491039999999998  C 4.37070192428156 0.478048309417924  4.35261196995097 0.465563447114477  4.33419054545453 0.453600000000004  C 4.32468555538079 0.443757088935257  4.31089581716307 0.429320847123828  4.30162036363635 0.41925333333334  C 3.90412547323892 -0.00764132946320236  3.27210368620961 -0.10357532244574  2.76966981818183 0.186719999999999  L 2.07543272727272 0.587893333333341  C 1.51179054545456 0.913546666666671  1.28725527272726 1.61861333333333  1.54436072727273 2.21488  C 1.54551272727272 2.22064  1.54635054545455 2.22586666666667  1.54687418181817 2.23024  C 1.54415127272729 2.38458666666667  1.49503418181819 2.48229333333334  1.44738327272726 2.53957333333333  C 1.39753309090907 2.59941333333334  1.32663272727271 2.64346666666667  1.2301789090909 2.65744  C 0.610738664519551 2.7472420175539  0.150506742149897 3.28747628037362  0.150545454545466 3.92474666666667  L 0.150545454545466 5.06448  C 0.15051329396348 5.70201378813331  0.61115750695519 6.24236510180731  1.230912 6.33178666666667  C 1.30181236363636 6.34213333333334  1.37889163636362 6.38096000000001  1.44183272727274 6.45786666666667  C 1.50278400000002 6.53242666666667  1.54341818181818 6.63536  1.54676945454544 6.75013333333334  C 1.54470734105639 6.76102803720265  1.54215740477221 6.7724838823539  1.53933381818183 6.7832  C 1.29912264337074 7.36640047922191  1.51038439191419 8.05046341569255  2.04024436363635 8.38021333333334  L 2.68316509090911 8.78042666666667  C 3.24036719991185 9.12702490600533  3.96533124277251 8.98145116758882  4.35167999999999 8.44538666666667  L 4.38079418181818 8.41946666666666  C 4.42236446633705 8.39418881060201  4.46602791954256 8.37266662961453  4.51128436363637 8.35514666666668  C 4.52207127272728 8.35120000000001  4.53024 8.34864000000001  4.536 8.34704  C 4.54343563636362 8.34981333333333  4.57202618181816 8.36101333333334  4.6151738181818 8.38789333333333  L 4.78839272727274 8.57242666666667  C 5.18592910836154 8.99608578253157  5.81514599942453 9.09072666735291  6.31594472727273 8.80218666666667  L 7.01018181818181 8.40197333333334  C 7.57434763636362 8.07685333333334  7.79972072727274 7.37136  7.54240581818182 6.77434666666666  Z M 3.6571287272727 1.53189333333333  C 3.78342981818181 1.62394666666666  3.90208581818182 1.69626666666666  4.0160290909091 1.74991999999999  C 4.18799127272728 1.83088  4.349376 1.86949333333333  4.51044654545455 1.86949333333333  C 4.67183127272727 1.86949333333333  4.83353018181816 1.82736  5.00633018181817 1.74490666666667  C 5.11922618181817 1.69093333333333  5.23693963636363 1.61978666666667  5.3622981818182 1.53189333333334  C 5.42125963636365 1.47002666666666  5.47969745454545 1.42576000000001  5.52912872727271 1.38832  C 5.54201018181816 1.37850666666666  5.554368 1.36922666666667  5.56588800000001 1.36016  C 5.59227927272729 1.33946666666666  5.61458618181817 1.32016000000001  5.63113309090908 1.30010666666666  L 6.32484654545454 1.70117333333333  C 6.30819490909091 1.73968  6.290496 1.79013333333334  6.27415854545453 1.84688  C 6.24169309090907 1.96005333333333  6.21519709090907 2.0984  6.21519709090907 2.21648  C 6.21498644852409 2.29705823548021  6.22009469354402 2.37755974518309  6.23048727272727 2.45744  C 6.27251092675988 2.78577303024235  6.40488824931544 3.09529488289898  6.61232290909089 3.35024  C 6.79017206239035 3.56881456575406  7.02053614111881 3.73678545009737  7.28100654545455 3.83781333333333  C 7.38821299064024 3.87918864031708  7.49958856286928 3.90834412360409  7.61309672727273 3.92474666666666  L 7.67897018181819 5.06448  C 7.54779054589413 5.08305110146041  7.41932108791573 5.11783180632671  7.29640145454543 5.16805333333334  C 6.77339345454544 5.38192  6.39354763636364 5.86384  6.303168 6.48293333333334  C 6.28938709890822 6.57839787160976  6.28249155174648 6.67476246258573  6.28253672727273 6.77125333333333  C 6.28253672727273 6.86512  6.29803636363637 6.97818666666667  6.32180945454546 7.08005333333333  C 6.34086981818181 7.16176  6.36527127272727 7.23632  6.39124363636361 7.28805333333333  L 5.69700654545454 7.68816  L 5.43016145454543 7.40368  C 5.30103272727272 7.30970666666667  5.18038690909089 7.23653333333333  5.06089309090909 7.18266666666667  C 4.890414696117 7.1044872848906  4.70536219023514 7.06475378888293  4.51840581818182 7.06618666666666  C 4.36707490909091 7.06618666666666  4.2004538181818 7.10256  4.02555927272725 7.17413333333334  C 3.88983272727271 7.22970666666667  3.74918399999999 7.3064  3.6067549090909 7.40368  C 3.56842472727271 7.44410666666666  3.53009454545453 7.47706666666666  3.49427781818182 7.50789333333334  C 3.45804218181818 7.53904  3.42442472727273 7.56794666666667  3.39604363636364 7.60005333333334  C 3.37630665082751 7.62329559641723  3.3507907776913 7.66012141657544  3.33844363636362 7.68816  L 2.6955229090909 7.28805333333333  C 2.74537309090909 7.17178666666666  2.80381090909089 6.94949333333333  2.80381090909089 6.77125333333333  C 2.80397406954656 6.66151462855214  2.794405011247 6.55198519581096  2.77522036363635 6.444  C 2.722676230781 6.14766382077674  2.59591632437376 5.87016025556582  2.40720872727273 5.63834666666666  C 2.23488421868736 5.42669657635766  2.01323304147845 5.26240383556797  1.76250763636364 5.16048  C 1.6482195056002 5.11434779884824  1.52898204279139 5.08212462444531  1.40727272727271 5.06448  L 1.40727272727271 3.92474666666666  C 1.53010883246349 3.90688369092919  1.65059668662739 3.87507690100725  1.76648727272728 3.82992  C 2.3099170909091 3.61658666666667  2.70421527272727 3.11599999999999  2.78747345454546 2.47301333333333  C 2.79815563636361 2.38981333333333  2.80381090909089 2.30416  2.80381090909089 2.21648  C 2.80381090909089 2.12122666666666  2.7881018181818 2.00688  2.76390981818183 1.90448  C 2.74505890909089 1.82447999999999  2.72107636363636 1.75173333333333  2.6955229090909 1.70117333333333  L 3.38975999999998 1.30010666666666  L 3.41248581818179 1.32432  C 3.46820072727271 1.38330666666666  3.56193163636365 1.4776  3.6571287272727 1.53189333333333  Z " fill-rule="nonzero" fill="#ffffff" stroke="none" transform="matrix(1 0 0 1 49 2361 )" />
  </g>
</svg>