<?xml version="1.0" encoding="utf-8"?>
<svg version="1.1" xmlns:xlink="http://www.w3.org/1999/xlink" width="17px" height="17px" xmlns="http://www.w3.org/2000/svg">
  <g transform="matrix(1 0 0 1 -41 -2406 )">
    <path d="M 0.0429569892473117 1.44454787234043  L 0.0429569892473117 0  L 10.4929301075269 0  L 10.4929301075269 1.44454787234043  L 0.0429569892473117 1.44454787234043  Z M 0.0429569892473117 5  L 0.0429569892473117 3.33037234042553  L 10.4929301075269 3.33037234042553  L 10.4929301075269 5  L 0.0429569892473117 5  Z M 0.0429569892473117 8.05352393617021  L 0.0429569892473117 6.6336170212766  L 5.2679435483871 6.6336170212766  L 5.2679435483871 8.05352393617021  L 0.0429569892473117 8.05352393617021  Z M 5.73909946236559 10.9982313829787  C 5.73909946236559 8.31281914893617  8.24362903225806 6.13605053191489  11.3326478494624 6.13605053191489  C 14.4216666666667 6.13605053191489  16.9261962365591 8.31281914893617  16.9261962365591 10.9977792553192  C 16.9261962365591 12.6503058510638  15.9781720430108 14.1097739361702  14.5292876344086 14.988710106383  L 14.5288306451613 16.6444015957447  L 14.5256317204301 16.6914228723404  C 14.5103225806452 16.8017420212766  14.4422311827957 16.8982712765957  14.3423790322581 16.9502659574468  C 14.2427553763441 17.0022606382979  14.1237096774194 17.0036170212766  14.0229435483871 16.9538829787234  L 11.7800403225806 15.8452659574468  C 11.6322043010753 15.8554388297872  11.4832258064516 15.8604122340426  11.3326478494624 15.8604122340426  C 8.24362903225806 15.8604122340426  5.73909946236559 13.6836436170213  5.73909946236559 10.9982313829787  Z M 15.732311827957 11.0316888297872  C 15.732311827957 8.99191489361702  13.7827956989247 7.29756648936171  11.3326478494624 7.2975664893617  C 8.8825 7.2975664893617  6.93298387096774 8.9923670212766  6.93298387096774 11.0316888297872  C 6.93298387096774 13.0710106382979  8.88272849462366 14.7658111702128  11.3326478494624 14.7658111702128  C 11.4532930107527 14.7658111702128  11.5734811827957 14.7615159574468  11.6922983870968 14.7536037234043  L 11.8970295698925 14.7395877659575  L 13.5250537634409 15.5439228723404  L 13.5250537634409 14.2899468085106  L 13.883561827957 14.0724734042553  L 13.9982661290323 14.0010372340426  C 15.086814516129 13.2952659574468  15.732311827957 12.2042819148936  15.732311827957 11.0316888297872  Z " fill-rule="nonzero" fill="#f4f4f4" stroke="none" transform="matrix(1 0 0 1 41 2406 )" />
  </g>
</svg>