<?xml version="1.0" encoding="utf-8"?>
<svg version="1.1" xmlns:xlink="http://www.w3.org/1999/xlink" width="5px" height="3px" xmlns="http://www.w3.org/2000/svg">
  <g transform="matrix(1 0 0 1 -50 -2416 )">
    <path d="M 4.42403846153846 2.18845588235294  C 4.66081730769231 2.18845588235294  4.853125 2.36492647058824  4.853125 2.58220588235294  L 4.853125 2.88970588235294  C 4.853125 2.91264705882353  4.84326923076923 2.93470588235294  4.82548076923077 2.95080882352941  C 4.8078124200566 2.96700973678711  4.78387145012218 2.97613059048479  4.75889423076923 2.97617647058823  L 0.57451923076923 2.97617647058823  C 0.337499999999999 2.97617647058823  0.145432692307691 2.79992647058823  0.145432692307691 2.58242647058823  L 0.145432692307691 2.27514705882353  C 0.145432692307691 2.22739067163228  0.187621244727482 2.18867647058824  0.239663461538459 2.18867647058824  L 4.42403846153846 2.18867647058824  Z M 0.239663461538459 0.05095588235294  L 4.42403846153846 0.05095588235294  C 4.66081730769231 0.05095588235294  4.853125 0.227426470588234  4.853125 0.444705882352941  L 4.853125 0.751985294117645  C 4.853125 0.774926470588233  4.84326923076923 0.796985294117645  4.82548076923077 0.813088235294115  C 4.8078124200566 0.82928914855182  4.78387145012218 0.838410002249492  4.75889423076923 0.838455882352938  L 0.57451923076923 0.838455882352938  C 0.337499999999999 0.838455882352938  0.145432692307691 0.662205882352938  0.145432692307691 0.444705882352938  L 0.145432692307691 0.137426470588233  C 0.145432692307691 0.0896700833969808  0.187621244727482 0.0509558823529425  0.239663461538459 0.05095588235294  Z " fill-rule="nonzero" fill="#f4f4f4" stroke="none" transform="matrix(1 0 0 1 50 2416 )" />
  </g>
</svg>