<?xml version="1.0" encoding="utf-8"?>
<svg version="1.1" xmlns:xlink="http://www.w3.org/1999/xlink" width="9px" height="9px" xmlns="http://www.w3.org/2000/svg">
  <g transform="matrix(1 0 0 1 -49 -2545 )">
    <path d="M 0.835714285714286 0.877090909090909  L 3.30428571428571 0.877090909090909  L 3.30428571428571 3.39054545454545  L 0.835714285714286 3.39054545454545  L 0.835714285714286 0.877090909090909  Z M 4.12714285714286 0.74304  C 4.12714285714286 0.35554909090909  3.81651428571428 0.0392727272727264  3.43594285714286 0.0392727272727276  L 0.70302857142857 0.0392727272727276  C 0.323485714285714 0.0392727272727276  0.0118285714285701 0.355549090909091  0.0118285714285701 0.743040000000001  L 0.0118285714285701 3.52564363636364  C 0.0118285714285701 3.91208727272727  0.32245714285714 4.22941090909091  0.70302857142857 4.22941090909091  L 3.43594285714286 4.22941090909091  C 3.81548571428571 4.22941090909091  4.12714285714286 3.91313454545455  4.12714285714286 3.52564363636364  L 4.12714285714286 0.74304  Z M 0.835714285714286 5.58981818181818  L 3.30428571428571 5.58981818181818  L 3.30428571428571 8.10327272727273  L 0.835714285714286 8.10327272727273  L 0.835714285714286 5.58981818181818  Z M 4.12714285714286 5.45576727272727  C 4.12714285714286 5.06827636363636  3.81651428571428 4.752  3.43594285714286 4.752  L 0.70302857142857 4.752  C 0.323485714285714 4.752  0.0118285714285701 5.06827636363636  0.0118285714285701 5.45576727272727  L 0.0118285714285701 8.23837090909091  C 0.0118285714285701 8.62481454545454  0.32245714285714 8.94213818181818  0.70302857142857 8.94213818181818  L 3.43594285714286 8.94213818181818  C 3.81548571428571 8.94213818181818  4.12714285714286 8.62586181818182  4.12714285714286 8.23837090909091  L 4.12714285714286 5.45576727272727  Z M 5.56714285714286 5.58981818181818  L 8.03571428571429 5.58981818181818  L 8.03571428571429 8.10327272727273  L 5.56714285714286 8.10327272727273  L 5.56714285714286 5.58981818181818  Z M 8.85857142857143 5.45576727272727  C 8.85857142857143 5.06827636363636  8.54794285714286 4.752  8.16737142857143 4.752  L 5.43445714285714 4.752  C 5.05491428571428 4.752  4.74325714285714 5.06827636363636  4.74325714285714 5.45576727272727  L 4.74325714285714 8.23837090909091  C 4.74325714285714 8.62481454545454  5.05388571428571 8.94213818181818  5.43445714285714 8.94213818181818  L 8.16737142857143 8.94213818181818  C 8.54691428571428 8.94213818181818  8.85857142857143 8.62586181818182  8.85857142857143 8.23837090909091  L 8.85857142857143 5.45576727272727  Z M 5.56714285714286 0.877090909090909  L 8.03571428571429 0.877090909090909  L 8.03571428571429 3.39054545454545  L 5.56714285714286 3.39054545454545  L 5.56714285714286 0.877090909090909  Z M 8.85857142857143 0.74304  C 8.85857142857143 0.35554909090909  8.54794285714286 0.0392727272727264  8.16737142857143 0.0392727272727276  L 5.43445714285714 0.0392727272727276  C 5.05491428571428 0.0392727272727276  4.74325714285714 0.355549090909091  4.74325714285714 0.743040000000001  L 4.74325714285714 3.52564363636364  C 4.74325714285714 3.91208727272727  5.05388571428571 4.22941090909091  5.43445714285714 4.22941090909091  L 8.16737142857143 4.22941090909091  C 8.54691428571428 4.22941090909091  8.85857142857143 3.91313454545455  8.85857142857143 3.52564363636364  L 8.85857142857143 0.74304  Z " fill-rule="nonzero" fill="#ffffff" stroke="none" transform="matrix(1 0 0 1 49 2545 )" />
  </g>
</svg>