<?xml version="1.0" encoding="utf-8"?>
<svg version="1.1" xmlns:xlink="http://www.w3.org/1999/xlink" width="20px" height="19px" xmlns="http://www.w3.org/2000/svg">
  <g transform="matrix(1 0 0 1 -38 -2707 )">
    <path d="M 19.8714162954546 9.44559082524272  C 19.8714162727273 8.83526567718446  19.8112970227273 8.20795164684466  19.6926400227273 7.58153425970874  C 19.6429631590909 7.3180652026699  19.4417904545455 7.10884255218447  19.1798240681818 7.04841408980583  C 18.2273353181818 6.82916329004854  17.4347846590909 6.2430000776699  16.9483421136364 5.39858245509709  C 16.4634577727273 4.55555697451456  16.35308025 3.5746856868932  16.6372105227273 2.63829222330097  C 16.7174005227273 2.38180748786408  16.6373733181818 2.10252932402913  16.4337586363636 1.92716644902913  C 15.4823862045455 1.10348940169903  14.3988445 0.475915827669903  13.2134140227273 0.0620952742718442  C 13.1417593409091 0.0369894951456306  13.0671045 0.0242950279126209  12.9912170454545 0.0242950279126209  C 12.8035799090909 0.0242950279126209  12.6234315 0.103411258495145  12.4974717954545 0.240501999999999  C 11.8329972272727 0.956323310679611  10.9329063863636 1.35053588713592  9.96313770454546 1.35053588713592  C 8.993276 1.35053588713592  8.09255722727273 0.955662645631067  7.42659420454546 0.238425581310679  C 7.24756213636364 0.046262578883495  6.96045497727273 -0.0270255169902917  6.70886118181819 0.0602548106796114  C 5.51605827272728 0.479266399271844  4.43314447727273 1.10747707281553  3.48974920454546 1.92770914805825  C 3.2893905 2.10276530218447  3.20968890909091 2.38013219053398  3.28669270454546 2.63496524029126  C 3.57275329545455 3.57218455825243  3.46305022727273 4.5529614684466  2.97765422727273 5.39690715776699  C 2.4934210909091 6.24075849271845  1.70152163636364 6.82666213834951  0.746428090909096 7.04699833616505  C 0.484136113636369 7.10947962864078  0.282870386363641 7.31936294417476  0.233705181818187 7.58118031553398  C 0.114885386363641 8.20766849150485  0.0546731136363686 8.83432183373786  0.0546731136363686 9.44360878398058  C 0.0546731136363686 10.0529665230583  0.114885386363641 10.6796198652913  0.233612159090914 11.3058720631068  C 0.283033204545459 11.5690107876214  0.484136113636369 11.7783042269417  0.746172272727278 11.8389922330097  C 1.69875406818182 12.0583374101942  2.49130470454546 12.6442410788835  2.97781704545455 13.4887530788835  C 3.46302697727273 14.332533625  3.57275331818182 15.3133105121359  3.28652990909091 16.2510253519417  C 3.21008429545455 16.5039707378641  3.28929747727273 16.7816679817961  3.49047018181819 16.9602634854369  C 4.44158677272728 17.7836101771845  5.52443079545455 18.4110893737864  6.71007056818182 18.8257357815534  C 6.97066479545455 18.9153284830097  7.24958550000001 18.8384066371359  7.42494297727273 18.6486268203884  C 8.09081297727273 17.9317201116505  8.99143870454546 17.5368468701456  9.96116088636364 17.5368468701456  C 10.9308830681818 17.5368468701456  11.8316715909091 17.9317201116505  12.4966345681818 18.6478717779126  C 12.6229198636364 18.7851984745146  12.8033240909091 18.8641731274272  12.9916822045455 18.8641731274272  C 13.06617425 18.8641731274272  13.1402709090909 18.8521629368932  13.2150885454546 18.8272931128641  C 14.3997747727273 18.4129770376214  15.4826885681818 17.7854270752427  16.4344563636364 16.9615848616505  C 16.6342569090909 16.7868590631068  16.7141910681818 16.5089966529126  16.6376756818182 16.2523467281553  C 16.35135925 15.3143723446602  16.46164375 14.3337606237864  16.9484119090909 13.4905699769417  C 17.4330636818182 12.6460579769417  18.2255212954546 12.0602487087379  19.1800566818182 11.840809131068  C 19.4389298863636 11.7810413337379  19.6399630454546 11.5725501601942  19.6925470227273 11.3080192936893  C 19.8112737954546 10.6812007851942  19.8714162954546 10.0546182317961  19.8714162954546 9.44559082524272  Z M 15.4389422272727 12.618875756068  C 14.8828218181818 13.5856840230583  14.7010454090909 14.7155618652913  14.9221028181818 15.8151664587379  C 14.3305853181818 16.2799536128641  13.6780880681818 16.6580267730583  12.9792164545455 16.9408442633495  C 12.14552425 16.1996576298544  11.0791694090909 15.7930101529126  9.96120738636364 15.7930101529126  C 8.84924565909091 15.7930101529126  7.78305363636364 16.1996576298544  6.9437565 16.9410094296117  C 6.24502443181818 16.6582627281553  5.59245740909091 16.2802603798544  5.00077711363637 15.8154732026699  C 5.22564865909091 14.7215551432039  5.04370945454546 13.591512157767  4.48342606818182 12.6189701334951  C 3.92777079545455 11.6512888118932  3.04188997727273 10.9278933033981  1.97918647727273 10.5704663640777  C 1.92506752272727 10.1936202026699  1.89771734090909 9.81512233252427  1.89771734090909 9.44363237257281  C 1.89771734090909 9.07369972087378  1.92506752272727 8.69536704004854  1.97918647727273 8.31719950242718  C 3.03856422727273 7.96234448058252  3.92428225 7.23901976092233  4.48342606818182 6.26845977791262  C 5.04077909090909 5.29945710315534  5.22264852272727 4.16939052912621  5.00045152272727 3.072121875  C 5.59189925 2.60749988713592  6.244443 2.2294975157767  6.94350068181818 1.9465148592233  C 7.78035584090909 2.68902284587378  8.84664090909091 3.09623663349514  9.96118413636364 3.09623663349514  C 11.0792391818182 3.09623663349514  12.1455009772727 2.6895891565534  12.9791932045455 1.94840252305825  C 13.6780880909091 2.2313143907767  14.3304922954545 2.60931676213592  14.9219400227273 3.07393875  C 14.6989988181818 4.17229277912621  14.8802170454545 5.30217062135922  15.4371049318182 6.27027665291262  C 15.9926904318182 7.23795797451456  16.8783852045455 7.96144786043689  17.9412514772727 8.31901637742718  C 17.9953704318182 8.69685355946602  18.0227206136364 9.07535142961165  18.0227206136364 9.44750205461165  C 18.0259765909091 9.8036076407767  17.9992775909091 10.1806897803398  17.9431818181818 10.5704663640777  C 16.8803852954545 10.927964092233  15.9945975 11.6512888349515  15.4389422272727 12.618875756068  Z " fill-rule="nonzero" fill="#ffffff" stroke="none" transform="matrix(1 0 0 1 38 2707 )" />
  </g>
</svg>