<?xml version="1.0" encoding="utf-8"?>
<svg version="1.1" xmlns:xlink="http://www.w3.org/1999/xlink" width="8px" height="8px" xmlns="http://www.w3.org/2000/svg">
  <g transform="matrix(1 0 0 1 -44 -2712 )">
    <path d="M 6.69572219565217 1.18534173333333  C 5.9653707826087 0.446810311111111  4.99545447826087 0.0400801999999999  3.96474043478261 0.0400801999999999  C 1.83408345652174 0.0400801999999999  0.100647239130435 1.7921396  0.100647239130435 3.94569886666667  C 0.100647239130435 6.09934908888889  1.83408345652174 7.85154493333333  3.96474043478261 7.85154493333333  C 4.17207117391304 7.85154493333333  4.39128115217391 7.82980535555555  4.6559837826087 7.7829152  C 5.05155836956522 7.70998757777777  5.31448132608696 7.32649788888889  5.24213802173913 6.92799971111111  C 5.17855956521739 6.57839284444444  4.8792425 6.32461288888889  4.53022834782609 6.32461288888889  C 4.48520286956522 6.32461288888889  4.4397992173913 6.328979  4.39710956521739 6.33714271111111  C 4.224549 6.36831944444444  4.08769291304348 6.38285037777777  3.96652010869565 6.38285037777777  C 2.63695615217391 6.38285037777777  1.5553215 5.28948182222222  1.5553215 3.94569884444444  C 1.5553215 2.60198411111111  2.63530995652174 1.50877473333333  3.96287178260869 1.50877473333333  C 5.29150141304348 1.50877473333333  6.37226847826087 2.60198411111111  6.37226847826087 3.94569884444444  C 6.37226847826087 4.07663655555555  6.35798667391304 4.2142144  6.32686482608695 4.37973984444444  C 6.25452152173913 4.77814706666666  6.5175112173913 5.16172771111111  6.91293008695652 5.23449613333333  C 6.95655406521739 5.24250066666666  7.00086767391304 5.24663937777777  7.04489208695652 5.24663937777777  C 7.39715413043478 5.24663937777777  7.6974945 4.99263204444444  7.75864815217391 4.64404846666666  C 7.80514184782608 4.38956357777777  7.82687597826087 4.16771079999999  7.82687597826087 3.94585802222222  C 7.82781030434782 2.90422326666666  7.42609589130435 1.92385044444444  6.69572219565217 1.18534173333333  Z " fill-rule="nonzero" fill="#ffffff" stroke="none" transform="matrix(1 0 0 1 44 2712 )" />
  </g>
</svg>