<?xml version="1.0" encoding="utf-8"?>
<svg version="1.1" xmlns:xlink="http://www.w3.org/1999/xlink" width="20px" height="20px" xmlns="http://www.w3.org/2000/svg">
  <g transform="matrix(1 0 0 1 -1054 -2273 )">
    <path d="M 19.3334949288504 10  C 19.3334949288504 15.1468816755022  15.1468816545759 19.3334949288504  10 19.3334949288504  C 4.85380230189732 19.3334949288504  0.666505071149553 15.1468816755022  0.666505071149553 10  C 0.666505071149553 4.85380230189732  4.85376628766741 0.666505071149553  10 0.666505071149553  C 15.1468816545759 0.666505071149553  19.3334949288504 4.85311832449777  19.3334949288504 10  Z M 17.9942092145647 10  C 17.9942092145647 5.59171432756696  14.4076016950335 2.00579078543527  10 2.00579078543527  C 5.59175034179687 2.00579078543527  2.00579078543527 5.59171432756696  2.00579078543527 10  C 2.00579078543527 14.4076016950335  5.59171432756696 17.9942092145647  10 17.9942092145647  C 14.4076016950335 17.9942092145647  17.9942092145647 14.408285672433  17.9942092145647 10  Z M 10 4.64285714285714  C 9.4452430594308 4.64285714285714  8.99552671595982 5.09257348632812  8.99552671595982 5.64733042689732  C 8.99552671595982 6.20208736746652  9.4452430594308 6.6518037109375  10 6.6518037109375  C 10.5547569405692 6.6518037109375  11.0044732840402 6.20208736746652  11.0044732840402 5.64733042689732  C 11.0044732840402 5.09257348632812  10.5547569405692 4.64285714285714  10 4.64285714285714  Z M 10.6696608537946 14.6874820033482  C 10.6696608537946 15.0578239257812  10.3696579659598 15.3571428571429  10 15.3571428571429  C 9.63034203404018 15.3571428571429  9.33033914620536 15.0578239257812  9.33033914620536 14.6874820033482  L 9.33033914620536 8.66071428571429  C 9.33033914620536 8.29105631975446  9.63034203404018 7.99105343191964  10 7.99105343191964  C 10.3696579659598 7.99105343191964  10.6696608537946 8.29105631975446  10.6696608537946 8.66071428571429  L 10.6696608537946 14.6874820033482  Z " fill-rule="nonzero" fill="#1e87f0" stroke="none" transform="matrix(1 0 0 1 1054 2273 )" />
  </g>
</svg>