<?xml version="1.0" encoding="utf-8"?>
<svg version="1.1" xmlns:xlink="http://www.w3.org/1999/xlink" width="8px" height="7px" xmlns="http://www.w3.org/2000/svg">
  <g transform="matrix(1 0 0 1 -297 -2196 )">
    <path d="M 7.85298130769231 1.27720399671053  C 7.85295507692308 0.606648944078948  7.24466515384615 0.0603885855263158  6.4975728974359 0.0603885855263158  L 1.52810938461539 0.0603885855263158  C 0.780649794871795 0.0603885855263158  0.172386102564103 0.606672523026316  0.172386102564103 1.27722757565789  L 0.172386102564103 5.74026648355263  C 0.172386102564103 6.41150486513158  0.780649794871795 6.95708189473684  1.52810938461539 6.95708189473684  L 6.49759915384615 6.95708189473684  C 7.24469138461539 6.95708189473684  7.85298133333333 6.41150484210526  7.85298133333333 5.74026648355263  L 7.85298130769231 1.27720399671053  Z M 6.49759915384615 1.22022874013158  C 6.53268017948718 1.22022874013158  6.56028320512821 1.2453704375  6.56028320512821 1.27720399671053  L 6.56028320512821 5.74024290460526  C 6.56028320512821 5.77108683881579  6.53191925641026 5.79721816118421  6.4975728974359 5.79721816118421  L 1.52810938461539 5.79721816118421  C 1.49378925641026 5.79721816118421  1.46392971794872 5.77108681578947  1.46392971794872 5.74024290460526  L 1.46392971794872 1.27720399671053  C 1.46392971794872 1.24534685855263  1.49302835897436 1.22022874013158  1.52810938461538 1.22022874013158  L 6.49759915384615 1.22022874013158  Z " fill-rule="nonzero" fill="#ffffff" stroke="none" transform="matrix(1 0 0 1 297 2196 )" />
  </g>
</svg>