<?xml version="1.0" encoding="utf-8"?>
<svg version="1.1" xmlns:xlink="http://www.w3.org/1999/xlink" width="8px" height="7px" xmlns="http://www.w3.org/2000/svg">
  <g transform="matrix(1 0 0 1 -297 -2206 )">
    <path d="M 7.85298130769231 1.25940364144737  C 7.85295507692308 0.589225621710528  7.24466515384615 0.0423054671052632  6.4975728974359 0.0423054671052632  L 1.52810938461539 0.0423054671052632  C 0.780649794871795 0.0423054671052632  0.172386102564103 0.589225598684212  0.172386102564103 1.25940364144737  L 0.172386102564102 5.72248968421053  C 0.172386102564102 6.39403438486842  0.780649794871795 6.93961141447368  1.52810938461538 6.93961141447368  L 6.49759915384615 6.93961141447368  C 7.24469138461538 6.93961141447368  7.85298133333333 6.3940343618421  7.85298133333333 5.72248968421053  L 7.85298130769231 1.25940364144737  Z M 6.49759915384615 1.20242838486842  C 6.53268017948718 1.20242838486842  6.56028320512821 1.22792351315789  6.56028320512821 1.25940364144737  L 6.56028320512821 5.72248968421053  C 6.56028320512821 5.75399336842105  6.53191925641026 5.77941782894737  6.4975728974359 5.77941782894737  L 1.52810938461539 5.77941782894737  C 1.49378925641026 5.77941782894737  1.46392971794872 5.75399339144737  1.46392971794872 5.72248968421053  L 1.46392971794872 1.25940364144737  C 1.46392971794872 1.2279235131579  1.49302835897436 1.20242838486842  1.52810938461538 1.20242838486842  L 6.49759915384615 1.20242838486842  Z " fill-rule="nonzero" fill="#ffffff" stroke="none" transform="matrix(1 0 0 1 297 2206 )" />
  </g>
</svg>