<?xml version="1.0" encoding="utf-8"?>
<svg version="1.1" xmlns:xlink="http://www.w3.org/1999/xlink" width="10px" height="2px" xmlns="http://www.w3.org/2000/svg">
  <g transform="matrix(1 0 0 1 -307 -2196 )">
    <path d="M 0.0869591509433951 1.02008490625  C 0.0869591509433965 1.38981821875  0.289448278301887 1.70544421875  0.562675872641508 1.77909028125  C 0.579835566037735 1.79412009375  0.600446485849057 1.8041293125  0.62240896226415 1.8041293125  L 0.664306603773585 1.8041293125  C 0.674563797169811 1.8059520625  0.685545023584907 1.8059520625  0.696574528301887 1.8041293125  L 9.37034955188679 1.8041293125  C 9.37585224056604 1.8050566875  9.38198242924528 1.8059520625  9.38680933962264 1.8059520625  C 9.39231202830189 1.8059520625  9.39781471698113 1.80505665625  9.4026175 1.8041293125  L 9.43691273584906 1.8041293125  C 9.45549636792453 1.8041293125  9.47263191037736 1.795942875  9.48701613207547 1.78455859375  C 9.77059745283019 1.7195146875  9.97994080188679 1.3989000625  9.97994080188679 1.0200529375  C 9.97994080188679 0.646642125000001  9.77742754716981 0.330536437500001  9.5000970754717 0.259160812500001  C 9.48226162735849 0.241444812500001  9.4602991509434 0.230060531250001  9.43691273584905 0.230060531250001  L 0.622384811320753 0.23006053125  C 0.601122240566037 0.23006053125  0.580511320754715 0.243267562500001  0.56337575471698 0.261910937500001  C 0.289448278301885 0.335588968750001  0.0869591509433951 0.651246968750001  0.0869591509433951 1.02008490625  Z " fill-rule="nonzero" fill="#ffffff" stroke="none" transform="matrix(1 0 0 1 307 2196 )" />
  </g>
</svg>