<?xml version="1.0" encoding="utf-8"?>
<svg version="1.1" xmlns:xlink="http://www.w3.org/1999/xlink" width="10px" height="1px" xmlns="http://www.w3.org/2000/svg">
  <g transform="matrix(1 0 0 1 -307 -2201 )">
    <path d="M 0.0876349528301907 0.487352142857144  C 0.0876349292452824 0.69601525  0.283969740566038 0.874838  0.554421839622641 0.919534553571429  C 0.572257287735848 0.931741142857143  0.596319481132076 0.939799678571429  0.622384811320753 0.939799678571429  L 9.43688858490566 0.939799678571429  C 9.45819941037736 0.939799678571429  9.47743466981132 0.932782714285715  9.49459436320755 0.923152678571429  C 9.77332462264151 0.883938125  9.979265 0.702264732142857  9.979265 0.487333875  C 9.979265 0.270849785714286  9.77059742924528 0.0881530892857145  9.48906754716981 0.051003428571429  C 9.47330766509434 0.0439864642857149  9.45544806603774 0.0403500714285719  9.43688858490566 0.0403500714285719  L 9.42042879716981 0.0424149642857147  C 9.40672035377358 0.0398201607142862  9.38608528301886 0.0387785714285716  9.3662466745283 0.0403500714285719  L 0.713710070754717 0.0424149642857147  C 0.699277594339622 0.0398201607142862  0.679342429245283 0.0387785714285716  0.65945554245283 0.0403500714285719  L 0.622384834905662 0.0403500714285719  C 0.603173702830189 0.0403500714285719  0.58601403301887 0.0445163928571434  0.570181745283021 0.0531048571428577  C 0.292199646226417 0.0931234464285719  0.0876349528301907 0.274504464285714  0.0876349528301907 0.487352142857144  Z " fill-rule="nonzero" fill="#ffffff" stroke="none" transform="matrix(1 0 0 1 307 2201 )" />
  </g>
</svg>