<?xml version="1.0" encoding="utf-8"?>
<svg version="1.1" xmlns:xlink="http://www.w3.org/1999/xlink" width="10px" height="1px" xmlns="http://www.w3.org/2000/svg">
  <g transform="matrix(1 0 0 1 -307 -2211 )">
    <path d="M 9.84432627314815 0.480308910714283  C 9.8443262962963 0.242244035714285  9.60377826388889 0.0478524107142866  9.29988949074074 0.032283535714285  C 9.28847203703704 0.0286471428571429  9.27494641203704 0.0265822500000001  9.26213138888889 0.0265822500000001  L 0.610859166666665 0.0265822678571429  C 0.588640162037035 0.0265822678571429  0.567037037037037 0.0348418035714287  0.550905740740741 0.0468108392857139  C 0.282761620370371 0.0899541607142851  0.0860120601851846 0.269763678571428  0.0860120601851846 0.480308928571428  C 0.0860120601851846 0.692882517857143  0.286812222222222 0.874318357142857  0.558296296296295 0.914848589285713  C 0.573788009259259 0.92208482142857  0.59136423611111 0.925739482142855  0.610859166666665 0.925739482142855  L 0.627724768518518 0.923674589285712  C 0.634452060185185 0.924697892857141  0.64454298611111 0.927292714285713  0.688388819444444 0.925739482142855  L 9.22172025462963 0.923674589285712  C 9.2325218287037 0.925739482142855  9.25275106481481 0.928864214285712  9.26213136574074 0.928864214285712  C 9.58288574074074 0.928864214285712  9.84432627314815 0.727236339285712  9.84432627314815 0.480308910714283  Z " fill-rule="nonzero" fill="#ffffff" stroke="none" transform="matrix(1 0 0 1 307 2211 )" />
  </g>
</svg>