<?xml version="1.0" encoding="utf-8"?>
<svg version="1.1" xmlns:xlink="http://www.w3.org/1999/xlink" width="20px" height="20px" xmlns="http://www.w3.org/2000/svg">
  <g transform="matrix(1 0 0 1 -423 -2194 )">
    <path d="M 13.4539682539683 19.8992918253968  L 1.50730158730159 19.8992918253968  C 0.714920634920635 19.8992918253968  0.0803907142857143 19.224126984127  0 18.3817338293651  L 0 6.97269841269841  C 0.0803907142857143 6.12874236111111  0.714920634920635 5.45514041666667  1.50730158730159 5.45514041666667  L 13.4539682539683 5.45514041666667  C 14.2463492063492 5.45514041666667  14.8808791269841 6.13030525793651  14.8808791269841 6.97269841269841  L 14.8808791269841 18.3817338293651  C 14.8808791269841 19.224126984127  14.2463492063492 19.8992918253968  13.4539682539683 19.8992918253968  Z M 13.4539682539683 6.46007325396826  L 1.50730158730159 6.46007325396825  C 1.2431746031746 6.46007325396825  1.02437119047619 6.69450549603174  1 6.97269841269841  L 1 18.5489621428571  L 1.05562880952381 18.5489621428571  C 1.11658119047619 18.7474480952381  1.2900610515873 18.8927960912698  1.50261293650794 18.8927960912698  L 13.4539682539683 18.8927960912698  C 13.7180952380952 18.8927960912698  13.9353357738095 18.6599267460317  14 18.3817338293651  L 14 6.97269841269842  C 13.9353357738095 6.69450549603175  13.7165323611111 6.46007325396826  13.4539682539683 6.46007325396826  Z M 16.9220024404762 16.1968253968254  C 16.6578754563492 16.1968253968254  16.4609523809524 15.9842735119048  16.4609523809524 15.6842002380952  L 16.4609523809524 4.27516484126984  C 16.4609523809524 3.99697192460317  16.242148968254 3.76253968253968  15.9764590873016 4  L 5.28634920634921 4  C 5.01996533528179 3.75403456902626  4.81047108475581 3.53197066470987  4.81748474206349 3.2655433531746  C 4.81748474206349 3.00141636904762  5.0206593452381 2.76698412698413  5.28634920634921 3  L 15.9623931547619 3  C 16.7547741071429 2.76698412698413  17.3893040277778 3.44371184523809  17 4.286105  L 17 15.6998290674603  C 17.3893040277778 15.9639560515873  17.1861294246032 16.1968253968254  16.9220024404762 16.1968253968254  Z M 18.9896947420635 13.00542125  L 19 13.0069841269841  L 19 1.59951160714286  C 18.9896947420635 1.31975581349206  18.7708913293651 1.0868864484127  18.5067643452381 1  L 7.81665446428571 1  C 7.54964355875606 1.07838540518559  7.33989883073388 0.855356848234902  7.34778998015873 0.588327222222222  C 7.34778998015873 0.324200238095238  7.55096458333333 0.0913308928571428  7.81665446428571 0  L 18.4911355357143 0  C 19.2835164880952 0.0913308928571428  19.9196092857143 0.766495734126984  20 1.61045176587302  L 20 13.0163614087302  C 19.9196092857143 13.2804883928571  19.7164346825397 13.5133577380952  19.4507448015873 13.5133577579365  C 19.1938511725563 13.5081523282602  18.9883165279801 13.2984107492013  18.9883165279801 13.041464386832  C 18.9883165279801 13.0294368360917  18.9887762682856 13.0174136802262  18.9896947420635 13.00542125  Z " fill-rule="nonzero" fill="#1e87f0" stroke="none" transform="matrix(1 0 0 1 423 2194 )" />
  </g>
</svg>