<?xml version="1.0" encoding="utf-8"?>
<svg version="1.1" xmlns:xlink="http://www.w3.org/1999/xlink" width="10px" height="1px" xmlns="http://www.w3.org/2000/svg">
  <g transform="matrix(1 0 0 1 -307 -2207 )">
    <path d="M 0.0860120601851846 0.508262249999999  C 0.0860120601851846 0.717254267857143  0.280037546296296 0.896003946428572  0.544841712962962 0.940718767857143  C 0.562346874999999 0.952632982142857  0.585939768518518 0.959924035714287  0.610859166666665 0.959924035714287  L 9.26213138888889 0.959924035714287  C 9.27158275462963 0.959924035714287  9.28037087962963 0.958882464285716  9.28982224537037 0.95679930357143  C 9.59702729166666 0.945926678571429  9.84432629629629 0.748921964285716  9.84432629629629 0.508262267857144  C 9.84432629629629 0.261334821428572  9.58288576388889 0.0597252321428588  9.26213138888889 0.0597252321428588  C 9.25744122685185 0.0597252321428588  9.25204046296296 0.0602186071428597  9.24597641203704 0.0607668035714296  L 0.682964351851851 0.0607668035714296  C 0.672826041666665 0.0597252321428588  0.662735115740739 0.0597252321428588  0.651293981481481 0.0607668035714296  L 0.610859166666665 0.0607668035714296  C 0.59136423611111 0.0607668035714296  0.573811689814813 0.0654082321428575  0.558296296296295 0.0737225892857144  C 0.286788518518518 0.114271089285714  0.0860120601851846 0.295652125  0.0860120601851846 0.508262249999999  Z " fill-rule="nonzero" fill="#ffffff" stroke="none" transform="matrix(1 0 0 1 307 2207 )" />
  </g>
</svg>