<?xml version="1.0" encoding="utf-8"?>
<svg version="1.1" xmlns:xlink="http://www.w3.org/1999/xlink" width="20px" height="22px" xmlns="http://www.w3.org/2000/svg">
  <g transform="matrix(1 0 0 1 -548 -2193 )">
    <path d="M 5.70309278350515 9.09702546296296  L 9.2764175257732 9.09702546296296  L 9.2764175257732 5.56671296296296  L 10.9256443298969 5.56671296296296  L 10.9256443298969 9.09702546296296  L 14.4989690721649 9.09702546296296  L 14.4989690721649 10.726400462963  L 10.9256443298969 10.726400462963  L 10.9256443298969 14.256712962963  L 9.27641752577319 14.256712962963  L 9.27641752577319 10.726400462963  L 5.70309278350515 10.726400462963  L 5.70309278350515 9.09702546296296  Z M 3.39693298969072 21.7316458333333  C 2.08938144329897 22.123087962963  0.708221649484536 21.3932175925926  0.311984536082474 20.1014050925926  C 0.241493934248687 19.8715857768674  0.205670909522888 19.6327574744527  0.205670103092783 19.3926180555556  L 0.205670103092783 2.57952546296296  C 0.205670103092783 1.22970833333333  1.31324742268041 0.135462962962963  2.67951030927835 0.135462962962963  L 17.5225515463918 0.135462962962963  C 18.8888144329897 0.135462962962963  19.9963917525773 1.22970833333333  20 2.57952546296296  L 20 19.3926180555556  C 19.9963917525773 20.7424097222222  18.8888144329897 21.8366805555556  17.5225515463918 21.8366805555556  C 17.2794845360825 21.8366805555556  17.0377577319588 21.801287037037  16.8051288659794 21.7316458333333  L 10.1010309278351 19.7245532407407  L 3.39693298969072 21.7316203703704  Z M 17.5225515463918 2  L 2.67951030927835 2  C 2.22409793814433 1.76483796296296  1.85489690721649 2.12959490740741  1.85489690721649 2.57952546296296  C 1.86286082474227 13.8946805555556  1.87466494845361 19.5778101851852  1.89033505154639 19.6288634259259  C 2.02242268041237 20.0594675925926  2.48280927835052 20.3027662037037  2.91865979381443 20.1722939814815  L 10.1010309278351 18.0219976851852  C 14.9946907216495 19.4788611111111  17.4685567010309 20.2073055555556  17.5225515463918 20.2073055555556  C 17.9779639175258 20.2073055555556  18.3471649484536 19.8425486111111  18 19.3926180555556  L 18 2.57952546296296  C 18.3471649484536 2.12959490740741  17.9779639175258 1.76483796296296  17.5225515463918 2  Z " fill-rule="nonzero" fill="#1e87f0" stroke="none" transform="matrix(1 0 0 1 548 2193 )" />
  </g>
</svg>