<?xml version="1.0" encoding="utf-8"?>
<svg version="1.1" xmlns:xlink="http://www.w3.org/1999/xlink" width="20px" height="20px" xmlns="http://www.w3.org/2000/svg">
  <g transform="matrix(1 0 0 1 -423 -2194 )">
    <path d="M 1.64 20  C 0.735384609375 20  0 19.215384609375  0 18.2507692382813  L 0 7.02  C 0 6.055384609375  0.735384609375 5.27076923828125  1.64 5.27076923828125  L 13.4 5.27076923828125  C 14.304615390625 5.27076923828125  15.04 6.05538462890625  15 7.02  L 15 18.2507692382813  C 15.04 19.215384609375  14.304615390625 20  13.4 20  L 1.64 20  Z M 1.64 6  L 1.64 5.775384609375  C 0.99384615234375 5.775384609375  0.475384609375 6.335384609375  0.475384609375 7.02153845703125  L 0.475384609375 18.2507692382813  C 0.475384609375 18.9353846289063  1 19.4953846289063  1.64 19.495384609375  L 13.4 19.495384609375  C 14.044615390625 19.495384609375  14.564615390625 18.935384609375  14.564615390625 18.2492307617187  L 14.564615390625 7.02153845703125  C 14.564615390625 6.33692306640625  14.04 5.77692306640625  13.4 6  L 1.64 6  Z M 1.04923076171875 18.6661538476562  L 1.04923076171875 18.664615390625  L 1 18.664615390625  L 1 7.02  C 0.92923076171875 6.604615390625  1.24923076171875 6.26615384765625  1.64 6.26615384765625  L 13.4 6.26615384765625  C 13.7892307617188 6.26615384765625  14.1092307617188 6.604615390625  14 7.02  L 14 18.2507692382813  C 14.1092307617188 18.6661538476563  13.7892307617188 19.004615390625  13.4 19  L 1.64 19  C 1.39761696126726 19.0022087643824  1.17389438107967 18.8740343694062  1.04923076171875 18.6661538476562  Z M 13.4 7  L 1.64 7  C 1.50923076171875 6.76615384765625  1.404615390625 6.88  1.404615390625 7.02  L 1.404615390625 18.275384609375  L 1.424615390625 18.335384609375  C 1.44923078125 18.415384609375  1.52 18.5046153710938  1.644615390625 18.504615390625  L 13.3984615429688 18.504615390625  C 13.52923078125 18.504615390625  13.6338461523438 18.3907692382813  13.6338461523438 18.2507692382813  L 13.6338461523438 7.02  C 13.6338461523438 6.88615384765625  13.524615390625 6.76615384765625  13.4 7  Z M 16.8138461523438 16.3492307617188  C 16.424615390625 16.3492307617188  16.124615390625 16.0261538476563  16 15.595384609375  L 16 4.364615390625  C 16.124615390625 4.23076923828125  16.0138461523437 4.11076923828125  15.8892307617187 4.11076923828125  L 5.36 4.11076923828125  C 4.975384609375 4.11076923828125  4.664615390625 3.78  4.664615390625 3.37076923828125  C 4.664615390625 2.96  4.97538462890625 2.63076923828125  5.36 3  L 15.8692307617188 3  C 16.7738461523438 2.63076923828125  17.5092307617188 3.41538462890625  17.5092307617188 4.38  L 17.5092307617188 15.6107692382813  C 17.5092307617188 16.02  17.2 16.34923078125  16.8138461523438 16.3492307617188  Z M 15.8692307617188 3.13846154296875  L 5.36 3.13846154296875  C 5.224615390625 3.13846154296875  5.14 3.264615390625  5.14 3.37384615234375  C 5.14 3.51846154296875  5.255384609375 3.60923076171875  5.36 4  L 15.8830769140625 4  C 16.2738461523438 3.60923076171875  16.5938461523438 3.9476923046875  16.5938461523438 4.3630769140625  L 16.5938461523438 15.5938461523438  C 16.5938461523438 15.7430769140625  16.684615390625 15.8492307617188  16.8138461523438 15.8492307617188  C 16.9492307617187 15.8492307617188  17.0338461523437 15.7230769140625  17 15.6138461523438  L 17 4.3830769140625  C 17.0338461523437 3.6984615234375  16.5092307617188 3.1384615234375  15.8692307617188 3.13846154296875  Z M 18.795384609375 13.48  L 18.7938461523438 13.4784615429687  C 18.6641106394884 13.333778841393  18.5976349153438 13.1432151007205  18.6092307617187 12.9492307617187  L 18.6092307617187 1.73076923828125  C 18.6092307617187 1.59538462890625  18.4984615234375 1.47538462890625  18.3738461523437 1.475384609375  L 7.85076923828125 1.475384609375  C 7.4630769140625 1.4769230859375  7.15384615234375 1.14615384765625  7.15384615234375 0.73846154296875  C 7.15384615234375 0.3276923046875  7.4630769140625 0.00307693359375  7.8476923046875 0  L 18.3569230859375 0  C 19.264615390625 0  20 0.784615390625  20 1.75076923828125  L 20 12.9815384570312  C 20 13.39076921875  19.6907692382812 13.72  19.3061538476562 13.72  C 19.1101595497594 13.7135525194257  18.9254486277248 13.6267606416739  18.795384609375 13.48  Z M 7.85076923828125 0.50153845703125  L 7.84923076171875 0.50153845703125  C 7.715384609375 0.50153845703125  7.62923076171875 0.62461537109375  7.62923076171875 0.735384609375  C 7.62923076171875 0.88153845703125  7.74461537109375 0.97076921875  7.84923076171875 1  L 18.3738461523438 1  C 18.764615390625 0.97076923828125  19.084615390625 1.31076923828125  19 1.724615390625  L 19 12.975384609375  C 19.0843266016334 12.9799952720931  19.0841821011562 12.9846138398702  19.0841821011562 12.9892335378886  C 19.0841821011562 13.1111544752577  19.1826959703378 13.2101610230442  19.304615390625 13.2107692382812  C 19.4384615429688 13.2107692382812  19.524615390625 13.084615390625  19.524615390625 12.975384609375  L 19.524615390625 1.744615390625  C 19.524615390625 1.0615384765625  18.9984615429688 0.5015384765625  18.3584615429688 0.50153845703125  L 7.85076923828125 0.50153845703125  Z " fill-rule="nonzero" fill="#1e87f0" stroke="none" transform="matrix(1 0 0 1 423 2194 )" />
  </g>
</svg>