<?xml version="1.0" encoding="utf-8"?>
<svg version="1.1" xmlns:xlink="http://www.w3.org/1999/xlink" width="64px" height="64px" xmlns="http://www.w3.org/2000/svg">
  <g transform="matrix(1 0 0 1 -550 -2498 )">
    <path d="M 26.478432 43.54496  L 43.26272 33.63136  C 43.89024 33.25504  44.19872 32.71648  44.18816 32.01568  C 44.1776 31.31504  43.86912 30.797376  43.26272 30.462752  L 26.478432 20.486272  C 25.83008 20.109792  25.17648 20.04704  24.517664 20.298048  C 23.858816 20.549024  23.529408 21.030048  24 21.741184  L 24 42.29024  C 23.529408 43.00128  23.848384 43.4928  24.486272 43.7648  C 25.124192 44.0368  25.788224 43.96352  26.478432 43.54528  Z M 19.654912 61.49024  C 23.513728 63.16352  27.628768 64  32 64  C 36.3712 64  40.4864 63.16352  44.34496 61.49024  C 48.20384 59.81696  51.608 57.51104  54.5568 54.57248  C 57.50592 51.63392  59.81696 48.23008  61.49024 44.36064  C 63.16352 40.49152  64 36.3712  64 32  C 64 27.628768  63.16352 23.513728  61.49024 19.654912  C 59.81696 15.796096  57.50592 12.39216  54.5568 9.443136  C 51.60768 6.494112  48.19872 4.183008  44.32928 2.5098048  C 40.46016 0.8366016  36.33984 0  31.968608 0  C 27.597376 0  23.482336 0.8366016  19.62352 2.5098048  C 15.764704 4.183008  12.366016 6.494112  9.427456 9.443136  C 6.488896 12.39216  4.183008 15.796096  2.5098048 19.654912  C 0.8366016 23.513728  0 27.628768  0 32  C 0 36.3712  0.8366016 40.49152  2.5098048 44.36064  C 4.183008 48.23008  6.494112 51.63392  9.443136 54.57248  C 12.39216 57.51104  15.796096 59.81696  19.654912 61.49024  Z M 32 58.66656  C 28.298048 58.66656  24.836608 57.98176  21.61568 56.61184  C 18.394784 55.24192  15.566016 53.33856  13.129408 50.90208  C 10.6928 48.46528  8.789536 45.63136  7.419616 42.4  C 6.049664 39.16864  5.364704 35.70208  5.364704 31.999968  C 5.364704 28.318944  6.049664 24.86272  7.419616 21.631328  C 8.789536 18.399968  10.687584 15.565984  13.113728 13.129376  C 15.539872 10.692768  18.363392 8.784256  21.584288 7.403872  C 24.805216 6.023488  28.266656 5.33328  31.968608 5.33328  C 35.67072 5.33328  39.13216 6.023488  42.35296 7.403872  C 45.57376 8.784256  48.40768 10.692768  50.85504 13.129376  C 53.30208 15.565984  55.21568 18.399968  56.59616 21.631328  C 57.97632 24.86272  58.66656 28.318944  58.66656 31.999968  C 58.66656 35.70208  57.98176 39.16864  56.61184 42.4  C 55.24192 45.63136  53.33856 48.46528  50.90208 50.90208  C 48.46528 53.33856  45.63136 55.24192  42.4 56.61184  C 39.16864 57.98176  35.70208 58.66656  32 58.66656  Z " fill-rule="nonzero" fill="#000000" stroke="none" transform="matrix(1 0 0 1 550 2498 )" />
  </g>
</svg>