<?xml version="1.0" encoding="utf-8"?>
<svg version="1.1" xmlns:xlink="http://www.w3.org/1999/xlink" width="20px" height="20px" xmlns="http://www.w3.org/2000/svg">
  <g transform="matrix(1 0 0 1 -317 -2664 )">
    <path d="M 11 17.6388888888889  C 11.3888888888889 18.6013888888889  10.8090277777778 18.9423611111111  10.3131944444444 18.9423611111111  C 9.85833333333333 18.9423611111111  9.35486111111111 18.6694444444444  8.81666666666667 18.1319444444444  L 4.85138888888889 14.1666666666667  L 3.05555555555556 14.1666666666667  C 1.90694444444444 14.1666666666667  0.972222222222222 13.2319444444444  0.972222222222222 12.0833333333333  L 0.972222222222222 7.91666666666667  C 0.972222222222222 6.76805555555556  1.90694444444444 5.83333333333333  3.05555555555556 5.83333333333333  L 4.85138888888889 5.83333333333333  L 8.81458333333333 1.87013888888889  C 9.34791666666667 1.33680555555556  9.85069444444444 1.06666666666667  10.3090277777778 1.06666666666667  C 10.8069444444444 1.06666666666667  11.3888888888889 1.40625  11 2.36111111111111  L 11 17.6388888888889  Z M 14.3756944444444 14.45  C 14.2395833333333 14.6388888888889  14.0270833333333 14.7388888888889  13.8104166666667 14.7388888888889  C 13.6701388888889 14.7388888888889  13.5284722222222 14.6965277777778  13.4055555555556 14.6083333333333  C 13.0944444444444 14.3847222222222  13.0229166666667 13.9506944444444  13.2465277777778 13.6388888888889  L 13.5215277777778 13.2625  C 14.2402777777778 12.2881944444444  14.8611111111111 11.4458333333333  14.8611111111111 10  C 14.8611111111111 8.50208333333333  14.3111111111111 7.775  13.6145833333333 6.85486111111111  C 13.4916666666667 6.69305555555555  13.36875 6.52916666666667  13.2472222222222 6.36041666666667  C 13.0236111111111 6.04930555555556  13.0944444444444 5.61527777777778  13.40625 5.39097222222222  C 13.7180555555556 5.16597222222222  14.1513888888889 5.23819444444444  14.3756944444444 5.55  C 14.4895833333333 5.70902777777778  14.6069444444444 5.86388888888889  14.7222222222222 6.01666666666667  C 15.4736111111111 7.00972222222222  16.25 8.03611111111111  16.25 10  C 16.25 11.9020833333333  15.3951388888889 13.0625  14.6409722222222 14.0868055555556  L 14.3756944444444 14.45  Z M 16.6951388888889 16.8597222222222  C 16.5569444444444 17.0166666666667  16.3652777777778 17.0965277777778  16.1729166666667 17.0965277777778  C 16.0104166666667 17.0965277777778  15.8465277777778 17.0395833333333  15.7152777777778 16.9243055555556  C 15.4270833333333 16.6715277777778  15.3979166666667 16.2326388888889  15.6506944444444 15.9444444444444  C 17.0444444444444 14.3548611111111  18.3333333333333 12.5361111111111  18.3333333333333 10  C 18.3333333333333 7.46388888888889  17.0444444444444 5.64444444444444  15.6506944444444 4.05625  C 15.3979166666667 3.76736111111111  15.4270833333333 3.32916666666667  15.7152777777778 3.07569444444445  C 16.0020833333333 2.82291666666667  16.4409722222222 2.85138888888889  16.6951388888889 3.13958333333333  C 18.1916666666667 4.84722222222222  19.7222222222222 6.99652777777778  19.7222222222222 10  C 19.7222222222222 13.0034722222222  18.1916666666667 15.1534722222222  16.6951388888889 16.8597222222222  Z " fill-rule="nonzero" fill="#272636" stroke="none" transform="matrix(1 0 0 1 317 2664 )" />
  </g>
</svg>