<?xml version="1.0" encoding="utf-8"?>
<svg version="1.1" xmlns:xlink="http://www.w3.org/1999/xlink" width="20px" height="20px" xmlns="http://www.w3.org/2000/svg">
  <g transform="matrix(1 0 0 1 -825 -2664 )">
    <path d="M 15.6851163512195 11.3669603512195  L 15.678872702439 11.3669603512195  C 14.6097933548476 11.3693325556468  13.5804841711934 11.7725900493744  12.7943051707317 12.4970614829268  L 10.690194204878 9.50010819512195  L 16.6528825365854 0.990009560975609  C 16.6982941760131 0.901690872597606  16.7219833526566 0.803813741495533  16.7219833526566 0.704504085810251  C 16.7219833526566 0.35967666980819  16.442445500366 0.0801388175175681  16.0976180843639 0.0801388175175681  C 15.9246768909282 0.0801388175175681  15.7594823815453 0.151869585334101  15.6414107902439 0.278233170731707  L 9.93471223414634 8.39498165853658  L 4.21552636097561 0.278233170731707  C 4.09726526055896 0.125675870889024  3.91509136574051 0.0363953662932648  3.72206437900796 0.0363953662932648  C 3.3772369630059 0.0363953662932648  3.09769911071528 0.315933218583887  3.09769911071528 0.660760634585948  C 3.09769911071528 0.777112707529112  3.13021093316587 0.891150069615439  3.19156731707317 0.99000956097561  L 9.16049929756097 9.48762087804878  L 7.11882485853659 12.3971630439024  C 6.3373463896429 11.7287151054228  5.34280237050067 11.3613896955883  4.31443898929626 11.3613896955883  C 1.93168153610099 11.3613896955883  7.49697840623435E-05 13.2929962619052  7.49697840623435E-05 15.6757537151004  C 7.49697840623435E-05 18.0585111682957  1.93168153610099 19.9901177346126  4.31443898929626 19.9901177346126  C 6.69719644249153 19.9901177346126  8.62880300880845 18.0585111682957  8.62880300880845 15.6757537151004  C 8.62880300880845 14.8599401964289  8.39749673421883 14.0608456552604  7.96171797073171 13.3711728585366  L 9.92846858536585 10.5740164487805  L 11.9826303219512 13.4960459121951  C 11.600335765667 14.1518130965188  11.3989060204971 14.8972835427242  11.3989060204971 15.6563485780145  C 11.3989060204971 18.0253129324144  13.3193310709752 19.9457379828926  15.6882954253751 19.9457379828926  C 18.0572597797751 19.9457379828926  19.9776848302532 18.0253129324144  19.9776848302532 15.6563485780145  C 19.9776848302532 13.2873842236146  18.0572597797751 11.3669591731365  15.6882954253751 11.3669591731365  C 15.6872357338806 11.3669591731365  15.686176042423 11.3669595658308  15.6851163512195 11.3669603512195  Z M 7.37481463414634 15.6625934048781  C 7.37137134173298 17.3429123797595  6.00823461992693 18.7032557816346  4.32791211707317 18.7032522536585  C 2.6451607198964 18.7032522536653  1.2810159972238 17.3391075309927  1.2810159972238 15.6563497365921  C 1.2810159972238 13.9735919421915  2.6451607198964 12.6094472195189  4.32791851429697 12.6094472195189  C 6.01067630869754 12.6094472195189  7.37482103137014 13.9735919421915  7.37482103137014 15.6563497365921  C 7.37482103137014 15.6584309609927  7.37481889896109 15.6605121848471  7.37481463414634 15.6625934048781  Z M 18.7257752195122 15.6625934048781  C 18.7223319270988 17.3429123797595  17.3591952052928 18.7032557816346  15.678872702439 18.7032522536585  C 13.9961213052623 18.7032522536653  12.6319765825897 17.3391075309927  12.6319765825897 15.6563497365921  C 12.6319765825897 13.9735919421915  13.9961213052623 12.6094472195189  15.6788790996628 12.6094472195189  C 17.3616368940634 12.6094472195189  18.725781616736 13.9735919421915  18.725781616736 15.6563497365921  C 18.725781616736 15.6584309609927  18.7257794843269 15.6605121848471  18.7257752195122 15.6625934048781  Z " fill-rule="nonzero" fill="#000000" stroke="none" transform="matrix(1 0 0 1 825 2664 )" />
  </g>
</svg>