<?xml version="1.0" encoding="utf-8"?>
<svg version="1.1" xmlns:xlink="http://www.w3.org/1999/xlink" width="20px" height="20px" xmlns="http://www.w3.org/2000/svg">
  <g transform="matrix(1 0 0 1 -795 -2664 )">
    <path d="M 19.9771428571429 9.97805309734513  C 19.9716305829618 4.51885694772971  15.5079389723799 0.0946670328165962  10 0.0892035398230088  C 4.49238698775483 0.0954458250438628  0.0291551627674685 4.51918002326142  0.0228571428571426 9.97805309734513  C 0.0283694170381718 15.4372492469606  4.49206102762015 19.8614391618737  10 19.8669026548673  C 15.5079389723799 19.8614391618737  19.9716305829618 15.4372492469606  19.9771428571429 9.97805309734513  Z M 18.5485714285714 9.97805309734513  C 18.5485714285714 14.649203539823  14.7142857142857 18.4509734513274  10 18.4509734513274  C 5.28571428571429 18.4509734513274  1.45142857142857 14.649203539823  1.45142857142857 9.97805309734513  C 1.45142857142857 5.30690265486726  5.28571428571429 1.50513274336283  10 1.50513274336283  C 14.7142857142857 1.50513274336283  18.5485714285714 5.30690265486726  18.5485714285714 9.97805309734513  Z " fill-rule="nonzero" fill="#333333" stroke="none" transform="matrix(1 0 0 1 795 2664 )" />
  </g>
</svg>