<?xml version="1.0" encoding="utf-8"?>
<svg version="1.1" xmlns:xlink="http://www.w3.org/1999/xlink" width="21px" height="22px" xmlns="http://www.w3.org/2000/svg">
  <g transform="matrix(1 0 0 1 -181 -127 )">
    <path d="M 18.928875 21.15625  L 18.9305 21  L 2.0695 21  C 1.11613179394436 21.1553531339343  0.343749578143807 20.3822436279117  0.34375 19.428875  L 0.34375 2.571125  C 0.34375 1.61725  1.11725 0.84375  2.071125 1  L 18.928875 1  C 19.88275 0.84375  20.65625 1.61725  20.65625 2.571125  L 20.65625 4.651125  C 20.6562543333859 4.65166665586768  20.6562565001048 4.6522083269025  20.6562565001048 4.652750000104  C 20.6562565001048 4.76493283991339  20.5653143399142 4.855875000104  20.4531315001048 4.855875000104  L 19.03125 4.855875  C 18.9190671601906 4.855875  18.828125 4.76493283980938  18.828125 4.65275  L 18.828125 3  L 2.171875 3  L 2.171875 19  L 18.828125 19  L 18.828125 17.345625  C 18.828125 17.231875  18.919125 17.1425  19.03125 17.1425  L 20.453125 17.1425  C 20.56525 17.1425  20.65625 17.2335  20.65625 17.345625  L 20.65625 19.4305  C 20.65625 20.38275  19.88275 21.15625  18.928875 21.15625  Z M 5.92725 10.08675  L 5.9305 10  L 16.696125 10  C 16.831 10.085125  16.897625 10.153375  16.897625 10.28825  L 16.897625 11.710125  C 16.897625 11.846625  16.831 11.914875  16.696125 12  L 5.92725 12  C 5.792375 11.914875  5.724125 11.846625  5.724125 11.710125  L 5.724125 10.289875  C 5.724125 10.153375  5.792375 10.08675  5.92725 10.08675  Z M 20.3155802811467 11  C 20.3155802811467 10.8821133807633  20.264372284143 10.770040234816  20.17525 10.692875  L 16.936625 7.884875  C 16.8627049202724 7.82062727238961  16.7680631822103 7.78524633991298  16.6701246877864 7.78524633991298  C 16.4457590081676 7.78524633991298  16.2638746877864 7.96713066029422  16.2638746877864 8.19149633991298  L 16.263875 13.808  C 16.2638746877864 14.0328693397058  16.4457590081676 14.214753660087  16.6701246877864 14.214753660087  C 16.7680631822103 14.214753660087  16.8627049202724 14.1793727276104  16.936625 14.115125  L 20.17525 11.307125  C 20.264372284143 11.229959765184  20.3155802811467 11.1178866192367  20.3155802811467 11  Z " fill-rule="nonzero" fill="#2c2c2c" stroke="none" transform="matrix(1 0 0 1 181 127 )" />
  </g>
</svg>