<?xml version="1.0" encoding="utf-8"?>
<svg version="1.1" xmlns:xlink="http://www.w3.org/1999/xlink" width="15px" height="13px" xmlns="http://www.w3.org/2000/svg">
  <g transform="matrix(1 0 0 1 -267 -205 )">
    <path d="M 14.9121951219512 5.05034146341463  C 14.9107317073171 6.14107317073171  13.8878048780488 7.02760975609756  12.6307317073171 7.02760975609756  L 9.20926829268292 7.02760975609756  C 7.95072850768061 7.02551240872006  6.93153613838735 6.14107773740914  6.93073170731707 5.05034146341463  L 6.93073170731707 2.08634146341464  C 6.93234216714086 0.996100389951043  7.95129911659397 0.112437189170768  9.20926829268292 0.110341463414634  L 12.6307317073171 0.110341463414634  C 13.8898438808517 0.111040073803644  14.9105811332748 0.995111585908722  14.9121951219512 2.08634146341463  L 14.9121951219512 5.05034146341463  Z M 12.6307317073171 1.09834146341463  L 9.20926829268292 1.09834146341463  C 8.58056951048669 1.0997381309085  8.07153566862403 1.54146784098075  8.07073170731707 2.08634146341463  L 8.07073170731707 5.05034146341463  C 8.07073170731707 5.59570731707317  8.58292682926829 6.03960975609756  9.20926829268292 6.03960975609756  L 12.6307317073171 6.03960975609756  C 13.2611445437093 6.03960975609756  13.7721951219512 5.59669925495456  13.7721951219512 5.05034146341464  C 13.7721951219512 3.73131707317073  13.7721951219512 6.36936585365854  13.7721951219512 5.05034146341463  L 13.7721951219512 2.08634146341464  C 13.7713876324907 1.54047903657147  13.2605734866806 1.09834101480919  12.6307317073171 1.09834146341463  Z M 4.08 1.09834146341463  L 0.660000000000001 1.09834146341463  C 0.65037743368756 1.09876415986988  0.640744059715231 1.0989756097561  0.631109140942826 1.0989756097561  C 0.315902722746714 1.0989756097561  0.0603774336257523 0.877520359184597  0.0603774336257523 0.604341463414634  C 0.0603774336257523 0.331162567644671  0.315902722746714 0.109707317073171  0.631109140942826 0.109707317073171  C 0.640744059715231 0.109707317073171  0.65037743368756 0.109918766959393  0.66 0.110341463414634  L 4.08 0.110341463414634  C 4.39480230740355 0.110341463414634  4.65 0.331512796998222  4.65 0.604341463414634  C 4.65 0.877170129831045  4.39480230740355 1.09834146341463  4.08 1.09834146341463  Z M 4.08 4.06360975609756  L 0.660000000000001 4.06360975609756  C 0.650377433687572 4.0640324525528  0.640744059715225 4.06424390243903  0.631109140942831 4.06424390243903  C 0.315902722746719 4.06424390243903  0.0603774336257575 3.84278865186752  0.0603774336257575 3.56960975609756  C 0.0603774336257575 3.2964308603276  0.315902722746719 3.0749756097561  0.631109140942831 3.0749756097561  C 0.640744059715225 3.0749756097561  0.650377433687572 3.07518705964232  0.66 3.07560975609756  L 4.08 3.07560975609756  C 4.39480230740355 3.07560975609756  4.65 3.29678108968115  4.65 3.56960975609756  C 4.65 3.84243842251397  4.39480230740355 4.06360975609756  4.08 4.06360975609756  Z M 4.08 7.02760975609756  L 0.660000000000001 7.02760975609756  C 0.650377433687548 7.0280324525528  0.640744059715238 7.02824390243902  0.63110914094282 7.02824390243902  C 0.315902722746709 7.02824390243902  0.0603774336257471 6.80678865186752  0.0603774336257471 6.53360975609756  C 0.0603774336257471 6.2604308603276  0.315902722746709 6.0389756097561  0.63110914094282 6.0389756097561  C 0.640744059715238 6.0389756097561  0.650377433687548 6.03918705964232  0.66 6.03960975609756  L 4.08 6.03960975609756  C 4.39480230740355 6.03960975609756  4.65 6.26078108968115  4.65 6.53360975609756  C 4.65 6.80643842251397  4.39480230740355 7.02760975609756  4.08 7.02760975609756  Z M 14.3414634146342 9.99287804878049  C 14.3414634146342 9.99287804878049  14.3414634146342 9.99287804878049  14.3414634146341 10  L 0.660000000000001 10  C 0.660000000000001 9.99287804878049  0.660000000000001 9.99287804878049  0.660000000000001 9.99287804878049  C 0.344793581803889 9.99287804878049  0.0892682926829274 9.77142279820899  0.0892682926829274 9.49824390243903  C 0.0892682926829274 9.22506500666906  0.344793581803889 9.00360975609756  0.660000000000001 9.00360975609756  C 0.660000000000001 9.00360975609756  0.660000000000001 9.00360975609756  0.66 9  L 14.3414634146342 9  C 14.3414634146342 9.00360975609756  14.3414634146342 9.00360975609756  14.3414634146342 9.00360975609756  C 14.6566698328303 9.00360975609756  14.9121951219512 9.22506500666906  14.9121951219512 9.49824390243903  C 14.9121951219512 9.77142279820899  14.6566698328303 9.99287804878049  14.3414634146342 9.99287804878049  Z M 9.23815915174009 12.956243902439  C 9.22852423296769 12.956243902439  9.21889085899536 12.9560324525528  9.20926829268292 12.9556097560976  L 0.660000000000001 12.9556097560976  C 0.650377433687569 12.9560324525528  0.640744059715238 12.956243902439  0.631109140942841 12.956243902439  C 0.31590272274673 12.956243902439  0.0603774336257672 12.7347886518675  0.0603774336257672 12.4616097560976  C 0.0603774336257672 12.1884308603276  0.31590272274673 11.9669756097561  0.631109140942841 11.9669756097561  C 0.640744059715238 11.9669756097561  0.650377433687569 11.9671870596423  0.66 11.9676097560976  L 9.20926829268292 11.9676097560976  C 9.21889085899536 11.9671870596423  9.22852423296769 11.9669756097561  9.23815915174009 11.9669756097561  C 9.5533655699362 11.9669756097561  9.80889085905716 12.1884308603276  9.80889085905716 12.4616097560976  C 9.80889085905716 12.7347886518675  9.5533655699362 12.956243902439  9.23815915174009 12.956243902439  Z " fill-rule="nonzero" fill="#4d4d4d" stroke="none" transform="matrix(1 0 0 1 267 205 )" />
  </g>
</svg>