<?xml version="1.0" encoding="utf-8"?>
<svg version="1.1" xmlns:xlink="http://www.w3.org/1999/xlink" width="20px" height="20px" xmlns="http://www.w3.org/2000/svg">
  <g transform="matrix(1 0 0 1 -291 -202 )">
    <path d="M 19.8684210526316 17.4013157894737  C 19.8684210526316 18.8549122807018  18.8549122807018 19.8684210526316  17.4013157894737 19.8684210526316  L 2.59868421052632 19.8684210526316  C 1.14508771929825 19.8684210526316  0.131578947368421 18.8549122807018  0.131578947368421 17.4013157894737  L 0.131578947368421 2.59868421052632  C 0.131578947368421 1.14508771929825  1.14508771929825 0.131578947368421  2.59868421052632 0.131578947368421  L 17.4013157894737 0.131578947368421  C 18.8549122807018 0.131578947368421  19.8684210526316 1.14508771929825  19.8684210526316 2.59868421052632  L 19.8684210526316 17.4013157894737  Z M 2.64565789473684 1.07160087719298  C 1.62331140350877 1.36835526315789  0.953947368421053 2.24532894736842  0.953947368421053 3.42105263157895  L 0.953947368421053 5.06578947368421  L 4.24342105263158 5.06578947368421  L 2.64565789473684 1.07160087719298  Z M 6.71052631578947 0.953947368421053  L 4.24342105263158 0.953947368421053  L 5.8881798245614 5.06578947368421  L 8.35486842105263 5.06578947368421  L 6.71052631578947 0.953947368421053  Z M 8.35486842105263 0.953947368421053  L 10 5.06578947368421  L 12.4671052631579 5.06578947368421  L 10.8223684210526 0.953947368421053  L 8.35484649122807 0.953947368421053  Z M 14.9342105263158 0.953947368421053  L 12.4671052631579 0.953947368421053  L 14.1118421052632 5.06578947368421  L 16.5789473684211 5.06578947368421  L 14.9342105263158 0.953947368421053  Z M 19.0460526315789 5.06578947368421  L 19.0460526315789 3.42105263157895  C 19.0460526315789 1.96745614035088  18.0325438596491 0.953947368421053  16.5789473684211 0.953947368421053  L 18.2237061403509 5.06578947368421  L 19.0460526315789 5.06578947368421  Z M 19 5.88815789473684  L 19.0460526315789 6  L 1 6  L 1 16.5789473684211  C 0.953969298245614 18.0325438596491  1.96747807017544 19.0460526315789  3.42107456140351 19  L 16.5789692982456 19  C 18.0325657894737 19.0460526315789  19.0460745614035 18.0325438596491  19 16.5789473684211  L 19 5.88815789473684  Z M 6.71052631578947 8.35526315789474  L 14.1118421052632 12.4671052631579  L 6.71052631578947 16.5789473684211  L 6.71052631578947 8.3552850877193  Z " fill-rule="nonzero" fill="#0099ff" stroke="none" transform="matrix(1 0 0 1 291 202 )" />
  </g>
</svg>