<?xml version="1.0" encoding="utf-8"?>
<svg version="1.1" xmlns:xlink="http://www.w3.org/1999/xlink" width="20px" height="20px" xmlns="http://www.w3.org/2000/svg">
  <g transform="matrix(1 0 0 1 -264 -202 )">
    <path d="M 19.8706666666667 16.5575  C 19.8662619527111 18.4386728142794  18.2399203593548 19.9622502462886  16.2333333333333 20  L 3.768 20  C 1.76132626730925 19.9629347014792  0.134938973814762 18.4387557403729  0.132 16.5575  L 0.132 3.40875  C 0.134204497884178 1.52700608595849  1.76080649168906 0.00206671676641678  3.768 0  L 16.2333333333333 0  C 18.241047520888 0.00137778902592018  19.8684609246355 1.52651858082144  19.8706666666667 3.40875  L 19.8706666666667 16.5575  Z M 16.2333333333333 1  L 3.768 1  C 2.33414169172188 0.975128004329174  1.17213653795112 2.06450783598926  1.17066666666667 3.40875  L 1.17066666666667 16.5575  C 1.17360503369952 17.9007657504105  2.33518093715182 18.9886251132754  3.768 19  L 16.2333333333333 19  C 17.6661523961815 18.9886251132754  18.8277282996338 17.9007657504105  18.8306666666667 16.5575  L 18.8306666666667 3.40875  C 18.8291967953822 2.06450783598926  17.6671916416115 0.975128004329173  16.2333333333333 1  Z " fill-rule="nonzero" fill="#4d4d4d" stroke="none" transform="matrix(1 0 0 1 264 202 )" />
  </g>
</svg>