<?xml version="1.0" encoding="utf-8"?>
<svg version="1.1" xmlns:xlink="http://www.w3.org/1999/xlink" width="8px" height="14px" xmlns="http://www.w3.org/2000/svg">
  <g transform="matrix(1 0 0 1 -185 -432 )">
    <path d="M 6.99744185626837 7.53482572471216  C 7.04093017178376 7.48354953741773  7.06395338541668 7.42079269891042  7.09363326708707 7.36208966128697  C 7.10183029970777 7.34423428248351  7.11511610014627 7.3292877569902  7.1222953855995 7.31084443359373  C 7.26302036275603 6.98155667660365  7.21694639985379 6.57861935649669  6.96776199058847 6.31379042454773  L 1.31915081551526 0.303368076685842  C 1.01110177266082 -0.0241867521588119  0.525523592836331 -0.00865226408302533  0.233841111568078 0.337345888157984  C -0.0573187362939381 0.683901061369284  -0.0440054322003663 1.23017651367184  0.264043610654274 1.55831930509862  L 5.33239810398411 6.95222062859784  L 0.283986063139562 12.4261462068256  C -0.0209822185671934 12.7571359503495  -0.0301970143458574 13.3034423442639  0.264043610654274 13.6471196237665  C 0.414478497350198 13.8232596422697  0.615580969024045 13.9113605931333  0.816683440698145 13.9113605931333  C 1.00857113258401 13.9113605931333  1.20045880847945 13.8307793174342  1.34935331460166 13.6695858244243  L 6.94680177494527 7.60042951531659  C 6.9575569512976 7.58832994192016  6.96162795595774 7.57165048828131  6.97238313231007 7.55899391190383  C 6.98058016493057 7.55036021278784  6.98927232730269 7.54401644479856  6.99744185626837 7.53482572471216  Z " fill-rule="nonzero" fill="#969799" stroke="none" transform="matrix(1 0 0 1 185 432 )" />
  </g>
</svg>