<?xml version="1.0" encoding="utf-8"?>
<svg version="1.1" xmlns:xlink="http://www.w3.org/1999/xlink" width="633px" height="556px" xmlns="http://www.w3.org/2000/svg">
  <g transform="matrix(1 0 0 1 -244 -1179 )">
    <path d="M 244 1179  L 877 1179  L 877 1735  L 244 1735  L 244 1179  " fill-rule="nonzero" fill="#cccccc" stroke="none" />
    <path d="M 283 1218  L 838 1218  L 838 1696  L 283 1696  L 283 1218  " fill-rule="nonzero" fill="#ffffff" stroke="none" />
    <path d="M 614.86 1345.8  C 591.508 1345.8  573.16 1327.452  573.16 1304.1  C 573.16 1280.748  591.508 1262.4  614.86 1262.4  C 638.212 1262.4  656.56 1280.748  656.56 1304.1  C 656.56 1327.452  638.212 1345.8  614.86 1345.8  " fill-rule="nonzero" fill="#cccccc" stroke="none" />
    <path d="M 297 1682  L 297 1434.5  L 428.75 1322  L 613.2 1444.84360189573  L 718.6 1389.5  L 824 1444.84360189573  L 824 1682  L 297 1682  " fill-rule="nonzero" fill="#169bd5" stroke="none" />
  </g>
</svg>