<?xml version="1.0" encoding="utf-8"?>
<svg version="1.1" xmlns:xlink="http://www.w3.org/1999/xlink" width="45px" height="45px" xmlns="http://www.w3.org/2000/svg">
  <g transform="matrix(1 0 0 1 -276 -1779 )">
    <path d="M 276 1779  L 321 1779  L 321 1824  L 276 1824  L 276 1779  " fill-rule="nonzero" fill="#cccccc" stroke="none" />
    <path d="M 279 1782  L 318 1782  L 318 1821  L 279 1821  L 279 1782  " fill-rule="nonzero" fill="#ffffff" stroke="none" />
    <path d="M 302.775 1792.5  C 300.885 1792.5  299.4 1791.015  299.4 1789.125  C 299.4 1787.235  300.885 1785.75  302.775 1785.75  C 304.665 1785.75  306.15 1787.235  306.15 1789.125  C 306.15 1791.015  304.665 1792.5  302.775 1792.5  " fill-rule="nonzero" fill="#cccccc" stroke="none" />
    <path d="M 280 1820  L 280 1799.65  L 289.25 1790.4  L 302.2 1797.8  L 309.6 1795.95  L 317 1797.8  L 317 1820  L 280 1820  " fill-rule="nonzero" fill="#169bd5" stroke="none" />
    <path d="M 277.5 1822.5  L 277.5 1780.5  L 319.5 1780.5  L 319.5 1822.5  L 277.5 1822.5  Z " stroke-width="3" stroke="#0099ff" fill="none" />
  </g>
</svg>