<?xml version="1.0" encoding="utf-8"?>
<svg version="1.1" xmlns:xlink="http://www.w3.org/1999/xlink" width="15px" height="15px" xmlns="http://www.w3.org/2000/svg">
  <g transform="matrix(1 0 0 1 -248 -1791 )">
    <path d="M 7.5 0.1171875  C 3.42892272949219 0.1171875  0.1171875 3.42892272949211  0.1171875 7.5  C 0.1171875 11.5710772705079  3.42892272949219 14.8828125  7.5 14.8828125  C 11.5710772705078 14.8828125  14.8828125 11.5710772705079  14.8828125 7.5  C 14.8828125 3.42892272949211  11.5710772705078 0.1171875  7.5 0.1171875  Z M 5.03203125 7.89498046874996  C 4.87593750000001 7.74046875000022  4.83689758300781 7.51263977050803  4.91494445800781 7.32118103027324  C 4.91548828125001 7.31908813476548  4.918125 7.3169622802734  4.91916320800782 7.31485290527326  C 4.94447570800781 7.25526306152324  4.979296875 7.1983099365234  5.02779602050781 7.14926696777366  C 5.02833984375 7.14875610351555  5.0288671875 7.14875610351555  5.02937805175782 7.14821228027358  C 5.02988891601562 7.14766845703116  5.02988891601562 7.14715759277351  5.03043273925782 7.14663024902347  L 7.64922180175782 4.52047485351568  C 7.85488586425781 4.31429992675794  8.18867797851563 4.31322875976548  8.39488586425782 4.51942016601561  C 8.60106079101563 4.7250842285157  8.60160461425781 5.0588763427736  8.39594055175782 5.26508422851566  L 6.14998352050782 7.5173858642579  L 8.41439758300781 9.75701477050779  C 8.62164367675781 9.96213500976546  8.6232421875 10.2954327392576  8.4186163330078 10.5026788330078  C 8.31580078125 10.6070928955078  8.17972961425781 10.6592999267577  8.04369140625001 10.6592999267577  C 7.90974609375 10.6592999267577  7.77576782226562 10.6081640624998  7.67295227050781 10.5068975830077  L 5.03203125 7.89498046874996  Z " fill-rule="nonzero" fill="#b6b6b6" stroke="none" transform="matrix(1 0 0 1 248 1791 )" />
  </g>
</svg>