<?xml version="1.0" encoding="utf-8"?>
<svg version="1.1" xmlns:xlink="http://www.w3.org/1999/xlink" width="15px" height="15px" xmlns="http://www.w3.org/2000/svg">
  <g transform="matrix(1 0 0 1 -862 -1794 )">
    <path d="M 14.8828125 7.5  C 14.8828125 3.42891475341776  11.571085246582 0.1171875  7.5 0.1171875  C 3.42891475341797 0.1171875  0.1171875 3.42891475341776  0.1171875 7.5  C 0.1171875 11.5710852465822  3.42891475341797 14.8828125  7.5 14.8828125  C 11.571085246582 14.8828125  14.8828125 11.5710852465822  14.8828125 7.5  Z M 10.0850545037842 7.32118075012204  C 10.1630965667725 7.51264321472172  10.124061362915 7.74047611633296  9.96797725341797 7.89497273986808  L 7.32704881713867 10.5069011590576  C 7.22423061218262 10.6081602227782  7.09025794372559 10.6593000256348  6.95631361999511 10.6593000256348  C 6.82027153930665 10.6593000256348  6.68420113037109 10.6070830078124  6.58138290893555 10.5026773004151  C 6.37676700805665 10.2954250433349  6.37835449401855 9.9621375476072  6.58560676757813 9.75701139221201  L 8.85001700683594 7.51737731140156  L 6.6040613269043 5.26510001586894  C 6.39839655578614 5.05889662902837  6.3989351715088 4.72509887878414  6.60511019714356 4.5194341076658  C 6.81131358398437 4.31323072082523  7.14511133422852 4.31430795227061  7.35077610534668 4.52048297790543  L 9.96956473937988 7.14664209777811  C 9.97010335510254 7.1471807135008  9.97010335510254 7.14769096801774  9.97061360961914 7.14822958374043  C 9.97112386413573 7.14876819946267  9.9716624798584 7.14876819946267  9.97220109558106 7.1492784539796  C 10.0207045257568 7.19832049987781  10.0555158874512 7.25527164733876  10.0808306451416 7.3148591510012  C 10.0818795153809 7.31695690795914  10.0845158880615 7.31908300964369  10.0850545037842 7.32118075012204  Z " fill-rule="nonzero" fill="#b6b6b6" stroke="none" transform="matrix(1 0 0 1 862 1794 )" />
  </g>
</svg>