<?xml version="1.0" encoding="utf-8"?>
<svg version="1.1" xmlns:xlink="http://www.w3.org/1999/xlink" width="20px" height="20px" xmlns="http://www.w3.org/2000/svg">
  <g transform="matrix(1 0 0 1 -487 -1792 )">
    <path d="M 8.27451 13.6078  L 13.5196 10.5098  C 13.7157 10.3922  13.8121 10.2239  13.8088 10.0049  C 13.8055 9.78595  13.7091 9.62418  13.5196 9.51961  L 8.27451 6.40196  C 8.0719 6.28431  7.86765 6.2647  7.66177 6.34314  C 7.45588 6.42157  7.35294 6.57189  7.35294 6.79412  L 7.35294 13.2157  C 7.35294 13.4379  7.45262 13.5915  7.65196 13.6765  C 7.85131 13.7615  8.05882 13.7386  8.27451 13.6079  Z M 6.14216 19.2157  C 7.34804 19.7386  8.63399 20  10 20  C 11.366 20  12.652 19.7386  13.8578 19.2157  C 15.0637 18.6928  16.1275 17.9722  17.049 17.0539  C 17.9706 16.1356  18.6928 15.0719  19.2157 13.8627  C 19.7386 12.6536  20 11.366  20 10  C 20 8.63399  19.7386 7.34804  19.2157 6.14216  C 18.6928 4.93628  17.9706 3.87255  17.049 2.95098  C 16.1274 2.02941  15.0621 1.30719  13.8529 0.784314  C 12.6438 0.261438  11.3562 0  9.99019 0  C 8.62418 0  7.33823 0.261438  6.13235 0.784314  C 4.92647 1.30719  3.86438 2.02941  2.94608 2.95098  C 2.02778 3.87255  1.30719 4.93628  0.784314 6.14216  C 0.261438 7.34804  0 8.63399  0 10  C 0 11.366  0.261438 12.6536  0.784314 13.8627  C 1.30719 15.0719  2.02941 16.1356  2.95098 17.0539  C 3.87255 17.9722  4.93628 18.6928  6.14216 19.2157  Z M 10 18.3333  C 8.84314 18.3333  7.76144 18.1193  6.7549 17.6912  C 5.74837 17.2631  4.86438 16.6683  4.10294 15.9069  C 3.3415 15.1454  2.74673 14.2598  2.31863 13.25  C 1.89052 12.2402  1.67647 11.1569  1.67647 9.99999  C 1.67647 8.84967  1.89052 7.7696  2.31863 6.75979  C 2.74673 5.74999  3.33987 4.86437  4.09804 4.10293  C 4.85621 3.34149  5.73856 2.74508  6.74509 2.31371  C 7.75163 1.88234  8.83333 1.66665  9.99019 1.66665  C 11.1471 1.66665  12.2288 1.88234  13.2353 2.31371  C 14.2418 2.74508  15.1274 3.34149  15.8922 4.10293  C 16.6569 4.86437  17.2549 5.74999  17.6863 6.75979  C 18.1176 7.7696  18.3333 8.84967  18.3333 9.99999  C 18.3333 11.1569  18.1193 12.2402  17.6912 13.25  C 17.2631 14.2598  16.6683 15.1454  15.9069 15.9069  C 15.1454 16.6683  14.2598 17.2631  13.25 17.6912  C 12.2402 18.1193  11.1569 18.3333  10 18.3333  Z " fill-rule="nonzero" fill="#ffffff" stroke="none" transform="matrix(1 0 0 1 487 1792 )" />
  </g>
</svg>