<?xml version="1.0" encoding="utf-8"?>
<svg version="1.1" xmlns:xlink="http://www.w3.org/1999/xlink" width="20px" height="20px" xmlns="http://www.w3.org/2000/svg">
  <g transform="matrix(1 0 0 1 -854 -2664 )">
    <path d="M 7.325 6.05833333333333  L 3.61111111111111 2.34444444444444  L 4.83055555555556 1.125  C 4.96111111111111 0.994444444444446  4.88333333333333 0.769444444444443  4.7 0.747222222222224  L 0.250000000000001 0.222222222222221  C 0.108333333333333 0.205555555555555  -0.0138888888888881 0.325000000000001  0.00277777777777821 0.469444444444444  L 0.527777777777777 4.91944444444445  C 0.55 5.10277777777778  0.775 5.18055555555556  0.905555555555555 5.05  L 2.11944444444444 3.83611111111111  L 5.83333333333333 7.54722222222222  C 5.91944444444445 7.63333333333333  6.06111111111111 7.63333333333333  6.14722222222222 7.54722222222222  L 7.325 6.37222222222222  C 7.41111111111111 6.28611111111111  7.41111111111111 6.14444444444445  7.325 6.05833333333333  Z M 12.2305555555556 6.36944444444444  L 13.4083333333333 7.54722222222222  C 13.4944444444445 7.63333333333333  13.6361111111111 7.63333333333333  13.7222222222222 7.54722222222222  L 17.4361111111111 3.83611111111111  L 18.65 5.05  C 18.7805555555556 5.18055555555556  19.0055555555556 5.10277777777778  19.0277777777778 4.91944444444445  L 19.5527777777778 0.472222222222222  C 19.5694444444444 0.330555555555557  19.45 0.208333333333333  19.3055555555556 0.225  L 14.8555555555556 0.749999999999999  C 14.6722222222222 0.772222222222221  14.5944444444444 0.997222222222221  14.725 1.12777777777778  L 15.9444444444444 2.34722222222222  L 12.2305555555556 6.05555555555556  C 12.1444444444444 6.14166666666667  12.1444444444444 6.28333333333333  12.2305555555556 6.36944444444444  Z M 19.5527777777778 19.5305555555556  L 19.0277777777778 15.0805555555556  C 19.0055555555556 14.8972222222222  18.7805555555556 14.8194444444444  18.65 14.95  L 17.4361111111111 16.1638888888889  L 13.7222222222222 12.4527777777778  C 13.6361111111111 12.3666666666667  13.4944444444444 12.3666666666667  13.4083333333333 12.4527777777778  L 12.2305555555556 13.6277777777778  C 12.1444444444444 13.7138888888889  12.1444444444444 13.8555555555556  12.2305555555556 13.9416666666667  L 15.9444444444444 17.6555555555556  L 14.725 18.875  C 14.5944444444444 19.0055555555556  14.6722222222222 19.2305555555556  14.8555555555556 19.2527777777778  L 19.3055555555556 19.7777777777778  C 19.4472222222222 19.7944444444444  19.5694444444444 19.675  19.5527777777778 19.5305555555556  Z M 7.325 13.6305555555556  L 6.14722222222222 12.4527777777778  C 6.06111111111111 12.3666666666667  5.91944444444445 12.3666666666667  5.83333333333333 12.4527777777778  L 2.11944444444444 16.1638888888889  L 0.905555555555555 14.95  C 0.775 14.8194444444444  0.55 14.8972222222222  0.527777777777777 15.0805555555556  L 0.00277777777777821 19.5277777777778  C -0.0138888888888881 19.6694444444444  0.105555555555554 19.7916666666667  0.250000000000001 19.775  L 4.7 19.25  C 4.88333333333333 19.2277777777778  4.96111111111111 19.0027777777778  4.83055555555556 18.8722222222222  L 3.61111111111111 17.6555555555556  L 7.325 13.9444444444444  C 7.41111111111111 13.8583333333333  7.41111111111111 13.7166666666667  7.325 13.6305555555556  Z " fill-rule="nonzero" fill="#000000" stroke="none" transform="matrix(1 0 0 1 854 2664 )" />
  </g>
</svg>