<?xml version="1.0" encoding="utf-8"?>
<svg version="1.1" xmlns:xlink="http://www.w3.org/1999/xlink" width="15px" height="15px" xmlns="http://www.w3.org/2000/svg">
  <g transform="matrix(1 0 0 1 -1221 -2354 )">
    <path d="M 6.53409090909092 0.163992869875217  C 6.53409090909092 0.0546642899584114  6.59103287779758 0  6.70491681521094 0  L 7.98611111111111 0  C 8.09999504852446 0  8.15693701723113 0.0546642899584114  8 0.163992869875217  L 8 14.5953654188948  C 8.15693701723113 14.7046939988117  8.09999504852446 14.7593582887701  7.98611111111111 14.7593582887701  L 6.70491681521094 14.7593582887701  C 6.59103287779758 14.7593582887701  6.53409090909092 14.7046939988117  6.53409090909092 14.5953654188948  L 6.53409090909092 0.163992869875217  Z M 0 6.76470588235294  C 0 6.65537730243613  0.0569419687066786 6.60071301247771  0.17082590612002 6.60071301247771  L 14.520202020202 6.60071301247771  C 14.6340859576154 6.60071301247771  14.691027926322 6.65537730243613  14.691027926322 6.76470588235294  L 14.691027926322 7.9946524064171  C 14.691027926322 8.10398098633393  14.6340859576154 8.15864527629233  14.520202020202 8  L 0.17082590612002 8  C 0.0569419687066786 8.15864527629233  0 8.10398098633393  0 7.9946524064171  L 0 6.76470588235294  Z " fill-rule="nonzero" fill="#d8d8d8" stroke="none" transform="matrix(1 0 0 1 1221 2354 )" />
  </g>
</svg>