<?xml version="1.0" encoding="utf-8"?>
<svg version="1.1" xmlns:xlink="http://www.w3.org/1999/xlink" width="20px" height="20px" xmlns="http://www.w3.org/2000/svg">
  <g transform="matrix(1 0 0 1 -1336 -706 )">
    <path d="M 11.2276785714286 9.01785714285714  C 11.4955357142857 8.74255952380952  11.6294642857143 8.35193452380952  11.6294642857143 7.84598214285714  C 11.6294642857143 7.19122023809524  11.40625 6.74107142857143  10.9598214285714 6.49553571428571  C 10.7142857142857 6.36160714285714  10.2790178571429 6.29464285714286  9.65401785714286 6.29464285714286  L 8.28125 6.29464285714286  L 8.28125 9.43080357142857  L 10.0892857142857 9.43080357142857  C 10.5803571428571 9.43080357142857  10.9598214285714 9.29315476190476  11.2276785714286 9.01785714285714  Z M 12.109375 10.8482142857143  C 12.1540178571429 10.922619047619  12.1875 10.9821428571429  12.2098214285714 11.0267857142857  L 14.4977678571429 15.1897321428571  C 14.5572916666667 15.3162202380952  14.5535714285714 15.4315476190476  14.4866071428571 15.5357142857143  C 14.4270833333333 15.6547619047619  14.3266369047619 15.7142857142857  14.1852678571429 15.7142857142857  L 12.4888392857143 15.7142857142857  C 12.3400297619048 15.7142857142857  12.2358630952381 15.6510416666667  12.1763392857143 15.5245535714286  L 10.0111607142857 11.4508928571429  L 8.28125 11.4508928571429  L 8.28125 15.3571428571429  C 8.28125 15.4613095238095  8.24776785714286 15.546875  8.18080357142857 15.6138392857143  C 8.11383928571429 15.6808035714286  8.02827380952381 15.7142857142857  7.92410714285714 15.7142857142857  L 6.42857142857143 15.7142857142857  C 6.32440476190476 15.7142857142857  6.23883928571429 15.6808035714286  6.171875 15.6138392857143  C 6.10491071428571 15.546875  6.07142857142857 15.4613095238095  6 15.3571428571429  L 6 4.64285714285714  C 6.07142857142857 4.53869047619047  6.10491071428571 4.453125  6.171875 4.38616071428571  C 6.23883928571429 4.31919642857143  6.32440476190476 4.28571428571429  6.42857142857143 4.28571428571429  L 9.70982142857143 4.28571428571429  C 10.6622023809524 4.28571428571429  11.3690476190476 4.375  11.8303571428571 4.55357142857143  C 12.4627976190476 4.78422619047619  12.9613095238095 5.18973214285714  13.3258928571429 5.77008928571429  C 13.6904761904762 6.35044642857143  13.8727678571429 7.02008928571429  13.8727678571429 7.77901785714286  C 13.8727678571429 8.46354166666666  13.7146577380952 9.07924107142857  13.3984375 9.62611607142857  C 13.0822172619048 10.1729910714286  12.6525297619048 10.5803571428571  12.109375 10.8482142857143  Z M 13.1919642857143 2.43861607142857  C 12.1800595238095 2.00334821428571  11.1160714285714 1.78571428571429  10 1.78571428571429  C 8.88392857142857 1.78571428571429  7.81994047619048 2.00334821428571  6.80803571428571 2.43861607142857  C 5.79613095238095 2.87388392857143  4.92373511904762 3.45796130952381  4.19084821428571 4.19084821428571  C 3.45796130952381 4.92373511904762  2.87388392857143 5.79613095238095  2.43861607142857 6.80803571428571  C 2.00334821428571 7.81994047619047  1.78571428571429 8.88392857142857  1.78571428571429 10  C 1.78571428571429 11.1160714285714  2.00334821428571 12.1800595238095  2.43861607142857 13.1919642857143  C 2.87388392857143 14.203869047619  3.45796130952381 15.0762648809524  4.19084821428571 15.8091517857143  C 4.92373511904762 16.5420386904762  5.79613095238095 17.1261160714286  6.80803571428571 17.5613839285714  C 7.81994047619048 17.9966517857143  8.88392857142857 18.2142857142857  10 18.2142857142857  C 11.1160714285714 18.2142857142857  12.1800595238095 17.9966517857143  13.1919642857143 17.5613839285714  C 14.203869047619 17.1261160714286  15.0762648809524 16.5420386904762  15.8091517857143 15.8091517857143  C 16.5420386904762 15.0762648809524  17.1261160714286 14.203869047619  17.5613839285714 13.1919642857143  C 17.9966517857143 12.1800595238095  18.2142857142857 11.1160714285714  18.2142857142857 10  C 18.2142857142857 8.88392857142857  17.9966517857143 7.81994047619047  17.5613839285714 6.80803571428571  C 17.1261160714286 5.79613095238095  16.5420386904762 4.92373511904762  15.8091517857143 4.19084821428571  C 15.0762648809524 3.45796130952381  14.203869047619 2.87388392857143  13.1919642857143 2.43861607142857  Z M 19.2075892857143 6.11607142857143  C 19.7358630952381 7.35119047619047  20 8.64583333333333  20 10  C 20 11.3541666666667  19.7358630952381 12.6488095238095  19.2075892857143 13.8839285714286  C 18.6793154761905 15.1190476190476  17.96875 16.1830357142857  17.0758928571429 17.0758928571429  C 16.1830357142857 17.96875  15.1190476190476 18.6793154761905  13.8839285714286 19.2075892857143  C 12.6488095238095 19.7358630952381  11.3541666666667 20  10 20  C 8.64583333333333 20  7.35119047619048 19.7358630952381  6.11607142857143 19.2075892857143  C 4.88095238095238 18.6793154761905  3.81696428571429 17.96875  2.92410714285714 17.0758928571429  C 2.03125 16.1830357142857  1.32068452380952 15.1190476190476  0.792410714285714 13.8839285714286  C 0.264136904761905 12.6488095238095  0 11.3541666666667  0 10  C 0 8.64583333333333  0.264136904761905 7.35119047619047  0.792410714285714 6.11607142857143  C 1.32068452380952 4.88095238095238  2.03125 3.81696428571429  2.92410714285714 2.92410714285714  C 3.81696428571429 2.03125  4.88095238095238 1.32068452380952  6.11607142857143 0.792410714285714  C 7.35119047619048 0.264136904761905  8.64583333333333 0  10 0  C 11.3541666666667 0  12.6488095238095 0.264136904761905  13.8839285714286 0.792410714285714  C 15.1190476190476 1.32068452380952  16.1830357142857 2.03125  17.0758928571429 2.92410714285714  C 17.96875 3.81696428571429  18.6793154761905 4.88095238095238  19.2075892857143 6.11607142857143  Z " fill-rule="nonzero" fill="#bb21ec" stroke="none" transform="matrix(1 0 0 1 1336 706 )" />
  </g>
</svg>