<?xml version="1.0" encoding="utf-8"?>
<svg version="1.1" xmlns:xlink="http://www.w3.org/1999/xlink" width="432px" height="502px" xmlns="http://www.w3.org/2000/svg">
  <defs>
    <mask fill="white" id="clip1637">
      <path d="M 36 489.93993993994  L 36 274.642580645161  L 0 254.670537634409  L 36 231.459784946237  L 36 12.0600600600601  C 36 5.3064264264264  39.52 0  44 0  L 424 0  C 428.48 0  432 5.3064264264264  432 12.0600600600601  L 432 489.93993993994  C 432 496.693573573574  428.48 502  424 502  L 44 502  C 39.52 502  36 496.693573573574  36 489.93993993994  Z " fill-rule="evenodd" />
    </mask>
  </defs>
  <g transform="matrix(1 0 0 1 -802 -294 )">
    <path d="M 36 489.93993993994  L 36 274.642580645161  L 0 254.670537634409  L 36 231.459784946237  L 36 12.0600600600601  C 36 5.3064264264264  39.52 0  44 0  L 424 0  C 428.48 0  432 5.3064264264264  432 12.0600600600601  L 432 489.93993993994  C 432 496.693573573574  428.48 502  424 502  L 44 502  C 39.52 502  36 496.693573573574  36 489.93993993994  Z " fill-rule="nonzero" fill="#094c67" stroke="none" fill-opacity="0.803921568627451" transform="matrix(1 0 0 1 802 294 )" />
    <path d="M 36 489.93993993994  L 36 274.642580645161  L 0 254.670537634409  L 36 231.459784946237  L 36 12.0600600600601  C 36 5.3064264264264  39.52 0  44 0  L 424 0  C 428.48 0  432 5.3064264264264  432 12.0600600600601  L 432 489.93993993994  C 432 496.693573573574  428.48 502  424 502  L 44 502  C 39.52 502  36 496.693573573574  36 489.93993993994  Z " stroke-width="4" stroke="#34b7e1" fill="none" transform="matrix(1 0 0 1 802 294 )" mask="url(#clip1637)" />
  </g>
</svg>