<?xml version="1.0" encoding="utf-8"?>
<svg version="1.1" xmlns:xlink="http://www.w3.org/1999/xlink" width="20px" height="20px" xmlns="http://www.w3.org/2000/svg">
  <g transform="matrix(1 0 0 1 -1438 -359 )">
    <path d="M 19.3736681012835 9.99935203683036  C 19.3743160435268 7.50559161551339  18.3993246861049 5.1618326171875  16.6274574288504 3.39932468610491  C 14.8569220703125 1.63750071149554  12.5038037248884 0.667189027622768  10 0.667189027622768  C 7.49619627511161 0.667189027622768  5.14239397321429 1.63750071149554  3.37185861467634 3.39932468610491  C 1.60067531389509 5.1618326171875  0.625 7.5062395577567  0.625 10  C 0.625 12.4944083844866  1.60067531389509 14.8381673828125  3.37121067243304 16.6006753138951  C 5.14174603097098 18.3624992885045  7.49554831194197 19.3328109723772  9.9993520577567 19.3328109723772  C 12.5031558035714 19.3328109723772  14.8569580845424 18.3624992885045  16.6268094866071 16.6006753138951  C 18.3986767438616 14.8375194405692  19.3743520577567 12.4930764857701  19.3736681012835 9.99935203683036  Z M 15.35721484375 10.0000359933036  C 15.35721484375 10.3696939592634  15.0578239257812 10.6696608537946  14.6875179966518 10.6696608537946  L 10.6696608537946 10.6696608537946  L 10.6696608537946 14.6875179966518  C 10.6696608537946 15.0578239257812  10.3696579659598 15.3571788504464  10 15.3571788504464  C 9.63034203404018 15.3571788504464  9.33033914620536 15.0578599190848  9.33033914620536 14.6875179966518  L 9.33033914620536 10.6696608537946  L 5.31251799665179 10.6696608537946  C 4.94286003069196 10.6696608537946  4.64285714285714 10.3696579659598  4.64285714285714 10  C 4.64285714285714 9.63034203404018  4.94286003069196 9.33033914620536  5.31251799665179 9.33033914620536  L 9.33037513950893 9.33033914620536  L 9.33037513950893 5.31251799665179  C 9.33037513950893 4.94286003069196  9.63037802734375 4.64285714285714  10.0000359933036 4.64285714285714  C 10.3696939592634 4.64285714285714  10.6696968470982 4.94286003069196  10.6696968470982 5.31251799665179  L 10.6696968470982 9.33037513950893  L 14.6875539899554 9.33037513950893  C 15.0578599190848 9.33037513950893  15.35721484375 9.63037802734375  15.35721484375 10.0000359933036  Z " fill-rule="nonzero" fill="#fefeff" stroke="none" transform="matrix(1 0 0 1 1438 359 )" />
  </g>
</svg>