<?xml version="1.0" encoding="utf-8"?>
<svg version="1.1" xmlns:xlink="http://www.w3.org/1999/xlink" width="20px" height="20px" xmlns="http://www.w3.org/2000/svg">
  <g transform="matrix(1 0 0 1 -1437 -499 )">
    <path d="M 19.3738483849159 9.99965407151442  C 19.3738483849159 4.81819787409856  15.1760944636418 0.618414558293269  9.99966560997596 0.618414558293269  C 4.82256799879808 0.618414558293269  0.626105506310096 4.81819787409856  0.626105506310096 9.99965407151442  C 0.626105506310096 15.1810872145433  4.82256799879808 19.3815623647837  9.99966560997596 19.3815623647837  C 15.1760944636418 19.3815623647837  19.3738483849159 15.1810641376202  19.3738483849159 9.99965407151442  Z M 15.6697213191106 9.9996771484375  C 15.6697213191106 10.3583493464543  15.4051622220553 10.6483681039663  15.0796290940505 10.6483681039663  C 15.0668762094351 10.6483681039663  15.0561526968149 10.6490368840144  15.0447834810697 10.6483681039663  L 4.85337787710337 10.6410346228966  C 4.82791821664664 10.644378500601  4.80718612530048 10.6410346228966  4.78036585036058 10.6410346228966  C 4.45480964543269 10.6410346228966  4.19025057091346 10.3663746844952  4.19025057091346 10.0080022836538  C 4.19025057091346 9.65069070012019  4.45483272235577 9.3603260141226  4.78036585036058 9.3603260141226  L 15.0407477689303 9.35158578725962  C 15.0547920823317 9.35091700721154  15.0655155949519 9.35158578725962  15.0796290940505 9.35158578725962  C 15.4051391676683 9.35158578725962  15.6697213191106 9.64229637920673  15.6697213191106 9.9996771484375  Z " fill-rule="nonzero" fill="#ffffff" stroke="none" transform="matrix(1 0 0 1 1437 499 )" />
  </g>
</svg>