<?xml version="1.0" encoding="utf-8"?>
<svg version="1.1" xmlns:xlink="http://www.w3.org/1999/xlink" width="18px" height="18px" xmlns="http://www.w3.org/2000/svg">
  <g transform="matrix(1 0 0 1 -1875 -223 )">
    <path d="M 18 9  C 18 4.02991071428572  13.9700892857143 0  9 0  C 4.02991071428572 0  0 4.02991071428572  0 9  C 0 13.9700892857143  4.02991071428572 18  9 18  C 13.9700892857143 18  18 13.9700892857143  18 9  Z M 16.4732142857143 9  C 16.4732142857143 13.1263392857143  13.1263392857143 16.4732142857143  9 16.4732142857143  C 4.87366071428572 16.4732142857143  1.52678571428571 13.1263392857143  1.52678571428571 9  C 1.52678571428571 4.87366071428572  4.87366071428572 1.52678571428571  9 1.52678571428571  C 13.1263392857143 1.52678571428571  16.4732142857143 4.87366071428572  16.4732142857143 9  Z M 12.8852678571428 6.0609375  C 12.9636160714286 5.95446428571428  12.8872767857143 5.80580357142857  12.7566964285714 5.80580357142857  L 11.8145089285714 5.80580357142857  C 11.6095982142857 5.80580357142857  11.4147321428571 5.90424107142856  11.2941964285714 6.07299107142858  L 8.13616071428571 10.4524553571429  L 6.70580357142858 8.46763392857143  C 6.58526785714286 8.30089285714285  6.39241071428571 8.20044642857142  6.18549107142856 8.20044642857142  L 5.24330357142857 8.20044642857142  C 5.11272321428571 8.20044642857142  5.03638392857142 8.34910714285715  5.11272321428571 8.45558035714285  L 7.61584821428572 11.9270089285714  C 7.87098214285715 12.2825892857143  8.39933035714286 12.2825892857143  8.65446428571429 11.9270089285714  L 12.8852678571428 6.0609375  Z " fill-rule="nonzero" fill="#ffffff" stroke="none" transform="matrix(1 0 0 1 1875 223 )" />
  </g>
</svg>