<?xml version="1.0" encoding="utf-8"?>
<svg version="1.1" xmlns:xlink="http://www.w3.org/1999/xlink" width="40px" height="40px" xmlns="http://www.w3.org/2000/svg">
  <g transform="matrix(1 0 0 1 -1375 -414 )">
    <path d="M 20 35.3816216216216  C 11.4237641658708 35.3816216216216  4.47135135135135 28.4292088071022  4.47135135135135 19.852972972973  C 4.47135135135135 11.2767371388438  11.4237641658708 4.32432432432433  20 4.32432432432433  C 28.5762358341292 4.32432432432433  35.5286486486486 11.2767371388438  35.5286486486486 19.852972972973  C 35.5286486486486 28.4292088071022  28.5762358341292 35.3816216216216  20 35.3816216216216  Z M 20 39.7059459459459  C 30.9644942117759 39.7059459459459  39.852972972973 30.8174671847489  39.852972972973 19.852972972973  C 39.852972972973 8.88847876119709  30.9644942117759 0  20 0  C 9.03550578822412 0  0.147027027027024 8.88847876119709  0.147027027027024 19.852972972973  C 0.147027027027024 30.8174671847489  9.03550578822412 39.7059459459459  20 39.7059459459459  Z " fill-rule="nonzero" fill="#40444b" stroke="none" transform="matrix(1 0 0 1 1375 414 )" />
  </g>
</svg>