<?xml version="1.0" encoding="utf-8"?>
<svg version="1.1" xmlns:xlink="http://www.w3.org/1999/xlink" width="34px" height="49px" xmlns="http://www.w3.org/2000/svg">
  <g transform="matrix(1 0 0 1 -748 -424 )">
    <path d="M 4.16499999999999 24.9803076923077  L 4.165 24.9846153846154  C 5.32837475147618 26.0143674370604  6.60804793533476 26.9007533499928  7.97725 27.6252307692308  L 5.1935 41.7329230769231  L 16.0905 34.5907692307692  C 16.8039205964957 34.1239070677248  17.7230713414472 34.1323764123101  18.428 34.6123076923077  L 28.78525 41.6252307692308  L 26.02275 27.6252307692308  C 27.3921692197083 26.8994056061563  28.6718517446257 26.0115672321543  29.835 24.9803076923077  L 33.9575 45.8855384615385  C 33.9850457153632 46.024869287928  33.9989199863763 46.1666211382428  33.9989199863763 46.3087217555177  C 33.9989199863763 47.4982581397687  33.0475250797667 48.4625679093639  31.8739199863763 48.4625679093639  C 31.4537030099934 48.4625679093639  31.042919678319 48.3362880679868  30.6935 48.0996923076923  L 17.22525 38.9803076923077  L 3.27675 48.1126153846154  C 2.93398864251779 48.3359588227391  2.5350999085762 48.4547060858597  2.1276192905712 48.4547060858597  C 0.954014197180767 48.4547060858597  0.00261929057120214 47.4903963162645  0.00261929057120214 46.3008599320135  C 0.00261929057120214 46.1614374472472  0.0159755261567642 46.0223443497858  0.0424999999999953 45.8855384615385  L 4.16499999999999 24.9803076923077  Z M 17 15.3353846153846  L 17 15.3310769230769  C 14.1410979925009 15.3310769230769  11.8235 12.982018324343  11.8235 10.0843076923077  C 11.8235 7.18659706027241  14.1410979925009 4.83753846153846  17 4.83753846153846  C 19.8600756125925 4.83753846153846  22.178625 7.187561370042  22.178625 10.0864615384615  C 22.178625 12.9853617068811  19.8600756125925 15.3353846153846  17 15.3353846153846  Z M 17 19.6430769230769  L 17 19.6387692307692  C 22.20611219428 19.6387692307692  26.4265 15.3610910928449  26.4265 10.0843076923077  C 26.4265 4.80752429177053  22.20611219428 0.529846153846155  17 0.529846153846155  C 11.7927142006266 0.529846153846157  7.571375 4.80848860154012  7.571375 10.0864615384615  C 7.571375 15.364434475383  11.7927142006266 19.6430769230769  17 19.6430769230769  Z " fill-rule="nonzero" fill="#2590ff" stroke="none" transform="matrix(1 0 0 1 748 424 )" />
  </g>
</svg>