<?xml version="1.0" encoding="utf-8"?>
<svg version="1.1" xmlns:xlink="http://www.w3.org/1999/xlink" width="35px" height="49px" xmlns="http://www.w3.org/2000/svg">
  <g transform="matrix(1 0 0 1 -1378 -424 )">
    <path d="M 4.28749999999999 24.9803076923077  L 4.2875 24.9846153846154  C 5.48509165593136 26.0143674370604  6.80240228637402 26.9007533499928  8.211875 27.6252307692308  L 5.34625 41.7329230769231  L 16.56375 34.5907692307692  C 17.2981535552161 34.1239070677248  18.2443381456074 34.1323764123101  18.97 34.6123076923077  L 29.631875 41.6252307692308  L 26.788125 27.6252307692308  C 28.1978212555821 26.8994056061563  29.5151415018206 26.0115672321543  30.7125 24.9803076923077  L 34.95625 45.8855384615385  C 34.9846058834622 46.024869287928  34.9988882212697 46.1666211382428  34.9988882212697 46.3087217555177  C 34.9988882212697 47.4982581397687  34.0195111115245 48.4625679093639  32.8113882212697 48.4625679093639  C 32.378811922052 48.4625679093639  31.9559467276814 48.3362880679868  31.59625 48.0996923076923  L 17.731875 38.9803076923077  L 3.373125 48.1126153846154  C 3.02028242612125 48.3359588227391  2.60966167059315 48.4547060858597  2.19019632852918 48.4547060858597  C 0.982073438274318 48.4547060858597  0.00269632852917867 47.4903963162645  0.00269632852917867 46.3008599320135  C 0.00269632852917867 46.1614374472472  0.0164453945731396 46.0223443497858  0.0437499999999952 45.8855384615385  L 4.28749999999999 24.9803076923077  Z M 17.5 15.3353846153846  L 17.5 15.3310769230769  C 14.5570126393392 15.3310769230769  12.17125 12.982018324343  12.17125 10.0843076923077  C 12.17125 7.18659706027241  14.5570126393392 4.83753846153846  17.5 4.83753846153846  C 20.4441954835511 4.83753846153846  22.8309375 7.187561370042  22.8309375 10.0864615384615  C 22.8309375 12.9853617068811  20.4441954835511 15.3353846153846  17.5 15.3353846153846  Z M 17.5 19.6430769230769  L 17.5 19.6387692307692  C 22.8592331411706 19.6387692307692  27.20375 15.3610910928449  27.20375 10.0843076923077  C 27.20375 4.80752429177053  22.8592331411706 0.529846153846155  17.5 0.529846153846155  C 12.1395587359392 0.529846153846157  7.7940625 4.80848860154012  7.7940625 10.0864615384615  C 7.7940625 15.364434475383  12.1395587359392 19.6430769230769  17.5 19.6430769230769  Z " fill-rule="nonzero" fill="#40444b" stroke="none" transform="matrix(1 0 0 1 1378 424 )" />
  </g>
</svg>