<?xml version="1.0" encoding="utf-8"?>
<svg version="1.1" xmlns:xlink="http://www.w3.org/1999/xlink" width="40px" height="40px" xmlns="http://www.w3.org/2000/svg">
  <g transform="matrix(1 0 0 1 -745 -348 )">
    <path d="M 32.6048321929825 13.4157120542636  C 32.0186333333333 12.9188162403101  31.1392531140351 13.1673365503876  30.552945 13.9126078682171  C 27.0355879385965 17.1425513178295  17.6554229824561 24.8445570542636  17.069333377193 25.3413080620155  L 9.74149254385965 19.3785583333333  C 9.44836578947368 18.8817107751938  8.5690948245614 18.6331904651163  7.68960535087719 19.1300862790698  C 7.1032972368421 19.6272234108527  7.1032972368421 20.3723499612403  7.68960535087719 20.8692457751938  C 10.3275821929825 23.1053010465116  12.6727053508772 25.0929325968992  15.0176100438596 27.0804675581395  C 16.190280877193 28.0743556976744  17.3626785964912 28.0743556976744  18.2420041666667 27.3289878682171  L 32.3117054385965 15.4033918217054  C 33.1910310526316 14.6579756976744  33.1910310526316 13.9126078682171  32.6048321929825 13.4157120542636  Z M 40 6.95582515503875  C 39.9328914912281 6.21069864341085  39.3467472368421 5.46533077519379  38.1742949122807 5.4653307751938  L 36.4156436842105 5.4653307751938  C 36.4156436842105 5.4653307751938  32.6049414473684 5.4653307751938  28.7944576315789 3.97469162790698  C 24.6906286403509 2.73242794573643  22.0525425877193 1.24164399224806  22.0525425877193 1.24164399224806  L 20.8801448684211 0.496372674418605  C 20.3276377099269 0.247914543295059  19.674000798845 0.247914543295058  19.1214936403509 0.496372674418605  L 17.9488228070175 1.24164399224806  C 17.9488228070175 1.24164399224806  15.3105728947368 2.9808034496124  11.2069077631579 4.22306713178295  C 7.39620552631579 5.46533081395349  3.58572171052632 5.71385108527132  3.58572175438596 5.71385108527132  L 1.82707052631579 5.71385108527132  C 0.947744912280701 5.71385108527132  0.0684192982456139 6.45912240310077  0 7.20449027131783  L 0 22.6084052325581  C 0.0684192982456139 26.583571744186  2.70639614035088 30.8072585271318  7.39642399122807 34.5340977906977  C 11.5001437719298 38.0123684883721  16.4830252631579 40  20.0005461842105 40  C 23.5180671052632 40  28.5012216666667 38.012416744186  32.6048321929825 34.5341460465116  C 37.2948054385965 30.8072585271318  39.9328914912281 26.5835717054264  40 22.6084052325581  L 40 6.95582515503875  Z M 37 7.70138608527132  L 37 22.3599814728682  C 37.2948054385965 26.0867241860465  34.9499553508772 29.8135151937984  30.552945 33.2918341472868  C 26.7424612280702 36.2732090310078  22.9317589473684 37.7638964728682  20.0005461842105 37.7638964341085  C 17.0693334210526 37.7638963953488  13.5518125 36.2732089922481  9.74149254385965 33.2918341472868  C 5.34486451754386 29.8135151937985  2.70645074561404 26.0867241860465  3 22.6084052325581  L 3 7.95009945736434  C 2.99963210526316 7.95009945736434  7.68960535087719 7.70162740310078  12.3795785964912 5.96246794573644  C 17.069333377193 4.47158744186047  19.7073648245614 2.9808034883721  19.7073648245614 2.73242794573644  C 20.0005461842105 2.98080344961241  23.2246672368421 4.71996294573644  27.9148589473684 6.21069864341086  C 32.6050506578947 7.70143434108527  36.4155344298246 7.70138608527132  36.7084973245614 7.70138608527132  L 37 7.70138608527132  Z " fill-rule="nonzero" fill="#2590ff" stroke="none" transform="matrix(1 0 0 1 745 348 )" />
  </g>
</svg>