<?xml version="1.0" encoding="utf-8"?>
<svg version="1.1" xmlns:xlink="http://www.w3.org/1999/xlink" width="40px" height="40px" xmlns="http://www.w3.org/2000/svg">
  <g transform="matrix(1 0 0 1 -745 -498 )">
    <path d="M 39.5943291935484 6.7636184375  C 39.8793006048387 6.3544491015625  39.9352771370968 5.836825234375  39.7469924596774 5.3783583984375  C 39.5590684997089 4.92159515982481  39.1489597695647 4.58528216166197  38.652905766129 4.4811437109375  L 17.4072689919355 0.0345082421875  C 16.8017047177419 -0.088735546875  16.1808741532258 0.1478925  15.8297486693548 0.635937890625  C 15.4786231854839 1.1289130078125  15.4684456048387 1.774710390625  15.7992160080645 2.277545  L 24.5468207258065 15.459699296875  L 22.5520208064516 18.2943061328125  C 21.4630229032258 17.535124453125  19.4987556451613 17.219620390625  16.3946027016129 16.7858023046875  C 14.5117558467742 16.5245255078125  12.3846477822581 16.223810703125  11.5399110887097 15.81957109375  L 8.04901125 14.1483855078125  C 7.66735310483871 13.9659847265625  7.21954088709677 13.946265703125  6.82261641129032 14.0941582421875  C 6.42569193548387 14.24205078125  6.11018786290323 14.5476953515625  5.95243584677419 14.9322159375  L 0.247918790322581 28.9918658984375  C -0.0408199391557832 29.707073329604  0.281460025933533 30.5175329722132  0.990879959677419 30.8602415625  L 19.2443168548387 39.60069015625  C 19.2595831854839 39.605619921875  19.2850270564516 39.6204091796875  19.2901158467742 39.6204091796875  C 19.8244372580645 39.87675625  20.3892912903226 40  20.9490565725806 40  C 22.2008952822581 40  23.4272901209677 39.3837811328125  24.2058727822581 38.2745871484375  L 24.2313166532258 38.2400788671875  C 25.1676512903226 37.0520088671875  28.3888460483871 32.9356667578125  30.4752439112903 29.8890805859375  C 31.3861346774194 28.7552378515625  31.7779703629032 27.21222578125  31.5286204032258 25.753019453125  C 31.5184428629032 25.693862421875  31.5031765322581 25.6347054296875  31.4879102016129 25.580478203125  C 31.1164295967742 24.333251171875  30.2564265725806 23.2980034765625  29.1114521370968 22.72615234375  L 28.5415093145161 22.455016015625  L 39.5943291935484 6.7636184375  Z M 3.60142169354839 28.8094651171875  L 8.18640818548387 17.51540546875  L 9.92168056451613 18.3485333984375  L 5.33669403225806 29.642593046875  L 3.60142169354839 28.8094651171875  Z M 28.531331733871 26.3248705859375  C 28.6076633467742 26.94601921875  28.434645 27.611535625  28.0377205645161 28.104510703125  C 28.0122766935484 28.13408921875  27.9868328225806 28.1685974609375  27.9664777016129 28.1981759765625  L 27.9359450403226 28.24254375  C 27.829080766129 28.395366015625  27.7222164919355 28.553118046875  27.6102634274194 28.71579984375  L 25.4882441532258 27.6460438671875  C 25.2705400508236 27.5364387341081  25.0287973240088 27.479217933437  24.7834487701613 27.479217933437  C 23.9393555227503 27.479217933437  23.2550827458059 28.1421071861018  23.2550827458059 28.9598225195313  C 23.2550827458059 29.5123040397104  23.5726083721954 30.0188281538638  24.0786533870968 30.273601171875  L 25.8495471774194 31.1658861328125  C 25.4475339112903 31.713088515625  25.0404318951613 32.2504313671875  24.6485962096774 32.7680551953125  L 22.9540340322581 31.7475967578125  C 22.7120083550198 31.6015759885104  22.4325882220678 31.5241766032078  22.1474631653226 31.5241766032078  C 21.3048309659751 31.5241766032078  20.6217426025049 32.1859184553196  20.6217426025049 33.0022183984375  C 20.6217426025049 33.5126688118809  20.8936242198662 33.9869908658048  21.3408922983871 34.2568400390625  L 22.8166370967742 35.1491249609375  C 22.3790024193548 35.7111165625  22.0278769354839 36.15972390625  21.8039708467742 36.4456494921875  L 21.7479943145161 36.5195957421875  C 21.7276391935484 36.5442444921875  21.6920177822581 36.5984717578125  21.6716626612903 36.623120546875  C 21.4579341129032 36.9287651171875  21.0762759677419 37.180182421875  20.6488188306452 36.9780626171875  L 19.9262127419355 38.279516875  L 20.6182862096774 36.963273359375  C 20.6131974193548 36.963273359375  20.6081086693548 36.95834359375  20.6030198790323 36.95834359375  L 8.0846327016129 30.9588365625  L 12.8477263709677 19.23588859375  C 13.8044161290323 19.418289375  14.8679701612903 19.5661819140625  15.9620568145161 19.7190041796875  C 17.4937781854839 19.9309834765625  20.0127219354839 20.285925546875  20.6946178225806 20.6507271484375  C 21.6309524596774 22.2331772265625  22.7352166935484 22.9479911328125  22.8624360887097 23.0268671484375  C 22.9082350806452 23.0564456640625  22.9591228225806 23.0810944140625  23.0049218145161 23.1057431640625  L 27.7374828225806 25.36849890625  C 28.0936970967742 25.5459699609375  28.3786685080645 25.8910525  28.531331733871 26.3248705859375  Z M 35.7930140725806 6.9115109765625  L 25.7783043145161 21.1289130078125  L 24.6384186693548 20.581710625  L 27.6407960887097 16.3174759765625  C 27.9868328225806 15.824500859375  27.9970103629032 15.1836332421875  27.6611511693548 14.685728359375  L 20.3587586693548 3.677594296875  L 35.7930140725806 6.9115109765625  Z " fill-rule="nonzero" fill="#2590ff" stroke="none" transform="matrix(1 0 0 1 745 498 )" />
  </g>
</svg>