<?xml version="1.0" encoding="utf-8"?>
<svg version="1.1" xmlns:xlink="http://www.w3.org/1999/xlink" width="280px" height="280px" xmlns="http://www.w3.org/2000/svg">
  <g transform="matrix(1 0 0 1 -972 -725 )">
    <path d="M 1112 725  C 1190.4 725  1252 786.6  1252 865  C 1252 943.4  1190.4 1005  1112 1005  C 1033.6 1005  972 943.4  972 865  C 972 786.6  1033.6 725  1112 725  Z " fill-rule="nonzero" fill="#000000" stroke="none" fill-opacity="0.00784313725490196" />
    <path d="M 1112 725.5  C 1190.12 725.5  1251.5 786.88  1251.5 865  C 1251.5 943.12  1190.12 1004.5  1112 1004.5  C 1033.88 1004.5  972.5 943.12  972.5 865  C 972.5 786.88  1033.88 725.5  1112 725.5  Z " stroke-width="1" stroke="#797979" fill="none" />
  </g>
</svg>