<?xml version="1.0" encoding="utf-8"?>
<svg version="1.1" xmlns:xlink="http://www.w3.org/1999/xlink" width="170px" height="170px" xmlns="http://www.w3.org/2000/svg">
  <g transform="matrix(1 0 0 1 -1027 -780 )">
    <path d="M 1112 780  C 1159.6 780  1197 817.4  1197 865  C 1197 912.6  1159.6 950  1112 950  C 1064.4 950  1027 912.6  1027 865  C 1027 817.4  1064.4 780  1112 780  Z " fill-rule="nonzero" fill="#000000" stroke="none" fill-opacity="0.00784313725490196" />
    <path d="M 1112 780.5  C 1159.32 780.5  1196.5 817.68  1196.5 865  C 1196.5 912.32  1159.32 949.5  1112 949.5  C 1064.68 949.5  1027.5 912.32  1027.5 865  C 1027.5 817.68  1064.68 780.5  1112 780.5  Z " stroke-width="1" stroke="#797979" fill="none" />
  </g>
</svg>