<?xml version="1.0" encoding="utf-8"?>
<svg version="1.1" xmlns:xlink="http://www.w3.org/1999/xlink" width="30px" height="30px" xmlns="http://www.w3.org/2000/svg">
  <g transform="matrix(1 0 0 1 -610 -142 )">
    <path d="M 30 22.5  C 30 24.5710678118655  28.3210678118655 26.25  26.25 26.25  C 26.25 28.3210678118655  24.5710678118655 30  22.5 30  L 3.75 30  C 1.67893218813452 30  0 28.3210678118655  0 26.25  L 0 7.5  C 0 5.42893218813452  1.67893218813452 3.75  3.75 3.75  C 3.75 1.67893218813452  5.42893218813452 0  7.5 0  L 26.25 0  C 28.3210678118655 0  30 1.67893218813452  30 3.75  L 30 22.5  Z M 2 13.125  L 2 26.25  C 1.875 27.2855339059327  2.71446609406726 28.125  3.75 28  L 22.5 28  C 23.5355339059327 28.125  24.375 27.2855339059327  24 26.25  L 24 13.125  L 2 13.125  Z M 3.75 6  C 2.71446609406726 5.625  1.875 6.46446609406726  1.875 7.5  L 1.875 11.25  L 24.375 11.25  L 24.375 7.5  C 24.375 6.46446609406726  23.5355339059327 5.625  22.5 6  L 3.75 6  Z M 28 22.5  L 28 3.75  C 28.125 2.71446609406726  27.2855339059327 1.875  26.25 2  L 7.5 2  C 6.46446609406726 1.875  5.625 2.71446609406726  5.625 4  L 22.5 4  C 24.5710678118655 3.75  26.25 5.42893218813452  26 7.5  L 26 24.375  C 27.2855339059327 24.375  28.125 23.5355339059327  28 22.5  Z M 4.6875 7.5  C 4.6875 7.5  4.6875 7.5  4.6875 8  L 15.9375 8  C 15.9375 7.5  15.9375 7.5  15.9375 7.5  C 16.4552669529664 7.5  16.875 7.91973304703363  16.875 8.4375  C 16.875 8.95526695296637  16.4552669529664 9.375  15.9375 9.375  L 4.6875 9.375  C 4.16973304703363 9.375  3.75 8.95526695296637  3.75 8.4375  C 3.75 7.91973304703363  4.16973304703363 7.5  4.6875 7.5  Z M 21.5625 7.5  C 22.0802669529664 7.5  22.5 7.91973304703363  22.5 8.4375  C 22.5 8.95526695296637  22.0802669529664 9.375  21.5625 9.375  C 21.0447330470336 9.375  20.625 8.95526695296637  20.625 8.4375  C 20.625 7.91973304703363  21.0447330470336 7.5  21.5625 7.5  Z " fill-rule="nonzero" fill="#05ca27" stroke="none" transform="matrix(1 0 0 1 610 142 )" />
  </g>
</svg>