<?xml version="1.0" encoding="utf-8"?>
<svg version="1.1" xmlns:xlink="http://www.w3.org/1999/xlink" width="30px" height="30px" xmlns="http://www.w3.org/2000/svg">
  <g transform="matrix(1 0 0 1 -1065 -142 )">
    <path d="M 29.3828322379001 27.9777382238438  C 29.9377496498418 27.2675137335675  29.9377496498418 26.4281575498859  29.5678046973077 25.7179330596096  L 23.9569731363801 15.7102244902763  C 23.6486856927945 15.1936976107268  23.0937682808528 14.8063024245826  22.4771933936816 14.8063024245826  C 21.8606185065103 14.8063024245826  21.3057010945687 15.1291317287147  20.997413650983 15.7102244902763  L 19.6409488587436 18.1637272299279  C 18.5927715438087 15.1936975754174  17.0513342921616 10.738653128961  16.3114444208124 9.89929690996994  C 15.9414994682783 9.44733587712309  15.324924581107 8.99537484427625  14.4617197255797 8.47884796472676  L 14.9549796622919 7.83318932115308  C 15.2016096306479 7.89775516785572  15.4482395652851 7.89775516785572  15.6948695336411 7.89775520316518  C 17.7295666882814 7.89775520316518  19.3943189241065 6.15447691848043  19.3943189241065 4.02380348296093  C 19.3943189241065 1.89313004744142  17.7295666882814 0.149851762756675  15.6948695336411 0.149851762756675  C 13.6601723790009 0.149851762756675  11.9954201431758 1.89313004744142  11.9954201431758 4.02380348296093  C 11.9954201431758 5.18598900608409  12.488680046169 6.21904280049252  13.2902274264668 6.92926725545939  L 12.7969675234736 7.57492589903307  C 11.7487902085387 7.12296486618622  10.5772979094257 6.73556968004201  9.40580557659387 6.47730622261254  L 9.15917564195674 6.47730622261254  C 6.50790360014525 6.47730622261254  5.64469874461794 7.44579413500887  4.53486388701562 8.5434138114294  L 4.28823395237848 8.80167726885887  C 3.85663152461483 9.18907245500308  3.36337162162162 9.70559933455257  3.05508414431706 10.4803896715315  L 2.37685174819734 12.2882338029189  C 2.13022177984126 12.9338924111831  2.43850922342688 13.6441169014595  3.05508414431706 13.9023803588889  L 5.76801369507704 15.1291317287147  L 5.08978129895731 16.8078441313874  C 4.84315133060124 17.4535027396516  5.08978129895731 18.1637272299279  5.70635621984749 18.48655653406  L 6.07630113866266 18.6802541094774  C 5.82967117030659 18.6156882627748  5.644698710899 18.6156882627748  5.58304123566945 18.6156882627748  C 5.08978133267625 18.5511224160721  4.53486392073456 18.8739517202043  4.34989142760803 19.3259127530511  L 0.218839609379052 28.5588309854054  L 2.43850925714582 29.6564506265165  L 6.13795864761114 21.3274544598559  C 7.12447848731649 21.5211520352732  8.72757321419308 21.9085472214174  10.0840379727136 22.747903405099  C 11.0089003034705 23.2644302846485  11.0705578124189 26.6218551253033  10.5156404004773 29.3336213223844  L 12.9202825076516 29.8501482372433  C 13.1052549670592 28.8170944428349  13.8451448384085 24.4911816897838  12.5503375551175 21.9085472214174  C 12.7353100145251 21.9085472214174  12.9202825076516 21.8439813747148  13.0435974918296 21.7794154927027  C 13.3518849354153 21.5857179172853  13.6601723790009 21.2628886131532  13.7218298542304 20.9400592737117  L 14.1534322819941 19.003083448919  L 17.9761966566374 20.7463616982943  L 15.1399521216994 25.7824989416217  C 14.7700071691653 26.492723431898  14.7700071691653 27.267513768877  15.1399521216994 27.9777382238438  C 15.5098970742335 28.6879626788107  16.2497869455828 29.0753578649549  16.9896768169321 29  L 27.5331075426674 29  C 28.2729974140167 29.0753578649549  29.012887285366 28.6233968321081  29.3828322379001 27.9777382238438  Z M 14.4000622503502 4.02380348296092  C 14.4000622503502 3.31357899268461  14.9549796622919 2.73248623112302  15.6332120584116 2.73248626643248  C 16.3114444545313 2.73248626643248  16.866361866473 3.31357902799406  16.8663618327541 4.02380348296092  C 16.8663617990351 4.73402793792779  16.3114444208124 5.31512073479883  15.6332120584116 5.31512073479883  C 14.9549796960108 5.31512073479883  14.4000622503502 4.73402797323724  14.4000622503502 4.02380348296092  Z M 7.80271084971728 16.7432782846848  L 10.5156404004773 9.89929690996994  L 13.5368573948228 11.3197458905226  L 11.8104476837682 18.8093858381922  L 7.80271084971728 16.7432782846848  Z M 6.6928760258339 12.7401948357658  L 5.08978129895731 12.0299703454894  L 5.33641126731338 11.3843117372252  C 5.39806874254293 11.1906141618078  5.644698710899 10.9323507043784  5.95298615448462 10.6095214002463  C 6.07630113866265 10.5449555535436  6.1379586138922 10.4158238248289  6.26127359807024 10.2866920961141  C 7.00116346941951 9.51190175913519  7.37110842195362 9.18907245500308  8.17265580225139 9.05994072628834  L 6.6928760258339 12.7401948357658  Z M 14.8933221533434 16.4850148272553  L 15.4482395652851 14.0315120876037  C 15.8181845178192 15  16.2497869455828 16.0976196764205  16.619731864398 17.2598051642342  L 14.8933221533434 16.4850148272553  Z M 27.0398476396742 26.4281575498859  L 17.7912241972299 26.4281575498859  L 22.415535918452 18.1637272299279  L 27.0398476396742 26.4281575498859  Z " fill-rule="nonzero" fill="#ddac00" stroke="none" transform="matrix(1 0 0 1 1065 142 )" />
  </g>
</svg>