<?xml version="1.0" encoding="utf-8"?>
<svg version="1.1" xmlns:xlink="http://www.w3.org/1999/xlink" width="30px" height="30px" xmlns="http://www.w3.org/2000/svg">
  <g transform="matrix(1 0 0 1 -1520 -142 )">
    <path d="M 29.98515625 15.003125  C 29.985546875 6.737890625  23.26328125 0.0156250000000013  15.001171875 0.0156250000000002  C 14.5078125 -0.0144531249999996  14.083203125 0.3609375  14.053125 0.854296875  C 14.023046875 1.34765625  14.3984375 1.772265625  14.891796875 1.80234375  C 14.928125 1.8046875  14.964453125 1.8046875  15.001171875 1.80234375  C 22.278125 1.80234375  28.1984375 7.72265625  28.1984375 15.003125  C 28.228515625 15.496484375  28.653125 15.871875  29.146484375 15.841796875  C 29.59765625 15.8140625  29.9578125 15.454296875  29.98515625 15.003125  Z M 1.801953125 15.0015625  C 1.801953125 22.28046875  7.72421875 28.19921875  15.001171875 28.19921875  C 15.49453125 28.198828125  15.894921875 28.5984375  15.8953125 29.091796875  C 15.895703125 29.58515625  15.49609375 29.985546875  15.002734375 29.9859375  L 15.001171875 29.9859375  C 6.735546875 29.9859375  0.016796874999998 23.263671875  0.016796874999998 15.0015625  C -0.0203125000000021 14.50859375  0.349609374999998 14.07890625  0.842578124999998 14.0421875  C 1.335546875 14.005078125  1.765234375 14.375  1.801953125 14.86796875  C 1.80546875 14.9125  1.80546875 14.95703125  1.801953125 15.0015625  Z M 23.40859375 22.419140625  L 23.41015625 22.415625  L 27.2703125 26.282421875  C 27.637109375 26.648828125  27.6375 27.243359375  27.27109375 27.61015625  C 26.9046875 27.976953125  26.31015625 27.97734375  25.943359375 27.6109375  L 22.044921875 23.7125  C 20.0464773936699 25.3148664245196  17.5611238342334 26.1874134825342  14.999609375 26.1859375  C 8.7859375 26.1859375  3.732421875 21.169140625  3.732421875 15.001953125  C 3.732421875 8.83476562500001  8.787890625 3.81796875000001  14.998046875 3.81796875000001  C 21.208203125 3.81796875000001  26.262109375 8.83476562500001  26.262109375 15.003515625  C 26.2599924003617 17.7430797012203  25.2434590754393 20.3848139435649  23.40859375 22.419140625  Z M 5.612109375 15.001953125  C 5.6125 20.13203125  9.82265625 24.307421875  15.001171875 24.307421875  C 20.1765625 24.307421875  24.38515625 20.13203125  24.38515625 15.001953125  C 24.38515625 9.869921875  20.1765625 5.694921875  15.001171875 5.694921875  C 9.82265625 5.694921875  5.612109375 9.8703125  5.612109375 15.001953125  Z M 13.20234375 14.044921875  L 13.201171875 14.043359375  L 15.71953125 14.043359375  L 15.71953125 13.168359375  L 13.81953125 13.168359375  C 13.40625 13.13671875  13.184375 12.894921875  13.152734375 12.4515625  C 13.184375 12.04140625  13.40625 11.818359375  13.81953125 11.783203125  L 15.71953125 11.783203125  L 15.71953125 10.909765625  L 13.35625 10.909765625  C 12.94453125 10.8765625  12.723046875 10.636328125  12.689453125 10.18984375  C 12.75625 9.7796875  12.99609375 9.556640625  13.40625 9.523046875  L 15.71953125 9.523046875  L 15.71953125 8.95625  C 15.752734375 8.5796875  15.99140625 8.374609375  16.436328125 8.339453125  C 16.883203125 8.339453125  17.121484375 8.529296875  17.158203125 8.90625  L 17.158203125 9.523046875  L 20.18828125 9.523046875  C 20.56484375 9.55625  20.768359375 9.778125  20.805078125 10.18984375  C 20.771875 10.63671875  20.565234375 10.873046875  20.18828125 10.909765625  L 17.158203125 10.909765625  L 17.158203125 11.783203125  L 19.675 11.783203125  C 19.983203125 11.81640625  20.153515625 12.03984375  20.18828125 12.45  C 20.155078125 12.894921875  19.983203125 13.13515625  19.6765625 13.168359375  L 17.159765625 13.168359375  L 17.159765625 14.043359375  L 19.678125 14.043359375  C 20.398046875 14.043359375  20.73828125 14.333203125  20.7046875 14.916796875  C 20.771484375 17.0734375  20.326171875 18.03359375  19.36953125 17.79375  C 18.92109375 17.79375  18.49609375 17.74375  18.084375 17.640234375  C 17.77265625 17.53671875  17.652734375 17.280078125  17.72265625 16.8703125  C 17.826171875 16.526953125  18.04765625 16.371875  18.392578125 16.40546875  C 18.905859375 16.5421875  19.19609375 16.488671875  19.266015625 16.251953125  C 19.29765625 16.115234375  19.316015625 15.90859375  19.316015625 15.63515625  C 19.316015625 15.4984375  19.24609375 15.430078125  19.1109375 15.430078125  L 17.1609375 15.430078125  L 17.1609375 18.155078125  C 17.12265625 18.531640625  16.882421875 18.73515625  16.4390625 18.771875  C 15.9921875 18.738671875  15.75390625 18.53203125  15.719140625 18.155078125  L 15.719140625 15.431640625  L 13.15234375 15.431640625  C 12.773828125 15.3984375  12.569140625 15.156640625  12.535546875 14.71171875  C 12.5671875 14.3  12.790625 14.078515625  13.20234375 14.044921875  Z M 9.8125 10.1359375  L 9.8125 10.137890625  L 9.7625 10.087890625  C 9.420703125 9.74453125  9.382421875 9.387890625  9.658984375 9.009375  C 9.932421875 8.701171875  10.27578125 8.664453125  10.683984375 8.904296875  C 11.2174135799953 9.20964945844192  11.70318054903 9.59157732193111  12.12578125 10.037890625  C 12.433984375 10.652734375  12.22734375 11.062890625  11.507421875 11.26953125  C 11.265625 11.26953125  10.70390625 10.891015625  9.8125 10.1359375  Z M 20.23984375 18.86953125  L 20.24140625 18.871875  C 20.684765625 18.90859375  20.944921875 19.096875  21.011328125 19.438671875  C 21.011328125 19.88359375  20.787890625 20.123828125  20.34453125 20.15703125  L 15.71796875 20.15703125  C 13.936328125 20.15703125  12.584375 19.815234375  11.659375 19.128515625  C 11.529296875 19.048046875  11.3921875 18.980078125  11.24921875 18.925  C 11.145703125 18.855078125  10.819140625 19.1484375  10.27265625 19.8  C 9.966015625 20.141796875  9.605859375 20.193359375  9.194140625 19.953515625  C 8.8875 19.713671875  8.869140625 19.403515625  9.144140625 19.028515625  C 9.342578125 18.781640625  9.54765625 18.541796875  9.7609375 18.30859375  C 10.305859375 17.725390625  10.5625 17.296875  10.529296875 17.025  L 10.529296875 14.248046875  C 10.529296875 14.14453125  10.479296875 14.09453125  10.37578125 14.09453125  L 9.708984375 14.09453125  C 9.33046875 14.0578125  9.1421875 13.81796875  9.1421875 13.374609375  C 9.210546875 12.964453125  9.43203125 12.74140625  9.808984375 12.7078125  L 11.147265625 12.7078125  C 11.72734375 12.67265625  12.00390625 12.98125  11.969140625 13.63125  L 11.969140625 17.174609375  C 12.140625 18.271484375  13.52578125 18.834765625  16.1328125 18.86953125  L 20.23984375 18.86953125  Z " fill-rule="nonzero" fill="#e62000" stroke="none" transform="matrix(1 0 0 1 1520 142 )" />
  </g>
</svg>