<?xml version="1.0" encoding="utf-8"?>
<svg version="1.1" xmlns:xlink="http://www.w3.org/1999/xlink" width="40px" height="40px" xmlns="http://www.w3.org/2000/svg">
  <g transform="matrix(1 0 0 1 -289 -576 )">
    <path d="M 24.6209492719546 5.89211347420631E-05  C 24.6190820786864 5.89211347420631E-05  24.6172148854416 5.92807564994167E-05  24.6153476923077 6E-05  C 24.6021843050156 2.42056314162192E-05  24.5890208764443 0  24.5758574419716 0  C 16.4299244966108 0  9.82634109581775 6.70677069985354  9.82634109581775 14.9799838474856  C 9.82634109581775 18.2349274531474  10.8702026180557 21.4013072907388  12.7999808076923 24.000023984375  L 10.830753 26.000021015625  L 5.33660738461538 20.4400293359375  L 2.54030388461538 23.280025078125  L 8.11321861538462 28.9400166015625  L 0 37.18000421875  L 2.77661123076923 40  L 10.8898298076923 31.76001234375  L 16.4627445384615 37.4200038671875  L 19.2393557692308 34.6000080859375  L 13.6861333076923 28.9200166015625  L 15.6553611153846 26.920019609375  C 18.2303061258139 28.9177545544465  21.3806664116331 30.0000139211347  24.6209492719546 30.0000139211347  C 32.7777579573011 30.0000139211347  39.3901578873393 23.2842952421898  39.3901578873393 15.0000364211347  C 39.3901578873393 6.71577760007971  32.7777579573011 5.89211347420631E-05  24.6209492719546 5.89211347420631E-05  Z M 35.4461006923077 15.0000375  C 35.435262656561 21.0705953921065  30.5925123860741 25.9890136355697  24.6153476923077 26.000021015625  C 18.6336879812236 26.000021015625  13.7845946923077 21.0751606440698  13.7845946923077 15.0000375  C 13.7845946923077 8.92491435593019  18.6336879812236 4.000053984375  24.6153476923077 4.000053984375  C 30.5970074033918 4.000053984375  35.4461006923077 8.92491435593019  35.4461006923077 15.0000375  Z " fill-rule="nonzero" fill="#da52f1" stroke="none" transform="matrix(1 0 0 1 289 576 )" />
  </g>
</svg>