<?xml version="1.0" encoding="utf-8"?>
<svg version="1.1" xmlns:xlink="http://www.w3.org/1999/xlink" width="40px" height="40px" xmlns="http://www.w3.org/2000/svg">
  <g transform="matrix(1 0 0 1 -289 -576 )">
    <path d="M 40 0  L 23.999018128655 0  L 23.999018128655 4.01981980506823  L 33.1350309161793 4.01981980506823  L 23.999018128655 13.0563118128655  C 21.3992024933514 11.0894243200282  18.2283198298556 10.0250981506701  14.9683063717471 10.0250981506701  C 6.70174477535266 10.0250981506701  0.00037253159110711 16.7264703944317  0.00037253159110711 24.9930319908261  C 0.00037253159110711 33.2595935872205  6.70174477535266 39.960965830982  14.9683063717471 39.960965830982  C 23.2348679681414 39.960965830982  29.936240211903 33.2595935872205  29.936240211903 24.9930319908261  C 29.936240211903 21.7330185327175  28.8719140425449 18.5621358692217  26.9050265497076 15.9623202339181  L 35.9415185185185 6.82630740740741  L 35.9415185185185 15.9623202339181  L 40 15.9623202339181  L 40 0  Z M 25.9894348538012 24.9191955165692  C 25.9784801933893 30.9606745791745  21.0836218696228 35.855532902941  15.0421428070175 35.8664875633528  C 8.99612035763501 35.8664875633528  4.09485076023392 30.9652179659517  4.09485076023392 24.9191955165692  C 4.09485076023392 18.8731730671867  8.99612035763501 13.9719034697856  15.0421428070175 13.9719034697856  C 21.0881652564001 13.9719034697856  25.9894348538012 18.8731730671867  25.9894348538012 24.9191955165692  Z " fill-rule="nonzero" fill="#2590ff" stroke="none" transform="matrix(1 0 0 1 289 576 )" />
  </g>
</svg>