<?xml version="1.0" encoding="utf-8"?>
<svg version="1.1" xmlns:xlink="http://www.w3.org/1999/xlink" width="25px" height="25px" xmlns="http://www.w3.org/2000/svg">
  <g transform="matrix(1 0 0 1 -118 -843 )">
    <path d="M 24.5684523809524 23.9309210526316  C 24.5684523809524 23.4210526315789  24.2708333333333 23.0921052631579  23.8095238095238 23.0921052631579  L 22 23.0921052631579  L 22 8.07565789473684  C 22.3065476190476 5.74013157894737  21.1011904761905 4.73684210526316  20.3422619047619 4.57236842105263  L 15.5208333333333 2.91118421052632  L 15.5208333333333 1.06907894736842  C 15.5208333333333 0.740131578947368  15.3720238095238 0.575657894736843  15.2232142857143 0.394736842105264  C 15.0744047619048 0.230263157894737  14.7767857142857 0.230263157894737  14.6130952380952 0.230263157894737  L 4.50892857142857 3.40460526315789  C 4.50892857142857 3.40460526315789  2.69345238095238 3.89802631578947  3 6.57894736842105  L 3 23.0921052631579  L 1.19047619047619 23.0921052631579  C 0.744047619047619 23.0921052631579  0.431547619047619 23.4210526315789  0.431547619047619 23.9309210526316  C 0.431547619047619 24.4243421052632  0.729166666666666 24.7697368421053  1.19047619047619 24.7697368421053  L 23.8095238095238 24.7697368421053  C 24.2559523809524 24.7697368421053  24.5684523809524 24.4407894736842  24.5684523809524 23.9309210526316  Z M 14 2.25328947368421  L 14 23.0921052631579  L 4.19642857142857 23.0921052631579  L 4.19642857142857 6.57894736842105  C 4.19642857142857 5.41118421052632  4.80654761904762 5.08223684210526  4.95535714285714 5.08223684210526  L 14 2.25328947368421  Z M 20.8184523809524 23.0921052631579  L 20.8035714285714 23.0921052631579  L 15.5208333333333 23.0921052631579  L 15.5208333333333 4.57236842105263  L 20.1785714285714 6.28289473684211  L 20.2827380952381 6.33223684210526  C 20.2827380952381 6.33223684210526  20.7440476190476 6.54605263157895  20.8184523809524 8.07565789473684  L 20.8184523809524 23.0921052631579  Z M 8.42261904761905 7.35197368421052  L 8.42261904761905 5.69078947368421  L 6.91964285714286 5.69078947368421  L 6.91964285714286 7.35197368421052  L 8.42261904761905 7.35197368421052  Z M 11.889880952381 7.35197368421052  L 11.889880952381 5.69078947368421  L 10.3869047619048 5.69078947368421  L 10.3869047619048 7.35197368421052  L 11.889880952381 7.35197368421052  Z M 8.42261904761905 10.9868421052632  L 8.42261904761905 9.32565789473684  L 6.91964285714286 9.32565789473684  L 6.91964285714286 10.9868421052632  L 8.42261904761905 10.9868421052632  Z M 11.889880952381 10.9868421052632  L 11.889880952381 9.32565789473684  L 10.3869047619048 9.32565789473684  L 10.3869047619048 10.9868421052632  L 11.889880952381 10.9868421052632  Z M 8.42261904761905 14.6217105263158  L 8.42261904761905 12.9605263157895  L 6.91964285714286 12.9605263157895  L 6.91964285714286 14.6217105263158  L 8.42261904761905 14.6217105263158  Z M 11.889880952381 14.6217105263158  L 11.889880952381 12.9605263157895  L 10.3869047619048 12.9605263157895  L 10.3869047619048 14.6217105263158  L 11.889880952381 14.6217105263158  Z M 8.42261904761905 18.2565789473684  L 8.42261904761905 16.5789473684211  L 6.91964285714286 16.5789473684211  L 6.91964285714286 18.2565789473684  L 8.42261904761905 18.2565789473684  Z M 11.889880952381 18.2565789473684  L 11.889880952381 16.5789473684211  L 10.3869047619048 16.5789473684211  L 10.3869047619048 18.2565789473684  L 11.889880952381 18.2565789473684  Z M 8.42261904761905 21.875  L 8.42261904761905 20.2138157894737  L 6.91964285714286 20.2138157894737  L 6.91964285714286 21.875  L 8.42261904761905 21.875  Z M 11.889880952381 21.875  L 11.889880952381 20.2138157894737  L 10.3869047619048 20.2138157894737  L 10.3869047619048 21.875  L 11.889880952381 21.875  Z M 17.485119047619 8.91447368421053  L 17.485119047619 10.5756578947368  L 18.9880952380952 10.5756578947368  L 18.9880952380952 8.91447368421053  L 17.485119047619 8.91447368421053  Z M 17.485119047619 12.7467105263158  L 17.485119047619 14.4078947368421  L 18.9880952380952 14.4078947368421  L 18.9880952380952 12.7467105263158  L 17.485119047619 12.7467105263158  Z M 17.485119047619 16.3980263157895  L 17.485119047619 18.0592105263158  L 18.9880952380952 18.0592105263158  L 18.9880952380952 16.3980263157895  L 17.485119047619 16.3980263157895  Z M 17.485119047619 20.0986842105263  L 17.485119047619 21.7598684210526  L 18.9880952380952 21.7598684210526  L 18.9880952380952 20.0986842105263  L 17.485119047619 20.0986842105263  Z " fill-rule="nonzero" fill="#2590ff" stroke="none" transform="matrix(1 0 0 1 118 843 )" />
  </g>
</svg>