<?xml version="1.0" encoding="utf-8"?>
<svg version="1.1" xmlns:xlink="http://www.w3.org/1999/xlink" width="25px" height="25px" xmlns="http://www.w3.org/2000/svg">
  <g transform="matrix(1 0 0 1 -118 -783 )">
    <path d="M 9.54186046511628 7.98527132994186  L 9.54031006540698 7.98527132994186  C 10.4943901123064 7.04544170635577  10.5639730231355 5.52948015240389  9.7 4.5062015625  L 7.01007750726744 1.1046511627907  C 6.14186046511628 -0.0426356468023251  4.47984494912791 -0.199224818313953  3.37286820494186 0.670542623546512  C 3.2937984375 0.74806199127907  3.21472867005814 0.74806199127907  3.21472867005814 0.828682158430233  L 0.842635646802326 3.20077518168605  C -1.41162790697674 5.45503873546512  1.79147285610465 11.5434108284884  7.64263564680233 17.3961240188953  C 13.4565891351744 23.2085271075581  19.4255813953488 26.3310077398256  21.7201550508721 24.1558139534884  L 24.0519379723837 21.8240309956395  C 25.0798449491279 20.7961240188953  25.0798449491279 19.1356589026163  24.0519379723837 18.186821693314  L 23.8937984375 18.0286821584302  L 20.4937984375 15.340310065407  C 19.4709162233358 14.475925241313  17.9549743962049 14.5448316880008  17.0147286700581 15.4984496002907  L 15.5511627906977 16.9604651162791  C 14.036013109517 16.0570615757363  12.6298633101773 14.9822907749778  11.3604651162791 13.7573643531977  C 10.1356589026163 12.5325581395349  9.1062015625 11.1480620276163  8.15736435319768 9.56666667877907  L 9.54186046511628 7.98527132994186  Z M 5.62558139534884 2.21317830668604  L 8.31550388808139 5.65193797238372  C 8.59147289244186 6.00852710755814  8.59147289244186 6.52170541424419  8.23643412063953 6.79922481831395  L 6.33875970203488 8.81472867005814  C 6.06124033430233 9.0937984375  5.98217056686047 9.52790697674419  6.18062016715117 9.84418604651163  C 7.20852714389535 11.7418604651163  8.512403125 13.4410852834302  10.0162790697674 14.9837209302326  C 11.5186046511628 16.4875969113372  13.2565891351744 17.7899224927326  15.1558139534884 18.8193798328488  C 15.5124030886628 18.9775193677326  15.9062015625 18.8968992005814  16.1837209302326 18.6612402979651  L 18.199224818314 16.6457364462209  C 18.5558139534884 16.2891473110465  18.9899224927326 16.2891473110465  19.346511627907 16.5651162790698  L 22.7480620276163 19.3325581395349  C 22.7480620276163 19.3325581395349  22.8255813953488 19.3325581395349  22.8255813953488 19.4116279069767  C 23.1821705305233 19.7279069767442  23.1821705305233 20.2813953488372  22.8658914607558 20.5976744186047  C 22.8658914607558 20.5976744186047  22.8658914607558 20.6379844840116  22.8271317950581 20.6379844840116  L 20.4147286700581 22.9713178415698  C 19.2674418604651 24.1186046511628  13.8906976744186 21.2317829578488  8.74961239098838 16.1697674418605  C 3.61007750726744 11.1093023255814  0.842635646802328 5.65193797238372  1.94961239098837 4.5062015625  L 4.40077518168605 2.05503877180232  C 4.75736431686047 1.77751940406976  5.34961239098837 1.77751940406976  5.62558139534884 2.21317830668604  Z " fill-rule="nonzero" fill="#2590ff" stroke="none" transform="matrix(1 0 0 1 118 783 )" />
  </g>
</svg>