<?xml version="1.0" encoding="utf-8"?>
<svg version="1.1" xmlns:xlink="http://www.w3.org/1999/xlink" width="25px" height="22px" xmlns="http://www.w3.org/2000/svg">
  <g transform="matrix(1 0 0 1 -116 -992 )">
    <path d="M 25 4.4  C 25 1.98  23.0603448275862 0  20.6896551724138 0  L 4.31034482758621 0  C 1.93965517241379 0  0 1.98  0 4.4  L 0 17.6  C 0 20.02  1.93965517241379 22  4.31034482758621 22  L 20.6896551724138 22  C 23.0603448275862 22  25 20.02  25 17.6  L 25 4.4  Z M 23 4.4  L 23 17.6  C 23.2758620689655 19.052  22.1120689655172 20.24  20.6896551724138 20  L 4.31034482758621 20  C 2.88793103448276 20.24  1.72413793103448 19.052  2 17.6  L 2 4.4  C 1.72413793103448 2.948  2.88793103448276 1.76  4.31034482758621 2  L 20.6896551724138 2  C 22.1120689655172 1.76  23.2758620689655 2.948  23 4.4  Z " fill-rule="nonzero" fill="#2590ff" stroke="none" transform="matrix(1 0 0 1 116 992 )" />
  </g>
</svg>