<?xml version="1.0" encoding="utf-8"?>
<svg version="1.1" xmlns:xlink="http://www.w3.org/1999/xlink" width="25px" height="25px" xmlns="http://www.w3.org/2000/svg">
  <g transform="matrix(1 0 0 1 -118 -903 )">
    <path d="M 1.66666667480469 12.5  C 1.66666667480469 18.4833333251953  6.51666667480469 23.3333333251953  12.5 23.3333333251953  C 18.4833333251953 23.3333333251953  23.3333333251953 18.4833333251953  23.3333333251953 12.5  C 23.3333333251953 6.51666667480469  18.4833333251953 1.66666667480469  12.5 1.66666667480469  C 6.51666667480469 1.66666667480469  1.66666667480469 6.51666667480469  1.66666667480469 12.5  Z M 25 12.5  C 25 19.4033333251953  19.4033333251953 25  12.5 25  C 5.59666667480469 25  0 19.4033333251953  0 12.5  C 0 5.59666667480469  5.59666667480469 0  12.5 0  C 19.4033333251953 0  25 5.59666667480469  25 12.5  Z M 13.3333333251953 5.83333332519531  L 13.3333333251953 11.3366666748047  C 13.3683333251953 11.3616666748047  13.4025 11.3908333496094  13.4341666748047 11.4225  L 16.97 14.9583333251953  C 17.1200576948187 15.1136992833283  17.2039269392482 15.3212605251941  17.2039269392482 15.5372602768627  C 17.2039269392482 15.9974975638938  16.830830901084 16.370593602058  16.3705936140529 16.370593602058  C 16.1545938683571 16.370593602058  15.9470326317506 16.2867243622549  15.7916666748047 16.1366666748047  L 12.2558333251953 12.6008333251953  C 12.1973762973607 12.5423640622374  12.1479460123446 12.4755208312337  12.1091666748047 12.4025  C 11.8369306853234 12.2579359878073  11.6667277616053 11.9749055170334  11.6666666748047 11.6666666748047  L 11.6666666748047 5.83333332519531  C 11.6666666748047 5.37309600304178  12.0397627129688 4.99999996487763  12.5 4.99999996487763  C 12.9602372870312 4.99999996487763  13.3333333251953 5.37309600304178  13.3333333251953 5.83333329007294  Z " fill-rule="nonzero" fill="#2590ff" stroke="none" transform="matrix(1 0 0 1 118 903 )" />
  </g>
</svg>