<?xml version="1.0" encoding="utf-8"?>
<svg version="1.1" xmlns:xlink="http://www.w3.org/1999/xlink" width="17px" height="13px" xmlns="http://www.w3.org/2000/svg">
  <g transform="matrix(1 0 0 1 -120 -996 )">
    <path d="M 9.35 9.96666666666667  C 9.35 8.23333333333333  8.4575 6.71666666666667  7.0975 5.89333333333333  C 7.6925 5.28666666666667  8.075 4.42  8.075 3.46666666666667  C 8.075 1.56  6.545 0  4.675 0  C 2.805 0  1.275 1.56  1.275 3.46666666666667  C 1.275 4.42  1.6575 5.28666666666667  2.2525 5.89333333333333  C 0.8925 6.71666666666667  0 8.23333333333333  0 9.96666666666667  L 0 11.5266666666667  C 0 12.35  0.6375 13  1.4025 13  L 7.9475 13  C 8.7125 13  9.35 12.35  9.35 11.5266666666667  L 9.35 9.96666666666667  Z M 4.675 5.2  C 3.74 5.2  2.975 4.42  2.975 3.46666666666667  C 2.975 2.51333333333333  3.74 1.73333333333333  4.675 1.73333333333333  C 5.61 1.73333333333333  6.375 2.51333333333333  6.375 3.46666666666667  C 6.375 4.42  5.61 5.2  4.675 5.2  Z M 7.65 9.96666666666667  L 7.65 11.2666666666667  L 1.7 11.2666666666667  L 1.7 9.96666666666667  C 1.7 8.27666666666667  3.0175 6.93333333333333  4.675 6.93333333333333  C 6.3325 6.93333333333333  7.65 8.27666666666667  7.65 9.96666666666667  Z M 17 6.5  C 17 6.02333333333333  16.6175 5.63333333333333  16.15 5.63333333333333  L 11.9 5.63333333333333  C 11.4325 5.63333333333333  11.05 6.02333333333333  11.05 6.5  C 11.05 6.97666666666667  11.4325 7.36666666666667  11.9 7.36666666666667  L 16.15 7.36666666666667  C 16.6175 7.36666666666667  17 6.97666666666667  17 6.5  Z M 17 2.16666666666667  C 17 1.69  16.6175 1.3  16.15 1.3  L 11.05 1.3  C 10.5825 1.3  10.2 1.69  10.2 2.16666666666667  C 10.2 2.64333333333333  10.5825 3.03333333333333  11.05 3.03333333333333  L 16.15 3.03333333333333  C 16.6175 3.03333333333333  17 2.64333333333333  17 2.16666666666667  Z M 17 10.8333333333333  C 17 10.3566666666667  16.6175 9.96666666666667  16.15 9.96666666666667  L 12.75 9.96666666666667  C 12.2825 9.96666666666667  11.9 10.3566666666667  11.9 10.8333333333333  C 11.9 11.31  12.2825 11.7  12.75 11.7  L 16.15 11.7  C 16.6175 11.7  17 11.31  17 10.8333333333333  Z " fill-rule="nonzero" fill="#2590ff" stroke="none" transform="matrix(1 0 0 1 120 996 )" />
  </g>
</svg>