<?xml version="1.0" encoding="utf-8"?>
<svg version="1.1" xmlns:xlink="http://www.w3.org/1999/xlink" width="35px" height="50px" xmlns="http://www.w3.org/2000/svg">
  <g transform="matrix(1 0 0 1 -1119 -1992 )">
    <path d="M 4.28749999999999 25.4901098901099  L 4.2875 25.4945054945055  C 5.48509165593136 26.5452728949595  6.80240228637402 27.4497483163192  8.211875 28.189010989011  L 5.34625 42.5846153846154  L 16.56375 35.2967032967033  C 17.2981535552161 34.8203133344131  18.2443381456074 34.8289555227654  18.97 35.3186813186813  L 29.631875 42.4747252747253  L 26.788125 28.189010989011  C 28.1978212555821 27.4483730675064  29.5151415018206 26.5424155430146  30.7125 25.4901098901099  L 34.95625 46.821978021978  C 34.9846058834622 46.9641523346204  34.9988882212697 47.1087970798396  34.9988882212697 47.253797709712  C 34.9988882212697 48.4676103467027  34.0195111115245 49.4515999075142  32.8113882212697 49.4515999075142  C 32.378811922052 49.4515999075142  31.9559467276814 49.3227429265171  31.59625 49.0813186813187  L 17.731875 39.7758241758242  L 3.373125 49.0945054945055  C 3.02028242612125 49.3224069619786  2.60966167059315 49.4435776386323  2.19019632852918 49.4435776386323  C 0.982073438274318 49.4435776386323  0.00269632852917867 48.4595880778209  0.00269632852917867 47.2457754408301  C 0.00269632852917867 47.1035075992318  0.0164453945731396 46.9615758671284  0.0437499999999952 46.821978021978  L 4.28749999999999 25.4901098901099  Z M 17.5 15.6483516483516  L 17.5 15.643956043956  C 14.5570126393392 15.643956043956  12.17125 13.2469574738194  12.17125 10.2901098901099  C 12.17125 7.33326230640041  14.5570126393392 4.93626373626374  17.5 4.93626373626374  C 20.4441954835511 4.93626373626374  22.8309375 7.33424629596122  22.8309375 10.2923076923077  C 22.8309375 13.2503690886542  20.4441954835511 15.6483516483516  17.5 15.6483516483516  Z M 17.5 20.043956043956  L 17.5 20.0395604395604  C 22.8592331411706 20.0395604395604  27.20375 15.6745827478009  27.20375 10.2901098901099  C 27.20375 4.9056370324189  22.8592331411706 0.540659340659342  17.5 0.540659340659342  C 12.1395587359392 0.540659340659344  7.7940625 4.90662102197972  7.7940625 10.2923076923077  C 7.7940625 15.6779943626357  12.1395587359392 20.043956043956  17.5 20.043956043956  Z " fill-rule="nonzero" fill="#40444b" stroke="none" transform="matrix(1 0 0 1 1119 1992 )" />
  </g>
</svg>