<?xml version="1.0" encoding="utf-8"?>
<svg version="1.1" xmlns:xlink="http://www.w3.org/1999/xlink" width="34px" height="50px" xmlns="http://www.w3.org/2000/svg">
  <g transform="matrix(1 0 0 1 -579 -1992 )">
    <path d="M 4.16499999999999 25.4901098901099  L 4.165 25.4945054945055  C 5.32837475147618 26.5452728949595  6.60804793533476 27.4497483163192  7.97725 28.189010989011  L 5.1935 42.5846153846154  L 16.0905 35.2967032967033  C 16.8039205964957 34.8203133344131  17.7230713414472 34.8289555227654  18.428 35.3186813186813  L 28.78525 42.4747252747253  L 26.02275 28.189010989011  C 27.3921692197083 27.4483730675064  28.6718517446257 26.5424155430146  29.835 25.4901098901099  L 33.9575 46.821978021978  C 33.9850457153632 46.9641523346204  33.9989199863763 47.1087970798396  33.9989199863763 47.253797709712  C 33.9989199863763 48.4676103467027  33.0475250797667 49.4515999075142  31.8739199863763 49.4515999075142  C 31.4537030099934 49.4515999075142  31.042919678319 49.3227429265171  30.6935 49.0813186813187  L 17.22525 39.7758241758242  L 3.27675 49.0945054945055  C 2.93398864251779 49.3224069619786  2.5350999085762 49.4435776386323  2.1276192905712 49.4435776386323  C 0.954014197180767 49.4435776386323  0.00261929057120214 48.4595880778209  0.00261929057120214 47.2457754408301  C 0.00261929057120214 47.1035075992318  0.0159755261567642 46.9615758671284  0.0424999999999953 46.821978021978  L 4.16499999999999 25.4901098901099  Z M 17 15.6483516483516  L 17 15.643956043956  C 14.1410979925009 15.643956043956  11.8235 13.2469574738194  11.8235 10.2901098901099  C 11.8235 7.33326230640041  14.1410979925009 4.93626373626374  17 4.93626373626374  C 19.8600756125925 4.93626373626374  22.178625 7.33424629596122  22.178625 10.2923076923077  C 22.178625 13.2503690886542  19.8600756125925 15.6483516483516  17 15.6483516483516  Z M 17 20.043956043956  L 17 20.0395604395604  C 22.20611219428 20.0395604395604  26.4265 15.6745827478009  26.4265 10.2901098901099  C 26.4265 4.9056370324189  22.20611219428 0.540659340659342  17 0.540659340659342  C 11.7927142006266 0.540659340659344  7.571375 4.90662102197972  7.571375 10.2923076923077  C 7.571375 15.6779943626357  11.7927142006266 20.043956043956  17 20.043956043956  Z " fill-rule="nonzero" fill="#2590ff" stroke="none" transform="matrix(1 0 0 1 579 1992 )" />
  </g>
</svg>