<?xml version="1.0" encoding="utf-8"?>
<svg version="1.1" xmlns:xlink="http://www.w3.org/1999/xlink" width="40px" height="41px" xmlns="http://www.w3.org/2000/svg">
  <g transform="matrix(1 0 0 1 -1116 -1982 )">
    <path d="M 20 36.2661621621622  C 11.4237641658708 36.2661621621622  4.47135135135135 29.1399390272797  4.47135135135135 20.3492972972973  C 4.47135135135135 11.5586555673149  11.4237641658708 4.43243243243243  20 4.43243243243243  C 28.5762358341292 4.43243243243243  35.5286486486486 11.5586555673149  35.5286486486486 20.3492972972973  C 35.5286486486486 29.1399390272797  28.5762358341292 36.2661621621622  20 36.2661621621622  Z M 20 40.6985945945946  C 30.9644942117759 40.6985945945946  39.852972972973 31.5879038643676  39.852972972973 20.3492972972973  C 39.852972972973 9.11069073022702  30.9644942117759 0  20 0  C 9.03550578822412 0  0.147027027027024 9.11069073022702  0.147027027027024 20.3492972972973  C 0.147027027027024 31.5879038643676  9.03550578822412 40.6985945945946  20 40.6985945945946  Z " fill-rule="nonzero" fill="#40444b" stroke="none" transform="matrix(1 0 0 1 1116 1982 )" />
  </g>
</svg>