<?xml version="1.0" encoding="utf-8"?>
<svg version="1.1" xmlns:xlink="http://www.w3.org/1999/xlink" width="40px" height="41px" xmlns="http://www.w3.org/2000/svg">
  <g transform="matrix(1 0 0 1 -576 -1880 )">
    <path d="M 32.6048321929825 13.7511048556202  C 32.0186333333333 13.2417866463178  31.1392531140351 13.4965199641473  30.552945 14.2604230649225  C 27.0355879385965 17.5711151007752  17.6554229824561 25.4656709806202  17.069333377193 25.9748407635659  L 9.74149254385965 19.8630222916667  C 9.44836578947368 19.3537535445736  8.5690948245614 19.0990202267442  7.68960535087719 19.6083384360465  C 7.1032972368421 20.117903996124  7.1032972368421 20.8816587102713  7.68960535087719 21.3909769195736  C 10.3275821929825 23.6829335726744  12.6727053508772 25.7202559118217  15.0176100438596 27.757479247093  C 16.190280877193 28.7762145901163  17.3626785964912 28.7762145901163  18.2420041666667 28.0122125649225  L 32.3117054385965 15.7884766172481  C 33.1910310526316 15.0244250901163  33.1910310526316 14.2604230649225  32.6048321929825 13.7511048556202  Z M 40 7.12972078391472  C 39.9328914912281 6.36596610949612  39.3467472368421 5.60196404457364  38.1742949122807 5.60196404457364  L 36.4156436842105 5.60196404457364  C 36.4156436842105 5.60196404457364  32.6049414473684 5.60196404457364  28.7944576315789 4.07405891860465  C 24.6906286403509 2.80073864437985  22.0525425877193 1.27268509205426  22.0525425877193 1.27268509205426  L 20.8801448684211 0.50878199127907  C 20.3276377099269 0.254112406877435  19.674000798845 0.254112406877434  19.1214936403509 0.50878199127907  L 17.9488228070175 1.27268509205426  C 17.9488228070175 1.27268509205426  15.3105728947368 3.05532353585271  11.2069077631579 4.32864381007752  C 7.39620552631579 5.60196408430233  3.58572171052632 5.8566973624031  3.58572175438596 5.8566973624031  L 1.82707052631579 5.8566973624031  C 0.947744912280701 5.8566973624031  0.0684192982456139 6.62060046317829  0 7.38460252810077  L 0 23.1736153633721  C 0.0684192982456139 27.2481610377907  2.70639614035088 31.5774399903101  7.39642399122807 35.3974502354651  C 11.5001437719298 38.9626777005814  16.4830252631579 41  20.0005461842105 41  C 23.5180671052632 41  28.5012216666667 38.9627271627907  32.6048321929825 35.3974996976744  C 37.2948054385965 31.5774399903101  39.9328914912281 27.248160998062  40 23.1736153633721  L 40 7.12972078391472  Z M 37 7.8939207374031  L 37 22.9189810096899  C 37.2948054385965 26.7388922906977  34.9499553508772 30.5588530736434  30.552945 34.124130000969  C 26.7424612280702 37.1800392567829  22.9317589473684 38.7079938846899  20.0005461842105 38.7079938449612  C 17.0693334210526 38.7079938052326  13.5518125 37.1800392170543  9.74149254385965 34.124130000969  C 5.34486451754386 30.5588530736434  2.70645074561404 26.7388922906977  3 23.1736153633721  L 3 8.14885194379845  C 2.99963210526316 8.14885194379845  7.68960535087719 7.8941680881783  12.3795785964912 6.11152964437985  C 17.069333377193 4.58337712790698  19.7073648245614 3.0553235755814  19.7073648245614 2.80073864437985  C 20.0005461842105 3.05532353585272  23.2246672368421 4.83796201937985  27.9148589473684 6.36596610949613  C 32.6050506578947 7.89397019961241  36.4155344298246 7.8939207374031  36.7084973245614 7.8939207374031  L 37 7.8939207374031  Z " fill-rule="nonzero" fill="#2590ff" stroke="none" transform="matrix(1 0 0 1 576 1880 )" />
  </g>
</svg>