<?xml version="1.0" encoding="utf-8"?>
<svg version="1.1" xmlns:xlink="http://www.w3.org/1999/xlink" width="40px" height="41px" xmlns="http://www.w3.org/2000/svg">
  <g transform="matrix(1 0 0 1 -576 -2104 )">
    <path d="M 39.5943291935484 6.9327088984375  C 39.8793006048387 6.51331032910156  39.9352771370968 5.98274586523437  39.7469924596774 5.51281735839844  C 39.5590684997089 5.04463503882043  39.1489597695647 4.69991421570352  38.652905766129 4.59317230371094  L 17.4072689919355 0.0353709482421875  C 16.8017047177419 -0.090953935546875  16.1808741532258 0.1515898125  15.8297486693548 0.651836337890625  C 15.4786231854839 1.15713583300781  15.4684456048387 1.81907815039063  15.7992160080645 2.334483625  L 24.5468207258065 15.8461917792969  L 22.5520208064516 18.7516637861328  C 21.4630229032258 17.9735025644531  19.4987556451613 17.6501109003906  16.3946027016129 17.2054473623047  C 14.5117558467742 16.9376386455078  12.3846477822581 16.6294059707031  11.5399110887097 16.2150603710937  L 8.04901125 14.5020951455078  C 7.66735310483871 14.3151343447266  7.21954088709677 14.2949223457031  6.82261641129032 14.4465121982422  C 6.42569193548387 14.5981020507813  6.11018786290323 14.9113877353516  5.95243584677419 15.3055213359375  L 0.247918790322581 29.7166625458984  C -0.0408199391557832 30.4497501628441  0.281460025933533 31.2804712965185  0.990879959677419 31.6317476015625  L 19.2443168548387 40.5907074101563  C 19.2595831854839 40.5957604199219  19.2850270564516 40.6109194091797  19.2901158467742 40.6109194091797  C 19.8244372580645 40.87367515625  20.3892912903226 41  20.9490565725806 41  C 22.2008952822581 41  23.4272901209677 40.3683756611328  24.2058727822581 39.2314518271484  L 24.2313166532258 39.1960808388672  C 25.1676512903226 37.9783090888672  28.3888460483871 33.7590584267578  30.4752439112903 30.6363076005859  C 31.3861346774194 29.4741187978516  31.7779703629032 27.8925314257813  31.5286204032258 26.3968449394531  C 31.5184428629032 26.3362089824219  31.5031765322581 26.2755730654297  31.4879102016129 26.2199901582031  C 31.1164295967742 24.9415824511719  30.2564265725806 23.8804535634766  29.1114521370968 23.2943061523438  L 28.5415093145161 23.0163914160156  L 39.5943291935484 6.9327088984375  Z M 3.60142169354839 29.5297017451172  L 8.18640818548387 17.9532906054688  L 9.92168056451613 18.8072467333984  L 5.33669403225806 30.3836578730469  L 3.60142169354839 29.5297017451172  Z M 28.531331733871 26.9829923505859  C 28.6076633467742 27.6196696992188  28.434645 28.301824015625  28.0377205645161 28.8071234707031  C 28.0122766935484 28.8374414492188  27.9868328225806 28.8728123974609  27.9664777016129 28.9031303759766  L 27.9359450403226 28.94860734375  C 27.829080766129 29.1052501660156  27.7222164919355 29.2669459980469  27.6102634274194 29.4336948398438  L 25.4882441532258 28.3371949638672  C 25.2705400508236 28.2248497024608  25.0287973240088 28.1661983817729  24.7834487701613 28.1661983817729  C 23.9393555227503 28.1661983817729  23.2550827458059 28.8456598657544  23.2550827458059 29.6838180825195  C 23.2550827458059 30.2501116407032  23.5726083721954 30.7692988577104  24.0786533870968 31.0304412011719  L 25.8495471774194 31.9450332861328  C 25.4475339112903 32.5059157285156  25.0404318951613 33.0566921513672  24.6485962096774 33.5872565751953  L 22.9540340322581 32.5412866767578  C 22.7120083550198 32.3916153882232  22.4325882220678 32.312281018288  22.1474631653226 32.312281018288  C 21.3048309659751 32.312281018288  20.6217426025049 32.9905664167026  20.6217426025049 33.8272738583984  C 20.6217426025049 34.3504855321779  20.8936242198662 34.8366656374499  21.3408922983871 35.1132610400391  L 22.8166370967742 36.0278530849609  C 22.3790024193548 36.6038944765625  22.0278769354839 37.0637170039063  21.8039708467742 37.3567907294922  L 21.7479943145161 37.4325856357422  C 21.7276391935484 37.4578506044922  21.6920177822581 37.5134335517578  21.6716626612903 37.5386985605469  C 21.4579341129032 37.8519842451172  21.0762759677419 38.1096869824219  20.6488188306452 37.9025141826172  L 19.9262127419355 39.236504796875  L 20.6182862096774 37.8873551933594  C 20.6131974193548 37.8873551933594  20.6081086693548 37.8823021835937  20.6030198790323 37.8823021835937  L 8.0846327016129 31.7328074765625  L 12.8477263709677 19.7167858085937  C 13.8044161290323 19.903746609375  14.8679701612903 20.0553364619141  15.9620568145161 20.2119792841797  C 17.4937781854839 20.4292580634766  20.0127219354839 20.7930736855469  20.6946178225806 21.1669953271484  C 21.6309524596774 22.7890066572266  22.7352166935484 23.5216909111328  22.8624360887097 23.6025388271484  C 22.9082350806452 23.6328568056641  22.9591228225806 23.6581217744141  23.0049218145161 23.6833867431641  L 27.7374828225806 26.0027113789063  C 28.0936970967742 26.1846192099609  28.3786685080645 26.5383288125  28.531331733871 26.9829923505859  Z M 35.7930140725806 7.08429875097656  L 25.7783043145161 21.6571358330078  L 24.6384186693548 21.096253390625  L 27.6407960887097 16.7254128759766  C 27.9868328225806 16.2201133808594  27.9970103629032 15.5632240732422  27.6611511693548 15.0528715683594  L 20.3587586693548 3.76953415429687  L 35.7930140725806 7.08429875097656  Z " fill-rule="nonzero" fill="#2590ff" stroke="none" transform="matrix(1 0 0 1 576 2104 )" />
  </g>
</svg>