<?xml version="1.0" encoding="utf-8"?>
<svg version="1.1" xmlns:xlink="http://www.w3.org/1999/xlink" width="120px" height="120px" xmlns="http://www.w3.org/2000/svg">
  <g transform="matrix(1 0 0 1 -200 -1131 )">
    <path d="M 59.9984776517851 6.3910892243893  C 59.701223715415 6.3910892243893  59.457050839111 6.14691634808528  59.457050839111 5.84966241171516  L 59.457050839111 0.541556405105947  C 59.457050839111 0.244302468735831  59.701223715415 0.000129592431806988  59.9984776517851 0.000129592431806988  C 60.2957315881552 0.000129592431806988  60.5399044644593 0.244302468735831  60.5399044644593 0.541556405105947  L 60.5399044644593 5.84966241171516  C 60.5399044644593 6.14691634808528  60.2957315881552 6.3910892243893  59.9984776517851 6.3910892243893  Z M 112.986221214281 68.2567462450593  C 113.032932547139 67.9631018207737  113.312138923087 67.7601198470809  113.605146374652 67.8066188556988  L 118.84849348798 68.6368066351325  C 119.141500939545 68.6833056437504  119.345332210199 68.9627243439383  119.298620877341 69.2562626061038  C 119.251909544483 69.5499070303894  118.972703168535 69.7528890040821  118.678634095769 69.7063899954643  L 113.436348603642 68.8762022160306  C 113.142279530875 68.8297032074127  112.939509881423 68.5503906693449  112.986221214281 68.2567462450593  Z M 7.01452407697791 68.2602495950237  C 7.06101246938379 68.5537878571891  6.85803049569105 68.8331003952569  6.5644391524655 68.8795994038748  L 1.32161223352556 69.7097871833085  C 1.02802089030001 69.7562861919264  0.748665887384177 69.5533042182336  0.70216687876628 69.2597659560682  C 0.655678486360397 68.9661215317825  0.858660460053133 68.6868089937147  1.1522624194907 68.6403099850969  L 6.39507872221862 67.8101222056632  C 6.68867006544418 67.7636231970453  6.96803568457202 67.966605170738  7.01452407697791 68.2602495950237  Z M 111.574265016523 74.7125709324175  C 111.656009849025 74.4267825050217  111.9575102702 74.2593648415733  112.244147994557 74.3412158361952  L 117.34629948811 75.8041298516167  C 117.631875591265 75.8860870083587  117.799611741074 76.1881182401348  117.717866908573 76.4739066675306  C 117.636122076071 76.7595889328063  117.333560033694 76.9270065962548  117.047983930538 76.8451556016329  L 111.945832436986 75.3822415862113  C 111.659194712629 75.3002844294693  111.492520184021 74.9982531976932  111.574265016523 74.7125709324175  Z M 8.42709601503272 74.7157557960215  C 8.50902132313873 75.0015442234174  8.34159304347826 75.3035754551934  8.05583646471846 75.3854264498153  L 2.95315416056502 76.8483404652368  C 2.66740819801724 76.9302976219789  2.36538758245318 76.7628799585304  2.28346227434718 76.4770915311346  C 2.20153696624117 76.1914092658589  2.36897586211365 75.8893780340828  2.65472182466144 75.8074208773408  L 7.75740412881488 74.3445068619193  C 8.04315009136267 74.2626558672974  8.34517070692671 74.4300735307458  8.42709601503272 74.7157557960215  Z M 109.379893993391 80.9455613296184  C 109.495610704335 80.6719815460377  109.816220307134 80.5425699215966  110.090118577075 80.6587112810212  L 114.975699345558 82.7325882978034  C 115.249597615499 82.848729657228  115.379115402061 83.1689146115467  115.262337069915 83.4426005572475  C 115.146620358971 83.7161803408281  114.826010756172 83.8455919652692  114.553174107432 83.7294506058446  L 109.666531717748 81.6555735890624  C 109.392633447807 81.5394322296378  109.263115661245 81.2192472753191  109.379893993391 80.9455613296184  Z M 10.6212016328646 80.9487461932223  C 10.7373429922892 81.2224321389231  10.6080056813322 81.5425109311216  10.3343834329035 81.6586522905462  L 5.44827185381974 83.7325293073285  C 5.17464960539104 83.8486706667531  4.85449649970842 83.7193652044321  4.73835514028381 83.4457854208514  C 4.62222439707121 83.1720994751506  4.75158294045228 82.851914520832  5.02520518888097 82.7357731614074  L 9.91131676796475 80.6618961446252  C 10.1849390163934 80.5457547852005  10.5051027382881 80.6751664096417  10.6212016328646 80.9487461932223  Z M 106.436018402125 86.8612331497441  C 106.58464537031 86.6037900084235  106.917994427525 86.5144015032722  107.175968379447 86.6630284714573  L 111.77278818117 89.3170814747619  C 112.02970051189 89.4657084429469  112.119938314002 89.7992698244022  111.971311345817 90.0567129657228  C 111.822684377632 90.3140499449232  111.488273699216 90.4034384500745  111.231361368496 90.2548114818895  L 106.634541566772 87.6007584785849  C 106.376567614851 87.4521315103998  106.28739143394 87.1185701289445  106.436018402125 86.8612331497441  Z M 13.5655018726106 86.8642056891077  C 13.7141288407957 87.1216488304283  13.6247403356444 87.4552102118836  13.3672971943239 87.6038371800687  L 8.77051985744832 90.2578901833733  C 8.5130979485518 90.4065171515583  8.17955779952051 90.317128646407  8.03093083133545 90.0596855050865  C 7.88230386315039 89.8023485258861  7.97167113587767 89.4687871444307  8.22909304477419 89.3201601762457  L 12.8258703816497 86.6661071729411  C 13.0833135229703 86.517480204756  13.4168749044256 86.6068687099073  13.5655018726106 86.8642056891077  Z M 102.787863305903 92.3701978876434  C 102.966746478326 92.1328193870278  103.308694667271 92.084834108728  103.546073167887 92.2637172811508  L 107.785338949005 95.4581354759282  C 108.0220804769 95.6370186483509  108.070915052161 95.9789668372967  107.891501069138 96.2163453379123  C 107.713148707315 96.4537238385278  107.37130668049 96.5018152789477  107.133503531394 96.322932106525  L 102.894450074516 93.1285139117475  C 102.65696541178 92.9495245772047  102.60898013348 92.607682550379  102.787863305903 92.3701978876434  Z M 17.2141877794337 92.3729581027668  C 17.3930709518564 92.6103366033824  17.3450856735567 92.9522847923281  17.1077071729411 93.1311679647508  L 12.868653716063 96.3255861595283  C 12.6312752154474 96.504469331951  12.2893270265017 96.4563778915311  12.1104438540789 96.2189993909156  C 11.9315606816562 95.9816208903  11.9795459599559 95.6396727013542  12.2169244605715 95.4607895289315  L 16.4559779174496 92.2663713341541  C 16.6933564180652 92.0874881617314  17.0353046070109 92.1355796021512  17.2141877794337 92.3729581027668  Z M 6.40610896650036 61.6794720922698  C 6.41648100563727 61.9765137043997  6.18097095833603 62.2290733881941  5.88389749757014 62.2394772759671  L 0.578976354564894 62.4247301755978  C 0.281902893799002 62.4351340633707  0.0293538262165491 62.1995603187974  0.0189817870796347 61.9025187066675  C 0.00860974794272027 61.6054770945377  0.244109179031945 61.3529174107432  0.541182639797836 61.3425135229703  L 5.84610378280308 61.1572606233396  C 6.14318785978099 61.1468567355666  6.39572631115143 61.38243048014  6.40610896650036 61.6794720922698  Z M 98.490314520832 97.3880566578112  C 98.6967998444891 97.174246147865  99.042039059159 97.1683010691376  99.2558495691052 97.3747863927947  L 103.073970219659 101.062327635586  C 103.287780729605 101.268812959243  103.293831970453 101.614052173913  103.087346646796 101.827862683859  C 102.880861323139 102.041673193805  102.535515946349 102.047724434653  102.321705436403 101.841239110996  L 98.5035847858485 98.1536978682045  C 98.2897742759023 97.9472125445474  98.2838291971749 97.6019733298776  98.490314520832 97.3880566578112  Z M 93.6086617507938 101.840177489795  C 93.8396705242014 101.653119834122  94.1829988207089 101.689214954967  94.3700564763818 101.920223728374  L 97.7104475863409 106.04515290611  C 97.8975052420139 106.275843193157  97.8614101211689 106.619808462386  97.6305075098814 106.806653793818  C 97.3994987364738 106.993499125251  97.0560642778462 106.957404004406  96.8690066221733 106.727032203719  L 93.5286155122141 102.601678377503  C 93.3415578565412 102.370669604095  93.3776529773861 102.027235145467  93.6086617507938 101.840177489795  Z M 26.3937078209033 101.842300732197  C 26.6247165943109 102.02935838787  26.6608117151558 102.372792846498  26.4737540594829 102.603801619905  L 23.1333629495238 106.729155446122  C 22.9463052938508 106.959527246809  22.6028708352232 106.995622367654  22.3719682239357 106.808777036221  C 22.1409594505281 106.621931704788  22.1048643296831 106.27796643556  22.2919219853561 106.047276148513  L 25.6323130953152 101.922346970777  C 25.8193707509881 101.691338197369  26.1628052096158 101.655243076524  26.3937078209033 101.842300732197  Z M 88.2173246420009 105.657448843388  C 88.4693535151947 105.499904257111  88.8058874360137 105.577614929048  88.9633258601698 105.829643802242  L 91.776091233072 110.331236182207  C 91.9336358193481 110.58284040692  91.8559251474114 110.919374327739  91.6038962742176 111.076494265535  C 91.3518674010238 111.234675824532  91.0153334802047 111.157177476835  90.8578950560487 110.904511630921  L 88.0451296831465 106.403237737316  C 87.8875850968704 106.151421188363  87.9652957688071 105.814993429664  88.2173246420009 105.657448843388  Z M 31.7855757402968 105.65925359943  C 32.0376046134906 105.816798185706  32.1153152854273 106.153225944405  31.9577706991512 106.405360979719  L 29.1450053262489 110.906634873323  C 28.9875669020929 111.158239098037  28.6510329812739 111.236799066934  28.3990041080801 111.078617507938  C 28.1469752348863 110.921497570142  28.0692645629495 110.584963649323  28.2268091492257 110.332297803408  L 31.0395745221279 105.831448558284  C 31.1970129462839 105.57941968509  31.533546867103 105.501709013154  31.7855757402968 105.65925359943  Z M 82.3975172163546 108.782330849478  C 82.66695667725 108.657059547722  82.991388116374 108.774899501069  83.1169779044904 109.044551286205  L 85.3602896650036 113.854756949394  C 85.4858794531199 114.12440873453  85.3677210134128 114.448203200933  85.0983877146375 114.57453612389  C 84.828948253742 114.699807425646  84.504516814618 114.5819674723  84.3788208643815 114.312315687164  L 82.1356152659885 109.502110023975  C 82.0100254778721 109.232458238839  82.1281839175792 108.907602151234  82.3975172163546 108.782330849478  Z M 37.6059139765438 108.78339247068  C 37.8753534374393 108.909725393637  37.9934057150262 109.23351986004  37.8678159269099 109.503171645176  L 35.6246103285168 114.313377308365  C 35.4990205404005 114.583029093501  35.1744829391564 114.701930668049  34.905149640381 114.575597745092  C 34.6357101794855 114.450326443336  34.5175517397784 114.125470355731  34.6432476900149 113.855818570595  L 36.886453288408 109.045612907406  C 37.0120430765243 108.77596112227  37.3365806777684 108.658121168924  37.6059139765438 108.78339247068  Z M 76.2375663578047 111.166732067647  C 76.5202760837167 111.075432644334  76.8280400699799 111.232552582129  76.9198703038943 111.514943821681  L 78.5600750599365 116.562952633966  C 78.6519052938508 116.846405494719  78.4951038424156 117.154275643102  78.2123941165036 117.245575066416  C 77.9296843905916 117.337936110931  77.6220265664485 117.180816173135  77.5301963325342 116.898424933584  L 75.8899915764919 111.849354500097  C 75.7980551804575 111.566963260546  75.9548566318927 111.259093112162  76.2375663578047 111.166732067647  Z M 43.7655463487332 111.16885531005  C 44.0482560746452 111.260154733364  44.2050575260805 111.568024881747  44.1132272921661 111.850416121299  L 42.4730225361239 116.899486554785  C 42.3811923022095 117.181877794337  42.0734283159463 117.338997732132  41.7907185900343 117.246636687617  C 41.5080088641223 117.155337264304  41.3512074126871 116.84746711592  41.4430376466014 116.565075876369  L 43.0832424026437 111.516005442882  C 43.1751787986782 111.233614203331  43.4828366228212 111.076494265535  43.7655463487332 111.16885531005  Z M 69.8318501911488 112.777211430052  C 70.1236898593922 112.720945506382  70.4100090973887 112.914160565023  70.4666996695393 113.205044774185  L 71.4794862956003 118.415481630273  C 71.5361768677509 118.707427460636  71.3430679712305 118.994065184993  71.0513344651072 119.050331108663  C 70.7594947968638 119.107658653535  70.4732817209875 118.914443594894  70.4164849867168 118.622497764531  L 69.4036983606557 113.412060908443  C 69.3470077885052 113.120115078079  69.5401166850256 112.834538974924  69.8318501911488 112.777211430052  Z M 50.1715810017495 112.778273051254  C 50.4633145078727 112.834538974924  50.6564234043932 113.121176699281  50.5997328322426 113.413122529644  L 49.5869462061816 118.623559385732  C 49.530255634031 118.915505216095  49.2439363960345 119.107658653535  48.9522028899112 119.051392729865  C 48.6603632216679 118.995126806195  48.4672543251474 118.708489081838  48.5240510594181 118.416543251474  L 49.5368376854792 113.206106395387  C 49.5935282576298 112.914160565023  49.8797413335061 112.720945506382  50.1715810017495 112.778273051254  Z M 21.5116304023845 97.3906045486944  C 21.7181157260416 97.6044150586406  21.7120644851941 97.9496542733104  21.4982539752478 98.1561395969675  L 17.6801333246938 101.843680839759  C 17.4663228147476 102.050166163416  17.1210836000778 102.044221084689  16.9145982764207 101.830410574742  C 16.7081129527636 101.616600064796  16.714058031491 101.271254688006  16.9278685414372 101.064769364349  L 20.7459891919912 97.3772281215577  C 20.9597997019374 97.1707427979006  21.3051450787274 97.1767940387481  21.5116304023845 97.3906045486944  Z M 63.276020786626 113.58616678546  C 63.5725315881552 113.565995982635  63.8331595930797 113.792121298516  63.8539673686257 114.088313613685  L 64.224473167887 119.383680165878  C 64.2451747813128 119.680934102248  64.0186248169507 119.941031296572  63.7221140154215 119.962263720599  C 63.4256032138923 119.982434523424  63.1649752089678 119.756309207542  63.1441674334219 119.460116892373  L 62.7736616341606 114.16475034018  C 62.7529600207348 113.86749640381  62.9795099850969 113.607399209486  63.276020786626 113.58616678546  Z M 113.593468541437 61.6760749044256  C 113.60408475345 61.3790332922957  113.856750599365 61.1434595477224  114.154004535735 61.1538634354954  L 119.45892567874 61.339116335126  C 119.75617961511 61.349520222899  119.991859521804 61.6020799066935  119.981243309791 61.8991215188233  C 119.970627097777 62.1961631309532  119.717961251863 62.4317368755265  119.420707315493 62.4213329877535  L 114.115786172488 62.2360800881229  C 113.819593857319 62.2256762003499  113.583913950625 61.9731165165555  113.593468541437 61.6760749044256  Z M 113.388575649582 55.0710924382816  C 113.36309674075 54.7750062852329  113.584975571827 54.5104502818635  113.881167886995 54.4845467245513  L 119.169103090779 54.021679880775  C 119.465295405948 53.9957763234627  119.729639085077 54.217655154539  119.755117993909 54.5138474697078  C 119.781658523942 54.8099336227564  119.559779692866 55.0744896261258  119.263587377697 55.1003931834381  L 113.975652173913 55.5632600272144  C 113.679459858744 55.5891635845267  113.415116179615 55.3671785913303  113.388575649582 55.0710924382816  Z M 66.5906145013931 6.79760521479946  C 66.2955899695458 6.76137208319835  66.0830534050412 6.48925733687553  66.1192546880062 6.1942434212402  L 66.7663128102119 0.925948209680559  C 66.8025140931769 0.630923677833219  67.0747137691959 0.418344648480533  67.3697383010432 0.454577780081648  C 67.6647628328905 0.490810911682762  67.8772993973952 0.762915041793564  67.8410981144301 1.0579395736409  L 67.1940399922244 6.32623478520055  C 67.1577325471392 6.62125931704789  66.8856390332405 6.83383834640057  66.5906145013931 6.79760521479946  Z M 53.2301116827577 0.926341009525048  L 53.8771698049634 6.19462560487268  C 53.9133710879285 6.48965013672002  53.7008345234238 6.76175426683082  53.4058099915765 6.79798739843194  C 53.1107854597291 6.83422053003305  52.8386919458304 6.62164150068036  52.8023845007452 6.32662758504504  L 52.1553263785395 1.05833237348539  C 52.1191250955744 0.763307841638053  52.3317678221992 0.491203711527251  52.6267923540465 0.454970579926137  C 52.9218168858939 0.418737448325022  53.1939103997926 0.631316477677708  53.2301116827577 0.926341009525048  Z M 73.0834897686775 8.01258821486426  C 72.7950472882784 7.94067399468671  72.6172257370569 7.64469400375818  72.6890974923864 7.35626213957105  L 73.9731283353852 2.20580688135813  C 74.0450000907147 1.91738563338302  74.3409800816432 1.73953223352557  74.6294225620424 1.8114358374911  C 74.9178650424415 1.88333944145662  75.0956865936629 2.17933004859717  75.0238148383334 2.46775129657229  L 73.7397839953347 7.6182065547852  C 73.6679122400052 7.90663841897234  73.3719322490766 8.08449181882978  73.0834897686775 8.01258821486426  Z M 46.9134655348928 8.01350120909739  C 46.6250230544936 8.08540481306292  46.3290430635651 7.90755141320547  46.2570651461155 7.61911954901834  L 44.9730343031167 2.46866429080542  C 44.9011625477872 2.1802430428303  45.0789840990086 1.88425243568976  45.3674265794078 1.81234883172423  C 45.6558690598069 1.7404452277587  45.9518490507354 1.91829862761615  46.023826968185 2.20673049180328  L 47.3078578111838 7.35718575001621  C 47.3797295665133 7.64560699799132  47.2019080152919 7.94158698891985  46.9134655348928 8.01350120909739  Z M 79.3765679258731 10.0169078105359  C 79.0990601438476 9.91036350677121  78.9586076589127 9.59489215058641  79.0651944275254 9.31738436856088  L 80.9676196202942 4.36173660079052  C 81.0741002267868 4.08421820255297  81.3896140478196 3.94376571761809  81.6671218298451 4.05029940517074  C 81.9446296118707 4.1568437089354  82.0850820968055 4.4723150651202  81.978601490313 4.74982284714573  L 80.0761762975442 9.7054706149161  C 79.9695895289315 9.98298901315364  79.6541818700188 10.1234414980885  79.3765679258731 10.0169078105359  Z M 40.6198565670965 10.0181074424934  C 40.342348785071 10.124641130046  40.0268349640381 9.98418864511113  39.9203543575455 9.7066808630856  L 38.0179291647768 4.75103309531524  C 37.9113423961641 4.4735146970777  38.0517948810989 4.1580433408929  38.3293026631245 4.05150965334025  C 38.60681044515 3.94496534957559  38.9223242661829 4.08541783451047  39.0288048726754 4.36293623274801  L 40.9312300654442 9.31858400051838  C 41.0378168340569 9.59610239875592  40.897364349122 9.91157375494072  40.6198565670965 10.0181074424934  Z M 85.3764263072637 12.7796071275838  C 85.1139935462969 12.6400039396099  85.0130333700512 12.3098397459988  85.1525303959049 12.0474069850321  L 87.6446861660079 7.36085895937278  C 87.7842893539817 7.09841558219401  88.1144535475928 6.99747663837232  88.3769924706797 7.13703736149809  C 88.6394252316465 7.27658746841185  88.7402792457721 7.60681535929502  88.6007822199184 7.8692587364738  L 86.1086264498153 12.5558173783451  C 85.9690232618415 12.8182501393119  85.6388590682304 12.9192103155576  85.3764263072637 12.7796071275838  Z M 34.6201043478261 12.7811995593857  C 34.3576715868593 12.9208027473596  34.0275073932482 12.8198425711139  33.8879042052744 12.5574098101471  L 31.3957484351714 7.87086178448779  C 31.2562514093177 7.60841840730902  31.3571054234433 7.27820113263786  31.6196443465302 7.13862979330008  C 31.8820771074969 6.99907968638632  32.212241301108 7.100018630208  32.3518444890818 7.36246200738677  L 34.8440002591849 12.0489994168341  C 34.9834972850386 12.3114321778008  34.882643270913 12.641702533532  34.6201043478261 12.7811995593857  Z M 90.9913408410549 16.2604507224778  C 90.7478049374717 16.0899543575455  90.687823339597 15.7499170867621  90.8583197045293 15.5063811831789  L 93.9030493099203 11.1579807425646  C 94.0736518369727 10.9144448389814  94.4136891077561 10.8544632411067  94.6572250113393 11.024959606039  C 94.9007609149226 11.1954559709713  94.9606363506771 11.5355994038748  94.7901399857448 11.7791353074581  L 91.7454103803538 16.1275357480723  C 91.5749140154215 16.3709654895354  91.2348767446381 16.4309470874101  90.9913408410549 16.2604507224778  Z M 29.0056144625154 16.2623616406402  C 28.7621847210523 16.4329641676926  28.4220412881488 16.3729825698179  28.2515449232165 16.1294466662347  L 25.2068153178254 11.7810462256204  C 25.0363189528932 11.5375103220372  25.0963005507678 11.1974730512538  25.3398364543511 11.0269766863215  C 25.5832661958142 10.8564803213892  25.9234096287177 10.9163557571438  26.09390599365 11.159891660727  L 29.138635599041 15.5082921013413  C 29.3091319639733 15.7518280049245  29.2491503660986 16.0918652757079  29.0056144625154 16.2623616406402  Z M 6.611426506836 55.0744896261258  C 6.58551233331173 55.3705757791745  6.32097756236636 55.5925607723709  6.02484894446964 55.5666572150586  L 0.736913740685544 55.1037903712823  C 0.440785122788829 55.0778868139701  0.218831978228471 54.8133308106007  0.244756767964751 54.5171384954319  C 0.27068155770103 54.2210523423832  0.535216328646407 53.9990673491868  0.831334330331109 54.0249709064991  L 6.11926953411521 54.4878377502754  C 6.41539815201192 54.5138474697078  6.63735129657228 54.7782973109571  6.611426506836 55.0744896261258  Z M 96.1362756690209 20.4044890818376  C 95.9153522970258 20.20564743083  95.8973047366034 19.8607267025206  96.0961463876109 19.6399094926456  L 99.6478001166332 15.6954559191343  C 99.8467479297609 15.4745325471393  100.19156249595 15.4564849867168  100.412485867945 15.6553266377244  C 100.63330307782 15.8542744508521  100.651456800363 16.1990890170414  100.452508987235 16.4200123890365  L 96.9008552582129 20.3644659625478  C 96.7020136072053 20.5852831724227  96.3570928788959 20.6034368949653  96.1362756690209 20.4044890818376  Z M 100.732564660144 25.1509974729476  C 100.537544845461 24.9266769131083  100.561643646731 24.5821808332793  100.78596420657 24.3871610185965  L 104.791991809758 20.9045126676602  C 105.016312369598 20.7094928529774  105.360808449427 20.7335916542474  105.555828264109 20.9579122140867  C 105.750848078792 21.182232773926  105.726749277522 21.5267288537549  105.502428717683 21.7217486684378  L 101.496401114495 25.2043970193741  C 101.272080554656 25.3994168340569  100.927584474827 25.3753180327869  100.732564660144 25.1509974729476  Z M 19.2652399403875 25.1535453638308  C 19.0702201257047 25.3778659236701  18.7257240458757 25.4019647249401  18.5014034860364 25.2069449102572  L 14.4953758828484 21.7242965593209  C 14.2710553230091 21.5292767446381  14.2469565217391 21.1847806648092  14.441976336422 20.9604601049699  C 14.6369961511048 20.7361395451306  14.9814922309337 20.7120407438606  15.205812790773 20.9070605585434  L 19.211840393961 24.3897089094797  C 19.4361609538003 24.5847287241625  19.4602597550703 24.9292248039915  19.2652399403875 25.1535453638308  Z M 104.710883949977 30.4261932223158  C 104.54463406985 30.179790941489  104.610560746452 29.840815291907  104.856963027279 29.67456541178  L 109.257807555239 26.7062725328841  C 109.504103673945 26.5400226527571  109.842760837167 26.6059493293592  110.009435365775 26.852351610186  C 110.175048273181 27.0987538910128  110.109227758699 27.4377295405948  109.862931639992 27.6039794207218  L 105.462511760513 30.5722722996177  C 105.216109479686 30.7384160176246  104.877133830104 30.6725955031426  104.710883949977 30.4261932223158  Z M 15.2870268126741 30.4290595995594  C 15.1208830946673 30.6754618803862  14.7819074450852 30.7413885569883  14.5355051642584 30.5751386768613  L 10.1350534361433 27.6068457979654  C 9.8886299228925 27.4405959178384  9.82274571113847 27.1016202682563  9.98897435884144 26.8552179874295  C 10.1552030065444 26.6088157066027  10.4941574237025 26.5428890300007  10.7406340180133 26.7091389101277  L 15.1410538974924 29.6774317890235  C 15.3874561783192 29.8436816691505  15.4532766928011 30.1826573187326  15.2870268126741 30.4290595995594  Z M 107.984923734854 36.1011955161019  C 107.854344327091 35.8339854597292  107.966876174431 35.5074307782026  108.234404717165 35.3771698568004  L 113.005330395905 33.0500961835029  C 113.272858938638 32.9197290999806  113.598776647444 33.0321547852005  113.729356055206 33.2993648415733  C 113.859935462969 33.566574897946  113.747403615629 33.8930234173524  113.479875072896 34.0233905008748  L 108.708949394155 36.3504641741722  C 108.441420851422 36.4807250955744  108.115503142616 36.3682994103544  107.984923734854 36.1011955161019  Z M 12.013305514158 36.1041680554656  C 11.8830445927558 36.3712719497182  11.5564899112292 36.4836976349381  11.2893860169766 36.3534367135359  L 6.51842848960021 34.0263630402385  C 6.25125028186354 33.8959959567161  6.13883521285557 33.5695474373097  6.26914921531782 33.302337380937  C 6.39946321778008 33.0351273245643  6.72597543445863 32.9228078014644  6.99314302598328 33.0530687228666  L 11.7640368560876 35.3801423961641  C 12.0312469124603 35.5105094796864  12.1436725976803 35.8369579990929  12.013305514158 36.1041680554656  Z M 110.563601632865 42.1856651072377  C 110.465932482343 41.9046539752478  110.617744314132 41.5942359359813  110.899073932482 41.4975222445409  L 115.917357351131 39.769202928789  C 116.198686969481 39.6723830752284  116.508680360267 39.8237702585369  116.605287889587 40.1047813905268  C 116.702957040109 40.3857925225167  116.55114520832 40.6962105617832  116.26981558997 40.7930304153438  L 111.251532171321 42.5213497310957  C 110.970202552971 42.6180634225361  110.660209162185 42.4667824013478  110.563601632865 42.1856651072377  Z M 9.43594402643686 42.1888499708417  C 9.33916663772436 42.4698611028316  9.0287910633059 42.6212482861401  8.74773746646796 42.5245345946997  L 3.72892323721895 40.7962152789477  C 3.447869640381 40.6993954253872  3.29651430570855 40.3889773861207  3.39329169442104 40.1079662541308  C 3.49007969934556 39.8269551221409  3.80045527376401 39.6755679388324  4.08150887060196 39.7722816302728  L 9.10032309985097 41.5006009460248  C 9.3813660804769 41.5974207995853  9.53273203136137 41.9078388388518  9.43594402643686 42.1888499708417  Z M 112.373665781118 48.5408481047107  C 112.31103013024 48.2500700576686  112.499998704076 47.960459793948  112.789821292037 47.8986734400311  L 117.982210587702 46.7951182012571  C 118.273094796864 46.7333318473401  118.562917384825 46.9214511242144  118.624491414501 47.2121230091363  C 118.686065444178 47.5029010561783  118.498158491544 47.7925113198989  118.207274282382 47.8542976738159  L 113.014884986717 48.9578529125899  C 112.725062398756 49.0196392665068  112.435239810795 48.8316261517527  112.373665781118 48.5408481047107  Z M 7.62580556469902 48.5441391304348  C 7.56400859457008 48.8349171774768  7.27441956327351 49.0229302922309  6.98367336486749 48.961143938314  L 1.79181487980302 47.85758869954  C 1.50106868139701 47.795802345623  1.31301310179485 47.5061920819024  1.3748100719238 47.2155201969805  C 1.43660704205274 46.9247421499385  1.72619607334932 46.7367290351844  2.01694227175533 46.7985153891013  L 7.2088007568198 47.9020706278753  C 7.49954695522582 47.9638569817923  7.68760253482797 48.2534672455129  7.62580556469902 48.5441391304348  Z M 23.8613166072701 20.4067184863604  C 23.6404993973952 20.6056662994881  23.2956848312059 20.5875125769455  23.0967370180781 20.3666953670706  L 19.5450832890559 16.4222417935593  C 19.3462416380483 16.2013184215642  19.3642891984708 15.8565038553749  19.5852125704659 15.6576622043673  C 19.8060297803408 15.4587143912396  20.1508443465302 15.476761951662  20.3497921596579 15.6976853236571  L 23.9014458886801 19.6421388971684  C 24.1002875396877 19.8630622691635  24.0822399792652 20.2078768353528  23.8613166072701 20.4067184863604  Z M 56.7270919199119 113.58616678546  C 57.0236027214411 113.607399209486  57.2501526858032 113.86749640381  57.2294510723774 114.16475034018  L 56.858945273116 119.460116892373  C 56.8381374975701 119.756309207542  56.5775094926456 119.982434523424  56.2809986911164 119.962263720599  C 55.9844878895873 119.941031296572  55.7579379252252 119.680934102248  55.778639538651 119.383680165878  L 56.1491453379123 114.088313613685  C 56.1699531134582 113.792121298516  56.4305811183827 113.565995982635  56.7270919199119 113.58616678546  Z " fill-rule="nonzero" fill="#00dad8" stroke="none" transform="matrix(1 0 0 1 200 1131 )" />
  </g>
</svg>