<?xml version="1.0" encoding="utf-8"?>
<svg version="1.1" xmlns:xlink="http://www.w3.org/1999/xlink" width="240px" height="223px" xmlns="http://www.w3.org/2000/svg">
  <g transform="matrix(1 0 0 1 -68 -441 )">
    <path d="M 62.4899858250727 218.68986532519  L 59.9899873646356 222.999862670983  C 24.1300094481269 202.339875393931  2.43079886754438E-05 163.7198991771  2.43079886754438E-05 119.49992640889  C 2.43079886754438E-05 53.4999670533524  53.7299912197013 3.73290770118E-05  119.999950408966 3.73290770118E-05  C 186.269909598231 3.73290770118E-05  239.999876509943 53.4999670533524  239.999876509943 119.49992640889  C 239.999876509943 163.7198991771  215.869891369805 202.339875393931  180.009913453297 222.999862670983  L 177.509914992859 218.68986532519  C 211.879893826948 198.879877524687  234.999879589069 161.879900310219  234.999879589069 119.49992640889  C 234.999879589069 56.2499653598332  183.509911297908 4.98003693316593  119.999950408966 4.98003693316593  C 56.4899895200238 4.98003693316593  5.00002122886273 56.2499653598332  5.00002122886273 119.49992640889  C 5.00002122886273 161.879900310219  28.1200069909844 198.879877524687  62.4899858250727 218.68986532519  Z " fill-rule="nonzero" fill="#1e87f0" stroke="none" transform="matrix(1 0 0 1 68 441 )" />
  </g>
</svg>