<?xml version="1.0" encoding="utf-8"?>
<svg version="1.1" xmlns:xlink="http://www.w3.org/1999/xlink" width="114px" height="114px" xmlns="http://www.w3.org/2000/svg">
  <g transform="matrix(1 0 0 1 -141 -1167 )">
    <path d="M 0 57  C 0 25.08  25.08 0  57 0  C 88.92 0  114 25.08  114 57  C 114 88.92  88.92 114  57 114  C 25.08 114  0 88.92  0 57  Z M 109.44 57  C 109.44 27.6336  86.3664 4.56  57 4.56  C 27.6336 4.56  4.56 27.6336  4.56 57  C 4.56 86.3664  27.6336 109.44  57 109.44  C 86.3664 109.44  109.44 86.3664  109.44 57  Z M 82.56156107521 31.4384389247899  C 83.4558986119077 32.3327764614879  83.4444916368948 33.749570994169  82.5356361319984 34.6584264990654  L 34.6584264990664 82.5356361319976  C 33.74957099417 83.444491636894  32.3327764614888 83.455898611907  31.4384389247911 82.5615610752091  C 30.5441013880931 81.6672235385111  30.5555083631059 80.2504290058299  31.4643638680023 79.3415735009336  L 79.3415735009344 31.4643638680014  C 80.2504290058308 30.555508363105  81.667223538512 30.5441013880919  82.56156107521 31.4384389247899  Z M 56.9999999996835 60.1940626313804  L 60.1940628815488 57.0000002504848  L 81.7360059158877 78.5419432848237  C 82.6453270229895 79.4512643919254  82.6570998283066 80.8684247549108  81.7627622916087 81.7627622916088  C 80.8684247549109 82.6570998283068  79.4512643919254 82.6453270229895  78.5419432848236 81.7360059158877  L 56.9999999996835 60.1940626313804  Z M 35.4580567151751 32.2639940841112  L 57.0000000003162 53.8059373686196  L 53.8059371184507 56.9999997495151  L 32.263994084111 35.4580567151753  C 31.3546729770092 34.5487356080736  31.3429001716921 33.1315752450882  32.2372377083898 32.2372377083902  C 33.1315752450878 31.3429001716922  34.5487356080733 31.3546729770095  35.4580567151751 32.2639940841112  Z " fill-rule="nonzero" fill="#e21f0c" stroke="none" transform="matrix(1 0 0 1 141 1167 )" />
  </g>
</svg>