<?xml version="1.0" encoding="utf-8"?>
<svg version="1.1" xmlns:xlink="http://www.w3.org/1999/xlink" width="40px" height="40px" xmlns="http://www.w3.org/2000/svg">
  <g transform="matrix(1 0 0 1 -24 -172 )">
    <path d="M 3.9957729468599 2.18526315789474  L 3.9957729468599 2.18947368421053  L 3.9957729468599 0.126315789473684  L 32.138768115942 0.126315789473684  C 34.5928743961353 0.252631578947368  36.6218599033816 2.25263157894737  36.9812801932367 4.90105263157895  L 39.7252415458937 21.8063157894737  C 40.0228260869565 23.5747368421053  39.5861111111111 25.3936842105263  38.5349033816425 26.7747368421053  C 37.6227679437211 27.9778089295751  36.2685866306981 28.6792529540324  34.8363526570048 28.6905263157895  L 33.2634057971014 28.6905263157895  L 34.5271739130435 35.5494736842105  C 34.5703238739011 35.7837504748353  34.5920581505473 36.0221093187736  34.5920581505473 36.2610562269831  C 34.5920581505473 38.2565916567753  33.1085814239426 39.8750810004178  31.2769323671498 39.8778947368421  L 23.1880434782609 39.8778947368421  C 21.5938685398644 39.8776138091158  20.2254964738242 38.6414655956454  19.9300724637681 36.9347368421053  L 17.7851449275362 24.64  C 17.4866833756064 22.9358491256248  16.1195896158971 21.7026224978833  14.5271739130435 21  L 3.99190821256039 21  L 3.99190821256039 19.6210526315789  L 0 19.6210526315789  L 0 2.18526315789474  L 3.9957729468599 2.18526315789474  Z M 32.0846618357488 3.73473684210527  L 28.6450483091787 3.73473684210526  L 32.6025362318841 25.12  C 32.6610043699225 25.1022580795245  32.7203619191994 25.0881997125905  32.7803140096618 25.0778947368421  L 34.8363526570048 25.0778947368421  C 35.2897532654393 25.0654634571147  35.7146042991008 24.8340314466728  35.9957729468599 24.4463157894737  C 36.4122942830021 23.8828268207169  36.581735322252 23.1490356463968  36.4595410628019 22.4378947368421  L 33.7155797101449 5.52842105263158  C 33.6116772165845 4.59492878428371  32.9404721695871 3.8567371722318  32.0846618357488 3.73473684210527  Z M 19.3774154589372 4.20631578947368  L 19.3774154589372 4.21052631578947  L 14.1175120772947 12.8  L 18.0634057971014 12.8  L 18.0634057971014 18.5347368421053  L 23.3271739130435 9.93684210526316  L 19.3774154589372 9.93684210526316  L 19.3774154589372 4.20631578947368  Z M 5 5.2421052631579  L 5 17.4947368421053  C 4.20704553126268 17.5136256819003  4.20640096618358 17.5325600459397  4.20640096618358 17.5515009211062  C 4.20640096618358 17.974725445187  4.5213156542253 18.3178167105798  4.90978260869565 18.3178167105798  C 5.29824956316601 18.3178167105798  5.61316425120773 17.974725445187  5.61316425120773 17.5515009211062  C 5.61316425120773 17.5325600459397  5.61251968612863 17.5136256819003  6 17.4947368421053  L 6 5.2421052631579  C 5.61251968612863 5.22321642336282  5.61316425120773 5.20428205932341  5.61316425120773 5.185341184157  C 5.61316425120773 4.76211666007614  5.29824956316601 4.41902539468332  4.90978260869565 4.41902539468332  C 4.5213156542253 4.41902539468332  4.20640096618358 4.76211666007614  4.20640096618358 5.185341184157  C 4.20640096618358 5.20428205932341  4.20704553126268 5.22321642336282  5 5.2421052631579  Z " fill-rule="nonzero" fill="#1e87f0" stroke="none" transform="matrix(1 0 0 1 24 172 )" />
  </g>
</svg>