<?xml version="1.0" encoding="utf-8"?>
<svg version="1.1" xmlns:xlink="http://www.w3.org/1999/xlink" width="18px" height="18px" xmlns="http://www.w3.org/2000/svg">
  <g transform="matrix(1 0 0 1 -145 -269 )">
    <path d="M 17.4375 9  C 17.4375 13.6526688532366  13.6526688532366 17.4375  9 17.4375  C 4.34733114676339 17.4375  0.5625 13.6526688532366  0.5625 9  C 0.5625 4.34733114676339  4.34733114676339 0.5625  9 0.5625  C 13.6526688532366 0.5625  17.4375 4.34733114676339  17.4375 9  Z M 16.2267324421038 9  C 16.2267324421038 5.015080546875  12.9843039111328 1.77326755789621  9 1.77326755789621  C 5.015080546875 1.77326755789621  1.77326755789621 5.01508052804129  1.77326755789621 9  C 1.77326755789621 12.9843039111328  5.01508052804129 16.2267324421038  9 16.2267324421038  C 12.9843039111328 16.2267324421038  16.2267324421038 12.984336305106  16.2267324421038 9  Z M 13.0530842829241 7.61499750209263  C 13.2874493680246 7.37758702566964  13.2850519315011 6.99610388253348  13.0488077699498 6.76225713867187  C 12.8125636083984 6.52782724679129  12.4304649044364 6.53022466448103  12.1966181605748 6.76708440569196  L 7.80309866350446 11.2088117096819  L 5.85826357700893 9.21032600725446  C 5.62561556082589 8.97106884835379  5.24413241768973 8.9668571421596  5.00607396763393 9.19827405552455  C 4.76739997558594 9.4303065297154  4.76198956054687 9.81240521484375  4.99402201590402 10.0504636648996  L 7.3673817375837 12.4894935602679  C 7.36858044642857 12.4913078299386  7.37101027692522 12.4913078299386  7.37220900460379 12.4931220996094  C 7.37340771344866 12.4943208084542  7.37402327427455 12.4967506389509  7.37522198311942 12.4979493666295  C 7.41319210797991 12.5353039306641  7.46020120605469 12.558209125279  7.50481286760603 12.5835441315569  C 7.52830121023995 12.5962116441127  7.54699469866071 12.6173025502232  7.57109860212053 12.6269246714565  C 7.64402587332589 12.6570545507812  7.72178039271763 12.6721194810268  7.79891937011719 12.6721194810268  C 7.87547518066406 12.6721194810268  7.95199859723772 12.6570545507812  8.02431030761718 12.6281233803013  C 8.04779865025111 12.6184688650949  8.06590897181919 12.5991922098214  8.08819860560826 12.5871402580915  C 8.13339341517857 12.5618376457868  8.18040251325334 12.5395156180246  8.21898819893973 12.5015454931641  C 8.22018690778459 12.5003467843192  8.22080246861049 12.4979169538225  8.22261673828125 12.496718226144  C 8.22381544712611 12.4949039564732  8.22562971679687 12.4943207896205  8.22744400530133 12.4930896868025  L 13.0530842829241 7.61499750209263  Z " fill-rule="nonzero" fill="#ffffff" stroke="none" fill-opacity="0.996078431372549" transform="matrix(1 0 0 1 145 269 )" />
  </g>
</svg>