<?xml version="1.0" encoding="utf-8"?>
<svg version="1.1" xmlns:xlink="http://www.w3.org/1999/xlink" width="50px" height="49px" xmlns="http://www.w3.org/2000/svg">
  <g transform="matrix(1 0 0 1 -165 -515 )">
    <path d="M 49.1998391544118 23.7111510416667  C 49.1999080882353 14.0045572916667  43.51328125 5.20550757575757  34.7127068014706 1.29455587121212  C 33.6072840073529 0.803303030303031  32.3164981617647 1.30986837121212  31.8298943014706 2.42614962121212  C 31.3432904411765 3.54243087121212  31.8451286764706 4.84559422348485  32.9506204044118 5.33684706439394  C 40.1644761029412 8.54272774621212  44.8258501838235 15.7550544507576  44.8258501838235 23.7112206439394  C 44.8258501838235 29.0705956439394  42.7588005514706 34.1092433712121  39.0054917279412 37.8988783143939  C 35.2521829044118 41.6885132575758  30.2619944852941 43.7756766098485  24.9540900735294 43.7756766098485  C 19.6461856617647 43.7756766098485  14.655859375 41.6885828598485  10.9026194852941 37.8988783143939  C 7.14931066176471 34.1092433712121  5.0823299632353 29.0705956439394  5.0823299632353 23.7112206439394  C 5.0823299632353 15.7095345643939  9.78079044117647 8.48078172348485  17.0521369485294 5.29508570075758  C 18.1602481617647 4.80960984848485  18.6687040441177 3.50916098484848  18.1879595588235 2.3903740530303  C 17.7071461397059 1.2715175189394  16.4189797794118 0.758061553030303  15.3110753676471 1.24353740530303  C 6.44011948529412 5.12991950757576  0.708203125000002 13.9490146780303  0.708203125000002 23.7111510416667  C 0.708203125000002 27.0151013257576  1.34956341911765 30.2213996212121  2.61443014705883 33.2408854166667  C 3.83573069852941 36.1563158143939  5.58361672794118 38.7741964962121  7.80962775735294 41.0217930871212  C 10.0356387867647 43.2693200757576  12.6283088235294 45.0341553030303  15.5158088235294 46.2672987689394  C 18.5063648897059 47.5445004734848  21.6818704044118 48.1920104166667  24.9540900735294 48.1920104166667  C 28.2262408088235 48.1920104166667  31.4018152573529 47.5444308712121  34.3923023897059 46.2672987689394  C 37.2798023897059 45.0341553030303  39.8724724264706 43.2693200757576  42.0984834558823 41.0217930871212  C 44.3244255514706 38.7741964962121  46.0723115808823 36.1563158143939  47.2936121323529 33.2408854166667  C 48.5585477941176 30.2213300189394  49.1998391544118 27.0151013257576  49.1998391544118 23.7111510416667  Z " fill-rule="nonzero" fill="#ffffff" stroke="none" transform="matrix(1 0 0 1 165 515 )" />
  </g>
</svg>