<?xml version="1.0" encoding="utf-8"?>
<svg version="1.1" xmlns:xlink="http://www.w3.org/1999/xlink" width="241px" height="44px" xmlns="http://www.w3.org/2000/svg">
  <g transform="matrix(1 0 0 1 -71 -363 )">
    <path d="M 72 366  A 2 2 0 0 1 74 364 L 309 364  A 2 2 0 0 1 311 366 L 311 404  A 2 2 0 0 1 309 406 L 74 406  A 2 2 0 0 1 72 404 L 72 366  Z " fill-rule="nonzero" fill="#ffffff" stroke="none" />
    <path d="M 71.5 366  A 2.5 2.5 0 0 1 74 363.5 L 309 363.5  A 2.5 2.5 0 0 1 311.5 366 L 311.5 404  A 2.5 2.5 0 0 1 309 406.5 L 74 406.5  A 2.5 2.5 0 0 1 71.5 404 L 71.5 366  Z " stroke-width="1" stroke="#d8d8d8" fill="none" stroke-opacity="0.968627450980392" />
  </g>
</svg>