<?xml version="1.0" encoding="utf-8"?>
<svg version="1.1" xmlns:xlink="http://www.w3.org/1999/xlink" width="20px" height="19px" xmlns="http://www.w3.org/2000/svg">
  <g transform="matrix(1 0 0 1 -62 -123 )">
    <path d="M 4.9147 0.974799999999988  L 5.00830000000001 0.948999999999984  C 6.3658 0.601900000000001  7.9891 0.9238  9.28270000000001 1.399  C 10.54066501 1.86555024699999  11.67972535 2.60484321999999  12.6181 3.56379999999999  C 13.10486392 4.06173741999999  13.54183771 4.60602048999999  13.9228 5.18889999999999  C 17.4073 10.486  18.5608 12.2518  19.6201 12.9817  C 20.6794 13.7116  16.6066 16.6306  14.5114 17.29  C 12.4162 17.9494  6.81310000000001 18.8908  6.3421 18.6553  C 5.87110000000001 18.4198  -1.45039999999999 10.1323  1.1392 4.8355  C 1.87840000000001 3.31869999999998  3.20200000000001 1.45659999999998  4.9147 0.974799999999988  Z " fill-rule="nonzero" fill="#f97700" stroke="none" transform="matrix(1 0 0 1 62 123 )" />
  </g>
</svg>