<?xml version="1.0" encoding="utf-8"?>
<svg version="1.1" xmlns:xlink="http://www.w3.org/1999/xlink" width="12px" height="12px" xmlns="http://www.w3.org/2000/svg">
  <g transform="matrix(1 0 0 1 -1548 -124 )">
    <path d="M 11.7749997773436 10.7249996718747  C 12.0749997539064 11.0249996601563  12.0749997539064 11.4749996367188  11.7749997656248 11.7749996367186  C 11.4749997773436 12.0749996249995  11.0249997890625 12.0749996249995  10.7249998007812 11.7749996367186  L 8.399999871094 9.44999970703066  C 6.37499992968765 10.9499996601567  3.60000002343747 10.8749996601564  1.72500008203133 9.14999971874977  C -0.374999847656113 7.19999977734369  -0.524999847656318 3.74999988281297  1.50000009375003 1.64999995312451  C 3.52500003515638 -0.449999976562594  6.89999992968751 -0.524999976562185  8.99999985937495 1.57499995312492  C 10.8749998007814 3.44999989453072  11.0249998007813 6.3749998007811  9.44999984765604 8.39999974218745  L 11.7749997773436 10.7249996718747  Z M 8.24999987109379 7.49999976562526  C 9.22499984765625 6.14999981250048  9.22499984765625 4.34999985937475  8.24999987109379 3.07499990624956  C 6.74999991796881 0.974999976562458  3.67500001171891 0.974999976562458  2.17500005859358 3.07499990624956  C 1.2000000937503 4.34999987109359  1.2000000937503 6.22499981250076  2.17500005859358 7.49999976562526  C 3.67500001171891 9.59999969531236  6.74999991796881 9.59999969531236  8.24999987109379 7.49999976562526  Z " fill-rule="nonzero" fill="#ffffff" stroke="none" transform="matrix(1 0 0 1 1548 124 )" />
  </g>
</svg>