<?xml version="1.0" encoding="utf-8"?>
<svg version="1.1" xmlns:xlink="http://www.w3.org/1999/xlink" width="20px" height="20px" xmlns="http://www.w3.org/2000/svg">
  <g transform="matrix(1 0 0 1 -278 -121 )">
    <path d="M 18.0275 19.2329545454545  L 18.0290476190476 19  L 1.97095238095238 19  C 1.06298266089939 19.2321392126676  0.32738055061315 18.5293123890107  0.327380952380952 17.6626136363636  L 0.327380952380952 2.33738636363636  C 0.327380952380952 1.47022727272727  1.06404761904762 0.767045454545455  1.9725 1  L 18.0275 1  C 18.9359523809524 0.767045454545455  19.6726190476191 1.47022727272727  19.6726190476191 2.33738636363636  L 19.6726190476191 4.22829545454545  C 19.6726231746532 4.22878786897062  19.6726252381951 4.22928029718409  19.6726252381951 4.22977272736728  C 19.6726252381951 4.33175712719399  19.5860136570612 4.41443181827637  19.4791728572427 4.41443181827637  L 18.125 4.41443181818182  C 18.0181592001815 4.41443181818182  17.9315476190476 4.33175712709944  17.9315476190476 4.22977272727273  L 17.9315476190476 2.42897727272727  L 2 2.42897727272727  L 2 17.5710227272727  L 17.9315476190476 17.5710227272727  L 17.9315476190476 15.76875  C 17.9315476190476 15.6653409090909  18.0182142857143 15.5840909090909  18.125 15.5840909090909  L 19.4791666666667 15.5840909090909  C 19.5859523809524 15.5840909090909  19.672619047619 15.6668181818182  19.672619047619 15.76875  L 19.672619047619 17.6640909090909  C 19.672619047619 18.5297727272727  18.9359523809524 19.2329545454545  18.0275 19.2329545454545  Z M 5.645 9.16977272727273  L 5.64809523809524 9.16829545454545  L 15.9010714285714 9.16829545454545  C 16.0295238095238 9.16829545454545  16.0929761904762 9.23034090909091  16.0929761904762 9.35295454545454  L 16.0929761904762 10.6455681818182  C 16.0929761904762 10.7696590909091  16.0295238095238 10.8317045454545  15.9010714285714 10.8317045454545  L 5.645 10.8317045454545  C 5.51654761904762 10.8317045454545  5.45154761904762 10.7696590909091  5.45154761904762 10.6455681818182  L 5.45154761904762 9.35443181818182  C 5.45154761904762 9.23034090909091  5.51654761904762 9.16977272727273  5.645 9.16977272727273  Z M 19.3481716963302 10  C 19.3481716963302 9.89283034614845  19.2994021753742 9.79094566801452  19.2145238095238 9.72079545454546  L 16.130119047619 7.16806818181818  C 16.059718971688 7.10966115671783  15.9695839830575 7.07749667264817  15.8763092264632 7.07749667264817  C 15.6626276268263 7.07749667264817  15.4894044645584 7.24284605481293  15.4894044645584 7.44681485446635  L 15.4894047619048 12.5527272727273  C 15.4894044645584 12.7571539451871  15.6626276268263 12.9225033273518  15.8763092264632 12.9225033273518  C 15.9695839830575 12.9225033273518  16.059718971688 12.8903388432822  16.130119047619 12.8319318181818  L 19.2145238095238 10.2792045454545  C 19.2994021753742 10.2090543319855  19.3481716963302 10.1071696538516  19.3481716963302 10  Z " fill-rule="nonzero" fill="#2c2c2c" stroke="none" transform="matrix(1 0 0 1 278 121 )" />
  </g>
</svg>