<?xml version="1.0" encoding="utf-8"?>
<svg version="1.1" xmlns:xlink="http://www.w3.org/1999/xlink" width="10px" height="14px" xmlns="http://www.w3.org/2000/svg">
  <g transform="matrix(1 0 0 1 -1728 -122 )">
    <path d="M 5.93752519531245 12.7987333886719  C 5.93752519531245 13.3162545410156  5.51752115234376 13.737165703125  5 13.737165703125  C 4.48247884765624 13.737165703125  4.06247480468755 13.3171616601562  4.06247480468755 12.7996908984375  L 4.06247480468755 11.2143696972656  C 4.06247480468755 9.68060408203124  5.23434350585921 8.50873538085938  6.26933544921894 7.4747009765625  C 7.02775165039066 6.71532723632814  7.81247480468755 5.93156162109375  7.81247480468755 5.30624244140625  C 7.81247480468755 3.74344845703124  6.55059804687517 2.47219795898437  5 2.47219795898437  C 3.42314541992209 2.47219795898437  2.18752519531245 3.689070703125  2.18752519531245 5.24249091796875  C 2.18752519531245 5.76001207031248  1.76752115234376 6.17996572265625  1.25 6.17996572265625  C 0.732478847656239 6.17996572265625  0.312474804687554 5.75996167968751  0.312474804687554 5.24249091796875  C 0.312474804687554 2.68124244140625  2.41526676757803 0.597197958984367  5 0.597197958984367  C 7.58473323242197 0.597197958984367  9.68752519531245 2.70936366210938  9.68752519531245 5.30624244140625  C 9.68752519531245 6.70968284179688  8.62345449218765 7.77279600585936  7.59501412109375 8.80123640624998  C 6.77939793945325 9.61498792968749  5.93752519531245 10.4568606445312  5.93752519531245 11.2134121875  L 5.93752519531245 12.7987333886719  Z " fill-rule="nonzero" fill="#8c8c8c" stroke="none" transform="matrix(1 0 0 1 1728 122 )" />
  </g>
</svg>