<?xml version="1.0" encoding="utf-8"?>
<svg version="1.1" xmlns:xlink="http://www.w3.org/1999/xlink" width="40px" height="40px" xmlns="http://www.w3.org/2000/svg">
  <g transform="matrix(1 0 0 1 -1773 -112 )">
    <path d="M 1793 112  C 1804.2 112  1813 120.8  1813 132  C 1813 143.2  1804.2 152  1793 152  C 1781.8 152  1773 143.2  1773 132  C 1773 120.8  1781.8 112  1793 112  Z " fill-rule="nonzero" fill="#8bbee6" stroke="none" />
    <path d="M 1793 112.496021798365  C 1803.92222779292 112.496021798365  1812.50397820163 121.077772207084  1812.50397820163 132  C 1812.50397820163 142.922227792916  1803.92222779292 151.503978201635  1793 151.503978201635  C 1782.07777220708 151.503978201635  1773.49602179837 142.922227792916  1773.49602179837 132  C 1773.49602179837 121.077772207084  1782.07777220708 112.496021798365  1793 112.496021798365  Z " stroke-width="0.992043596730245" stroke="#ffffff" fill="none" />
  </g>
</svg>