<?xml version="1.0" encoding="utf-8"?>
<svg version="1.1" xmlns:xlink="http://www.w3.org/1999/xlink" width="22px" height="19px" xmlns="http://www.w3.org/2000/svg">
  <g transform="matrix(1 0 0 1 -1783 -110 )">
    <path d="M 3.18366113450582 10.2688233837008  C 3.18244240772851 10.2663859301461  2.47395590785237 11.5102997275204  2.83469903393609 11.724795640327  C 2.83469903393609 11.724795640327  8.29297002724795 15.6588456774833  15.3518355214268 13.3034530592024  C 15.5463598143018 13.2380737525871  15.7314347049723 13.1473802268268  15.9022937825118 13.0337081991578  C 16.7554025266287 12.4690314590042  19.8363438196681 10.8371563041863  19.8363438196681 16.7743869209809  L 19.9017488233837 18.4456675749319  C 19.9017488233837 18.4456675749319  22.3704830319544 13.0653950953678  21.6181223680951 9.55627446123359  C 21.6181223680951 9.55627446123359  21.5884666831806 3.39114193708199  17.897349516968 3.1457716125836  C 17.4202224730968 3.11531111827942  16.9609127577392 2.95301981040354  16.5705622987367 2.6769680455784  C 16.2000693584345 2.41291057716126  15.6682982412683 2.13747832548922  15.0455288580629 2.11554124349765  C 13.9559871191479 2.07491701758732  12.6791676987862 0.623819668070349  11.1374783254892 1.09343571959376  C 10.6744773480041 1.23594467527393  10.1891393801657 1.29172273343923  9.70588060440921 1.25796383453059  C 8.60537032449839 1.17671538270993  6.69196928412187 1.19987119147882  5.46186772355709 2.11554124349765  C 4.12858062918008 3.107991082487  3.00735199405499 2.72084220956156  1.91618528610354 3.49676492444885  C 1.17357443646272 4.02487986128313  0.746207579886052 4.88936338865494  0.746207579886052 5.80015853356453  C 0.746207579886052 5.80015853356453  4.0684567748328 5.01570473123607  3.18366113450582 10.2688233837008  Z " fill-rule="nonzero" fill="#0f3651" stroke="none" transform="matrix(1 0 0 1 1783 110 )" />
  </g>
</svg>