<?xml version="1.0" encoding="utf-8"?>
<svg version="1.1" xmlns:xlink="http://www.w3.org/1999/xlink" width="40px" height="41px" xmlns="http://www.w3.org/2000/svg">
  <g transform="matrix(1 0 0 1 -1773 -112 )">
    <path d="M 27.7543522417637 38.4343423334159  C 25.3011898201677 39.4724917241198  22.6637820851551 40.0050026949255  20 40  C 8.99882851943197 39.9943755269885  0.0835986408151934 31.0745864713659  0.0835986408151934 20.0734135530104  C 0.0835986408151934 12.0686673116379  4.87359707581254 4.84093056032721  12.2456477582363 1.72182313599207  C 14.699469077992 0.685239688835437  17.3362161663891 0.151160113670684  20 0.151160113670684  C 31.005335474655 0.151160113670684  39.9269226210333 9.07274726004903  39.9269226210333 20.078082734704  C 39.9269226210333 28.0870360308991  35.132030602583 35.317742438509  27.7543522417637 38.4343423334159  Z M 27.3578597968789 2.66064899677979  C 25.0301587119807 1.67549101230667  22.5275888345677 1.17019628827291  20 1.17502105523904  C 9.56196137293045 1.1822090999049  1.10406925419827 9.64592766186634  1.10406925419827 20.083968763921  C 1.10406925419827 27.6787848163448  5.64810679332937 34.53661318933  12.6421402031211 37.4971414416646  C 14.9705011331254 38.480693577782  17.472424199983 38.9874488988709  20 38.9874488988709  C 30.4429058386269 38.9874488988709  38.9085536796487 30.5218010578491  38.9085536796487 20.0788952192222  C 38.9085536796487 12.4791600361056  34.3586098747316 5.61792362064293  27.3578597968789 2.66064899677979  Z " fill-rule="nonzero" fill="#ffffff" stroke="none" transform="matrix(1 0 0 1 1773 112 )" />
  </g>
</svg>