<?xml version="1.0" encoding="utf-8"?>
<svg version="1.1" xmlns:xlink="http://www.w3.org/1999/xlink" width="22px" height="18px" xmlns="http://www.w3.org/2000/svg">
  <g transform="matrix(1 0 0 1 -1782 -120 )">
    <path d="M 3.87085459499629 1.55133019568987  C 3.87085459499628 1.55173643794897  1.51018082734704 3.35220213029477  0.42998266039138 4.79233093881595  C 0.42998266039138 4.79233093881595  1.27009165221699 14.5149269259351  6.0312509289076 16.5550755511518  C 6.0312509289076 16.5550755511518  8.39192469655685 17.71570968541  10.7123804805549 17.5556502353233  C 10.7123804805549 17.5556502353233  14.2332821402031 17.3955907852366  16.4737081991578 15.9550557344563  C 16.4737081991578 15.9550557344563  20.143700767897 13.7450978449344  21.3522714887293 5.69946990339361  C 21.3522714887293 5.69946990339361  20.9781223680951 0.856655932623234  18.0820213029477 0.640941293039385  C 18.0820213029477 0.640941293039385  16.4009908347783 2.99227148872925  11.8799207332177 3.11211295516472  L 10.1119544216002 3.75235075551152  L 9.24543968293287 3.11211295516472  L 7.37916274461234 2.55231112212039  C 7.37916274461234 2.55231112212039  4.54806044092148 0.138013376269507  4.46803071587813 1.61795392618281  C 4.46803071587813 1.61795392618281  3.0705573445628 1.91126083725539  3.87085459499629 1.55133019568987  Z " fill-rule="nonzero" fill="#f4d5c1" stroke="none" transform="matrix(1 0 0 1 1782 120 )" />
  </g>
</svg>