<?xml version="1.0" encoding="utf-8"?>
<svg version="1.1" xmlns:xlink="http://www.w3.org/1999/xlink" width="13px" height="12px" xmlns="http://www.w3.org/2000/svg">
  <g transform="matrix(1 0 0 1 -1786 -139 )">
    <path d="M 1.85534803071588 1.67152836264553  C 1.63150854594996 2.36620262571216  0.44609363388655 10.4276740153579  0.544404260589548 10.8042605895467  C 0.547571490428185 10.8152774757576  0.552510993841903 10.8257053162977  0.559028981917265 10.8351350012385  C 4.40064368062024 12.2482327056717  8.59721542379024 12.3758249097053  12.5175823631409 11.198721823136  C 10.712648005945 10.581233589299  7.03899925687391 9.17847906861531  5.22959623482784 7.44788704483528  C 2.77589298984394 5.10061927173643  2.04668813475353 1.74912063413425  2.04668813475353 1.74912063413425  L 2.02921971761208 1.63334159028981  C 2.0072098874803 1.28034598804358  2.07382300920756 0.927450058054543  2.22299727520436 0.606767401535791  C 2.01093881595244 0.987416398315577  1.95243993064156 1.36928412187267  1.85534803071588 1.67152836264553  Z " fill-rule="nonzero" fill="#1c1c84" stroke="none" transform="matrix(1 0 0 1 1786 139 )" />
  </g>
</svg>