<?xml version="1.0" encoding="utf-8"?>
<svg version="1.1" xmlns:xlink="http://www.w3.org/1999/xlink" width="8px" height="12px" xmlns="http://www.w3.org/2000/svg">
  <g transform="matrix(1 0 0 1 -1783 -138 )">
    <path d="M 3.55902898191727 11.836759970275  C 3.55234846381796 11.8268334022584  3.5474031778708 11.8158438779314  3.54440426058955 11.8042605895467  C 3.44609363388655 11.4276740153579  4.63150854594996 3.36620262571216  4.85534803071588 2.67152836264553  C 4.95243993064157 2.36928412187268  5.01093881595244 1.98741639831558  5.22299727520436 1.60676740153579  C 5.45658657418875 1.09287094377013  5.95829576418132 0.5099133019569  7.02508793658657 0.182482041119648  C 6.6826257121625 0.247887044835277  6.17197919246966 0.385603170671295  5.41799355957394 0.653723061679468  C 5.41799355957394 0.653723061679468  3.27344067376765 1.359772108001  3.10850631657171 3.06273965816201  L 0.690146148129799 10.488035670052  C 1.60673996436788 11.0176231032669  2.56644904964942 11.4688032453137  3.55902898191727 11.836759970275  Z " fill-rule="nonzero" fill="#7777e0" stroke="none" transform="matrix(1 0 0 1 1783 138 )" />
  </g>
</svg>