<?xml version="1.0" encoding="utf-8"?>
<svg version="1.1" xmlns:xlink="http://www.w3.org/1999/xlink" width="40px" height="40px" xmlns="http://www.w3.org/2000/svg">
  <g transform="matrix(1 0 0 1 -1653 -111 )">
    <path d="M 26.6917040736607 14.6401574358259  C 26.6917040736607 15.381680343192  26.0941662248884 15.9792181501116  25.3526433175223 16  L 14.6401574358259 16  C 13.8986345703125 15.9792181501116  13.3010966796875 15.3816803013393  13.3010966796875 14.6401573939732  C 13.3010966796875 13.8986344866071  13.8986345284598 13.3010966378348  14.6401574358259 14  L 25.3526433175223 14  C 26.0941661830357 13.3010966796875  26.6917040736607 13.8986345284598  26.6917040736607 14.6401574358259  Z M 24.1503683733259 19.9964003766741  C 24.1503683733259 20.7379232840402  23.5528305245536 21.3354611328125  22.8113076171875 21.3354611328125  L 14.6401574358259 21.3354611328125  C 13.8986345703125 21.3354611328125  13.3010966796875 20.7379232840402  13.3010966796875 19.9964003766741  C 13.3010966796875 19.254877469308  13.9058337751116 18.6573396205357  14.6401574358259 18.6573396205357  L 22.8113076171875 18.6573396205357  C 23.5528304827009 18.6573396205357  24.1503683733259 19.254877469308  24.1503683733259 19.9964003766741  Z M 20.4139570172991 33.3798085239955  C 30.6008975167411 33.22862421875  38.8440402064732 26.0941662248884  38.8440402064732 17.31827890625  C 38.8440402064732 8.4560005859375  30.435314718192 1.24955004185268  20.0971898716518 1.24955004185268  C 9.75906502511162 1.24955004185268  1.34314033203125 8.4560005859375  1.34314033203125 17.31827890625  C 1.34314033203125 22.1921720284598  3.97806628069196 26.7780950753348  8.57838786272321 29.9025701311384  C 9.19032420479911 30.320126688058  10.0254373604911 30.1617431780134  10.4357947126116 29.5498068359375  C 10.8533512695312 28.9378704938616  10.6949677594866 28.1027573381696  10.0830314174107 27.6923999860491  C 6.23143198939732 25.0790717773437  4.02126184430803 21.2994648577009  4.02126184430803 17.3254781529018  C 4.02126184430803 9.93904635881696  11.2277123883929 3.93487075892857  20.0899907087054 3.93487075892857  C 28.9522690290179 3.93487075892857  36.1587195731027 9.94624556361607  36.1587195731027 17.3254781529018  C 36.1587195731027 24.7047107421875  28.9522690290179 30.716085546875  20.0899907087054 30.716085546875  C 20.0035997070313 30.716085546875  19.9388064453125 30.7448825334821  19.8596146484375 30.7664803152902  C 19.2260805245536 30.6512922851563  18.5853471540179 30.9824578404018  18.3621703822545 31.6087927176339  C 18.1029973353795 32.3359170898437  16.418372530692 33.5597898158482  14.424179952567 34.6972714983259  C 15.1513043247768 32.2639245814732  14.8057402762277 31.7383792410714  14.568164969308 31.3928151506696  C 14.2873941824777 30.97525859375  13.8194428571429 30.7232847935268  13.3154952566964 30.7232847935268  C 12.573972391183 30.7232847935268  11.976434500558 31.3208226422991  11.976434500558 32.0623455496652  C 11.976434500558 32.3071201032366  12.0412277622768 32.530296875  12.1564157924107 32.731875906808  C 12.0196300223214 33.4949965541295  11.4364906668527 35.2804108537946  10.7741595563616 36.9074416434152  C 10.5653812779018 37.4113892438616  10.6877685546875 37.9945285993304  11.0837273716518 38.3760889229911  C 11.335701171875 38.6208634765625  11.6740659737723 38.75045  12.0124307756696 38.75045  C 12.1924120675223 38.75045  12.3795926060268 38.7144537248884  12.5595738560268 38.6352619698661  C 14.085815108817 37.951333077567  18.7365314592634 35.7411629743304  20.4139570172991 33.3798085239955  Z " fill-rule="nonzero" fill="#8c8c8c" stroke="none" transform="matrix(1 0 0 1 1653 111 )" />
  </g>
</svg>