<?xml version="1.0" encoding="utf-8"?>
<svg version="1.1" xmlns:xlink="http://www.w3.org/1999/xlink" width="20px" height="20px" xmlns="http://www.w3.org/2000/svg">
  <defs>
    <mask fill="white" id="clip1622">
      <path d="M 39 206  C 37.89 206  37 205.11  37 204  L 37 188  C 37 186.89  37.89 186  39 186  L 55 186  C 56.11 186  57 186.89  57 188  L 57 204  C 57 205.11  56.11 206  55 206  " fill-rule="evenodd" />
    </mask>
  </defs>
  <g transform="matrix(1 0 0 1 -37 -186 )">
    <path d="M 37 186  L 57 186  L 57 206  L 37 206  L 37 186  " fill-rule="nonzero" fill="#cccccc" stroke="none" mask="url(#clip1622)" />
    <path d="M 38 187  L 56 187  L 56 205  L 38 205  L 38 187  " fill-rule="nonzero" fill="#ffffff" stroke="none" mask="url(#clip1622)" />
    <path d="M 48.9 192  C 48.06 192  47.4 191.34  47.4 190.5  C 47.4 189.66  48.06 189  48.9 189  C 49.74 189  50.4 189.66  50.4 190.5  C 50.4 191.34  49.74 192  48.9 192  " fill-rule="nonzero" fill="#cccccc" stroke="none" mask="url(#clip1622)" />
    <path d="M 39 205  L 39 195.65  L 43.25 191.4  L 49.2 194.8  L 52.6 193.95  L 56 194.8  L 56 205  L 39 205  " fill-rule="nonzero" fill="#169bd5" stroke="none" mask="url(#clip1622)" />
  </g>
</svg>