<?xml version="1.0" encoding="utf-8"?>
<svg version="1.1" xmlns:xlink="http://www.w3.org/1999/xlink" width="7px" height="12px" xmlns="http://www.w3.org/2000/svg">
  <g transform="matrix(1 0 0 1 -316 -185 )">
    <path d="M 6.12276162423483 6.45842204975328  C 6.16081390031079 6.41447103207234  6.18095921223959 6.36067945620893  6.20692910870119 6.31036256681741  C 6.2141015122443 6.29505795641444  6.22572658762799 6.28224664884874  6.23200846239956 6.26643808593748  C 6.35514281741152 5.98419143708884  6.31482809987207 5.63881659128288  6.09679174176491 5.41182036389806  L 1.15425696357585 0.260029780016436  C 0.88471405107822 -0.0207315018504102  0.45983314373179 -0.00741622635687885  0.204610972622068 0.289153618421129  C -0.0501538942571958 0.5862009097451  -0.0385047531753205 1.05443701171872  0.23103815932249 1.3357022615131  L 4.66584834098609 5.95904625308387  L 0.248487805247117 10.6509824629934  C -0.0183594412462943 10.9346879574424  -0.0264223875526252 11.4029505807976  0.23103815932249 11.6975311060855  C 0.362668685181423 11.8485082648026  0.53863334789604 11.9240233655428  0.714598010610877 11.9240233655428  C 0.882499741011012 11.9240233655428  1.05040145741952 11.8549537006579  1.18068415027645 11.7167878495065  L 6.07845155307711 6.51465387027136  C 6.0878623323854 6.50428280736014  6.09142446146302 6.48998613281255  6.10083524077131 6.47913763877471  C 6.10800764431425 6.47173732524672  6.11561328638985 6.46629980982734  6.12276162423483 6.45842204975328  Z " fill-rule="nonzero" fill="#d8d8d8" stroke="none" transform="matrix(1 0 0 1 316 185 )" />
  </g>
</svg>