<?xml version="1.0" encoding="utf-8"?>
<svg version="1.1" xmlns:xlink="http://www.w3.org/1999/xlink" width="12px" height="4px" xmlns="http://www.w3.org/2000/svg">
  <g transform="matrix(1 0 0 1 -409 -473 )">
    <path d="M 11.8727678571428 0.57954545454545  C 11.9575892857143 0.72348484848485  12 0.893939393939399  12 1.0909090909091  L 12 2.54545454545455  C 12 2.74242424242425  11.9575892857143 2.9128787878788  11.8727678571428 3.05681818181818  C 11.7879464285714 3.20075757575758  11.6875 3.27272727272727  11.5714285714286 3.27272727272727  L 0.428571428571436 3.27272727272727  C 0.312499999999991 3.27272727272727  0.212053571428581 3.20075757575758  0.127232142857154 3.05681818181818  C 0.0424107142857268 2.9128787878788  0 2.74242424242425  0 2.54545454545455  L 0 1.0909090909091  C 0 0.893939393939399  0.0424107142857268 0.72348484848485  0.127232142857154 0.57954545454545  C 0.212053571428581 0.435606060606051  0.312499999999991 0.363636363636374  0.428571428571436 0.363636363636374  L 11.5714285714286 0.363636363636374  C 11.6875 0.363636363636374  11.7879464285714 0.435606060606051  11.8727678571428 0.57954545454545  Z " fill-rule="nonzero" fill="#1e87f0" stroke="none" transform="matrix(1 0 0 1 409 473 )" />
  </g>
</svg>