<?xml version="1.0" encoding="utf-8"?>
<svg version="1.1" xmlns:xlink="http://www.w3.org/1999/xlink" width="12px" height="4px" xmlns="http://www.w3.org/2000/svg">
  <g transform="matrix(1 0 0 1 -409 -477 )">
    <path d="M 11.8727678571428 0.943181818181824  C 11.9575892857143 1.0871212121212  12 1.25757575757575  12 1.45454545454545  L 12 2.9090909090909  C 12 3.1060606060606  11.9575892857143 3.27651515151515  11.8727678571428 3.42045454545455  C 11.7879464285714 3.56439393939395  11.6875 3.63636363636365  11.5714285714286 3.63636363636365  L 8.78830260648442 3.63636363636365  L 0.428571428571436 3.63636363636365  C 0.312499999999991 3.63636363636365  0.212053571428581 3.56439393939395  0.127232142857154 3.42045454545455  C 0.0424107142857268 3.27651515151515  0 3.1060606060606  0 2.9090909090909  L 0 1.45454545454545  C 0 1.25757575757575  0.0424107142857268 1.0871212121212  0.127232142857154 0.943181818181824  C 0.212053571428581 0.799242424242425  0.312499999999991 0.727272727272725  0.428571428571436 0.727272727272725  L 11.5714285714286 0.727272727272725  C 11.6875 0.727272727272725  11.7879464285714 0.799242424242425  11.8727678571428 0.943181818181824  Z " fill-rule="nonzero" fill="#1e87f0" stroke="none" transform="matrix(1 0 0 1 409 477 )" />
  </g>
</svg>