<?xml version="1.0" encoding="utf-8"?>
<svg version="1.1" xmlns:xlink="http://www.w3.org/1999/xlink" width="12px" height="3px" xmlns="http://www.w3.org/2000/svg">
  <g transform="matrix(1 0 0 1 -409 -469 )">
    <path d="M 11.8727678571428 0.20241477272728  C 11.9575892857143 0.337357954545446  12 0.497159090909086  12 0.68181818181818  L 12 2.04545454545454  C 12 2.23011363636363  11.9575892857143 2.38991477272727  11.8727678571428 2.52485795454546  C 11.7879464285714 2.65980113636363  11.6875 2.72727272727272  11.5714285714286 2.72727272727272  L 0.428571428571436 2.72727272727272  C 0.312499999999991 2.72727272727272  0.212053571428581 2.65980113636363  0.127232142857154 2.52485795454546  C 0.0424107142857268 2.38991477272727  0 2.23011363636363  0 2.04545454545454  L 0 0.68181818181818  C 0 0.497159090909086  0.0424107142857268 0.337357954545446  0.127232142857154 0.20241477272728  C 0.212053571428581 0.0674715909090935  0.312499999999991 0  0.428571428571436 0  L 11.5714285714286 0  C 11.6875 0  11.7879464285714 0.0674715909090935  11.8727678571428 0.20241477272728  Z " fill-rule="nonzero" fill="#1e87f0" stroke="none" transform="matrix(1 0 0 1 409 469 )" />
  </g>
</svg>