<?xml version="1.0" encoding="utf-8"?>
<svg version="1.1" xmlns:xlink="http://www.w3.org/1999/xlink" width="14px" height="10px" xmlns="http://www.w3.org/2000/svg">
  <g transform="matrix(1 0 0 1 -757 -1528 )">
    <path d="M 13.3047977734375 1.84555166992186  C 13.6693656835937 1.476246484375  13.6656363378906 0.882828261718714  13.2981454199219 0.519066660156341  C 12.9306545019531 0.15439793945302  12.3362787402343 0.158127255859426  11.9725171386719 0.526575742187561  L 5.13815347656259 7.43592932617184  L 2.11285445312501 4.3271737890625  C 1.75095753906248 3.95499598632819  1.1575393164062 3.94844444335945  0.787226171875091 4.30842630859365  C 0.415955517578141 4.66936571289057  0.407539316406201 5.26374144531246  0.768478691406244 5.6340545898438  L 4.46037159179696 9.42810109375  C 4.46223624999993 9.43092329101569  4.4660159863281 9.43092329101569  4.46788067382818 9.43374548828115  C 4.46974533203115 9.43561014648435  4.47070287109364 9.43938988281252  4.47256752929684 9.44125457031259  C 4.53163216796884 9.49936166992188  4.60475743164056 9.53499197265614  4.67415334960947 9.57440198242193  C 4.71069077148445 9.59410700195303  4.73976953124998 9.62691507812497  4.77726449218744 9.64188282226564  C 4.89070691406255 9.68875152343753  5.01165838867178 9.71218585937504  5.13165235351562 9.71218585937504  C 5.25073916992187 9.71218585937504  5.36977559570323 9.68875152343753  5.48226047851563 9.64374748046885  C 5.51879790039061 9.62872934570305  5.54696951171877 9.59874343749993  5.58164227539055 9.57999595703131  C 5.65194531249995 9.54063633789065  5.7250705761719 9.50591318359375  5.78509275390616 9.44684854492198  C 5.78695741210936 9.44498388671877  5.78791495117184 9.4412041503906  5.79073714843753 9.43933946289053  C 5.7926018066405 9.43651726562507  5.79542400390619 9.43561011718748  5.79824623046875 9.43369506835938  L 13.3047977734375 1.84555166992186  Z " fill-rule="nonzero" fill="#ffffff" stroke="none" transform="matrix(1 0 0 1 757 1528 )" />
  </g>
</svg>