<?xml version="1.0" encoding="utf-8"?>
<svg version="1.1" xmlns:xlink="http://www.w3.org/1999/xlink" width="20px" height="20px" xmlns="http://www.w3.org/2000/svg">
  <g transform="matrix(1 0 0 1 -424 -1636 )">
    <path d="M 434 1636  C 439.6 1636  444 1640.4  444 1646  C 444 1651.6  439.6 1656  434 1656  C 428.4 1656  424 1651.6  424 1646  C 424 1640.4  428.4 1636  434 1636  Z " fill-rule="nonzero" fill="#ffffff" stroke="none" />
    <path d="M 434 1636.5  C 439.32 1636.5  443.5 1640.68  443.5 1646  C 443.5 1651.32  439.32 1655.5  434 1655.5  C 428.68 1655.5  424.5 1651.32  424.5 1646  C 424.5 1640.68  428.68 1636.5  434 1636.5  Z " stroke-width="1" stroke="#d8d8d8" fill="none" />
  </g>
</svg>