<?xml version="1.0" encoding="utf-8"?>
<svg version="1.1" xmlns:xlink="http://www.w3.org/1999/xlink" width="26px" height="18px" xmlns="http://www.w3.org/2000/svg">
  <g transform="matrix(1 0 0 1 -1957 -3708 )">
    <path d="M 24.7089101506696 3.32199300585935  C 25.3859648409597 2.65724367187499  25.3790389132255 1.58909087109369  24.6965557798549 0.934319988281413  C 24.0140726464843 0.277916291015436  22.9102319461495 0.284629060546968  22.234674686105 0.947836335937609  L 9.54228502790196 13.3846727871093  L 3.92387255580359 7.7889128203125  C 3.25177828683033 7.11899277539073  2.1497158733258 7.10719999804701  1.46199146205374 7.75516735546857  C 0.772488818359404 8.40485828320302  0.756858730468658 9.47473460156243  1.4271747126116 10.1412982617188  L 8.28354724190863 16.97058196875  C 8.2870101785713 16.9756619238282  8.29402968889505 16.9756619238282  8.29749267996661 16.9807418789061  C 8.30095561662928 16.9840982636718  8.30273390345961 16.9909017890625  8.3061968401227 16.9942582265627  C 8.41588831194213 17.0988510058594  8.55169237304676 17.1629855507811  8.68057050641758 17.2339235683595  C 8.74842571847112 17.2693926035155  8.80242912946424 17.3284471406249  8.87206262834811 17.3553890800782  C 9.08274141183045 17.4397527421876  9.30736557896187 17.4819345468751  9.53021151367186 17.4819345468751  C 9.75137274414062 17.4819345468751  9.97244039202029 17.4397527421876  10.1813408886719 17.3587454648439  C 10.2491961007254 17.3317128222655  10.3015148074777 17.2777381874999  10.3659070828682 17.2439927226564  C 10.4964698660713 17.1731454082032  10.6322739271764 17.1106437304687  10.7437436858257 17.0043273808596  C 10.7472066224888 17.0009709960938  10.7489849093191 16.9941674707031  10.7542261328126 16.990811033203  C 10.7576890694752 16.9857310781251  10.7629302929686 16.9840982109375  10.7681715708705 16.9806511230469  L 24.7089101506696 3.32199300585935  Z " fill-rule="nonzero" fill="#1e87f0" stroke="none" transform="matrix(1 0 0 1 1957 3708 )" />
  </g>
</svg>