<?xml version="1.0" encoding="utf-8"?>
<svg version="1.1" xmlns:xlink="http://www.w3.org/1999/xlink" width="29px" height="25px" xmlns="http://www.w3.org/2000/svg">
  <g transform="matrix(1 0 0 1 -2130 -4748 )">
    <path d="M 14.9705741271802 24.2805769425676  C 14.8713885948401 24.3421244193412  14.7593276315407 24.3727522909628  14.6472343277616 24.3727522909628  C 14.534558737282 24.3727522909628  14.4221742743459 24.3418327174831  14.3229886787791 24.2799935705237  C 13.7961663433866 23.9512542863176  1.41349573364826 16.144287964527  0.527974800872092 8.41235182643581  C 0.267556012718022 6.13875818201013  1.01911493350291 4.09754754011824  2.76165626925872 2.3451788745777  C 3.96152369258721 0.990292092483106  5.6692886119186 0.244235736908781  7.57244851308139 0.244235736908781  C 10.026078721657 0.244235736908781  12.5726185759448 1.49284862753378  14.6472019556686 3.69287053420608  C 16.7217853353924 1.49284862753378  19.2683252212936 0.244235736908781  21.7216642707122 0.244235736908781  C 23.624533012718 0.244235736908781  25.3322979320494 0.990292060810809  26.5318741962209 2.3451788745777  C 28.2860939542151 4.10928009923986  29.0418583702762 6.16160755912162  28.7778487140262 8.44537808277027  C 27.8833668128634 16.1812034522804  15.4973641537064 23.9533285684122  14.9705741271802 24.2805769425676  Z M 14.1806479851017 5.01204100506757  C 12.262509984375 2.76366272170608  9.85381413771802 1.47392094594595  7.57248088517442 1.47392094594595  C 6.01993202725291 1.47392094594595  4.6336953346657 2.07737126266892  3.66936944149709 3.17316886613176  C 3.66099075981105 3.18276237331081  3.6519974193314 3.19209657939189  3.64300404723837 3.20107428209459  C 2.14829725944768 4.69856710304054  1.52827411918605 6.35759361275338  1.74764054106105 8.27211180320946  C 2.49111190770349 14.7637969172297  12.6880439607558 21.7418658044764  14.6478489865552 23.0271349134291  C 16.6094332761628 21.7457874366554  26.8093738789971 14.792933910473  27.5585388771802 8.30306377744932  C 27.7808815399709 6.37895211148648  27.156685181686 4.71000799197635  25.6505911624273 3.20110668285473  C 25.6413066627907 3.19209657939189  25.632604481468 3.18279477407094  25.6242257681686 3.17287716427365  C 24.6602233746366 2.07737126266892  23.274277809593 1.47392094594594  21.7216966111919 1.47392094594594  C 19.4406545178052 1.47392094594594  17.0319586711483 2.76366272170608  15.1138206704215 5.01204100506757  C 14.997263052689 5.14865109797297  14.8267453604651 5.22731127533784  14.6472343277616 5.22731127533784  C 14.4677232950581 5.22731127533784  14.297237943314 5.14865109797297  14.1806479851017 5.01204100506757  Z " fill-rule="nonzero" fill="#ff0000" stroke="none" transform="matrix(1 0 0 1 2130 4748 )" />
  </g>
</svg>