<?xml version="1.0" encoding="utf-8"?>
<svg version="1.1" xmlns:xlink="http://www.w3.org/1999/xlink" width="16px" height="5px" xmlns="http://www.w3.org/2000/svg">
  <g transform="matrix(1 0 0 1 -2137 -4795 )">
    <path d="M 0.320000000000001 2.58  C 0.320000000000001 3.77293505963451  1.35153593638985 4.74  2.624 4.74  C 3.89646406361015 4.74  4.928 3.77293505963451  4.928 2.58  C 4.928 1.38706494036549  3.89646406361015 0.419999999999999  2.624 0.419999999999999  C 1.35153593638985 0.419999999999999  0.320000000000001 1.38706494036549  0.320000000000001 2.58  Z M 13.376 0.420000064373015  C 12.103535963205 0.420000064373015  11.0720000379224 1.38706496550471  11.072 2.58  C 11.072 3.77293505963451  12.1035359363899 4.74  13.376 4.74  C 14.6484640636101 4.74  15.68 3.77293505963451  15.68 2.58  C 15.68 1.3870650047385  14.6484640636101 0.420000064373015  13.376 0.420000064373015  Z " fill-rule="nonzero" fill="#873a18" stroke="none" transform="matrix(1 0 0 1 2137 4795 )" />
  </g>
</svg>