<?xml version="1.0" encoding="utf-8"?>
<svg version="1.1" xmlns:xlink="http://www.w3.org/1999/xlink" width="17px" height="8px" xmlns="http://www.w3.org/2000/svg">
  <g transform="matrix(1 0 0 1 -2136 -4795 )">
    <path d="M 10.9 7.14  C 10.9 7.548  10.588 7.86  10.18 7.86  L 6.82 7.86  C 6.81562654181889 7.86008118454748  6.81125242437511 7.86012177944337  6.80687821274413 7.86012177944337  C 6.41641289892848 7.86012177944337  6.09987822055663 7.54358710107151  6.09987822055663 7.15312178725587  C 6.09987822055663 7.14874757562481  6.09991881545252 7.14437345818117  6.1 7.14  C 6.1 6.732  6.412 6.42  6.82 6.42  L 10.18 6.42  C 10.588 6.42  10.9 6.732  10.9 7.14  Z M 6.1 1.14  C 6.1 1.548  5.788 1.86  5.38 1.86  L 1.06 1.86  C 1.05562654181885 1.86008118454748  1.05125242437516 1.86012177944337  1.04687821274413 1.86012177944337  C 0.656412898928484 1.86012177944337  0.33987822055663 1.54358710107151  0.33987822055663 1.15312178725587  C 0.33987822055663 1.14874757562484  0.339918815452519 1.14437345818115  0.34 1.14  C 0.34 0.731999999999999  0.652 0.419999999999999  1.06 0.419999999999999  L 5.38 0.419999999999999  C 5.788 0.419999999999999  6.1 0.731999999999999  6.1 1.14  Z M 16.66 1.14  C 16.66 1.548  16.348 1.86  15.94 1.86  L 11.62 1.86  C 11.6156265418188 1.86008118454748  11.6112524243752 1.86012177944337  11.6068782127441 1.86012177944337  C 11.2164128989285 1.86012177944337  10.8998782205566 1.54358710107151  10.8998782205566 1.15312178725587  C 10.8998782205566 1.14874757562491  10.8999188154525 1.14437345818108  10.9 1.14  C 10.9 0.731999999999999  11.212 0.419999999999999  11.62 0.419999999999999  L 15.94 0.419999999999999  C 16.348 0.419999999999999  16.66 0.731999999999999  16.66 1.14  Z " fill-rule="nonzero" fill="#873a18" stroke="none" transform="matrix(1 0 0 1 2136 4795 )" />
  </g>
</svg>