<?xml version="1.0" encoding="utf-8"?>
<svg version="1.1" xmlns:xlink="http://www.w3.org/1999/xlink" width="24px" height="25px" xmlns="http://www.w3.org/2000/svg">
  <g transform="matrix(1 0 0 1 -2132 -4826 )">
    <path d="M 22.2857527173913 15.1865966796875  C 22.3328804347826 15.1067138671875  26.8737961956522 7.1822265625  19.952625 2.0913330078125  C 19.8316875 2.00654296875  16.9410244565217 0.0173583984375  12.7548016304348 0.0173583984375  C 10.3262201086957 0.0173583984375  7.96271739130435 0.6903076171875  5.76167934782609 1.9978759765625  C 5.60664945652174 2.0789794921875  2.00342119565218 4.0341064453125  3.13460869565218 9.4419677734375  C 3.14267934782609 10.141552734375  3.05769293478261 10.917919921875  2.9466847826087 11.156884765625  L 0.430622282608696 14.1099365234375  C 0.378861141391043 14.1704967558076  0.338143502161507 14.2396519327149  0.310320652173913 14.3142578125  C 0.264415760869565 14.431884765625  0.0585163043478263 15.0472900390625  0.408929347826087 15.6013671875  C 0.567701086956522 15.85458984375  0.894538043478261 16.1666259765625  1.542 16.2341064453125  L 2.72469293478261 16.4774169921875  C 2.92002717391304 16.914501953125  3.19105434782609 17.6245849609375  3.22639402173913 18.15888671875  C 3.27848641304348 18.92412109375  3.12345652173913 19.8805908203125  3.084375 20.11279296875  C 2.82141847826087 20.859423828125  2.66761141304348 22.2325927734375  3.66176902173913 22.96806640625  C 3.71238429959082 23.0057453468005  3.76815012759537 23.0359846951026  3.82736413043478 23.057861328125  C 3.82858695652174 23.05908203125  3.82858695652174 23.05908203125  3.82983423913043 23.05908203125  C 4.02766304347826 23.1618408203125  4.49280163043478 23.402685546875  5.64695380434783 23.402685546875  C 6.53382065217391 23.402685546875  7.68176086956522 23.26337890625  9.06663586956522 22.986669921875  C 9.1795027173913 23.3141357421875  9.33453260869565 23.9252197265625  9.46415217391304 24.9826416015625  L 10.8738260869565 24.9826416015625  C 10.6096222826087 22.659765625  10.1792119565217 21.9180908203125  9.92867934782609 21.6846923828125  C 9.76122554347826 21.5274169921875  9.52739673913043 21.46181640625  9.30291032608696 21.5107177734375  C 7.77604076086956 21.8382080078125  6.54619565217391 22.0053955078125  5.64695380434783 22.0053955078125  C 4.83453260869565 22.0053955078125  4.57282336956522 21.8697998046875  4.47482608695652 21.8190185546875  C 4.46723827427886 21.8151878148857  4.45959058979359 21.8114764186081  4.45188586956522 21.8078857421875  C 4.148625 21.5070068359375  4.34523097826087 20.7374755859375  4.41776902173913 20.5424560546875  C 4.43141576086957 20.5040771484375  4.44320380434783 20.4650634765625  4.44939130434783 20.425439453125  C 4.45682608695652 20.38642578125  4.59016304347826 19.67880859375  4.62738586956522 18.883837890625  L 6.06868206521739 18.9080078125  L 6.08047010869565 18.9080078125  C 6.46250543478261 18.9080078125  6.77383695652174 18.6021484375  6.7812472826087 18.22080078125  C 6.78621195652174 17.8350830078125  6.47923369565218 17.51689453125  6.09286956521739 17.5107177734375  L 4.53992934782609 17.4852783203125  C 4.34273641304348 16.560986328125  3.89185597826087 15.662060546875  3.83105706521739 15.5444091796875  C 3.73308423913044 15.3555908203125  3.55633695652174 15.2206298828125  3.34855434782609 15.177880859375  L 1.78756793478261 14.857177734375  C 1.76088586956522 14.850390625  1.73236956521739 14.8466796875  1.70446467391304 14.844189453125  C 1.68338315217391 14.84296875  1.66416032608696 14.84052734375  1.64865489130435 14.8380126953125  L 4.05803804347826 12.009326171875  C 4.08222554347826 11.98271484375  4.10269565217391 11.95361328125  4.12191847826087 11.923291015625  C 4.53804619565217 11.2484619140625  4.542375 9.7824462890625  4.53310597826087 9.3490478515625  C 4.53190115787663 9.3047519452  4.52691846938824 9.26063900731699  4.51821195652174 9.2171875  C 3.5730652173913 4.830224609375  6.29874456521739 3.29609375  6.44325815217391 3.21748046875  C 8.45823097826087 2.02197265625  10.5817173913043 1.4158935546875  12.7548016304348 1.4158935546875  C 16.4814864130435 1.4158935546875  19.1234266304348 3.2187255859375  19.1358260869565 3.2261474609375  C 24.9164918478261 7.478759765625  21.3728152173913 13.96572265625  21.0906358695652 14.459130859375  C 19.6759972826087 16.5052734375  18.9820190217391 19.5710693359375  18.9528668478261 19.701708984375  C 18.9454038720165 19.7376349509601  18.9404436224781 19.774033976874  18.9380217391304 19.81064453125  C 18.8232717391304 21.676025390625  19.0930516304348 23.7462890625  19.298339673913 24.9826416015625  L 20.7210244565217 24.9826416015625  C 20.5269130434783 23.8645263671875  20.2279809782609 21.7744384765625  20.3321902173913 19.9530517578125  C 20.4264456521739 19.553076171875  21.0795326086956 16.9213134765625  22.256625 15.232373046875  C 22.2684130434783 15.2169189453125  22.2770461956522 15.2020751953125  22.2857527173913 15.1865966796875  Z " fill-rule="nonzero" fill="#39434e" stroke="none" transform="matrix(1 0 0 1 2132 4826 )" />
  </g>
</svg>