<?xml version="1.0" encoding="utf-8"?>
<svg version="1.1" xmlns:xlink="http://www.w3.org/1999/xlink" width="11px" height="13px" xmlns="http://www.w3.org/2000/svg">
  <g transform="matrix(1 0 0 1 -2139 -4828 )">
    <path d="M 9.2191640625 7.36211125  C 9.2191171875 5.143084375  7.5383203125 3.34438  5.4652734375 3.34438  C 3.393421875 3.34438  1.7138203125 5.143084375  1.7138203125 7.36211125  C 1.7138203125 8.41413625  2.0097890625 9.158963125  2.4115546875 9.695505625  C 3.101578125 10.509533125  4.01925 10.891538125  4.4965078125 12.26002375  C 4.4965078125 12.26002375  4.57078125 12.790375  5.337515625 12.790375  L 5.59190625 12.790375  C 6.35859375 12.790375  6.432890625 12.26002375  6.432890625 12.26002375  L 6.4340859375 12.26002375  C 6.7752421875 10.891538125  7.829015625 10.5095575  8.52140625 9.695505625  C 8.9891484375 9.09532  9.2191640625 8.414160625  9.2191640625 7.36211125  Z M 8.0690859375 7.36211125  C 8.0690390625 8.18666875  7.899703125 8.585370625  7.64409375 8.922233125  C 7.4907421875 9.09780625  7.2851484375 9.270210625  7.067015625 9.452584375  C 6.757921875 9.7122025  6.3900703125 10.023715  6.0613828125 10.44340375  L 6.0613828125 8.50564  L 6.9101015625 7.610614375  C 7.1341640625 7.3751275  7.131796875 6.9968275  6.9053671875 6.765045625  C 6.6789140625 6.53326375  6.314578125 6.534506875  6.0923203125 6.76999375  L 5.46646875 7.4295325  L 4.840640625 6.76999375  C 4.618359375 6.535725625  4.252828125 6.53326375  4.02759375 6.765045625  C 3.8011640625 6.998070625  3.7987734375 7.376370625  4.0216640625 7.610614375  L 4.9113984375 8.5476625  L 4.9113984375 10.573834375  C 4.5684375 10.10283625  4.1898515625 9.766583125  3.857625 9.469890625  C 3.651375 9.288150625  3.4582265625 9.1156975  3.298359375 8.932105  C 3.006515625 8.527260625  2.863875 8.0129725  2.863875 7.36211125  C 2.863875 5.8069375  4.03115625 4.54104625  5.465296875 4.54104625  C 6.90060937499999 4.54104625  8.0690859375 5.8069375  8.0690859375 7.36211125  Z M 4.88521875 1.70330875  C 4.88521875 2.0352475  5.1419296875 2.302275625  5.4593203125 2.302275625  C 5.777296875 2.302275625  6.03525 2.0352475  6.03525 1.70330875  L 6.03525 0.985684375  C 6.03525 0.654988749999999  5.777296875 0.387960625  5.4593203125 0.387960625  C 5.1419296875 0.387960625  4.88521875 0.65498875  4.88521875 0.985684375  L 4.88521875 1.70330875  Z M 1.8386484375 3.99836125  C 2.0650546875 3.76533625  2.0662734375 3.38703625  1.8421875 3.152768125  L 1.3078828125 2.593361875  C 1.0849921875 2.357875  0.720070312500001 2.356631875  0.4948359375 2.58968125  C 0.269578125000001 2.822096875  0.26840625 3.200981875  0.4912734375 3.435225625  L 1.025578125 3.994631875  C 1.137328125 4.11331375  1.2858984375 4.172033125  1.4344921875 4.172033125  C 1.58605063399396 4.17230508898829  1.73147734461891 4.10981309607883  1.8386484375 3.99836125  Z M 10.4416640625 3.474810625  C 10.66575 3.2405425  10.6633359375 2.862266875  10.4381015625 2.629241875  C 10.2128203125 2.3961925  9.8490703125 2.3993125  9.6250546875 2.63355625  L 9.091921875 3.194205625  C 8.8678359375 3.428449375  8.8702265625 3.806725  9.09548437500001 4.03975  C 9.20295627053075 4.15066100395236  9.34823585458963 4.21287948803135  9.499640625 4.212836875  C 9.64821093750001 4.212836875  9.7968046875 4.153508125  9.90850781250001 4.036045  L 10.4416640625 3.474810625  Z " fill-rule="nonzero" fill="#39434e" stroke="none" transform="matrix(1 0 0 1 2139 4828 )" />
  </g>
</svg>