<?xml version="1.0" encoding="utf-8"?>
<svg version="1.1" xmlns:xlink="http://www.w3.org/1999/xlink" width="102px" height="104px" xmlns="http://www.w3.org/2000/svg">
  <defs>
    <mask fill="white" id="clip1623">
      <path d="M 14 93.1948051948052  L 14 72.1266470755481  L 0.782382778671228 61.0355483932079  L 14 50.190918570476  L 14 10.8051948051948  C 13.8305084745763 4.7542857142863  19.9159322033898 0  27.6610169491525 0  L 88.1694915254237 0  C 95.9145762711865 0  102 4.7542857142863  102 10.8051948051948  L 102 93.1948051948052  C 102 99.2457142857137  95.9145762711865 104  88.1694915254237 104  L 27.6610169491525 104  C 19.9159322033898 104  13.8305084745763 99.2457142857137  14 93.1948051948052  Z " fill-rule="evenodd" />
    </mask>
  </defs>
  <g transform="matrix(1 0 0 1 -393 -3284 )">
    <path d="M 14 93.1948051948052  L 14 72.1266470755481  L 0.782382778671228 61.0355483932079  L 14 50.190918570476  L 14 10.8051948051948  C 13.8305084745763 4.7542857142863  19.9159322033898 0  27.6610169491525 0  L 88.1694915254237 0  C 95.9145762711865 0  102 4.7542857142863  102 10.8051948051948  L 102 93.1948051948052  C 102 99.2457142857137  95.9145762711865 104  88.1694915254237 104  L 27.6610169491525 104  C 19.9159322033898 104  13.8305084745763 99.2457142857137  14 93.1948051948052  Z " fill-rule="nonzero" fill="#ffffff" stroke="none" transform="matrix(1 0 0 1 393 3284 )" />
    <path d="M 14 93.1948051948052  L 14 72.1266470755481  L 0.782382778671228 61.0355483932079  L 14 50.190918570476  L 14 10.8051948051948  C 13.8305084745763 4.7542857142863  19.9159322033898 0  27.6610169491525 0  L 88.1694915254237 0  C 95.9145762711865 0  102 4.7542857142863  102 10.8051948051948  L 102 93.1948051948052  C 102 99.2457142857137  95.9145762711865 104  88.1694915254237 104  L 27.6610169491525 104  C 19.9159322033898 104  13.8305084745763 99.2457142857137  14 93.1948051948052  Z " stroke-width="2" stroke="#1e87f0" fill="none" transform="matrix(1 0 0 1 393 3284 )" mask="url(#clip1623)" />
  </g>
</svg>