<?xml version="1.0" encoding="utf-8"?>
<svg version="1.1" xmlns:xlink="http://www.w3.org/1999/xlink" width="98px" height="105px" xmlns="http://www.w3.org/2000/svg">
  <defs>
    <mask fill="white" id="clip1624">
      <path d="M 14 94.0909090909091  L 14 72.8201725281976  L 0.751701101076278 61.6224286662195  L 14 50.6735235567306  L 14 10.9090909090909  C 13.2881355932203 4.80000000000059  19.1349152542373 0  26.5762711864407 0  L 84.7118644067797 0  C 92.1532203389831 0  98 4.80000000000059  98 10.9090909090909  L 98 94.0909090909091  C 98 100.199999999999  92.1532203389831 105  84.7118644067797 105  L 26.5762711864407 105  C 19.1349152542373 105  13.2881355932203 100.199999999999  14 94.0909090909091  Z " fill-rule="evenodd" />
    </mask>
  </defs>
  <g transform="matrix(1 0 0 1 -625 -3237 )">
    <path d="M 14 94.0909090909091  L 14 72.8201725281976  L 0.751701101076278 61.6224286662195  L 14 50.6735235567306  L 14 10.9090909090909  C 13.2881355932203 4.80000000000059  19.1349152542373 0  26.5762711864407 0  L 84.7118644067797 0  C 92.1532203389831 0  98 4.80000000000059  98 10.9090909090909  L 98 94.0909090909091  C 98 100.199999999999  92.1532203389831 105  84.7118644067797 105  L 26.5762711864407 105  C 19.1349152542373 105  13.2881355932203 100.199999999999  14 94.0909090909091  Z " fill-rule="nonzero" fill="#ffffff" stroke="none" transform="matrix(1 0 0 1 625 3237 )" />
    <path d="M 14 94.0909090909091  L 14 72.8201725281976  L 0.751701101076278 61.6224286662195  L 14 50.6735235567306  L 14 10.9090909090909  C 13.2881355932203 4.80000000000059  19.1349152542373 0  26.5762711864407 0  L 84.7118644067797 0  C 92.1532203389831 0  98 4.80000000000059  98 10.9090909090909  L 98 94.0909090909091  C 98 100.199999999999  92.1532203389831 105  84.7118644067797 105  L 26.5762711864407 105  C 19.1349152542373 105  13.2881355932203 100.199999999999  14 94.0909090909091  Z " stroke-width="2" stroke="#1e87f0" fill="none" transform="matrix(1 0 0 1 625 3237 )" mask="url(#clip1624)" />
  </g>
</svg>