<?xml version="1.0" encoding="utf-8"?>
<svg version="1.1" xmlns:xlink="http://www.w3.org/1999/xlink" width="24px" height="24px" xmlns="http://www.w3.org/2000/svg">
  <g transform="matrix(1 0 0 1 -2132 -4670 )">
    <path d="M 24 12  C 24 5.3732142857143  18.6267857142857 0  12 0  C 5.3732142857143 0  0 5.3732142857143  0 12  C 0 18.6267857142857  5.3732142857143 24  12 24  C 18.6267857142857 24  24 18.6267857142857  24 12  Z M 21.9642857142857 12  C 21.9642857142857 17.5017857142857  17.5017857142857 21.9642857142857  12 21.9642857142857  C 6.4982142857143 21.9642857142857  2.03571428571428 17.5017857142857  2.03571428571428 12  C 2.03571428571428 6.4982142857143  6.4982142857143 2.03571428571428  12 2.03571428571428  C 17.5017857142857 2.03571428571428  21.9642857142857 6.4982142857143  21.9642857142857 12  Z M 17.1803571428571 8.08125  C 17.2848214285714 7.9392857142857  17.1830357142857 7.74107142857143  17.0089285714286 7.74107142857143  L 15.7526785714286 7.74107142857143  C 15.4794642857143 7.74107142857143  15.2196428571429 7.87232142857142  15.0589285714286 8.09732142857143  L 10.8482142857143 13.9366071428571  L 8.94107142857143 11.2901785714286  C 8.78035714285715 11.0678571428571  8.52321428571428 10.9339285714286  8.24732142857142 10.9339285714286  L 6.99107142857143 10.9339285714286  C 6.81696428571428 10.9339285714286  6.71517857142857 11.1321428571429  6.81696428571428 11.2741071428571  L 10.1544642857143 15.9026785714286  C 10.4946428571429 16.3767857142857  11.1991071428572 16.3767857142857  11.5392857142857 15.9026785714286  L 17.1803571428571 8.08125  Z " fill-rule="nonzero" fill="#36b21d" stroke="none" transform="matrix(1 0 0 1 2132 4670 )" />
  </g>
</svg>