<?xml version="1.0" encoding="utf-8"?>
<svg version="1.1" xmlns:xlink="http://www.w3.org/1999/xlink" width="16px" height="16px" xmlns="http://www.w3.org/2000/svg">
  <g transform="matrix(1 0 0 1 -377 -2262 )">
    <path d="M 11.1517857142857 10.4607142857143  C 11.1982142857143 10.3946428571429  11.1839285714286 10.3053571428572  11.1196428571429 10.2607142857143  L 8.57321428571429 8.41964285714286  L 8.57321428571429 4  C 8.57321428571429 3.92142857142858  8.50892857142857 3.85714285714286  8.43035714285715 3.85714285714286  L 7.57142857142857 3.85714285714286  C 7.49285714285715 3.85714285714286  7.42857142857143 3.92142857142858  7.42857142857143 4  L 7.42857142857143 8.91785714285714  C 7.42857142857143 8.96428571428571  7.45 9.00714285714285  7.4875 9.03392857142857  L 10.4410714285714 11.1875  C 10.5053571428571 11.2339285714286  10.5946428571429 11.2196428571429  10.6410714285714 11.1571428571429  L 11.1517857142857 10.4607142857143  Z M 16 8  C 16 3.58214285714286  12.4178571428571 0  8 0  C 3.58214285714286 0  0 3.58214285714286  0 8  C 0 12.4178571428571  3.58214285714286 16  8 16  C 12.4178571428571 16  16 12.4178571428571  16 8  Z M 14.6428571428571 8  C 14.6428571428571 11.6678571428571  11.6678571428571 14.6428571428571  8 14.6428571428571  C 4.33214285714287 14.6428571428571  1.35714285714286 11.6678571428571  1.35714285714286 8  C 1.35714285714286 4.33214285714287  4.33214285714287 1.35714285714286  8 1.35714285714286  C 11.6678571428571 1.35714285714286  14.6428571428571 4.33214285714287  14.6428571428571 8  Z " fill-rule="nonzero" fill="#d8d8d8" stroke="none" transform="matrix(1 0 0 1 377 2262 )" />
  </g>
</svg>