<?xml version="1.0" encoding="utf-8"?>
<svg version="1.1" xmlns:xlink="http://www.w3.org/1999/xlink" width="24px" height="24px" xmlns="http://www.w3.org/2000/svg">
  <g transform="matrix(1 0 0 1 -2132 -4709 )">
    <path d="M 23.04 11.5457142857143  C 23.04 5.18400000000001  17.8817142857143 0.0257142857142867  11.52 0.0257142857142867  C 5.15828571428571 0.0257142857142867  0 5.18400000000001  0 11.5457142857143  C 0 17.9074285714286  5.15828571428571 23.0657142857143  11.52 23.0657142857143  C 17.8817142857143 23.0657142857143  23.04 17.9074285714286  23.04 11.5457142857143  Z M 21.0857142857143 11.5457142857143  C 21.0857142857143 16.8274285714286  16.8017142857143 21.1114285714286  11.52 21.1114285714286  C 6.23828571428572 21.1114285714286  1.9542857142857 16.8274285714286  1.9542857142857 11.5457142857143  C 1.9542857142857 6.26400000000001  6.23828571428572 1.98  11.52 1.98  C 16.8017142857143 1.98  21.0857142857143 6.26400000000001  21.0857142857143 11.5457142857143  Z M 15.9325714285714 7.61142857142858  C 15.9634285714286 7.57542857142857  15.9788571428571 7.52657142857143  15.9788571428571 7.47771428571428  C 15.9788571428571 7.36457142857142  15.8862857142857 7.27199999999999  15.7731428571428 7.27199999999999  L 14.076 7.27971428571428  L 11.52 10.3268571428572  L 8.96657142857143 7.28228571428571  L 7.26685714285716 7.27457142857145  C 7.1537142857143 7.27457142857145  7.06114285714287 7.36457142857142  7.06114285714287 7.48028571428574  C 7.06114285714287 7.52914285714286  7.07914285714287 7.57542857142857  7.10999999999999 7.614  L 10.4554285714286 11.5997142857143  L 7.10999999999999 15.5828571428571  C 7.07914285714287 15.6214285714286  7.06114285714287 15.6677142857143  7.06114285714287 15.7165714285714  C 7.06114285714287 15.8297142857143  7.1537142857143 15.9222857142857  7.26685714285716 15.9222857142857  L 8.96657142857143 15.9145714285714  L 11.52 12.8674285714286  L 14.0734285714286 15.912  L 15.7705714285714 15.9197142857143  C 15.8837142857143 15.9197142857143  15.9762857142857 15.8297142857143  15.9762857142857 15.714  C 15.9762857142857 15.6651428571429  15.9582857142857 15.6188571428571  15.9274285714286 15.5802857142857  L 12.5871428571429 11.5971428571428  L 15.9325714285714 7.61142857142858  Z " fill-rule="nonzero" fill="#e21f0c" stroke="none" transform="matrix(1 0 0 1 2132 4709 )" />
  </g>
</svg>