<?xml version="1.0" encoding="utf-8"?>
<svg version="1.1" xmlns:xlink="http://www.w3.org/1999/xlink" width="50px" height="93px" xmlns="http://www.w3.org/2000/svg">
  <defs>
    <mask fill="white" id="clip1661">
      <path d="M 30.9160305343512 50.375  C 30.9160305343512 61.3115461944458  25.267124217917 70.908599191022  16.769965544108 76.3227950562894  L 27.2385703633101 92.7400127417804  C 40.9329582928571 83.7732920277961  50 68.1491541669085  50 50.375  C 50 22.5536557288249  27.7851211732826 0  0.381679389312985 0  C 0.275637780091422 0  0.169673865228527 0.000337721991745042  0.0638671628895723 0.00101222052610331  L 0.063865014835271 19.7705752584215  C 0.296389036871811 19.7652014422469  0.529563168697515 19.7625  0.763358778625947 19.7625  C 17.4162195550381 19.7625  30.9160305343512 33.4681830967476  30.9160305343512 50.375  Z " fill-rule="evenodd" />
    </mask>
  </defs>
  <g transform="matrix(1 0 0 1 -1431 -1595 )">
    <path d="M 30.9160305343512 50.375  C 30.9160305343512 61.3115461944458  25.267124217917 70.908599191022  16.769965544108 76.3227950562894  L 27.2385703633101 92.7400127417804  C 40.9329582928571 83.7732920277961  50 68.1491541669085  50 50.375  C 50 22.5536557288249  27.7851211732826 0  0.381679389312985 0  C 0.275637780091422 0  0.169673865228527 0.000337721991745042  0.0638671628895723 0.00101222052610331  L 0.063865014835271 19.7705752584215  C 0.296389036871811 19.7652014422469  0.529563168697515 19.7625  0.763358778625947 19.7625  C 17.4162195550381 19.7625  30.9160305343512 33.4681830967476  30.9160305343512 50.375  Z " fill-rule="nonzero" fill="#1890ff" stroke="none" transform="matrix(1 0 0 1 1431 1595 )" />
    <path d="M 30.9160305343512 50.375  C 30.9160305343512 61.3115461944458  25.267124217917 70.908599191022  16.769965544108 76.3227950562894  L 27.2385703633101 92.7400127417804  C 40.9329582928571 83.7732920277961  50 68.1491541669085  50 50.375  C 50 22.5536557288249  27.7851211732826 0  0.381679389312985 0  C 0.275637780091422 0  0.169673865228527 0.000337721991745042  0.0638671628895723 0.00101222052610331  L 0.063865014835271 19.7705752584215  C 0.296389036871811 19.7652014422469  0.529563168697515 19.7625  0.763358778625947 19.7625  C 17.4162195550381 19.7625  30.9160305343512 33.4681830967476  30.9160305343512 50.375  Z " stroke-width="2" stroke="#ffffff" fill="none" transform="matrix(1 0 0 1 1431 1595 )" mask="url(#clip1661)" />
  </g>
</svg>