<?xml version="1.0" encoding="utf-8"?>
<svg version="1.1" xmlns:xlink="http://www.w3.org/1999/xlink" width="59px" height="27px" xmlns="http://www.w3.org/2000/svg">
  <defs>
    <mask fill="white" id="clip1657">
      <path d="M 32.3548387096774 7.32857142857144  C 24.9227683158102 7.32857142857144  18.1204232357441 4.59649137827182  12.8725535523033 0.069395179521215  L 0.324806717264293 15.4044264981438  C 8.90344684494418 22.6447209295069  19.9368895378149 27  31.9741935483871 27  C 41.8541179311439 27  51.05776860669 24.0659685048094  58.7828712967526 19.0108644678657  L 48.3453390040392 2.66800183574362  C 43.7135450369968 5.62066330762264  38.2310223024622 7.32857142857144  32.3548387096774 7.32857142857144  Z " fill-rule="evenodd" />
    </mask>
  </defs>
  <g transform="matrix(1 0 0 1 -1399 -1668 )">
    <path d="M 32.3548387096774 7.32857142857144  C 24.9227683158102 7.32857142857144  18.1204232357441 4.59649137827182  12.8725535523033 0.069395179521215  L 0.324806717264293 15.4044264981438  C 8.90344684494418 22.6447209295069  19.9368895378149 27  31.9741935483871 27  C 41.8541179311439 27  51.05776860669 24.0659685048094  58.7828712967526 19.0108644678657  L 48.3453390040392 2.66800183574362  C 43.7135450369968 5.62066330762264  38.2310223024622 7.32857142857144  32.3548387096774 7.32857142857144  Z " fill-rule="nonzero" fill="#00bce4" stroke="none" transform="matrix(1 0 0 1 1399 1668 )" />
    <path d="M 32.3548387096774 7.32857142857144  C 24.9227683158102 7.32857142857144  18.1204232357441 4.59649137827182  12.8725535523033 0.069395179521215  L 0.324806717264293 15.4044264981438  C 8.90344684494418 22.6447209295069  19.9368895378149 27  31.9741935483871 27  C 41.8541179311439 27  51.05776860669 24.0659685048094  58.7828712967526 19.0108644678657  L 48.3453390040392 2.66800183574362  C 43.7135450369968 5.62066330762264  38.2310223024622 7.32857142857144  32.3548387096774 7.32857142857144  Z " stroke-width="2" stroke="#ffffff" fill="none" transform="matrix(1 0 0 1 1399 1668 )" mask="url(#clip1657)" />
  </g>
</svg>