<?xml version="1.0" encoding="utf-8"?>
<svg version="1.1" xmlns:xlink="http://www.w3.org/1999/xlink" width="28px" height="25px" xmlns="http://www.w3.org/2000/svg">
  <defs>
    <mask fill="white" id="clip1660">
      <path d="M 11.137714997148 24.6983402880855  C 15.9509603206598 21.569625923088  21.7076002091634 19.7125028270462  27.9030430983799 19.6190869495156  L 27.9030016205293 8.7584805719132E-05  C 17.7392056969796 0.0184437104913826  8.26939295006705 2.92128100737151  0.308334998600608 7.9139732981968  L 11.137714997148 24.6983402880855  Z " fill-rule="evenodd" />
    </mask>
  </defs>
  <g transform="matrix(1 0 0 1 -1404 -1595 )">
    <path d="M 11.137714997148 24.6983402880855  C 15.9509603206598 21.569625923088  21.7076002091634 19.7125028270462  27.9030430983799 19.6190869495156  L 27.9030016205293 8.7584805719132E-05  C 17.7392056969796 0.0184437104913826  8.26939295006705 2.92128100737151  0.308334998600608 7.9139732981968  L 11.137714997148 24.6983402880855  Z " fill-rule="nonzero" fill="#f04864" stroke="none" transform="matrix(1 0 0 1 1404 1595 )" />
    <path d="M 11.137714997148 24.6983402880855  C 15.9509603206598 21.569625923088  21.7076002091634 19.7125028270462  27.9030430983799 19.6190869495156  L 27.9030016205293 8.7584805719132E-05  C 17.7392056969796 0.0184437104913826  8.26939295006705 2.92128100737151  0.308334998600608 7.9139732981968  L 11.137714997148 24.6983402880855  Z " stroke-width="2" stroke="#ffffff" fill="none" transform="matrix(1 0 0 1 1404 1595 )" mask="url(#clip1660)" />
  </g>
</svg>