<?xml version="1.0" encoding="utf-8"?>
<svg version="1.1" xmlns:xlink="http://www.w3.org/1999/xlink" width="34px" height="38px" xmlns="http://www.w3.org/2000/svg">
  <defs>
    <mask fill="white" id="clip1659">
      <path d="M 20.0348925215672 37.74528776293  C 21.3549088792531 28.8833924522787  26.534043681846 21.2708056014395  33.8208360491865 16.6475406338448  L 23.011418783701 0.0308976692533819  C 10.9773851700059 7.59948550522022  2.40434359381081 20.1094124388476  0.182172110205101 34.6896884918326  L 20.0348925215672 37.74528776293  Z " fill-rule="evenodd" />
    </mask>
  </defs>
  <g transform="matrix(1 0 0 1 -1381 -1603 )">
    <path d="M 20.0348925215672 37.74528776293  C 21.3549088792531 28.8833924522787  26.534043681846 21.2708056014395  33.8208360491865 16.6475406338448  L 23.011418783701 0.0308976692533819  C 10.9773851700059 7.59948550522022  2.40434359381081 20.1094124388476  0.182172110205101 34.6896884918326  L 20.0348925215672 37.74528776293  Z " fill-rule="nonzero" fill="#face00" stroke="none" transform="matrix(1 0 0 1 1381 1603 )" />
    <path d="M 20.0348925215672 37.74528776293  C 21.3549088792531 28.8833924522787  26.534043681846 21.2708056014395  33.8208360491865 16.6475406338448  L 23.011418783701 0.0308976692533819  C 10.9773851700059 7.59948550522022  2.40434359381081 20.1094124388476  0.182172110205101 34.6896884918326  L 20.0348925215672 37.74528776293  Z " stroke-width="2" stroke="#ffffff" fill="none" transform="matrix(1 0 0 1 1381 1603 )" mask="url(#clip1659)" />
  </g>
</svg>