<?xml version="1.0" encoding="utf-8"?>
<svg version="1.1" xmlns:xlink="http://www.w3.org/1999/xlink" width="31px" height="47px" xmlns="http://www.w3.org/2000/svg">
  <defs>
    <mask fill="white" id="clip1658">
      <path d="M 18.3284192403613 46.9199419506832  L 30.8862362200955 31.5602368410213  C 24.176793912639 25.9779908969783  19.9012345679012 17.5366831480723  19.9012345679012 8.09016393442623  C 19.9012345679012 6.39440531140816  20.0390117768362 4.73103899518178  20.3039129663321 3.1107888865534  L 0.626459124274309 0.120710396185517  C 0.214185446065538 2.71603612102018  0 5.37792184065969  0 8.09016393442623  C 0 23.7529348465261  7.14282886624666 37.7363808123205  18.3284192403613 46.9199419506832  Z " fill-rule="evenodd" />
    </mask>
  </defs>
  <g transform="matrix(1 0 0 1 -1381 -1637 )">
    <path d="M 18.3284192403613 46.9199419506832  L 30.8862362200955 31.5602368410213  C 24.176793912639 25.9779908969783  19.9012345679012 17.5366831480723  19.9012345679012 8.09016393442623  C 19.9012345679012 6.39440531140816  20.0390117768362 4.73103899518178  20.3039129663321 3.1107888865534  L 0.626459124274309 0.120710396185517  C 0.214185446065538 2.71603612102018  0 5.37792184065969  0 8.09016393442623  C 0 23.7529348465261  7.14282886624666 37.7363808123205  18.3284192403613 46.9199419506832  Z " fill-rule="nonzero" fill="#05ca27" stroke="none" transform="matrix(1 0 0 1 1381 1637 )" />
    <path d="M 18.3284192403613 46.9199419506832  L 30.8862362200955 31.5602368410213  C 24.176793912639 25.9779908969783  19.9012345679012 17.5366831480723  19.9012345679012 8.09016393442623  C 19.9012345679012 6.39440531140816  20.0390117768362 4.73103899518178  20.3039129663321 3.1107888865534  L 0.626459124274309 0.120710396185517  C 0.214185446065538 2.71603612102018  0 5.37792184065969  0 8.09016393442623  C 0 23.7529348465261  7.14282886624666 37.7363808123205  18.3284192403613 46.9199419506832  Z " stroke-width="2" stroke="#ffffff" fill="none" transform="matrix(1 0 0 1 1381 1637 )" mask="url(#clip1658)" />
  </g>
</svg>