<?xml version="1.0" encoding="utf-8"?>
<svg version="1.1" xmlns:xlink="http://www.w3.org/1999/xlink" width="7px" height="7px" xmlns="http://www.w3.org/2000/svg">
  <defs>
    <mask fill="white" id="clip1656">
      <path d="M 0 3.5  C 0 5.43299662430002  1.56700337569998 7  3.5 7  C 5.43299662430002 7  7 5.43299662430002  7 3.5  C 7 1.56700337569998  5.43299662430002 0  3.5 0  C 1.56700337569998 0  0 1.56700337569998  0 3.5  Z " fill-rule="evenodd" />
    </mask>
  </defs>
  <g transform="matrix(1 0 0 1 -1506 -1688 )">
    <path d="M 0 3.5  C 0 5.43299662430002  1.56700337569998 7  3.5 7  C 5.43299662430002 7  7 5.43299662430002  7 3.5  C 7 1.56700337569998  5.43299662430002 0  3.5 0  C 1.56700337569998 0  0 1.56700337569998  0 3.5  Z " fill-rule="nonzero" fill="#f04864" stroke="none" transform="matrix(1 0 0 1 1506 1688 )" />
    <path d="M 0 3.5  C 0 5.43299662430002  1.56700337569998 7  3.5 7  C 5.43299662430002 7  7 5.43299662430002  7 3.5  C 7 1.56700337569998  5.43299662430002 0  3.5 0  C 1.56700337569998 0  0 1.56700337569998  0 3.5  Z " stroke-width="2" stroke="#ffffff" fill="none" transform="matrix(1 0 0 1 1506 1688 )" mask="url(#clip1656)" />
  </g>
</svg>