<?xml version="1.0" encoding="utf-8"?>
<svg version="1.1" xmlns:xlink="http://www.w3.org/1999/xlink" width="16px" height="16px" xmlns="http://www.w3.org/2000/svg">
  <g transform="matrix(1 0 0 1 -477 -1574 )">
    <path d="M 15.6999997031248 14.2999995624996  C 16.0999996718751 14.699999546875  16.0999996718751 15.2999995156251  15.6999996874997 15.6999995156248  C 15.2999997031247 16.0999994999993  14.69999971875 16.0999994999993  14.299999734375 15.6999995156248  L 11.1999998281253 12.5999996093742  C 8.4999999062502 14.5999995468756  4.80000003124997 14.4999995468752  2.30000010937511 12.1999996249997  C -0.499999796874818 9.59999970312492  -0.69999979687509 4.99999984375063  2.00000012500004 2.19999993749934  C 4.70000004687518 -0.599999968750126  9.19999990625001 -0.69999996874958  11.9999998124999 2.09999993749989  C 14.4999997343753 4.59999985937429  14.6999997343751 8.4999997343748  12.5999997968747 11.1999996562499  L 15.6999997031248 14.2999995624996  Z M 10.9999998281251 9.99999968750035  C 12.299999796875 8.19999975000064  12.299999796875 5.79999981249966  10.9999998281251 4.09999987499941  C 8.99999989062508 1.29999996874994  4.90000001562521 1.29999996874994  2.90000007812478 4.09999987499941  C 1.60000012500041 5.79999982812478  1.60000012500041 8.29999975000101  2.90000007812478 9.99999968750035  C 4.90000001562521 12.7999995937498  8.99999989062508 12.7999995937498  10.9999998281251 9.99999968750035  Z " fill-rule="nonzero" fill="#ffffff" stroke="none" transform="matrix(1 0 0 1 477 1574 )" />
  </g>
</svg>