<?xml version="1.0" encoding="utf-8"?>
<svg version="1.1" xmlns:xlink="http://www.w3.org/1999/xlink" width="66px" height="55px" xmlns="http://www.w3.org/2000/svg">
  <defs>
    <mask fill="white" id="clip1651">
      <path d="M 36.3274999999999 30.2185714285715  L 0 0  L 62.1923076923076 0  C 62.3453851112454 0  63.0470085470079 0.0128205128200989  64.1153846153843 0.760683760683605  C 65.1837606837607 1.50854700854711  66 2.71557672952372  66 3.00427350427367  L 66 55  L 36.3274999999999 30.2185714285715  Z " fill-rule="evenodd" />
    </mask>
  </defs>
  <g transform="matrix(1 0 0 1 -506 -1618 )">
    <path d="M 36.3274999999999 30.2185714285715  L 0 0  L 62.1923076923076 0  C 62.3453851112454 0  63.0470085470079 0.0128205128200989  64.1153846153843 0.760683760683605  C 65.1837606837607 1.50854700854711  66 2.71557672952372  66 3.00427350427367  L 66 55  L 36.3274999999999 30.2185714285715  Z " fill-rule="nonzero" fill="#1e87f0" stroke="none" transform="matrix(1 0 0 1 506 1618 )" />
    <path d="M 36.3274999999999 30.2185714285715  L 0 0  L 62.1923076923076 0  C 62.3453851112454 0  63.0470085470079 0.0128205128200989  64.1153846153843 0.760683760683605  C 65.1837606837607 1.50854700854711  66 2.71557672952372  66 3.00427350427367  L 66 55  L 36.3274999999999 30.2185714285715  Z " stroke-width="2" stroke="#1e87f0" fill="none" transform="matrix(1 0 0 1 506 1618 )" mask="url(#clip1651)" />
  </g>
</svg>