<?xml version="1.0" encoding="utf-8"?>
<svg version="1.1" xmlns:xlink="http://www.w3.org/1999/xlink" width="28px" height="28px" xmlns="http://www.w3.org/2000/svg">
  <g transform="matrix(1 0 0 1 -539 -1623 )">
    <path d="M 27.125 14  C 27.125 21.2374848828125  21.2374848828125 27.125  14 27.125  C 6.7625151171875 27.125  0.875 21.2374848828125  0.875 14  C 0.875 6.7625151171875  6.7625151171875 0.875  14 0.875  C 21.2374848828125 0.875  27.125 6.7625151171875  27.125 14  Z M 25.2415837988281 14  C 25.2415837988281 7.80123640625  20.1978060839844 2.75841620117188  14 2.75841620117188  C 7.80123640625 2.75841620117188  2.75841620117188 7.80123637695312  2.75841620117188 14  C 2.75841620117188 20.1978060839844  7.80123637695313 25.2415837988281  14 25.2415837988281  C 20.1978060839844 25.2415837988281  25.2415837988281 20.1978564746094  25.2415837988281 14  Z M 20.3047977734375 11.8455516699219  C 20.6693656835938 11.476246484375  20.6656363378906 10.8828282617187  20.2981454199219 10.5190666601563  C 19.9306545019531 10.1543979394531  19.3362787402344 10.1581272558594  18.9725171386719 10.5265757421875  L 12.1381534765625 17.4359293261719  L 9.112854453125 14.3271737890625  C 8.7509575390625 13.9549959863281  8.15753931640625 13.9484444433594  7.787226171875 14.3084263085937  C 7.41595551757812 14.6693657128906  7.40753931640625 15.2637414453125  7.76847869140625 15.6340545898437  L 11.4603715917969 19.42810109375  C 11.46223625 19.4309232910156  11.4660159863281 19.4309232910156  11.4678806738281 19.4337454882813  C 11.4697453320312 19.4356101464844  11.4707028710937 19.4393898828125  11.4725675292969 19.4412545703125  C 11.5316321679687 19.4993616699219  11.6047574316406 19.5349919726563  11.6741533496094 19.5744019824219  C 11.7106907714844 19.5941070019531  11.73976953125 19.626915078125  11.7772644921875 19.6418828222656  C 11.8907069140625 19.6887515234375  12.0116583886719 19.712185859375  12.1316523535156 19.712185859375  C 12.2507391699219 19.712185859375  12.3697755957031 19.6887515234375  12.4822604785156 19.6437474804688  C 12.5187979003906 19.6287293457031  12.5469695117187 19.5987434375  12.5816422753906 19.5799959570312  C 12.6519453125 19.5406363378906  12.7250705761719 19.5059131835937  12.7850927539062 19.4468485449219  C 12.7869574121094 19.4449838867188  12.7879149511719 19.4412041503906  12.7907371484375 19.4393394628906  C 12.7926018066406 19.436517265625  12.7954240039062 19.4356101171875  12.7982462304687 19.4336950683594  L 20.3047977734375 11.8455516699219  Z " fill-rule="nonzero" fill="#ffffff" stroke="none" transform="matrix(1 0 0 1 539 1623 )" />
  </g>
</svg>