<?xml version="1.0" encoding="utf-8"?>
<svg version="1.1" xmlns:xlink="http://www.w3.org/1999/xlink" width="80px" height="80px" xmlns="http://www.w3.org/2000/svg">
  <g transform="matrix(1 0 0 1 -657 -1605 )">
    <path d="M 0 40  C 0 17.5999999999999  17.6000000000004 0  40 0  C 62.3999999999996 0  80 17.5999999999999  80 40  C 80 62.4000000000001  62.3999999999996 80  40 80  C 17.6000000000004 80  0 62.4000000000001  0 40  Z M 75 40  C 75 20.4000000000001  59.6000000000004 5  40 5  C 20.3999999999996 5  5 20.4000000000001  5 40  C 5 59.5999999999999  20.3999999999996 75  40 75  C 59.6000000000004 75  75 59.5999999999999  75 40  Z " fill-rule="nonzero" fill="#d8d8d8" stroke="none" transform="matrix(1 0 0 1 657 1605 )" />
  </g>
</svg>