<?xml version="1.0" encoding="utf-8"?>
<svg version="1.1" xmlns:xlink="http://www.w3.org/1999/xlink" width="100px" height="100px" xmlns="http://www.w3.org/2000/svg">
  <g transform="matrix(1 0 0 1 -647 -1595 )">
    <path d="M 100 50  C 100 78  78 100  50 100  C 22 100  0 78  0 50  C 0 22  22 0  50 0  C 78 0  100 22  100 50  Z M 6 50  C 6 74.6399999999999  25.3599999999997 94  50 94  C 74.6400000000003 94  94 74.6399999999999  94 50  C 94 25.3600000000001  74.6400000000003 6  50 6  C 25.3599999999997 6  6 25.3600000000001  6 50  Z " fill-rule="nonzero" fill="#d8d8d8" stroke="none" transform="matrix(1 0 0 1 647 1595 )" />
  </g>
</svg>