<?xml version="1.0" encoding="utf-8"?>
<svg version="1.1" xmlns:xlink="http://www.w3.org/1999/xlink" width="16px" height="16px" xmlns="http://www.w3.org/2000/svg">
  <g transform="matrix(1 0 0 1 -793 -2182 )">
    <path d="M 12.5715245870536 15.3965107645089  C 12.4851335435268 15.4656235825893  12.3785846261161 15.4973002845982  12.2691560100446 15.4973002845982  C 12.1798853013393 15.4973002845982  12.0906145758929 15.4742626785714  12.0099829631696 15.4310671651786  L 7.96976314732143 13.1906601674107  L 3.92090423549107 15.4166686551339  C 3.74236280133929 15.5145784765625  3.52062587053571 15.5030596651786  3.35360323102678 15.384991953125  C 3.18658060825893 15.2669242243304  3.10018958147321 15.0624655022321  3.13474599888393 14.8608864620536  L 3.92090421875 10.0949821149554  L 0.632286238839286 6.71133402901786  C 0.494060619419643 6.5702287109375  0.445105708705357 6.36001057477679  0.508459112723214 6.17283002790179  C 0.568932818080357 5.98276979910714  0.730196060267857 5.84454416294643  0.926015686383929 5.80998776227679  L 3.52062585379464 5.36363418526786  C 3.81435530133929 5.31467927455357  4.09080655691964 5.51049891741071  4.13976146763393 5.80134866629464  C 4.18871637834821 6.09219841517857  3.99289673549107 6.36864967075893  3.70204698660714 6.42048428013393  L 2.10957260602679 6.69405583705357  L 4.87696479352679 9.54207963727679  C 4.99503252232143 9.66302706473214  5.04974683035714 9.83580908482143  5.02094982700893 10.0028317243304  L 4.37013751116071 13.9480214174107  L 7.71059010044643 12.1107724832589  C 7.87185332589286 12.0215017745536  8.06767296875 12.0215017745536  8.22893619419643 12.1107724832589  L 11.5636293861607 13.9595402120536  L 10.9272155803571 10.0114708035714  C 10.9012982756696 9.84444818080357  10.9531328850446 9.67166614397321  11.0740803125 9.55071871651786  L 13.8299537053571 6.73437161830357  L 10.0546663169643 6.15267212053571  C 9.87900458147321 6.12675481584821  9.72638045200893 6.01156680245536  9.65150825334821 5.85030356026786  L 7.9899210546875 2.2938734375  L 6.31393536272321 5.838784765625  C 6.18722853794643 6.10659690848214  5.86758178571429 6.22178493861607  5.59976964285714 6.09507811383929  C 5.3319575 5.9683712890625  5.21676946986607 5.64872453683036  5.34347629464286 5.38091239397321  L 7.50613137834821 0.802188577008929  C 7.59540208705357 0.615008046875001  7.78258263392857 0.494060619419644  7.98992107142857 0.494060619419644  C 8.19725950892857 0.494060619419644  8.38731973772321 0.615008046875001  8.47371076450893 0.802188577008929  L 10.4952605301339 5.13037844308036  L 15.0221497377232 5.83014566964286  C 15.2208490792411 5.86182237165179  15.3849920033482 6.0000480078125  15.4483454073661 6.19010823660714  C 15.5116988113839 6.38016846540179  15.4627439174107 6.5903866015625  15.3216385825893 6.73437163504464  L 12.0243814899554 10.1036212276786  L 12.7932615345982 14.8724052734375  C 12.8249382366071 15.0739843136161  12.7385472265625 15.2784430524554  12.5715245870536 15.3965107645089  Z " fill-rule="nonzero" fill="#1e87f0" stroke="none" transform="matrix(1 0 0 1 793 2182 )" />
  </g>
</svg>