<?xml version="1.0" encoding="utf-8"?>
<svg version="1.1" xmlns:xlink="http://www.w3.org/1999/xlink" width="20px" height="20px" xmlns="http://www.w3.org/2000/svg">
  <g transform="matrix(1 0 0 1 -1518 -2128 )">
    <path d="M 19.3714869215745 3.50876737530048  C 19.3753634164663 3.90804894080529  19.0536122671274 4.22980009014423  18.6543307241587 4.22980009014423  L 12.1611598632813 4.22980009014423  C 11.7618783203125 4.22980009014423  11.4401271484375 3.90804894080529  11.4401271484375 3.50876737530048  C 11.4401271484375 3.10948583233173  11.7618782977764 2.78773466045673  12.1611598632813 2.78773466045673  L 18.6504542067308 2.78773466045673  C 19.0497357496995 2.78773466045673  19.3714869215745 3.10948580979567  19.3714869215745 3.50876737530048  Z M 19.3714869215745 7.11393090444712  C 19.3714869215745 7.51321246995192  19.0536122671274 7.83496361929087  18.6543307241587 7.83496361929087  L 12.1611598632813 7.83496361929087  C 11.7618783203125 7.83496361929087  11.4401271484375 7.51321246995192  11.4401271484375 7.11393090444712  C 11.4401271484375 6.71464933894231  11.7618782977764 6.39289818960337  12.1611598632813 6.39289818960337  L 18.6504542067308 6.39289818960337  C 19.0497357496995 6.39289818960337  19.3714869215745 6.71464933894231  19.3714869215745 7.11393090444712  Z M 19.3714869215745 12.8860690730168  C 19.3714869215745 13.2853506385216  19.0536122671274 13.6071017878606  18.6543307241587 13.6071017878606  L 12.1611598632813 13.6071017878606  C 11.7618783203125 13.6071017878606  11.4401271484375 13.2853506385216  11.4401271484375 12.8860690730168  C 11.4401271484375 12.486787507512  11.7618782977764 12.1650363581731  12.1611598632813 12.1650363581731  L 18.6504542067308 12.1650363581731  C 19.0497357496995 12.1650363581731  19.3714869215745 12.486787507512  19.3714869215745 12.8860690730168  Z M 19.3714869215745 16.4912326021635  C 19.3714869215745 16.8905141676683  19.0536122671274 17.2122653170072  18.6543307241587 17.2122653170072  L 12.1611598632813 17.2122653170072  C 11.7618783203125 17.2122653170072  11.4401271484375 16.8905141676683  11.4401271484375 16.4912326021635  C 11.4401271484375 16.0919510366586  11.7618782977764 15.7701998873197  12.1611598632813 15.7701998873197  L 18.6504542067308 15.7701998873197  C 19.0497357496995 15.7701998873197  19.3714869215745 16.0919510366586  19.3714869215745 16.4912326021635  Z M 9.27702904897837 7.11393090444712  C 9.27702902644231 8.3078990609976  8.3078990609976 9.27702902644231  7.11393092698317 9.27702902644231  L 2.78773468299279 9.27702902644231  C 1.59376654897837 9.27702902644231  0.624636560997596 8.30789903846154  0.624636560997596 7.11393090444712  L 0.624636583533654 2.78773468299279  C 0.624636583533654 1.59376654897837  1.59376657151442 0.624636560997596  2.78773470552885 0.624636560997596  L 7.11393092698317 0.624636560997596  C 8.3078990609976 0.624636560997596  9.27702904897837 1.59376654897837  9.27702904897837 2.78773468299279  L 9.27702904897837 7.11393090444712  Z M 2.78773468299279 2.0667019906851  C 2.39232965745192 2.0667019906851  2.06670196814904 2.39232965745192  2.06670196814904 2.78773470552885  L 2.06670196814904 7.11393092698317  C 2.06670196814904 7.50933595252404  2.39232963491587 7.83496364182692  2.78773468299279 7.83496364182692  L 7.11393090444711 7.83496364182692  C 7.50933592998798 7.83496364182692  7.83496361929086 7.5093359750601  7.83496361929086 7.11393092698317  L 7.83496361929087 2.78773468299279  C 7.83496361929087 2.39232965745192  7.50933595252404 2.06670196814904  7.11393090444712 2.06670196814904  L 2.78773468299279 2.0667019906851  Z M 9.27702904897837 17.2083887770433  C 9.27702902644231 18.4023569335938  8.3078990609976 19.3753634164663  7.11393092698317 19.3753634164663  L 2.78773468299279 19.3753634164663  C 1.59376654897837 19.3753634164663  0.624636560997596 18.4062334284856  0.624636560997596 17.2122652944712  L 0.624636583533654 12.8821925555889  C 0.624636583533654 11.6882244215745  1.59376657151442 10.7190944335937  2.78773470552885 10.7190944335937  L 7.11393092698317 10.7190944335937  C 8.3078990609976 10.7190944335937  9.27702904897837 11.6882244215745  9.27702904897837 12.8821925555889  L 9.27702904897837 17.2083887770433  Z M 2.78773468299279 12.1611598632813  C 2.39232965745192 12.1611598632813  2.06670196814904 12.4829110126202  2.06670196814904 12.882192578125  L 2.06670196814904 17.2083887995793  C 2.06670196814904 17.6076703425481  2.39232963491587 17.9294215144231  2.78773468299279 17.9294215144231  L 7.11393090444711 17.9294215144231  C 7.50933592998798 17.9294215144231  7.83496361929086 17.6076703650841  7.83496361929086 17.2083887995793  L 7.83496361929087 12.8821925555889  C 7.83496361929087 12.4829110126202  7.50933595252404 12.1611598407452  7.11393090444712 12.1611598407452  L 2.78773468299279 12.1611598632813  Z " fill-rule="nonzero" fill="#272636" stroke="none" transform="matrix(1 0 0 1 1518 2128 )" />
  </g>
</svg>