<?xml version="1.0" encoding="utf-8"?>
<svg version="1.1" xmlns:xlink="http://www.w3.org/1999/xlink" width="20px" height="20px" xmlns="http://www.w3.org/2000/svg">
  <g transform="matrix(1 0 0 1 -1480 -2128 )">
    <path d="M 9.27702904897837 7.11393090444712  C 9.27702902644231 8.3078990609976  8.3078990609976 9.27702902644231  7.11393092698317 9.27702902644231  L 2.78773468299279 9.27702902644231  C 1.59376654897837 9.27702902644231  0.624636560997596 8.30789903846154  0.624636560997596 7.11393090444712  L 0.624636583533654 2.78773468299279  C 0.624636583533654 1.59376654897837  1.59376657151442 0.624636560997596  2.78773470552885 0.624636560997596  L 7.11393092698317 0.624636560997596  C 8.3078990609976 0.624636560997596  9.27702904897837 1.59376654897837  9.27702904897837 2.78773468299279  L 9.27702904897837 7.11393090444712  Z M 2.78773468299279 2.0667019906851  C 2.39232965745192 2.0667019906851  2.06670196814904 2.39232965745192  2.06670196814904 2.78773470552885  L 2.06670196814904 7.11393092698317  C 2.06670196814904 7.50933595252404  2.39232963491587 7.83496364182692  2.78773468299279 7.83496364182692  L 7.11393090444711 7.83496364182692  C 7.50933592998798 7.83496364182692  7.83496361929086 7.5093359750601  7.83496361929086 7.11393092698317  L 7.83496361929087 2.78773468299279  C 7.83496361929087 2.39232965745192  7.50933595252404 2.06670196814904  7.11393090444712 2.06670196814904  L 2.78773468299279 2.0667019906851  Z M 9.27702904897837 17.2083887770433  C 9.27702902644231 18.4023569335938  8.3078990609976 19.3753634164663  7.11393092698317 19.3753634164663  L 2.78773468299279 19.3753634164663  C 1.59376654897837 19.3753634164663  0.624636560997596 18.4062334284856  0.624636560997596 17.2122652944712  L 0.624636583533654 12.8821925555889  C 0.624636583533654 11.6882244215745  1.59376657151442 10.7190944335937  2.78773470552885 10.7190944335937  L 7.11393092698317 10.7190944335937  C 8.3078990609976 10.7190944335937  9.27702904897837 11.6882244215745  9.27702904897837 12.8821925555889  L 9.27702904897837 17.2083887770433  Z M 2.78773468299279 12.1611598632813  C 2.39232965745192 12.1611598632813  2.06670196814904 12.4829110126202  2.06670196814904 12.882192578125  L 2.06670196814904 17.2083887995793  C 2.06670196814904 17.6076703425481  2.39232963491587 17.9294215144231  2.78773468299279 17.9294215144231  L 7.11393090444711 17.9294215144231  C 7.50933592998798 17.9294215144231  7.83496361929086 17.6076703650841  7.83496361929086 17.2083887995793  L 7.83496361929087 12.8821925555889  C 7.83496361929087 12.4829110126202  7.50933595252404 12.1611598407452  7.11393090444712 12.1611598407452  L 2.78773468299279 12.1611598632813  Z M 19.3714868990385 17.2122652944712  C 19.3753634164663 18.4023569335938  18.4023569335938 19.3753634164663  17.2122653170072 19.3753634164663  L 12.8821925555889 19.3753634164663  C 11.6882244215745 19.3753634164663  10.7190944335937 18.4062334284856  10.7190944335937 17.2122652944712  L 10.7190944335937 15.7701998873197  C 10.7190944335937 14.5762317533053  11.6882244215745 13.6071017653245  12.8821925555889 13.6071017653245  L 17.2083887770433 13.6071017653245  C 18.4023569110577 13.6071017653245  19.3714868990385 14.5762317533053  19.3714868990385 15.7701998873197  L 19.3714868990385 17.2122652944712  Z M 12.8821925555889 15.049167195012  C 12.4829110126202 15.049167195012  12.1611598407452 15.370918344351  12.1611598407452 15.7701999098558  L 12.1611598407452 17.2122653170072  C 12.1611598407452 17.611546859976  12.4829109900841 17.933298031851  12.8821925555889 17.933298031851  L 17.2083887770433 17.933298031851  C 17.607670320012 17.933298031851  17.929421491887 17.611546882512  17.929421491887 17.2122653170072  L 17.929421491887 15.7701999098558  C 17.929421491887 15.370918366887  17.6076703425481 15.049167195012  17.2083887770433 15.049167195012  L 12.8821925555889 15.049167195012  Z M 19.3714868990385 9.99806174128606  C 19.3753634164663 11.1920298753005  18.4023569335938 12.1611598632813  17.2122653170072 12.1611598632813  L 12.8821925555889 12.1611598632813  C 11.6882244215745 12.1611598632813  10.7190944335937 11.1920298753005  10.7190944335937 9.99806174128606  L 10.7190944335937 2.78773468299279  C 10.7190944335937 1.59376654897837  11.6882244215745 0.624636560997597  12.8821925555889 0.624636560997597  L 17.2083887770433 0.624636560997597  C 18.4023569110577 0.624636560997597  19.3714868990385 1.59376654897837  19.3714868990385 2.78773468299279  L 19.3714868990385 9.99806174128606  Z M 12.8821925555889 2.0667019906851  C 12.4829110126202 2.0667019906851  12.1611598407452 2.39232965745192  12.1611598407452 2.78773470552885  L 12.1611598407452 9.99806176382211  C 12.1611598407452 10.393466789363  12.4829109900841 10.7190944786659  12.8821925555889 10.7190944786659  L 17.2083887770433 10.7190944786659  C 17.607670320012 10.7190944786659  17.929421491887 10.393466811899  17.929421491887 9.99806176382211  L 17.929421491887 2.78773470552885  C 17.929421491887 2.39232967998798  17.6076703425481 2.0667019906851  17.2083887770433 2.0667019906851  L 12.8821925555889 2.0667019906851  Z " fill-rule="nonzero" fill="#ffffff" stroke="none" transform="matrix(1 0 0 1 1480 2128 )" />
  </g>
</svg>