<?xml version="1.0" encoding="utf-8"?>
<svg version="1.1" xmlns:xlink="http://www.w3.org/1999/xlink" width="8px" height="13px" xmlns="http://www.w3.org/2000/svg">
  <g transform="matrix(1 0 0 1 -1463 -1938 )">
    <path d="M 6.99744185626837 6.99662388723272  C 7.04093017178376 6.94901028474504  7.06395338541668 6.89073607755967  7.09363326708707 6.83622611405219  C 7.10183029970777 6.81964611944898  7.11511610014627 6.80576720291947  7.1222953855995 6.78864125976561  C 7.26302036275603 6.48287405684624  7.21694639985379 6.10871797388978  6.96776199058847 5.8628053942229  L 1.31915081551526 0.281698928351139  C 1.01110177266082 -0.0224591270046111  0.525523592836331 -0.00803424521995209  0.233841111568078 0.313249753289556  C -0.0573187362939381 0.635050985557192  -0.0440054322003663 1.14230676269528  0.264043610654274 1.44701078330586  L 5.33239810398411 6.45563344084085  L 0.283986063139562 11.5385643349095  C -0.0209822185671934 11.845911953896  -0.0301970143458574 12.3531964625308  0.264043610654274 12.672325364926  C 0.414478497350198 12.8358839535362  0.615580969024045 12.917691979338  0.816683440698145 12.917691979338  C 1.00857113258401 12.917691979338  1.20045880847945 12.8428665090461  1.34935331460166 12.6931868369654  L 6.94680177494527 7.05754169279398  C 6.9575569512976 7.04630637464015  6.96162795595774 7.03081831054693  6.97238313231007 7.01906577533927  C 6.98058016493057 7.01104876901728  6.98927232730269 7.00515812731295  6.99744185626837 6.99662388723272  Z " fill-rule="nonzero" fill="#b4b4b4" stroke="none" transform="matrix(1 0 0 1 1463 1938 )" />
  </g>
</svg>