<?xml version="1.0" encoding="utf-8"?>
<svg version="1.1" xmlns:xlink="http://www.w3.org/1999/xlink" width="41px" height="50px" xmlns="http://www.w3.org/2000/svg">
  <g transform="matrix(1 0 0 1 -1052 -1745 )">
    <path d="M 21.2569230769231 49.6603174603175  C 21.0046153846154 49.7873015873016  20.7523076923077 49.8634920634921  20.4747692307692 49.8634920634921  C 20.1972307692308 49.8634920634921  19.9449230769231 49.7873015873016  19.7178461538462 49.6349206349206  C 13.5867692307692 45.9015873015873  9.14615384615385 42.8031746031746  5.86615384615385 38.815873015873  C 2.08153846153846 34.2444444444444  0.239692307692307 28.9111111111111  0.0378461538461532 22.0539682539683  L 0.0378461538461532 21.9269841269841  C 0.0378461538461532 21.5460317460317  0.0126153846153839 21.1904761904762  0.0126153846153839 20.8349206349206  C 0.0126153846153839 20.4793650793651  0.0126153846153839 20.0984126984127  0.0378461538461532 19.7428571428571  L 0.0378461538461532 12.6825396825397  C 0.0378461538461532 11.8698412698413  0.693846153846153 11.184126984127  1.52646153846154 11.184126984127  C 8.81815384615384 11.184126984127  15.58 7.22222222222222  19.188 0.847619047619049  C 19.4403076923077 0.390476190476192  19.9449230769231 0.0857142857142869  20.4747692307692 0.0857142857142869  C 21.0046153846154 0.0857142857142869  21.5092307692308 0.365079365079366  21.7615384615385 0.847619047619049  C 25.3695384615385 7.22222222222222  32.1566153846154 11.184126984127  39.4483076923077 11.184126984127  C 40.2556923076923 11.184126984127  40.9369230769231 11.8444444444444  40.9369230769231 12.6825396825397  L 40.9369230769231 22.0539682539683  C 40.9369230769231 22.1555555555556  40.9369230769231 22.2571428571429  40.9116923076923 22.3333333333333  C 40.4070769230769 36.8603174603175  32.4341538461538 42.8285714285714  21.2569230769231 49.6603174603175  Z M 3.01507692307692 21.8761904761905  L 3.01507692307692 22.0031746031746  C 3.19169230769231 28.1492063492064  4.83169230769231 32.8730158730159  8.16215384615385 36.9111111111111  C 11.0384615384615 40.415873015873  15.0501538461538 43.2603174603175  20.5 46.6126984126984  C 30.8446153846154 40.2634920634921  37.6064615384615 34.9047619047619  37.9849230769231 21.9777777777778  C 37.9849230769231 21.9015873015873  37.9849230769231 21.8507936507937  38.0101538461538 21.7746031746032  L 38.0101538461538 14.1047619047619  C 31.0212307692308 13.647619047619  24.5873846153846 10.0412698412698  20.5252307692308 4.32698412698413  C 16.4126153846154 10.0412698412698  9.97876923076923 13.647619047619  3.01507692307692 14.1047619047619  L 3.01507692307692 19.7936507936508  C 3.01507692307692 20.1492063492063  2.98984615384615 20.5047619047619  2.98984615384615 20.8349206349206  C 2.98984615384615 21.1904761904762  2.98984615384615 21.5206349206349  3.01507692307692 21.8761904761905  Z " fill-rule="nonzero" fill="#face00" stroke="none" transform="matrix(1 0 0 1 1052 1745 )" />
  </g>
</svg>