<?xml version="1.0" encoding="utf-8"?>
<svg version="1.1" xmlns:xlink="http://www.w3.org/1999/xlink" width="12px" height="24px" xmlns="http://www.w3.org/2000/svg">
  <g transform="matrix(1 0 0 1 -1436 -1758 )">
    <path d="M 7.36551724137931 22.951868852459  C 7.1536551724138 23.5310163934426  6.57103448275862 23.8835409836066  5.93544827586207 23.8835409836066  C 5.75006896551724 23.8835409836066  5.56468965517241 23.8583606557377  5.37931034482758 23.7828196721311  C 4.58482758620689 23.4806557377049  4.18758620689655 22.6245245901639  4.47889655172413 21.8691147540984  L 8.00110344827586 13.232262295082  L 1.59227586206897 13.232262295082  C 1.08910344827586 13.232262295082  0.612413793103447 13.0056393442623  0.321103448275861 12.6027540983607  C 0.0297931034482741 12.199868852459  -0.049655172413795 11.696262295082  0.135724137931033 11.2430163934426  L 3.89627586206896 1.17088524590164  C 4.18758620689655 0.390295081967209  5.06151724137931 -0.0125901639344304  5.88248275862069 0.264393442622947  C 6.70344827586206 0.541377049180324  7.1271724137931 1.37232786885246  6.83586206896551 2.15291803278688  L 3.79034482758621 10.2861639344262  L 10.2786206896552 10.2861639344262  C 10.7817931034483 10.2861639344262  11.2849655172414 10.5379672131148  11.5497931034483 10.9408524590164  C 11.8411034482759 11.343737704918  11.8940689655172 11.8473442622951  11.7086896551724 12.3005901639344  L 7.36551724137931 22.951868852459  Z " fill-rule="nonzero" fill="#05ca27" stroke="none" transform="matrix(1 0 0 1 1436 1758 )" />
  </g>
</svg>