<?xml version="1.0" encoding="utf-8"?>
<svg version="1.1" xmlns:xlink="http://www.w3.org/1999/xlink" width="11px" height="11px" xmlns="http://www.w3.org/2000/svg">
  <g transform="matrix(1 0 0 1 -42 -1345 )">
    <path d="M 4.24074075 1.29629629166667  C 5.87714000620103 1.29629629166667  7.20370370833333 2.62285999379897  7.20370370833333 4.25925925  C 7.21227272499014 4.89792281253534  7.01256901317337 5.52199690922025  6.6348148125 6.03703704166667  L 6.350370375 6.42814814583333  L 5.95925925 6.71259258333333  C 5.45345524422179 7.05725770981279  4.85267009113006 7.23542159038322  4.24074075 7.22222222916666  C 2.604341488046 7.22222222916666  1.27777778125 5.89565852237067  1.27777778125 4.25925926041666  C 1.27777778125 2.62285999846267  2.604341488046 1.29629629166666  4.24074075 1.29629629166666  Z M 4.24730506858717 0.111105895363597  C 4.24511696135864 0.111105895363597  4.24292885447306 0.111107631631833  4.24074075 0.111111104166666  C 4.21754630974337 0.110721938864058  4.1943490130242 0.110527345943544  4.17115130821422 0.110527345943544  C 1.88019234723159 0.110527345943544  0.0230031623808896 1.96771653079425  0.0230031623808896 4.25867549177688  C 0.0230031623808896 6.54963445275951  1.88019234723159 8.40682363761021  4.17115130821422 8.40682363761021  C 5.04788898071225 8.40682363761021  5.90208268844151 8.12903446002547  6.61111110416667 7.61333333333334  L 9.8348148125 10.7777777708333  C 9.97218947677067 10.8915876771035  10.1425902632378 10.9580855490914  10.32074075 10.9674074166667  C 10.4870470996823 10.9685327722282  10.6461721559834 10.8997219282853  10.75925925 10.7777777708333  C 11.0015691656182 10.5218335076661  11.0015691656182 10.1211294506673  10.75925925 9.8651851875  L 7.5948148125 6.67703704166667  C 8.10750168133579 5.97066575886714  8.38360136025383 5.12021844182877  8.38360136025383 4.24740218703026  C 8.38360136025383 1.9629888243611  6.53171843125633 0.111105895363597  4.24730506858717 0.111105895363597  Z " fill-rule="nonzero" fill="#ffffff" stroke="none" transform="matrix(1 0 0 1 42 1345 )" />
  </g>
</svg>