<?xml version="1.0" encoding="utf-8"?>
<svg version="1.1" xmlns:xlink="http://www.w3.org/1999/xlink" width="20px" height="20px" xmlns="http://www.w3.org/2000/svg">
  <g transform="matrix(1 0 0 1 -36 -1339 )">
    <path d="M 17.5015610743802 11.0317722727273  C 17.5631147651608 10.6934973068329  17.6062757944484 10.3521327554413  17.6308539876033 10.0091827272727  C 17.6194155910997 9.66237947991553  17.5840700027815 9.31677817344976  17.5250688636364 8.97483929752066  L 19.9816345247934 7.51735537190083  L 17.0666666735537 2.36914601239669  L 14.5160697933884 3.87364553719008  C 14.026161867985 3.50500555692837  13.4933445256673 3.19715553923513  12.9292929338843 2.95684113636364  L 12.9292929338843 0.0183654752066115  L 7.05234159090909 0.0183654752066115  L 7.05234159090909 2.95684113636364  C 6.48834174468859 3.1972590978758  5.95553653035654 3.50510210828847  5.46556473140496 3.87364553719008  L 2.91496785123967 2.36914601239669  L 0 7.51735537190083  L 2.45656566115702 8.97483929752066  C 2.39763829151734 9.31678829387472  2.36229322461683 9.66238450203446  2.35078053719008 10.0091827272727  C 2.36229322367186 10.3559809594218  2.39763829057567 10.7015771745172  2.45656566115703 11.0435261776859  L 0 12.5010101033058  L 2.91496785123967 17.6492194628099  L 5.47731863636364 16.1329660330579  C 5.96300832855294 16.5047960593791  6.49184896457705 16.8165752392315  7.05234159090909 17.061524338843  L 7.05234159090909 20  L 12.9292929338843 20  L 12.9292929338843 17.6492194628099  L 11.7539026652893 17.6492194628099  L 11.7539026652893 18.824609731405  L 8.22773185950413 18.824609731405  L 8.22773185950413 16.2740128512397  L 7.51074380165289 15.9684113842975  C 7.03442497953853 15.7648493555206  6.58450314460541 15.5043682895396  6.17079890495868 15.1926538016529  L 5.5478420661157 14.7342516115702  L 4.87786960743802 15.1338842975207  L 3.36161615702479 16.0389347933884  L 1.59853076446281 12.9476584090909  L 3.05601469008264 12.077869607438  L 3.72598714876033 11.6782369214876  L 3.62020202479339 10.902479338843  L 3.62020202479339 10.7379247107438  C 3.57196542969346 10.4974903694082  3.54054555631691 10.2539863386584  3.52617080578512 10.0091827272727  C 3.53384910430583 9.77278996715241  3.55741002439209 9.53718074558195  3.59669421487603 9.30394857438016  L 3.59669421487603 9.13939394628099  L 3.70247933884297 8.36363636363636  L 3.05601469008264 7.96400367768595  L 1.59853076446281 7.0707070661157  L 3.34986225206612 3.97943066115702  L 4.86611570247934 4.88448117768595  L 5.53608816115703 5.28411386363636  L 6.159045 4.82571165289256  C 6.57274924071347 4.5139971722191  7.02267107560249 4.25351611320112  7.49898989669422 4.04995409090909  L 8.22773185950413 3.74435262396694  L 8.22773185950413 1.19375574380165  L 11.7539026652893 1.19375574380165  L 11.7539026652893 3.74435262396694  L 12.4708907231405 4.04995409090909  C 12.9472613561658 4.25341265249537  13.3971953038317 4.51390072417353  13.8108356198347 4.82571165289256  L 14.4337924793388 5.29586776859504  L 15.1037649173554 4.89623508264463  L 16.6200183677686 3.9911845661157  L 18.3831037603306 7.0707070661157  L 16.9256198347107 7.94049586776859  L 16.2556473760331 8.34012855371901  L 16.3614325 9.11588613636364  L 16.3614325 9.28044076446281  C 16.4007873273302 9.51366346788216  16.4243487317939 9.74927747110191  16.4319559297521 9.98567493801653  C 16.4156468649575 10.2731348261414  16.3842599442308 10.5595404855315  16.3379247107438 10.8437098347107  L 16.2203856818182 11.6312213016529  L 18.9472910950413 13.2062442561983  L 19.9463728099174 12.4775022933884  L 17.5015610743802 11.0317722727273  Z " fill-rule="nonzero" fill="#ffffff" stroke="none" transform="matrix(1 0 0 1 36 1339 )" />
  </g>
</svg>