<?xml version="1.0" encoding="utf-8"?>
<svg version="1.1" xmlns:xlink="http://www.w3.org/1999/xlink" width="18px" height="23px" xmlns="http://www.w3.org/2000/svg">
  <g transform="matrix(1 0 0 1 -36 -1390 )">
    <path d="M 11.1285897995049 7.63331275548898  L 16.3034416559406 7.63331275548898  L 16.3034416559406 11.435674428057  C 16.3034416559406 11.8777768259328  16.6589051256185 12.2361716317391  17.0973915371287 12.2361716317391  C 17.5327027974517 12.2285368371386  17.8837690591712 11.8745754910164  17.8913413960396 11.435674428057  L 17.8913413960396 6.27532644064884  C 17.8853732173077 6.06509847047768  17.7990112224155 5.86534005263313  17.6503209059406 5.71783732949078  L 11.9508950272277 0.27159748041601  C 11.8123417075161 0.107118422332284  11.6118264984554 0.0086259442009976  11.3979656584158 0  L 2.65033935891089 0  C 2.65000172424986 0  2.64966408956816 0  2.649326454879 0  C 1.2790564312131 0  0.168233098443358 1.11998375808851  0.168233098443358 2.50155373904558  C 0.168233098443358 2.52538178018857  0.168570767583932 2.54920860517349  0.169246002475247 2.57302691854107  L 0.169246002475247 20.38408952078  C 0.177044585407965 21.760073849942  1.28558701994397 22.8713711357011  2.65033935891089 22.8713486701114  L 8.43483129950495 22.8713486701114  C 8.87331771101512 22.8713486701114  9.22878118069307 22.5129538643051  9.22878118069307 22.0708514664293  C 9.22878118069307 21.6287490685535  8.87331771101512 21.2703542627472  8.43483129950495 21.2703542627472  L 2.65033935891089 21.2703542627472  C 2.15475746942718 21.2625459790387  1.75708526999896 20.8552300583955  2 20.3555003413516  L 2 2.53014312693756  C 1.76482401785159 2.04626230356765  2.15606466204542 1.658055851654  2.63604920834983 1.658055851654  C 2.64081282794493 1.658055851654  2.64557636884502 1.65809489395407  2.65033935891089 1.65817297468453  L 10.3346399183168 1.65817297468453  L 10.3346399183168 6.8328155518069  C 10.3346399183168 7.27491794968271  10.6901033879948 7.63331275548898  11.1285897995049 7.63331275548898  Z M 11.9225396806931 2.44437556619149  L 15.6512685519802 6.03231837058575  L 11.9225396806931 6.03231837058575  L 11.9225396806931 2.44437556619149  Z " fill-rule="nonzero" fill="#ffffff" stroke="none" transform="matrix(1 0 0 1 36 1390 )" />
  </g>
</svg>