<?xml version="1.0" encoding="utf-8"?>
<svg version="1.1" xmlns:xlink="http://www.w3.org/1999/xlink" width="9px" height="12px" xmlns="http://www.w3.org/2000/svg">
  <g transform="matrix(1 0 0 1 -47 -1401 )">
    <path d="M 8.84525571764411 5.97382946379197  C 8.84525571764411 5.71842884500886  8.72357501984667 5.47894478371008  8.51895586298077 5.33162724264706  L 1.37299805048077 0.151354522058823  C 1.12843374399398 -0.00338381116287051  0.818977472352179 -0.00338381116287051  0.574413165865382 0.151354522058822  C 0.318691621356766 0.28802531236938  0.159285267630148 0.558911906682081  0.161351999999999 0.853288477941177  L 0.161351999999999 11.2138339411765  C 0.156056850737596 11.5090997604421  0.316402828611385 11.7815831101174  0.574413165865385 11.9157679191176  C 0.671472535874626 11.9568268450301  0.773259863436068 11.9851313438815  0.877324673076924 12  C 1.03852479979179 11.9964697513141  1.19568512378662 11.947911601728  1.33169192307692 11.8596132132353  L 8.51895586298077 6.60914706617647  C 8.58317176067406 6.56886786066098  8.6392513354488 6.5164536238101  8.68418032932692 6.45472160294117  C 8.78860303788902 6.31702488887101  8.84525571764411 6.14788776220887  8.84525571764411 5.97382946379197  Z M 6.71525554326923 6.03356122058824  L 1.63460343028846 9.683617875  L 1.63460343028846 2.38350454411765  L 6.71525554326923 6.03356122058824  Z " fill-rule="nonzero" fill="#ffffff" stroke="none" transform="matrix(1 0 0 1 47 1401 )" />
  </g>
</svg>