<?xml version="1.0" encoding="utf-8"?>
<svg version="1.1" xmlns:xlink="http://www.w3.org/1999/xlink" width="20px" height="20px" xmlns="http://www.w3.org/2000/svg">
  <g transform="matrix(1 0 0 1 -36 -1443 )">
    <path d="M 14.99 10  L 19.98 5.01  L 14.99 0.02  L 10 5.01  L 5.01 0.02  L 0.02 5.01  L 5.01 10  L 0.02 14.99  L 0.02 19.98  L 5.01 19.98  L 10 14.99  L 14.99 19.98  L 19.98 14.99  L 14.99 10  Z M 5.8825 9.12625  L 5.135 8.37875  L 7.255 6.2575  L 6.3825 5.38375  L 4.26125 7.505  L 3.5125 6.75625  L 5.75875 4.5125  L 4.76 3.6375  L 2.64 5.88375  L 1.765 5.01125  L 5.01 1.7675  L 9.125 5.8825  L 5.8825 9.12625  Z M 3.7625 18.7325  L 1.2675 18.7325  L 1.2675 16.2375  L 3.7625 18.7325  Z M 5.00875 18.235  L 5.01 18.23375  L 1.76625 14.99  L 14.99125 1.765  L 18.23375 5.01  L 5.00875 18.235  Z M 18.23375 14.99  L 18.235 14.99  L 14.99 18.23375  L 14.1175 17.36  L 16.3625 15.115  L 15.48875 14.24125  L 13.24375 16.4875  L 12.495 15.73875  L 14.74125 13.49375  L 13.7425 12.61875  L 11.4975 14.865  L 10.7475 14.1175  L 13.9925 10.87375  L 18.23375 14.99  Z " fill-rule="nonzero" fill="#fffefe" stroke="none" transform="matrix(1 0 0 1 36 1443 )" />
  </g>
</svg>