<?xml version="1.0" encoding="utf-8"?>
<svg version="1.1" xmlns:xlink="http://www.w3.org/1999/xlink" width="10px" height="6px" xmlns="http://www.w3.org/2000/svg">
  <g transform="matrix(1 0 0 1 -45 -1509 )">
    <path d="M 9.89954545454546 0.689375000000001  C 9.99227272727273 0.360000000000002  9.67409090909091 0.0472916666666663  9.24590909090909 0.0472916666666663  L 8.27954545454545 0.0472916666666663  L 8.27954545454545 1.53541666666667  L 8.3175 1.53541666666667  C 8.54068181818182 1.53541666666667  8.72340909090909 1.70291666666667  8.72340909090909 1.9075  C 8.72340909090909 2.11208333333334  8.54068181818182 2.27958333333333  8.3175 2.27958333333333  L 1.77340909090909 2.27958333333333  C 1.55022727272727 2.27958333333333  1.3675 2.11208333333334  1.3675 1.9075  C 1.3675 1.70291666666667  1.55022727272727 1.53541666666667  1.77340909090909 1.53541666666667  L 1.79886363636364 1.53541666666667  L 1.79886363636364 0.0472916666666663  L 0.845227272727271 0.0472916666666663  C 0.41681818181818 0.0472916666666663  0.0986363636363618 0.359791666666666  0.191590909090908 0.689375000000001  L 1.6775 5.95916666666667  C 1.68409090909091 5.98291666666667  1.71068181818182 5.99958333333333  1.74159090909091 5.99958333333333  L 8.40227272727273 5.99958333333333  L 9.89954545454546 0.689375000000001  Z M 7.49318181818182 4.51145833333333  C 7.71636363636364 4.51166666666667  7.89909090909091 4.67895833333333  7.89909090909091 4.88354166666667  C 7.89909090909091 5.088125  7.71636363636364 5.255625  7.49318181818182 5.255625  L 2.59772727272727 5.255625  C 2.37454545454545 5.255625  2.19181818181818 5.088125  2.19181818181818 4.88354166666667  C 2.19181818181818 4.67895833333333  2.37454545454545 4.51145833333333  2.59772727272727 4.51145833333333  L 7.49318181818182 4.51145833333333  Z M 7.87363636363636 3.02354166666667  C 8.09681818181818 3.02354166666667  8.27954545454545 3.19083333333333  8.27954545454546 3.395625  C 8.27954545454546 3.60020833333333  8.09681818181818 3.76770833333333  7.87363636363636 3.76770833333333  L 2.21727272727273 3.76770833333333  C 1.99409090909091 3.76770833333333  1.81136363636363 3.60020833333333  1.81136363636363 3.395625  C 1.81136363636363 3.19104166666667  1.99409090909091 3.02354166666667  2.21727272727273 3.02354166666667  L 7.87363636363636 3.02354166666667  Z " fill-rule="nonzero" fill="#ffffff" stroke="none" transform="matrix(1 0 0 1 45 1509 )" />
  </g>
</svg>