<?xml version="1.0" encoding="utf-8"?>
<svg version="1.1" xmlns:xlink="http://www.w3.org/1999/xlink" width="11px" height="7px" xmlns="http://www.w3.org/2000/svg">
  <g transform="matrix(1 0 0 1 -45 -1504 )">
    <path d="M 3.20527777777778 6.0672972972973  C 3.20527777777778 6.49841216216216  2.87986111111111 6.85101351351351  2.48198412698413 6.85101351351351  L 0.810376984126984 6.85101351351351  C 0.412718253968253 6.85101351351351  0.0870833333333335 6.49841216216216  0.0870833333333335 6.0672972972973  L 0.0870833333333335 5.94527027027027  C 0.0870833333333335 5.51439189189189  0.412500000000001 5.16155405405406  0.810376984126984 5.16155405405406  L 2.48198412698413 5.16155405405406  C 2.87964285714286 5.16155405405406  3.20527777777778 5.51415540540541  3.20527777777778 5.94527027027027  L 3.20527777777778 6.0672972972973  Z M 11 6.0672972972973  C 11 6.49841216216216  10.6745833333333 6.85101351351351  10.2767063492064 6.85101351351351  L 8.60509920634921 6.85101351351351  C 8.20744047619048 6.85101351351351  7.88180555555556 6.49841216216216  7.88180555555556 6.0672972972973  L 7.88180555555556 5.94527027027027  C 7.88180555555556 5.51439189189189  8.20722222222222 5.16155405405406  8.60509920634921 5.16155405405406  L 10.2767063492064 5.16155405405406  C 10.6743650793651 5.16155405405406  11 5.51415540540541  11 5.94527027027027  L 11 6.0672972972973  Z M 10.0920634920635 0.899121621621621  C 10.1394246031746 0.962736486486486  10.1839484126984 1.02942567567568  10.2206150793651 1.10060810810811  C 10.1730357142857 1.0377027027027  10.1195634920635 0.981418918918919  10.0636904761905 0.928445945945947  C 9.89783792362068 0.772266825500019  9.70749394594349 0.649561092863449  9.50168650793651 0.56614864864865  C 9.36813187006165 0.512134139209635  9.2291619790163 0.475382344039306  9.08765873015873 0.456655405405407  C 8.94753968253968 0.437972972972974  8.80676587301587 0.436790540540543  8.66773809523809 0.450506756756758  C 8.53242063492063 0.470135135135136  8.40081349206349 0.511047297297299  8.2750992063492 0.565439189189191  C 8.14916666666666 0.619831081081083  8.02912698412698 0.688412162162164  7.91585317460317 0.767871621621624  C 7.6890873015873 0.926317567567569  7.49025793650793 1.12638513513514  7.31958333333333 1.34891891891892  C 7.14890873015872 1.57192567567568  7.00573412698412 1.81787162162162  6.88809523809523 2.0772972972973  C 6.76980158730158 2.33625  6.67682539682539 2.60915540540541  6.60392857142857 2.88820945945946  C 6.45813492063492 3.44726351351351  6.39527777777777 4.03327702702703  6.38545634920635 4.62212837837838  L 4.70184523809523 4.32983108108108  C 4.79242063492063 3.98527027027027  4.89871031746031 3.64449324324324  5.02551587301587 3.3110472972973  C 5.15210317460317 2.97783783783784  5.29920634920635 2.65172297297297  5.46988095238095 2.3397972972973  C 5.64099206349206 2.02810810810811  5.83480158730159 1.72966216216216  6.05654761904762 1.45581081081081  C 6.27720238095238 1.18172297297297  6.52557539682539 0.932466216216215  6.79882936507936 0.721756756756755  C 7.07208333333333 0.511520270270269  7.37130952380952 0.340067567567566  7.68843253968254 0.228918918918918  C 7.84666666666666 0.173108108108107  8.00948412698413 0.132905405405404  8.17404761904762 0.111385135135133  C 8.33839285714285 0.0898648648648624  8.50535714285714 0.0872635135135121  8.66882936507936 0.108310810810809  C 8.82859126984127 0.123209459459458  8.98682539682539 0.155135135135134  9.1385119047619 0.205979729729728  C 9.29041666666666 0.256824324324322  9.43577380952381 0.325878378378376  9.57021825396825 0.412195945945946  C 9.70350927247721 0.497502889156854  9.82702520819494 0.599585218499896  9.93819444444444 0.716317567567567  C 9.99319444444444 0.774020270270269  10.0444841269841 0.835033783783783  10.0920634920635 0.899121621621621  Z " fill-rule="nonzero" fill="#ffffff" stroke="none" transform="matrix(1 0 0 1 45 1504 )" />
  </g>
</svg>