<?xml version="1.0" encoding="utf-8"?>
<svg version="1.1" xmlns:xlink="http://www.w3.org/1999/xlink" width="14px" height="13px" xmlns="http://www.w3.org/2000/svg">
  <g transform="matrix(1 0 0 1 -39 -1499 )">
    <path d="M 10.99021875 11.7045138888889  L 13.84403125 9.57373263888889  L 8.924125 8.76055555555556  L 10.99021875 11.7045138888889  Z M 14 0.722222222222222  C 14 1.11944444444444  13.685 1.44444444444444  13.3 1.44444444444444  L 0.7 1.44444444444444  C 0.315 1.44444444444444  0 1.11944444444444  0 0.722222222222222  C 0 0.324999999999999  0.315 0  0.7 0  L 13.3 0  C 13.685 0  14 0.325  14 0.722222222222222  Z M 14 4.57414930555556  C 14 4.97137152777778  13.685 5.29637152777778  13.3 5.29637152777778  L 0.7 5.29637152777778  C 0.315 5.29637152777778  0 4.97137152777778  0 4.57414930555556  C 0 4.17692708333333  0.315 3.85192708333333  0.7 4  L 13.3 4  C 13.685 3.85192708333333  14 4.17692708333333  14 4.57414930555556  Z M 2.821875 12.2777777777778  C 2.821875 12.675  2.506875 13  2.121875 13  L 0.7 13  C 0.315 13  0 12.675  0 12.2777777777778  C 0 11.8805555555556  0.315 11.5555555555556  0.7 11.5555555555556  L 2.121875 11.5555555555556  C 2.506875 11.5555555555556  2.821875 11.8805555555556  2.821875 12.2777777777778  Z M 5.6 8.42585069444445  C 5.6 8.82307291666667  5.285 9.14807291666667  4.9 9.14807291666667  L 0.7 9.14807291666667  C 0.315 9.14807291666667  0 8.82307291666667  0 8.42585069444445  C 0 8.02862847222222  0.315 7.70362847222222  0.7 7.70362847222222  L 4.9 7.70362847222222  C 5.285 7.70362847222222  5.6 8.02862847222222  5.6 8.42585069444445  Z " fill-rule="nonzero" fill="#ffffff" stroke="none" transform="matrix(1 0 0 1 39 1499 )" />
  </g>
</svg>