<?xml version="1.0" encoding="utf-8"?>
<svg version="1.1" xmlns:xlink="http://www.w3.org/1999/xlink" width="20px" height="20px" xmlns="http://www.w3.org/2000/svg">
  <g transform="matrix(1 0 0 1 -36 -1495 )">
    <path d="M 10 19.2857142857143  C 10 19.6801339285714  9.68013392857143 20  9.28571428571429 20  L 1.83035714285714 20  C 0.821205357142857 20  0 19.1787946428571  0 18.1696428571429  L 0 1.83035714285714  C 0 0.821205357142857  0.821205357142857 0  1.83035714285714 0  L 18.1696428571429 0  C 19.1787946428571 0  20 0.821205357142857  20 1.83035714285714  L 20 10.7142857142857  C 20 11.1087053571429  19.6801339285714 11.4285714285714  19.2857142857143 11.4285714285714  C 18.8912946428571 11.4285714285714  18.5714285714286 11.1087053571429  18.5714285714286 10.7142857142857  L 18.5714285714286 1.83035714285714  C 18.5714285714286 1.6125  18.3875 1.42857142857143  18.1696428571429 1.42857142857143  L 1.83035714285714 1.42857142857143  C 1.6125 1.42857142857143  1.42857142857143 1.6125  1.42857142857143 1.83035714285714  L 1.42857142857143 18.1696428571429  C 1.42857142857143 18.3875  1.6125 18.5714285714286  1.83035714285714 18.5714285714286  L 9.28571428571429 18.5714285714286  C 9.68013392857143 18.5714285714286  10 18.8912946428571  10 19.2857142857143  Z " fill-rule="nonzero" fill="#ffffff" stroke="none" transform="matrix(1 0 0 1 36 1495 )" />
  </g>
</svg>