<?xml version="1.0" encoding="utf-8"?>
<svg version="1.1" xmlns:xlink="http://www.w3.org/1999/xlink" width="20px" height="19px" xmlns="http://www.w3.org/2000/svg">
  <g transform="matrix(1 0 0 1 -36 -1547 )">
    <path d="M 19.5885548252667 17.7192342084344  C 19.9584997665612 17.2694253645928  19.9584997665612 16.7378331149277  19.7118697982051 16.2880242710861  L 15.9713154242534 9.94980884384167  C 15.765790461863 9.62267515346033  15.3958455205686 9.37732486890233  14.9847955957877 9.37732486890233  C 14.5737456710069 9.37732486890233  14.2038007297124 9.581783428186  13.998275767322 9.94980884384167  L 13.0939659058291 11.5036939122877  C 12.3951810292058 9.62267513109767  11.3675561947744 6.8011469816753  10.8742962805416 6.26955470964763  C 10.6276663121855 5.98331272217796  10.2166163874047 5.69707073470829  9.64114648371981 5.36993704432695  L 9.9699864415279 4.96101990339695  C 10.134406420432 5.00191160630862  10.2988263768567 5.00191160630862  10.4632463557608 5.00191162867128  C 11.8197111255209 5.00191162867128  12.9295459494043 3.89783538170427  12.9295459494043 2.54840887254192  C 12.9295459494043 1.19898236337957  11.8197111255209 0.094906116412561  10.4632463557608 0.094906116412561  C 9.10678158600059 0.094906116412561  7.99694676211721 1.19898236337957  7.99694676211721 2.54840887254192  C 7.99694676211721 3.28445970385326  8.32578669744601 3.9387271069786  8.86015161764452 4.38853592845761  L 8.53131168231571 4.79745306938761  C 7.83252680569245 4.51121108191794  7.05153193961716 4.26586079735994  6.27053705106258 4.10229394098794  L 6.10611709463782 4.10229394098794  C 4.33860240009683 4.10229394098794  3.76313249641196 4.71566961883895  3.02324259134374 5.41082874723862  L 2.85882263491899 5.57439560361062  C 2.57108768307655 5.81974588816862  2.24224774774775 6.14687957854996  2.03672276287804 6.6375801253033  L 1.58456783213156 7.78254807518198  C 1.42014785322751 8.19146519374932  1.62567281561792 8.64127403759099  2.03672276287804 8.80484089396299  L 3.84534246338469 9.581783428186  L 3.39318753263821 10.6449679498787  C 3.22876755373416 11.053885068446  3.39318753263821 11.5036939122877  3.80423747989833 11.7081524715714  L 4.05086742577511 11.830827602669  C 3.88644744687106 11.7899358997574  3.76313247393267 11.7899358997574  3.7220274904463 11.7899358997574  C 3.3931875551175 11.7490441968457  3.02324261382304 11.9535027561294  2.89992761840536 12.239744743599  L 0.145893072919368 18.0872596240901  L 1.62567283809721 18.7824187301271  L 4.09197243174076 13.5073878245754  C 4.74965232487766 13.6300629556731  5.81838214279539 13.8754132402311  6.72269198180906 14.4070054898961  C 7.3392668689803 14.7341391802774  7.38037187494596 16.8605082460254  7.0104269336515 18.5779601708434  L 8.61352167176774 18.9050938835874  C 8.73683664470612 18.2508264804621  9.23009655893898 15.5110817368631  8.36689170341166 13.875413240231  C 8.49020667635005 13.875413240231  8.61352167176774 13.8345215373194  8.69573166121976 13.793629812045  C 8.90125662361017 13.6709546809474  9.10678158600059 13.4664961216637  9.14788656948695 13.2620375400174  L 9.43562152132939 12.0352861843154  L 11.984131104425 13.1393624089197  L 10.0933014144663 16.3289159963604  C 9.84667144611022 16.7787248402021  9.84667144611022 17.2694253869554  10.0933014144663 17.7192342084344  C 10.3399313828224 18.1690430299134  10.8331912970552 18.4143933144714  11.3264512112881 18.4143933144714  L 18.355405028445 18.4143933144714  C 18.8486649426778 18.4143933144714  19.3419248569107 18.1281513270018  19.5885548252667 17.7192342084344  Z M 9.60004150023344 2.54840887254192  C 9.60004150023344 2.09860002870025  9.9699864415279 1.73057461304458  10.4221413722744 1.73057463540724  C 10.8742963030209 1.73057463540724  11.2442412443153 2.09860005106291  11.244241221836 2.54840887254192  C 11.2442411993567 2.99821769402093  10.8742962805416 3.36624313203926  10.4221413722744 3.36624313203926  C 9.96998646400719 3.36624313203926  9.60004150023344 2.99821771638359  9.60004150023344 2.54840887254192  Z M 5.20180723314485 10.604076246967  L 7.0104269336515 6.26955470964763  L 9.02457159654856 7.16917239733097  L 7.87363178917881 11.912611030855  L 5.20180723314485 10.604076246967  Z M 4.46191735055593 8.06879006265165  L 3.3931875326382 7.61898121880998  L 3.55760751154225 7.21006410024264  C 3.59871249502862 7.08738896914497  3.76313247393267 6.92382211277297  3.96865743632308 6.7193635534893  C 4.0508674257751 6.67847185057763  4.09197240926147 6.59668842239163  4.17418239871349 6.51490499420563  C 4.66744231294634 6.02420444745229  4.91407228130242 5.81974588816862  5.44843720150093 5.73796245998262  L 4.46191735055593 8.06879006265165  Z M 9.92888143556224 10.440509390595  L 10.2988263768567 8.88662432214899  C 10.5454563452128 9.5  10.8331912970552 10.1951591283997  11.079821242932 10.9312099373483  L 9.92888143556224 10.440509390595  Z M 18.0265650931161 16.7378331149278  L 11.8608161314866 16.7378331149278  L 14.9436906123014 11.5036939122877  L 18.0265650931161 16.7378331149278  Z " fill-rule="nonzero" fill="#ffffff" stroke="none" transform="matrix(1 0 0 1 36 1547 )" />
  </g>
</svg>