<?xml version="1.0" encoding="utf-8"?>
<svg version="1.1" xmlns:xlink="http://www.w3.org/1999/xlink" width="15px" height="18px" xmlns="http://www.w3.org/2000/svg">
  <g transform="matrix(1 0 0 1 -41 -1602 )">
    <path d="M 1.08610169491526 9.61249315068493  L 3.89084745762712 9.61249315068493  C 3.894944440509 9.61243428692711  3.89904181672618 9.61240485383729  3.90313924913653 9.61240485383729  C 4.35671876765605 9.61240485383729  4.72626083101116 9.9656163167961  4.7328813559322 10.4054794520548  C 4.73176139453456 10.8481103464211  4.36147357414959 11.2063585936753  3.90508723826257 11.2063585936753  C 3.9044084405571 11.2063585936753  3.90372964310916 11.2063577839108  3.90305084745763 11.2063561643836  L 1.10033898305085 11.2063561643836  C 0.642789244379562 11.2140548714547  0.265175248410135 10.8610583913143  0.256271186440679 10.4173150684931  C 0.256271186440679 9.9728241969581  0.627798960140413 9.61249315068493  1.08610169491525 9.61249315068493  C 2.19254237288136 9.61249315068493  -0.0203389830508416 9.61249315068493  1.08610169491526 9.61249315068493  Z M 1.04745762711864 5.12482191780822  L 9.58779661016949 5.12482191780822  C 9.59323988970344 5.12471748529822  9.59868410103397 5.12466526521285  9.60412844548924 5.12466526521285  C 10.0562810339568 5.12466526521285  10.4243505685164 5.47734175227414  10.4298305084746 5.91583561643836  C 10.4298321948568 5.91649639255448  10.4298330380489 5.91715717044093  10.4298330380489 5.91781794858123  C 10.4298330380489 6.36012994329504  10.0601264789262 6.71869466091  9.60407032618454 6.71869466091  C 9.60271354460906 6.71869466091  9.6013567650927 6.71869141776577  9.6 6.71868493150685  L 1.05966101694915 6.71868493150685  C 1.05487569513964 6.71876524161241  1.05008974649928 6.71880539891925  1.04530370830565 6.71880539891925  C 0.592503081457886 6.71880539891925  0.223294082408587 6.36676229738622  0.215593220338983 5.92767123287671  C 0.216713189892759 5.48395089965131  0.587911618395687 5.12481949448516  1.04542124240772 5.12481949448516  C 1.04610003807775 5.12481949448516  1.04677883349247 5.12482030226012  1.04745762711864 5.12482191780822  Z M 1.01898305084746 0.169643835616439  L 8.4406779661017 0.169643835616439  C 8.89934206207913 0.163052999114021  9.27694524422324 0.517804302263479  9.28474576271186 0.962630136986301  C 9.28251212166564 1.40698997381403  8.91105307939365 1.76637351799749  8.4528813559322 1.76745205479452  L 1.03118644067797 1.76745205479452  C 0.573311442661407 1.77294574129671  0.196954597507498 1.41851129010114  0.189152542372881 0.974465753424659  C 0.189152542372881 0.529974881889608  0.560680316072616 0.169643835616441  1.01898305084746 0.169643835616441  C 0.465762711864407 0.169643835616441  1.57220338983051 0.169643835616441  1.01898305084746 0.169643835616439  Z M 13.7715254237288 14.4512876712329  C 14.672978959604 13.5750343124151  15.0722676102333 12.3247529345308  14.8393220338983 11.1077260273973  C 14.7783050847458 10.7723835616438  14.3369491525424 10.6540273972603  14.088813559322 10.8887671232877  L 11.9898305084746 12.9225205479452  C 11.689053755924 13.2095124757579  11.206539464415 13.2095124757579  10.9057627118644 12.9225205479452  L 9.82779661016949 11.8750684931507  C 9.68333416578705 11.7368120072359  9.60201352011754 11.5481807917978  9.60201352011754 11.3513424657534  C 9.60201352011754 11.154504139709  9.68333416578705 10.9658729242709  9.82779661016949 10.8276164383562  L 11.9430508474576 8.78597260273972  C 12.191186440678 8.54728767123287  12.071186440678 8.11923287671233  11.7294915254237 8.05808219178082  C 10.4490656263131 7.8145734761199  9.12765234776267 8.2050405554904  8.20474576271186 9.09961643835616  C 7.17613291343341 10.0831655842127  6.79742141680135 11.540191447406  7.22237288135593 12.8791232876712  C 7.29503014547084 13.0871023485944  7.24339899920271 13.3169927600104  7.08813559322033 13.4768219178082  L 4.95661016949152 15.5381917808219  C 4.6616603502087 15.8272130849541  4.66166035020871 16.2926773260048  4.95661016949152 16.581698630137  L 6.04067796610169 17.6252054794521  C 6.34239233888185 17.9137263687454  6.82709918654188 17.9137263687454  7.12881355932203 17.6252054794521  L 9.27661016949152 15.552  C 9.44040444343727 15.3999968679726  9.67609287667795 15.3456795228265  9.8928813559322 15.4099726027397  C 11.2691613855245 15.8066270855481  12.7588619248285 15.4384176199398  13.7715254237288 14.4512876712329  Z " fill-rule="nonzero" fill="#ffffff" stroke="none" transform="matrix(1 0 0 1 41 1602 )" />
  </g>
</svg>