<?xml version="1.0" encoding="utf-8"?>
<svg version="1.1" xmlns:xlink="http://www.w3.org/1999/xlink" width="20px" height="22px" xmlns="http://www.w3.org/2000/svg">
  <g transform="matrix(1 0 0 1 -36 -1598 )">
    <path d="M 2.916 0.159999999999999  L 16.76 0.16  C 18.392 0.16  19.938 1.436  19.998 2.988  L 20 3.084  L 20 9.292  C 19.928 9.846  19.654 10.124  19.186 10.124  C 18.74 10.124  18.47 9.874  18.37 9.376  L 18.354 9.29  L 18.354 3.12  C 18.354 2.422  17.57 1.82  16.834 1.78  L 16.758 2  L 3.018 2  C 2.30777484828392 1.76279466392755  1.70800383468717 2.3021507871036  1.648 3.01  L 2 3.084  L 2 18.748  C 1.646 19.444  2.208 20.174  2.932 20.22  L 3.006 20.224  L 7.092 20.224  C 7.634 20.36  7.904 20.622  7.904 21.01  C 7.904 21.378  7.664 21.642  7.184 21.81  L 7.092 21.84  L 3.006 21.84  C 1.374 21.84  0.0540000000000003 20.438  0.00200000000000067 18.88  L 0 18.782  L 0 3.046  C 0 1.484  1.296 0.212  2.916 0.159999999999999  Z " fill-rule="nonzero" fill="#ffffff" stroke="none" transform="matrix(1 0 0 1 36 1598 )" />
  </g>
</svg>