<?xml version="1.0" encoding="utf-8"?>
<svg version="1.1" xmlns:xlink="http://www.w3.org/1999/xlink" width="20px" height="20px" xmlns="http://www.w3.org/2000/svg">
  <g transform="matrix(1 0 0 1 -36 -1703 )">
    <path d="M 16.8058035714286 4.69866071428572  L 16.8058035714286 4.70089285714286  L 14.1830357142857 4.70089285714286  C 13.796875 4.6875  13.5 4.35267857142857  13.5111607142857 3.96651785714286  C 13.5267857142857 3.60267857142857  13.8191964285714 3.31026785714286  14.1830357142857 3.29464285714286  L 16.8058035714286 3.29464285714286  L 16.8058035714286 1.52901785714286  C 16.8058035714286 1.14285714285714  17.0290178571429 1.04464285714286  17.3035714285714 1.31696428571429  L 19.4910714285714 3.51785714285714  C 19.765625 3.79241071428571  19.765625 4.23883928571429  19.4910714285714 4.5  L 17.2901785714286 6.70089285714286  C 17.015625 6.97544642857143  16.7924107142857 6.88839285714286  16.7924107142857 6.48883928571429  L 16.7924107142857 4.69866071428572  L 16.8058035714286 4.69866071428572  Z M 12.7946428571429 6.66517857142857  L 10.9375 8.59375  L 12.4910714285714 8.59375  C 12.8772321428571 8.60714285714286  13.1741071428571 8.94196428571429  13.1629464285714 9.328125  C 13.1473214285714 9.69196428571428  12.8549107142857 9.984375  12.4910714285714 10  L 10.7008928571429 10  L 10.7008928571429 11.2433035714286  L 12.4910714285714 11.2433035714286  C 12.8772321428571 11.2566964285714  13.1741071428571 11.5915178571429  13.1629464285714 11.9776785714286  C 13.1473214285714 12.3415178571429  12.8549107142857 12.6339285714286  12.4910714285714 12.6495535714286  L 10.7008928571429 12.6495535714286  L 10.7008928571429 15.3236607142857  C 10.6875 15.7098214285714  10.3526785714286 16.0066964285714  9.96651785714286 15.9955357142857  C 9.60267857142857 15.9799107142857  9.31026785714286 15.6875  9.29464285714286 15.3236607142857  L 9.29464285714286 12.6473214285714  L 7.51785714285714 12.6473214285714  C 7.13169642857143 12.6339285714286  6.83482142857143 12.2991071428571  6.84598214285714 11.9129464285714  C 6.86160714285714 11.5491071428571  7.15401785714286 11.2566964285714  7.51785714285714 11.2410714285714  L 9.29464285714286 11.2410714285714  L 9.29464285714286 9.99776785714286  L 7.51785714285714 9.99776785714286  C 7.13169642857143 9.984375  6.83482142857143 9.64955357142857  6.84598214285714 9.26339285714286  C 6.86160714285714 8.89955357142857  7.15401785714286 8.60714285714286  7.51785714285714 8.59151785714286  L 9.06026785714286 8.59151785714286  L 7.20758928571429 6.66517857142857  C 6.93526785714286 6.390625  6.94642857142857 5.94419642857143  7.22098214285714 5.66964285714286  C 7.49553571428572 5.39732142857143  7.94196428571429 5.40848214285714  8.21651785714286 5.68303571428571  L 10.0066964285714 7.53571428571429  L 11.7857142857143 5.68303571428571  C 12.0580357142857 5.40625  12.5022321428571 5.39955357142857  12.78125 5.66964285714286  C 13.0535714285714 5.94419642857143  13.0669642857143 6.37946428571429  12.7946428571429 6.66517857142857  Z M 19.109375 7.95982142857143  C 19.4799107142857 7.921875  19.8169642857143 8.20758928571428  19.8526785714286 8.59375  C 20.6227678571429 14.0267857142857  16.84375 19.0625  11.3973214285714 19.8348214285714  C 5.95089285714286 20.6049107142857  0.928571428571426 16.8125  0.158482142857141 11.3794642857143  C -0.613839285714286 5.94419642857143  3.18080357142857 0.90625  8.61383928571428 0.136160714285714  C 9.65848214285714 -0.0133928571428573  10.7142857142857 0.0111607142857143  11.7477678571429 0.185267857142857  C 12.1205357142857 0.285714285714286  12.34375 0.658482142857143  12.2566964285714 1.03125  C 12.15625 1.40401785714286  11.7834821428571 1.62723214285714  11.4107142857143 1.54017857142857  C 6.74776785714286 0.772321428571428  2.34598214285714 3.91741071428571  1.57589285714286 8.58035714285714  C 0.803571428571429 13.2433035714286  3.95089285714286 17.6450892857143  8.61383928571428 18.4174107142857  C 13.2767857142857 19.1897321428571  17.6785714285714 16.0424107142857  18.4486607142857 11.3794642857143  C 18.5982142857143 10.4977678571429  18.5982142857143 9.60044642857143  18.4732142857143 8.71875  C 18.4553571428571 8.53348214285714  18.5133928571429 8.35044642857143  18.6339285714286 8.20758928571428  C 18.7544642857143 8.06473214285714  18.9241071428571 7.97544642857143  19.109375 7.95982142857143  Z " fill-rule="nonzero" fill="#ffffff" stroke="none" transform="matrix(1 0 0 1 36 1703 )" />
  </g>
</svg>