<?xml version="1.0" encoding="utf-8"?>
<svg version="1.1" xmlns:xlink="http://www.w3.org/1999/xlink" width="20px" height="20px" xmlns="http://www.w3.org/2000/svg">
  <g transform="matrix(1 0 0 1 -36 -1651 )">
    <path d="M 8.6036036036036 11.697247706422  L 8.6036036036036 5.8256880733945  L 10.2252252252252 5.8256880733945  L 10.2252252252252 10.045871559633  L 12.7027027027027 10.045871559633  L 12.7027027027027 11.697247706422  L 8.6036036036036 11.697247706422  Z M 18.3637837837838 2.99600917431193  L 19.9034234234234 3.49949541284404  L 18.5155405405405 7.90224770642202  L 13.7903153153153 6.20004587155963  L 14.3295495495495 4.64729357798165  L 16.3999099099099 5.39316513761468  C 14.8899437146887 3.15815464610282  12.3937144099535 1.82650552037332  9.72972972972973 1.8348623853211  C 5.25891891891892 1.8348623853211  1.62162162162162 5.53889908256881  1.62162162162162 10.0917431192661  C 1.62162162162162 14.6445871559633  5.25891891891892 18.348623853211  9.72972972972973 18.348623853211  C 14.2005405405405 18.348623853211  17.8378378378378 14.6445871559633  17.8378378378378 10.0917431192661  L 19.4594594594595 10.0917431192661  C 19.4594594594612 15.5639163527949  15.1033110794365 19.9999940608935  9.72972972973148 19.9999940608935  C 7.14924639275187 19.9999940608935  4.67445281447509 18.9560925753729  2.84977477477478 17.0979357798165  C 1.02576293433351 15.2397332327767  0.00110338156790174 12.7199033994369  0.00110338156790174 10.0925190610537  C 0.00110338156790174 4.61988387348729  4.35761477395762 0.183436492246389  9.73164392210844 0.183436492246389  C 11.5609071663458 0.183436492246389  13.3531247668506 0.708531823036972  14.9027027027027 1.69848623853211  C 16.0782363931153 2.45163068192913  17.0824633776486 3.45149844961618  17.8483333333333 4.63133027522936  L 18.3637837837838 2.99600917431193  Z " fill-rule="nonzero" fill="#ffffff" stroke="none" transform="matrix(1 0 0 1 36 1651 )" />
  </g>
</svg>