<?xml version="1.0" encoding="utf-8"?>
<svg version="1.1" xmlns:xlink="http://www.w3.org/1999/xlink" width="20px" height="20px" xmlns="http://www.w3.org/2000/svg">
  <g transform="matrix(1 0 0 1 -36 -1755 )">
    <path d="M 12.1857309649123 2.47719296052632  L 12.1894736842105 2.47719298245614  C 11.9387134429825 3.00865497807018  11.8077192982456 3.59625730263158  11.8077192982456 4.20257309210526  C 11.8077192982456 5.28421052631579  12.2269005921053 6.29473684210526  12.9904093640351 7.05824561403509  C 13.7501754385965 7.81801168859649  14.7644444517544 8.24093567982456  15.8460818859649 8.24093567982456  C 16.4523976754386 8.24093567982456  17.0400000219298 8.10994153508772  17.571461995614 7.85543859649123  C 16.852865504386 8.58152046052632  15.8872514692982 8.97450291666667  14.8729824561404 8.97450291666667  C 14.6072514692982 8.97450291666667  14.3415204605263 8.94456140350877  14.0832748464912 8.89216372807017  C 13.66783625 8.80233916666667  13.2261988157895 8.93333331140351  12.9230409210526 9.23649120614035  L 5.56491228070175 16.5908771929825  C 5.52748537280702 15.4418713377193  4.59929824561404 14.5174269078947  3.45029239035088 14.4762573026316  L 10.8009356578947 7.1218713377193  C 11.1040935526316 6.81871344298246  11.2350876973684 6.38456140350877  11.1452631359649 5.9616374122807  C 10.8795321491228 4.69286548245614  11.2650292105263 3.38666664473684  12.1857309649123 2.47719296052632  Z M 12.6610526315789 14.3789473684211  L 13.4732163815789 13.5667836184211  L 17.5153216447368 17.6088888815789  C 17.7398830482456 17.8334502850877  17.7398830482456 18.2002339035088  17.5153216447368 18.4210526315789  C 17.2945029385965 18.6418713377193  16.923976622807 18.6418713377193  16.7031578947368 18.4210526315789  L 12.6610526315789 14.3789473684211  Z M 14.3639766008772 0.152982456140351  C 14.2704093421053 0.152982456140351  14.1730994078947 0.164210526315789  14.0757894736842 0.175438596491228  C 11.2126315789474 0.624561403508772  9.30760234649123 3.37543859649123  9.90643274122807 6.22736842105263  L 1.42175438596491 14.7157894736842  C 0.340116951754386 15.7936842105263  0.340116951754386 17.5490058552632  1.42175438596491 18.6231578947368  C 2.4959064254386 19.6973099342105  4.25871344298246 19.6973099342105  5.32912280701754 18.6231578947368  L 13.8175438596491 10.1347368421053  C 16.6694736842105 10.7298245614035  19.4240935745614 8.83228070175439  19.8657309868421 5.96538010964912  C 19.9742689912281 5.27672513157895  19.6973099342105 4.8837426754386  19.3342689912281 4.8837426754386  C 19.1658479385965 4.8837426754386  18.9824561184211 4.96608186403509  18.802806995614 5.14198828947368  L 17.7922806798246 6.15251460526316  C 16.7181286403509 7.22666664473684  14.955321622807 7.22666664473684  13.8811695614035 6.15251460526316  C 12.799532127193 5.07087717105263  12.799532127193 3.31929822368421  13.8811695614035 2.24140348684211  C 13.8811695614035 2.24140348684211  14.3340350657895 1.78853798245614  14.891695877193 1.23087717105263  C 15.3969590570175 0.72935673245614  15.1461988377193 0.14923975877193  14.3639766008772 0.152982456140351  Z M 4.03040936403509 17.320701754386  C 3.66736842105263 17.68  3.08350877192983 17.68  2.72421052631579 17.320701754386  C 2.14035087719298 16.7368421052632  2.56701754385965 15.7487719298246  3.37543859649123 15.7487719298246  C 4.18385964912281 15.7487719298246  4.61801168859649 16.7368421052632  4.03040936403509 17.320701754386  Z M 1.41426901315789 1.0138011622807  L 0.108070175438596 2.31625730263158  L 1.73614035087719 4.59929824561404  L 3.10222221491228 5.3178947368421  L 6.29847951754386 8.51415203947368  L 7.60093565789474 7.21169589912281  L 4.41216375 4.01169589912281  L 3.69356725877193 2.64561403508772  L 1.41426901315789 1.0138011622807  Z M 13.1476023464912 12.0959064254386  L 11.1939181359649 14.0495906359649  C 11.0142690131579 14.2292397587719  11.0142690131579 14.5211695833333  11.1939181359649 14.7008187061404  L 15.8086549780702 19.3155555482456  C 16.5272514692982 20.0304093421053  17.6987134649123 20.0341520394737  18.4173099561404 19.3155555482456  C 19.1359064473684 18.5969590570175  19.1359064473684 17.4254970614035  18.4173099561404 16.7069005701754  L 13.8025730921053 12.09216375  C 13.6191812938597 11.912514627193  13.3309941447368 11.912514627193  13.1476023464912 12.0959064254386  Z " fill-rule="nonzero" fill="#ffffff" stroke="none" transform="matrix(1 0 0 1 36 1755 )" />
  </g>
</svg>