<?xml version="1.0" encoding="utf-8"?>
<svg version="1.1" xmlns:xlink="http://www.w3.org/1999/xlink" width="20px" height="20px" xmlns="http://www.w3.org/2000/svg">
  <g transform="matrix(1 0 0 1 -36 -1805 )">
    <path d="M 19.898907 9.98774304433594  C 19.8989070222656 15.4607484666016  15.4472976666016 19.9135403111328  9.97310977773438 19.9135403111328  C 4.50130962207031 19.9135403111328  0.0479037777343749 15.4607257111328  0.0479037777343749 9.98774306660156  C 0.0479037777343749 4.51476042207031  4.50130962226562 0.061945822265625  9.97310977773438 0.061945822265625  L 9.97310977773438 1.30267046660156  C 5.18467348886719 1.30267046660156  1.2880372 5.19869277773438  1.2880372 9.98774304433594  C 1.2880372 14.7767705777344  5.18467351113281 18.6728156220703  9.97310977773438 18.6728156222656  C 14.7615233333984 18.6728156222656  18.6581823554688 14.7767705556641  18.6581823556641 9.98774304433594  L 19.898907 9.98774304433594  Z M 16.1500816222656 2.21682402226562  L 15.3770761111328 3.18737308886719  C 14.7130640888672 2.66153013320312  13.9836514222656 2.23440213320313  13.2033690888672 1.92302142226563  L 13.4359779556641 1.33596202226562  L 13.2009131556641 1.9218162  C 12.1758787113281 1.51106108886719  11.0902418 1.30267046660156  9.97310977773438 1.30267046660156  L 9.97310977773438 0.061945822265625  C 11.2477854666016 0.061945822265625  12.4908978220703 0.300035066601562  13.6637659111328 0.770141933398437  C 14.5555431554688 1.12757142226563  15.3915615777344 1.61402844453125  16.1500816222656 2.21682402226562  Z " fill-rule="nonzero" fill="#ffffff" stroke="none" transform="matrix(1 0 0 1 36 1805 )" />
  </g>
</svg>