<?xml version="1.0" encoding="utf-8"?>
<svg version="1.1" xmlns:xlink="http://www.w3.org/1999/xlink" width="16px" height="16px" xmlns="http://www.w3.org/2000/svg">
  <g transform="matrix(1 0 0 1 -650 -2236 )">
    <path d="M 15.809900990099 4.55643564356436  C 15.9346534653465 3.81188118811881  15.6851485148515 3.04554455445545  15.150495049505 2.50891089108911  L 13.0415841584158 0.401980198019802  C 12.7841584158416 0.144554455445544  12.439603960396 0  12.0752475247525 0  C 11.7108910891089 0  11.3663366336634 0.142574257425743  11.1089108910891 0.401980198019802  L 8.83762376237624 2.66930693069307  C 8.58019801980198 2.92673267326733  8.43564356435644 3.27326732673267  8.43564356435644 3.63762376237624  C 8.43564356435644 4.0039603960396  8.57821782178218 4.34653465346535  8.83762376237624 4.6059405940594  L 10.6118811881188 6.38217821782178  C 10.2039603960396 7.32871287128713  9.62970297029703 8.17623762376238  8.9009900990099 8.9029702970297  C 8.17425742574258 9.63366336633663  7.32475247524753 10.209900990099  6.38217821782178 10.6178217821782  L 4.60792079207921 8.84158415841584  C 4.35049504950495 8.58415841584158  4.00594059405941 8.43960396039604  3.64158415841584 8.43960396039604  C 3.27524752475248 8.43960396039604  2.93267326732673 8.58217821782178  2.67524752475248 8.84158415841584  L 0.401980198019802 11.1089108910891  C 0.144554455445544 11.3663366336634  0 11.7128712871287  0 12.0772277227723  C 0 12.4435643564356  0.142574257425743 12.7861386138614  0.401980198019802 13.0455445544554  L 2.50891089108911 15.1524752475248  C 2.94851485148515 15.5920792079208  3.55445544554455 15.8435643564356  4.17623762376238 15.8435643564356  C 4.30495049504951 15.8435643564356  4.42970297029703 15.8336633663366  4.55643564356436 15.8118811881188  C 7.17821782178218 15.380198019802  9.78019801980199 13.9841584158416  11.8811881188119 11.8851485148515  C 13.980198019802 9.78217821782178  15.3742574257426 7.18019801980198  15.809900990099 4.55643564356436  Z M 14.1425742574257 3.51287128712871  C 14.3564356435644 3.72673267326733  14.4554455445545 4.02772277227723  14.4059405940594 4.32079207920792  C 14.019801980198 6.65544554455446  12.7643564356436 8.98415841584159  10.8732673267327 10.8752475247525  C 8.98217821782179 12.7663366336634  6.65544554455446 14.0217821782178  4.32079207920792 14.4079207920792  C 4.02772277227723 14.4574257425743  3.72673267326733 14.3584158415842  3.51287128712871 14.1465346534653  L 1.44356435643564 12.0772277227723  L 3.63762376237624 9.88118811881188  L 6.00990099009901 12.2574257425743  L 6.02772277227723 12.2752475247525  L 6.45544554455446 12.1168316831683  C 9.08316831683169 11.1485148514851  11.1465346534654 9.08514851485148  12.1128712871287 6.45742574257426  L 12.2712871287129 6.02970297029703  L 9.87920792079208 3.63960396039604  L 12.0732673267327 1.44356435643564  L 14.1425742574257 3.51287128712871  Z " fill-rule="nonzero" fill="#1e87f0" stroke="none" transform="matrix(1 0 0 1 650 2236 )" />
  </g>
</svg>