<?xml version="1.0" encoding="utf-8"?>
<svg version="1.1" xmlns:xlink="http://www.w3.org/1999/xlink" width="46px" height="46px" xmlns="http://www.w3.org/2000/svg">
  <g transform="matrix(1 0 0 1 -1753 -1329 )">
    <path d="M 29.8704044117647 23  C 29.8704044117647 26.7944450827206  26.7944450827206 29.8704044117647  23 29.8704044117647  C 19.2055549172794 29.8704044117647  16.1295955882353 26.7944450827206  16.1295955882353 23  C 16.1295955882353 19.2055549172794  19.2055549172794 16.1295955882353  23 16.1295955882353  C 26.7944450827206 16.1295955882353  29.8704044117647 19.2055549172794  29.8704044117647 23  Z M 12.4301470588235 23  C 12.4301470588235 28.83759765625  17.16240234375 33.5698529411765  23 33.5698529411765  C 28.83759765625 33.5698529411765  33.5698529411765 28.83759765625  33.5698529411765 23  C 33.5698529411765 17.16240234375  28.83759765625 12.4301470588235  23 12.4301470588235  C 17.16240234375 12.4301470588235  12.4301470588235 17.16240234375  12.4301470588235 23  Z M 41.7795237821691 28.4516659007353  L 41.7778722426471 28.4552332261029  C 41.7666137212494 28.4796396776063  41.7571420176623 28.504831318149  41.7495318244485 28.5306094898897  C 39.8904928280599 34.8327403517382  34.9897874518693 39.7793861179464  28.7052763097426 41.6971449908088  C 28.6791819852941 41.7050723805147  28.6540785845588 41.7148494944853  28.6300982306985 41.7262120863971  L 28.6265969669118 41.7278636259191  C 28.3959759880515 41.839111328125  28.268212890625 42.1001866957721  28.3382381663603 42.3539952895221  L 29.0424546185662 44.9071432674632  C 29.1200769761029 45.1884995404412  29.4112764246323 45.3543141084559  29.6908490349265 45.2702837775735  C 37.244531639 43.0009519918771  43.1329514951574 37.0573442100357  45.3317210477941 29.4828211167279  C 45.4131089154412 29.2025218290441  45.2446518841912 28.912841796875  44.9625689338235 28.8378619025735  L 42.4029469209559 28.1574936810662  C 42.1484777113971 28.0898466222426  41.8886575137868 28.2200539981618  41.7795237821691 28.4516659007353  Z M 4.16676815257353 28.4516659007353  C 4.16734581237352 28.4528422521646  4.16789646976927 28.4540316721395  4.16841969209559 28.4552332261029  C 4.17958409926471 28.4792796415441  4.18909696691176 28.5044491038603  4.196826171875 28.5306094898897  C 6.05574841530074 34.8328093544773  10.956500455378 39.7795022220107  17.2410816865809 41.6971449908088  C 17.2671099494485 41.7050723805147  17.2922133501838 41.7148494944853  17.3161937040441 41.7262120863971  L 17.3197610294118 41.7278636259191  C 17.5503159466912 41.839111328125  17.6780790441176 42.1001866957721  17.6081198299632 42.3539952895221  L 16.9039033777573 44.9071432674632  C 16.8262810202206 45.1884995404412  16.5350155101103 45.3543141084559  16.2555089613971 45.2702837775735  C 8.70180099222423 43.0009711352798  2.81335305116866 37.0573601090578  0.614570886948526 29.4828211167279  C 0.533183019301467 29.2025218290441  0.701706112132349 28.912841796875  0.983789062499996 28.8378619025735  L 3.54341107536764 28.1574936810662  C 3.79781422334558 28.0898466222426  4.05770048253676 28.2200539981618  4.16676815257353 28.4516659007353  Z M 41.7795237821691 17.5040728400735  L 41.7778722426471 17.5005055147059  C 41.7666137212494 17.4760990632026  41.7571420176623 17.4509074226598  41.7495318244485 17.4251292509191  C 39.8904928280599 11.1229983890706  34.9897874518693 6.17635262286243  28.7052763097426 4.25859375  C 28.6795358234249 4.25076786334453  28.654408179984 4.24105243002819  28.6300982306985 4.22952665441177  L 28.6265969669118 4.22787511488971  C 28.3959759880515 4.11662741268382  28.268212890625 3.85555204503676  28.3382381663603 3.60174345128676  L 29.0424546185662 1.04859547334559  C 29.1200769761029 0.767239200367648  29.4112764246323 0.60142463235294  29.6908490349265 0.685454963235296  C 37.244531639 2.95478674893169  43.1329514951574 8.89839453077311  45.3317210477941 16.4729176240809  C 45.4131089154412 16.7532169117647  45.2446518841912 17.0428969439338  44.9625689338235 17.1178768382353  L 42.4029469209559 17.7982450597426  C 42.1484777113971 17.8658921185662  41.8886575137868 17.7356847426471  41.7795237821691 17.5040728400735  Z M 4.16676815257353 17.5040728400735  C 4.16734581237352 17.5028964886442  4.16789646976927 17.5017070686693  4.16841969209559 17.5005055147059  C 4.17958409926471 17.4764590992647  4.18909696691176 17.4512896369485  4.196826171875 17.4251292509191  C 6.05574841530074 11.1229293863315  10.956500455378 6.17623651879809  17.2410816865809 4.25859375  C 17.2671099494485 4.25066636029412  17.2922133501838 4.24088924632353  17.3161937040441 4.22952665441177  L 17.3197610294118 4.22787511488971  C 17.5503159466912 4.11662741268382  17.6780790441176 3.85555204503676  17.6081198299632 3.60174345128676  L 16.9039033777573 1.04859547334559  C 16.8262810202206 0.767239200367648  16.5350155101103 0.60142463235294  16.2555089613971 0.685454963235296  C 8.70180099222423 2.95476760552897  2.81335305116866 8.89837863175098  0.614570886948526 16.4729176240809  C 0.533183019301467 16.7532169117647  0.701706112132349 17.0428969439338  0.983789062499996 17.1178768382353  L 3.54341107536764 17.7982450597426  C 3.79781422334558 17.8658921185662  4.05770048253676 17.7356847426471  4.16676815257353 17.5040728400735  Z " fill-rule="nonzero" fill="#ff515c" stroke="none" transform="matrix(1 0 0 1 1753 1329 )" />
  </g>
</svg>