<?xml version="1.0" encoding="utf-8"?>
<svg version="1.1" xmlns:xlink="http://www.w3.org/1999/xlink" width="60px" height="60px" xmlns="http://www.w3.org/2000/svg">
  <g transform="matrix(1 0 0 1 -1631 -1432 )">
    <path d="M 26.304591235871 42.0940649725731  L 29.3281075257646 42.0940649725731  C 30.5039194024269 42.0940649725731  31.6797312790891 41.0862262300532  31.6797312167553 39.7424412192487  L 31.6797312167553 35.0391937125997  L 39.2385218168218 35.0391937125997  C 43.4378499210439 35.0391937125997  47.1332586851729 33.5274355676529  49.4848824384973 30.8398656083777  C 51.6685330576795 28.4882418550532  52.8443449343417 25.2967524933511  53.1802911402926 21.4333706574136  C 57.5475923786569 20.5935050490359  59.7312429978391 17.9059350274269  59.7312429978391 13.5386337890625  C 59.3952967295545 3.96416570395612  50.1567749127327 0.268756939827126  44.2777155917553 1  L 15.890257542387 1  C 9.50727881898271 0.268757002160902  0.268757002160905 6.81970885970745  0.268757002160905 16.8980962849069  L 0.268757002160905 21.2653975232713  C 0.268757002160905 23.1131018741689  1.78051514710771 24.6248600191157  3.62821949800532 24.6248600191157  L 4.63605824052527 24.6248600191157  C 4.97200450880984 30.6718924742354  8.49944007646277 35.0391937125997  13.370660717254 35.0391937125997  L 18.9137737699468 35.0391937125997  L 18.9137737699468 39.7424412192487  C 18.9137737699468 40.9182530959109  19.9216125124668 42.0940649725731  21.2653975232713 42.0940649725731  L 23.9529675448803 42.0940649725731  L 23.9529675448803 43.9417693234707  C 23.9529675448803 47.9731242935505  27.3124300407247 51.332586789395  31.3437850108045 51.332586789395  L 33.5274356299867 51.332586789395  L 33.5274356299867 55.3639417594747  C 33.5274356299867 57.7155655127992  35.5431131150266 59.7312429978391  37.8947368683511 59.7312429978391  L 45.7894736743684 59.7312429978391  C 48.1410974276928 59.7312429978391  50.1567749127327 57.7155655127992  50 55.3639417594747  L 50 44.9496080659907  C 50.1567749127327 42.5979843126662  48.1410974276928 40.5823068276263  45.7894736743684 40.5823068276263  L 37.8947368683511 40.5823068276263  C 35.5431131150266 40.5823068276263  33.5274356299867 42.5979843126662  33.5274356299867 44.9496080659907  L 33.5274356299867 48.9809630360705  L 31.3437850108045 48.9809630360705  C 28.6562150515293 48.9809630360705  26.3045912982048 46.7973124168883  26.304591235871 43.9417693234708  L 26.304591235871 42.0940649725731  Z M 35.8790593209774 48.9809630360705  L 35.8790593209774 44.9496080659907  C 35.8790593209774 43.7737961893285  36.7189249293551 42.9339305809508  37.8947368683511 42.9339305809508  L 45.7894736743684 42.9339305809508  C 46.9652855510306 42.9339305809508  47.8051511594083 43.7737961893285  47 44.9496080659907  L 47 55.3639417594747  C 47.8051511594083 56.539753636137  46.9652855510306 57.3796192445146  45.7894736743684 57.3796192445146  L 37.8947368683511 57.3796192445146  C 36.7189249916888 57.3796192445146  35.8790593833112 56.539753636137  35.8790593209774 55.3639417594747  L 35.8790593209774 51.332586789395  L 40.7502799617686 51.332586789395  C 41.422172436004 51.332586789395  41.9260918384309 50.8286673869681  41.9260918384309 50.1567749127327  C 41.9260918384309 49.4848824384973  41.422172436004 48.9809630360705  40.7502799617686 48.9809630360705  L 35.8790593209774 48.9809630360705  Z M 13.370660717254 32  C 9.84322508726729 32.6875699592753  7.32362826213431 29.3281074634308  6.98768199384973 25  L 25.4647256274934 25  C 27.312429978391 24.4568868849734  29.1601343916223 23.784994410738  30.6718924742354 22.6091825340758  C 31.1758118766622 24.4568868849734  32.1836506191822 26.1366181640625  33.695408764129 27.3124300407247  C 35.3751399808843 28.8241881856715  37.7267637342088 29.6640537940492  39.910414353391 29.6640537317154  L 41.0862262300532 29.6640537317154  C 45.6215006025598 28.8241881233378  48.3090705618351 24.9608062250665  48.3090705618351 19.0817469040891  C 48.3090705618351 14.5464725315824  47.4692049534574 11.3549831698803  42.9339305809508 7.99552073636968  C 43.6058230551862 7.65957446808511  44.4456887258976 7.32362826213431  45.4535274060838 6.98768199384973  C 46.1254198803192 6.81970885970745  46.4613661486037 6.14781638547208  46.2933930767952 5.47592384890293  C 46.1254199426529 4.80403137466755  45.4535274684176 4.46808510638298  44.7816349318484 4.63605824052526  C 42.9339305809508 5.13997764295213  41.422172436004 5.97984325132979  40.2463605593418 6.98768199384973  L 40.0783874875332 7.15565506565825  C 38.3986562707779 8.49944007646277  37.0548712599734 10.5151175615027  35.5431131150266 13.370660717254  C 33.3594624958444 17.5699888214761  29.3281075257646 22.1052631939827  25.4647256274934 23  L 3.62821949800533 23  C 3.12430009557847 22.1052631316489  2.62038075548538 21.6013437292221  2.62038075548538 21.097424389129  L 2.62038075548538 16.7301231507646  C 2.62038075548538 7.9955206740359  10.5151176238364 2.45240755900931  15.890257542387 3  L 44.2777155917553 3  C 47.6371780875997 2.45240762134309  57.0436730385638 4.46808510638298  57.3796192445146 13.370660717254  C 57.3796192445146 16.3941769448138  56.2038073678524 18.0739082239029  53.1802911402926 18.9137737699468  C 53.1802911402926 17.9059350274269  53.1802911402926 16.7301231507646  53.0123180061503 15.7222844082447  C 53.0123180061503 15.0503919340093  52.3404255319149 14.5464725315825  51.6685330576795 14.7144456657247  C 50.9966405834442 14.7144456657247  50.4927211810173 15.3863381399601  50.6606943151596 16.0582306765293  C 51.332586789395 21.6013437915558  50.1567749127327 26.304591235871  47.637178025266 29.1601343916223  C 45.6215005402261 31.5117581449468  42.7659574468085 32.687570021609  39.0705486826795 32  L 13.370660717254 32  Z M 33.0235162275598 21.097424389129  C 34.7032474443152 19.0817469040891  36.3829787234043 16.7301231507646  37.5587906000665 14.5464725939162  C 38.7346024767287 12.1948488405918  39.7424412192487 10.6830907579787  40.9182530959109 9.675251953125  C 45.117581200133 12.5307950465426  45.9574468085106 15.0503919340093  45.9574468085106 19.2497200382314  C 45.9574468085106 23.9529675448803  44.109742457613 26.9764837724402  40.7502799617686 27.4804031125332  C 38.7346024767287 27.6483762466755  36.8868981258311 27.1444568442487  35.3751399808843 25.8006718957779  C 34.0313549700798 24.6248600191157  33.0235162275598 22.7771556682181  33.0235162275598 21.097424389129  Z M 21.2653975232713 39.7424412192487  L 21.2653975232713 35.0391937125997  L 29.1601343916223 35.0391937125997  L 29.1601343916223 39.7424412192487  L 25.1287794215426 39.7424412192487  L 24.9608062874003 39.7424412192487  L 21.2653975232713 39.7424412192487  Z " fill-rule="nonzero" fill="#3afffa" stroke="none" transform="matrix(1 0 0 1 1631 1432 )" />
  </g>
</svg>