<?xml version="1.0" encoding="utf-8"?>
<svg version="1.1" xmlns:xlink="http://www.w3.org/1999/xlink" width="60px" height="60px" xmlns="http://www.w3.org/2000/svg">
  <g transform="matrix(1 0 0 1 -1746 -1322 )">
    <path d="M 56.1008522727273 30  C 56.1008522727273 44.4151278409091  44.4151278409091 56.1008522727273  30 56.1008522727273  C 15.5848721590909 56.1008522727273  3.89914772727273 44.4151278409091  3.89914772727273 30  C 3.89914772727273 15.5848721590909  15.5848721590909 3.89914772727273  30 3.89914772727273  C 44.4151278409091 3.89914772727273  56.1008522727273 15.5848721590909  56.1008522727273 30  Z M 0.170454545454545 30  C 0.170454545454545 46.4744318181818  13.5255681818182 59.8295454545455  30 59.8295454545455  C 46.4744318181818 59.8295454545455  59.8295454545455 46.4744318181818  59.8295454545455 30  C 59.8295454545455 13.5255681818182  46.4744318181818 0.170454545454545  30 0.170454545454545  C 13.5255681818182 0.170454545454545  0.170454545454545 13.5255681818182  0.170454545454545 30  Z " fill-rule="nonzero" fill="#ff515c" stroke="none" transform="matrix(1 0 0 1 1746 1322 )" />
  </g>
</svg>