<?xml version="1.0" encoding="utf-8"?>
<svg version="1.1" xmlns:xlink="http://www.w3.org/1999/xlink" width="34px" height="33px" xmlns="http://www.w3.org/2000/svg">
  <g transform="matrix(1 0 0 1 -1758 -1336 )">
    <path d="M 1.35382421875 11.6290222167969  C 2.83073511985805 6.57625665690555  6.51825813070181 2.4874969455016  11.35872265625 0.535498046875001  C 11.7711180252607 0.369200151429857  12.1897983850617 0.219298851390838  12.61380078125 0.086138916015627  C 12.89403515625 -0.00187988281249707  13.186953125 0.166638183593753  13.2651796875 0.4525146484375  L 13.98090625 3.0677001953125  C 14.05103125 3.32410278320313  13.92459375 3.58768920898438  13.69622265625 3.70457763671875  C 13.6696009151137 3.71824808715796  13.641930148765 3.72972137356016  13.61348046875 3.73888549804688  C 9.4745756222297 5.07939970409583  6.24871608667383 8.3863210017977  4.98026953125 12.5890380859375  C 4.97156452566585 12.6179386882938  4.96059489307134 12.6460918036205  4.94746484375 12.6732299804688  C 4.83497265625 12.9056640625  4.5760546875 13.0371215820313  4.32151953125 12.9697814941406  L 1.72516796875 12.2824829101563  C 1.44134765625 12.2073547363281  1.27068359375 11.9134887695313  1.35382421875 11.6290222167969  Z M 33.9682578125 11.6290222167969  C 32.4913610628142 6.57627083096225  28.8038648891899 2.4875137383072  23.96342578125 0.535498046875001  C 23.5510040758189 0.3692105847824  23.1323020047355 0.219309442669548  22.70828125 0.086138916015627  C 22.42811328125 -0.00187988281249707  22.13512890625 0.166638183593753  22.05690234375 0.4525146484375  L 21.34117578125 3.0677001953125  C 21.27105078125 3.32410278320313  21.39748828125 3.58768920898438  21.625859375 3.70457763671875  C 21.65215625 3.71807250976563  21.67978125 3.72955322265625  21.7086015625 3.73888549804688  C 25.8475064090203 5.07939970409583  29.0733659445762 8.3863210017977  30.3418125 12.5890380859375  C 30.3507109375 12.6183776855469  30.36166796875 12.6464416503906  30.3746171875 12.6732299804688  C 30.487109375 12.9056640625  30.74602734375 13.0371215820313  31.00062890625 12.9697814941406  L 33.5969140625 12.2824829101563  C 33.880734375 12.2073547363281  34.0513984375 11.9134887695313  33.9682578125 11.6290222167969  Z M 5.55308984375 28.59892578125  C 7.20152541570586 30.2887415561546  9.17824879483383 31.6150797918947  11.35872265625 32.4943786621094  C 11.7711180252607 32.6606765575545  12.1897983850617 32.8105778575935  12.61380078125 32.9437377929687  C 12.89403515625 33.0317565917969  13.186953125 32.8633056640625  13.2651796875 32.5773620605469  L 13.98090625 29.9621765136719  C 14.05103125 29.7058410644531  13.92459375 29.4422546386719  13.69622265625 29.3252990722656  C 13.6696009151137 29.3116286218264  13.641930148765 29.3001553354242  13.61348046875 29.2909912109375  C 9.47456332571407 27.950497229114  6.24869591470888 24.6435678580628  4.98026953125 20.4408386230469  C 4.97156440089093 20.411959786335  4.96059471755057 20.3838289915252  4.94746484375 20.3567138671875  C 4.83497265625 20.1242126464844  4.5760546875 19.9927551269531  4.32151953125 20.0600952148438  L 1.72516796875 20.7474609375  C 1.44134765625 20.8225891113281  1.27068359375 21.1163879394531  1.35382421875 21.4008544921875  C 2.14657545831753 24.1129396390738  3.58895871358503 26.5853665881467  5.55308984375 28.59892578125  Z M 29.7689921875 28.59892578125  C 28.120568654972 30.2887248223005  26.1438705475648 31.6150612722288  23.96342578125 32.4943786621094  C 23.5510040758189 32.660666124202  23.1323020047355 32.8105672663148  22.70828125 32.9437377929687  C 22.42811328125 33.0317565917969  22.13512890625 32.8633056640625  22.05690234375 32.5773620605469  L 21.34117578125 29.9621765136719  C 21.27105078125 29.7058410644531  21.39748828125 29.4422546386719  21.625859375 29.3252990722656  C 21.6524916194391 29.3116518154159  21.6801605109385 29.3001793063931  21.7086015625 29.2909912109375  C 25.8475187055359 27.950497229114  29.0733861165411 24.6435678580628  30.3418125 20.4408386230469  C 30.3507109375 20.4115661621094  30.36166796875 20.3834350585938  30.3746171875 20.3567138671875  C 30.487109375 20.1242126464844  30.74602734375 19.9927551269531  31.00062890625 20.0600952148438  L 33.5969140625 20.7474609375  C 33.880734375 20.8225891113281  34.0513984375 21.1163879394531  33.9682578125 21.4008544921875  C 33.1755065729325 24.1129396390738  31.733123317665 26.5853665881467  29.7689921875 28.59892578125  Z " fill-rule="nonzero" fill="#ff515c" stroke="none" transform="matrix(1 0 0 1 1758 1336 )" />
  </g>
</svg>