<?xml version="1.0" encoding="utf-8"?>
<svg version="1.1" xmlns:xlink="http://www.w3.org/1999/xlink" width="60px" height="44px" xmlns="http://www.w3.org/2000/svg">
  <g transform="matrix(1 0 0 1 -1747 -1432 )">
    <path d="M 43.5 21.4689655172414  C 43.95 13.351724137931  30.3 0.379310344827585  30 0.0758620689655183  L 30 0.303448275862069  L 30 0.0758620689655183  C 29.7 0.379310344827588  16.05 13.2758620689655  16.5 21.4689655172414  C 16.725 28.751724137931  22.8 34.4413793103448  29.925 34.2137931034483  L 30 34.2137931034483  C 37.2 34.4413793103448  43.2 28.751724137931  43.5 21.4689655172414  Z M 30 2.6551724137931  C 30 2.6551724137931  41.925 14.3379310344828  41.475 21.4689655172414  C 41.25 27.6137931034483  36.15 32.4689655172414  30 32.3172413793103  C 23.925 32.4689655172414  18.75 27.6137931034483  18.6 21.4689655172414  C 18.075 14.4137931034483  30 2.6551724137931  30 2.6551724137931  Z M 20.175 18.0551724137931  C 19.875 19.1172413793103  19.65 20.2551724137931  19.65 21.3172413793103  C 19.8 26.9310344827586  24.45 31.3310344827586  30 31.1793103448276  C 34.65 31.1034482758621  38.7 27.9931034482759  39.975 23.4413793103448  C 37.575 21.6965517241379  31.575 22.151724137931  31.575 22.151724137931  C 27.45 22.0758620689655  23.4 20.6344827586207  20.175 18.0551724137931  Z M 15.225 42.5586206896552  L 15 42.5586206896552  L 14.7 42.5586206896552  L 15.225 42.5586206896552  Z M 58.575 40.7379310344828  L 58.2 40.5862068965517  L 58.575 40.7379310344828  Z M 1.79999999999999 40.5862068965517  L 1.42499999999999 40.7379310344828  L 1.79999999999999 40.5862068965517  Z M 6.22499999999999 39.0689655172414  L 6.82499999999999 39.0689655172414  L 6.22499999999999 39.0689655172414  Z " fill-rule="nonzero" fill="#3afffa" stroke="none" transform="matrix(1 0 0 1 1747 1432 )" />
  </g>
</svg>