<?xml version="1.0" encoding="utf-8"?>
<svg version="1.1" xmlns:xlink="http://www.w3.org/1999/xlink" width="60px" height="8px" xmlns="http://www.w3.org/2000/svg">
  <g transform="matrix(1 0 0 1 -1747 -1476 )">
    <path d="M 9.95121951219511 1.91999999999999  C 8.92682926829267 1.28  7.60975609756097 0.8  6.36585365853658 0.8  C 5.63414634146341 0.8  4.90243902439024 0.960000000000002  4.17073170731707 1.28  L 0 3.04  L 0.731707317073171 5.44  L 4.17073170731707 3.6  C 4.90243902439024 3.28  5.63414634146341 3.12  6.36585365853658 3.12  C 7.68292682926829 3.12  9 3.6  10.0243902439024 4.56  L 11.0487804878049 5.44  C 12.1463414634146 6.4  13.390243902439 6.88000000000001  14.7073170731707 6.88000000000001  C 16.0243902439024 6.88000000000001  17.2682926829268 6.4  18.3658536585366 5.44  C 19.4634146341463 4.48  20.7073170731707 4  22.0243902439024 4  C 23.3414634146341 4  24.5853658536585 4.48  25.6829268292683 5.36  C 26.780487804878 6.32  28.0243902439024 6.72  29.3414634146341 6.72  C 30.6585365853659 6.72  31.9024390243902 6.24  33 5.28  C 34.0975609756098 4.32  35.3414634146341 3.84  36.6585365853659 3.84  C 37.9756097560976 3.84  39.219512195122 4.32  40.3170731707317 5.28  C 41.4146341463415 6.24  42.6585365853659 6.72  43.9756097560976 6.72  C 45.2926829268293 6.72  46.5365853658537 6.24  47.6341463414634 5.28  L 48.6585365853659 4.4  C 49.6829268292683 3.44  51 2.96  52.3170731707317 2.96  C 53.0487804878049 2.96  53.7804878048781 3.12  54.5121951219512 3.44  L 57.9512195121951 5.28  L 58.6829268292683 2.88  L 54.5121951219512 1.04  C 53.7804878048781 0.719999999999993  53.0487804878049 0.560000000000002  52.3170731707317 0.560000000000002  C 51 0.560000000000002  49.6829268292683 1.04  48.6585365853659 1.91999999999999  L 47.5609756097561 3.04  C 46.4634146341463 4  45.219512195122 4.4  43.9024390243902 4.4  C 42.5853658536585 4.4  41.3414634146341 3.92  40.2439024390244 2.96  C 39.1463414634146 2  37.9024390243902 1.51999999999999  36.5853658536585 1.51999999999999  C 35.2682926829268 1.51999999999999  34.0243902439024 2  32.9268292682927 2.88  C 31.8292682926829 3.84  30.5853658536585 4.24  29.2682926829268 4.24  C 27.9512195121951 4.24  26.7073170731707 3.76  25.609756097561 2.8  C 24.5121951219512 1.84  23.2682926829268 1.36  21.9512195121951 1.36  C 20.6341463414634 1.36  19.390243902439 1.84  18.2926829268293 2.8  C 17.1951219512195 3.76  15.9512195121951 4.24  14.6341463414634 4.24  C 13.3170731707317 4.24  12.0731707317073 3.76  10.9756097560976 2.8  L 9.95121951219511 1.91999999999999  Z " fill-rule="nonzero" fill="#3afffa" stroke="none" transform="matrix(1 0 0 1 1747 1476 )" />
  </g>
</svg>