<?xml version="1.0" encoding="utf-8"?>
<svg version="1.1" xmlns:xlink="http://www.w3.org/1999/xlink" width="60px" height="8px" xmlns="http://www.w3.org/2000/svg">
  <g transform="matrix(1 0 0 1 -1747 -1468 )">
    <path d="M 9.95121951219511 2.72  C 8.92682926829267 2.08  7.60975609756097 1.6  6.36585365853658 1.6  C 5.63414634146341 1.6  4.90243902439024 1.76  4.17073170731707 2.08  L 0 3.84  L 0.731707317073171 6.24  L 4.17073170731707 4.4  C 4.90243902439024 4.08  5.63414634146341 3.92  6.36585365853658 3.92  C 7.68292682926829 3.92  9 4.4  10.0243902439024 5.36  L 11.0487804878049 6.24  C 12.1463414634146 7.2  13.390243902439 7.68000000000001  14.7073170731707 7.68000000000001  C 16.0243902439024 7.68000000000001  17.2682926829268 7.2  18.3658536585366 6.24  C 19.4634146341463 5.28000000000001  20.7073170731707 4.8  22.0243902439024 4.8  C 23.3414634146341 4.8  24.5853658536585 5.28000000000001  25.6829268292683 6.16  C 26.780487804878 7.12  28.0243902439024 7.52  29.3414634146341 7.52  C 30.6585365853659 7.52  31.9024390243902 7.04  33 6.08000000000001  C 34.0975609756098 5.12  35.3414634146341 4.64  36.6585365853659 4.64  C 37.9756097560976 4.64  39.219512195122 5.12  40.3170731707317 6.08000000000001  C 41.4146341463415 7.04  42.6585365853659 7.52  43.9756097560976 7.52  C 45.2926829268293 7.52  46.5365853658537 7.04  47.6341463414634 6.08000000000001  L 48.6585365853659 5.2  C 49.6829268292683 4.24  51 3.76  52.3170731707317 3.76  C 53.0487804878049 3.76  53.7804878048781 3.92  54.5121951219512 4.24  L 57.9512195121951 6.08000000000001  L 58.6829268292683 3.68  L 54.5121951219512 1.84  C 53.7804878048781 1.52  53.0487804878049 1.36  52.3170731707317 1.36  C 51 1.36  49.6829268292683 1.84  48.6585365853659 2.72  L 47.5609756097561 3.84  C 46.4634146341463 4.8  45.219512195122 5.2  43.9024390243902 5.2  C 42.5853658536585 5.2  41.3414634146341 4.72  40.2439024390244 3.76  C 39.1463414634146 2.8  37.9024390243902 2.32  36.5853658536585 2.32  C 35.2682926829268 2.32  34.0243902439024 2.8  32.9268292682927 3.68  C 31.8292682926829 4.64  30.5853658536585 5.04  29.2682926829268 5.04  C 27.9512195121951 5.04  26.7073170731707 4.56  25.609756097561 3.6  C 24.5121951219512 2.64  23.2682926829268 2.16  21.9512195121951 2.16  C 20.6341463414634 2.16  19.390243902439 2.64  18.2926829268293 3.6  C 17.1951219512195 4.56  15.9512195121951 5.04  14.6341463414634 5.04  C 13.3170731707317 5.04  12.0731707317073 4.56  10.9756097560976 3.6  L 9.95121951219511 2.72  Z " fill-rule="nonzero" fill="#3afffa" stroke="none" transform="matrix(1 0 0 1 1747 1468 )" />
  </g>
</svg>