<?xml version="1.0" encoding="utf-8"?>
<svg version="1.1" xmlns:xlink="http://www.w3.org/1999/xlink" width="60px" height="60px" xmlns="http://www.w3.org/2000/svg">
  <g transform="matrix(1 0 0 1 -1630 -1323 )">
    <path d="M 19.8097826086957 1  L 40.1902173913044 1  C 46.5047554347826 0.332278481012658  51.6355298913044 4.75855419303797  51.7376019021739 10.2524970332279  L 51 10.4193037974684  L 51 26.5882120253165  L 54.4565217391304 26.5882120253165  C 57.4580502717391 26.5882120253165  59.8913043478261 28.7134592563291  59 31.3350474683544  L 59 54.9208860759494  C 59.8913043478261 57.5424742879747  57.4580502717391 59.6677215189873  54.4565217391304 59  L 5.54347826086956 59  C 2.54194972826087 59.6677215189873  0.108695652173913 57.5424742879747  1 54.9208860759494  L 1 31.3350474683544  C 0.108695652173913 28.7134592563291  2.54194972826087 26.5882120253165  5.54347826086956 26.5882120253165  L 9 26.5882120253165  L 9 10.4193037974684  C 8.26086956521739 4.90407436708861  13.3286345108696 0.42276503164557  19.618800951087 0.333613528481012  L 19.8097826086957 1  Z M 54 55  L 54 31  L 6 31  L 6 55  L 54 55  Z M 40.2903362771739 5.07985561708861  L 40.1902173913044 5  L 19.8097826086957 5  L 19.7087296195652 5.07985561708861  C 16.4118546195652 5.12658227848101  13.7494055706522 7.45230913765823  13.6965013586957 10.3318581882911  L 14 10.4193037974684  L 14 27  L 46 27  L 46 10.4193037974684  L 46.3034986413044 10.3310423259494  C 46.25 7.45149327531645  43.5872112771739 5.12606309335443  40.2903362771739 5.07985561708861  Z " fill-rule="nonzero" fill="#3afffa" stroke="none" transform="matrix(1 0 0 1 1630 1323 )" />
  </g>
</svg>