<?xml version="1.0" encoding="utf-8"?>
<svg version="1.1" xmlns:xlink="http://www.w3.org/1999/xlink" width="361px" height="300px" xmlns="http://www.w3.org/2000/svg">
  <g transform="matrix(1 0 0 1 -1563 -1874 )">
    <path d="M 1565 1879  A 3 3 0 0 1 1568 1876 L 1919 1876  A 3 3 0 0 1 1922 1879 L 1922 2169  A 3 3 0 0 1 1919 2172 L 1568 2172  A 3 3 0 0 1 1565 2169 L 1565 1879  Z " fill-rule="nonzero" fill="#ffffff" stroke="none" fill-opacity="0" />
    <path d="M 1564 1879  A 4 4 0 0 1 1568 1875 L 1919 1875  A 4 4 0 0 1 1923 1879 L 1923 2169  A 4 4 0 0 1 1919 2173 L 1568 2173  A 4 4 0 0 1 1564 2169 L 1564 1879  Z " stroke-width="2" stroke="#1a3e6b" fill="none" stroke-opacity="0.996078431372549" />
  </g>
</svg>