<?xml version="1.0" encoding="utf-8"?>
<svg version="1.1" xmlns:xlink="http://www.w3.org/1999/xlink" width="1467px" height="1210px" xmlns="http://www.w3.org/2000/svg">
  <g transform="matrix(1 0 0 1 -72 -1248 )">
    <path d="M 74 1253  A 3 3 0 0 1 77 1250 L 1534 1250  A 3 3 0 0 1 1537 1253 L 1537 2453  A 3 3 0 0 1 1534 2456 L 77 2456  A 3 3 0 0 1 74 2453 L 74 1253  Z " fill-rule="nonzero" fill="#ffffff" stroke="none" fill-opacity="0" />
    <path d="M 73 1253  A 4 4 0 0 1 77 1249 L 1534 1249  A 4 4 0 0 1 1538 1253 L 1538 2453  A 4 4 0 0 1 1534 2457 L 77 2457  A 4 4 0 0 1 73 2453 L 73 1253  Z " stroke-width="2" stroke="#1a3e6b" fill="none" stroke-opacity="0.996078431372549" />
  </g>
</svg>