<?xml version="1.0" encoding="utf-8"?>
<svg version="1.1" xmlns:xlink="http://www.w3.org/1999/xlink" width="51px" height="75px" xmlns="http://www.w3.org/2000/svg">
  <g transform="matrix(1 0 0 1 -221 -1340 )">
    <path d="M 50.1308553955078 75  L 0.869144604492187 75  L 0.869144604492187 71  L 50.1308553955078 71  L 50.1308553955078 75  Z M 5.79287167968751 69  L 6.15901223144531 65.7790478759766  L 24.9616343994141 57.9287932617187  L 44.96028515625 66.1521385253906  L 45.2862525146484 69  L 5.79287167968751 69  Z M 29.4191700439453 56.0677698486328  L 43.0870417236328 50.3615071289062  L 43.2717922851563 50.4837067382813  L 44.5437372802734 62.2874236083984  L 29.4191700439453 56.0677698486328  Z M 28.1035387207031 36.3888238037109  L 40.2274948974609 27.8973268798828  L 40.8690427734375 28.1860234130859  L 42.7967413330078 46.0752036621094  L 28.1035387207031 36.3888238037109  Z M 29.5971232177734 19.1881619384766  L 39.4269348632813 14.8020366943359  L 40.4245417236328 24.0596486572266  L 29.5971232177734 19.1881619384766  Z M 38.9841140625 10.6924643554687  L 39.02382890625 11.0611252441406  L 25.2219195556641 17.2196028808594  L 12.0311608886719 11.2846741699219  L 12.0949338134766 10.6924643554688  L 11.4852342041016 10.6924643554688  L 11.4852342041016 8  L 39.4383910400391 8  L 39.4383910400391 10.6924643554687  L 38.9841140625 10.6924643554687  Z M 33.0846232177734 12  L 33.0846232177734 11  L 17.9934317871094 11  L 17.9934317871094 12  L 33.0846232177734 12  Z M 11.4852342041016 7  L 11.4852342041016 3.43686357421875  L 13.7764765869141 3.43686357421875  L 13.7764765869141 3.40952138671875  L 17.1859979736328 0  L 19.5809572265625 0  L 19.5809572265625 4  L 31.2662932617187 4  L 31.2662932617187 0.219577368164063  L 33.6552189697266 0.219577368164063  L 36.8591395019531 3.43686357421875  L 39.4383910400391 3.43686357421875  L 39.4383910400391 7  L 11.4852342041016 7  Z M 11.6275967285156 15.0294042480469  L 20.8405295654297 19.1745672363281  L 10.6930753417969 23.7024440185547  L 11.6275967285156 15.0294042480469  Z M 22.0218941162109 36.4744398925781  L 8.27963342285156 46.0993380615234  L 10.1594449951172 28.6542005859375  L 22.0218941162109 36.4744398925781  Z M 13.1464612792969 26.5285387207031  L 25.2158095458984 21.1431262939453  L 36.5990071289063 26.2647403564453  L 25.0336557861328 34.3650458496094  L 13.1464612792969 26.5285387207031  Z M 39.6493380615234 48.0950865234375  L 24.9525458496094 54.2311100097656  L 10.8866089599609 48.4473268798828  L 25.0917769775391 38.4982179199219  L 39.6493380615234 48.0950865234375  Z M 20.4950865234375 56.0921334228516  L 6.57670568847656 61.9031058837891  L 7.76685336914063 50.8584012451172  L 20.4950865234375 56.0921334228516  Z " fill-rule="nonzero" fill="#ffffff" stroke="none" transform="matrix(1 0 0 1 221 1340 )" />
  </g>
</svg>