<?xml version="1.0" encoding="utf-8"?>
<svg version="1.1" xmlns:xlink="http://www.w3.org/1999/xlink" width="26px" height="14px" xmlns="http://www.w3.org/2000/svg">
  <g transform="matrix(1 0 0 1 -1134 -1710 )">
    <path d="M 0.638774671052632 7.30222039473684  L 0.638774671052632 0.638980263157895  L 6.81270559210526 0.638980263157895  L 6.81270559210526 7.30222039473684  L 0.638774671052632 7.30222039473684  Z M 9.91303453947369 7.30222039473684  L 9.91303453947369 0.638980263157895  L 16.0869654605263 0.638980263157895  L 16.0869654605263 7.30222039473684  L 9.91303453947369 7.30222039473684  Z M 19.1739309210526 7.30222039473684  L 19.1739309210526 0.638980263157895  L 25.3612253289473 0.638980263157895  L 25.3612253289473 7.30222039473684  L 19.1739309210526 7.30222039473684  Z M 3.73910361842106 10.6122532894737  C 2.87047697368422 10.6266447368421  2.18893914473684 11.375  2.18893914473684 12.2816611842105  C 2.18893914473684 13.2027138157895  2.88384046052632 13.9510690789474  3.73910361842106 13.9510690789474  C 4.59436677631579 13.9510690789474  5.28926809210527 13.2027138157895  5.28926809210527 12.2816611842105  C 5.28926809210527 11.3606085526316  4.5943667763158 10.6122532894737  3.73910361842106 10.6122532894737  Z M 8.37623355263158 10.6122532894737  C 7.50760690789474 10.6266447368421  6.82606907894737 11.375  6.82606907894737 12.2816611842105  C 6.82606907894737 13.2027138157895  7.52097039473684 13.9510690789474  8.37623355263158 13.9510690789474  C 9.23149671052632 13.9510690789474  9.9263980263158 13.2027138157895  9.9263980263158 12.2816611842105  C 9.9263980263158 11.3606085526316  9.23149671052633 10.6122532894737  8.37623355263158 10.6122532894737  Z M 13 10.6122532894737  C 12.1447368421053 10.6266447368421  11.4498355263158 11.375  11.4498355263158 12.2816611842105  C 11.4498355263158 13.2027138157895  12.1447368421053 13.9510690789474  13 13.9510690789474  C 13.8552631578947 13.9510690789474  14.5501644736842 13.2027138157895  14.5501644736842 12.2816611842105  C 14.5501644736842 11.3606085526316  13.8552631578947 10.6122532894737  13 10.6122532894737  Z M 17.6371299342105 10.6122532894737  C 16.7818667763158 10.6266447368421  16.0869654605263 11.375  16.0869654605263 12.2816611842105  C 16.0869654605263 13.2027138157895  16.7818667763158 13.9510690789474  17.6371299342105 13.9510690789474  C 18.4923930921053 13.9510690789474  19.1872944078947 13.2027138157895  19.1872944078947 12.2816611842105  C 19.1872944078947 11.3606085526316  18.4923930921053 10.6122532894737  17.6371299342105 10.6122532894737  Z M 22.2742598684211 10.6122532894737  C 21.4189967105263 10.6122532894737  20.7240953947368 11.375  20.7240953947368 12.2816611842105  C 20.7240953947368 13.2027138157895  21.4189967105263 13.9510690789474  22.2742598684211 13.9510690789474  C 23.1295230263158 13.9510690789474  23.8244243421053 13.2027138157895  23.8244243421053 12.2816611842105  C 23.8244243421053 11.3606085526316  23.1295230263158 10.6122532894737  22.2742598684211 10.6122532894737  Z " fill-rule="nonzero" fill="#ffffff" stroke="none" transform="matrix(1 0 0 1 1134 1710 )" />
  </g>
</svg>