<?xml version="1.0" encoding="utf-8"?>
<svg version="1.1" xmlns:xlink="http://www.w3.org/1999/xlink" width="53px" height="60px" xmlns="http://www.w3.org/2000/svg">
  <g transform="matrix(1 0 0 1 -950 -1484 )">
    <path d="M 19.1705673993644 45.9829757462687  C 19.1293365995763 46.0704291044776  19.1881124205508 46.1744986007463  19.2802237817797 46.1744986007463  L 23.184868246822 46.1744986007463  C 23.3787407309322 46.1744986007463  23.5234871557203 46.3651469216418  23.4857653601695 46.5689132462687  L 21.0364804025424 59.7988572761194  C 21.035603151483 59.8032299440299  21.0391121557203 59.8058535447761  21.0417439088983 59.8023554104478  L 34.0776946504237 42.2119869402985  C 34.1794557733051 42.0746851679105  34.0882216631356 41.8709188432836  33.9250529661017 41.8709188432836  L 28.9940247616525 41.8709188432836  C 28.8001522775424 41.8709188432836  28.6799688824152 41.6461637126866  28.7764664989407 41.4660097947761  L 31.572265625 36.2625349813433  C 31.6380594544491 36.1401002798508  31.5555978548729 35.9879314365672  31.4248874470339 35.9879314365672  L 24.3893339512712 35.9879314365672  C 24.0901913400424 35.9879314365672  23.8156117584746 36.1689598880597  23.6796378442797 36.4558069029851  L 19.1705673993644 45.9829757462687  Z M 0.299142611228814 8  L 0.299142611228814 1  L 15.271186440678 1  L 15.271186440678 8  L 0.299142611228814 8  Z M 0.299142611228814 19  L 0.299142611228814 12  L 15.271186440678 12  L 15.271186440678 19  L 0.299142611228814 19  Z M 37.728813559322 8  L 37.728813559322 1  L 52.7008573887712 1  L 52.7008573887712 8  L 37.728813559322 8  Z M 37.728813559322 19  L 37.728813559322 12  L 52.7008573887712 12  L 52.7008573887712 19  L 37.728813559322 19  Z M 19.0144167108051 8  L 19.0144167108051 1  L 33.9864605402542 1  L 33.9864605402542 8  L 19.0144167108051 8  Z M 19.0144167108051 19  L 19.0144167108051 12  L 33.9864605402542 12  L 33.9864605402542 19  L 19.0144167108051 19  Z " fill-rule="nonzero" fill="#ffffff" stroke="none" transform="matrix(1 0 0 1 950 1484 )" />
  </g>
</svg>