<?xml version="1.0" encoding="utf-8"?>
<svg version="1.1" xmlns:xlink="http://www.w3.org/1999/xlink" width="17px" height="9px" xmlns="http://www.w3.org/2000/svg">
  <g transform="matrix(1 0 0 1 -433 -1373 )">
    <path d="M 0.417660361842105 4.69428453947368  L 0.417660361842105 0.410773026315789  L 4.45446134868421 0.410773026315789  L 4.45446134868421 4.69428453947368  L 0.417660361842105 4.69428453947368  Z M 6.48159950657895 4.69428453947368  L 6.48159950657895 0.410773026315789  L 10.5184004934211 0.410773026315789  L 10.5184004934211 4.69428453947368  L 6.48159950657895 4.69428453947368  Z M 12.5368009868421 4.69428453947368  L 12.5368009868421 0.410773026315789  L 16.5823396381579 0.410773026315789  L 16.5823396381579 4.69428453947368  L 12.5368009868421 4.69428453947368  Z M 2.44479851973685 6.82216282894736  C 1.87685032894737 6.83141447368421  1.43122944078947 7.3125  1.43122944078947 7.89535361842105  C 1.43122944078947 8.48745888157894  1.88558799342105 8.96854440789474  2.44479851973685 8.96854440789474  C 3.00400904605263 8.96854440789474  3.45836759868422 8.48745888157895  3.45836759868422 7.89535361842105  C 3.45836759868422 7.30324835526316  3.00400904605264 6.82216282894736  2.44479851973685 6.82216282894736  Z M 5.47676809210526 6.82216282894736  C 4.90881990131579 6.83141447368421  4.4631990131579 7.3125  4.4631990131579 7.89535361842105  C 4.4631990131579 8.48745888157894  4.91755756578947 8.96854440789474  5.47676809210526 8.96854440789474  C 6.03597861842105 8.96854440789474  6.49033717105264 8.48745888157895  6.49033717105264 7.89535361842105  C 6.49033717105264 7.30324835526316  6.03597861842106 6.82216282894736  5.47676809210526 6.82216282894736  Z M 8.5 6.82216282894736  C 7.94078947368421 6.83141447368421  7.48643092105263 7.3125  7.48643092105263 7.89535361842105  C 7.48643092105263 8.48745888157894  7.94078947368421 8.96854440789474  8.5 8.96854440789474  C 9.05921052631579 8.96854440789474  9.51356907894737 8.48745888157895  9.51356907894737 7.89535361842105  C 9.51356907894737 7.30324835526316  9.05921052631579 6.82216282894736  8.5 6.82216282894736  Z M 11.5319695723684 6.82216282894736  C 10.9727590460526 6.83141447368421  10.5184004934211 7.3125  10.5184004934211 7.89535361842105  C 10.5184004934211 8.48745888157894  10.9727590460526 8.96854440789474  11.5319695723684 8.96854440789474  C 12.0911800986842 8.96854440789474  12.5455386513158 8.48745888157895  12.5455386513158 7.89535361842105  C 12.5455386513158 7.30324835526316  12.0911800986842 6.82216282894736  11.5319695723684 6.82216282894736  Z M 14.5639391447368 6.82216282894736  C 14.0047286184211 6.82216282894736  13.5503700657895 7.3125  13.5503700657895 7.89535361842105  C 13.5503700657895 8.48745888157894  14.0047286184211 8.96854440789474  14.5639391447368 8.96854440789474  C 15.1231496710526 8.96854440789474  15.5775082236842 8.48745888157895  15.5775082236842 7.89535361842105  C 15.5775082236842 7.30324835526316  15.1231496710526 6.82216282894736  14.5639391447368 6.82216282894736  Z " fill-rule="nonzero" fill="#ffffff" stroke="none" transform="matrix(1 0 0 1 433 1373 )" />
  </g>
</svg>