<?xml version="1.0" encoding="utf-8"?>
<svg version="1.1" xmlns:xlink="http://www.w3.org/1999/xlink" width="59px" height="32px" xmlns="http://www.w3.org/2000/svg">
  <g transform="matrix(1 0 0 1 -414 -1493 )">
    <path d="M 58.9770712403484 30.4524556778778  C 58.9666581228103 13.7020302852924  45.7628051094089 0.0802144565226098  29.5495566075856 0.0802145317917544  C 13.3258949882244 0.0802145317917544  0.13245509236093 13.7020302852924  0.13245509236093 30.4524556778778  C 0.13245509236093 31.1297835650448  0.663524888723721 31.6780965914712  1.31955231424921 31.6780965914712  L 24.9990173906677 31.6780965914712  C 25.0198436257438 31.6780965914712  25.040669933722 31.688847811049  25.061496168798 31.688847811049  L 34.1105089420416 31.688847811049  C 34.1313351771176 31.688847811049  34.1521614850958 31.6780965914712  34.172987793074 31.6780965914712  L 57.7899740184601 31.6780965914712  C 58.4460014439856 31.6780965914712  58.9770712403484 31.1297835650448  58.9770712403484 30.4524556778778  Z M 56.5612243264197 29  L 35.1622354172291 29  C 35.0164515529904 28.5279845132309  34.7457100595889 27.8721591404886  34.381250435443 27.2808411604819  L 39.1400523676321 21.9589794156914  C 39.5669908428104 21.4859250768476  39.5565777252723 20.7440897969448  39.129639177192 20.2817866024096  C 38.6922875844757 19.8087322635658  37.9841944983579 19.7764785295634  37.5051904354895 20.1850254756715  L 31.8820984354059 25.0660865403515  C 31.1740053492881 24.7435495014038  30.393020367502 24.5607784675052  29.5807959601998 24.5607784675052  C 26.8421418922773 24.5607784675052  24.5512526075113 26.5605083197347  23.9993565760725 29  L 2.52747577121357 29  C 3.15226377122285 14.4008606116149  15.0336488160353 2.53149628370952  29.5495566075856 2.53149628370952  C 44.065464399136 2.53149628370952  55.9364363264104 14.3901093920371  56.5612243264197 29  Z " fill-rule="nonzero" fill="#ffffff" stroke="none" transform="matrix(1 0 0 1 414 1493 )" />
  </g>
</svg>