<?xml version="1.0" encoding="utf-8"?>
<svg version="1.1" xmlns:xlink="http://www.w3.org/1999/xlink" width="75px" height="75px" xmlns="http://www.w3.org/2000/svg">
  <g transform="matrix(1 0 0 1 -406 -1485 )">
    <path d="M 74 7.85890585100917  C 74.6865138600575 3.52960159541284  71.1903563549226 0.0159633027522936  66.8825909264686 0  L 7.9057441035191 0  C 3.60838388990826 0.0159633027522936  0.101821169930167 3.52960159541284  1 7.85890585100917  L 1 67.1410941489908  C 0.101821169930167 71.4599411636697  3.59797867506504 74.9840366972477  7.9057441035191 75  L 66.8929961413118 75  C 71.1903563549226 74.9840366972477  74.6969190749007 71.4703984045872  74 67.1410941489908  L 74 7.85890585100917  Z M 72 7.84844861009174  L 72 67.1306369080734  C 72.3141213063125 70.1318695904587  69.8792973906614 72.5788676256881  66.8929961413118 72  L 7.9057441035191 72  C 4.91944292701629 72.5788676256881  2.48461901136519 70.1318695904587  3 67.1306369080734  L 3 7.84844861009174  C 2.48461893851842 4.84721592770642  4.91944285416952 2.40021789247706  7.9057441035191 3  L 66.8929961413118 3  C 69.8792973178146 2.40021781926605  72.3141212334657 4.84721585449541  72 7.84844861009174  Z " fill-rule="nonzero" fill="#ffffff" stroke="none" transform="matrix(1 0 0 1 406 1485 )" />
  </g>
</svg>