<?xml version="1.0" encoding="utf-8"?>
<svg version="1.1" xmlns:xlink="http://www.w3.org/1999/xlink" width="41px" height="51px" xmlns="http://www.w3.org/2000/svg">
  <g transform="matrix(1 0 0 1 -424 -1499 )">
    <path d="M 21.3616399129541 1.33599112083037  C 21.3616399129541 0.681992729777001  20.8315520638265 0.152565485054575  20.1767377047673 0.152565485054577  C 19.5219232729408 0.152565485054577  18.9918354238132 0.681992729777003  18.9918354238132 1.33599112083038  L 18.9918354238132 4.07655568602156  C 18.9918354238132 4.73055407707493  19.5219232729408 5.25998132179736  20.1767377047673 5.25998124912074  C 20.8315521365938 5.25998124912074  21.3616399857214 4.73055400439831  21.3616399129541 4.07655568602156  L 21.3616399129541 1.33599112083037  Z M 32.3271827071359 4.69941127232304  C 32.6493929911993 4.12846031215697  32.4519092898349 3.41217638427644  31.8906397768407 3.07998673340387  C 31.3189764001468 2.74779708253131  30.5914048496547 2.94503467638117  30.2691945655913 3.51598563654724  L 28.8972025197398 5.89321774611398  C 28.5645983719767 6.46416870628005  28.7620820733411 7.19083354485234  29.333745450035 7.51264228503315  C 29.510441424 7.61645153730396  29.7183189890642 7.66835616343936  29.9261965541284 7.66835616343936  C 30.3315578205571 7.66835616343936  30.7369191597531 7.46073765889774  30.9551906612844 7.07664338188977  L 32.3271827071359 4.69941127232304  Z M 36.5678855001568 12.4020586338659  C 35.9962221234629 12.7238673740467  35.7987384220984 13.450532212619  36.1313425698615 14.0214831001085  C 36.3496140713928 14.4055773771165  36.7549753378215 14.6131958816581  37.1603366042502 14.6131959543347  C 37.3578203056147 14.6131959543347  37.5656978706789 14.5612913281993  37.7527877811109 14.4574820759285  L 40.1329861339516 13.0871997569946  C 40.7046495106455 12.755010106122  40.8917393483103 12.0387261782415  40.5695290642469 11.4677752180754  C 40.2369249164837 10.8968242579093  39.5197472296914 10.7099675747512  38.9480839257648 11.031776314932  L 36.5678855001568 12.4020586338659  Z M 4.60670637870225 14.6962433125454  C 4.92891666276564 14.1252923523793  4.73143296140117 13.398627513807  4.17016337563969 13.0768188463028  L 1.789965022799 11.7065365273689  C 1.21830164610509 11.3743468764964  0.490730095613009 11.5715844703462  0.168519811549622 12.1425354305123  C -0.164084336213513 12.7134863906784  0.0333993651509559 13.4297703185589  0.605062741844867 13.7619599694315  L 2.98526116745288 15.1322422883654  C 3.16195714141785 15.2360515406362  3.36983470648207 15.2879561667716  3.57771227154629 15.2879561667716  C 3.98307353797498 15.2879561667716  4.38843487717098 15.0699566788616  4.60670637870225 14.6962433125454  Z M 11.5602116723269 6.27731202312195  L 10.1882195537081 3.90007991355521  C 9.85561540594496 3.32912895338914  9.13843771915263 3.14227227023103  8.56677441522603 3.46408101041184  C 7.99511103853212 3.79627066128441  7.80802120086739 4.51255458916494  8.13023148493078 5.08350554933101  L 9.50222353078232 7.46073765889774  C 9.7204950323136 7.84483193590571  10.1258562987423 8.05245044044733  10.5312176379383 8.05245044044733  C 10.7287013393028 8.05245044044733  10.936578904367 8.00054581431193  11.1236687420317 7.89673656204112  C 11.6953321187256 7.56454691116855  11.8824219563903 6.84826298328802  11.5602116723269 6.27731202312195  Z M 27.0782736071259 37.1398061681056  C 26.8600021055947 36.7557118910976  26.4338531117665 36.548093386556  25.9973101814712 36.5377124758642  C 25.9973101814712 36.5377124758642  23.0558423156364 36.641521728135  20.8523398639933 36.7245690863457  C 21.257701130422 34.098194684117  21.5175481595196 30.682869906489  21.5383358869191 30.5063942066993  C 21.5799114144854 29.9458241572249  21.2265195393228 29.4371588065626  20.6964316901952 29.2814449281564  C 20.1559499773678 29.1257310497502  19.5842866006739 29.354111448352  19.3140457078766 29.8420149049541  L 13.2752018024087 40.7938922550271  C 13.0673242373445 41.1779865320351  13.0777181010442 41.6451282399304  13.3167772572077 42.0084606228782  C 13.5558364133711 42.371793005826  13.9715916890342 42.5690306723525  14.4081346193294 42.5482687782924  L 18.1395373633895 42.2679838262318  L 16.7571513810709 49.3996802276087  C 16.6947881261051 49.742250789173  16.7779391084704 50.1055832447974  17.0066044737014 50.3754872861662  C 17.2352698389324 50.6453914002116  17.5678739866956 50.8114861893096  17.9212658618582 50.8114861893096  C 18.3058394008874 50.8114861893096  18.6800190762168 50.6246295061515  18.8982905049808 50.2924398552789  L 27.0159103521601 38.3855173407085  C 27.2653634447907 38.0118039743923  27.2861512449575 37.5342813558053  27.0782736071259 37.1398061681056  Z " fill-rule="nonzero" fill="#ffffff" stroke="none" transform="matrix(1 0 0 1 424 1499 )" />
  </g>
</svg>