<?xml version="1.0" encoding="utf-8"?>
<svg version="1.1" xmlns:xlink="http://www.w3.org/1999/xlink" width="72px" height="75px" xmlns="http://www.w3.org/2000/svg">
  <g transform="matrix(1 0 0 1 -585 -2310 )">
    <path d="M 3.85714285714286 67  L 51.6607142578125 67  C 51.6608965114751 67.6846590909091  51.6610787652223 67.6846590770375  51.661261018887 67.6846590770375  C 53.6337065694067 67.6846590770375  55.2326896182174 69.274556994889  55.2326896182174 71.2357954684171  C 55.2326896182174 73.1970339419452  53.6337065694067 74.7869318597967  51.661261018887 74.7869318597967  C 51.6610787652223 74.7869318597967  51.6608965114751 74.7869318459251  51.6607142578125 74  L 3.85714285714286 74  C 3.856960603425 74.7869318459251  3.85677834978834 74.7869318597967  3.85659609606835 74.7869318597967  C 1.88415054554864 74.7869318597967  0.285167496737994 73.1970339419452  0.285167496737994 71.2357954684171  C 0.285167496737994 69.274556994889  1.88415054554864 67.6846590770375  3.85659609606835 67.6846590770375  C 3.85677834978834 67.6846590770375  3.856960603425 67.6846590909091  3.85714285714286 67  Z M 49.7357142857143 57.0312500277433  L 49.7357142857143 64  L 6 64  L 6 1  L 49 1  L 49 55.6036932095614  L 57 55.6036932095614  L 57 7.31534088134766  L 64.5714285435268 7.31534088134766  C 64.5708370983873 5.45698724806128  66.0112910014427 3.91245879395575  67.875 3.77308235862038  L 68.1428571428571 3.7642045731978  L 68.1428571428571 5.53977272727273  L 70.8214285714286 5.53977272727273  C 71.3148133511672 5.53977268565785  71.7145591227389 5.93724717443653  71.7145591227389 6.42755680431019  C 71.7145591227389 6.91786643418385  71.3148133511672 7.31534092296254  70.82170195198 7.31534092296254  L 68.1428571428571 7.31534088134766  L 68.1428571428571 9.09090911865234  L 70.8214285714286 9.09090911865234  C 71.3148133511672 9.09090907703747  71.7145591227389 9.48838356581615  71.7145591227389 9.97869319568981  C 71.7145591227389 10.4690028255635  71.3148133511672 10.8664773143422  70.82170195198 10.8664773143422  L 68.1428571428571 10.8664772727273  L 68.1428571428571 12.6420454268022  L 67.875 12.6331676413796  C 66.1180498725663 12.501883158275  64.7199028661242 11.1162036059353  64.5821428292411 9.36967329545455  L 64.5714285435268 9.09090911865234  L 64.5714285435268 8.74289769952947  L 59 8.74289769952947  L 59 57.0312500277433  L 49.7357142857143 57.0312500277433  Z M 29.8553571428571 43.4943181540749  L 35.0839285714286 32.1732954545455  L 20.7589285714286 44.2276278409091  L 25.6624999720982 45.7084517045455  L 20.4321428571429 57.0294744040749  L 34.7571428571429 44.9733664772727  L 29.8553571428571 43.4943181540749  Z M 42 25  L 42 8  L 14 8  L 14 25  L 26.0821428850446 25  C 26.4339286272321 24.1122159368342  27.3357143136161 23.4019886918501  28.4214285435268 23.3061079268022  L 28.6410714006696 23.2972301413796  L 37.5160714285714 13.0468749722567  L 38.9178571707589 14.1885653686523  L 30.4732142578125 23.9470880959251  C 30.8303571428571 24.2453835504705  31.1053571149554 24.6324574418501  31.2642857142857 25  L 42 25  Z " fill-rule="nonzero" fill="#ffffff" stroke="none" transform="matrix(1 0 0 1 585 2310 )" />
  </g>
</svg>