<?xml version="1.0" encoding="utf-8"?>
<svg version="1.1" xmlns:xlink="http://www.w3.org/1999/xlink" width="49px" height="50px" xmlns="http://www.w3.org/2000/svg">
  <g transform="matrix(1 0 0 1 -360 -2321 )">
    <path d="M 2.625 45  L 35.1579860921224 45  C 35.158110125865 45.1231060606061  35.1582341596652 45.1231060513583  35.1583581934092 45.1231060513583  C 36.5007169708462 45.1231060513583  37.5889137679535 46.1830379965926  37.5889137679535 47.4905303122781  C 37.5889137679535 48.7980226279635  36.5007169708462 49.8579545731978  35.1583581934092 49.8579545731978  C 35.1582341596652 49.8579545731978  35.158110125865 49.85795456395  35.1579860921224 49  L 2.625 49  C 2.62487596621979 49.85795456395  2.62475193249484 49.8579545731978  2.62462789871318 49.8579545731978  C 1.28226912127616 49.8579545731978  0.194072324168912 48.7980226279635  0.194072324168912 47.4905303122781  C 0.194072324168912 46.1830379965926  1.28226912127616 45.1231060513583  2.62462789871318 45.1231060513583  C 2.62475193249484 45.1231060513583  2.62487596621979 45.1231060606061  2.625 45  Z M 33.8479166666667 38.0208333518288  L 33.8479166666667 42  L 4 42  L 4 1  L 33 1  L 33 37.0691288063743  L 39 37.0691288063743  L 39 4.87689392089844  L 43.9444444254557 4.87689392089844  C 43.9440419141802 3.63799149870752  44.9243508204263 2.60830586263717  46.1927083333333 2.51538823908026  L 46.375 2.5094697154652  L 46.375 3.69318181818182  L 48.1979166666667 3.69318181818182  C 48.5336924195444 3.69318179043856  48.8057416251973 3.95816478295769  48.8057416251973 4.28503786954013  C 48.8057416251973 4.61191095612257  48.5336924195444 4.87689394864169  48.1981027173197 4.87689394864169  L 46.375 4.87689392089844  L 46.375 6.06060607910156  L 48.1979166666667 6.06060607910156  C 48.5336924195444 6.06060605135831  48.8057416251973 6.32558904387743  48.8057416251973 6.65246213045987  C 48.8057416251973 6.97933521704231  48.5336924195444 7.24431820956144  48.1981027173197 7.24431820956144  L 46.375 7.24431818181818  L 46.375 8.4280302845348  L 46.1927083333333 8.42211176091975  C 44.9970061632743 8.33458877218332  44.0454894505567 7.41080240395685  43.9517360921224 6.24644886363637  L 43.9444444254557 6.06060607910156  L 43.9444444254557 5.82859846635298  L 40 5.82859846635298  L 40 38.0208333518288  L 33.8479166666667 38.0208333518288  Z M 20.3182291666667 28.9962121027166  L 23.8765625 21.4488636363636  L 14.1276041666667 29.4850852272727  L 17.4647569254557 30.4723011363636  L 13.9052083333333 38.0196496027166  L 23.6541666666667 29.9822443181818  L 20.3182291666667 28.9962121027166  Z M 28 16.7140151700107  L 28 5  L 9 5  L 9 16.7140151700107  L 17.7503472412109 16.7140151700107  C 17.9897569824219 16.0748106245561  18.6034722412109 15.6013257945668  19.3423610921224 15.5374052845348  L 19.4918402587891 15.5314867609197  L 25.5317708333333 8.69791664817117  L 26.4857639078776 9.45904357910156  L 20.7387152587891 15.9647253972834  C 20.9817708333333 16.163589033647  21.1689235921224 16.4216382945668  21.2770833333333 16.7140151700107  L 28 16.7140151700107  Z " fill-rule="nonzero" fill="#ffffff" stroke="none" transform="matrix(1 0 0 1 360 2321 )" />
  </g>
</svg>