<?xml version="1.0" encoding="utf-8"?>
<svg version="1.1" xmlns:xlink="http://www.w3.org/1999/xlink" width="720px" height="877px" xmlns="http://www.w3.org/2000/svg">
  <g transform="matrix(1 0 0 1 -399 -221 )">
    <path d="M 401 226  A 3 3 0 0 1 404 223 L 1114 223  A 3 3 0 0 1 1117 226 L 1117 1093  A 3 3 0 0 1 1114 1096 L 404 1096  A 3 3 0 0 1 401 1093 L 401 226  Z " fill-rule="nonzero" fill="#0b3d66" stroke="none" fill-opacity="0.0156862745098039" />
    <path d="M 400 226  A 4 4 0 0 1 404 222 L 1114 222  A 4 4 0 0 1 1118 226 L 1118 1093  A 4 4 0 0 1 1114 1097 L 404 1097  A 4 4 0 0 1 400 1093 L 400 226  Z " stroke-width="2" stroke="#1a3e6b" fill="none" stroke-opacity="0.996078431372549" />
  </g>
</svg>