<?xml version="1.0" encoding="utf-8"?>
<svg version="1.1" xmlns:xlink="http://www.w3.org/1999/xlink" width="110px" height="75px" xmlns="http://www.w3.org/2000/svg">
  <defs>
    <filter x="541px" y="604px" width="110px" height="75px" filterUnits="userSpaceOnUse" id="filter1706">
      <feOffset dx="2" dy="2" in="SourceAlpha" result="shadowOffsetInner" />
      <feGaussianBlur stdDeviation="2.5" in="shadowOffsetInner" result="shadowGaussian" />
      <feComposite in2="shadowGaussian" operator="atop" in="SourceAlpha" result="shadowComposite" />
      <feColorMatrix type="matrix" values="0 0 0 0 0  0 0 0 0 0  0 0 0 0 0  0 0 0 0.349019607843137 0  " in="shadowComposite" />
    </filter>
    <g id="widget1707">
      <path d="M 545.5 612  A 3.5 3.5 0 0 1 549 608.5 L 639 608.5  A 3.5 3.5 0 0 1 642.5 612 L 642.5 667  A 3.5 3.5 0 0 1 639 670.5 L 549 670.5  A 3.5 3.5 0 0 1 545.5 667 L 545.5 612  Z " fill-rule="nonzero" fill="#ffffff" stroke="none" fill-opacity="0" />
      <path d="M 545 612  A 4 4 0 0 1 549 608 L 639 608  A 4 4 0 0 1 643 612 L 643 667  A 4 4 0 0 1 639 671 L 549 671  A 4 4 0 0 1 545 667 L 545 612  Z " stroke-width="2" stroke="#1a3e6b" fill="none" />
    </g>
  </defs>
  <g transform="matrix(1 0 0 1 -541 -604 )">
    <use xlink:href="#widget1707" filter="url(#filter1706)" />
    <use xlink:href="#widget1707" />
  </g>
</svg>