<?xml version="1.0" encoding="utf-8"?>
<svg version="1.1" xmlns:xlink="http://www.w3.org/1999/xlink" width="220px" height="75px" xmlns="http://www.w3.org/2000/svg">
  <defs>
    <filter x="871px" y="529px" width="220px" height="75px" filterUnits="userSpaceOnUse" id="filter1724">
      <feOffset dx="2" dy="2" in="SourceAlpha" result="shadowOffsetInner" />
      <feGaussianBlur stdDeviation="2.5" in="shadowOffsetInner" result="shadowGaussian" />
      <feComposite in2="shadowGaussian" operator="atop" in="SourceAlpha" result="shadowComposite" />
      <feColorMatrix type="matrix" values="0 0 0 0 0  0 0 0 0 0  0 0 0 0 0  0 0 0 0.349019607843137 0  " in="shadowComposite" />
    </filter>
    <g id="widget1725">
      <path d="M 875.5 537  A 3.5 3.5 0 0 1 879 533.5 L 1079 533.5  A 3.5 3.5 0 0 1 1082.5 537 L 1082.5 592  A 3.5 3.5 0 0 1 1079 595.5 L 879 595.5  A 3.5 3.5 0 0 1 875.5 592 L 875.5 537  Z " fill-rule="nonzero" fill="#ffffff" stroke="none" fill-opacity="0" />
      <path d="M 875 537  A 4 4 0 0 1 879 533 L 1079 533  A 4 4 0 0 1 1083 537 L 1083 592  A 4 4 0 0 1 1079 596 L 879 596  A 4 4 0 0 1 875 592 L 875 537  Z " stroke-width="2" stroke="#1a3e6b" fill="none" />
    </g>
  </defs>
  <g transform="matrix(1 0 0 1 -871 -529 )">
    <use xlink:href="#widget1725" filter="url(#filter1724)" />
    <use xlink:href="#widget1725" />
  </g>
</svg>