<?xml version="1.0" encoding="utf-8"?>
<svg version="1.1" xmlns:xlink="http://www.w3.org/1999/xlink" width="220px" height="139px" xmlns="http://www.w3.org/2000/svg">
  <defs>
    <filter x="871px" y="392px" width="220px" height="139px" filterUnits="userSpaceOnUse" id="filter1736">
      <feOffset dx="2" dy="2" in="SourceAlpha" result="shadowOffsetInner" />
      <feGaussianBlur stdDeviation="2.5" in="shadowOffsetInner" result="shadowGaussian" />
      <feComposite in2="shadowGaussian" operator="atop" in="SourceAlpha" result="shadowComposite" />
      <feColorMatrix type="matrix" values="0 0 0 0 0  0 0 0 0 0  0 0 0 0 0  0 0 0 0.349019607843137 0  " in="shadowComposite" />
    </filter>
    <g id="widget1737">
      <path d="M 875.5 400  A 3.5 3.5 0 0 1 879 396.5 L 1079 396.5  A 3.5 3.5 0 0 1 1082.5 400 L 1082.5 519  A 3.5 3.5 0 0 1 1079 522.5 L 879 522.5  A 3.5 3.5 0 0 1 875.5 519 L 875.5 400  Z " fill-rule="nonzero" fill="#ffffff" stroke="none" fill-opacity="0" />
      <path d="M 875 400  A 4 4 0 0 1 879 396 L 1079 396  A 4 4 0 0 1 1083 400 L 1083 519  A 4 4 0 0 1 1079 523 L 879 523  A 4 4 0 0 1 875 519 L 875 400  Z " stroke-width="2" stroke="#1a3e6b" fill="none" />
    </g>
  </defs>
  <g transform="matrix(1 0 0 1 -871 -392 )">
    <use xlink:href="#widget1737" filter="url(#filter1736)" />
    <use xlink:href="#widget1737" />
  </g>
</svg>