<?xml version="1.0" encoding="utf-8"?>
<svg version="1.1" xmlns:xlink="http://www.w3.org/1999/xlink" width="85px" height="85px" xmlns="http://www.w3.org/2000/svg">
  <g transform="matrix(1 0 0 1 -942 -418 )">
    <path d="M 85 42.5  C 85 66.3  66.3 85  42.5 85  C 18.7 85  0 66.3  0 42.5  C 0 18.7  18.7 0  42.5 0  C 66.3 0  85 18.7  85 42.5  Z M 4.25 42.5  C 4.25 63.9199999999999  21.08 80.75  42.5 80.75  C 63.92 80.75  80.75 63.9199999999999  80.75 42.5  C 80.75 21.0800000000002  63.92 4.25  42.5 4.25  C 21.08 4.25  4.25 21.0800000000002  4.25 42.5  Z " fill-rule="nonzero" fill="#262b5a" stroke="none" transform="matrix(1 0 0 1 942 418 )" />
  </g>
</svg>