<?xml version="1.0" encoding="utf-8"?>
<svg version="1.1" xmlns:xlink="http://www.w3.org/1999/xlink" width="85px" height="85px" xmlns="http://www.w3.org/2000/svg">
  <g transform="matrix(1 0 0 1 -942 -418 )">
    <path d="M 44.625 82.875  C 44.625 83.9215955926446  43.9017715678285 84.7709470674246  42.925 84.9972445965114  C 42.8336269875826 84.9990799677272  42.6669389527376 85  42.5 85  C 18.7 85  0 66.3  0 42.5  C 0 18.7  18.7 0  42.5 0  C 66.3 0  85 18.7  85 42.5  C 85 42.6669389548433  84.9990799677039 42.8336269917871  85 42.925  C 85 44.1150000000001  84.065 45.05  82.875 45.05  C 81.685 45.05  80.75 44.1150000000001  80.7469387106896 42.925  C 80.7489776385253 42.833615963783  80.75 42.6669473948196  80.75 42.5  C 80.75 21.0799999999998  63.92 4.25  42.5 4.25  C 21.08 4.25  4.25 21.0799999999998  4.25 42.5  C 4.25 63.9200000000002  21.08 80.75  42.5 80.75  C 42.6669473966542 80.75  42.8336159674457 80.7489776385026  42.925 80.7469541066557  L 42.9249806156836 80.7909180460638  C 43.9052328283897 80.9831238059874  44.625 81.8309118341376  44.625 82.875  Z " fill-rule="nonzero" fill="#87ff29" stroke="none" transform="matrix(1 0 0 1 942 418 )" />
  </g>
</svg>