<?xml version="1.0" encoding="utf-8"?>
<svg version="1.1" xmlns:xlink="http://www.w3.org/1999/xlink" width="28px" height="25px" xmlns="http://www.w3.org/2000/svg">
  <g transform="matrix(1 0 0 1 -413 -340 )">
    <path d="M 2.79704106280193 1.36578947368421  L 2.79704106280193 1.36842105263158  L 2.79704106280193 0  L 22.4971376811594 0  C 24.2150120772947 0.157894736842105  25.6353019323671 1.40789473684211  25.8868961352657 3.06315789473684  L 27.8076690821256 13.6289473684211  C 28.0159782608696 14.7342105263158  27.7102777777778 15.8710526315789  26.9744323671498 16.7342105263158  C 26.3359375606048 17.4861305809844  25.3880106414887 17.9245330962703  24.3854468599034 17.9315789473684  L 23.284384057971 17.9315789473684  L 24.1690217391304 22.2184210526316  C 24.1992267117308 22.3648440467721  24.2144407053831 22.5138183242335  24.2144407053831 22.6631601418644  C 24.2144407053831 23.9103697854845  23.1760069967598 24.9219256252611  21.8938526570048 24.9236842105263  L 16.2316304347826 24.9236842105263  C 15.1157079779051 24.9235086306974  14.1578475316769 24.1509159972784  13.9510507246377 23.0842105263158  L 12.4496014492754 15.4  C 12.2406783629245 14.3349057035155  11.283712731128 13.5641390611771  10.1690217391304 13.5631578947368  L 2.79433574879227 13.5631578947368  L 2.79433574879227 12.2631578947368  L 0 12.2631578947368  L 0 1.36578947368421  L 2.79704106280193 1.36578947368421  Z M 22.4592632850242 2.33421052631579  L 20.0515338164251 2.33421052631579  L 22.8217753623188 15.7  C 22.8627030589457 15.6889112997028  22.9042533434396 15.6801248203691  22.9462198067633 15.6736842105263  L 24.3854468599034 15.6736842105263  C 24.7028272858075 15.6659146606967  25.0002230093706 15.5212696541705  25.1970410628019 15.2789473684211  C 25.4886059981015 14.926766762948  25.6072147255764 14.468147278998  25.5216787439614 14.0236842105263  L 23.6009057971015 3.45526315789474  C 23.5281740516092 2.87183049017732  23.058330518711 2.41046073264488  22.4592632850242 2.33421052631579  Z M 13.564190821256 2.62894736842105  L 13.564190821256 2.63157894736842  L 9.88225845410628 8  L 12.644384057971 8  L 12.644384057971 11.5842105263158  L 16.3290217391304 6.21052631578947  L 13.564190821256 6.21052631578947  L 13.564190821256 2.62894736842105  Z M 2.94583333333333 3.27631578947369  L 2.94583333333333 10.9342105263158  C 2.94493187188387 10.9460160511877  2.9444806763285 10.9578500287123  2.9444806763285 10.9696880756913  C 2.9444806763285 11.2342034032419  3.16492095795771 11.4486354441124  3.43684782608696 11.4486354441124  C 3.70877469421621 11.4486354441124  3.92921497584541 11.2342034032419  3.92921497584541 10.9696880756913  C 3.92921497584541 10.9578500287123  3.92876378029004 10.9460160511877  3.92786231884058 10.9342105263158  L 3.92786231884058 3.27631578947369  C 3.92876378029004 3.26451026460177  3.92921497584541 3.25267628707713  3.92921497584541 3.24083824009813  C 3.92921497584541 2.97632291254759  3.70877469421621 2.76189087167707  3.43684782608696 2.76189087167707  C 3.16492095795771 2.76189087167707  2.9444806763285 2.97632291254759  2.9444806763285 3.24083824009813  C 2.9444806763285 3.25267628707713  2.94493187188387 3.26451026460177  2.94583333333333 3.27631578947369  Z " fill-rule="nonzero" fill="#fdfdfd" stroke="none" transform="matrix(1 0 0 1 413 340 )" />
  </g>
</svg>