<?xml version="1.0" encoding="utf-8"?>
<svg version="1.1" xmlns:xlink="http://www.w3.org/1999/xlink" width="13px" height="15px" xmlns="http://www.w3.org/2000/svg">
  <g transform="matrix(1 0 0 1 -956 -240 )">
    <path d="M 4.29211956521739 0.0830696202531646  L 8.70788043478261 0.0830696202531646  C 10.0760303442029 0.0830696202531646  11.1876981431159 1.18963854825949  11.209813745471 2.56312425830696  L 11.2101449275362 2.60482594936709  L 11.2101449275362 6.64705300632911  L 11.7989130434783 6.64705300632911  C 12.4492442255435 6.64705300632911  12.9764492753623 7.17836481408228  12.9764492753623 7.83376186708861  L 12.9764492753623 13.7302215189873  C 12.9764492753623 14.3856185719937  12.4492442255435 14.9169303797468  11.7989130434783 15  L 1.20108695652174 15  C 0.550755774456522 14.9169303797468  0.0235507246376812 14.3856185719937  0.0235507246376812 13.7302215189873  L 0.0235507246376812 7.83376186708861  C 0.0235507246376812 7.17836481408228  0.550755774456522 6.64705300632911  1.20108695652174 6.64705300632911  L 1.78985507246377 6.64705300632911  L 1.78985507246377 2.60482594936709  C 1.78985507246377 1.22601859177215  2.88787081068841 0.105691257911392  4.25074020606884 0.083403382120253  L 4.29211956521739 0.0830696202531646  Z M 11.7989130434783 13.7302215189873  L 11.7989130434783 7.83376186708861  L 1.20108695652174 7.83376186708861  L 1.20108695652174 13.7302215189873  L 11.7989130434783 13.7302215189873  Z M 8.72957286005435 1.26996390427215  L 8.70788043478261 1.26977848101266  L 4.29211956521739 1.26977848101266  L 4.2702247509058 1.26996390427215  C 3.55590183423913 1.28164556962025  2.9790378736413 1.86307728441456  2.96757529438406 2.58296454707278  L 2.96739130434783 2.60482594936709  L 2.96739130434783 6.64705300632911  L 10.0326086956522 6.64705300632911  L 10.0326086956522 2.60482594936709  L 10.0324247056159 2.58276058148734  C 10.0208333333333 1.86287331882911  9.44389577672102 1.28151577333861  8.72957286005435 1.26996390427215  Z " fill-rule="nonzero" fill="#3afffa" stroke="none" transform="matrix(1 0 0 1 956 240 )" />
  </g>
</svg>