<?xml version="1.0" encoding="utf-8"?>
<svg version="1.1" xmlns:xlink="http://www.w3.org/1999/xlink" width="14px" height="11px" xmlns="http://www.w3.org/2000/svg">
  <g transform="matrix(1 0 0 1 -1038 -289 )">
    <path d="M 10.15 5.36724137931034  C 10.255 3.33793103448276  7.07 0.0948275862068962  7 0.0189655172413796  L 7 0.0758620689655173  L 7 0.0189655172413796  C 6.93 0.0948275862068969  3.745 3.31896551724138  3.85 5.36724137931034  C 3.9025 7.18793103448276  5.32 8.61034482758621  6.9825 8.55344827586207  L 7 8.55344827586207  C 8.68 8.61034482758621  10.08 7.18793103448276  10.15 5.36724137931034  Z M 7 0.663793103448276  C 7 0.663793103448276  9.7825 3.58448275862069  9.6775 5.36724137931034  C 9.625 6.90344827586207  8.435 8.11724137931034  7 8.07931034482759  C 5.5825 8.11724137931034  4.375 6.90344827586207  4.34 5.36724137931034  C 4.2175 3.60344827586207  7 0.663793103448276  7 0.663793103448276  Z M 4.7075 4.51379310344828  C 4.6375 4.77931034482759  4.585 5.06379310344828  4.585 5.32931034482759  C 4.62 6.73275862068965  5.705 7.83275862068966  7 7.7948275862069  C 8.085 7.77586206896552  9.03 6.99827586206897  9.3275 5.86034482758621  C 8.7675 5.42413793103448  7.3675 5.53793103448276  7.3675 5.53793103448276  C 6.405 5.51896551724138  5.46 5.15862068965517  4.7075 4.51379310344828  Z M 3.5525 10.6396551724138  L 3.5 10.6396551724138  L 3.43 10.6396551724138  L 3.5525 10.6396551724138  Z M 13.6675 10.1844827586207  L 13.58 10.1465517241379  L 13.6675 10.1844827586207  Z M 0.419999999999998 10.1465517241379  L 0.332499999999998 10.1844827586207  L 0.419999999999998 10.1465517241379  Z M 1.4525 9.76724137931035  L 1.5925 9.76724137931035  L 1.4525 9.76724137931035  Z " fill-rule="nonzero" fill="#ff515c" stroke="none" transform="matrix(1 0 0 1 1038 289 )" />
  </g>
</svg>