<?xml version="1.0" encoding="utf-8"?>
<svg version="1.1" xmlns:xlink="http://www.w3.org/1999/xlink" width="14px" height="2px" xmlns="http://www.w3.org/2000/svg">
  <g transform="matrix(1 0 0 1 -1038 -300 )">
    <path d="M 2.32195121951219 0.479999999999998  C 2.08292682926829 0.319999999999999  1.77560975609756 0.2  1.48536585365854 0.2  C 1.31463414634146 0.2  1.14390243902439 0.240000000000001  0.973170731707317 0.319999999999999  L 0 0.759999999999999  L 0.170731707317073 1.36  L 0.973170731707317 0.9  C 1.14390243902439 0.819999999999999  1.31463414634146 0.780000000000001  1.48536585365854 0.780000000000001  C 1.79268292682927 0.780000000000001  2.1 0.9  2.3390243902439 1.14  L 2.57804878048781 1.36  C 2.83414634146341 1.6  3.12439024390244 1.72  3.43170731707317 1.72  C 3.7390243902439 1.72  4.02926829268293 1.6  4.28536585365854 1.36  C 4.54146341463415 1.12  4.83170731707317 1  5.1390243902439 1  C 5.44634146341463 1  5.73658536585366 1.12  5.99268292682927 1.34  C 6.24878048780488 1.58  6.5390243902439 1.68  6.84634146341463 1.68  C 7.15365853658537 1.68  7.44390243902439 1.56  7.7 1.32  C 7.95609756097561 1.08  8.24634146341464 0.959999999999999  8.55365853658537 0.959999999999999  C 8.8609756097561 0.959999999999999  9.15121951219512 1.08  9.40731707317073 1.32  C 9.66341463414634 1.56  9.95365853658537 1.68  10.2609756097561 1.68  C 10.5682926829268 1.68  10.8585365853659 1.56  11.1146341463415 1.32  L 11.3536585365854 1.1  C 11.5926829268293 0.859999999999999  11.9 0.740000000000001  12.2073170731707 0.740000000000001  C 12.3780487804878 0.740000000000001  12.5487804878049 0.780000000000001  12.719512195122 0.859999999999999  L 13.5219512195122 1.32  L 13.6926829268293 0.719999999999999  L 12.719512195122 0.259999999999999  C 12.5487804878049 0.179999999999998  12.3780487804878 0.140000000000001  12.2073170731707 0.140000000000001  C 11.9 0.140000000000001  11.5926829268293 0.259999999999999  11.3536585365854 0.479999999999998  L 11.0975609756098 0.759999999999999  C 10.8414634146341 1  10.5512195121951 1.1  10.2439024390244 1.1  C 9.93658536585366 1.1  9.64634146341463 0.980000000000001  9.39024390243902 0.740000000000001  C 9.13414634146341 0.5  8.84390243902439 0.379999999999998  8.53658536585366 0.379999999999998  C 8.22926829268292 0.379999999999998  7.9390243902439 0.5  7.68292682926829 0.719999999999999  C 7.42682926829268 0.959999999999999  7.13658536585366 1.06  6.82926829268292 1.06  C 6.52195121951219 1.06  6.23170731707317 0.940000000000001  5.97560975609756 0.7  C 5.71951219512195 0.459999999999999  5.42926829268292 0.340000000000001  5.12195121951219 0.340000000000001  C 4.81463414634146 0.340000000000001  4.52439024390244 0.459999999999999  4.26829268292683 0.7  C 4.01219512195122 0.940000000000001  3.72195121951219 1.06  3.41463414634146 1.06  C 3.10731707317073 1.06  2.81707317073171 0.940000000000001  2.5609756097561 0.7  L 2.32195121951219 0.479999999999998  Z " fill-rule="nonzero" fill="#ff515c" stroke="none" transform="matrix(1 0 0 1 1038 300 )" />
  </g>
</svg>