<?xml version="1.0" encoding="utf-8"?>
<svg version="1.1" xmlns:xlink="http://www.w3.org/1999/xlink" width="14px" height="2px" xmlns="http://www.w3.org/2000/svg">
  <g transform="matrix(1 0 0 1 -1038 -298 )">
    <path d="M 2.32195121951219 0.68  C 2.08292682926829 0.52  1.77560975609756 0.4  1.48536585365854 0.4  C 1.31463414634146 0.4  1.14390243902439 0.439999999999999  0.973170731707317 0.52  L 0 0.959999999999999  L 0.170731707317073 1.56  L 0.973170731707317 1.1  C 1.14390243902439 1.02  1.31463414634146 0.98  1.48536585365854 0.98  C 1.79268292682927 0.98  2.1 1.1  2.3390243902439 1.34  L 2.57804878048781 1.56  C 2.83414634146341 1.8  3.12439024390244 1.92  3.43170731707317 1.92  C 3.7390243902439 1.92  4.02926829268293 1.8  4.28536585365854 1.56  C 4.54146341463415 1.32  4.83170731707317 1.2  5.1390243902439 1.2  C 5.44634146341463 1.2  5.73658536585366 1.32  5.99268292682927 1.54  C 6.24878048780488 1.78  6.5390243902439 1.88  6.84634146341463 1.88  C 7.15365853658537 1.88  7.44390243902439 1.76  7.7 1.52  C 7.95609756097561 1.28  8.24634146341464 1.16  8.55365853658537 1.16  C 8.8609756097561 1.16  9.15121951219512 1.28  9.40731707317073 1.52  C 9.66341463414634 1.76  9.95365853658537 1.88  10.2609756097561 1.88  C 10.5682926829268 1.88  10.8585365853659 1.76  11.1146341463415 1.52  L 11.3536585365854 1.3  C 11.5926829268293 1.06  11.9 0.940000000000001  12.2073170731707 0.940000000000001  C 12.3780487804878 0.940000000000001  12.5487804878049 0.98  12.719512195122 1.06  L 13.5219512195122 1.52  L 13.6926829268293 0.92  L 12.719512195122 0.459999999999999  C 12.5487804878049 0.38  12.3780487804878 0.339999999999999  12.2073170731707 0.339999999999999  C 11.9 0.339999999999999  11.5926829268293 0.459999999999999  11.3536585365854 0.68  L 11.0975609756098 0.959999999999999  C 10.8414634146341 1.2  10.5512195121951 1.3  10.2439024390244 1.3  C 9.93658536585366 1.3  9.64634146341463 1.18  9.39024390243902 0.940000000000001  C 9.13414634146341 0.7  8.84390243902439 0.58  8.53658536585366 0.58  C 8.22926829268292 0.58  7.9390243902439 0.7  7.68292682926829 0.92  C 7.42682926829268 1.16  7.13658536585366 1.26  6.82926829268292 1.26  C 6.52195121951219 1.26  6.23170731707317 1.14  5.97560975609756 0.9  C 5.71951219512195 0.659999999999999  5.42926829268292 0.539999999999999  5.12195121951219 0.539999999999999  C 4.81463414634146 0.539999999999999  4.52439024390244 0.659999999999999  4.26829268292683 0.9  C 4.01219512195122 1.14  3.72195121951219 1.26  3.41463414634146 1.26  C 3.10731707317073 1.26  2.81707317073171 1.14  2.5609756097561 0.9  L 2.32195121951219 0.68  Z " fill-rule="nonzero" fill="#ff515c" stroke="none" transform="matrix(1 0 0 1 1038 298 )" />
  </g>
</svg>