<?xml version="1.0" encoding="utf-8"?>
<svg version="1.1" xmlns:xlink="http://www.w3.org/1999/xlink" width="62px" height="65px" xmlns="http://www.w3.org/2000/svg">
  <g transform="matrix(1 0 0 1 -441 -239 )">
    <path d="M 3.32142857142857 58  L 44.4856150553385 58  C 44.4857719959924 58.6600378787879  44.4859289367192 58.6600378667658  44.4860858773749 58.6600378667658  C 46.1845806569891 58.6600378667658  47.5614827267983 60.0379493955704  47.5614827267983 61.7376894059615  C 47.5614827267983 63.4374294163525  46.1845806569891 64.8153409451571  44.4860858773749 64.8153409451571  C 44.4859289367192 64.8153409451571  44.4857719959924 64.8153409331351  44.4856150553385 64  L 3.32142857142857 64  C 3.32127163072708 64.8153409331351  3.32111469009552 64.8153409451571  3.32095774939219 64.8153409451571  C 1.622462969778 64.8153409451571  0.245560899968828 63.4374294163525  0.245560899968828 61.7376894059615  C 0.245560899968828 60.0379493955704  1.622462969778 58.6600378667658  3.32095774939219 58.6600378667658  C 3.32111469009552 58.6600378667658  3.32127163072708 58.6600378787879  3.32142857142857 58  Z M 42.8279761904762 49.4270833573775  L 42.8279761904762 55  L 5 55  L 5 1  L 42 1  L 42 48.1898674482866  L 49 48.1898674482866  L 49 6.33996209716797  L 55.6031745791481 6.33996209716797  C 55.6026652791668 4.72938894831978  56.8430561401312 3.39079762142832  58.4479166666667 3.27000471080433  L 58.6785714285714 3.26231063010476  L 58.6785714285714 4.80113636363636  L 60.9851190476191 4.80113636363636  C 61.4099781635051 4.80113632757013  61.7542036890252 5.14561421784499  61.7542036890252 5.57054923040217  C 61.7542036890252 5.99548424295934  61.4099781635051 6.3399621332342  60.9853544586495 6.3399621332342  L 58.6785714285714 6.33996209716797  L 58.6785714285714 7.87878790283203  L 60.9851190476191 7.87878790283203  C 61.4099781635051 7.8787878667658  61.7542036890252 8.22326575704066  61.7542036890252 8.64820076959784  C 61.7542036890252 9.07313578215501  61.4099781635051 9.41761367242987  60.9853544586495 9.41761367242987  L 58.6785714285714 9.41761363636364  L 58.6785714285714 10.9564393698952  L 58.4479166666667 10.9487452891957  C 56.9349873902654 10.8349654038383  55.7310274680514 9.6340431251439  55.6124007696243 8.12038352272728  L 55.6031745791481 7.87878790283203  L 55.6031745791481 7.57717800625888  L 51 7.57717800625888  L 51 49.4270833573775  L 42.8279761904762 49.4270833573775  Z M 25.7087797619048 37.6950757335316  L 30.2111607142857 27.8835227272727  L 17.8757440476191 38.3306107954545  L 22.0982638648624 39.6139914772727  L 17.5943452380952 49.4255444835316  L 29.9297619047619 38.9769176136364  L 25.7087797619048 37.6950757335316  Z M 36 21.7282197210139  L 36 7  L 12 7  L 12 22  L 22.4596230398996 22  C 22.7625496512277 20.8972538119229  23.5390873256138 20.2817235329368  24.4740079124814 20.1986268698952  L 24.6631448172433 20.1909327891957  L 32.305505952381 11.3072916426225  L 33.5125992303757 12.296756652832  L 26.2408233886719 20.7541430164684  C 26.5483630952381 21.0126657437411  26.7851686267671 21.3481297829368  26.9220238095238 21.7282197210139  L 36 21.7282197210139  Z " fill-rule="nonzero" fill="#ffffff" stroke="none" transform="matrix(1 0 0 1 441 239 )" />
  </g>
</svg>